M48
; DRILL file {KiCad 8.0.8-8.0.8-0~ubuntu24.04.1} date 2025-02-15T13:06:31-0700
; FORMAT={-:-/ absolute / inch / decimal}
; #@! TF.CreationDate,2025-02-15T13:06:31-07:00
; #@! TF.GenerationSoftware,Kicad,Pcbnew,8.0.8-8.0.8-0~ubuntu24.04.1
; #@! TF.FileFunction,Plated,1,2,PTH
FMAT,2
INCH
; #@! TA.AperFunction,Plated,PTH,ViaDrill
T1C0.0118
; #@! TA.AperFunction,Plated,PTH,ComponentDrill
T2C0.0236
; #@! TA.AperFunction,Plated,PTH,ComponentDrill
T3C0.0354
; #@! TA.AperFunction,Plated,PTH,ComponentDrill
T4C0.0394
; #@! TA.AperFunction,Plated,PTH,ComponentDrill
T5C0.0591
; #@! TA.AperFunction,Plated,PTH,ComponentDrill
T6C0.0610
%
G90
G05
T1
X5.5217Y-3.9764
X5.5709Y-3.8681
X5.6693Y-3.7894
X5.6988Y-4.3996
T2
X5.4764Y-2.5394
X5.6181Y-2.5394
X5.7598Y-2.5394
X5.9016Y-2.5394
T3
X5.389Y-4.7319
X5.3941Y-3.189
X5.3941Y-3.289
X5.3941Y-3.389
X5.3941Y-3.489
X5.3941Y-3.589
X5.3941Y-3.689
X5.3941Y-3.789
X5.3941Y-3.889
X5.3941Y-3.989
X5.3941Y-4.089
X5.3941Y-4.189
X5.3941Y-4.289
X5.3941Y-4.389
X5.3941Y-4.489
X5.3941Y-4.589
X5.489Y-4.7319
X5.589Y-4.7319
X5.689Y-4.7319
X5.789Y-4.7319
X5.889Y-4.7319
X5.989Y-4.7319
X5.9941Y-3.189
X5.9941Y-3.289
X5.9941Y-3.389
X5.9941Y-3.489
X5.9941Y-3.589
X5.9941Y-3.689
X5.9941Y-3.789
X5.9941Y-3.889
X5.9941Y-3.989
X5.9941Y-4.089
X5.9941Y-4.189
X5.9941Y-4.289
X5.9941Y-4.389
X5.9941Y-4.489
X5.9941Y-4.589
T4
X5.5317Y-3.2287
X5.6317Y-3.2287
X5.7317Y-3.2287
X5.8317Y-3.2287
T5
X5.6004Y-3.435
X5.7776Y-3.435
T6
X5.5945Y-2.7264
X5.7835Y-2.7264
M30
