%TF.GenerationSoftware,KiCad,Pcbnew,8.0.6*%
%TF.CreationDate,2025-03-02T18:23:20-07:00*%
%TF.ProjectId,Pit Radio,50697420-5261-4646-996f-2e6b69636164,rev?*%
%TF.SameCoordinates,Original*%
%TF.FileFunction,Legend,Top*%
%TF.FilePolarity,Positive*%
%FSLAX46Y46*%
G04 Gerber Fmt 4.6, Leading zero omitted, Abs format (unit mm)*
G04 Created by KiCad (PCBNEW 8.0.6) date 2025-03-02 18:23:20*
%MOMM*%
%LPD*%
G01*
G04 APERTURE LIST*
%ADD10C,0.100000*%
%ADD11C,0.300000*%
%ADD12C,0.150000*%
G04 APERTURE END LIST*
D10*
X116091027Y-110282419D02*
X116662455Y-110282419D01*
X116376741Y-111282419D02*
X116376741Y-110282419D01*
X116995789Y-111282419D02*
X116995789Y-110282419D01*
X117424360Y-111282419D02*
X117424360Y-110758609D01*
X117424360Y-110758609D02*
X117376741Y-110663371D01*
X117376741Y-110663371D02*
X117281503Y-110615752D01*
X117281503Y-110615752D02*
X117138646Y-110615752D01*
X117138646Y-110615752D02*
X117043408Y-110663371D01*
X117043408Y-110663371D02*
X116995789Y-110710990D01*
X117900551Y-111282419D02*
X117900551Y-110615752D01*
X117900551Y-110282419D02*
X117852932Y-110330038D01*
X117852932Y-110330038D02*
X117900551Y-110377657D01*
X117900551Y-110377657D02*
X117948170Y-110330038D01*
X117948170Y-110330038D02*
X117900551Y-110282419D01*
X117900551Y-110282419D02*
X117900551Y-110377657D01*
X118329122Y-111234800D02*
X118424360Y-111282419D01*
X118424360Y-111282419D02*
X118614836Y-111282419D01*
X118614836Y-111282419D02*
X118710074Y-111234800D01*
X118710074Y-111234800D02*
X118757693Y-111139561D01*
X118757693Y-111139561D02*
X118757693Y-111091942D01*
X118757693Y-111091942D02*
X118710074Y-110996704D01*
X118710074Y-110996704D02*
X118614836Y-110949085D01*
X118614836Y-110949085D02*
X118471979Y-110949085D01*
X118471979Y-110949085D02*
X118376741Y-110901466D01*
X118376741Y-110901466D02*
X118329122Y-110806228D01*
X118329122Y-110806228D02*
X118329122Y-110758609D01*
X118329122Y-110758609D02*
X118376741Y-110663371D01*
X118376741Y-110663371D02*
X118471979Y-110615752D01*
X118471979Y-110615752D02*
X118614836Y-110615752D01*
X118614836Y-110615752D02*
X118710074Y-110663371D01*
X119900551Y-111234800D02*
X119995789Y-111282419D01*
X119995789Y-111282419D02*
X120186265Y-111282419D01*
X120186265Y-111282419D02*
X120281503Y-111234800D01*
X120281503Y-111234800D02*
X120329122Y-111139561D01*
X120329122Y-111139561D02*
X120329122Y-111091942D01*
X120329122Y-111091942D02*
X120281503Y-110996704D01*
X120281503Y-110996704D02*
X120186265Y-110949085D01*
X120186265Y-110949085D02*
X120043408Y-110949085D01*
X120043408Y-110949085D02*
X119948170Y-110901466D01*
X119948170Y-110901466D02*
X119900551Y-110806228D01*
X119900551Y-110806228D02*
X119900551Y-110758609D01*
X119900551Y-110758609D02*
X119948170Y-110663371D01*
X119948170Y-110663371D02*
X120043408Y-110615752D01*
X120043408Y-110615752D02*
X120186265Y-110615752D01*
X120186265Y-110615752D02*
X120281503Y-110663371D01*
X120757694Y-111282419D02*
X120757694Y-110615752D01*
X120757694Y-110282419D02*
X120710075Y-110330038D01*
X120710075Y-110330038D02*
X120757694Y-110377657D01*
X120757694Y-110377657D02*
X120805313Y-110330038D01*
X120805313Y-110330038D02*
X120757694Y-110282419D01*
X120757694Y-110282419D02*
X120757694Y-110377657D01*
X121662455Y-111282419D02*
X121662455Y-110282419D01*
X121662455Y-111234800D02*
X121567217Y-111282419D01*
X121567217Y-111282419D02*
X121376741Y-111282419D01*
X121376741Y-111282419D02*
X121281503Y-111234800D01*
X121281503Y-111234800D02*
X121233884Y-111187180D01*
X121233884Y-111187180D02*
X121186265Y-111091942D01*
X121186265Y-111091942D02*
X121186265Y-110806228D01*
X121186265Y-110806228D02*
X121233884Y-110710990D01*
X121233884Y-110710990D02*
X121281503Y-110663371D01*
X121281503Y-110663371D02*
X121376741Y-110615752D01*
X121376741Y-110615752D02*
X121567217Y-110615752D01*
X121567217Y-110615752D02*
X121662455Y-110663371D01*
X122519598Y-111234800D02*
X122424360Y-111282419D01*
X122424360Y-111282419D02*
X122233884Y-111282419D01*
X122233884Y-111282419D02*
X122138646Y-111234800D01*
X122138646Y-111234800D02*
X122091027Y-111139561D01*
X122091027Y-111139561D02*
X122091027Y-110758609D01*
X122091027Y-110758609D02*
X122138646Y-110663371D01*
X122138646Y-110663371D02*
X122233884Y-110615752D01*
X122233884Y-110615752D02*
X122424360Y-110615752D01*
X122424360Y-110615752D02*
X122519598Y-110663371D01*
X122519598Y-110663371D02*
X122567217Y-110758609D01*
X122567217Y-110758609D02*
X122567217Y-110853847D01*
X122567217Y-110853847D02*
X122091027Y-110949085D01*
X124186265Y-110615752D02*
X124186265Y-111282419D01*
X123757694Y-110615752D02*
X123757694Y-111139561D01*
X123757694Y-111139561D02*
X123805313Y-111234800D01*
X123805313Y-111234800D02*
X123900551Y-111282419D01*
X123900551Y-111282419D02*
X124043408Y-111282419D01*
X124043408Y-111282419D02*
X124138646Y-111234800D01*
X124138646Y-111234800D02*
X124186265Y-111187180D01*
X124662456Y-110615752D02*
X124662456Y-111615752D01*
X124662456Y-110663371D02*
X124757694Y-110615752D01*
X124757694Y-110615752D02*
X124948170Y-110615752D01*
X124948170Y-110615752D02*
X125043408Y-110663371D01*
X125043408Y-110663371D02*
X125091027Y-110710990D01*
X125091027Y-110710990D02*
X125138646Y-110806228D01*
X125138646Y-110806228D02*
X125138646Y-111091942D01*
X125138646Y-111091942D02*
X125091027Y-111187180D01*
X125091027Y-111187180D02*
X125043408Y-111234800D01*
X125043408Y-111234800D02*
X124948170Y-111282419D01*
X124948170Y-111282419D02*
X124757694Y-111282419D01*
X124757694Y-111282419D02*
X124662456Y-111234800D01*
X126329123Y-111282419D02*
X126329123Y-110282419D01*
X126329123Y-110282419D02*
X126662456Y-110996704D01*
X126662456Y-110996704D02*
X126995789Y-110282419D01*
X126995789Y-110282419D02*
X126995789Y-111282419D01*
X127900551Y-111282419D02*
X127900551Y-110758609D01*
X127900551Y-110758609D02*
X127852932Y-110663371D01*
X127852932Y-110663371D02*
X127757694Y-110615752D01*
X127757694Y-110615752D02*
X127567218Y-110615752D01*
X127567218Y-110615752D02*
X127471980Y-110663371D01*
X127900551Y-111234800D02*
X127805313Y-111282419D01*
X127805313Y-111282419D02*
X127567218Y-111282419D01*
X127567218Y-111282419D02*
X127471980Y-111234800D01*
X127471980Y-111234800D02*
X127424361Y-111139561D01*
X127424361Y-111139561D02*
X127424361Y-111044323D01*
X127424361Y-111044323D02*
X127471980Y-110949085D01*
X127471980Y-110949085D02*
X127567218Y-110901466D01*
X127567218Y-110901466D02*
X127805313Y-110901466D01*
X127805313Y-110901466D02*
X127900551Y-110853847D01*
X128233885Y-110615752D02*
X128614837Y-110615752D01*
X128376742Y-110282419D02*
X128376742Y-111139561D01*
X128376742Y-111139561D02*
X128424361Y-111234800D01*
X128424361Y-111234800D02*
X128519599Y-111282419D01*
X128519599Y-111282419D02*
X128614837Y-111282419D01*
X128805314Y-110615752D02*
X129186266Y-110615752D01*
X128948171Y-110282419D02*
X128948171Y-111139561D01*
X128948171Y-111139561D02*
X128995790Y-111234800D01*
X128995790Y-111234800D02*
X129091028Y-111282419D01*
X129091028Y-111282419D02*
X129186266Y-111282419D01*
X129519600Y-111282419D02*
X129519600Y-110282419D01*
X129948171Y-111282419D02*
X129948171Y-110758609D01*
X129948171Y-110758609D02*
X129900552Y-110663371D01*
X129900552Y-110663371D02*
X129805314Y-110615752D01*
X129805314Y-110615752D02*
X129662457Y-110615752D01*
X129662457Y-110615752D02*
X129567219Y-110663371D01*
X129567219Y-110663371D02*
X129519600Y-110710990D01*
X130805314Y-111234800D02*
X130710076Y-111282419D01*
X130710076Y-111282419D02*
X130519600Y-111282419D01*
X130519600Y-111282419D02*
X130424362Y-111234800D01*
X130424362Y-111234800D02*
X130376743Y-111139561D01*
X130376743Y-111139561D02*
X130376743Y-110758609D01*
X130376743Y-110758609D02*
X130424362Y-110663371D01*
X130424362Y-110663371D02*
X130519600Y-110615752D01*
X130519600Y-110615752D02*
X130710076Y-110615752D01*
X130710076Y-110615752D02*
X130805314Y-110663371D01*
X130805314Y-110663371D02*
X130852933Y-110758609D01*
X130852933Y-110758609D02*
X130852933Y-110853847D01*
X130852933Y-110853847D02*
X130376743Y-110949085D01*
X131186267Y-110615752D02*
X131376743Y-111282419D01*
X131376743Y-111282419D02*
X131567219Y-110806228D01*
X131567219Y-110806228D02*
X131757695Y-111282419D01*
X131757695Y-111282419D02*
X131948171Y-110615752D01*
X146323884Y-123121466D02*
X147085789Y-123121466D01*
X99433884Y-100561466D02*
X100195789Y-100561466D01*
X99814836Y-100942419D02*
X99814836Y-100180514D01*
X101148169Y-99942419D02*
X100671979Y-99942419D01*
X100671979Y-99942419D02*
X100624360Y-100418609D01*
X100624360Y-100418609D02*
X100671979Y-100370990D01*
X100671979Y-100370990D02*
X100767217Y-100323371D01*
X100767217Y-100323371D02*
X101005312Y-100323371D01*
X101005312Y-100323371D02*
X101100550Y-100370990D01*
X101100550Y-100370990D02*
X101148169Y-100418609D01*
X101148169Y-100418609D02*
X101195788Y-100513847D01*
X101195788Y-100513847D02*
X101195788Y-100751942D01*
X101195788Y-100751942D02*
X101148169Y-100847180D01*
X101148169Y-100847180D02*
X101100550Y-100894800D01*
X101100550Y-100894800D02*
X101005312Y-100942419D01*
X101005312Y-100942419D02*
X100767217Y-100942419D01*
X100767217Y-100942419D02*
X100671979Y-100894800D01*
X100671979Y-100894800D02*
X100624360Y-100847180D01*
X101481503Y-99942419D02*
X101814836Y-100942419D01*
X101814836Y-100942419D02*
X102148169Y-99942419D01*
D11*
X128725489Y-141549400D02*
X127582632Y-141549400D01*
G36*
X133022276Y-126314412D02*
G01*
X133101811Y-126323348D01*
X133174531Y-126338240D01*
X133252799Y-126363974D01*
X133321252Y-126398287D01*
X133370799Y-126433433D01*
X133428328Y-126491138D01*
X133471728Y-126557503D01*
X133500997Y-126632529D01*
X133516136Y-126716215D01*
X133518443Y-126767923D01*
X133513240Y-126841786D01*
X133495859Y-126916106D01*
X133481441Y-126953670D01*
X133443002Y-127022382D01*
X133391801Y-127081697D01*
X133374829Y-127096919D01*
X133313192Y-127140606D01*
X133247281Y-127172884D01*
X133204836Y-127188143D01*
X133132957Y-127206290D01*
X133054844Y-127216904D01*
X132978422Y-127220017D01*
X132839204Y-127220017D01*
X132839204Y-127628879D01*
X132773625Y-127639870D01*
X132699397Y-127644874D01*
X132684965Y-127645000D01*
X132609591Y-127638478D01*
X132546479Y-127610928D01*
X132512233Y-127542384D01*
X132507644Y-127487463D01*
X132507644Y-126575216D01*
X132837006Y-126575216D01*
X132837006Y-126965027D01*
X132957173Y-126965027D01*
X133034163Y-126956744D01*
X133105717Y-126926599D01*
X133121671Y-126914836D01*
X133167558Y-126852187D01*
X133182615Y-126776934D01*
X133182854Y-126764626D01*
X133172160Y-126687397D01*
X133133749Y-126622361D01*
X133067402Y-126582101D01*
X132986434Y-126567197D01*
X132959371Y-126566423D01*
X132892693Y-126568621D01*
X132837006Y-126575216D01*
X132507644Y-126575216D01*
X132507644Y-126456147D01*
X132529626Y-126390202D01*
X132594106Y-126353932D01*
X132666041Y-126333753D01*
X132671409Y-126332683D01*
X132745666Y-126320028D01*
X132759703Y-126318028D01*
X132833525Y-126311665D01*
X132850561Y-126311434D01*
X132925855Y-126311434D01*
X132935924Y-126311434D01*
X133022276Y-126314412D01*
G37*
G36*
X133898363Y-127645000D02*
G01*
X133822989Y-127638618D01*
X133759877Y-127611660D01*
X133725632Y-127544070D01*
X133721043Y-127490027D01*
X133721043Y-126357962D01*
X133787721Y-126341842D01*
X133861456Y-126332191D01*
X133875282Y-126331950D01*
X133952406Y-126338953D01*
X134011203Y-126363824D01*
X134047711Y-126431526D01*
X134052602Y-126488021D01*
X134052602Y-127628879D01*
X133987023Y-127639870D01*
X133912796Y-127644874D01*
X133898363Y-127645000D01*
G37*
G36*
X134937006Y-126613318D02*
G01*
X134937006Y-127628879D01*
X134871427Y-127639870D01*
X134797199Y-127644874D01*
X134782766Y-127645000D01*
X134707433Y-127638548D01*
X134643548Y-127611294D01*
X134608333Y-127542908D01*
X134603614Y-127488196D01*
X134603614Y-126613318D01*
X134272055Y-126613318D01*
X134247875Y-126560928D01*
X134236151Y-126489853D01*
X134249720Y-126415704D01*
X134267658Y-126389836D01*
X134334690Y-126359436D01*
X134354487Y-126358328D01*
X135276625Y-126358328D01*
X135301905Y-126411085D01*
X135312529Y-126481793D01*
X135298802Y-126554635D01*
X135280655Y-126581078D01*
X135213977Y-126612184D01*
X135194193Y-126613318D01*
X134937006Y-126613318D01*
G37*
G36*
X136451338Y-126334875D02*
G01*
X136530552Y-126343649D01*
X136602735Y-126358273D01*
X136680075Y-126383544D01*
X136747291Y-126417238D01*
X136795572Y-126451751D01*
X136851531Y-126508211D01*
X136893746Y-126573086D01*
X136922216Y-126646376D01*
X136936943Y-126728081D01*
X136939187Y-126778548D01*
X136932890Y-126852787D01*
X136911417Y-126928747D01*
X136874706Y-126998733D01*
X136825217Y-127060970D01*
X136764904Y-127113683D01*
X136700683Y-127153339D01*
X136748739Y-127216563D01*
X136795635Y-127277643D01*
X136841372Y-127336579D01*
X136866280Y-127368394D01*
X136911732Y-127427535D01*
X136955696Y-127488397D01*
X136983517Y-127530694D01*
X136949399Y-127599684D01*
X136912808Y-127633642D01*
X136844516Y-127663552D01*
X136799968Y-127668447D01*
X136725473Y-127658624D01*
X136677602Y-127633642D01*
X136626512Y-127579231D01*
X136597369Y-127536556D01*
X136394769Y-127220017D01*
X136249323Y-127220017D01*
X136249323Y-127647564D01*
X136183743Y-127661852D01*
X136109516Y-127668286D01*
X136095083Y-127668447D01*
X136019710Y-127661925D01*
X135956598Y-127634375D01*
X135922352Y-127565989D01*
X135917763Y-127511277D01*
X135917763Y-126601960D01*
X136244926Y-126601960D01*
X136244926Y-126965027D01*
X136375718Y-126965027D01*
X136451824Y-126957288D01*
X136523861Y-126929124D01*
X136540216Y-126918133D01*
X136587752Y-126858690D01*
X136603349Y-126786692D01*
X136603597Y-126774884D01*
X136591991Y-126701652D01*
X136550306Y-126639983D01*
X136478304Y-126601806D01*
X136404407Y-126588591D01*
X136361064Y-126586939D01*
X136299881Y-126591702D01*
X136244926Y-126601960D01*
X135917763Y-126601960D01*
X135917763Y-126480694D01*
X135939745Y-126414748D01*
X136004225Y-126378845D01*
X136078780Y-126356954D01*
X136155135Y-126343961D01*
X136166891Y-126342575D01*
X136245378Y-126335696D01*
X136320297Y-126332458D01*
X136365094Y-126331950D01*
X136451338Y-126334875D01*
G37*
G36*
X137786594Y-126348088D02*
G01*
X137862253Y-126364150D01*
X137880743Y-126370418D01*
X137943627Y-126408371D01*
X137974898Y-126458346D01*
X138000465Y-126531991D01*
X138024515Y-126604389D01*
X138049551Y-126682583D01*
X138060994Y-126719197D01*
X138084327Y-126793912D01*
X138107797Y-126869681D01*
X138131405Y-126946503D01*
X138155150Y-127024378D01*
X138178757Y-127102529D01*
X138201953Y-127180175D01*
X138224736Y-127257317D01*
X138247107Y-127333956D01*
X138268608Y-127408351D01*
X138291209Y-127487283D01*
X138312129Y-127561172D01*
X138325143Y-127607630D01*
X138261859Y-127649447D01*
X138256266Y-127651594D01*
X138182025Y-127667114D01*
X138147822Y-127668447D01*
X138074476Y-127661443D01*
X138019961Y-127636573D01*
X137978937Y-127575273D01*
X137966472Y-127536189D01*
X137915547Y-127363632D01*
X137501922Y-127363632D01*
X137480928Y-127435014D01*
X137461221Y-127505591D01*
X137458691Y-127514940D01*
X137439015Y-127589490D01*
X137423886Y-127647198D01*
X137366734Y-127661852D01*
X137295293Y-127668447D01*
X137218034Y-127661282D01*
X137154609Y-127635840D01*
X137111086Y-127573679D01*
X137107348Y-127541318D01*
X137115774Y-127484166D01*
X137134825Y-127420418D01*
X137155369Y-127347427D01*
X137176957Y-127278635D01*
X137200129Y-127207338D01*
X137223021Y-127137555D01*
X137232566Y-127108642D01*
X137556877Y-127108642D01*
X137858761Y-127108642D01*
X137838478Y-127035352D01*
X137818021Y-126963858D01*
X137795088Y-126886528D01*
X137785854Y-126856217D01*
X137763872Y-126784068D01*
X137742337Y-126712059D01*
X137723572Y-126647756D01*
X137711116Y-126647756D01*
X137686953Y-126722082D01*
X137661455Y-126796732D01*
X137638210Y-126862445D01*
X137611691Y-126938280D01*
X137586174Y-127015116D01*
X137564066Y-127085125D01*
X137556877Y-127108642D01*
X137232566Y-127108642D01*
X137237041Y-127095087D01*
X137262182Y-127020451D01*
X137285953Y-126950769D01*
X137305917Y-126892854D01*
X137330341Y-126822490D01*
X137356393Y-126748396D01*
X137375526Y-126694651D01*
X137401884Y-126620512D01*
X137427970Y-126546621D01*
X137436709Y-126521727D01*
X137462080Y-126451293D01*
X137483237Y-126396796D01*
X137553711Y-126368371D01*
X137581057Y-126360893D01*
X137655606Y-126346969D01*
X137712948Y-126343674D01*
X137786594Y-126348088D01*
G37*
G36*
X139032569Y-126311044D02*
G01*
X139108338Y-126318669D01*
X139189144Y-126333323D01*
X139248747Y-126349169D01*
X139320540Y-126375344D01*
X139386305Y-126408533D01*
X139452308Y-126453634D01*
X139476625Y-126474099D01*
X139531816Y-126530950D01*
X139578778Y-126596173D01*
X139614008Y-126662032D01*
X139624270Y-126685491D01*
X139649773Y-126760447D01*
X139665435Y-126833204D01*
X139674502Y-126911732D01*
X139677027Y-126985177D01*
X139673867Y-127067884D01*
X139664387Y-127145279D01*
X139648588Y-127217361D01*
X139626468Y-127284131D01*
X139594755Y-127352868D01*
X139551836Y-127421289D01*
X139500831Y-127481339D01*
X139483953Y-127497721D01*
X139422794Y-127546923D01*
X139354266Y-127587824D01*
X139286288Y-127617538D01*
X139262302Y-127625949D01*
X139187090Y-127646492D01*
X139107356Y-127660312D01*
X139032686Y-127666953D01*
X138974340Y-127668447D01*
X138898649Y-127668447D01*
X138893007Y-127668447D01*
X138817734Y-127664819D01*
X138799951Y-127662951D01*
X138725211Y-127652030D01*
X138703963Y-127647930D01*
X138630941Y-127628824D01*
X138615669Y-127623384D01*
X138548693Y-127583868D01*
X138511019Y-127520711D01*
X138505760Y-127477937D01*
X138505760Y-126609654D01*
X138835122Y-126609654D01*
X138835122Y-127400635D01*
X138901434Y-127410526D01*
X138976538Y-127413457D01*
X139054574Y-127407069D01*
X139132292Y-127384609D01*
X139199345Y-127345979D01*
X139238122Y-127311242D01*
X139285054Y-127245515D01*
X139313876Y-127173273D01*
X139329141Y-127099392D01*
X139335114Y-127015553D01*
X139335209Y-127002763D01*
X139331680Y-126928325D01*
X139318642Y-126850923D01*
X139291977Y-126774914D01*
X139252765Y-126712185D01*
X139234825Y-126692086D01*
X139173784Y-126642675D01*
X139103179Y-126609435D01*
X139023010Y-126592366D01*
X138974340Y-126589870D01*
X138902533Y-126589870D01*
X138835122Y-126609654D01*
X138505760Y-126609654D01*
X138505760Y-126458346D01*
X138527742Y-126392034D01*
X138592222Y-126353565D01*
X138664403Y-126334147D01*
X138739848Y-126321138D01*
X138775771Y-126317295D01*
X138851872Y-126311602D01*
X138927606Y-126308717D01*
X138953091Y-126308503D01*
X139032569Y-126311044D01*
G37*
G36*
X140075265Y-127645000D02*
G01*
X139999891Y-127638618D01*
X139936779Y-127611660D01*
X139902533Y-127544070D01*
X139897944Y-127490027D01*
X139897944Y-126357962D01*
X139964623Y-126341842D01*
X140038357Y-126332191D01*
X140052184Y-126331950D01*
X140129308Y-126338953D01*
X140188105Y-126363824D01*
X140224612Y-126431526D01*
X140229504Y-126488021D01*
X140229504Y-127628879D01*
X140163925Y-127639870D01*
X140089697Y-127644874D01*
X140075265Y-127645000D01*
G37*
G36*
X141188513Y-126312038D02*
G01*
X141262302Y-126322645D01*
X141340756Y-126342723D01*
X141371095Y-126353199D01*
X141443316Y-126384984D01*
X141509312Y-126424926D01*
X141569082Y-126473026D01*
X141580289Y-126483625D01*
X141631981Y-126541177D01*
X141676231Y-126606672D01*
X141709693Y-126672408D01*
X141719508Y-126695750D01*
X141743947Y-126769771D01*
X141760389Y-126850052D01*
X141768288Y-126926668D01*
X141770066Y-126987376D01*
X141766952Y-127067793D01*
X141757609Y-127143447D01*
X141739655Y-127222865D01*
X141720240Y-127280467D01*
X141689319Y-127348731D01*
X141647688Y-127416966D01*
X141598400Y-127477187D01*
X141582121Y-127493691D01*
X141523789Y-127543265D01*
X141459160Y-127584824D01*
X141388234Y-127618369D01*
X141373293Y-127624117D01*
X141296114Y-127647494D01*
X141223103Y-127661131D01*
X141146731Y-127667754D01*
X141111709Y-127668447D01*
X141033814Y-127664940D01*
X140959223Y-127654420D01*
X140887935Y-127636888D01*
X140849759Y-127624117D01*
X140777838Y-127592174D01*
X140712286Y-127552218D01*
X140653103Y-127504247D01*
X140642030Y-127493691D01*
X140591025Y-127435874D01*
X140547462Y-127370043D01*
X140514618Y-127303943D01*
X140505010Y-127280467D01*
X140481101Y-127205737D01*
X140465018Y-127124980D01*
X140457290Y-127048135D01*
X140455551Y-126987376D01*
X140795170Y-126987376D01*
X140799255Y-127070105D01*
X140811509Y-127143262D01*
X140835518Y-127215150D01*
X140875282Y-127281079D01*
X140880533Y-127287428D01*
X140939946Y-127339978D01*
X141011022Y-127373066D01*
X141084963Y-127386203D01*
X141111709Y-127387079D01*
X141188770Y-127379196D01*
X141263245Y-127351948D01*
X141325985Y-127305237D01*
X141342519Y-127287428D01*
X141383960Y-127223257D01*
X141409411Y-127152932D01*
X141424146Y-127070105D01*
X141428248Y-126987376D01*
X141424146Y-126905520D01*
X141411839Y-126833062D01*
X141387727Y-126761758D01*
X141347793Y-126696212D01*
X141342519Y-126689888D01*
X141283299Y-126637144D01*
X141212345Y-126603935D01*
X141138452Y-126590749D01*
X141111709Y-126589870D01*
X141035447Y-126597782D01*
X140961315Y-126625130D01*
X140898346Y-126672014D01*
X140881632Y-126689888D01*
X140839837Y-126753708D01*
X140814168Y-126823478D01*
X140799308Y-126905520D01*
X140795170Y-126987376D01*
X140455551Y-126987376D01*
X140458711Y-126907050D01*
X140468190Y-126831671D01*
X140486409Y-126752781D01*
X140506109Y-126695750D01*
X140537562Y-126627869D01*
X140579579Y-126559991D01*
X140629039Y-126500056D01*
X140645327Y-126483625D01*
X140703710Y-126433894D01*
X140768031Y-126392320D01*
X140838291Y-126358903D01*
X140853056Y-126353199D01*
X140929635Y-126329629D01*
X141001859Y-126315879D01*
X141077214Y-126309201D01*
X141111709Y-126308503D01*
X141188513Y-126312038D01*
G37*
G36*
X133041219Y-128854875D02*
G01*
X133120433Y-128863649D01*
X133192616Y-128878273D01*
X133269956Y-128903544D01*
X133337173Y-128937238D01*
X133385453Y-128971751D01*
X133441412Y-129028211D01*
X133483627Y-129093086D01*
X133512098Y-129166376D01*
X133526824Y-129248081D01*
X133529068Y-129298548D01*
X133522771Y-129372787D01*
X133501299Y-129448747D01*
X133464588Y-129518733D01*
X133415098Y-129580970D01*
X133354786Y-129633683D01*
X133290565Y-129673339D01*
X133338620Y-129736563D01*
X133385516Y-129797643D01*
X133431253Y-129856579D01*
X133456161Y-129888394D01*
X133501613Y-129947535D01*
X133545577Y-130008397D01*
X133573398Y-130050694D01*
X133539280Y-130119684D01*
X133502690Y-130153642D01*
X133434397Y-130183552D01*
X133389849Y-130188447D01*
X133315354Y-130178624D01*
X133267484Y-130153642D01*
X133216393Y-130099231D01*
X133187250Y-130056556D01*
X132984651Y-129740017D01*
X132839204Y-129740017D01*
X132839204Y-130167564D01*
X132773625Y-130181852D01*
X132699397Y-130188286D01*
X132684965Y-130188447D01*
X132609591Y-130181925D01*
X132546479Y-130154375D01*
X132512233Y-130085989D01*
X132507644Y-130031277D01*
X132507644Y-129121960D01*
X132834808Y-129121960D01*
X132834808Y-129485027D01*
X132965600Y-129485027D01*
X133041706Y-129477288D01*
X133113742Y-129449124D01*
X133130097Y-129438133D01*
X133177633Y-129378690D01*
X133193231Y-129306692D01*
X133193478Y-129294884D01*
X133181873Y-129221652D01*
X133140187Y-129159983D01*
X133068185Y-129121806D01*
X132994288Y-129108591D01*
X132950945Y-129106939D01*
X132889762Y-129111702D01*
X132834808Y-129121960D01*
X132507644Y-129121960D01*
X132507644Y-129000694D01*
X132529626Y-128934748D01*
X132594106Y-128898845D01*
X132668661Y-128876954D01*
X132745017Y-128863961D01*
X132756772Y-128862575D01*
X132835259Y-128855696D01*
X132910178Y-128852458D01*
X132954975Y-128851950D01*
X133041219Y-128854875D01*
G37*
G36*
X134270395Y-129114404D02*
G01*
X134343450Y-129128005D01*
X134389291Y-129142110D01*
X134458049Y-129172598D01*
X134522763Y-129215034D01*
X134543531Y-129232602D01*
X134594411Y-129287991D01*
X134634211Y-129352215D01*
X134643548Y-129372187D01*
X134668092Y-129445838D01*
X134678575Y-129519251D01*
X134679452Y-129548775D01*
X134663989Y-129621609D01*
X134643548Y-129648426D01*
X134576943Y-129684427D01*
X134542431Y-129692023D01*
X133993618Y-129773356D01*
X134027999Y-129839974D01*
X134083512Y-129889874D01*
X134096933Y-129897187D01*
X134166105Y-129921981D01*
X134244114Y-129932891D01*
X134268025Y-129933457D01*
X134343569Y-129928969D01*
X134419995Y-129914200D01*
X134434720Y-129910010D01*
X134505429Y-129884914D01*
X134561482Y-129857254D01*
X134612557Y-129911855D01*
X134613872Y-129914040D01*
X134635039Y-129985095D01*
X134635122Y-129990244D01*
X134615531Y-130063099D01*
X134605446Y-130077438D01*
X134548912Y-130126348D01*
X134524480Y-130139720D01*
X134452466Y-130165709D01*
X134402114Y-130176357D01*
X134328017Y-130185424D01*
X134252395Y-130188435D01*
X134247142Y-130188447D01*
X134171150Y-130185048D01*
X134091856Y-130173458D01*
X134017065Y-130153642D01*
X133947988Y-130125731D01*
X133880531Y-130086198D01*
X133835348Y-130050327D01*
X133783056Y-129993827D01*
X133739933Y-129927641D01*
X133716280Y-129878136D01*
X133691667Y-129802865D01*
X133678157Y-129727073D01*
X133673218Y-129652865D01*
X133673049Y-129635603D01*
X133676455Y-129562697D01*
X133972735Y-129562697D01*
X134375736Y-129498583D01*
X134352767Y-129428333D01*
X134327009Y-129393803D01*
X134263228Y-129353810D01*
X134194385Y-129344344D01*
X134120775Y-129355143D01*
X134054980Y-129390681D01*
X134043443Y-129400764D01*
X133997982Y-129464262D01*
X133976164Y-129537005D01*
X133972735Y-129562697D01*
X133676455Y-129562697D01*
X133676469Y-129562400D01*
X133688290Y-129487724D01*
X133711045Y-129413681D01*
X133716280Y-129401130D01*
X133752825Y-129331458D01*
X133797613Y-129271368D01*
X133832051Y-129236632D01*
X133894734Y-129189154D01*
X133964310Y-129153285D01*
X133998747Y-129140645D01*
X134070085Y-129121892D01*
X134142865Y-129111794D01*
X134192187Y-129109870D01*
X134270395Y-129114404D01*
G37*
G36*
X135650683Y-129109870D02*
G01*
X135724471Y-129121749D01*
X135761325Y-129140279D01*
X135803161Y-129204661D01*
X135806755Y-129241395D01*
X135796113Y-129315311D01*
X135790635Y-129338482D01*
X135771208Y-129412241D01*
X135749602Y-129485394D01*
X135726080Y-129559265D01*
X135701727Y-129632129D01*
X135691716Y-129661249D01*
X135666952Y-129730972D01*
X135639427Y-129805111D01*
X135624305Y-129844431D01*
X135596147Y-129915128D01*
X135566094Y-129986935D01*
X135555429Y-130011493D01*
X135525198Y-130078592D01*
X135494246Y-130140819D01*
X135426763Y-130171500D01*
X135417309Y-130174159D01*
X135344460Y-130186758D01*
X135302271Y-130188447D01*
X135226034Y-130182419D01*
X135175875Y-130169396D01*
X135113227Y-130127424D01*
X135099672Y-130107480D01*
X135066974Y-130037963D01*
X135054242Y-130007829D01*
X135024975Y-129935548D01*
X134997090Y-129864214D01*
X134970272Y-129792367D01*
X134944993Y-129722135D01*
X134935174Y-129694221D01*
X134909877Y-129620757D01*
X134885184Y-129547414D01*
X134873991Y-129513604D01*
X134850605Y-129441530D01*
X134827044Y-129367158D01*
X134819036Y-129341413D01*
X134797672Y-129268018D01*
X134779103Y-129193401D01*
X134836106Y-129142686D01*
X134849811Y-129134783D01*
X134922076Y-129111427D01*
X134947997Y-129109870D01*
X135022386Y-129121319D01*
X135057540Y-129139180D01*
X135103844Y-129198633D01*
X135120921Y-129246524D01*
X135213611Y-129589441D01*
X135234150Y-129663017D01*
X135254689Y-129735505D01*
X135264169Y-129768593D01*
X135285314Y-129842653D01*
X135302271Y-129906346D01*
X135312896Y-129906346D01*
X135334053Y-129830840D01*
X135355211Y-129752423D01*
X135376368Y-129671096D01*
X135394503Y-129599072D01*
X135409616Y-129537418D01*
X135427669Y-129462851D01*
X135445285Y-129388903D01*
X135462462Y-129315572D01*
X135479202Y-129242861D01*
X135495504Y-129170767D01*
X135500840Y-129146873D01*
X135570908Y-129119121D01*
X135645413Y-129109907D01*
X135650683Y-129109870D01*
G37*
G36*
X136385976Y-129259713D02*
G01*
X136330700Y-129210147D01*
X136326992Y-129205858D01*
X136299171Y-129137989D01*
X136297316Y-129108405D01*
X136313810Y-129036231D01*
X136363292Y-128979901D01*
X136428313Y-128945599D01*
X136436901Y-128942442D01*
X136683464Y-128851950D01*
X136755272Y-128851950D01*
X136827537Y-128864132D01*
X136883866Y-128900676D01*
X136923265Y-128965051D01*
X136932592Y-129028904D01*
X136932592Y-130146681D01*
X136871409Y-130159138D01*
X136795730Y-130164948D01*
X136787145Y-130165000D01*
X136713966Y-130159039D01*
X136649759Y-130133859D01*
X136612605Y-130068207D01*
X136607627Y-130014424D01*
X136607627Y-129181678D01*
X136385976Y-129259713D01*
G37*
D10*
X139023884Y-134661466D02*
X139785789Y-134661466D01*
X139404836Y-135042419D02*
X139404836Y-134280514D01*
X139153884Y-139721466D02*
X139915789Y-139721466D01*
D12*
X138024819Y-137413333D02*
X138739104Y-137413333D01*
X138739104Y-137413333D02*
X138881961Y-137460952D01*
X138881961Y-137460952D02*
X138977200Y-137556190D01*
X138977200Y-137556190D02*
X139024819Y-137699047D01*
X139024819Y-137699047D02*
X139024819Y-137794285D01*
X139024819Y-136413333D02*
X139024819Y-136984761D01*
X139024819Y-136699047D02*
X138024819Y-136699047D01*
X138024819Y-136699047D02*
X138167676Y-136794285D01*
X138167676Y-136794285D02*
X138262914Y-136889523D01*
X138262914Y-136889523D02*
X138310533Y-136984761D01*
%TO.C,UNIT_1*%
D10*
X149120000Y-95880000D02*
X98180000Y-95880000D01*
X98180000Y-124320000D01*
X149120000Y-124320000D01*
X149120000Y-95880000D01*
%TO.C,U2*%
X129575000Y-126750000D02*
X96175000Y-126750000D01*
X96175000Y-144750000D01*
X129575000Y-144750000D01*
X129575000Y-126750000D01*
%TD*%
M02*
