%TF.GenerationSoftware,KiCad,Pcbnew,8.0.6*%
%TF.CreationDate,2025-03-02T18:23:20-07:00*%
%TF.ProjectId,Pit Radio,50697420-5261-4646-996f-2e6b69636164,rev?*%
%TF.SameCoordinates,Original*%
%TF.FileFunction,Soldermask,Top*%
%TF.FilePolarity,Negative*%
%FSLAX46Y46*%
G04 Gerber Fmt 4.6, Leading zero omitted, Abs format (unit mm)*
G04 Created by KiCad (PCBNEW 8.0.6) date 2025-03-02 18:23:20*
%MOMM*%
%LPD*%
G01*
G04 APERTURE LIST*
G04 Aperture macros list*
%AMRoundRect*
0 Rectangle with rounded corners*
0 $1 Rounding radius*
0 $2 $3 $4 $5 $6 $7 $8 $9 X,Y pos of 4 corners*
0 Add a 4 corners polygon primitive as box body*
4,1,4,$2,$3,$4,$5,$6,$7,$8,$9,$2,$3,0*
0 Add four circle primitives for the rounded corners*
1,1,$1+$1,$2,$3*
1,1,$1+$1,$4,$5*
1,1,$1+$1,$6,$7*
1,1,$1+$1,$8,$9*
0 Add four rect primitives between the rounded corners*
20,1,$1+$1,$2,$3,$4,$5,0*
20,1,$1+$1,$4,$5,$6,$7,0*
20,1,$1+$1,$6,$7,$8,$9,0*
20,1,$1+$1,$8,$9,$2,$3,0*%
G04 Aperture macros list end*
%ADD10RoundRect,0.249999X-1.025001X1.025001X-1.025001X-1.025001X1.025001X-1.025001X1.025001X1.025001X0*%
%ADD11C,2.550000*%
%ADD12C,3.200000*%
%ADD13RoundRect,0.102000X-0.780000X0.780000X-0.780000X-0.780000X0.780000X-0.780000X0.780000X0.780000X0*%
%ADD14C,1.764000*%
%ADD15C,2.004000*%
G04 APERTURE END LIST*
D10*
%TO.C,J1*%
X136100000Y-134680000D03*
D11*
X136100000Y-139480000D03*
%TD*%
D12*
%TO.C,REF\u002A\u002A*%
X148100000Y-91300000D03*
%TD*%
%TO.C,REF\u002A\u002A*%
X99600000Y-91300000D03*
%TD*%
D13*
%TO.C,UNIT_1*%
X146730000Y-98390000D03*
D14*
X144190000Y-98390000D03*
X141650000Y-98390000D03*
X139110000Y-98390000D03*
X136570000Y-98390000D03*
X134030000Y-98390000D03*
X131490000Y-98390000D03*
X128950000Y-98390000D03*
X126410000Y-98390000D03*
X123870000Y-98390000D03*
X121330000Y-98390000D03*
X118790000Y-98390000D03*
X116250000Y-98390000D03*
X113710000Y-98390000D03*
X111170000Y-98390000D03*
X108630000Y-98390000D03*
X106090000Y-98390000D03*
X103550000Y-98390000D03*
X101010000Y-98390000D03*
X146710000Y-121430000D03*
X144170000Y-121430000D03*
X141630000Y-121430000D03*
X139090000Y-121430000D03*
X136550000Y-121430000D03*
X134010000Y-121430000D03*
X131470000Y-121430000D03*
X128930000Y-121430000D03*
X126390000Y-121430000D03*
X123850000Y-121430000D03*
X121310000Y-121430000D03*
X118770000Y-121430000D03*
X116230000Y-121430000D03*
X113690000Y-121430000D03*
X111150000Y-121430000D03*
X108610000Y-121430000D03*
X106070000Y-121430000D03*
X103530000Y-121430000D03*
X100990000Y-121430000D03*
%TD*%
D15*
%TO.C,U2*%
X128165000Y-139530000D03*
X125625000Y-139530000D03*
X128165000Y-136990000D03*
X125625000Y-136990000D03*
X128165000Y-134450000D03*
X125625000Y-134450000D03*
X128165000Y-131910000D03*
X125625000Y-131910000D03*
X98775000Y-128480000D03*
X98835000Y-140470000D03*
X98715000Y-131020000D03*
X98775000Y-143010000D03*
%TD*%
D12*
%TO.C,REF\u002A\u002A*%
X99600000Y-149800000D03*
%TD*%
%TO.C,REF\u002A\u002A*%
X148100000Y-149800000D03*
%TD*%
M02*
