%TF.GenerationSoftware,KiCad,Pcbnew,8.0.6*%
%TF.CreationDate,2025-03-02T18:23:20-07:00*%
%TF.ProjectId,Pit Radio,50697420-5261-4646-996f-2e6b69636164,rev?*%
%TF.SameCoordinates,Original*%
%TF.FileFunction,Profile,NP*%
%FSLAX46Y46*%
G04 Gerber Fmt 4.6, Leading zero omitted, Abs format (unit mm)*
G04 Created by KiCad (PCBNEW 8.0.6) date 2025-03-02 18:23:20*
%MOMM*%
%LPD*%
G01*
G04 APERTURE LIST*
%TA.AperFunction,Profile*%
%ADD10C,0.050000*%
%TD*%
%ADD11C,0.150000*%
G04 APERTURE END LIST*
D10*
X96098572Y-91300000D02*
X96098572Y-149824117D01*
X151601428Y-149824117D02*
G75*
G02*
X148100000Y-153325528I-3501428J17D01*
G01*
X99600000Y-153325545D02*
G75*
G02*
X96098555Y-149824117I0J3501445D01*
G01*
X99600000Y-153325545D02*
X148100000Y-153325545D01*
X148100000Y-87798572D02*
G75*
G02*
X151601428Y-91300000I0J-3501428D01*
G01*
X151601428Y-149824117D02*
X151601428Y-91300000D01*
X148100000Y-87798572D02*
X99600000Y-87798572D01*
X96098572Y-91300000D02*
G75*
G02*
X99600000Y-87798572I3501428J0D01*
G01*
D11*
X119754762Y-81654819D02*
X119278572Y-81654819D01*
X119278572Y-81654819D02*
X119230953Y-82131009D01*
X119230953Y-82131009D02*
X119278572Y-82083390D01*
X119278572Y-82083390D02*
X119373810Y-82035771D01*
X119373810Y-82035771D02*
X119611905Y-82035771D01*
X119611905Y-82035771D02*
X119707143Y-82083390D01*
X119707143Y-82083390D02*
X119754762Y-82131009D01*
X119754762Y-82131009D02*
X119802381Y-82226247D01*
X119802381Y-82226247D02*
X119802381Y-82464342D01*
X119802381Y-82464342D02*
X119754762Y-82559580D01*
X119754762Y-82559580D02*
X119707143Y-82607200D01*
X119707143Y-82607200D02*
X119611905Y-82654819D01*
X119611905Y-82654819D02*
X119373810Y-82654819D01*
X119373810Y-82654819D02*
X119278572Y-82607200D01*
X119278572Y-82607200D02*
X119230953Y-82559580D01*
X120707143Y-81654819D02*
X120230953Y-81654819D01*
X120230953Y-81654819D02*
X120183334Y-82131009D01*
X120183334Y-82131009D02*
X120230953Y-82083390D01*
X120230953Y-82083390D02*
X120326191Y-82035771D01*
X120326191Y-82035771D02*
X120564286Y-82035771D01*
X120564286Y-82035771D02*
X120659524Y-82083390D01*
X120659524Y-82083390D02*
X120707143Y-82131009D01*
X120707143Y-82131009D02*
X120754762Y-82226247D01*
X120754762Y-82226247D02*
X120754762Y-82464342D01*
X120754762Y-82464342D02*
X120707143Y-82559580D01*
X120707143Y-82559580D02*
X120659524Y-82607200D01*
X120659524Y-82607200D02*
X120564286Y-82654819D01*
X120564286Y-82654819D02*
X120326191Y-82654819D01*
X120326191Y-82654819D02*
X120230953Y-82607200D01*
X120230953Y-82607200D02*
X120183334Y-82559580D01*
X121183334Y-82559580D02*
X121230953Y-82607200D01*
X121230953Y-82607200D02*
X121183334Y-82654819D01*
X121183334Y-82654819D02*
X121135715Y-82607200D01*
X121135715Y-82607200D02*
X121183334Y-82559580D01*
X121183334Y-82559580D02*
X121183334Y-82654819D01*
X121850000Y-81654819D02*
X121945238Y-81654819D01*
X121945238Y-81654819D02*
X122040476Y-81702438D01*
X122040476Y-81702438D02*
X122088095Y-81750057D01*
X122088095Y-81750057D02*
X122135714Y-81845295D01*
X122135714Y-81845295D02*
X122183333Y-82035771D01*
X122183333Y-82035771D02*
X122183333Y-82273866D01*
X122183333Y-82273866D02*
X122135714Y-82464342D01*
X122135714Y-82464342D02*
X122088095Y-82559580D01*
X122088095Y-82559580D02*
X122040476Y-82607200D01*
X122040476Y-82607200D02*
X121945238Y-82654819D01*
X121945238Y-82654819D02*
X121850000Y-82654819D01*
X121850000Y-82654819D02*
X121754762Y-82607200D01*
X121754762Y-82607200D02*
X121707143Y-82559580D01*
X121707143Y-82559580D02*
X121659524Y-82464342D01*
X121659524Y-82464342D02*
X121611905Y-82273866D01*
X121611905Y-82273866D02*
X121611905Y-82035771D01*
X121611905Y-82035771D02*
X121659524Y-81845295D01*
X121659524Y-81845295D02*
X121707143Y-81750057D01*
X121707143Y-81750057D02*
X121754762Y-81702438D01*
X121754762Y-81702438D02*
X121850000Y-81654819D01*
X122802381Y-81654819D02*
X122897619Y-81654819D01*
X122897619Y-81654819D02*
X122992857Y-81702438D01*
X122992857Y-81702438D02*
X123040476Y-81750057D01*
X123040476Y-81750057D02*
X123088095Y-81845295D01*
X123088095Y-81845295D02*
X123135714Y-82035771D01*
X123135714Y-82035771D02*
X123135714Y-82273866D01*
X123135714Y-82273866D02*
X123088095Y-82464342D01*
X123088095Y-82464342D02*
X123040476Y-82559580D01*
X123040476Y-82559580D02*
X122992857Y-82607200D01*
X122992857Y-82607200D02*
X122897619Y-82654819D01*
X122897619Y-82654819D02*
X122802381Y-82654819D01*
X122802381Y-82654819D02*
X122707143Y-82607200D01*
X122707143Y-82607200D02*
X122659524Y-82559580D01*
X122659524Y-82559580D02*
X122611905Y-82464342D01*
X122611905Y-82464342D02*
X122564286Y-82273866D01*
X122564286Y-82273866D02*
X122564286Y-82035771D01*
X122564286Y-82035771D02*
X122611905Y-81845295D01*
X122611905Y-81845295D02*
X122659524Y-81750057D01*
X122659524Y-81750057D02*
X122707143Y-81702438D01*
X122707143Y-81702438D02*
X122802381Y-81654819D01*
X123754762Y-81654819D02*
X123850000Y-81654819D01*
X123850000Y-81654819D02*
X123945238Y-81702438D01*
X123945238Y-81702438D02*
X123992857Y-81750057D01*
X123992857Y-81750057D02*
X124040476Y-81845295D01*
X124040476Y-81845295D02*
X124088095Y-82035771D01*
X124088095Y-82035771D02*
X124088095Y-82273866D01*
X124088095Y-82273866D02*
X124040476Y-82464342D01*
X124040476Y-82464342D02*
X123992857Y-82559580D01*
X123992857Y-82559580D02*
X123945238Y-82607200D01*
X123945238Y-82607200D02*
X123850000Y-82654819D01*
X123850000Y-82654819D02*
X123754762Y-82654819D01*
X123754762Y-82654819D02*
X123659524Y-82607200D01*
X123659524Y-82607200D02*
X123611905Y-82559580D01*
X123611905Y-82559580D02*
X123564286Y-82464342D01*
X123564286Y-82464342D02*
X123516667Y-82273866D01*
X123516667Y-82273866D02*
X123516667Y-82035771D01*
X123516667Y-82035771D02*
X123564286Y-81845295D01*
X123564286Y-81845295D02*
X123611905Y-81750057D01*
X123611905Y-81750057D02*
X123659524Y-81702438D01*
X123659524Y-81702438D02*
X123754762Y-81654819D01*
X124707143Y-81654819D02*
X124802381Y-81654819D01*
X124802381Y-81654819D02*
X124897619Y-81702438D01*
X124897619Y-81702438D02*
X124945238Y-81750057D01*
X124945238Y-81750057D02*
X124992857Y-81845295D01*
X124992857Y-81845295D02*
X125040476Y-82035771D01*
X125040476Y-82035771D02*
X125040476Y-82273866D01*
X125040476Y-82273866D02*
X124992857Y-82464342D01*
X124992857Y-82464342D02*
X124945238Y-82559580D01*
X124945238Y-82559580D02*
X124897619Y-82607200D01*
X124897619Y-82607200D02*
X124802381Y-82654819D01*
X124802381Y-82654819D02*
X124707143Y-82654819D01*
X124707143Y-82654819D02*
X124611905Y-82607200D01*
X124611905Y-82607200D02*
X124564286Y-82559580D01*
X124564286Y-82559580D02*
X124516667Y-82464342D01*
X124516667Y-82464342D02*
X124469048Y-82273866D01*
X124469048Y-82273866D02*
X124469048Y-82035771D01*
X124469048Y-82035771D02*
X124516667Y-81845295D01*
X124516667Y-81845295D02*
X124564286Y-81750057D01*
X124564286Y-81750057D02*
X124611905Y-81702438D01*
X124611905Y-81702438D02*
X124707143Y-81654819D01*
X126230953Y-82654819D02*
X126230953Y-81988152D01*
X126230953Y-82083390D02*
X126278572Y-82035771D01*
X126278572Y-82035771D02*
X126373810Y-81988152D01*
X126373810Y-81988152D02*
X126516667Y-81988152D01*
X126516667Y-81988152D02*
X126611905Y-82035771D01*
X126611905Y-82035771D02*
X126659524Y-82131009D01*
X126659524Y-82131009D02*
X126659524Y-82654819D01*
X126659524Y-82131009D02*
X126707143Y-82035771D01*
X126707143Y-82035771D02*
X126802381Y-81988152D01*
X126802381Y-81988152D02*
X126945238Y-81988152D01*
X126945238Y-81988152D02*
X127040477Y-82035771D01*
X127040477Y-82035771D02*
X127088096Y-82131009D01*
X127088096Y-82131009D02*
X127088096Y-82654819D01*
X127564286Y-82654819D02*
X127564286Y-81988152D01*
X127564286Y-82083390D02*
X127611905Y-82035771D01*
X127611905Y-82035771D02*
X127707143Y-81988152D01*
X127707143Y-81988152D02*
X127850000Y-81988152D01*
X127850000Y-81988152D02*
X127945238Y-82035771D01*
X127945238Y-82035771D02*
X127992857Y-82131009D01*
X127992857Y-82131009D02*
X127992857Y-82654819D01*
X127992857Y-82131009D02*
X128040476Y-82035771D01*
X128040476Y-82035771D02*
X128135714Y-81988152D01*
X128135714Y-81988152D02*
X128278571Y-81988152D01*
X128278571Y-81988152D02*
X128373810Y-82035771D01*
X128373810Y-82035771D02*
X128421429Y-82131009D01*
X128421429Y-82131009D02*
X128421429Y-82654819D01*
D10*
X151350000Y-90850000D02*
X151350000Y-82763580D01*
X96350000Y-90850000D02*
X96350000Y-82763580D01*
X151350000Y-83350000D02*
X96350000Y-83350000D01*
X151350000Y-83350000D02*
X96350000Y-83350000D01*
X151350000Y-83350000D02*
X150223496Y-83936421D01*
X151350000Y-83350000D02*
X150223496Y-82763579D01*
X96350000Y-83350000D02*
X97476504Y-82763579D01*
X96350000Y-83350000D02*
X97476504Y-83936421D01*
D11*
X119757143Y-150738152D02*
X119757143Y-151404819D01*
X119519048Y-150357200D02*
X119280953Y-151071485D01*
X119280953Y-151071485D02*
X119900000Y-151071485D01*
X120233334Y-150500057D02*
X120280953Y-150452438D01*
X120280953Y-150452438D02*
X120376191Y-150404819D01*
X120376191Y-150404819D02*
X120614286Y-150404819D01*
X120614286Y-150404819D02*
X120709524Y-150452438D01*
X120709524Y-150452438D02*
X120757143Y-150500057D01*
X120757143Y-150500057D02*
X120804762Y-150595295D01*
X120804762Y-150595295D02*
X120804762Y-150690533D01*
X120804762Y-150690533D02*
X120757143Y-150833390D01*
X120757143Y-150833390D02*
X120185715Y-151404819D01*
X120185715Y-151404819D02*
X120804762Y-151404819D01*
X121233334Y-151309580D02*
X121280953Y-151357200D01*
X121280953Y-151357200D02*
X121233334Y-151404819D01*
X121233334Y-151404819D02*
X121185715Y-151357200D01*
X121185715Y-151357200D02*
X121233334Y-151309580D01*
X121233334Y-151309580D02*
X121233334Y-151404819D01*
X122233333Y-151404819D02*
X121661905Y-151404819D01*
X121947619Y-151404819D02*
X121947619Y-150404819D01*
X121947619Y-150404819D02*
X121852381Y-150547676D01*
X121852381Y-150547676D02*
X121757143Y-150642914D01*
X121757143Y-150642914D02*
X121661905Y-150690533D01*
X122852381Y-150404819D02*
X122947619Y-150404819D01*
X122947619Y-150404819D02*
X123042857Y-150452438D01*
X123042857Y-150452438D02*
X123090476Y-150500057D01*
X123090476Y-150500057D02*
X123138095Y-150595295D01*
X123138095Y-150595295D02*
X123185714Y-150785771D01*
X123185714Y-150785771D02*
X123185714Y-151023866D01*
X123185714Y-151023866D02*
X123138095Y-151214342D01*
X123138095Y-151214342D02*
X123090476Y-151309580D01*
X123090476Y-151309580D02*
X123042857Y-151357200D01*
X123042857Y-151357200D02*
X122947619Y-151404819D01*
X122947619Y-151404819D02*
X122852381Y-151404819D01*
X122852381Y-151404819D02*
X122757143Y-151357200D01*
X122757143Y-151357200D02*
X122709524Y-151309580D01*
X122709524Y-151309580D02*
X122661905Y-151214342D01*
X122661905Y-151214342D02*
X122614286Y-151023866D01*
X122614286Y-151023866D02*
X122614286Y-150785771D01*
X122614286Y-150785771D02*
X122661905Y-150595295D01*
X122661905Y-150595295D02*
X122709524Y-150500057D01*
X122709524Y-150500057D02*
X122757143Y-150452438D01*
X122757143Y-150452438D02*
X122852381Y-150404819D01*
X123804762Y-150404819D02*
X123900000Y-150404819D01*
X123900000Y-150404819D02*
X123995238Y-150452438D01*
X123995238Y-150452438D02*
X124042857Y-150500057D01*
X124042857Y-150500057D02*
X124090476Y-150595295D01*
X124090476Y-150595295D02*
X124138095Y-150785771D01*
X124138095Y-150785771D02*
X124138095Y-151023866D01*
X124138095Y-151023866D02*
X124090476Y-151214342D01*
X124090476Y-151214342D02*
X124042857Y-151309580D01*
X124042857Y-151309580D02*
X123995238Y-151357200D01*
X123995238Y-151357200D02*
X123900000Y-151404819D01*
X123900000Y-151404819D02*
X123804762Y-151404819D01*
X123804762Y-151404819D02*
X123709524Y-151357200D01*
X123709524Y-151357200D02*
X123661905Y-151309580D01*
X123661905Y-151309580D02*
X123614286Y-151214342D01*
X123614286Y-151214342D02*
X123566667Y-151023866D01*
X123566667Y-151023866D02*
X123566667Y-150785771D01*
X123566667Y-150785771D02*
X123614286Y-150595295D01*
X123614286Y-150595295D02*
X123661905Y-150500057D01*
X123661905Y-150500057D02*
X123709524Y-150452438D01*
X123709524Y-150452438D02*
X123804762Y-150404819D01*
X124757143Y-150404819D02*
X124852381Y-150404819D01*
X124852381Y-150404819D02*
X124947619Y-150452438D01*
X124947619Y-150452438D02*
X124995238Y-150500057D01*
X124995238Y-150500057D02*
X125042857Y-150595295D01*
X125042857Y-150595295D02*
X125090476Y-150785771D01*
X125090476Y-150785771D02*
X125090476Y-151023866D01*
X125090476Y-151023866D02*
X125042857Y-151214342D01*
X125042857Y-151214342D02*
X124995238Y-151309580D01*
X124995238Y-151309580D02*
X124947619Y-151357200D01*
X124947619Y-151357200D02*
X124852381Y-151404819D01*
X124852381Y-151404819D02*
X124757143Y-151404819D01*
X124757143Y-151404819D02*
X124661905Y-151357200D01*
X124661905Y-151357200D02*
X124614286Y-151309580D01*
X124614286Y-151309580D02*
X124566667Y-151214342D01*
X124566667Y-151214342D02*
X124519048Y-151023866D01*
X124519048Y-151023866D02*
X124519048Y-150785771D01*
X124519048Y-150785771D02*
X124566667Y-150595295D01*
X124566667Y-150595295D02*
X124614286Y-150500057D01*
X124614286Y-150500057D02*
X124661905Y-150452438D01*
X124661905Y-150452438D02*
X124757143Y-150404819D01*
X126280953Y-151404819D02*
X126280953Y-150738152D01*
X126280953Y-150833390D02*
X126328572Y-150785771D01*
X126328572Y-150785771D02*
X126423810Y-150738152D01*
X126423810Y-150738152D02*
X126566667Y-150738152D01*
X126566667Y-150738152D02*
X126661905Y-150785771D01*
X126661905Y-150785771D02*
X126709524Y-150881009D01*
X126709524Y-150881009D02*
X126709524Y-151404819D01*
X126709524Y-150881009D02*
X126757143Y-150785771D01*
X126757143Y-150785771D02*
X126852381Y-150738152D01*
X126852381Y-150738152D02*
X126995238Y-150738152D01*
X126995238Y-150738152D02*
X127090477Y-150785771D01*
X127090477Y-150785771D02*
X127138096Y-150881009D01*
X127138096Y-150881009D02*
X127138096Y-151404819D01*
X127614286Y-151404819D02*
X127614286Y-150738152D01*
X127614286Y-150833390D02*
X127661905Y-150785771D01*
X127661905Y-150785771D02*
X127757143Y-150738152D01*
X127757143Y-150738152D02*
X127900000Y-150738152D01*
X127900000Y-150738152D02*
X127995238Y-150785771D01*
X127995238Y-150785771D02*
X128042857Y-150881009D01*
X128042857Y-150881009D02*
X128042857Y-151404819D01*
X128042857Y-150881009D02*
X128090476Y-150785771D01*
X128090476Y-150785771D02*
X128185714Y-150738152D01*
X128185714Y-150738152D02*
X128328571Y-150738152D01*
X128328571Y-150738152D02*
X128423810Y-150785771D01*
X128423810Y-150785771D02*
X128471429Y-150881009D01*
X128471429Y-150881009D02*
X128471429Y-151404819D01*
D10*
X144950000Y-150000000D02*
X144950000Y-152686420D01*
X102850000Y-150000000D02*
X102850000Y-152686420D01*
X144950000Y-152100000D02*
X102850000Y-152100000D01*
X144950000Y-152100000D02*
X102850000Y-152100000D01*
X144950000Y-152100000D02*
X143823496Y-152686421D01*
X144950000Y-152100000D02*
X143823496Y-151513579D01*
X102850000Y-152100000D02*
X103976504Y-151513579D01*
X102850000Y-152100000D02*
X103976504Y-152686421D01*
D11*
X87304819Y-124670237D02*
X87304819Y-125146427D01*
X87304819Y-125146427D02*
X87781009Y-125194046D01*
X87781009Y-125194046D02*
X87733390Y-125146427D01*
X87733390Y-125146427D02*
X87685771Y-125051189D01*
X87685771Y-125051189D02*
X87685771Y-124813094D01*
X87685771Y-124813094D02*
X87733390Y-124717856D01*
X87733390Y-124717856D02*
X87781009Y-124670237D01*
X87781009Y-124670237D02*
X87876247Y-124622618D01*
X87876247Y-124622618D02*
X88114342Y-124622618D01*
X88114342Y-124622618D02*
X88209580Y-124670237D01*
X88209580Y-124670237D02*
X88257200Y-124717856D01*
X88257200Y-124717856D02*
X88304819Y-124813094D01*
X88304819Y-124813094D02*
X88304819Y-125051189D01*
X88304819Y-125051189D02*
X88257200Y-125146427D01*
X88257200Y-125146427D02*
X88209580Y-125194046D01*
X87400057Y-124241665D02*
X87352438Y-124194046D01*
X87352438Y-124194046D02*
X87304819Y-124098808D01*
X87304819Y-124098808D02*
X87304819Y-123860713D01*
X87304819Y-123860713D02*
X87352438Y-123765475D01*
X87352438Y-123765475D02*
X87400057Y-123717856D01*
X87400057Y-123717856D02*
X87495295Y-123670237D01*
X87495295Y-123670237D02*
X87590533Y-123670237D01*
X87590533Y-123670237D02*
X87733390Y-123717856D01*
X87733390Y-123717856D02*
X88304819Y-124289284D01*
X88304819Y-124289284D02*
X88304819Y-123670237D01*
X88209580Y-123241665D02*
X88257200Y-123194046D01*
X88257200Y-123194046D02*
X88304819Y-123241665D01*
X88304819Y-123241665D02*
X88257200Y-123289284D01*
X88257200Y-123289284D02*
X88209580Y-123241665D01*
X88209580Y-123241665D02*
X88304819Y-123241665D01*
X87304819Y-122574999D02*
X87304819Y-122479761D01*
X87304819Y-122479761D02*
X87352438Y-122384523D01*
X87352438Y-122384523D02*
X87400057Y-122336904D01*
X87400057Y-122336904D02*
X87495295Y-122289285D01*
X87495295Y-122289285D02*
X87685771Y-122241666D01*
X87685771Y-122241666D02*
X87923866Y-122241666D01*
X87923866Y-122241666D02*
X88114342Y-122289285D01*
X88114342Y-122289285D02*
X88209580Y-122336904D01*
X88209580Y-122336904D02*
X88257200Y-122384523D01*
X88257200Y-122384523D02*
X88304819Y-122479761D01*
X88304819Y-122479761D02*
X88304819Y-122574999D01*
X88304819Y-122574999D02*
X88257200Y-122670237D01*
X88257200Y-122670237D02*
X88209580Y-122717856D01*
X88209580Y-122717856D02*
X88114342Y-122765475D01*
X88114342Y-122765475D02*
X87923866Y-122813094D01*
X87923866Y-122813094D02*
X87685771Y-122813094D01*
X87685771Y-122813094D02*
X87495295Y-122765475D01*
X87495295Y-122765475D02*
X87400057Y-122717856D01*
X87400057Y-122717856D02*
X87352438Y-122670237D01*
X87352438Y-122670237D02*
X87304819Y-122574999D01*
X87304819Y-121336904D02*
X87304819Y-121813094D01*
X87304819Y-121813094D02*
X87781009Y-121860713D01*
X87781009Y-121860713D02*
X87733390Y-121813094D01*
X87733390Y-121813094D02*
X87685771Y-121717856D01*
X87685771Y-121717856D02*
X87685771Y-121479761D01*
X87685771Y-121479761D02*
X87733390Y-121384523D01*
X87733390Y-121384523D02*
X87781009Y-121336904D01*
X87781009Y-121336904D02*
X87876247Y-121289285D01*
X87876247Y-121289285D02*
X88114342Y-121289285D01*
X88114342Y-121289285D02*
X88209580Y-121336904D01*
X88209580Y-121336904D02*
X88257200Y-121384523D01*
X88257200Y-121384523D02*
X88304819Y-121479761D01*
X88304819Y-121479761D02*
X88304819Y-121717856D01*
X88304819Y-121717856D02*
X88257200Y-121813094D01*
X88257200Y-121813094D02*
X88209580Y-121860713D01*
X87304819Y-120670237D02*
X87304819Y-120574999D01*
X87304819Y-120574999D02*
X87352438Y-120479761D01*
X87352438Y-120479761D02*
X87400057Y-120432142D01*
X87400057Y-120432142D02*
X87495295Y-120384523D01*
X87495295Y-120384523D02*
X87685771Y-120336904D01*
X87685771Y-120336904D02*
X87923866Y-120336904D01*
X87923866Y-120336904D02*
X88114342Y-120384523D01*
X88114342Y-120384523D02*
X88209580Y-120432142D01*
X88209580Y-120432142D02*
X88257200Y-120479761D01*
X88257200Y-120479761D02*
X88304819Y-120574999D01*
X88304819Y-120574999D02*
X88304819Y-120670237D01*
X88304819Y-120670237D02*
X88257200Y-120765475D01*
X88257200Y-120765475D02*
X88209580Y-120813094D01*
X88209580Y-120813094D02*
X88114342Y-120860713D01*
X88114342Y-120860713D02*
X87923866Y-120908332D01*
X87923866Y-120908332D02*
X87685771Y-120908332D01*
X87685771Y-120908332D02*
X87495295Y-120860713D01*
X87495295Y-120860713D02*
X87400057Y-120813094D01*
X87400057Y-120813094D02*
X87352438Y-120765475D01*
X87352438Y-120765475D02*
X87304819Y-120670237D01*
X87304819Y-119717856D02*
X87304819Y-119622618D01*
X87304819Y-119622618D02*
X87352438Y-119527380D01*
X87352438Y-119527380D02*
X87400057Y-119479761D01*
X87400057Y-119479761D02*
X87495295Y-119432142D01*
X87495295Y-119432142D02*
X87685771Y-119384523D01*
X87685771Y-119384523D02*
X87923866Y-119384523D01*
X87923866Y-119384523D02*
X88114342Y-119432142D01*
X88114342Y-119432142D02*
X88209580Y-119479761D01*
X88209580Y-119479761D02*
X88257200Y-119527380D01*
X88257200Y-119527380D02*
X88304819Y-119622618D01*
X88304819Y-119622618D02*
X88304819Y-119717856D01*
X88304819Y-119717856D02*
X88257200Y-119813094D01*
X88257200Y-119813094D02*
X88209580Y-119860713D01*
X88209580Y-119860713D02*
X88114342Y-119908332D01*
X88114342Y-119908332D02*
X87923866Y-119955951D01*
X87923866Y-119955951D02*
X87685771Y-119955951D01*
X87685771Y-119955951D02*
X87495295Y-119908332D01*
X87495295Y-119908332D02*
X87400057Y-119860713D01*
X87400057Y-119860713D02*
X87352438Y-119813094D01*
X87352438Y-119813094D02*
X87304819Y-119717856D01*
X88304819Y-118194046D02*
X87638152Y-118194046D01*
X87733390Y-118194046D02*
X87685771Y-118146427D01*
X87685771Y-118146427D02*
X87638152Y-118051189D01*
X87638152Y-118051189D02*
X87638152Y-117908332D01*
X87638152Y-117908332D02*
X87685771Y-117813094D01*
X87685771Y-117813094D02*
X87781009Y-117765475D01*
X87781009Y-117765475D02*
X88304819Y-117765475D01*
X87781009Y-117765475D02*
X87685771Y-117717856D01*
X87685771Y-117717856D02*
X87638152Y-117622618D01*
X87638152Y-117622618D02*
X87638152Y-117479761D01*
X87638152Y-117479761D02*
X87685771Y-117384522D01*
X87685771Y-117384522D02*
X87781009Y-117336903D01*
X87781009Y-117336903D02*
X88304819Y-117336903D01*
X88304819Y-116860713D02*
X87638152Y-116860713D01*
X87733390Y-116860713D02*
X87685771Y-116813094D01*
X87685771Y-116813094D02*
X87638152Y-116717856D01*
X87638152Y-116717856D02*
X87638152Y-116574999D01*
X87638152Y-116574999D02*
X87685771Y-116479761D01*
X87685771Y-116479761D02*
X87781009Y-116432142D01*
X87781009Y-116432142D02*
X88304819Y-116432142D01*
X87781009Y-116432142D02*
X87685771Y-116384523D01*
X87685771Y-116384523D02*
X87638152Y-116289285D01*
X87638152Y-116289285D02*
X87638152Y-116146428D01*
X87638152Y-116146428D02*
X87685771Y-116051189D01*
X87685771Y-116051189D02*
X87781009Y-116003570D01*
X87781009Y-116003570D02*
X88304819Y-116003570D01*
D10*
X99600000Y-146600000D02*
X88413580Y-146600000D01*
X99600000Y-94550000D02*
X88413580Y-94550000D01*
X89000000Y-146600000D02*
X89000000Y-94550000D01*
X89000000Y-146600000D02*
X89000000Y-94550000D01*
X89000000Y-146600000D02*
X88413579Y-145473496D01*
X89000000Y-146600000D02*
X89586421Y-145473496D01*
X89000000Y-94550000D02*
X89586421Y-95676504D01*
X89000000Y-94550000D02*
X88413579Y-95676504D01*
D11*
X119707143Y-87338152D02*
X119707143Y-88004819D01*
X119469048Y-86957200D02*
X119230953Y-87671485D01*
X119230953Y-87671485D02*
X119850000Y-87671485D01*
X120183334Y-87100057D02*
X120230953Y-87052438D01*
X120230953Y-87052438D02*
X120326191Y-87004819D01*
X120326191Y-87004819D02*
X120564286Y-87004819D01*
X120564286Y-87004819D02*
X120659524Y-87052438D01*
X120659524Y-87052438D02*
X120707143Y-87100057D01*
X120707143Y-87100057D02*
X120754762Y-87195295D01*
X120754762Y-87195295D02*
X120754762Y-87290533D01*
X120754762Y-87290533D02*
X120707143Y-87433390D01*
X120707143Y-87433390D02*
X120135715Y-88004819D01*
X120135715Y-88004819D02*
X120754762Y-88004819D01*
X121183334Y-87909580D02*
X121230953Y-87957200D01*
X121230953Y-87957200D02*
X121183334Y-88004819D01*
X121183334Y-88004819D02*
X121135715Y-87957200D01*
X121135715Y-87957200D02*
X121183334Y-87909580D01*
X121183334Y-87909580D02*
X121183334Y-88004819D01*
X122183333Y-88004819D02*
X121611905Y-88004819D01*
X121897619Y-88004819D02*
X121897619Y-87004819D01*
X121897619Y-87004819D02*
X121802381Y-87147676D01*
X121802381Y-87147676D02*
X121707143Y-87242914D01*
X121707143Y-87242914D02*
X121611905Y-87290533D01*
X122802381Y-87004819D02*
X122897619Y-87004819D01*
X122897619Y-87004819D02*
X122992857Y-87052438D01*
X122992857Y-87052438D02*
X123040476Y-87100057D01*
X123040476Y-87100057D02*
X123088095Y-87195295D01*
X123088095Y-87195295D02*
X123135714Y-87385771D01*
X123135714Y-87385771D02*
X123135714Y-87623866D01*
X123135714Y-87623866D02*
X123088095Y-87814342D01*
X123088095Y-87814342D02*
X123040476Y-87909580D01*
X123040476Y-87909580D02*
X122992857Y-87957200D01*
X122992857Y-87957200D02*
X122897619Y-88004819D01*
X122897619Y-88004819D02*
X122802381Y-88004819D01*
X122802381Y-88004819D02*
X122707143Y-87957200D01*
X122707143Y-87957200D02*
X122659524Y-87909580D01*
X122659524Y-87909580D02*
X122611905Y-87814342D01*
X122611905Y-87814342D02*
X122564286Y-87623866D01*
X122564286Y-87623866D02*
X122564286Y-87385771D01*
X122564286Y-87385771D02*
X122611905Y-87195295D01*
X122611905Y-87195295D02*
X122659524Y-87100057D01*
X122659524Y-87100057D02*
X122707143Y-87052438D01*
X122707143Y-87052438D02*
X122802381Y-87004819D01*
X123754762Y-87004819D02*
X123850000Y-87004819D01*
X123850000Y-87004819D02*
X123945238Y-87052438D01*
X123945238Y-87052438D02*
X123992857Y-87100057D01*
X123992857Y-87100057D02*
X124040476Y-87195295D01*
X124040476Y-87195295D02*
X124088095Y-87385771D01*
X124088095Y-87385771D02*
X124088095Y-87623866D01*
X124088095Y-87623866D02*
X124040476Y-87814342D01*
X124040476Y-87814342D02*
X123992857Y-87909580D01*
X123992857Y-87909580D02*
X123945238Y-87957200D01*
X123945238Y-87957200D02*
X123850000Y-88004819D01*
X123850000Y-88004819D02*
X123754762Y-88004819D01*
X123754762Y-88004819D02*
X123659524Y-87957200D01*
X123659524Y-87957200D02*
X123611905Y-87909580D01*
X123611905Y-87909580D02*
X123564286Y-87814342D01*
X123564286Y-87814342D02*
X123516667Y-87623866D01*
X123516667Y-87623866D02*
X123516667Y-87385771D01*
X123516667Y-87385771D02*
X123564286Y-87195295D01*
X123564286Y-87195295D02*
X123611905Y-87100057D01*
X123611905Y-87100057D02*
X123659524Y-87052438D01*
X123659524Y-87052438D02*
X123754762Y-87004819D01*
X124707143Y-87004819D02*
X124802381Y-87004819D01*
X124802381Y-87004819D02*
X124897619Y-87052438D01*
X124897619Y-87052438D02*
X124945238Y-87100057D01*
X124945238Y-87100057D02*
X124992857Y-87195295D01*
X124992857Y-87195295D02*
X125040476Y-87385771D01*
X125040476Y-87385771D02*
X125040476Y-87623866D01*
X125040476Y-87623866D02*
X124992857Y-87814342D01*
X124992857Y-87814342D02*
X124945238Y-87909580D01*
X124945238Y-87909580D02*
X124897619Y-87957200D01*
X124897619Y-87957200D02*
X124802381Y-88004819D01*
X124802381Y-88004819D02*
X124707143Y-88004819D01*
X124707143Y-88004819D02*
X124611905Y-87957200D01*
X124611905Y-87957200D02*
X124564286Y-87909580D01*
X124564286Y-87909580D02*
X124516667Y-87814342D01*
X124516667Y-87814342D02*
X124469048Y-87623866D01*
X124469048Y-87623866D02*
X124469048Y-87385771D01*
X124469048Y-87385771D02*
X124516667Y-87195295D01*
X124516667Y-87195295D02*
X124564286Y-87100057D01*
X124564286Y-87100057D02*
X124611905Y-87052438D01*
X124611905Y-87052438D02*
X124707143Y-87004819D01*
X126230953Y-88004819D02*
X126230953Y-87338152D01*
X126230953Y-87433390D02*
X126278572Y-87385771D01*
X126278572Y-87385771D02*
X126373810Y-87338152D01*
X126373810Y-87338152D02*
X126516667Y-87338152D01*
X126516667Y-87338152D02*
X126611905Y-87385771D01*
X126611905Y-87385771D02*
X126659524Y-87481009D01*
X126659524Y-87481009D02*
X126659524Y-88004819D01*
X126659524Y-87481009D02*
X126707143Y-87385771D01*
X126707143Y-87385771D02*
X126802381Y-87338152D01*
X126802381Y-87338152D02*
X126945238Y-87338152D01*
X126945238Y-87338152D02*
X127040477Y-87385771D01*
X127040477Y-87385771D02*
X127088096Y-87481009D01*
X127088096Y-87481009D02*
X127088096Y-88004819D01*
X127564286Y-88004819D02*
X127564286Y-87338152D01*
X127564286Y-87433390D02*
X127611905Y-87385771D01*
X127611905Y-87385771D02*
X127707143Y-87338152D01*
X127707143Y-87338152D02*
X127850000Y-87338152D01*
X127850000Y-87338152D02*
X127945238Y-87385771D01*
X127945238Y-87385771D02*
X127992857Y-87481009D01*
X127992857Y-87481009D02*
X127992857Y-88004819D01*
X127992857Y-87481009D02*
X128040476Y-87385771D01*
X128040476Y-87385771D02*
X128135714Y-87338152D01*
X128135714Y-87338152D02*
X128278571Y-87338152D01*
X128278571Y-87338152D02*
X128373810Y-87385771D01*
X128373810Y-87385771D02*
X128421429Y-87481009D01*
X128421429Y-87481009D02*
X128421429Y-88004819D01*
D10*
X102800000Y-90800000D02*
X102800000Y-88113580D01*
X144900000Y-90800000D02*
X144900000Y-88113580D01*
X102800000Y-88700000D02*
X144900000Y-88700000D01*
X102800000Y-88700000D02*
X144900000Y-88700000D01*
X102800000Y-88700000D02*
X103926504Y-88113579D01*
X102800000Y-88700000D02*
X103926504Y-89286421D01*
X144900000Y-88700000D02*
X143773496Y-89286421D01*
X144900000Y-88700000D02*
X143773496Y-88113579D01*
D11*
X119754762Y-155804819D02*
X119278572Y-155804819D01*
X119278572Y-155804819D02*
X119230953Y-156281009D01*
X119230953Y-156281009D02*
X119278572Y-156233390D01*
X119278572Y-156233390D02*
X119373810Y-156185771D01*
X119373810Y-156185771D02*
X119611905Y-156185771D01*
X119611905Y-156185771D02*
X119707143Y-156233390D01*
X119707143Y-156233390D02*
X119754762Y-156281009D01*
X119754762Y-156281009D02*
X119802381Y-156376247D01*
X119802381Y-156376247D02*
X119802381Y-156614342D01*
X119802381Y-156614342D02*
X119754762Y-156709580D01*
X119754762Y-156709580D02*
X119707143Y-156757200D01*
X119707143Y-156757200D02*
X119611905Y-156804819D01*
X119611905Y-156804819D02*
X119373810Y-156804819D01*
X119373810Y-156804819D02*
X119278572Y-156757200D01*
X119278572Y-156757200D02*
X119230953Y-156709580D01*
X120707143Y-155804819D02*
X120230953Y-155804819D01*
X120230953Y-155804819D02*
X120183334Y-156281009D01*
X120183334Y-156281009D02*
X120230953Y-156233390D01*
X120230953Y-156233390D02*
X120326191Y-156185771D01*
X120326191Y-156185771D02*
X120564286Y-156185771D01*
X120564286Y-156185771D02*
X120659524Y-156233390D01*
X120659524Y-156233390D02*
X120707143Y-156281009D01*
X120707143Y-156281009D02*
X120754762Y-156376247D01*
X120754762Y-156376247D02*
X120754762Y-156614342D01*
X120754762Y-156614342D02*
X120707143Y-156709580D01*
X120707143Y-156709580D02*
X120659524Y-156757200D01*
X120659524Y-156757200D02*
X120564286Y-156804819D01*
X120564286Y-156804819D02*
X120326191Y-156804819D01*
X120326191Y-156804819D02*
X120230953Y-156757200D01*
X120230953Y-156757200D02*
X120183334Y-156709580D01*
X121183334Y-156709580D02*
X121230953Y-156757200D01*
X121230953Y-156757200D02*
X121183334Y-156804819D01*
X121183334Y-156804819D02*
X121135715Y-156757200D01*
X121135715Y-156757200D02*
X121183334Y-156709580D01*
X121183334Y-156709580D02*
X121183334Y-156804819D01*
X121850000Y-155804819D02*
X121945238Y-155804819D01*
X121945238Y-155804819D02*
X122040476Y-155852438D01*
X122040476Y-155852438D02*
X122088095Y-155900057D01*
X122088095Y-155900057D02*
X122135714Y-155995295D01*
X122135714Y-155995295D02*
X122183333Y-156185771D01*
X122183333Y-156185771D02*
X122183333Y-156423866D01*
X122183333Y-156423866D02*
X122135714Y-156614342D01*
X122135714Y-156614342D02*
X122088095Y-156709580D01*
X122088095Y-156709580D02*
X122040476Y-156757200D01*
X122040476Y-156757200D02*
X121945238Y-156804819D01*
X121945238Y-156804819D02*
X121850000Y-156804819D01*
X121850000Y-156804819D02*
X121754762Y-156757200D01*
X121754762Y-156757200D02*
X121707143Y-156709580D01*
X121707143Y-156709580D02*
X121659524Y-156614342D01*
X121659524Y-156614342D02*
X121611905Y-156423866D01*
X121611905Y-156423866D02*
X121611905Y-156185771D01*
X121611905Y-156185771D02*
X121659524Y-155995295D01*
X121659524Y-155995295D02*
X121707143Y-155900057D01*
X121707143Y-155900057D02*
X121754762Y-155852438D01*
X121754762Y-155852438D02*
X121850000Y-155804819D01*
X122802381Y-155804819D02*
X122897619Y-155804819D01*
X122897619Y-155804819D02*
X122992857Y-155852438D01*
X122992857Y-155852438D02*
X123040476Y-155900057D01*
X123040476Y-155900057D02*
X123088095Y-155995295D01*
X123088095Y-155995295D02*
X123135714Y-156185771D01*
X123135714Y-156185771D02*
X123135714Y-156423866D01*
X123135714Y-156423866D02*
X123088095Y-156614342D01*
X123088095Y-156614342D02*
X123040476Y-156709580D01*
X123040476Y-156709580D02*
X122992857Y-156757200D01*
X122992857Y-156757200D02*
X122897619Y-156804819D01*
X122897619Y-156804819D02*
X122802381Y-156804819D01*
X122802381Y-156804819D02*
X122707143Y-156757200D01*
X122707143Y-156757200D02*
X122659524Y-156709580D01*
X122659524Y-156709580D02*
X122611905Y-156614342D01*
X122611905Y-156614342D02*
X122564286Y-156423866D01*
X122564286Y-156423866D02*
X122564286Y-156185771D01*
X122564286Y-156185771D02*
X122611905Y-155995295D01*
X122611905Y-155995295D02*
X122659524Y-155900057D01*
X122659524Y-155900057D02*
X122707143Y-155852438D01*
X122707143Y-155852438D02*
X122802381Y-155804819D01*
X123754762Y-155804819D02*
X123850000Y-155804819D01*
X123850000Y-155804819D02*
X123945238Y-155852438D01*
X123945238Y-155852438D02*
X123992857Y-155900057D01*
X123992857Y-155900057D02*
X124040476Y-155995295D01*
X124040476Y-155995295D02*
X124088095Y-156185771D01*
X124088095Y-156185771D02*
X124088095Y-156423866D01*
X124088095Y-156423866D02*
X124040476Y-156614342D01*
X124040476Y-156614342D02*
X123992857Y-156709580D01*
X123992857Y-156709580D02*
X123945238Y-156757200D01*
X123945238Y-156757200D02*
X123850000Y-156804819D01*
X123850000Y-156804819D02*
X123754762Y-156804819D01*
X123754762Y-156804819D02*
X123659524Y-156757200D01*
X123659524Y-156757200D02*
X123611905Y-156709580D01*
X123611905Y-156709580D02*
X123564286Y-156614342D01*
X123564286Y-156614342D02*
X123516667Y-156423866D01*
X123516667Y-156423866D02*
X123516667Y-156185771D01*
X123516667Y-156185771D02*
X123564286Y-155995295D01*
X123564286Y-155995295D02*
X123611905Y-155900057D01*
X123611905Y-155900057D02*
X123659524Y-155852438D01*
X123659524Y-155852438D02*
X123754762Y-155804819D01*
X124707143Y-155804819D02*
X124802381Y-155804819D01*
X124802381Y-155804819D02*
X124897619Y-155852438D01*
X124897619Y-155852438D02*
X124945238Y-155900057D01*
X124945238Y-155900057D02*
X124992857Y-155995295D01*
X124992857Y-155995295D02*
X125040476Y-156185771D01*
X125040476Y-156185771D02*
X125040476Y-156423866D01*
X125040476Y-156423866D02*
X124992857Y-156614342D01*
X124992857Y-156614342D02*
X124945238Y-156709580D01*
X124945238Y-156709580D02*
X124897619Y-156757200D01*
X124897619Y-156757200D02*
X124802381Y-156804819D01*
X124802381Y-156804819D02*
X124707143Y-156804819D01*
X124707143Y-156804819D02*
X124611905Y-156757200D01*
X124611905Y-156757200D02*
X124564286Y-156709580D01*
X124564286Y-156709580D02*
X124516667Y-156614342D01*
X124516667Y-156614342D02*
X124469048Y-156423866D01*
X124469048Y-156423866D02*
X124469048Y-156185771D01*
X124469048Y-156185771D02*
X124516667Y-155995295D01*
X124516667Y-155995295D02*
X124564286Y-155900057D01*
X124564286Y-155900057D02*
X124611905Y-155852438D01*
X124611905Y-155852438D02*
X124707143Y-155804819D01*
X126230953Y-156804819D02*
X126230953Y-156138152D01*
X126230953Y-156233390D02*
X126278572Y-156185771D01*
X126278572Y-156185771D02*
X126373810Y-156138152D01*
X126373810Y-156138152D02*
X126516667Y-156138152D01*
X126516667Y-156138152D02*
X126611905Y-156185771D01*
X126611905Y-156185771D02*
X126659524Y-156281009D01*
X126659524Y-156281009D02*
X126659524Y-156804819D01*
X126659524Y-156281009D02*
X126707143Y-156185771D01*
X126707143Y-156185771D02*
X126802381Y-156138152D01*
X126802381Y-156138152D02*
X126945238Y-156138152D01*
X126945238Y-156138152D02*
X127040477Y-156185771D01*
X127040477Y-156185771D02*
X127088096Y-156281009D01*
X127088096Y-156281009D02*
X127088096Y-156804819D01*
X127564286Y-156804819D02*
X127564286Y-156138152D01*
X127564286Y-156233390D02*
X127611905Y-156185771D01*
X127611905Y-156185771D02*
X127707143Y-156138152D01*
X127707143Y-156138152D02*
X127850000Y-156138152D01*
X127850000Y-156138152D02*
X127945238Y-156185771D01*
X127945238Y-156185771D02*
X127992857Y-156281009D01*
X127992857Y-156281009D02*
X127992857Y-156804819D01*
X127992857Y-156281009D02*
X128040476Y-156185771D01*
X128040476Y-156185771D02*
X128135714Y-156138152D01*
X128135714Y-156138152D02*
X128278571Y-156138152D01*
X128278571Y-156138152D02*
X128373810Y-156185771D01*
X128373810Y-156185771D02*
X128421429Y-156281009D01*
X128421429Y-156281009D02*
X128421429Y-156804819D01*
D10*
X96350000Y-150000000D02*
X96350000Y-158086420D01*
X151350000Y-150000000D02*
X151350000Y-158086420D01*
X96350000Y-157500000D02*
X151350000Y-157500000D01*
X96350000Y-157500000D02*
X151350000Y-157500000D01*
X96350000Y-157500000D02*
X97476504Y-156913579D01*
X96350000Y-157500000D02*
X97476504Y-158086421D01*
X151350000Y-157500000D02*
X150223496Y-158086421D01*
X151350000Y-157500000D02*
X150223496Y-156913579D01*
D11*
X95933333Y-142254819D02*
X95742857Y-142254819D01*
X95742857Y-142254819D02*
X95647619Y-142302438D01*
X95647619Y-142302438D02*
X95600000Y-142350057D01*
X95600000Y-142350057D02*
X95504762Y-142492914D01*
X95504762Y-142492914D02*
X95457143Y-142683390D01*
X95457143Y-142683390D02*
X95457143Y-143064342D01*
X95457143Y-143064342D02*
X95504762Y-143159580D01*
X95504762Y-143159580D02*
X95552381Y-143207200D01*
X95552381Y-143207200D02*
X95647619Y-143254819D01*
X95647619Y-143254819D02*
X95838095Y-143254819D01*
X95838095Y-143254819D02*
X95933333Y-143207200D01*
X95933333Y-143207200D02*
X95980952Y-143159580D01*
X95980952Y-143159580D02*
X96028571Y-143064342D01*
X96028571Y-143064342D02*
X96028571Y-142826247D01*
X96028571Y-142826247D02*
X95980952Y-142731009D01*
X95980952Y-142731009D02*
X95933333Y-142683390D01*
X95933333Y-142683390D02*
X95838095Y-142635771D01*
X95838095Y-142635771D02*
X95647619Y-142635771D01*
X95647619Y-142635771D02*
X95552381Y-142683390D01*
X95552381Y-142683390D02*
X95504762Y-142731009D01*
X95504762Y-142731009D02*
X95457143Y-142826247D01*
X96457143Y-143159580D02*
X96504762Y-143207200D01*
X96504762Y-143207200D02*
X96457143Y-143254819D01*
X96457143Y-143254819D02*
X96409524Y-143207200D01*
X96409524Y-143207200D02*
X96457143Y-143159580D01*
X96457143Y-143159580D02*
X96457143Y-143254819D01*
X97361904Y-142588152D02*
X97361904Y-143254819D01*
X97123809Y-142207200D02*
X96885714Y-142921485D01*
X96885714Y-142921485D02*
X97504761Y-142921485D01*
X98076190Y-142254819D02*
X98171428Y-142254819D01*
X98171428Y-142254819D02*
X98266666Y-142302438D01*
X98266666Y-142302438D02*
X98314285Y-142350057D01*
X98314285Y-142350057D02*
X98361904Y-142445295D01*
X98361904Y-142445295D02*
X98409523Y-142635771D01*
X98409523Y-142635771D02*
X98409523Y-142873866D01*
X98409523Y-142873866D02*
X98361904Y-143064342D01*
X98361904Y-143064342D02*
X98314285Y-143159580D01*
X98314285Y-143159580D02*
X98266666Y-143207200D01*
X98266666Y-143207200D02*
X98171428Y-143254819D01*
X98171428Y-143254819D02*
X98076190Y-143254819D01*
X98076190Y-143254819D02*
X97980952Y-143207200D01*
X97980952Y-143207200D02*
X97933333Y-143159580D01*
X97933333Y-143159580D02*
X97885714Y-143064342D01*
X97885714Y-143064342D02*
X97838095Y-142873866D01*
X97838095Y-142873866D02*
X97838095Y-142635771D01*
X97838095Y-142635771D02*
X97885714Y-142445295D01*
X97885714Y-142445295D02*
X97933333Y-142350057D01*
X97933333Y-142350057D02*
X97980952Y-142302438D01*
X97980952Y-142302438D02*
X98076190Y-142254819D01*
X99028571Y-142254819D02*
X99123809Y-142254819D01*
X99123809Y-142254819D02*
X99219047Y-142302438D01*
X99219047Y-142302438D02*
X99266666Y-142350057D01*
X99266666Y-142350057D02*
X99314285Y-142445295D01*
X99314285Y-142445295D02*
X99361904Y-142635771D01*
X99361904Y-142635771D02*
X99361904Y-142873866D01*
X99361904Y-142873866D02*
X99314285Y-143064342D01*
X99314285Y-143064342D02*
X99266666Y-143159580D01*
X99266666Y-143159580D02*
X99219047Y-143207200D01*
X99219047Y-143207200D02*
X99123809Y-143254819D01*
X99123809Y-143254819D02*
X99028571Y-143254819D01*
X99028571Y-143254819D02*
X98933333Y-143207200D01*
X98933333Y-143207200D02*
X98885714Y-143159580D01*
X98885714Y-143159580D02*
X98838095Y-143064342D01*
X98838095Y-143064342D02*
X98790476Y-142873866D01*
X98790476Y-142873866D02*
X98790476Y-142635771D01*
X98790476Y-142635771D02*
X98838095Y-142445295D01*
X98838095Y-142445295D02*
X98885714Y-142350057D01*
X98885714Y-142350057D02*
X98933333Y-142302438D01*
X98933333Y-142302438D02*
X99028571Y-142254819D01*
X99980952Y-142254819D02*
X100076190Y-142254819D01*
X100076190Y-142254819D02*
X100171428Y-142302438D01*
X100171428Y-142302438D02*
X100219047Y-142350057D01*
X100219047Y-142350057D02*
X100266666Y-142445295D01*
X100266666Y-142445295D02*
X100314285Y-142635771D01*
X100314285Y-142635771D02*
X100314285Y-142873866D01*
X100314285Y-142873866D02*
X100266666Y-143064342D01*
X100266666Y-143064342D02*
X100219047Y-143159580D01*
X100219047Y-143159580D02*
X100171428Y-143207200D01*
X100171428Y-143207200D02*
X100076190Y-143254819D01*
X100076190Y-143254819D02*
X99980952Y-143254819D01*
X99980952Y-143254819D02*
X99885714Y-143207200D01*
X99885714Y-143207200D02*
X99838095Y-143159580D01*
X99838095Y-143159580D02*
X99790476Y-143064342D01*
X99790476Y-143064342D02*
X99742857Y-142873866D01*
X99742857Y-142873866D02*
X99742857Y-142635771D01*
X99742857Y-142635771D02*
X99790476Y-142445295D01*
X99790476Y-142445295D02*
X99838095Y-142350057D01*
X99838095Y-142350057D02*
X99885714Y-142302438D01*
X99885714Y-142302438D02*
X99980952Y-142254819D01*
X101504762Y-143254819D02*
X101504762Y-142588152D01*
X101504762Y-142683390D02*
X101552381Y-142635771D01*
X101552381Y-142635771D02*
X101647619Y-142588152D01*
X101647619Y-142588152D02*
X101790476Y-142588152D01*
X101790476Y-142588152D02*
X101885714Y-142635771D01*
X101885714Y-142635771D02*
X101933333Y-142731009D01*
X101933333Y-142731009D02*
X101933333Y-143254819D01*
X101933333Y-142731009D02*
X101980952Y-142635771D01*
X101980952Y-142635771D02*
X102076190Y-142588152D01*
X102076190Y-142588152D02*
X102219047Y-142588152D01*
X102219047Y-142588152D02*
X102314286Y-142635771D01*
X102314286Y-142635771D02*
X102361905Y-142731009D01*
X102361905Y-142731009D02*
X102361905Y-143254819D01*
X102838095Y-143254819D02*
X102838095Y-142588152D01*
X102838095Y-142683390D02*
X102885714Y-142635771D01*
X102885714Y-142635771D02*
X102980952Y-142588152D01*
X102980952Y-142588152D02*
X103123809Y-142588152D01*
X103123809Y-142588152D02*
X103219047Y-142635771D01*
X103219047Y-142635771D02*
X103266666Y-142731009D01*
X103266666Y-142731009D02*
X103266666Y-143254819D01*
X103266666Y-142731009D02*
X103314285Y-142635771D01*
X103314285Y-142635771D02*
X103409523Y-142588152D01*
X103409523Y-142588152D02*
X103552380Y-142588152D01*
X103552380Y-142588152D02*
X103647619Y-142635771D01*
X103647619Y-142635771D02*
X103695238Y-142731009D01*
X103695238Y-142731009D02*
X103695238Y-143254819D01*
D10*
X96400000Y-149900000D02*
X96400000Y-143363580D01*
X102800000Y-149900000D02*
X102800000Y-143363580D01*
X96400000Y-143950000D02*
X102800000Y-143950000D01*
X96400000Y-143950000D02*
X102800000Y-143950000D01*
X96400000Y-143950000D02*
X97526504Y-143363579D01*
X96400000Y-143950000D02*
X97526504Y-144536421D01*
X102800000Y-143950000D02*
X101673496Y-144536421D01*
X102800000Y-143950000D02*
X101673496Y-143363579D01*
M02*
