%TF.GenerationSoftware,KiCad,Pcbnew,8.0.6*%
%TF.CreationDate,2025-03-02T18:23:20-07:00*%
%TF.ProjectId,Pit Radio,50697420-5261-4646-996f-2e6b69636164,rev?*%
%TF.SameCoordinates,Original*%
%TF.FileFunction,Copper,L2,Bot*%
%TF.FilePolarity,Positive*%
%FSLAX46Y46*%
G04 Gerber Fmt 4.6, Leading zero omitted, Abs format (unit mm)*
G04 Created by KiCad (PCBNEW 8.0.6) date 2025-03-02 18:23:20*
%MOMM*%
%LPD*%
G01*
G04 APERTURE LIST*
G04 Aperture macros list*
%AMRoundRect*
0 Rectangle with rounded corners*
0 $1 Rounding radius*
0 $2 $3 $4 $5 $6 $7 $8 $9 X,Y pos of 4 corners*
0 Add a 4 corners polygon primitive as box body*
4,1,4,$2,$3,$4,$5,$6,$7,$8,$9,$2,$3,0*
0 Add four circle primitives for the rounded corners*
1,1,$1+$1,$2,$3*
1,1,$1+$1,$4,$5*
1,1,$1+$1,$6,$7*
1,1,$1+$1,$8,$9*
0 Add four rect primitives between the rounded corners*
20,1,$1+$1,$2,$3,$4,$5,0*
20,1,$1+$1,$4,$5,$6,$7,0*
20,1,$1+$1,$6,$7,$8,$9,0*
20,1,$1+$1,$8,$9,$2,$3,0*%
G04 Aperture macros list end*
%TA.AperFunction,ComponentPad*%
%ADD10RoundRect,0.249999X-1.025001X1.025001X-1.025001X-1.025001X1.025001X-1.025001X1.025001X1.025001X0*%
%TD*%
%TA.AperFunction,ComponentPad*%
%ADD11C,2.550000*%
%TD*%
%TA.AperFunction,ComponentPad*%
%ADD12R,1.560000X1.560000*%
%TD*%
%TA.AperFunction,ComponentPad*%
%ADD13C,1.560000*%
%TD*%
%TA.AperFunction,ComponentPad*%
%ADD14C,1.800000*%
%TD*%
%TA.AperFunction,Conductor*%
%ADD15C,0.600000*%
%TD*%
%TA.AperFunction,Conductor*%
%ADD16C,0.200000*%
%TD*%
G04 APERTURE END LIST*
D10*
%TO.P,J1,1,Pin_1*%
%TO.N,+5V*%
X136100000Y-134680000D03*
D11*
%TO.P,J1,2,Pin_2*%
%TO.N,GND*%
X136100000Y-139480000D03*
%TD*%
D12*
%TO.P,UNIT_1,J2-1,3V3*%
%TO.N,3V3*%
X146730000Y-98390000D03*
D13*
%TO.P,UNIT_1,J2-2,EN*%
%TO.N,unconnected-(UNIT_1-EN-PadJ2-2)*%
X144190000Y-98390000D03*
%TO.P,UNIT_1,J2-3,SENSOR_VP*%
%TO.N,unconnected-(UNIT_1-SENSOR_VP-PadJ2-3)*%
X141650000Y-98390000D03*
%TO.P,UNIT_1,J2-4,SENSOR_VN*%
%TO.N,unconnected-(UNIT_1-SENSOR_VN-PadJ2-4)*%
X139110000Y-98390000D03*
%TO.P,UNIT_1,J2-5,IO34*%
%TO.N,unconnected-(UNIT_1-IO34-PadJ2-5)*%
X136570000Y-98390000D03*
%TO.P,UNIT_1,J2-6,IO35*%
%TO.N,unconnected-(UNIT_1-IO35-PadJ2-6)*%
X134030000Y-98390000D03*
%TO.P,UNIT_1,J2-7,IO32*%
%TO.N,unconnected-(UNIT_1-IO32-PadJ2-7)*%
X131490000Y-98390000D03*
%TO.P,UNIT_1,J2-8,IO33*%
%TO.N,unconnected-(UNIT_1-IO33-PadJ2-8)*%
X128950000Y-98390000D03*
%TO.P,UNIT_1,J2-9,IO25*%
%TO.N,unconnected-(UNIT_1-IO25-PadJ2-9)*%
X126410000Y-98390000D03*
%TO.P,UNIT_1,J2-10,IO26*%
%TO.N,unconnected-(UNIT_1-IO26-PadJ2-10)*%
X123870000Y-98390000D03*
%TO.P,UNIT_1,J2-11,IO27*%
%TO.N,unconnected-(UNIT_1-IO27-PadJ2-11)*%
X121330000Y-98390000D03*
%TO.P,UNIT_1,J2-12,IO14*%
%TO.N,unconnected-(UNIT_1-IO14-PadJ2-12)*%
X118790000Y-98390000D03*
%TO.P,UNIT_1,J2-13,IO12*%
%TO.N,unconnected-(UNIT_1-IO12-PadJ2-13)*%
X116250000Y-98390000D03*
%TO.P,UNIT_1,J2-14,GND1*%
%TO.N,GND*%
X113710000Y-98390000D03*
%TO.P,UNIT_1,J2-15,IO13*%
%TO.N,unconnected-(UNIT_1-IO13-PadJ2-15)*%
X111170000Y-98390000D03*
%TO.P,UNIT_1,J2-16,SD2*%
%TO.N,unconnected-(UNIT_1-SD2-PadJ2-16)*%
X108630000Y-98390000D03*
%TO.P,UNIT_1,J2-17,SD3*%
%TO.N,unconnected-(UNIT_1-SD3-PadJ2-17)*%
X106090000Y-98390000D03*
%TO.P,UNIT_1,J2-18,CMD*%
%TO.N,unconnected-(UNIT_1-CMD-PadJ2-18)*%
X103550000Y-98390000D03*
%TO.P,UNIT_1,J2-19,EXT_5V*%
%TO.N,+5V*%
X101010000Y-98390000D03*
%TO.P,UNIT_1,J3-1,GND3*%
%TO.N,GND*%
X146710000Y-121430000D03*
%TO.P,UNIT_1,J3-2,IO23*%
%TO.N,SI*%
X144170000Y-121430000D03*
%TO.P,UNIT_1,J3-3,IO22*%
%TO.N,unconnected-(UNIT_1-IO22-PadJ3-3)*%
X141630000Y-121430000D03*
%TO.P,UNIT_1,J3-4,TXD0*%
%TO.N,unconnected-(UNIT_1-TXD0-PadJ3-4)*%
X139090000Y-121430000D03*
%TO.P,UNIT_1,J3-5,RXD0*%
%TO.N,unconnected-(UNIT_1-RXD0-PadJ3-5)*%
X136550000Y-121430000D03*
%TO.P,UNIT_1,J3-6,IO21*%
%TO.N,unconnected-(UNIT_1-IO21-PadJ3-6)*%
X134010000Y-121430000D03*
%TO.P,UNIT_1,J3-7,GND2*%
%TO.N,GND*%
X131470000Y-121430000D03*
%TO.P,UNIT_1,J3-8,IO19*%
%TO.N,SO*%
X128930000Y-121430000D03*
%TO.P,UNIT_1,J3-9,IO18*%
%TO.N,SCK*%
X126390000Y-121430000D03*
%TO.P,UNIT_1,J3-10,IO5*%
%TO.N,CE*%
X123850000Y-121430000D03*
%TO.P,UNIT_1,J3-11,IO17*%
%TO.N,unconnected-(UNIT_1-IO17-PadJ3-11)*%
X121310000Y-121430000D03*
%TO.P,UNIT_1,J3-12,IO16*%
%TO.N,CSN*%
X118770000Y-121430000D03*
%TO.P,UNIT_1,J3-13,IO4*%
%TO.N,unconnected-(UNIT_1-IO4-PadJ3-13)*%
X116230000Y-121430000D03*
%TO.P,UNIT_1,J3-14,IO0*%
%TO.N,unconnected-(UNIT_1-IO0-PadJ3-14)*%
X113690000Y-121430000D03*
%TO.P,UNIT_1,J3-15,IO2*%
%TO.N,unconnected-(UNIT_1-IO2-PadJ3-15)*%
X111150000Y-121430000D03*
%TO.P,UNIT_1,J3-16,IO15*%
%TO.N,unconnected-(UNIT_1-IO15-PadJ3-16)*%
X108610000Y-121430000D03*
%TO.P,UNIT_1,J3-17,SD1*%
%TO.N,unconnected-(UNIT_1-SD1-PadJ3-17)*%
X106070000Y-121430000D03*
%TO.P,UNIT_1,J3-18,SD0*%
%TO.N,unconnected-(UNIT_1-SD0-PadJ3-18)*%
X103530000Y-121430000D03*
%TO.P,UNIT_1,J3-19,CLK*%
%TO.N,unconnected-(UNIT_1-CLK-PadJ3-19)*%
X100990000Y-121430000D03*
%TD*%
D14*
%TO.P,U2,1,GND*%
%TO.N,GND*%
X128165000Y-139530000D03*
%TO.P,U2,2,VCC*%
%TO.N,3V3*%
X125625000Y-139530000D03*
%TO.P,U2,3,CE*%
%TO.N,CE*%
X128165000Y-136990000D03*
%TO.P,U2,4,CSN*%
%TO.N,CSN*%
X125625000Y-136990000D03*
%TO.P,U2,5,SCK*%
%TO.N,SCK*%
X128165000Y-134450000D03*
%TO.P,U2,6,MOSI*%
%TO.N,SI*%
X125625000Y-134450000D03*
%TO.P,U2,7,MISO*%
%TO.N,SO*%
X128165000Y-131910000D03*
%TO.P,U2,8,IRQ*%
%TO.N,unconnected-(U2-IRQ-Pad8)*%
X125625000Y-131910000D03*
%TO.P,U2,9*%
%TO.N,N/C*%
X98775000Y-128480000D03*
X98835000Y-140470000D03*
%TO.P,U2,10*%
X98715000Y-131020000D03*
X98775000Y-143010000D03*
%TD*%
D15*
%TO.N,+5V*%
X136100000Y-134680000D02*
X140100000Y-134680000D01*
X143520000Y-141080000D02*
X136010000Y-148590000D01*
X112250000Y-142940000D02*
X112250000Y-137340000D01*
X140100000Y-134680000D02*
X143520000Y-138100000D01*
X117900000Y-148590000D02*
X112250000Y-142940000D01*
X143520000Y-138100000D02*
X143520000Y-141080000D01*
X136010000Y-148590000D02*
X117900000Y-148590000D01*
X112250000Y-137340000D02*
X97048572Y-122138572D01*
X97048572Y-122138572D02*
X97048572Y-100231428D01*
X98890000Y-98390000D02*
X101010000Y-98390000D01*
X97048572Y-100231428D02*
X98890000Y-98390000D01*
D16*
%TO.N,SI*%
X144170000Y-123790000D02*
X144170000Y-121430000D01*
X125625000Y-134450000D02*
X122870000Y-134450000D01*
X121640000Y-129520000D02*
X125410000Y-125750000D01*
X125410000Y-125750000D02*
X142210000Y-125750000D01*
X121640000Y-133220000D02*
X121640000Y-129520000D01*
X122870000Y-134450000D02*
X121640000Y-133220000D01*
X142210000Y-125750000D02*
X144170000Y-123790000D01*
%TD*%
M02*
