%TF.GenerationSoftware,KiCad,Pcbnew,8.0.6*%
%TF.CreationDate,2025-03-02T18:23:20-07:00*%
%TF.ProjectId,Pit Radio,50697420-5261-4646-996f-2e6b69636164,rev?*%
%TF.SameCoordinates,Original*%
%TF.FileFunction,Legend,Bot*%
%TF.FilePolarity,Positive*%
%FSLAX46Y46*%
G04 Gerber Fmt 4.6, Leading zero omitted, Abs format (unit mm)*
G04 Created by KiCad (PCBNEW 8.0.6) date 2025-03-02 18:23:20*
%MOMM*%
%LPD*%
G01*
G04 APERTURE LIST*
%ADD10C,0.100000*%
%ADD11C,0.000000*%
G04 APERTURE END LIST*
D10*
X143716115Y-109772419D02*
X143716115Y-108772419D01*
X143716115Y-108772419D02*
X143478020Y-108772419D01*
X143478020Y-108772419D02*
X143335163Y-108820038D01*
X143335163Y-108820038D02*
X143239925Y-108915276D01*
X143239925Y-108915276D02*
X143192306Y-109010514D01*
X143192306Y-109010514D02*
X143144687Y-109200990D01*
X143144687Y-109200990D02*
X143144687Y-109343847D01*
X143144687Y-109343847D02*
X143192306Y-109534323D01*
X143192306Y-109534323D02*
X143239925Y-109629561D01*
X143239925Y-109629561D02*
X143335163Y-109724800D01*
X143335163Y-109724800D02*
X143478020Y-109772419D01*
X143478020Y-109772419D02*
X143716115Y-109772419D01*
X142335163Y-109724800D02*
X142430401Y-109772419D01*
X142430401Y-109772419D02*
X142620877Y-109772419D01*
X142620877Y-109772419D02*
X142716115Y-109724800D01*
X142716115Y-109724800D02*
X142763734Y-109629561D01*
X142763734Y-109629561D02*
X142763734Y-109248609D01*
X142763734Y-109248609D02*
X142716115Y-109153371D01*
X142716115Y-109153371D02*
X142620877Y-109105752D01*
X142620877Y-109105752D02*
X142430401Y-109105752D01*
X142430401Y-109105752D02*
X142335163Y-109153371D01*
X142335163Y-109153371D02*
X142287544Y-109248609D01*
X142287544Y-109248609D02*
X142287544Y-109343847D01*
X142287544Y-109343847D02*
X142763734Y-109439085D01*
X141906591Y-109724800D02*
X141811353Y-109772419D01*
X141811353Y-109772419D02*
X141620877Y-109772419D01*
X141620877Y-109772419D02*
X141525639Y-109724800D01*
X141525639Y-109724800D02*
X141478020Y-109629561D01*
X141478020Y-109629561D02*
X141478020Y-109581942D01*
X141478020Y-109581942D02*
X141525639Y-109486704D01*
X141525639Y-109486704D02*
X141620877Y-109439085D01*
X141620877Y-109439085D02*
X141763734Y-109439085D01*
X141763734Y-109439085D02*
X141858972Y-109391466D01*
X141858972Y-109391466D02*
X141906591Y-109296228D01*
X141906591Y-109296228D02*
X141906591Y-109248609D01*
X141906591Y-109248609D02*
X141858972Y-109153371D01*
X141858972Y-109153371D02*
X141763734Y-109105752D01*
X141763734Y-109105752D02*
X141620877Y-109105752D01*
X141620877Y-109105752D02*
X141525639Y-109153371D01*
X141049448Y-109772419D02*
X141049448Y-109105752D01*
X141049448Y-108772419D02*
X141097067Y-108820038D01*
X141097067Y-108820038D02*
X141049448Y-108867657D01*
X141049448Y-108867657D02*
X141001829Y-108820038D01*
X141001829Y-108820038D02*
X141049448Y-108772419D01*
X141049448Y-108772419D02*
X141049448Y-108867657D01*
X140144687Y-109105752D02*
X140144687Y-109915276D01*
X140144687Y-109915276D02*
X140192306Y-110010514D01*
X140192306Y-110010514D02*
X140239925Y-110058133D01*
X140239925Y-110058133D02*
X140335163Y-110105752D01*
X140335163Y-110105752D02*
X140478020Y-110105752D01*
X140478020Y-110105752D02*
X140573258Y-110058133D01*
X140144687Y-109724800D02*
X140239925Y-109772419D01*
X140239925Y-109772419D02*
X140430401Y-109772419D01*
X140430401Y-109772419D02*
X140525639Y-109724800D01*
X140525639Y-109724800D02*
X140573258Y-109677180D01*
X140573258Y-109677180D02*
X140620877Y-109581942D01*
X140620877Y-109581942D02*
X140620877Y-109296228D01*
X140620877Y-109296228D02*
X140573258Y-109200990D01*
X140573258Y-109200990D02*
X140525639Y-109153371D01*
X140525639Y-109153371D02*
X140430401Y-109105752D01*
X140430401Y-109105752D02*
X140239925Y-109105752D01*
X140239925Y-109105752D02*
X140144687Y-109153371D01*
X139668496Y-109105752D02*
X139668496Y-109772419D01*
X139668496Y-109200990D02*
X139620877Y-109153371D01*
X139620877Y-109153371D02*
X139525639Y-109105752D01*
X139525639Y-109105752D02*
X139382782Y-109105752D01*
X139382782Y-109105752D02*
X139287544Y-109153371D01*
X139287544Y-109153371D02*
X139239925Y-109248609D01*
X139239925Y-109248609D02*
X139239925Y-109772419D01*
X138382782Y-109724800D02*
X138478020Y-109772419D01*
X138478020Y-109772419D02*
X138668496Y-109772419D01*
X138668496Y-109772419D02*
X138763734Y-109724800D01*
X138763734Y-109724800D02*
X138811353Y-109629561D01*
X138811353Y-109629561D02*
X138811353Y-109248609D01*
X138811353Y-109248609D02*
X138763734Y-109153371D01*
X138763734Y-109153371D02*
X138668496Y-109105752D01*
X138668496Y-109105752D02*
X138478020Y-109105752D01*
X138478020Y-109105752D02*
X138382782Y-109153371D01*
X138382782Y-109153371D02*
X138335163Y-109248609D01*
X138335163Y-109248609D02*
X138335163Y-109343847D01*
X138335163Y-109343847D02*
X138811353Y-109439085D01*
X137478020Y-109772419D02*
X137478020Y-108772419D01*
X137478020Y-109724800D02*
X137573258Y-109772419D01*
X137573258Y-109772419D02*
X137763734Y-109772419D01*
X137763734Y-109772419D02*
X137858972Y-109724800D01*
X137858972Y-109724800D02*
X137906591Y-109677180D01*
X137906591Y-109677180D02*
X137954210Y-109581942D01*
X137954210Y-109581942D02*
X137954210Y-109296228D01*
X137954210Y-109296228D02*
X137906591Y-109200990D01*
X137906591Y-109200990D02*
X137858972Y-109153371D01*
X137858972Y-109153371D02*
X137763734Y-109105752D01*
X137763734Y-109105752D02*
X137573258Y-109105752D01*
X137573258Y-109105752D02*
X137478020Y-109153371D01*
X136239924Y-109772419D02*
X136239924Y-108772419D01*
X136239924Y-109153371D02*
X136144686Y-109105752D01*
X136144686Y-109105752D02*
X135954210Y-109105752D01*
X135954210Y-109105752D02*
X135858972Y-109153371D01*
X135858972Y-109153371D02*
X135811353Y-109200990D01*
X135811353Y-109200990D02*
X135763734Y-109296228D01*
X135763734Y-109296228D02*
X135763734Y-109581942D01*
X135763734Y-109581942D02*
X135811353Y-109677180D01*
X135811353Y-109677180D02*
X135858972Y-109724800D01*
X135858972Y-109724800D02*
X135954210Y-109772419D01*
X135954210Y-109772419D02*
X136144686Y-109772419D01*
X136144686Y-109772419D02*
X136239924Y-109724800D01*
X135430400Y-109105752D02*
X135192305Y-109772419D01*
X134954210Y-109105752D02*
X135192305Y-109772419D01*
X135192305Y-109772419D02*
X135287543Y-110010514D01*
X135287543Y-110010514D02*
X135335162Y-110058133D01*
X135335162Y-110058133D02*
X135430400Y-110105752D01*
X133239924Y-109677180D02*
X133287543Y-109724800D01*
X133287543Y-109724800D02*
X133430400Y-109772419D01*
X133430400Y-109772419D02*
X133525638Y-109772419D01*
X133525638Y-109772419D02*
X133668495Y-109724800D01*
X133668495Y-109724800D02*
X133763733Y-109629561D01*
X133763733Y-109629561D02*
X133811352Y-109534323D01*
X133811352Y-109534323D02*
X133858971Y-109343847D01*
X133858971Y-109343847D02*
X133858971Y-109200990D01*
X133858971Y-109200990D02*
X133811352Y-109010514D01*
X133811352Y-109010514D02*
X133763733Y-108915276D01*
X133763733Y-108915276D02*
X133668495Y-108820038D01*
X133668495Y-108820038D02*
X133525638Y-108772419D01*
X133525638Y-108772419D02*
X133430400Y-108772419D01*
X133430400Y-108772419D02*
X133287543Y-108820038D01*
X133287543Y-108820038D02*
X133239924Y-108867657D01*
X132668495Y-109772419D02*
X132763733Y-109724800D01*
X132763733Y-109724800D02*
X132811352Y-109677180D01*
X132811352Y-109677180D02*
X132858971Y-109581942D01*
X132858971Y-109581942D02*
X132858971Y-109296228D01*
X132858971Y-109296228D02*
X132811352Y-109200990D01*
X132811352Y-109200990D02*
X132763733Y-109153371D01*
X132763733Y-109153371D02*
X132668495Y-109105752D01*
X132668495Y-109105752D02*
X132525638Y-109105752D01*
X132525638Y-109105752D02*
X132430400Y-109153371D01*
X132430400Y-109153371D02*
X132382781Y-109200990D01*
X132382781Y-109200990D02*
X132335162Y-109296228D01*
X132335162Y-109296228D02*
X132335162Y-109581942D01*
X132335162Y-109581942D02*
X132382781Y-109677180D01*
X132382781Y-109677180D02*
X132430400Y-109724800D01*
X132430400Y-109724800D02*
X132525638Y-109772419D01*
X132525638Y-109772419D02*
X132668495Y-109772419D01*
X131906590Y-109105752D02*
X131906590Y-109772419D01*
X131906590Y-109200990D02*
X131858971Y-109153371D01*
X131858971Y-109153371D02*
X131763733Y-109105752D01*
X131763733Y-109105752D02*
X131620876Y-109105752D01*
X131620876Y-109105752D02*
X131525638Y-109153371D01*
X131525638Y-109153371D02*
X131478019Y-109248609D01*
X131478019Y-109248609D02*
X131478019Y-109772419D01*
X131001828Y-109105752D02*
X131001828Y-109772419D01*
X131001828Y-109200990D02*
X130954209Y-109153371D01*
X130954209Y-109153371D02*
X130858971Y-109105752D01*
X130858971Y-109105752D02*
X130716114Y-109105752D01*
X130716114Y-109105752D02*
X130620876Y-109153371D01*
X130620876Y-109153371D02*
X130573257Y-109248609D01*
X130573257Y-109248609D02*
X130573257Y-109772419D01*
X129954209Y-109772419D02*
X130049447Y-109724800D01*
X130049447Y-109724800D02*
X130097066Y-109677180D01*
X130097066Y-109677180D02*
X130144685Y-109581942D01*
X130144685Y-109581942D02*
X130144685Y-109296228D01*
X130144685Y-109296228D02*
X130097066Y-109200990D01*
X130097066Y-109200990D02*
X130049447Y-109153371D01*
X130049447Y-109153371D02*
X129954209Y-109105752D01*
X129954209Y-109105752D02*
X129811352Y-109105752D01*
X129811352Y-109105752D02*
X129716114Y-109153371D01*
X129716114Y-109153371D02*
X129668495Y-109200990D01*
X129668495Y-109200990D02*
X129620876Y-109296228D01*
X129620876Y-109296228D02*
X129620876Y-109581942D01*
X129620876Y-109581942D02*
X129668495Y-109677180D01*
X129668495Y-109677180D02*
X129716114Y-109724800D01*
X129716114Y-109724800D02*
X129811352Y-109772419D01*
X129811352Y-109772419D02*
X129954209Y-109772419D01*
X129192304Y-109772419D02*
X129192304Y-109105752D01*
X129192304Y-109296228D02*
X129144685Y-109200990D01*
X129144685Y-109200990D02*
X129097066Y-109153371D01*
X129097066Y-109153371D02*
X129001828Y-109105752D01*
X129001828Y-109105752D02*
X128906590Y-109105752D01*
X127001827Y-109772419D02*
X127049447Y-109772419D01*
X127049447Y-109772419D02*
X127144685Y-109724800D01*
X127144685Y-109724800D02*
X127287542Y-109581942D01*
X127287542Y-109581942D02*
X127525637Y-109296228D01*
X127525637Y-109296228D02*
X127620875Y-109153371D01*
X127620875Y-109153371D02*
X127668494Y-109010514D01*
X127668494Y-109010514D02*
X127668494Y-108915276D01*
X127668494Y-108915276D02*
X127620875Y-108820038D01*
X127620875Y-108820038D02*
X127525637Y-108772419D01*
X127525637Y-108772419D02*
X127478018Y-108772419D01*
X127478018Y-108772419D02*
X127382780Y-108820038D01*
X127382780Y-108820038D02*
X127335161Y-108915276D01*
X127335161Y-108915276D02*
X127335161Y-108962895D01*
X127335161Y-108962895D02*
X127382780Y-109058133D01*
X127382780Y-109058133D02*
X127430399Y-109105752D01*
X127430399Y-109105752D02*
X127716113Y-109296228D01*
X127716113Y-109296228D02*
X127763732Y-109343847D01*
X127763732Y-109343847D02*
X127811351Y-109439085D01*
X127811351Y-109439085D02*
X127811351Y-109581942D01*
X127811351Y-109581942D02*
X127763732Y-109677180D01*
X127763732Y-109677180D02*
X127716113Y-109724800D01*
X127716113Y-109724800D02*
X127620875Y-109772419D01*
X127620875Y-109772419D02*
X127478018Y-109772419D01*
X127478018Y-109772419D02*
X127382780Y-109724800D01*
X127382780Y-109724800D02*
X127335161Y-109677180D01*
X127335161Y-109677180D02*
X127192304Y-109486704D01*
X127192304Y-109486704D02*
X127144685Y-109343847D01*
X127144685Y-109343847D02*
X127144685Y-109248609D01*
X125811351Y-109772419D02*
X125811351Y-108772419D01*
X125811351Y-108772419D02*
X125478018Y-109486704D01*
X125478018Y-109486704D02*
X125144685Y-108772419D01*
X125144685Y-108772419D02*
X125144685Y-109772419D01*
X124239923Y-109772419D02*
X124239923Y-109248609D01*
X124239923Y-109248609D02*
X124287542Y-109153371D01*
X124287542Y-109153371D02*
X124382780Y-109105752D01*
X124382780Y-109105752D02*
X124573256Y-109105752D01*
X124573256Y-109105752D02*
X124668494Y-109153371D01*
X124239923Y-109724800D02*
X124335161Y-109772419D01*
X124335161Y-109772419D02*
X124573256Y-109772419D01*
X124573256Y-109772419D02*
X124668494Y-109724800D01*
X124668494Y-109724800D02*
X124716113Y-109629561D01*
X124716113Y-109629561D02*
X124716113Y-109534323D01*
X124716113Y-109534323D02*
X124668494Y-109439085D01*
X124668494Y-109439085D02*
X124573256Y-109391466D01*
X124573256Y-109391466D02*
X124335161Y-109391466D01*
X124335161Y-109391466D02*
X124239923Y-109343847D01*
X123906589Y-109105752D02*
X123525637Y-109105752D01*
X123763732Y-108772419D02*
X123763732Y-109629561D01*
X123763732Y-109629561D02*
X123716113Y-109724800D01*
X123716113Y-109724800D02*
X123620875Y-109772419D01*
X123620875Y-109772419D02*
X123525637Y-109772419D01*
X123335160Y-109105752D02*
X122954208Y-109105752D01*
X123192303Y-108772419D02*
X123192303Y-109629561D01*
X123192303Y-109629561D02*
X123144684Y-109724800D01*
X123144684Y-109724800D02*
X123049446Y-109772419D01*
X123049446Y-109772419D02*
X122954208Y-109772419D01*
X122620874Y-109772419D02*
X122620874Y-108772419D01*
X122192303Y-109772419D02*
X122192303Y-109248609D01*
X122192303Y-109248609D02*
X122239922Y-109153371D01*
X122239922Y-109153371D02*
X122335160Y-109105752D01*
X122335160Y-109105752D02*
X122478017Y-109105752D01*
X122478017Y-109105752D02*
X122573255Y-109153371D01*
X122573255Y-109153371D02*
X122620874Y-109200990D01*
X121335160Y-109724800D02*
X121430398Y-109772419D01*
X121430398Y-109772419D02*
X121620874Y-109772419D01*
X121620874Y-109772419D02*
X121716112Y-109724800D01*
X121716112Y-109724800D02*
X121763731Y-109629561D01*
X121763731Y-109629561D02*
X121763731Y-109248609D01*
X121763731Y-109248609D02*
X121716112Y-109153371D01*
X121716112Y-109153371D02*
X121620874Y-109105752D01*
X121620874Y-109105752D02*
X121430398Y-109105752D01*
X121430398Y-109105752D02*
X121335160Y-109153371D01*
X121335160Y-109153371D02*
X121287541Y-109248609D01*
X121287541Y-109248609D02*
X121287541Y-109343847D01*
X121287541Y-109343847D02*
X121763731Y-109439085D01*
X120954207Y-109105752D02*
X120763731Y-109772419D01*
X120763731Y-109772419D02*
X120573255Y-109296228D01*
X120573255Y-109296228D02*
X120382779Y-109772419D01*
X120382779Y-109772419D02*
X120192303Y-109105752D01*
X118573255Y-109772419D02*
X119049445Y-109772419D01*
X119049445Y-109772419D02*
X119049445Y-108772419D01*
X117811350Y-109772419D02*
X117811350Y-109248609D01*
X117811350Y-109248609D02*
X117858969Y-109153371D01*
X117858969Y-109153371D02*
X117954207Y-109105752D01*
X117954207Y-109105752D02*
X118144683Y-109105752D01*
X118144683Y-109105752D02*
X118239921Y-109153371D01*
X117811350Y-109724800D02*
X117906588Y-109772419D01*
X117906588Y-109772419D02*
X118144683Y-109772419D01*
X118144683Y-109772419D02*
X118239921Y-109724800D01*
X118239921Y-109724800D02*
X118287540Y-109629561D01*
X118287540Y-109629561D02*
X118287540Y-109534323D01*
X118287540Y-109534323D02*
X118239921Y-109439085D01*
X118239921Y-109439085D02*
X118144683Y-109391466D01*
X118144683Y-109391466D02*
X117906588Y-109391466D01*
X117906588Y-109391466D02*
X117811350Y-109343847D01*
X117335159Y-109772419D02*
X117335159Y-109105752D01*
X117335159Y-109296228D02*
X117287540Y-109200990D01*
X117287540Y-109200990D02*
X117239921Y-109153371D01*
X117239921Y-109153371D02*
X117144683Y-109105752D01*
X117144683Y-109105752D02*
X117049445Y-109105752D01*
X116763730Y-109724800D02*
X116668492Y-109772419D01*
X116668492Y-109772419D02*
X116478016Y-109772419D01*
X116478016Y-109772419D02*
X116382778Y-109724800D01*
X116382778Y-109724800D02*
X116335159Y-109629561D01*
X116335159Y-109629561D02*
X116335159Y-109581942D01*
X116335159Y-109581942D02*
X116382778Y-109486704D01*
X116382778Y-109486704D02*
X116478016Y-109439085D01*
X116478016Y-109439085D02*
X116620873Y-109439085D01*
X116620873Y-109439085D02*
X116716111Y-109391466D01*
X116716111Y-109391466D02*
X116763730Y-109296228D01*
X116763730Y-109296228D02*
X116763730Y-109248609D01*
X116763730Y-109248609D02*
X116716111Y-109153371D01*
X116716111Y-109153371D02*
X116620873Y-109105752D01*
X116620873Y-109105752D02*
X116478016Y-109105752D01*
X116478016Y-109105752D02*
X116382778Y-109153371D01*
X115763730Y-109772419D02*
X115858968Y-109724800D01*
X115858968Y-109724800D02*
X115906587Y-109677180D01*
X115906587Y-109677180D02*
X115954206Y-109581942D01*
X115954206Y-109581942D02*
X115954206Y-109296228D01*
X115954206Y-109296228D02*
X115906587Y-109200990D01*
X115906587Y-109200990D02*
X115858968Y-109153371D01*
X115858968Y-109153371D02*
X115763730Y-109105752D01*
X115763730Y-109105752D02*
X115620873Y-109105752D01*
X115620873Y-109105752D02*
X115525635Y-109153371D01*
X115525635Y-109153371D02*
X115478016Y-109200990D01*
X115478016Y-109200990D02*
X115430397Y-109296228D01*
X115430397Y-109296228D02*
X115430397Y-109581942D01*
X115430397Y-109581942D02*
X115478016Y-109677180D01*
X115478016Y-109677180D02*
X115525635Y-109724800D01*
X115525635Y-109724800D02*
X115620873Y-109772419D01*
X115620873Y-109772419D02*
X115763730Y-109772419D01*
X115001825Y-109105752D02*
X115001825Y-109772419D01*
X115001825Y-109200990D02*
X114954206Y-109153371D01*
X114954206Y-109153371D02*
X114858968Y-109105752D01*
X114858968Y-109105752D02*
X114716111Y-109105752D01*
X114716111Y-109105752D02*
X114620873Y-109153371D01*
X114620873Y-109153371D02*
X114573254Y-109248609D01*
X114573254Y-109248609D02*
X114573254Y-109772419D01*
X113335158Y-109772419D02*
X113335158Y-109105752D01*
X113335158Y-108772419D02*
X113382777Y-108820038D01*
X113382777Y-108820038D02*
X113335158Y-108867657D01*
X113335158Y-108867657D02*
X113287539Y-108820038D01*
X113287539Y-108820038D02*
X113335158Y-108772419D01*
X113335158Y-108772419D02*
X113335158Y-108867657D01*
X112858968Y-109105752D02*
X112858968Y-109772419D01*
X112858968Y-109200990D02*
X112811349Y-109153371D01*
X112811349Y-109153371D02*
X112716111Y-109105752D01*
X112716111Y-109105752D02*
X112573254Y-109105752D01*
X112573254Y-109105752D02*
X112478016Y-109153371D01*
X112478016Y-109153371D02*
X112430397Y-109248609D01*
X112430397Y-109248609D02*
X112430397Y-109772419D01*
X111335158Y-108772419D02*
X110763730Y-108772419D01*
X111049444Y-109772419D02*
X111049444Y-108772419D01*
X110001825Y-109105752D02*
X110001825Y-109772419D01*
X110430396Y-109105752D02*
X110430396Y-109629561D01*
X110430396Y-109629561D02*
X110382777Y-109724800D01*
X110382777Y-109724800D02*
X110287539Y-109772419D01*
X110287539Y-109772419D02*
X110144682Y-109772419D01*
X110144682Y-109772419D02*
X110049444Y-109724800D01*
X110049444Y-109724800D02*
X110001825Y-109677180D01*
X109097063Y-109724800D02*
X109192301Y-109772419D01*
X109192301Y-109772419D02*
X109382777Y-109772419D01*
X109382777Y-109772419D02*
X109478015Y-109724800D01*
X109478015Y-109724800D02*
X109525634Y-109677180D01*
X109525634Y-109677180D02*
X109573253Y-109581942D01*
X109573253Y-109581942D02*
X109573253Y-109296228D01*
X109573253Y-109296228D02*
X109525634Y-109200990D01*
X109525634Y-109200990D02*
X109478015Y-109153371D01*
X109478015Y-109153371D02*
X109382777Y-109105752D01*
X109382777Y-109105752D02*
X109192301Y-109105752D01*
X109192301Y-109105752D02*
X109097063Y-109153371D01*
X108716110Y-109724800D02*
X108620872Y-109772419D01*
X108620872Y-109772419D02*
X108430396Y-109772419D01*
X108430396Y-109772419D02*
X108335158Y-109724800D01*
X108335158Y-109724800D02*
X108287539Y-109629561D01*
X108287539Y-109629561D02*
X108287539Y-109581942D01*
X108287539Y-109581942D02*
X108335158Y-109486704D01*
X108335158Y-109486704D02*
X108430396Y-109439085D01*
X108430396Y-109439085D02*
X108573253Y-109439085D01*
X108573253Y-109439085D02*
X108668491Y-109391466D01*
X108668491Y-109391466D02*
X108716110Y-109296228D01*
X108716110Y-109296228D02*
X108716110Y-109248609D01*
X108716110Y-109248609D02*
X108668491Y-109153371D01*
X108668491Y-109153371D02*
X108573253Y-109105752D01*
X108573253Y-109105752D02*
X108430396Y-109105752D01*
X108430396Y-109105752D02*
X108335158Y-109153371D01*
X107716110Y-109772419D02*
X107811348Y-109724800D01*
X107811348Y-109724800D02*
X107858967Y-109677180D01*
X107858967Y-109677180D02*
X107906586Y-109581942D01*
X107906586Y-109581942D02*
X107906586Y-109296228D01*
X107906586Y-109296228D02*
X107858967Y-109200990D01*
X107858967Y-109200990D02*
X107811348Y-109153371D01*
X107811348Y-109153371D02*
X107716110Y-109105752D01*
X107716110Y-109105752D02*
X107573253Y-109105752D01*
X107573253Y-109105752D02*
X107478015Y-109153371D01*
X107478015Y-109153371D02*
X107430396Y-109200990D01*
X107430396Y-109200990D02*
X107382777Y-109296228D01*
X107382777Y-109296228D02*
X107382777Y-109581942D01*
X107382777Y-109581942D02*
X107430396Y-109677180D01*
X107430396Y-109677180D02*
X107478015Y-109724800D01*
X107478015Y-109724800D02*
X107573253Y-109772419D01*
X107573253Y-109772419D02*
X107716110Y-109772419D01*
X106954205Y-109105752D02*
X106954205Y-109772419D01*
X106954205Y-109200990D02*
X106906586Y-109153371D01*
X106906586Y-109153371D02*
X106811348Y-109105752D01*
X106811348Y-109105752D02*
X106668491Y-109105752D01*
X106668491Y-109105752D02*
X106573253Y-109153371D01*
X106573253Y-109153371D02*
X106525634Y-109248609D01*
X106525634Y-109248609D02*
X106525634Y-109772419D01*
X106001824Y-109724800D02*
X106001824Y-109772419D01*
X106001824Y-109772419D02*
X106049443Y-109867657D01*
X106049443Y-109867657D02*
X106097062Y-109915276D01*
X104858967Y-109486704D02*
X104382777Y-109486704D01*
X104954205Y-109772419D02*
X104620872Y-108772419D01*
X104620872Y-108772419D02*
X104287539Y-109772419D01*
X103954205Y-109772419D02*
X103954205Y-109105752D01*
X103954205Y-109296228D02*
X103906586Y-109200990D01*
X103906586Y-109200990D02*
X103858967Y-109153371D01*
X103858967Y-109153371D02*
X103763729Y-109105752D01*
X103763729Y-109105752D02*
X103668491Y-109105752D01*
X103335157Y-109772419D02*
X103335157Y-109105752D01*
X103335157Y-108772419D02*
X103382776Y-108820038D01*
X103382776Y-108820038D02*
X103335157Y-108867657D01*
X103335157Y-108867657D02*
X103287538Y-108820038D01*
X103287538Y-108820038D02*
X103335157Y-108772419D01*
X103335157Y-108772419D02*
X103335157Y-108867657D01*
X102954205Y-109105752D02*
X102430396Y-109105752D01*
X102430396Y-109105752D02*
X102954205Y-109772419D01*
X102954205Y-109772419D02*
X102430396Y-109772419D01*
X101906586Y-109772419D02*
X102001824Y-109724800D01*
X102001824Y-109724800D02*
X102049443Y-109677180D01*
X102049443Y-109677180D02*
X102097062Y-109581942D01*
X102097062Y-109581942D02*
X102097062Y-109296228D01*
X102097062Y-109296228D02*
X102049443Y-109200990D01*
X102049443Y-109200990D02*
X102001824Y-109153371D01*
X102001824Y-109153371D02*
X101906586Y-109105752D01*
X101906586Y-109105752D02*
X101763729Y-109105752D01*
X101763729Y-109105752D02*
X101668491Y-109153371D01*
X101668491Y-109153371D02*
X101620872Y-109200990D01*
X101620872Y-109200990D02*
X101573253Y-109296228D01*
X101573253Y-109296228D02*
X101573253Y-109581942D01*
X101573253Y-109581942D02*
X101620872Y-109677180D01*
X101620872Y-109677180D02*
X101668491Y-109724800D01*
X101668491Y-109724800D02*
X101763729Y-109772419D01*
X101763729Y-109772419D02*
X101906586Y-109772419D01*
X101144681Y-109105752D02*
X101144681Y-109772419D01*
X101144681Y-109200990D02*
X101097062Y-109153371D01*
X101097062Y-109153371D02*
X101001824Y-109105752D01*
X101001824Y-109105752D02*
X100858967Y-109105752D01*
X100858967Y-109105752D02*
X100763729Y-109153371D01*
X100763729Y-109153371D02*
X100716110Y-109248609D01*
X100716110Y-109248609D02*
X100716110Y-109772419D01*
X99811348Y-109772419D02*
X99811348Y-109248609D01*
X99811348Y-109248609D02*
X99858967Y-109153371D01*
X99858967Y-109153371D02*
X99954205Y-109105752D01*
X99954205Y-109105752D02*
X100144681Y-109105752D01*
X100144681Y-109105752D02*
X100239919Y-109153371D01*
X99811348Y-109724800D02*
X99906586Y-109772419D01*
X99906586Y-109772419D02*
X100144681Y-109772419D01*
X100144681Y-109772419D02*
X100239919Y-109724800D01*
X100239919Y-109724800D02*
X100287538Y-109629561D01*
X100287538Y-109629561D02*
X100287538Y-109534323D01*
X100287538Y-109534323D02*
X100239919Y-109439085D01*
X100239919Y-109439085D02*
X100144681Y-109391466D01*
X100144681Y-109391466D02*
X99906586Y-109391466D01*
X99906586Y-109391466D02*
X99811348Y-109343847D01*
D11*
%TO.C,G\u002A\u002A\u002A*%
G36*
X130585006Y-105813829D02*
G01*
X130654342Y-105935397D01*
X130659841Y-106116250D01*
X130595404Y-106325262D01*
X130504948Y-106463076D01*
X130383169Y-106539719D01*
X130272756Y-106511477D01*
X130198448Y-106375236D01*
X130192291Y-106344405D01*
X130201696Y-106160629D01*
X130267882Y-105977298D01*
X130370348Y-105836464D01*
X130488591Y-105780174D01*
X130585006Y-105813829D01*
G37*
G36*
X117338461Y-105906900D02*
G01*
X117403515Y-105919297D01*
X117454407Y-105968802D01*
X117500688Y-106077234D01*
X117551905Y-106266411D01*
X117617608Y-106558152D01*
X117660796Y-106760781D01*
X117711584Y-107011267D01*
X117746296Y-107197978D01*
X117759152Y-107290987D01*
X117732200Y-107337686D01*
X117621280Y-107352286D01*
X117572372Y-107338258D01*
X117515502Y-107286742D01*
X117464136Y-107177888D01*
X117408618Y-106989312D01*
X117339290Y-106698628D01*
X117322220Y-106623575D01*
X117254764Y-106321582D01*
X117215206Y-106119164D01*
X117203377Y-105996401D01*
X117219107Y-105933375D01*
X117262228Y-105910167D01*
X117332571Y-105906858D01*
X117338461Y-105906900D01*
G37*
G36*
X127165217Y-105906916D02*
G01*
X127236215Y-105917465D01*
X127289457Y-105961936D01*
X127335689Y-106062884D01*
X127385654Y-106242866D01*
X127450098Y-106524439D01*
X127487295Y-106691373D01*
X127545314Y-106947498D01*
X127591381Y-107145621D01*
X127617920Y-107252868D01*
X127621988Y-107269312D01*
X127603359Y-107343443D01*
X127486363Y-107363716D01*
X127378212Y-107355475D01*
X127323740Y-107331374D01*
X127322678Y-107321364D01*
X127302979Y-107217117D01*
X127263934Y-107031116D01*
X127212791Y-106796015D01*
X127156797Y-106544470D01*
X127103200Y-106309133D01*
X127059246Y-106122660D01*
X127032183Y-106017706D01*
X127028262Y-106003555D01*
X127042678Y-105927591D01*
X127155918Y-105906858D01*
X127165217Y-105906916D01*
G37*
G36*
X126649683Y-105906900D02*
G01*
X126714737Y-105919297D01*
X126765629Y-105968802D01*
X126811910Y-106077234D01*
X126863127Y-106266411D01*
X126928830Y-106558152D01*
X126972144Y-106761170D01*
X127022871Y-107010476D01*
X127057537Y-107195507D01*
X127070374Y-107286581D01*
X127053998Y-107315773D01*
X126932693Y-107351845D01*
X126690324Y-107363716D01*
X126677003Y-107363712D01*
X126471938Y-107359904D01*
X126362293Y-107340506D01*
X126318321Y-107293123D01*
X126310274Y-107205361D01*
X126319026Y-107117304D01*
X126377459Y-107059929D01*
X126523845Y-107047007D01*
X126737416Y-107047007D01*
X126621021Y-106556110D01*
X126587283Y-106412970D01*
X126534263Y-106172575D01*
X126512639Y-106023590D01*
X126523175Y-105944190D01*
X126566638Y-105912554D01*
X126643793Y-105906858D01*
X126649683Y-105906900D01*
G37*
G36*
X124290494Y-105935709D02*
G01*
X124498424Y-106062165D01*
X124672454Y-106266995D01*
X124789670Y-106538771D01*
X124833700Y-106808739D01*
X124791893Y-107043057D01*
X124650681Y-107235279D01*
X124615444Y-107264512D01*
X124406056Y-107350905D01*
X124170674Y-107344385D01*
X123959869Y-107244292D01*
X123897448Y-107189776D01*
X123851739Y-107109187D01*
X123895319Y-107024942D01*
X123935651Y-106981512D01*
X124008546Y-106959435D01*
X124121871Y-107019119D01*
X124277399Y-107084384D01*
X124410875Y-107057390D01*
X124490221Y-106940533D01*
X124504763Y-106750847D01*
X124443826Y-106505366D01*
X124392960Y-106391798D01*
X124265245Y-106226957D01*
X124121859Y-106177697D01*
X123972942Y-106249528D01*
X123877557Y-106319121D01*
X123745120Y-106352403D01*
X123669346Y-106299614D01*
X123672440Y-106185184D01*
X123776608Y-106033541D01*
X123864593Y-105963633D01*
X124071579Y-105899056D01*
X124290494Y-105935709D01*
G37*
G36*
X122216360Y-105910508D02*
G01*
X122359181Y-105927535D01*
X122432183Y-105965898D01*
X122464787Y-106033541D01*
X122470225Y-106056875D01*
X122455684Y-106139117D01*
X122345491Y-106160224D01*
X122247334Y-106171517D01*
X122194003Y-106207730D01*
X122198390Y-106241995D01*
X122219512Y-106349800D01*
X122260824Y-106539808D01*
X122325325Y-106825710D01*
X122416015Y-107221197D01*
X122423433Y-107258646D01*
X122406400Y-107343279D01*
X122295645Y-107363716D01*
X122259214Y-107362278D01*
X122191069Y-107338555D01*
X122140139Y-107265891D01*
X122093115Y-107119055D01*
X122036686Y-106872818D01*
X121975218Y-106590095D01*
X121924822Y-106379164D01*
X121883024Y-106251777D01*
X121840275Y-106186870D01*
X121787028Y-106163375D01*
X121713736Y-106160224D01*
X121597902Y-106133843D01*
X121559650Y-106033541D01*
X121559704Y-106026793D01*
X121574305Y-105962426D01*
X121633635Y-105926268D01*
X121764988Y-105910389D01*
X121995654Y-105906858D01*
X122216360Y-105910508D01*
G37*
G36*
X118341720Y-105934126D02*
G01*
X118559280Y-106057537D01*
X118733319Y-106254615D01*
X118851316Y-106496792D01*
X118900747Y-106755500D01*
X118869092Y-107002172D01*
X118743826Y-107208241D01*
X118613613Y-107306038D01*
X118380565Y-107359628D01*
X118113996Y-107291794D01*
X118096133Y-107283372D01*
X117955668Y-107180865D01*
X117926711Y-107074702D01*
X118014877Y-106982403D01*
X118094272Y-106951538D01*
X118139202Y-106977169D01*
X118153263Y-107016721D01*
X118246059Y-107071813D01*
X118377535Y-107084712D01*
X118490620Y-107044485D01*
X118539982Y-106980775D01*
X118578460Y-106803717D01*
X118549975Y-106585006D01*
X118456604Y-106366085D01*
X118381480Y-106268257D01*
X118245720Y-106174556D01*
X118119781Y-106167430D01*
X118035424Y-106255237D01*
X117950960Y-106332874D01*
X117823972Y-106344352D01*
X117724583Y-106282218D01*
X117713554Y-106249500D01*
X117751452Y-106141676D01*
X117863083Y-106029925D01*
X118014904Y-105942300D01*
X118173372Y-105906858D01*
X118341720Y-105934126D01*
G37*
G36*
X126107482Y-107145842D02*
G01*
X126120608Y-107252868D01*
X126105805Y-107311540D01*
X126026249Y-107352678D01*
X125851047Y-107363617D01*
X125692873Y-107352999D01*
X125375059Y-107254103D01*
X125130193Y-107062710D01*
X124972663Y-106792767D01*
X124922067Y-106489455D01*
X125234250Y-106489455D01*
X125265523Y-106690956D01*
X125364747Y-106880111D01*
X125437391Y-106950198D01*
X125565574Y-107021932D01*
X125690151Y-107053361D01*
X125775521Y-107037209D01*
X125786087Y-106966204D01*
X125766356Y-106899647D01*
X125725953Y-106733908D01*
X125679807Y-106522813D01*
X125678364Y-106515878D01*
X125624779Y-106299848D01*
X125566135Y-106191367D01*
X125483012Y-106172621D01*
X125355985Y-106225794D01*
X125271485Y-106317257D01*
X125234250Y-106489455D01*
X124922067Y-106489455D01*
X124916856Y-106458218D01*
X124934477Y-106295199D01*
X125042571Y-106082283D01*
X125244944Y-105951421D01*
X125536825Y-105906858D01*
X125845942Y-105906858D01*
X125983454Y-106524439D01*
X126019978Y-106692524D01*
X126071884Y-106948149D01*
X126075135Y-106966204D01*
X126107482Y-107145842D01*
G37*
G36*
X115368943Y-105935463D02*
G01*
X115582462Y-106062034D01*
X115750084Y-106263412D01*
X115860259Y-106510680D01*
X115901438Y-106774919D01*
X115862071Y-107027212D01*
X115730608Y-107238643D01*
X115686955Y-107275121D01*
X115488711Y-107351880D01*
X115258969Y-107349870D01*
X115052017Y-107266836D01*
X114995944Y-107212192D01*
X114892790Y-107039370D01*
X114814158Y-106822543D01*
X114782448Y-106615809D01*
X114784500Y-106601615D01*
X114853660Y-106552378D01*
X114988383Y-106541225D01*
X115144118Y-106562808D01*
X115276317Y-106611780D01*
X115340432Y-106682793D01*
X115331103Y-106759520D01*
X115230130Y-106793641D01*
X115131425Y-106812850D01*
X115108659Y-106887080D01*
X115198339Y-107010812D01*
X115324359Y-107100323D01*
X115451005Y-107106737D01*
X115543047Y-107024111D01*
X115589771Y-106872378D01*
X115580463Y-106671473D01*
X115504411Y-106441327D01*
X115477662Y-106389636D01*
X115342861Y-106229111D01*
X115191497Y-106180662D01*
X115040082Y-106251055D01*
X115008467Y-106274864D01*
X114882289Y-106314441D01*
X114768330Y-106293228D01*
X114718753Y-106216789D01*
X114736990Y-106150087D01*
X114844590Y-106033063D01*
X115012505Y-105942935D01*
X115198688Y-105906858D01*
X115368943Y-105935463D01*
G37*
G36*
X132232126Y-106865019D02*
G01*
X132558593Y-106897166D01*
X132841633Y-106926328D01*
X133131272Y-106954754D01*
X133361700Y-106975849D01*
X133499551Y-106986449D01*
X133689576Y-106996598D01*
X133499551Y-107051781D01*
X133400743Y-107077779D01*
X133183523Y-107127714D01*
X132945311Y-107176489D01*
X132748900Y-107217868D01*
X132635829Y-107261557D01*
X132589818Y-107325834D01*
X132581097Y-107431548D01*
X132559884Y-107561051D01*
X132501920Y-107615433D01*
X132440872Y-107611897D01*
X132244816Y-107588994D01*
X131980573Y-107549035D01*
X131672300Y-107496670D01*
X131344156Y-107436546D01*
X131020297Y-107373312D01*
X130724881Y-107311618D01*
X130482066Y-107256111D01*
X130316009Y-107211441D01*
X130250868Y-107182256D01*
X130269475Y-107133125D01*
X130388493Y-107145843D01*
X130560888Y-107154340D01*
X130753611Y-107116556D01*
X130812145Y-107097756D01*
X130964629Y-107081889D01*
X131102959Y-107143004D01*
X131130047Y-107160302D01*
X131229127Y-107203137D01*
X131334003Y-107189091D01*
X131496328Y-107114410D01*
X131556969Y-107081410D01*
X131701472Y-106983546D01*
X131774846Y-106903547D01*
X131801566Y-106872053D01*
X131874053Y-106852296D01*
X132010760Y-106850007D01*
X132232126Y-106865019D01*
G37*
G36*
X119145964Y-102027182D02*
G01*
X119160342Y-102076365D01*
X119231928Y-102323224D01*
X119324870Y-102645829D01*
X119428736Y-103007909D01*
X119533094Y-103373192D01*
X119615589Y-103653245D01*
X119741796Y-104035965D01*
X119849375Y-104297107D01*
X119939172Y-104438895D01*
X120012966Y-104501420D01*
X120254262Y-104604053D01*
X120532612Y-104614257D01*
X120807999Y-104527931D01*
X121038143Y-104407847D01*
X121212067Y-104625820D01*
X121224134Y-104641029D01*
X121353183Y-104830738D01*
X121381119Y-104964133D01*
X121303593Y-105065394D01*
X121116259Y-105158702D01*
X121110227Y-105161085D01*
X120821060Y-105233978D01*
X120469770Y-105263864D01*
X120102146Y-105252140D01*
X119763975Y-105200201D01*
X119501047Y-105109446D01*
X119367333Y-105030894D01*
X119232958Y-104922365D01*
X119113585Y-104780724D01*
X119001783Y-104590961D01*
X118890120Y-104338063D01*
X118771162Y-104007019D01*
X118637479Y-103582819D01*
X118481638Y-103050451D01*
X118411724Y-102806089D01*
X118303769Y-102427683D01*
X118211347Y-102102368D01*
X118139315Y-101847311D01*
X118092534Y-101679681D01*
X118075860Y-101616644D01*
X118077730Y-101615129D01*
X118154663Y-101607262D01*
X118321850Y-101601721D01*
X118548240Y-101599626D01*
X119020620Y-101599626D01*
X119145964Y-102027182D01*
G37*
G36*
X119957842Y-106885732D02*
G01*
X120066238Y-107108936D01*
X120139330Y-107264998D01*
X120166134Y-107330990D01*
X120133593Y-107367976D01*
X120035844Y-107361837D01*
X119920005Y-107313591D01*
X119834726Y-107237032D01*
X119743182Y-107151378D01*
X119543222Y-107110349D01*
X119501458Y-107111192D01*
X119359858Y-107143914D01*
X119297704Y-107237032D01*
X119256740Y-107310216D01*
X119145280Y-107363716D01*
X119087898Y-107353283D01*
X119050080Y-107309457D01*
X119030668Y-107213698D01*
X119028118Y-107047467D01*
X119040885Y-106792223D01*
X119054471Y-106606490D01*
X119345173Y-106606490D01*
X119355048Y-106766822D01*
X119392085Y-106839735D01*
X119469376Y-106856982D01*
X119520518Y-106852436D01*
X119583531Y-106801063D01*
X119566484Y-106680771D01*
X119469376Y-106476932D01*
X119348003Y-106255237D01*
X119345348Y-106556110D01*
X119345173Y-106606490D01*
X119054471Y-106606490D01*
X119067423Y-106429426D01*
X119088420Y-106177438D01*
X119110560Y-106021035D01*
X119144098Y-105940704D01*
X119199745Y-105911094D01*
X119288210Y-105906858D01*
X119333656Y-105908936D01*
X119406521Y-105931094D01*
X119477103Y-105992850D01*
X119559609Y-106112891D01*
X119668247Y-106309899D01*
X119817226Y-106602561D01*
X119825124Y-106618316D01*
X119915821Y-106801063D01*
X119957842Y-106885732D01*
G37*
G36*
X116876079Y-105927923D02*
G01*
X116960861Y-106017706D01*
X116965785Y-106034953D01*
X116998406Y-106165687D01*
X117045865Y-106369319D01*
X117100925Y-106613129D01*
X117156347Y-106864399D01*
X117204895Y-107090410D01*
X117239331Y-107258443D01*
X117252419Y-107335780D01*
X117220563Y-107354345D01*
X117109900Y-107352286D01*
X117057041Y-107338447D01*
X116987899Y-107278492D01*
X116930529Y-107148643D01*
X116869498Y-106921231D01*
X116864737Y-106901303D01*
X116810895Y-106695031D01*
X116767163Y-106599017D01*
X116723094Y-106616361D01*
X116668239Y-106750162D01*
X116592150Y-107003521D01*
X116550292Y-107142006D01*
X116491891Y-107285418D01*
X116430601Y-107346721D01*
X116348226Y-107351901D01*
X116308125Y-107341914D01*
X116247948Y-107295621D01*
X116194783Y-107193494D01*
X116138334Y-107012673D01*
X116068308Y-106730299D01*
X115998153Y-106426121D01*
X115948838Y-106184318D01*
X115930603Y-106030839D01*
X115943278Y-105947477D01*
X115986690Y-105916029D01*
X116060669Y-105918288D01*
X116108726Y-105931026D01*
X116177310Y-105990953D01*
X116233831Y-106121561D01*
X116293029Y-106350249D01*
X116386964Y-106761970D01*
X116512088Y-106334414D01*
X116575061Y-106132729D01*
X116636427Y-105990112D01*
X116700059Y-105923388D01*
X116782193Y-105906858D01*
X116876079Y-105927923D01*
G37*
G36*
X121051977Y-106524439D02*
G01*
X121089975Y-106695607D01*
X121145613Y-106941645D01*
X121188356Y-107124952D01*
X121211167Y-107215004D01*
X121216362Y-107238899D01*
X121196350Y-107325852D01*
X121160707Y-107345195D01*
X121043109Y-107363716D01*
X121002826Y-107357642D01*
X120932289Y-107284899D01*
X120887216Y-107110349D01*
X120841560Y-106947896D01*
X120770099Y-106863998D01*
X120695591Y-106889744D01*
X120637113Y-107031172D01*
X120603891Y-107174027D01*
X120559905Y-107299956D01*
X120503243Y-107352912D01*
X120413149Y-107363716D01*
X120388428Y-107363277D01*
X120317113Y-107342472D01*
X120295896Y-107265560D01*
X120311724Y-107098399D01*
X120323593Y-106955876D01*
X120294418Y-106800187D01*
X120193381Y-106650148D01*
X120064451Y-106432728D01*
X120057321Y-106351117D01*
X120387830Y-106351117D01*
X120388941Y-106385394D01*
X120431455Y-106488213D01*
X120562020Y-106528646D01*
X120593816Y-106531717D01*
X120705432Y-106516056D01*
X120735239Y-106433634D01*
X120720792Y-106325276D01*
X120640207Y-106198595D01*
X120506923Y-106170695D01*
X120430201Y-106211824D01*
X120387830Y-106351117D01*
X120057321Y-106351117D01*
X120046575Y-106228130D01*
X120136855Y-106060966D01*
X120325901Y-105948215D01*
X120604326Y-105906858D01*
X120915835Y-105906858D01*
X121031960Y-106433634D01*
X121051977Y-106524439D01*
G37*
G36*
X123625477Y-106875558D02*
G01*
X123737071Y-107098830D01*
X123812341Y-107256122D01*
X123839950Y-107324370D01*
X123802953Y-107349876D01*
X123685864Y-107363716D01*
X123584586Y-107343488D01*
X123491571Y-107237032D01*
X123468079Y-107186097D01*
X123378701Y-107126609D01*
X123202265Y-107110349D01*
X123056638Y-107117712D01*
X122973384Y-107155406D01*
X122953167Y-107241438D01*
X122953164Y-107242935D01*
X122922226Y-107340286D01*
X122810648Y-107352286D01*
X122803770Y-107351256D01*
X122700065Y-107300691D01*
X122680760Y-107173691D01*
X122683311Y-107141114D01*
X122696032Y-106973392D01*
X122713920Y-106733217D01*
X122714750Y-106721944D01*
X122986957Y-106721944D01*
X122995398Y-106809476D01*
X123017625Y-106827878D01*
X123113525Y-106853165D01*
X123219728Y-106854116D01*
X123269875Y-106826593D01*
X123264871Y-106805100D01*
X123225861Y-106693066D01*
X123160828Y-106525721D01*
X123051781Y-106255237D01*
X123009296Y-106508603D01*
X123001090Y-106562313D01*
X122986957Y-106721944D01*
X122714750Y-106721944D01*
X122733952Y-106461097D01*
X122736701Y-106423576D01*
X122756986Y-106171880D01*
X122778813Y-106018989D01*
X122811748Y-105940275D01*
X122865357Y-105911107D01*
X122949203Y-105906858D01*
X122984453Y-105908294D01*
X123058361Y-105929327D01*
X123130753Y-105990101D01*
X123215938Y-106109122D01*
X123328225Y-106304899D01*
X123481921Y-106595941D01*
X123488894Y-106609368D01*
X123600353Y-106826593D01*
X123625477Y-106875558D01*
G37*
G36*
X118061531Y-104082226D02*
G01*
X118295809Y-104437385D01*
X118492200Y-104737001D01*
X118642559Y-104968640D01*
X118738746Y-105119866D01*
X118772618Y-105178244D01*
X118768928Y-105182135D01*
X118684380Y-105196364D01*
X118510939Y-105206339D01*
X118278976Y-105210100D01*
X117785334Y-105210100D01*
X117598053Y-104894648D01*
X117410773Y-104579197D01*
X116673285Y-104577940D01*
X116598030Y-104577828D01*
X116287195Y-104580370D01*
X116078615Y-104595731D01*
X115951894Y-104634323D01*
X115886633Y-104706555D01*
X115862436Y-104822839D01*
X115858902Y-104993584D01*
X115858902Y-105210100D01*
X115375230Y-105210100D01*
X114891558Y-105210100D01*
X114927106Y-104940898D01*
X114935741Y-104868353D01*
X114957777Y-104662219D01*
X114987991Y-104364537D01*
X115024263Y-103996652D01*
X115029414Y-103943267D01*
X115922244Y-103943267D01*
X116465926Y-103943267D01*
X116572659Y-103942292D01*
X116792167Y-103932967D01*
X116939932Y-103915880D01*
X116988495Y-103893637D01*
X116981177Y-103879652D01*
X116920677Y-103776089D01*
X116810695Y-103593086D01*
X116663739Y-103351367D01*
X116492319Y-103071655D01*
X116017256Y-102299302D01*
X115977618Y-102725399D01*
X115961157Y-102928312D01*
X115941135Y-103256595D01*
X115930112Y-103547381D01*
X115922244Y-103943267D01*
X115029414Y-103943267D01*
X115064470Y-103579912D01*
X115106492Y-103135661D01*
X115250330Y-101599626D01*
X115829423Y-101599626D01*
X116408517Y-101599626D01*
X117590568Y-103373007D01*
X117797506Y-103683960D01*
X117936509Y-103893637D01*
X118061531Y-104082226D01*
G37*
G36*
X130839423Y-105419694D02*
G01*
X131035572Y-105518919D01*
X131186858Y-105701405D01*
X131267277Y-105956297D01*
X131272612Y-106102928D01*
X131221936Y-106402264D01*
X131106711Y-106683518D01*
X130945045Y-106893995D01*
X130894554Y-106934809D01*
X130662785Y-107042591D01*
X130435105Y-107039105D01*
X130234816Y-106934979D01*
X130085221Y-106740842D01*
X130009622Y-106467323D01*
X129982197Y-106191895D01*
X130080073Y-106492768D01*
X130112617Y-106582102D01*
X130194480Y-106736062D01*
X130271044Y-106793641D01*
X130313183Y-106801865D01*
X130364139Y-106869089D01*
X130388616Y-106887605D01*
X130457137Y-106821583D01*
X130521444Y-106755729D01*
X130558464Y-106761970D01*
X130576944Y-106761557D01*
X130612372Y-106666957D01*
X130664384Y-106565999D01*
X130764412Y-106517401D01*
X130814820Y-106516970D01*
X130868056Y-106472723D01*
X130809605Y-106377660D01*
X130771980Y-106300616D01*
X130781793Y-106180203D01*
X130839705Y-106083497D01*
X130926703Y-106061785D01*
X130943895Y-106067452D01*
X130979353Y-106066623D01*
X130910434Y-106005069D01*
X130842208Y-105928800D01*
X130820360Y-105830724D01*
X130826414Y-105778987D01*
X130767346Y-105670507D01*
X130641050Y-105597257D01*
X130488512Y-105589083D01*
X130337511Y-105684224D01*
X130189950Y-105905688D01*
X130135096Y-106007717D01*
X130072003Y-106102915D01*
X130047431Y-106106140D01*
X130071344Y-105993801D01*
X130177967Y-105792816D01*
X130352059Y-105574314D01*
X130416559Y-105514439D01*
X130624417Y-105414583D01*
X130839423Y-105419694D01*
G37*
G36*
X129033965Y-106635287D02*
G01*
X129033469Y-106907532D01*
X129029065Y-107129271D01*
X129016283Y-107264192D01*
X128990654Y-107333861D01*
X128947705Y-107359846D01*
X128882967Y-107363716D01*
X128839486Y-107360452D01*
X128755166Y-107318338D01*
X128678417Y-107206742D01*
X128588053Y-106999501D01*
X128585730Y-106993624D01*
X128482923Y-106746338D01*
X128414024Y-106617768D01*
X128373683Y-106606251D01*
X128356548Y-106710122D01*
X128357268Y-106927717D01*
X128358555Y-106974080D01*
X128359849Y-107173882D01*
X128343642Y-107280947D01*
X128300119Y-107324069D01*
X128219466Y-107332045D01*
X128216292Y-107332025D01*
X128145653Y-107316341D01*
X128077306Y-107258649D01*
X127998674Y-107140145D01*
X127897178Y-106942022D01*
X127760239Y-106645476D01*
X127640746Y-106378320D01*
X127541838Y-106152644D01*
X127474984Y-105994866D01*
X127450424Y-105928675D01*
X127494170Y-105913558D01*
X127616373Y-105918486D01*
X127700958Y-105941538D01*
X127780342Y-106010187D01*
X127860857Y-106148504D01*
X127961437Y-106381920D01*
X128140553Y-106825312D01*
X128143867Y-106366085D01*
X128143981Y-106351333D01*
X128149840Y-106117645D01*
X128167217Y-105983105D01*
X128202945Y-105921561D01*
X128263858Y-105906858D01*
X128278443Y-105908024D01*
X128358828Y-105960218D01*
X128447188Y-106102049D01*
X128554493Y-106350249D01*
X128570483Y-106390661D01*
X128656038Y-106595188D01*
X128724033Y-106739190D01*
X128760953Y-106793641D01*
X128762370Y-106793195D01*
X128771355Y-106726389D01*
X128766587Y-106568165D01*
X128748927Y-106350249D01*
X128704399Y-105906858D01*
X128869182Y-105906858D01*
X129033965Y-105906858D01*
X129033965Y-106635287D01*
G37*
G36*
X124839087Y-104082226D02*
G01*
X125073365Y-104437385D01*
X125269756Y-104737001D01*
X125420116Y-104968640D01*
X125516302Y-105119866D01*
X125550174Y-105178244D01*
X125546119Y-105182307D01*
X125460301Y-105196455D01*
X125285810Y-105206365D01*
X125052909Y-105210100D01*
X124555644Y-105210100D01*
X124358767Y-104893391D01*
X124161891Y-104576683D01*
X123399175Y-104576683D01*
X122636458Y-104576683D01*
X122636458Y-104893391D01*
X122636458Y-105210100D01*
X122161396Y-105210100D01*
X122146602Y-105210093D01*
X121907144Y-105205921D01*
X121767622Y-105190009D01*
X121702658Y-105156428D01*
X121686873Y-105099252D01*
X121690224Y-105044704D01*
X121704752Y-104873623D01*
X121729162Y-104608610D01*
X121761690Y-104268321D01*
X121793533Y-103943267D01*
X122699800Y-103943267D01*
X123241942Y-103943267D01*
X123348164Y-103942335D01*
X123565871Y-103933411D01*
X123711012Y-103917053D01*
X123756540Y-103895760D01*
X123749520Y-103884004D01*
X123688846Y-103784345D01*
X123578826Y-103604563D01*
X123432248Y-103365539D01*
X123261904Y-103088154D01*
X122794813Y-102328055D01*
X122752855Y-102644763D01*
X122731044Y-102870448D01*
X122713922Y-103161078D01*
X122705349Y-103452369D01*
X122699800Y-103943267D01*
X121793533Y-103943267D01*
X121800572Y-103871410D01*
X121844046Y-103436533D01*
X121875265Y-103124603D01*
X121915812Y-102710927D01*
X121950528Y-102346701D01*
X121977630Y-102051067D01*
X121995335Y-101843167D01*
X122001861Y-101742144D01*
X122001960Y-101733857D01*
X122010726Y-101670187D01*
X122050435Y-101630684D01*
X122145020Y-101609593D01*
X122318417Y-101601158D01*
X122594558Y-101599626D01*
X123186073Y-101599626D01*
X124368124Y-103373007D01*
X124575062Y-103683960D01*
X124715472Y-103895760D01*
X124839087Y-104082226D01*
G37*
G36*
X128477739Y-103193401D02*
G01*
X128593499Y-103598802D01*
X128705996Y-103994572D01*
X128809927Y-104362028D01*
X128856904Y-104529177D01*
X128899991Y-104682486D01*
X128970886Y-104937264D01*
X129017311Y-105107677D01*
X129033965Y-105175042D01*
X128997547Y-105188497D01*
X128855194Y-105201304D01*
X128626156Y-105209311D01*
X128332884Y-105212831D01*
X127997828Y-105212175D01*
X127643438Y-105207655D01*
X127292164Y-105199583D01*
X126966456Y-105188271D01*
X126688765Y-105174030D01*
X126481540Y-105157173D01*
X126367232Y-105138010D01*
X126049524Y-104984088D01*
X125790405Y-104763400D01*
X125609864Y-104499880D01*
X125523156Y-104215884D01*
X125539559Y-104009112D01*
X126500299Y-104009112D01*
X126516657Y-104200558D01*
X126594969Y-104364844D01*
X126758196Y-104484013D01*
X126845333Y-104513650D01*
X127026178Y-104545834D01*
X127249281Y-104567961D01*
X127481077Y-104578694D01*
X127687999Y-104576699D01*
X127836480Y-104560638D01*
X127892955Y-104529177D01*
X127879581Y-104463745D01*
X127838154Y-104307729D01*
X127778581Y-104101621D01*
X127665068Y-103721571D01*
X127262117Y-103702438D01*
X126953913Y-103703782D01*
X126698104Y-103752173D01*
X126548800Y-103853185D01*
X126500299Y-104009112D01*
X125539559Y-104009112D01*
X125545536Y-103933769D01*
X125546109Y-103931869D01*
X125651989Y-103719075D01*
X125806201Y-103551235D01*
X125993813Y-103412527D01*
X125788281Y-103326107D01*
X125774349Y-103320162D01*
X125469923Y-103136341D01*
X125255136Y-102898083D01*
X125138628Y-102625236D01*
X125136166Y-102551398D01*
X126119323Y-102551398D01*
X126159596Y-102768608D01*
X126238920Y-102867257D01*
X126378146Y-102963814D01*
X126435424Y-102985510D01*
X126601715Y-103019900D01*
X126815188Y-103044492D01*
X127041319Y-103057700D01*
X127245584Y-103057934D01*
X127393460Y-103043608D01*
X127450424Y-103013133D01*
X127439501Y-102954866D01*
X127402015Y-102803934D01*
X127347064Y-102601412D01*
X127243705Y-102233042D01*
X126822754Y-102233042D01*
X126662472Y-102237874D01*
X126369113Y-102287363D01*
X126188613Y-102391427D01*
X126119323Y-102551398D01*
X125136166Y-102551398D01*
X125129040Y-102337649D01*
X125235011Y-102055170D01*
X125302504Y-101955953D01*
X125427124Y-101828363D01*
X125588241Y-101734462D01*
X125803814Y-101669514D01*
X126091799Y-101628782D01*
X126470157Y-101607528D01*
X126956844Y-101601017D01*
X128015134Y-101599626D01*
X128140717Y-102027182D01*
X128163894Y-102106247D01*
X128257635Y-102428440D01*
X128364017Y-102797052D01*
X128426016Y-103013133D01*
X128477739Y-103193401D01*
G37*
G36*
X131685800Y-101562006D02*
G01*
X131723928Y-101782219D01*
X131753015Y-102089275D01*
X131771815Y-102423067D01*
X131775948Y-102496454D01*
X131795613Y-103017035D01*
X131806710Y-103336345D01*
X131812507Y-103468204D01*
X131824590Y-103743070D01*
X131844782Y-104038932D01*
X131869421Y-104233614D01*
X131900641Y-104336800D01*
X131940579Y-104358173D01*
X131991367Y-104307416D01*
X132055142Y-104194213D01*
X132082207Y-104107606D01*
X132102904Y-103914987D01*
X132106523Y-103622349D01*
X132093570Y-103216873D01*
X132091824Y-103177851D01*
X132079310Y-102840609D01*
X132077725Y-102606451D01*
X132081219Y-102556807D01*
X132137933Y-102556807D01*
X132173964Y-102573314D01*
X132251488Y-102483528D01*
X132289655Y-102401953D01*
X132262937Y-102359725D01*
X132226614Y-102371847D01*
X132159563Y-102457470D01*
X132137933Y-102556807D01*
X132081219Y-102556807D01*
X132088442Y-102454187D01*
X132112833Y-102362627D01*
X132152270Y-102310581D01*
X132246165Y-102265331D01*
X132385981Y-102290581D01*
X132477594Y-102401953D01*
X132485965Y-102412129D01*
X132492429Y-102437761D01*
X132510494Y-102579896D01*
X132529672Y-102812873D01*
X132548044Y-103111105D01*
X132563692Y-103449007D01*
X132573784Y-103752206D01*
X132575262Y-104092989D01*
X132556128Y-104339843D01*
X132510497Y-104511804D01*
X132432486Y-104627910D01*
X132316210Y-104707198D01*
X132155784Y-104768707D01*
X132110930Y-104783508D01*
X131955567Y-104842439D01*
X131869509Y-104887370D01*
X131859066Y-104914402D01*
X131835408Y-105049106D01*
X131807871Y-105274942D01*
X131779080Y-105569161D01*
X131751659Y-105909020D01*
X131751129Y-105916281D01*
X131722208Y-106291882D01*
X131696313Y-106561920D01*
X131669533Y-106746977D01*
X131637960Y-106867636D01*
X131597683Y-106944480D01*
X131544793Y-106998093D01*
X131449006Y-107064930D01*
X131291474Y-107103309D01*
X131108659Y-107038669D01*
X131057435Y-107009526D01*
X131013791Y-106956366D01*
X131073813Y-106894534D01*
X131118332Y-106847697D01*
X131209208Y-106683538D01*
X131292737Y-106459891D01*
X131353882Y-106220569D01*
X131377606Y-106009388D01*
X131363165Y-105867146D01*
X131298686Y-105652933D01*
X131201109Y-105474281D01*
X131091012Y-105376621D01*
X131030704Y-105315583D01*
X130997556Y-105181267D01*
X130992965Y-105125089D01*
X130931201Y-105016795D01*
X130773580Y-104928192D01*
X130767700Y-104925704D01*
X130611500Y-104828122D01*
X130491879Y-104675051D01*
X130401692Y-104448753D01*
X130333796Y-104131496D01*
X130281045Y-103705543D01*
X130258434Y-103410037D01*
X130257320Y-103119245D01*
X130377776Y-103119245D01*
X130380301Y-103419511D01*
X130401430Y-103974937D01*
X130415321Y-103468204D01*
X130416674Y-103423147D01*
X130428818Y-103162852D01*
X130445796Y-102941564D01*
X130464375Y-102803117D01*
X130477773Y-102738185D01*
X130475967Y-102692854D01*
X130429356Y-102754424D01*
X130426454Y-102759332D01*
X130393806Y-102890430D01*
X130377776Y-103119245D01*
X130257320Y-103119245D01*
X130256964Y-103026275D01*
X130297939Y-102755420D01*
X130380907Y-102599781D01*
X130505413Y-102561667D01*
X130554625Y-102574303D01*
X130625511Y-102628146D01*
X130678419Y-102737280D01*
X130678616Y-102738185D01*
X130718134Y-102919552D01*
X130749443Y-103192807D01*
X130777132Y-103574894D01*
X130785439Y-103694465D01*
X130818199Y-104012149D01*
X130859578Y-104242825D01*
X130906341Y-104366665D01*
X130908803Y-104369836D01*
X130936397Y-104389008D01*
X130957476Y-104359639D01*
X130972909Y-104268707D01*
X130983563Y-104103190D01*
X130990308Y-103850064D01*
X130992820Y-103610098D01*
X131258784Y-103610098D01*
X131267434Y-103898395D01*
X131270778Y-103947863D01*
X131278274Y-103985133D01*
X131284282Y-103910572D01*
X131288257Y-103734741D01*
X131289653Y-103468204D01*
X131289351Y-103345272D01*
X131286702Y-103121011D01*
X131281770Y-102994853D01*
X131275099Y-102976326D01*
X131267233Y-103074953D01*
X131260175Y-103282668D01*
X131258784Y-103610098D01*
X130992820Y-103610098D01*
X130994011Y-103496306D01*
X130995541Y-103028895D01*
X130996281Y-102715986D01*
X131064232Y-102715986D01*
X131067749Y-102961355D01*
X131077179Y-103119825D01*
X131087959Y-103152863D01*
X131098822Y-103078895D01*
X131107955Y-102908892D01*
X131114102Y-102658564D01*
X131117445Y-102514305D01*
X131127307Y-102373266D01*
X131324092Y-102373266D01*
X131333943Y-102533915D01*
X131339864Y-102551887D01*
X131356306Y-102538306D01*
X131362910Y-102423067D01*
X131362298Y-102380091D01*
X131352302Y-102292506D01*
X131333943Y-102312219D01*
X131324092Y-102373266D01*
X131127307Y-102373266D01*
X131145953Y-102106610D01*
X131203583Y-101806889D01*
X131293577Y-101602634D01*
X131419177Y-101481337D01*
X131437923Y-101470245D01*
X131492933Y-101424532D01*
X131437218Y-101411527D01*
X131352507Y-101428697D01*
X131215523Y-101499404D01*
X131176965Y-101533626D01*
X131132176Y-101610427D01*
X131102958Y-101737356D01*
X131084372Y-101939930D01*
X131071480Y-102243669D01*
X131066885Y-102423379D01*
X131064232Y-102715986D01*
X130996281Y-102715986D01*
X130996635Y-102566395D01*
X130999464Y-102209091D01*
X131005494Y-101944874D01*
X131016201Y-101756871D01*
X131033059Y-101628208D01*
X131057542Y-101542011D01*
X131091124Y-101481406D01*
X131135280Y-101429519D01*
X131272322Y-101327557D01*
X131418691Y-101282918D01*
X131488306Y-101289619D01*
X131570875Y-101328986D01*
X131635745Y-101415355D01*
X131638877Y-101424532D01*
X131685800Y-101562006D01*
G37*
%TD*%
M02*
