M48
; DRILL file {KiCad 8.0.6} date 2025-03-02T18:23:22-0700
; FORMAT={-:-/ absolute / inch / decimal}
; #@! TF.CreationDate,2025-03-02T18:23:22-07:00
; #@! TF.GenerationSoftware,Kicad,Pcbnew,8.0.6
; #@! TF.FileFunction,Plated,1,2,PTH
FMAT,2
INCH
; #@! TA.AperFunction,Plated,PTH,ComponentDrill
T1C0.0354
; #@! TA.AperFunction,Plated,PTH,ComponentDrill
T2C0.0409
; #@! TA.AperFunction,Plated,PTH,ComponentDrill
T3C0.0610
%
G90
G05
T1
X3.8864Y-5.1583
X3.8888Y-5.0583
X3.8888Y-5.6303
X3.8911Y-5.5303
X4.9459Y-5.1933
X4.9459Y-5.2933
X4.9459Y-5.3933
X4.9459Y-5.4933
X5.0459Y-5.1933
X5.0459Y-5.2933
X5.0459Y-5.3933
X5.0459Y-5.4933
T2
X3.976Y-4.7807
X3.9768Y-3.8736
X4.076Y-4.7807
X4.0768Y-3.8736
X4.176Y-4.7807
X4.1768Y-3.8736
X4.276Y-4.7807
X4.2768Y-3.8736
X4.376Y-4.7807
X4.3768Y-3.8736
X4.476Y-4.7807
X4.4768Y-3.8736
X4.576Y-4.7807
X4.5768Y-3.8736
X4.676Y-4.7807
X4.6768Y-3.8736
X4.776Y-4.7807
X4.7768Y-3.8736
X4.876Y-4.7807
X4.8768Y-3.8736
X4.976Y-4.7807
X4.9768Y-3.8736
X5.076Y-4.7807
X5.0768Y-3.8736
X5.176Y-4.7807
X5.1768Y-3.8736
X5.276Y-4.7807
X5.2768Y-3.8736
X5.376Y-4.7807
X5.3768Y-3.8736
X5.476Y-4.7807
X5.4768Y-3.8736
X5.576Y-4.7807
X5.5768Y-3.8736
X5.676Y-4.7807
X5.6768Y-3.8736
X5.776Y-4.7807
X5.7768Y-3.8736
T3
X5.3583Y-5.3024
X5.3583Y-5.4913
M30
