%TF.GenerationSoftware,KiCad,Pcbnew,8.0.6*%
%TF.CreationDate,2025-03-02T18:57:53-07:00*%
%TF.ProjectId,Main Computer,4d61696e-2043-46f6-9d70-757465722e6b,rev?*%
%TF.SameCoordinates,Original*%
%TF.FileFunction,Legend,Top*%
%TF.FilePolarity,Positive*%
%FSLAX46Y46*%
G04 Gerber Fmt 4.6, Leading zero omitted, Abs format (unit mm)*
G04 Created by KiCad (PCBNEW 8.0.6) date 2025-03-02 18:57:53*
%MOMM*%
%LPD*%
G01*
G04 APERTURE LIST*
%ADD10C,0.300000*%
%ADD11C,0.100000*%
%ADD12C,0.150000*%
G04 APERTURE END LIST*
D10*
X98481653Y-140350828D02*
X97981653Y-139636542D01*
X97624510Y-140350828D02*
X97624510Y-138850828D01*
X97624510Y-138850828D02*
X98195939Y-138850828D01*
X98195939Y-138850828D02*
X98338796Y-138922257D01*
X98338796Y-138922257D02*
X98410225Y-138993685D01*
X98410225Y-138993685D02*
X98481653Y-139136542D01*
X98481653Y-139136542D02*
X98481653Y-139350828D01*
X98481653Y-139350828D02*
X98410225Y-139493685D01*
X98410225Y-139493685D02*
X98338796Y-139565114D01*
X98338796Y-139565114D02*
X98195939Y-139636542D01*
X98195939Y-139636542D02*
X97624510Y-139636542D01*
X99124510Y-139565114D02*
X99624510Y-139565114D01*
X99838796Y-140350828D02*
X99124510Y-140350828D01*
X99124510Y-140350828D02*
X99124510Y-138850828D01*
X99124510Y-138850828D02*
X99838796Y-138850828D01*
X100267368Y-138850828D02*
X100767368Y-140350828D01*
X100767368Y-140350828D02*
X101267368Y-138850828D01*
X102838796Y-138993685D02*
X102910224Y-138922257D01*
X102910224Y-138922257D02*
X103053082Y-138850828D01*
X103053082Y-138850828D02*
X103410224Y-138850828D01*
X103410224Y-138850828D02*
X103553082Y-138922257D01*
X103553082Y-138922257D02*
X103624510Y-138993685D01*
X103624510Y-138993685D02*
X103695939Y-139136542D01*
X103695939Y-139136542D02*
X103695939Y-139279400D01*
X103695939Y-139279400D02*
X103624510Y-139493685D01*
X103624510Y-139493685D02*
X102767367Y-140350828D01*
X102767367Y-140350828D02*
X103695939Y-140350828D01*
D11*
X97203884Y-123491466D02*
X97965789Y-123491466D01*
X97584836Y-123872419D02*
X97584836Y-123110514D01*
D12*
X97533922Y-137109819D02*
X98105350Y-137109819D01*
X97819636Y-138109819D02*
X97819636Y-137109819D01*
X98438684Y-138109819D02*
X98438684Y-137109819D01*
X98867255Y-138109819D02*
X98867255Y-137586009D01*
X98867255Y-137586009D02*
X98819636Y-137490771D01*
X98819636Y-137490771D02*
X98724398Y-137443152D01*
X98724398Y-137443152D02*
X98581541Y-137443152D01*
X98581541Y-137443152D02*
X98486303Y-137490771D01*
X98486303Y-137490771D02*
X98438684Y-137538390D01*
X99343446Y-138109819D02*
X99343446Y-137443152D01*
X99343446Y-137109819D02*
X99295827Y-137157438D01*
X99295827Y-137157438D02*
X99343446Y-137205057D01*
X99343446Y-137205057D02*
X99391065Y-137157438D01*
X99391065Y-137157438D02*
X99343446Y-137109819D01*
X99343446Y-137109819D02*
X99343446Y-137205057D01*
X99772017Y-138062200D02*
X99867255Y-138109819D01*
X99867255Y-138109819D02*
X100057731Y-138109819D01*
X100057731Y-138109819D02*
X100152969Y-138062200D01*
X100152969Y-138062200D02*
X100200588Y-137966961D01*
X100200588Y-137966961D02*
X100200588Y-137919342D01*
X100200588Y-137919342D02*
X100152969Y-137824104D01*
X100152969Y-137824104D02*
X100057731Y-137776485D01*
X100057731Y-137776485D02*
X99914874Y-137776485D01*
X99914874Y-137776485D02*
X99819636Y-137728866D01*
X99819636Y-137728866D02*
X99772017Y-137633628D01*
X99772017Y-137633628D02*
X99772017Y-137586009D01*
X99772017Y-137586009D02*
X99819636Y-137490771D01*
X99819636Y-137490771D02*
X99914874Y-137443152D01*
X99914874Y-137443152D02*
X100057731Y-137443152D01*
X100057731Y-137443152D02*
X100152969Y-137490771D01*
X101343446Y-138062200D02*
X101438684Y-138109819D01*
X101438684Y-138109819D02*
X101629160Y-138109819D01*
X101629160Y-138109819D02*
X101724398Y-138062200D01*
X101724398Y-138062200D02*
X101772017Y-137966961D01*
X101772017Y-137966961D02*
X101772017Y-137919342D01*
X101772017Y-137919342D02*
X101724398Y-137824104D01*
X101724398Y-137824104D02*
X101629160Y-137776485D01*
X101629160Y-137776485D02*
X101486303Y-137776485D01*
X101486303Y-137776485D02*
X101391065Y-137728866D01*
X101391065Y-137728866D02*
X101343446Y-137633628D01*
X101343446Y-137633628D02*
X101343446Y-137586009D01*
X101343446Y-137586009D02*
X101391065Y-137490771D01*
X101391065Y-137490771D02*
X101486303Y-137443152D01*
X101486303Y-137443152D02*
X101629160Y-137443152D01*
X101629160Y-137443152D02*
X101724398Y-137490771D01*
X102200589Y-138109819D02*
X102200589Y-137443152D01*
X102200589Y-137109819D02*
X102152970Y-137157438D01*
X102152970Y-137157438D02*
X102200589Y-137205057D01*
X102200589Y-137205057D02*
X102248208Y-137157438D01*
X102248208Y-137157438D02*
X102200589Y-137109819D01*
X102200589Y-137109819D02*
X102200589Y-137205057D01*
X103105350Y-138109819D02*
X103105350Y-137109819D01*
X103105350Y-138062200D02*
X103010112Y-138109819D01*
X103010112Y-138109819D02*
X102819636Y-138109819D01*
X102819636Y-138109819D02*
X102724398Y-138062200D01*
X102724398Y-138062200D02*
X102676779Y-138014580D01*
X102676779Y-138014580D02*
X102629160Y-137919342D01*
X102629160Y-137919342D02*
X102629160Y-137633628D01*
X102629160Y-137633628D02*
X102676779Y-137538390D01*
X102676779Y-137538390D02*
X102724398Y-137490771D01*
X102724398Y-137490771D02*
X102819636Y-137443152D01*
X102819636Y-137443152D02*
X103010112Y-137443152D01*
X103010112Y-137443152D02*
X103105350Y-137490771D01*
X103962493Y-138062200D02*
X103867255Y-138109819D01*
X103867255Y-138109819D02*
X103676779Y-138109819D01*
X103676779Y-138109819D02*
X103581541Y-138062200D01*
X103581541Y-138062200D02*
X103533922Y-137966961D01*
X103533922Y-137966961D02*
X103533922Y-137586009D01*
X103533922Y-137586009D02*
X103581541Y-137490771D01*
X103581541Y-137490771D02*
X103676779Y-137443152D01*
X103676779Y-137443152D02*
X103867255Y-137443152D01*
X103867255Y-137443152D02*
X103962493Y-137490771D01*
X103962493Y-137490771D02*
X104010112Y-137586009D01*
X104010112Y-137586009D02*
X104010112Y-137681247D01*
X104010112Y-137681247D02*
X103533922Y-137776485D01*
X105629160Y-137443152D02*
X105629160Y-138109819D01*
X105200589Y-137443152D02*
X105200589Y-137966961D01*
X105200589Y-137966961D02*
X105248208Y-138062200D01*
X105248208Y-138062200D02*
X105343446Y-138109819D01*
X105343446Y-138109819D02*
X105486303Y-138109819D01*
X105486303Y-138109819D02*
X105581541Y-138062200D01*
X105581541Y-138062200D02*
X105629160Y-138014580D01*
X106105351Y-137443152D02*
X106105351Y-138443152D01*
X106105351Y-137490771D02*
X106200589Y-137443152D01*
X106200589Y-137443152D02*
X106391065Y-137443152D01*
X106391065Y-137443152D02*
X106486303Y-137490771D01*
X106486303Y-137490771D02*
X106533922Y-137538390D01*
X106533922Y-137538390D02*
X106581541Y-137633628D01*
X106581541Y-137633628D02*
X106581541Y-137919342D01*
X106581541Y-137919342D02*
X106533922Y-138014580D01*
X106533922Y-138014580D02*
X106486303Y-138062200D01*
X106486303Y-138062200D02*
X106391065Y-138109819D01*
X106391065Y-138109819D02*
X106200589Y-138109819D01*
X106200589Y-138109819D02*
X106105351Y-138062200D01*
X107772018Y-138109819D02*
X107772018Y-137109819D01*
X107772018Y-137109819D02*
X108105351Y-137824104D01*
X108105351Y-137824104D02*
X108438684Y-137109819D01*
X108438684Y-137109819D02*
X108438684Y-138109819D01*
X109343446Y-138109819D02*
X109343446Y-137586009D01*
X109343446Y-137586009D02*
X109295827Y-137490771D01*
X109295827Y-137490771D02*
X109200589Y-137443152D01*
X109200589Y-137443152D02*
X109010113Y-137443152D01*
X109010113Y-137443152D02*
X108914875Y-137490771D01*
X109343446Y-138062200D02*
X109248208Y-138109819D01*
X109248208Y-138109819D02*
X109010113Y-138109819D01*
X109010113Y-138109819D02*
X108914875Y-138062200D01*
X108914875Y-138062200D02*
X108867256Y-137966961D01*
X108867256Y-137966961D02*
X108867256Y-137871723D01*
X108867256Y-137871723D02*
X108914875Y-137776485D01*
X108914875Y-137776485D02*
X109010113Y-137728866D01*
X109010113Y-137728866D02*
X109248208Y-137728866D01*
X109248208Y-137728866D02*
X109343446Y-137681247D01*
X109676780Y-137443152D02*
X110057732Y-137443152D01*
X109819637Y-137109819D02*
X109819637Y-137966961D01*
X109819637Y-137966961D02*
X109867256Y-138062200D01*
X109867256Y-138062200D02*
X109962494Y-138109819D01*
X109962494Y-138109819D02*
X110057732Y-138109819D01*
X110248209Y-137443152D02*
X110629161Y-137443152D01*
X110391066Y-137109819D02*
X110391066Y-137966961D01*
X110391066Y-137966961D02*
X110438685Y-138062200D01*
X110438685Y-138062200D02*
X110533923Y-138109819D01*
X110533923Y-138109819D02*
X110629161Y-138109819D01*
X110962495Y-138109819D02*
X110962495Y-137109819D01*
X111391066Y-138109819D02*
X111391066Y-137586009D01*
X111391066Y-137586009D02*
X111343447Y-137490771D01*
X111343447Y-137490771D02*
X111248209Y-137443152D01*
X111248209Y-137443152D02*
X111105352Y-137443152D01*
X111105352Y-137443152D02*
X111010114Y-137490771D01*
X111010114Y-137490771D02*
X110962495Y-137538390D01*
X112248209Y-138062200D02*
X112152971Y-138109819D01*
X112152971Y-138109819D02*
X111962495Y-138109819D01*
X111962495Y-138109819D02*
X111867257Y-138062200D01*
X111867257Y-138062200D02*
X111819638Y-137966961D01*
X111819638Y-137966961D02*
X111819638Y-137586009D01*
X111819638Y-137586009D02*
X111867257Y-137490771D01*
X111867257Y-137490771D02*
X111962495Y-137443152D01*
X111962495Y-137443152D02*
X112152971Y-137443152D01*
X112152971Y-137443152D02*
X112248209Y-137490771D01*
X112248209Y-137490771D02*
X112295828Y-137586009D01*
X112295828Y-137586009D02*
X112295828Y-137681247D01*
X112295828Y-137681247D02*
X111819638Y-137776485D01*
X112629162Y-137443152D02*
X112819638Y-138109819D01*
X112819638Y-138109819D02*
X113010114Y-137633628D01*
X113010114Y-137633628D02*
X113200590Y-138109819D01*
X113200590Y-138109819D02*
X113391066Y-137443152D01*
D11*
X97980074Y-115572419D02*
X97503884Y-115572419D01*
X97503884Y-115572419D02*
X97503884Y-114572419D01*
X144003884Y-96591466D02*
X144765789Y-96591466D01*
X144384836Y-96972419D02*
X144384836Y-96210514D01*
X97603884Y-111772419D02*
X97603884Y-110772419D01*
X97603884Y-111248609D02*
X98175312Y-111248609D01*
X98175312Y-111772419D02*
X98175312Y-110772419D01*
X97503884Y-119072419D02*
X97503884Y-118072419D01*
X97503884Y-118548609D02*
X98075312Y-118548609D01*
X98075312Y-119072419D02*
X98075312Y-118072419D01*
X98080074Y-108272419D02*
X97603884Y-108272419D01*
X97603884Y-108272419D02*
X97603884Y-107272419D01*
X97203884Y-128391466D02*
X97965789Y-128391466D01*
X122788095Y-115452419D02*
X122788095Y-116261942D01*
X122788095Y-116261942D02*
X122835714Y-116357180D01*
X122835714Y-116357180D02*
X122883333Y-116404800D01*
X122883333Y-116404800D02*
X122978571Y-116452419D01*
X122978571Y-116452419D02*
X123169047Y-116452419D01*
X123169047Y-116452419D02*
X123264285Y-116404800D01*
X123264285Y-116404800D02*
X123311904Y-116357180D01*
X123311904Y-116357180D02*
X123359523Y-116261942D01*
X123359523Y-116261942D02*
X123359523Y-115452419D01*
X123788095Y-115547657D02*
X123835714Y-115500038D01*
X123835714Y-115500038D02*
X123930952Y-115452419D01*
X123930952Y-115452419D02*
X124169047Y-115452419D01*
X124169047Y-115452419D02*
X124264285Y-115500038D01*
X124264285Y-115500038D02*
X124311904Y-115547657D01*
X124311904Y-115547657D02*
X124359523Y-115642895D01*
X124359523Y-115642895D02*
X124359523Y-115738133D01*
X124359523Y-115738133D02*
X124311904Y-115880990D01*
X124311904Y-115880990D02*
X123740476Y-116452419D01*
X123740476Y-116452419D02*
X124359523Y-116452419D01*
%TO.C,UNIT_1*%
X143500000Y-117000000D02*
X103500000Y-117000000D01*
X103500000Y-89000000D01*
X143500000Y-89000000D01*
X143500000Y-117000000D01*
%TO.C,U2*%
X114600000Y-119905000D02*
X132600000Y-119905000D01*
X132600000Y-153305000D01*
X114600000Y-153305000D01*
X114600000Y-119905000D01*
%TD*%
M02*
