M48
; DRILL file {KiCad 8.0.6} date 2025-03-02T18:57:55-0700
; FORMAT={-:-/ absolute / inch / decimal}
; #@! TF.CreationDate,2025-03-02T18:57:55-07:00
; #@! TF.GenerationSoftware,Kicad,Pcbnew,8.0.6
; #@! TF.FileFunction,Plated,1,2,PTH
FMAT,2
INCH
; #@! TA.AperFunction,Plated,PTH,ViaDrill
T1C0.0118
; #@! TA.AperFunction,Plated,PTH,ComponentDrill
T2C0.0236
; #@! TA.AperFunction,Plated,PTH,ComponentDrill
T3C0.0354
; #@! TA.AperFunction,Plated,PTH,ComponentDrill
T4C0.0394
; #@! TA.AperFunction,Plated,PTH,ComponentDrill
T5C0.0591
; #@! TA.AperFunction,Plated,PTH,ComponentDrill
T6C0.0610
%
G90
G05
T1
X5.3429Y-3.8953
X5.4921Y-4.4921
X5.5315Y-4.6378
X5.563Y-4.6772
X5.6378Y-4.6772
X5.6693Y-4.1575
X5.6693Y-4.4528
T2
X3.9488Y-4.2402
X3.9488Y-4.3819
X3.9488Y-4.5236
X3.9488Y-4.6654
T3
X4.5799Y-5.9333
X4.6799Y-5.9356
X4.715Y-4.7762
X4.715Y-4.8762
X4.815Y-4.7762
X4.815Y-4.8762
X4.915Y-4.7762
X4.915Y-4.8762
X5.015Y-4.7762
X5.015Y-4.8762
X5.052Y-5.9309
X5.152Y-5.9333
X5.4921Y-3.7551
X5.4921Y-3.8551
X5.4921Y-3.9551
X5.4921Y-4.0551
X5.4921Y-4.1551
X5.4921Y-4.2551
X5.4921Y-4.3551
T4
X5.778Y-3.8071
X5.778Y-3.9071
X5.778Y-4.0071
X5.778Y-4.1071
X5.778Y-4.2071
X5.778Y-4.3071
X5.778Y-4.4071
X5.778Y-4.5071
X5.778Y-4.6071
X5.778Y-4.7071
X5.778Y-4.8071
X5.778Y-4.9071
X5.778Y-5.0071
X5.778Y-5.1071
X5.778Y-5.2071
X5.778Y-5.3071
X5.778Y-5.4071
X5.778Y-5.5071
X5.778Y-5.6071
X5.778Y-5.7071
X5.878Y-3.8071
X5.878Y-3.9071
X5.878Y-4.0071
X5.878Y-4.1071
X5.878Y-4.2071
X5.878Y-4.3071
X5.878Y-4.4071
X5.878Y-4.5071
X5.878Y-4.6071
X5.878Y-4.7071
X5.878Y-4.8071
X5.878Y-4.9071
X5.878Y-5.0071
X5.878Y-5.1071
X5.878Y-5.2071
X5.878Y-5.3071
X5.878Y-5.4071
X5.878Y-5.5071
X5.878Y-5.6071
X5.878Y-5.7071
T5
X4.1953Y-3.9665
X4.1953Y-4.1437
T6
X3.9488Y-4.8622
X3.9488Y-5.0512
M30
