M48
; DRILL file {KiCad 8.0.8-8.0.8-0~ubuntu24.04.1} date 2025-02-23T19:21:03-0700
; FORMAT={-:-/ absolute / inch / decimal}
; #@! TF.CreationDate,2025-02-23T19:21:03-07:00
; #@! TF.GenerationSoftware,Kicad,Pcbnew,8.0.8-8.0.8-0~ubuntu24.04.1
; #@! TF.FileFunction,Plated,1,2,PTH
FMAT,2
INCH
; #@! TA.AperFunction,Plated,PTH,ViaDrill
T1C0.0118
; #@! TA.AperFunction,Plated,PTH,ComponentDrill
T2C0.0236
; #@! TA.AperFunction,Plated,PTH,ComponentDrill
T3C0.0315
; #@! TA.AperFunction,Plated,PTH,ComponentDrill
T4C0.0354
; #@! TA.AperFunction,Plated,PTH,ComponentDrill
T5C0.0394
; #@! TA.AperFunction,Plated,PTH,ComponentDrill
T6C0.0433
; #@! TA.AperFunction,Plated,PTH,ComponentDrill
T7C0.0591
; #@! TA.AperFunction,Plated,PTH,ComponentDrill
T8C0.0610
%
G90
G05
T1
X4.8031Y-3.2677
X4.8031Y-3.3661
T2
X3.4331Y-2.126
X3.5748Y-2.126
X3.7165Y-2.126
X3.8583Y-2.126
X4.6654Y-2.2835
X4.7441Y-2.2835
X5.0787Y-2.7756
X5.1575Y-2.7756
X6.0039Y-2.7756
X6.0827Y-2.7756
T3
X4.6457Y-2.4606
X4.7441Y-2.4606
X5.0787Y-1.9425
X5.0787Y-2.3425
X5.1969Y-1.9425
X5.1969Y-2.3425
X5.1969Y-2.4409
X5.1969Y-2.5394
X5.3346Y-1.9425
X5.3346Y-2.3425
X5.348Y-2.6772
X5.3512Y-2.8543
X5.4724Y-1.9425
X5.4724Y-2.3425
X5.6772Y-1.9961
X5.6772Y-2.0961
X5.6772Y-2.1961
X5.6772Y-2.2961
X5.748Y-2.6772
X5.7512Y-2.8543
X5.7882Y-2.5
X5.8866Y-2.5
X5.9772Y-1.9961
X5.9772Y-2.0961
X5.9772Y-2.1961
X5.9772Y-2.2961
X6.1024Y-1.9425
X6.1024Y-2.3425
X6.1417Y-2.5125
X6.1417Y-2.6109
X6.2402Y-1.9425
X6.2402Y-2.3425
T4
X4.4197Y-2.8437
X4.4197Y-2.9437
X4.4197Y-3.0437
X4.4197Y-3.1437
X4.4197Y-3.2437
X4.4197Y-3.3437
X4.4197Y-3.4437
X4.8622Y-2.1457
X4.9622Y-2.1457
T5
X4.6984Y-3.0315
X4.6984Y-3.6315
X4.7984Y-3.0315
X4.7984Y-3.6315
X4.8984Y-3.0315
X4.8984Y-3.6315
X4.9016Y-2.4378
X4.9016Y-2.5378
X4.9016Y-2.6378
X4.9984Y-3.0315
X4.9984Y-3.6315
X5.0984Y-3.0315
X5.0984Y-3.6315
X5.1984Y-3.0315
X5.1984Y-3.6315
X5.2984Y-3.0315
X5.2984Y-3.6315
X5.3984Y-3.0315
X5.3984Y-3.6315
X5.4984Y-3.0315
X5.4984Y-3.6315
X5.5984Y-3.0315
X5.5984Y-3.6315
X5.6984Y-3.0315
X5.6984Y-3.6315
X5.7984Y-3.0315
X5.7984Y-3.6315
X5.8984Y-3.0315
X5.8984Y-3.6315
X5.9984Y-3.0315
X5.9984Y-3.6315
X6.0984Y-3.0315
X6.0984Y-3.6315
T6
X5.3224Y-2.5
X5.6224Y-2.5
T7
X3.0244Y-3.2429
X3.0252Y-3.0429
T8
X4.0039Y-2.3622
X4.1929Y-2.3622
M30
