M48
; DRILL file {KiCad 8.0.6} date 2025-02-26T18:57:24-0700
; FORMAT={-:-/ absolute / inch / decimal}
; #@! TF.CreationDate,2025-02-26T18:57:24-07:00
; #@! TF.GenerationSoftware,Kicad,Pcbnew,8.0.6
; #@! TF.FileFunction,Plated,1,2,PTH
FMAT,2
INCH
; #@! TA.AperFunction,Plated,PTH,ViaDrill
T1C0.0118
; #@! TA.AperFunction,Plated,PTH,ComponentDrill
T2C0.0236
; #@! TA.AperFunction,Plated,PTH,ComponentDrill
T3C0.0354
; #@! TA.AperFunction,Plated,PTH,ComponentDrill
T4C0.0394
; #@! TA.AperFunction,Plated,PTH,ComponentDrill
T5C0.0591
; #@! TA.AperFunction,Plated,PTH,ComponentDrill
T6C0.0610
%
G90
G05
T1
X5.5217Y-3.9764
X5.6988Y-4.3996
X5.7421Y-4.3996
X5.7717Y-4.2913
T2
X5.4764Y-2.5394
X5.6181Y-2.5394
X5.7598Y-2.5394
X5.9016Y-2.5394
T3
X5.387Y-4.7217
X5.3941Y-3.189
X5.3941Y-3.289
X5.3941Y-3.389
X5.3941Y-3.489
X5.3941Y-3.589
X5.3941Y-3.689
X5.3941Y-3.789
X5.3941Y-3.889
X5.3941Y-3.989
X5.3941Y-4.089
X5.3941Y-4.189
X5.3941Y-4.289
X5.3941Y-4.389
X5.3941Y-4.489
X5.3941Y-4.589
X5.487Y-4.7217
X5.587Y-4.7217
X5.687Y-4.7217
X5.787Y-4.7217
X5.887Y-4.7217
X5.987Y-4.7217
X5.9941Y-3.189
X5.9941Y-3.289
X5.9941Y-3.389
X5.9941Y-3.489
X5.9941Y-3.589
X5.9941Y-3.689
X5.9941Y-3.789
X5.9941Y-3.889
X5.9941Y-3.989
X5.9941Y-4.089
X5.9941Y-4.189
X5.9941Y-4.289
X5.9941Y-4.389
X5.9941Y-4.489
X5.9941Y-4.589
T4
X5.5341Y-3.2079
X5.6341Y-3.2079
X5.7341Y-3.2079
X5.8341Y-3.2079
T5
X5.598Y-3.3445
X5.7752Y-3.3445
T6
X5.5945Y-2.7264
X5.7835Y-2.7264
M30
