%TF.GenerationSoftware,KiCad,Pcbnew,8.0.6*%
%TF.CreationDate,2025-02-26T18:57:19-07:00*%
%TF.ProjectId,Temperature Sensor,54656d70-6572-4617-9475-72652053656e,rev?*%
%TF.SameCoordinates,Original*%
%TF.FileFunction,Copper,L1,Top*%
%TF.FilePolarity,Positive*%
%FSLAX46Y46*%
G04 Gerber Fmt 4.6, Leading zero omitted, Abs format (unit mm)*
G04 Created by KiCad (PCBNEW 8.0.6) date 2025-02-26 18:57:19*
%MOMM*%
%LPD*%
G01*
G04 APERTURE LIST*
G04 Aperture macros list*
%AMRoundRect*
0 Rectangle with rounded corners*
0 $1 Rounding radius*
0 $2 $3 $4 $5 $6 $7 $8 $9 X,Y pos of 4 corners*
0 Add a 4 corners polygon primitive as box body*
4,1,4,$2,$3,$4,$5,$6,$7,$8,$9,$2,$3,0*
0 Add four circle primitives for the rounded corners*
1,1,$1+$1,$2,$3*
1,1,$1+$1,$4,$5*
1,1,$1+$1,$6,$7*
1,1,$1+$1,$8,$9*
0 Add four rect primitives between the rounded corners*
20,1,$1+$1,$2,$3,$4,$5,0*
20,1,$1+$1,$4,$5,$6,$7,0*
20,1,$1+$1,$6,$7,$8,$9,0*
20,1,$1+$1,$8,$9,$2,$3,0*%
G04 Aperture macros list end*
%TA.AperFunction,ComponentPad*%
%ADD10C,1.800000*%
%TD*%
%TA.AperFunction,ComponentPad*%
%ADD11C,2.200000*%
%TD*%
%TA.AperFunction,ComponentPad*%
%ADD12RoundRect,0.249999X-1.025001X-1.025001X1.025001X-1.025001X1.025001X1.025001X-1.025001X1.025001X0*%
%TD*%
%TA.AperFunction,ComponentPad*%
%ADD13C,2.550000*%
%TD*%
%TA.AperFunction,ComponentPad*%
%ADD14RoundRect,0.250000X0.550000X0.550000X-0.550000X0.550000X-0.550000X-0.550000X0.550000X-0.550000X0*%
%TD*%
%TA.AperFunction,ComponentPad*%
%ADD15C,1.600000*%
%TD*%
%TA.AperFunction,ComponentPad*%
%ADD16C,1.930400*%
%TD*%
%TA.AperFunction,ComponentPad*%
%ADD17R,1.800000X1.800000*%
%TD*%
%TA.AperFunction,ViaPad*%
%ADD18C,0.600000*%
%TD*%
%TA.AperFunction,Conductor*%
%ADD19C,0.200000*%
%TD*%
%TA.AperFunction,Conductor*%
%ADD20C,0.500000*%
%TD*%
G04 APERTURE END LIST*
D10*
%TO.P,UNIT_2,1,INT*%
%TO.N,unconnected-(UNIT_2-INT-Pad1)*%
X152070000Y-119930000D03*
%TO.P,UNIT_2,2,SCK*%
%TO.N,SCK*%
X149530000Y-119930000D03*
%TO.P,UNIT_2,3,SI*%
%TO.N,SI*%
X146990000Y-119930000D03*
%TO.P,UNIT_2,4,SO*%
%TO.N,SO*%
X144450000Y-119930000D03*
%TO.P,UNIT_2,5,CS*%
%TO.N,CS*%
X141910000Y-119930000D03*
%TO.P,UNIT_2,6,GND*%
%TO.N,GND*%
X139370000Y-119930000D03*
%TO.P,UNIT_2,7,VCC*%
%TO.N,+5V*%
X136830000Y-119930000D03*
D11*
%TO.P,UNIT_2,8*%
%TO.N,High*%
X146690000Y-84950000D03*
%TO.P,UNIT_2,9*%
%TO.N,Low*%
X142190000Y-84950000D03*
%TD*%
D12*
%TO.P,J5,1,Pin_1*%
%TO.N,+5V*%
X142100000Y-69250000D03*
D13*
%TO.P,J5,2,Pin_2*%
%TO.N,GND*%
X146900000Y-69250000D03*
%TD*%
D14*
%TO.P,J2,1,Pin_1*%
%TO.N,Low*%
X149900000Y-64500000D03*
D15*
%TO.P,J2,2,Pin_2*%
%TO.N,High*%
X146300000Y-64500000D03*
%TO.P,J2,3,Pin_3*%
%TO.N,Low*%
X142700000Y-64500000D03*
%TO.P,J2,4,Pin_4*%
%TO.N,High*%
X139100000Y-64500000D03*
%TD*%
D16*
%TO.P,UNIT_3,1,VIN*%
%TO.N,+3V*%
X148185000Y-81480000D03*
%TO.P,UNIT_3,2,GND*%
%TO.N,GND*%
X145645000Y-81480000D03*
%TO.P,UNIT_3,3,SCL*%
%TO.N,SCL*%
X143105000Y-81480000D03*
%TO.P,UNIT_3,4,SDA*%
%TO.N,SDA*%
X140565000Y-81480000D03*
%TD*%
D17*
%TO.P,UNIT_1,1,D1/TX*%
%TO.N,unconnected-(UNIT_1-D1{slash}TX-Pad1)*%
X152250000Y-116560000D03*
D10*
%TO.P,UNIT_1,2,D0/RX*%
%TO.N,unconnected-(UNIT_1-D0{slash}RX-Pad2)*%
X152250000Y-114020000D03*
%TO.P,UNIT_1,3,RESET*%
%TO.N,unconnected-(UNIT_1-RESET-Pad3)*%
X152250000Y-111480000D03*
%TO.P,UNIT_1,4,COM/GND*%
%TO.N,GND*%
X152250000Y-108940000D03*
%TO.P,UNIT_1,5,D2*%
%TO.N,unconnected-(UNIT_1-D2-Pad5)*%
X152250000Y-106400000D03*
%TO.P,UNIT_1,6,D3*%
%TO.N,unconnected-(UNIT_1-D3-Pad6)*%
X152250000Y-103860000D03*
%TO.P,UNIT_1,7,D4*%
%TO.N,unconnected-(UNIT_1-D4-Pad7)*%
X152250000Y-101320000D03*
%TO.P,UNIT_1,8,D5*%
%TO.N,unconnected-(UNIT_1-D5-Pad8)*%
X152250000Y-98780000D03*
%TO.P,UNIT_1,9,D6*%
%TO.N,unconnected-(UNIT_1-D6-Pad9)*%
X152250000Y-96240000D03*
%TO.P,UNIT_1,10,D7*%
%TO.N,unconnected-(UNIT_1-D7-Pad10)*%
X152250000Y-93700000D03*
%TO.P,UNIT_1,11,D8*%
%TO.N,unconnected-(UNIT_1-D8-Pad11)*%
X152250000Y-91160000D03*
%TO.P,UNIT_1,12,D9*%
%TO.N,unconnected-(UNIT_1-D9-Pad12)*%
X152250000Y-88620000D03*
%TO.P,UNIT_1,13,D10*%
%TO.N,CS*%
X152250000Y-86080000D03*
%TO.P,UNIT_1,14,D11/MOSI*%
%TO.N,SI*%
X152250000Y-83540000D03*
%TO.P,UNIT_1,15,D12/MISO*%
%TO.N,SO*%
X152250000Y-81000000D03*
%TO.P,UNIT_1,16,D13/SCK*%
%TO.N,SCK*%
X137010000Y-81000000D03*
%TO.P,UNIT_1,17,3V3*%
%TO.N,+3V*%
X137010000Y-83540000D03*
%TO.P,UNIT_1,18,AREF*%
%TO.N,unconnected-(UNIT_1-AREF-Pad18)*%
X137010000Y-86080000D03*
%TO.P,UNIT_1,19,A0*%
%TO.N,unconnected-(UNIT_1-A0-Pad19)*%
X137010000Y-88620000D03*
%TO.P,UNIT_1,20,A1*%
%TO.N,unconnected-(UNIT_1-A1-Pad20)*%
X137010000Y-91160000D03*
%TO.P,UNIT_1,21,A2*%
%TO.N,unconnected-(UNIT_1-A2-Pad21)*%
X137010000Y-93700000D03*
%TO.P,UNIT_1,22,A3*%
%TO.N,unconnected-(UNIT_1-A3-Pad22)*%
X137010000Y-96240000D03*
%TO.P,UNIT_1,23,A4*%
%TO.N,SDA*%
X137010000Y-98780000D03*
%TO.P,UNIT_1,24,A5*%
%TO.N,SCL*%
X137010000Y-101320000D03*
%TO.P,UNIT_1,25,A6*%
%TO.N,unconnected-(UNIT_1-A6-Pad25)*%
X137010000Y-103860000D03*
%TO.P,UNIT_1,26,A7*%
%TO.N,unconnected-(UNIT_1-A7-Pad26)*%
X137010000Y-106400000D03*
%TO.P,UNIT_1,27,+5V*%
%TO.N,+5V*%
X137010000Y-108940000D03*
%TO.P,UNIT_1,28,RESET*%
%TO.N,unconnected-(UNIT_1-RESET-Pad28)*%
X137010000Y-111480000D03*
%TO.P,UNIT_1,29,COM/GND*%
%TO.N,GND*%
X137010000Y-114020000D03*
%TO.P,UNIT_1,30,VIN*%
%TO.N,unconnected-(UNIT_1-VIN-Pad30)*%
X137010000Y-116560000D03*
%TD*%
D18*
%TO.N,SO*%
X144750000Y-111750000D03*
%TO.N,SI*%
X145850000Y-111750000D03*
%TO.N,SCL*%
X140250000Y-101000000D03*
%TO.N,CS*%
X146600000Y-109000000D03*
%TD*%
D19*
%TO.N,High*%
X149820000Y-84520000D02*
X149390000Y-84950000D01*
X149390000Y-84950000D02*
X146690000Y-84950000D01*
X146300000Y-64500000D02*
X149820000Y-68020000D01*
X149820000Y-68020000D02*
X149820000Y-84520000D01*
%TO.N,Low*%
X141830000Y-77530000D02*
X141830000Y-84590000D01*
X141830000Y-84590000D02*
X142190000Y-84950000D01*
X139300000Y-75000000D02*
X139300000Y-67900000D01*
X141830000Y-77530000D02*
X139300000Y-75000000D01*
X139300000Y-67900000D02*
X142700000Y-64500000D01*
%TO.N,SO*%
X148500000Y-86750000D02*
X148500000Y-88500000D01*
X144750000Y-110750000D02*
X144750000Y-111750000D01*
X151250000Y-81000000D02*
X150500000Y-81750000D01*
X150500000Y-81750000D02*
X150500000Y-84750000D01*
X152250000Y-81000000D02*
X151250000Y-81000000D01*
X144750000Y-92250000D02*
X144750000Y-110750000D01*
X148500000Y-88500000D02*
X144750000Y-92250000D01*
X150500000Y-84750000D02*
X148500000Y-86750000D01*
%TO.N,SCK*%
X138700000Y-107800000D02*
X138700000Y-113400000D01*
X138750000Y-84315685D02*
X138750000Y-107750000D01*
X138700000Y-113400000D02*
X139800000Y-114500000D01*
X138700000Y-84265685D02*
X138750000Y-84315685D01*
X143890000Y-114500000D02*
X149580000Y-120190000D01*
X137010000Y-81000000D02*
X138700000Y-82690000D01*
X139800000Y-114500000D02*
X143890000Y-114500000D01*
X138700000Y-82690000D02*
X138700000Y-84265685D01*
X138750000Y-107750000D02*
X138700000Y-107800000D01*
%TO.N,SI*%
X149500000Y-86750000D02*
X152250000Y-84000000D01*
X145750000Y-92500000D02*
X149500000Y-88750000D01*
X145750000Y-111650000D02*
X145750000Y-92500000D01*
X145850000Y-111750000D02*
X145750000Y-111650000D01*
X149500000Y-88750000D02*
X149500000Y-86750000D01*
X152250000Y-84000000D02*
X152250000Y-83540000D01*
%TO.N,SCL*%
X143105000Y-83605000D02*
X143105000Y-81480000D01*
X140250000Y-101000000D02*
X140250000Y-94750000D01*
X144750000Y-85250000D02*
X143105000Y-83605000D01*
X140250000Y-94750000D02*
X144750000Y-90250000D01*
X144750000Y-90250000D02*
X144750000Y-85250000D01*
%TO.N,CS*%
X150200000Y-88900000D02*
X146600000Y-92500000D01*
X146600000Y-92500000D02*
X146600000Y-109000000D01*
X150200000Y-88130000D02*
X150200000Y-88900000D01*
X152250000Y-86080000D02*
X150200000Y-88130000D01*
%TO.N,GND*%
X139420000Y-120190000D02*
X139420000Y-116430000D01*
D20*
X145645000Y-73905000D02*
X145645000Y-81480000D01*
X146900000Y-72650000D02*
X145645000Y-73905000D01*
X146900000Y-69250000D02*
X146900000Y-72650000D01*
D19*
X139420000Y-116430000D02*
X137010000Y-114020000D01*
%TO.N,High*%
X140500000Y-61750000D02*
X145000000Y-61750000D01*
X139100000Y-63150000D02*
X140500000Y-61750000D01*
X146300000Y-63050000D02*
X146300000Y-64500000D01*
X139100000Y-64500000D02*
X139100000Y-63150000D01*
X145000000Y-61750000D02*
X146300000Y-63050000D01*
%TD*%
M02*
