%TF.GenerationSoftware,KiCad,Pcbnew,8.0.6*%
%TF.CreationDate,2025-02-26T18:57:19-07:00*%
%TF.ProjectId,Temperature Sensor,54656d70-6572-4617-9475-72652053656e,rev?*%
%TF.SameCoordinates,Original*%
%TF.FileFunction,Legend,Bot*%
%TF.FilePolarity,Positive*%
%FSLAX46Y46*%
G04 Gerber Fmt 4.6, Leading zero omitted, Abs format (unit mm)*
G04 Created by KiCad (PCBNEW 8.0.6) date 2025-02-26 18:57:19*
%MOMM*%
%LPD*%
G01*
G04 APERTURE LIST*
%ADD10C,0.100000*%
G04 APERTURE END LIST*
D10*
X156827580Y-116596115D02*
X157827580Y-116596115D01*
X157827580Y-116596115D02*
X157827580Y-116358020D01*
X157827580Y-116358020D02*
X157779961Y-116215163D01*
X157779961Y-116215163D02*
X157684723Y-116119925D01*
X157684723Y-116119925D02*
X157589485Y-116072306D01*
X157589485Y-116072306D02*
X157399009Y-116024687D01*
X157399009Y-116024687D02*
X157256152Y-116024687D01*
X157256152Y-116024687D02*
X157065676Y-116072306D01*
X157065676Y-116072306D02*
X156970438Y-116119925D01*
X156970438Y-116119925D02*
X156875200Y-116215163D01*
X156875200Y-116215163D02*
X156827580Y-116358020D01*
X156827580Y-116358020D02*
X156827580Y-116596115D01*
X156875200Y-115215163D02*
X156827580Y-115310401D01*
X156827580Y-115310401D02*
X156827580Y-115500877D01*
X156827580Y-115500877D02*
X156875200Y-115596115D01*
X156875200Y-115596115D02*
X156970438Y-115643734D01*
X156970438Y-115643734D02*
X157351390Y-115643734D01*
X157351390Y-115643734D02*
X157446628Y-115596115D01*
X157446628Y-115596115D02*
X157494247Y-115500877D01*
X157494247Y-115500877D02*
X157494247Y-115310401D01*
X157494247Y-115310401D02*
X157446628Y-115215163D01*
X157446628Y-115215163D02*
X157351390Y-115167544D01*
X157351390Y-115167544D02*
X157256152Y-115167544D01*
X157256152Y-115167544D02*
X157160914Y-115643734D01*
X156875200Y-114786591D02*
X156827580Y-114691353D01*
X156827580Y-114691353D02*
X156827580Y-114500877D01*
X156827580Y-114500877D02*
X156875200Y-114405639D01*
X156875200Y-114405639D02*
X156970438Y-114358020D01*
X156970438Y-114358020D02*
X157018057Y-114358020D01*
X157018057Y-114358020D02*
X157113295Y-114405639D01*
X157113295Y-114405639D02*
X157160914Y-114500877D01*
X157160914Y-114500877D02*
X157160914Y-114643734D01*
X157160914Y-114643734D02*
X157208533Y-114738972D01*
X157208533Y-114738972D02*
X157303771Y-114786591D01*
X157303771Y-114786591D02*
X157351390Y-114786591D01*
X157351390Y-114786591D02*
X157446628Y-114738972D01*
X157446628Y-114738972D02*
X157494247Y-114643734D01*
X157494247Y-114643734D02*
X157494247Y-114500877D01*
X157494247Y-114500877D02*
X157446628Y-114405639D01*
X156827580Y-113929448D02*
X157494247Y-113929448D01*
X157827580Y-113929448D02*
X157779961Y-113977067D01*
X157779961Y-113977067D02*
X157732342Y-113929448D01*
X157732342Y-113929448D02*
X157779961Y-113881829D01*
X157779961Y-113881829D02*
X157827580Y-113929448D01*
X157827580Y-113929448D02*
X157732342Y-113929448D01*
X157494247Y-113024687D02*
X156684723Y-113024687D01*
X156684723Y-113024687D02*
X156589485Y-113072306D01*
X156589485Y-113072306D02*
X156541866Y-113119925D01*
X156541866Y-113119925D02*
X156494247Y-113215163D01*
X156494247Y-113215163D02*
X156494247Y-113358020D01*
X156494247Y-113358020D02*
X156541866Y-113453258D01*
X156875200Y-113024687D02*
X156827580Y-113119925D01*
X156827580Y-113119925D02*
X156827580Y-113310401D01*
X156827580Y-113310401D02*
X156875200Y-113405639D01*
X156875200Y-113405639D02*
X156922819Y-113453258D01*
X156922819Y-113453258D02*
X157018057Y-113500877D01*
X157018057Y-113500877D02*
X157303771Y-113500877D01*
X157303771Y-113500877D02*
X157399009Y-113453258D01*
X157399009Y-113453258D02*
X157446628Y-113405639D01*
X157446628Y-113405639D02*
X157494247Y-113310401D01*
X157494247Y-113310401D02*
X157494247Y-113119925D01*
X157494247Y-113119925D02*
X157446628Y-113024687D01*
X157494247Y-112548496D02*
X156827580Y-112548496D01*
X157399009Y-112548496D02*
X157446628Y-112500877D01*
X157446628Y-112500877D02*
X157494247Y-112405639D01*
X157494247Y-112405639D02*
X157494247Y-112262782D01*
X157494247Y-112262782D02*
X157446628Y-112167544D01*
X157446628Y-112167544D02*
X157351390Y-112119925D01*
X157351390Y-112119925D02*
X156827580Y-112119925D01*
X156875200Y-111262782D02*
X156827580Y-111358020D01*
X156827580Y-111358020D02*
X156827580Y-111548496D01*
X156827580Y-111548496D02*
X156875200Y-111643734D01*
X156875200Y-111643734D02*
X156970438Y-111691353D01*
X156970438Y-111691353D02*
X157351390Y-111691353D01*
X157351390Y-111691353D02*
X157446628Y-111643734D01*
X157446628Y-111643734D02*
X157494247Y-111548496D01*
X157494247Y-111548496D02*
X157494247Y-111358020D01*
X157494247Y-111358020D02*
X157446628Y-111262782D01*
X157446628Y-111262782D02*
X157351390Y-111215163D01*
X157351390Y-111215163D02*
X157256152Y-111215163D01*
X157256152Y-111215163D02*
X157160914Y-111691353D01*
X156827580Y-110358020D02*
X157827580Y-110358020D01*
X156875200Y-110358020D02*
X156827580Y-110453258D01*
X156827580Y-110453258D02*
X156827580Y-110643734D01*
X156827580Y-110643734D02*
X156875200Y-110738972D01*
X156875200Y-110738972D02*
X156922819Y-110786591D01*
X156922819Y-110786591D02*
X157018057Y-110834210D01*
X157018057Y-110834210D02*
X157303771Y-110834210D01*
X157303771Y-110834210D02*
X157399009Y-110786591D01*
X157399009Y-110786591D02*
X157446628Y-110738972D01*
X157446628Y-110738972D02*
X157494247Y-110643734D01*
X157494247Y-110643734D02*
X157494247Y-110453258D01*
X157494247Y-110453258D02*
X157446628Y-110358020D01*
X156827580Y-109119924D02*
X157827580Y-109119924D01*
X157446628Y-109119924D02*
X157494247Y-109024686D01*
X157494247Y-109024686D02*
X157494247Y-108834210D01*
X157494247Y-108834210D02*
X157446628Y-108738972D01*
X157446628Y-108738972D02*
X157399009Y-108691353D01*
X157399009Y-108691353D02*
X157303771Y-108643734D01*
X157303771Y-108643734D02*
X157018057Y-108643734D01*
X157018057Y-108643734D02*
X156922819Y-108691353D01*
X156922819Y-108691353D02*
X156875200Y-108738972D01*
X156875200Y-108738972D02*
X156827580Y-108834210D01*
X156827580Y-108834210D02*
X156827580Y-109024686D01*
X156827580Y-109024686D02*
X156875200Y-109119924D01*
X157494247Y-108310400D02*
X156827580Y-108072305D01*
X157494247Y-107834210D02*
X156827580Y-108072305D01*
X156827580Y-108072305D02*
X156589485Y-108167543D01*
X156589485Y-108167543D02*
X156541866Y-108215162D01*
X156541866Y-108215162D02*
X156494247Y-108310400D01*
X156922819Y-106119924D02*
X156875200Y-106167543D01*
X156875200Y-106167543D02*
X156827580Y-106310400D01*
X156827580Y-106310400D02*
X156827580Y-106405638D01*
X156827580Y-106405638D02*
X156875200Y-106548495D01*
X156875200Y-106548495D02*
X156970438Y-106643733D01*
X156970438Y-106643733D02*
X157065676Y-106691352D01*
X157065676Y-106691352D02*
X157256152Y-106738971D01*
X157256152Y-106738971D02*
X157399009Y-106738971D01*
X157399009Y-106738971D02*
X157589485Y-106691352D01*
X157589485Y-106691352D02*
X157684723Y-106643733D01*
X157684723Y-106643733D02*
X157779961Y-106548495D01*
X157779961Y-106548495D02*
X157827580Y-106405638D01*
X157827580Y-106405638D02*
X157827580Y-106310400D01*
X157827580Y-106310400D02*
X157779961Y-106167543D01*
X157779961Y-106167543D02*
X157732342Y-106119924D01*
X156827580Y-105548495D02*
X156875200Y-105643733D01*
X156875200Y-105643733D02*
X156922819Y-105691352D01*
X156922819Y-105691352D02*
X157018057Y-105738971D01*
X157018057Y-105738971D02*
X157303771Y-105738971D01*
X157303771Y-105738971D02*
X157399009Y-105691352D01*
X157399009Y-105691352D02*
X157446628Y-105643733D01*
X157446628Y-105643733D02*
X157494247Y-105548495D01*
X157494247Y-105548495D02*
X157494247Y-105405638D01*
X157494247Y-105405638D02*
X157446628Y-105310400D01*
X157446628Y-105310400D02*
X157399009Y-105262781D01*
X157399009Y-105262781D02*
X157303771Y-105215162D01*
X157303771Y-105215162D02*
X157018057Y-105215162D01*
X157018057Y-105215162D02*
X156922819Y-105262781D01*
X156922819Y-105262781D02*
X156875200Y-105310400D01*
X156875200Y-105310400D02*
X156827580Y-105405638D01*
X156827580Y-105405638D02*
X156827580Y-105548495D01*
X157494247Y-104786590D02*
X156827580Y-104786590D01*
X157399009Y-104786590D02*
X157446628Y-104738971D01*
X157446628Y-104738971D02*
X157494247Y-104643733D01*
X157494247Y-104643733D02*
X157494247Y-104500876D01*
X157494247Y-104500876D02*
X157446628Y-104405638D01*
X157446628Y-104405638D02*
X157351390Y-104358019D01*
X157351390Y-104358019D02*
X156827580Y-104358019D01*
X157494247Y-103881828D02*
X156827580Y-103881828D01*
X157399009Y-103881828D02*
X157446628Y-103834209D01*
X157446628Y-103834209D02*
X157494247Y-103738971D01*
X157494247Y-103738971D02*
X157494247Y-103596114D01*
X157494247Y-103596114D02*
X157446628Y-103500876D01*
X157446628Y-103500876D02*
X157351390Y-103453257D01*
X157351390Y-103453257D02*
X156827580Y-103453257D01*
X156827580Y-102834209D02*
X156875200Y-102929447D01*
X156875200Y-102929447D02*
X156922819Y-102977066D01*
X156922819Y-102977066D02*
X157018057Y-103024685D01*
X157018057Y-103024685D02*
X157303771Y-103024685D01*
X157303771Y-103024685D02*
X157399009Y-102977066D01*
X157399009Y-102977066D02*
X157446628Y-102929447D01*
X157446628Y-102929447D02*
X157494247Y-102834209D01*
X157494247Y-102834209D02*
X157494247Y-102691352D01*
X157494247Y-102691352D02*
X157446628Y-102596114D01*
X157446628Y-102596114D02*
X157399009Y-102548495D01*
X157399009Y-102548495D02*
X157303771Y-102500876D01*
X157303771Y-102500876D02*
X157018057Y-102500876D01*
X157018057Y-102500876D02*
X156922819Y-102548495D01*
X156922819Y-102548495D02*
X156875200Y-102596114D01*
X156875200Y-102596114D02*
X156827580Y-102691352D01*
X156827580Y-102691352D02*
X156827580Y-102834209D01*
X156827580Y-102072304D02*
X157494247Y-102072304D01*
X157303771Y-102072304D02*
X157399009Y-102024685D01*
X157399009Y-102024685D02*
X157446628Y-101977066D01*
X157446628Y-101977066D02*
X157494247Y-101881828D01*
X157494247Y-101881828D02*
X157494247Y-101786590D01*
X156827580Y-99881827D02*
X156827580Y-99929447D01*
X156827580Y-99929447D02*
X156875200Y-100024685D01*
X156875200Y-100024685D02*
X157018057Y-100167542D01*
X157018057Y-100167542D02*
X157303771Y-100405637D01*
X157303771Y-100405637D02*
X157446628Y-100500875D01*
X157446628Y-100500875D02*
X157589485Y-100548494D01*
X157589485Y-100548494D02*
X157684723Y-100548494D01*
X157684723Y-100548494D02*
X157779961Y-100500875D01*
X157779961Y-100500875D02*
X157827580Y-100405637D01*
X157827580Y-100405637D02*
X157827580Y-100358018D01*
X157827580Y-100358018D02*
X157779961Y-100262780D01*
X157779961Y-100262780D02*
X157684723Y-100215161D01*
X157684723Y-100215161D02*
X157637104Y-100215161D01*
X157637104Y-100215161D02*
X157541866Y-100262780D01*
X157541866Y-100262780D02*
X157494247Y-100310399D01*
X157494247Y-100310399D02*
X157303771Y-100596113D01*
X157303771Y-100596113D02*
X157256152Y-100643732D01*
X157256152Y-100643732D02*
X157160914Y-100691351D01*
X157160914Y-100691351D02*
X157018057Y-100691351D01*
X157018057Y-100691351D02*
X156922819Y-100643732D01*
X156922819Y-100643732D02*
X156875200Y-100596113D01*
X156875200Y-100596113D02*
X156827580Y-100500875D01*
X156827580Y-100500875D02*
X156827580Y-100358018D01*
X156827580Y-100358018D02*
X156875200Y-100262780D01*
X156875200Y-100262780D02*
X156922819Y-100215161D01*
X156922819Y-100215161D02*
X157113295Y-100072304D01*
X157113295Y-100072304D02*
X157256152Y-100024685D01*
X157256152Y-100024685D02*
X157351390Y-100024685D01*
X156827580Y-98691351D02*
X157827580Y-98691351D01*
X157827580Y-98691351D02*
X157113295Y-98358018D01*
X157113295Y-98358018D02*
X157827580Y-98024685D01*
X157827580Y-98024685D02*
X156827580Y-98024685D01*
X156827580Y-97119923D02*
X157351390Y-97119923D01*
X157351390Y-97119923D02*
X157446628Y-97167542D01*
X157446628Y-97167542D02*
X157494247Y-97262780D01*
X157494247Y-97262780D02*
X157494247Y-97453256D01*
X157494247Y-97453256D02*
X157446628Y-97548494D01*
X156875200Y-97119923D02*
X156827580Y-97215161D01*
X156827580Y-97215161D02*
X156827580Y-97453256D01*
X156827580Y-97453256D02*
X156875200Y-97548494D01*
X156875200Y-97548494D02*
X156970438Y-97596113D01*
X156970438Y-97596113D02*
X157065676Y-97596113D01*
X157065676Y-97596113D02*
X157160914Y-97548494D01*
X157160914Y-97548494D02*
X157208533Y-97453256D01*
X157208533Y-97453256D02*
X157208533Y-97215161D01*
X157208533Y-97215161D02*
X157256152Y-97119923D01*
X157494247Y-96786589D02*
X157494247Y-96405637D01*
X157827580Y-96643732D02*
X156970438Y-96643732D01*
X156970438Y-96643732D02*
X156875200Y-96596113D01*
X156875200Y-96596113D02*
X156827580Y-96500875D01*
X156827580Y-96500875D02*
X156827580Y-96405637D01*
X157494247Y-96215160D02*
X157494247Y-95834208D01*
X157827580Y-96072303D02*
X156970438Y-96072303D01*
X156970438Y-96072303D02*
X156875200Y-96024684D01*
X156875200Y-96024684D02*
X156827580Y-95929446D01*
X156827580Y-95929446D02*
X156827580Y-95834208D01*
X156827580Y-95500874D02*
X157827580Y-95500874D01*
X156827580Y-95072303D02*
X157351390Y-95072303D01*
X157351390Y-95072303D02*
X157446628Y-95119922D01*
X157446628Y-95119922D02*
X157494247Y-95215160D01*
X157494247Y-95215160D02*
X157494247Y-95358017D01*
X157494247Y-95358017D02*
X157446628Y-95453255D01*
X157446628Y-95453255D02*
X157399009Y-95500874D01*
X156875200Y-94215160D02*
X156827580Y-94310398D01*
X156827580Y-94310398D02*
X156827580Y-94500874D01*
X156827580Y-94500874D02*
X156875200Y-94596112D01*
X156875200Y-94596112D02*
X156970438Y-94643731D01*
X156970438Y-94643731D02*
X157351390Y-94643731D01*
X157351390Y-94643731D02*
X157446628Y-94596112D01*
X157446628Y-94596112D02*
X157494247Y-94500874D01*
X157494247Y-94500874D02*
X157494247Y-94310398D01*
X157494247Y-94310398D02*
X157446628Y-94215160D01*
X157446628Y-94215160D02*
X157351390Y-94167541D01*
X157351390Y-94167541D02*
X157256152Y-94167541D01*
X157256152Y-94167541D02*
X157160914Y-94643731D01*
X157494247Y-93834207D02*
X156827580Y-93643731D01*
X156827580Y-93643731D02*
X157303771Y-93453255D01*
X157303771Y-93453255D02*
X156827580Y-93262779D01*
X156827580Y-93262779D02*
X157494247Y-93072303D01*
X156827580Y-91453255D02*
X156827580Y-91929445D01*
X156827580Y-91929445D02*
X157827580Y-91929445D01*
X156827580Y-90691350D02*
X157351390Y-90691350D01*
X157351390Y-90691350D02*
X157446628Y-90738969D01*
X157446628Y-90738969D02*
X157494247Y-90834207D01*
X157494247Y-90834207D02*
X157494247Y-91024683D01*
X157494247Y-91024683D02*
X157446628Y-91119921D01*
X156875200Y-90691350D02*
X156827580Y-90786588D01*
X156827580Y-90786588D02*
X156827580Y-91024683D01*
X156827580Y-91024683D02*
X156875200Y-91119921D01*
X156875200Y-91119921D02*
X156970438Y-91167540D01*
X156970438Y-91167540D02*
X157065676Y-91167540D01*
X157065676Y-91167540D02*
X157160914Y-91119921D01*
X157160914Y-91119921D02*
X157208533Y-91024683D01*
X157208533Y-91024683D02*
X157208533Y-90786588D01*
X157208533Y-90786588D02*
X157256152Y-90691350D01*
X156827580Y-90215159D02*
X157494247Y-90215159D01*
X157303771Y-90215159D02*
X157399009Y-90167540D01*
X157399009Y-90167540D02*
X157446628Y-90119921D01*
X157446628Y-90119921D02*
X157494247Y-90024683D01*
X157494247Y-90024683D02*
X157494247Y-89929445D01*
X156875200Y-89643730D02*
X156827580Y-89548492D01*
X156827580Y-89548492D02*
X156827580Y-89358016D01*
X156827580Y-89358016D02*
X156875200Y-89262778D01*
X156875200Y-89262778D02*
X156970438Y-89215159D01*
X156970438Y-89215159D02*
X157018057Y-89215159D01*
X157018057Y-89215159D02*
X157113295Y-89262778D01*
X157113295Y-89262778D02*
X157160914Y-89358016D01*
X157160914Y-89358016D02*
X157160914Y-89500873D01*
X157160914Y-89500873D02*
X157208533Y-89596111D01*
X157208533Y-89596111D02*
X157303771Y-89643730D01*
X157303771Y-89643730D02*
X157351390Y-89643730D01*
X157351390Y-89643730D02*
X157446628Y-89596111D01*
X157446628Y-89596111D02*
X157494247Y-89500873D01*
X157494247Y-89500873D02*
X157494247Y-89358016D01*
X157494247Y-89358016D02*
X157446628Y-89262778D01*
X156827580Y-88643730D02*
X156875200Y-88738968D01*
X156875200Y-88738968D02*
X156922819Y-88786587D01*
X156922819Y-88786587D02*
X157018057Y-88834206D01*
X157018057Y-88834206D02*
X157303771Y-88834206D01*
X157303771Y-88834206D02*
X157399009Y-88786587D01*
X157399009Y-88786587D02*
X157446628Y-88738968D01*
X157446628Y-88738968D02*
X157494247Y-88643730D01*
X157494247Y-88643730D02*
X157494247Y-88500873D01*
X157494247Y-88500873D02*
X157446628Y-88405635D01*
X157446628Y-88405635D02*
X157399009Y-88358016D01*
X157399009Y-88358016D02*
X157303771Y-88310397D01*
X157303771Y-88310397D02*
X157018057Y-88310397D01*
X157018057Y-88310397D02*
X156922819Y-88358016D01*
X156922819Y-88358016D02*
X156875200Y-88405635D01*
X156875200Y-88405635D02*
X156827580Y-88500873D01*
X156827580Y-88500873D02*
X156827580Y-88643730D01*
X157494247Y-87881825D02*
X156827580Y-87881825D01*
X157399009Y-87881825D02*
X157446628Y-87834206D01*
X157446628Y-87834206D02*
X157494247Y-87738968D01*
X157494247Y-87738968D02*
X157494247Y-87596111D01*
X157494247Y-87596111D02*
X157446628Y-87500873D01*
X157446628Y-87500873D02*
X157351390Y-87453254D01*
X157351390Y-87453254D02*
X156827580Y-87453254D01*
X156827580Y-86215158D02*
X157494247Y-86215158D01*
X157827580Y-86215158D02*
X157779961Y-86262777D01*
X157779961Y-86262777D02*
X157732342Y-86215158D01*
X157732342Y-86215158D02*
X157779961Y-86167539D01*
X157779961Y-86167539D02*
X157827580Y-86215158D01*
X157827580Y-86215158D02*
X157732342Y-86215158D01*
X157494247Y-85738968D02*
X156827580Y-85738968D01*
X157399009Y-85738968D02*
X157446628Y-85691349D01*
X157446628Y-85691349D02*
X157494247Y-85596111D01*
X157494247Y-85596111D02*
X157494247Y-85453254D01*
X157494247Y-85453254D02*
X157446628Y-85358016D01*
X157446628Y-85358016D02*
X157351390Y-85310397D01*
X157351390Y-85310397D02*
X156827580Y-85310397D01*
X157827580Y-84215158D02*
X157827580Y-83643730D01*
X156827580Y-83929444D02*
X157827580Y-83929444D01*
X157494247Y-82881825D02*
X156827580Y-82881825D01*
X157494247Y-83310396D02*
X156970438Y-83310396D01*
X156970438Y-83310396D02*
X156875200Y-83262777D01*
X156875200Y-83262777D02*
X156827580Y-83167539D01*
X156827580Y-83167539D02*
X156827580Y-83024682D01*
X156827580Y-83024682D02*
X156875200Y-82929444D01*
X156875200Y-82929444D02*
X156922819Y-82881825D01*
X156875200Y-81977063D02*
X156827580Y-82072301D01*
X156827580Y-82072301D02*
X156827580Y-82262777D01*
X156827580Y-82262777D02*
X156875200Y-82358015D01*
X156875200Y-82358015D02*
X156922819Y-82405634D01*
X156922819Y-82405634D02*
X157018057Y-82453253D01*
X157018057Y-82453253D02*
X157303771Y-82453253D01*
X157303771Y-82453253D02*
X157399009Y-82405634D01*
X157399009Y-82405634D02*
X157446628Y-82358015D01*
X157446628Y-82358015D02*
X157494247Y-82262777D01*
X157494247Y-82262777D02*
X157494247Y-82072301D01*
X157494247Y-82072301D02*
X157446628Y-81977063D01*
X156875200Y-81596110D02*
X156827580Y-81500872D01*
X156827580Y-81500872D02*
X156827580Y-81310396D01*
X156827580Y-81310396D02*
X156875200Y-81215158D01*
X156875200Y-81215158D02*
X156970438Y-81167539D01*
X156970438Y-81167539D02*
X157018057Y-81167539D01*
X157018057Y-81167539D02*
X157113295Y-81215158D01*
X157113295Y-81215158D02*
X157160914Y-81310396D01*
X157160914Y-81310396D02*
X157160914Y-81453253D01*
X157160914Y-81453253D02*
X157208533Y-81548491D01*
X157208533Y-81548491D02*
X157303771Y-81596110D01*
X157303771Y-81596110D02*
X157351390Y-81596110D01*
X157351390Y-81596110D02*
X157446628Y-81548491D01*
X157446628Y-81548491D02*
X157494247Y-81453253D01*
X157494247Y-81453253D02*
X157494247Y-81310396D01*
X157494247Y-81310396D02*
X157446628Y-81215158D01*
X156827580Y-80596110D02*
X156875200Y-80691348D01*
X156875200Y-80691348D02*
X156922819Y-80738967D01*
X156922819Y-80738967D02*
X157018057Y-80786586D01*
X157018057Y-80786586D02*
X157303771Y-80786586D01*
X157303771Y-80786586D02*
X157399009Y-80738967D01*
X157399009Y-80738967D02*
X157446628Y-80691348D01*
X157446628Y-80691348D02*
X157494247Y-80596110D01*
X157494247Y-80596110D02*
X157494247Y-80453253D01*
X157494247Y-80453253D02*
X157446628Y-80358015D01*
X157446628Y-80358015D02*
X157399009Y-80310396D01*
X157399009Y-80310396D02*
X157303771Y-80262777D01*
X157303771Y-80262777D02*
X157018057Y-80262777D01*
X157018057Y-80262777D02*
X156922819Y-80310396D01*
X156922819Y-80310396D02*
X156875200Y-80358015D01*
X156875200Y-80358015D02*
X156827580Y-80453253D01*
X156827580Y-80453253D02*
X156827580Y-80596110D01*
X157494247Y-79834205D02*
X156827580Y-79834205D01*
X157399009Y-79834205D02*
X157446628Y-79786586D01*
X157446628Y-79786586D02*
X157494247Y-79691348D01*
X157494247Y-79691348D02*
X157494247Y-79548491D01*
X157494247Y-79548491D02*
X157446628Y-79453253D01*
X157446628Y-79453253D02*
X157351390Y-79405634D01*
X157351390Y-79405634D02*
X156827580Y-79405634D01*
X156875200Y-78881824D02*
X156827580Y-78881824D01*
X156827580Y-78881824D02*
X156732342Y-78929443D01*
X156732342Y-78929443D02*
X156684723Y-78977062D01*
X157113295Y-77738967D02*
X157113295Y-77262777D01*
X156827580Y-77834205D02*
X157827580Y-77500872D01*
X157827580Y-77500872D02*
X156827580Y-77167539D01*
X157827580Y-76929443D02*
X157827580Y-76262777D01*
X157827580Y-76262777D02*
X156827580Y-76929443D01*
X156827580Y-76929443D02*
X156827580Y-76262777D01*
X146912580Y-97315713D02*
X146103057Y-97315713D01*
X146103057Y-97315713D02*
X146007819Y-97268094D01*
X146007819Y-97268094D02*
X145960200Y-97220475D01*
X145960200Y-97220475D02*
X145912580Y-97125237D01*
X145912580Y-97125237D02*
X145912580Y-96934761D01*
X145912580Y-96934761D02*
X145960200Y-96839523D01*
X145960200Y-96839523D02*
X146007819Y-96791904D01*
X146007819Y-96791904D02*
X146103057Y-96744285D01*
X146103057Y-96744285D02*
X146912580Y-96744285D01*
X145912580Y-96268094D02*
X146912580Y-96268094D01*
X146912580Y-96268094D02*
X145912580Y-95696666D01*
X145912580Y-95696666D02*
X146912580Y-95696666D01*
X145912580Y-95220475D02*
X146912580Y-95220475D01*
X146912580Y-94887142D02*
X146912580Y-94315714D01*
X145912580Y-94601428D02*
X146912580Y-94601428D01*
X145817342Y-94220476D02*
X145817342Y-93458571D01*
X146817342Y-93268094D02*
X146864961Y-93220475D01*
X146864961Y-93220475D02*
X146912580Y-93125237D01*
X146912580Y-93125237D02*
X146912580Y-92887142D01*
X146912580Y-92887142D02*
X146864961Y-92791904D01*
X146864961Y-92791904D02*
X146817342Y-92744285D01*
X146817342Y-92744285D02*
X146722104Y-92696666D01*
X146722104Y-92696666D02*
X146626866Y-92696666D01*
X146626866Y-92696666D02*
X146484009Y-92744285D01*
X146484009Y-92744285D02*
X145912580Y-93315713D01*
X145912580Y-93315713D02*
X145912580Y-92696666D01*
X154027580Y-118506115D02*
X155027580Y-118506115D01*
X154027580Y-118029925D02*
X155027580Y-118029925D01*
X155027580Y-118029925D02*
X154027580Y-117458497D01*
X154027580Y-117458497D02*
X155027580Y-117458497D01*
X155027580Y-117125163D02*
X155027580Y-116553735D01*
X154027580Y-116839449D02*
X155027580Y-116839449D01*
X139799961Y-117482306D02*
X139847580Y-117577544D01*
X139847580Y-117577544D02*
X139847580Y-117720401D01*
X139847580Y-117720401D02*
X139799961Y-117863258D01*
X139799961Y-117863258D02*
X139704723Y-117958496D01*
X139704723Y-117958496D02*
X139609485Y-118006115D01*
X139609485Y-118006115D02*
X139419009Y-118053734D01*
X139419009Y-118053734D02*
X139276152Y-118053734D01*
X139276152Y-118053734D02*
X139085676Y-118006115D01*
X139085676Y-118006115D02*
X138990438Y-117958496D01*
X138990438Y-117958496D02*
X138895200Y-117863258D01*
X138895200Y-117863258D02*
X138847580Y-117720401D01*
X138847580Y-117720401D02*
X138847580Y-117625163D01*
X138847580Y-117625163D02*
X138895200Y-117482306D01*
X138895200Y-117482306D02*
X138942819Y-117434687D01*
X138942819Y-117434687D02*
X139276152Y-117434687D01*
X139276152Y-117434687D02*
X139276152Y-117625163D01*
X138847580Y-117006115D02*
X139847580Y-117006115D01*
X139847580Y-117006115D02*
X138847580Y-116434687D01*
X138847580Y-116434687D02*
X139847580Y-116434687D01*
X138847580Y-115958496D02*
X139847580Y-115958496D01*
X139847580Y-115958496D02*
X139847580Y-115720401D01*
X139847580Y-115720401D02*
X139799961Y-115577544D01*
X139799961Y-115577544D02*
X139704723Y-115482306D01*
X139704723Y-115482306D02*
X139609485Y-115434687D01*
X139609485Y-115434687D02*
X139419009Y-115387068D01*
X139419009Y-115387068D02*
X139276152Y-115387068D01*
X139276152Y-115387068D02*
X139085676Y-115434687D01*
X139085676Y-115434687D02*
X138990438Y-115482306D01*
X138990438Y-115482306D02*
X138895200Y-115577544D01*
X138895200Y-115577544D02*
X138847580Y-115720401D01*
X138847580Y-115720401D02*
X138847580Y-115958496D01*
X137177580Y-118078972D02*
X136177580Y-117745639D01*
X136177580Y-117745639D02*
X137177580Y-117412306D01*
X136272819Y-116507544D02*
X136225200Y-116555163D01*
X136225200Y-116555163D02*
X136177580Y-116698020D01*
X136177580Y-116698020D02*
X136177580Y-116793258D01*
X136177580Y-116793258D02*
X136225200Y-116936115D01*
X136225200Y-116936115D02*
X136320438Y-117031353D01*
X136320438Y-117031353D02*
X136415676Y-117078972D01*
X136415676Y-117078972D02*
X136606152Y-117126591D01*
X136606152Y-117126591D02*
X136749009Y-117126591D01*
X136749009Y-117126591D02*
X136939485Y-117078972D01*
X136939485Y-117078972D02*
X137034723Y-117031353D01*
X137034723Y-117031353D02*
X137129961Y-116936115D01*
X137129961Y-116936115D02*
X137177580Y-116793258D01*
X137177580Y-116793258D02*
X137177580Y-116698020D01*
X137177580Y-116698020D02*
X137129961Y-116555163D01*
X137129961Y-116555163D02*
X137082342Y-116507544D01*
X136272819Y-115507544D02*
X136225200Y-115555163D01*
X136225200Y-115555163D02*
X136177580Y-115698020D01*
X136177580Y-115698020D02*
X136177580Y-115793258D01*
X136177580Y-115793258D02*
X136225200Y-115936115D01*
X136225200Y-115936115D02*
X136320438Y-116031353D01*
X136320438Y-116031353D02*
X136415676Y-116078972D01*
X136415676Y-116078972D02*
X136606152Y-116126591D01*
X136606152Y-116126591D02*
X136749009Y-116126591D01*
X136749009Y-116126591D02*
X136939485Y-116078972D01*
X136939485Y-116078972D02*
X137034723Y-116031353D01*
X137034723Y-116031353D02*
X137129961Y-115936115D01*
X137129961Y-115936115D02*
X137177580Y-115793258D01*
X137177580Y-115793258D02*
X137177580Y-115698020D01*
X137177580Y-115698020D02*
X137129961Y-115555163D01*
X137129961Y-115555163D02*
X137082342Y-115507544D01*
%TO.C,UNIT_2*%
X158450000Y-122340000D02*
X130450000Y-122340000D01*
X130450000Y-82340000D01*
X158450000Y-82340000D01*
X158450000Y-122340000D01*
%TD*%
M02*
