%TF.GenerationSoftware,KiCad,Pcbnew,8.0.6*%
%TF.CreationDate,2025-01-26T20:41:49-07:00*%
%TF.ProjectId,Temperature Sensor,54656d70-6572-4617-9475-72652053656e,rev?*%
%TF.SameCoordinates,Original*%
%TF.FileFunction,Legend,Top*%
%TF.FilePolarity,Positive*%
%FSLAX46Y46*%
G04 Gerber Fmt 4.6, Leading zero omitted, Abs format (unit mm)*
G04 Created by KiCad (PCBNEW 8.0.6) date 2025-01-26 20:41:49*
%MOMM*%
%LPD*%
G01*
G04 APERTURE LIST*
%ADD10C,0.150000*%
%ADD11C,0.100000*%
%ADD12C,0.000000*%
%ADD13C,0.127000*%
%ADD14C,0.200000*%
G04 APERTURE END LIST*
D10*
X136860588Y-79369819D02*
X136289160Y-79369819D01*
X136574874Y-79369819D02*
X136574874Y-78369819D01*
X136574874Y-78369819D02*
X136479636Y-78512676D01*
X136479636Y-78512676D02*
X136384398Y-78607914D01*
X136384398Y-78607914D02*
X136289160Y-78655533D01*
X137717731Y-78369819D02*
X137527255Y-78369819D01*
X137527255Y-78369819D02*
X137432017Y-78417438D01*
X137432017Y-78417438D02*
X137384398Y-78465057D01*
X137384398Y-78465057D02*
X137289160Y-78607914D01*
X137289160Y-78607914D02*
X137241541Y-78798390D01*
X137241541Y-78798390D02*
X137241541Y-79179342D01*
X137241541Y-79179342D02*
X137289160Y-79274580D01*
X137289160Y-79274580D02*
X137336779Y-79322200D01*
X137336779Y-79322200D02*
X137432017Y-79369819D01*
X137432017Y-79369819D02*
X137622493Y-79369819D01*
X137622493Y-79369819D02*
X137717731Y-79322200D01*
X137717731Y-79322200D02*
X137765350Y-79274580D01*
X137765350Y-79274580D02*
X137812969Y-79179342D01*
X137812969Y-79179342D02*
X137812969Y-78941247D01*
X137812969Y-78941247D02*
X137765350Y-78846009D01*
X137765350Y-78846009D02*
X137717731Y-78798390D01*
X137717731Y-78798390D02*
X137622493Y-78750771D01*
X137622493Y-78750771D02*
X137432017Y-78750771D01*
X137432017Y-78750771D02*
X137336779Y-78798390D01*
X137336779Y-78798390D02*
X137289160Y-78846009D01*
X137289160Y-78846009D02*
X137241541Y-78941247D01*
X138955827Y-79322200D02*
X139098684Y-79369819D01*
X139098684Y-79369819D02*
X139336779Y-79369819D01*
X139336779Y-79369819D02*
X139432017Y-79322200D01*
X139432017Y-79322200D02*
X139479636Y-79274580D01*
X139479636Y-79274580D02*
X139527255Y-79179342D01*
X139527255Y-79179342D02*
X139527255Y-79084104D01*
X139527255Y-79084104D02*
X139479636Y-78988866D01*
X139479636Y-78988866D02*
X139432017Y-78941247D01*
X139432017Y-78941247D02*
X139336779Y-78893628D01*
X139336779Y-78893628D02*
X139146303Y-78846009D01*
X139146303Y-78846009D02*
X139051065Y-78798390D01*
X139051065Y-78798390D02*
X139003446Y-78750771D01*
X139003446Y-78750771D02*
X138955827Y-78655533D01*
X138955827Y-78655533D02*
X138955827Y-78560295D01*
X138955827Y-78560295D02*
X139003446Y-78465057D01*
X139003446Y-78465057D02*
X139051065Y-78417438D01*
X139051065Y-78417438D02*
X139146303Y-78369819D01*
X139146303Y-78369819D02*
X139384398Y-78369819D01*
X139384398Y-78369819D02*
X139527255Y-78417438D01*
X140527255Y-79274580D02*
X140479636Y-79322200D01*
X140479636Y-79322200D02*
X140336779Y-79369819D01*
X140336779Y-79369819D02*
X140241541Y-79369819D01*
X140241541Y-79369819D02*
X140098684Y-79322200D01*
X140098684Y-79322200D02*
X140003446Y-79226961D01*
X140003446Y-79226961D02*
X139955827Y-79131723D01*
X139955827Y-79131723D02*
X139908208Y-78941247D01*
X139908208Y-78941247D02*
X139908208Y-78798390D01*
X139908208Y-78798390D02*
X139955827Y-78607914D01*
X139955827Y-78607914D02*
X140003446Y-78512676D01*
X140003446Y-78512676D02*
X140098684Y-78417438D01*
X140098684Y-78417438D02*
X140241541Y-78369819D01*
X140241541Y-78369819D02*
X140336779Y-78369819D01*
X140336779Y-78369819D02*
X140479636Y-78417438D01*
X140479636Y-78417438D02*
X140527255Y-78465057D01*
X140955827Y-79369819D02*
X140955827Y-78369819D01*
X141527255Y-79369819D02*
X141098684Y-78798390D01*
X141527255Y-78369819D02*
X140955827Y-78941247D01*
X144630180Y-95836779D02*
X145630180Y-95836779D01*
X145630180Y-95836779D02*
X144630180Y-96408207D01*
X144630180Y-96408207D02*
X145630180Y-96408207D01*
X144915895Y-96836779D02*
X144915895Y-97312969D01*
X144630180Y-96741541D02*
X145630180Y-97074874D01*
X145630180Y-97074874D02*
X144630180Y-97408207D01*
X144630180Y-97741541D02*
X145630180Y-97741541D01*
X145630180Y-97741541D02*
X144630180Y-98312969D01*
X144630180Y-98312969D02*
X145630180Y-98312969D01*
X145630180Y-98979636D02*
X145630180Y-99170112D01*
X145630180Y-99170112D02*
X145582561Y-99265350D01*
X145582561Y-99265350D02*
X145487323Y-99360588D01*
X145487323Y-99360588D02*
X145296847Y-99408207D01*
X145296847Y-99408207D02*
X144963514Y-99408207D01*
X144963514Y-99408207D02*
X144773038Y-99360588D01*
X144773038Y-99360588D02*
X144677800Y-99265350D01*
X144677800Y-99265350D02*
X144630180Y-99170112D01*
X144630180Y-99170112D02*
X144630180Y-98979636D01*
X144630180Y-98979636D02*
X144677800Y-98884398D01*
X144677800Y-98884398D02*
X144773038Y-98789160D01*
X144773038Y-98789160D02*
X144963514Y-98741541D01*
X144963514Y-98741541D02*
X145296847Y-98741541D01*
X145296847Y-98741541D02*
X145487323Y-98789160D01*
X145487323Y-98789160D02*
X145582561Y-98884398D01*
X145582561Y-98884398D02*
X145630180Y-98979636D01*
X145630180Y-100455827D02*
X145630180Y-101027255D01*
X144630180Y-100741541D02*
X145630180Y-100741541D01*
X144630180Y-101360589D02*
X145630180Y-101360589D01*
X145153990Y-101360589D02*
X145153990Y-101932017D01*
X144630180Y-101932017D02*
X145630180Y-101932017D01*
X144630180Y-102408208D02*
X145630180Y-102408208D01*
X144677800Y-102836779D02*
X144630180Y-102979636D01*
X144630180Y-102979636D02*
X144630180Y-103217731D01*
X144630180Y-103217731D02*
X144677800Y-103312969D01*
X144677800Y-103312969D02*
X144725419Y-103360588D01*
X144725419Y-103360588D02*
X144820657Y-103408207D01*
X144820657Y-103408207D02*
X144915895Y-103408207D01*
X144915895Y-103408207D02*
X145011133Y-103360588D01*
X145011133Y-103360588D02*
X145058752Y-103312969D01*
X145058752Y-103312969D02*
X145106371Y-103217731D01*
X145106371Y-103217731D02*
X145153990Y-103027255D01*
X145153990Y-103027255D02*
X145201609Y-102932017D01*
X145201609Y-102932017D02*
X145249228Y-102884398D01*
X145249228Y-102884398D02*
X145344466Y-102836779D01*
X145344466Y-102836779D02*
X145439704Y-102836779D01*
X145439704Y-102836779D02*
X145534942Y-102884398D01*
X145534942Y-102884398D02*
X145582561Y-102932017D01*
X145582561Y-102932017D02*
X145630180Y-103027255D01*
X145630180Y-103027255D02*
X145630180Y-103265350D01*
X145630180Y-103265350D02*
X145582561Y-103408207D01*
X144677800Y-104551065D02*
X144630180Y-104693922D01*
X144630180Y-104693922D02*
X144630180Y-104932017D01*
X144630180Y-104932017D02*
X144677800Y-105027255D01*
X144677800Y-105027255D02*
X144725419Y-105074874D01*
X144725419Y-105074874D02*
X144820657Y-105122493D01*
X144820657Y-105122493D02*
X144915895Y-105122493D01*
X144915895Y-105122493D02*
X145011133Y-105074874D01*
X145011133Y-105074874D02*
X145058752Y-105027255D01*
X145058752Y-105027255D02*
X145106371Y-104932017D01*
X145106371Y-104932017D02*
X145153990Y-104741541D01*
X145153990Y-104741541D02*
X145201609Y-104646303D01*
X145201609Y-104646303D02*
X145249228Y-104598684D01*
X145249228Y-104598684D02*
X145344466Y-104551065D01*
X145344466Y-104551065D02*
X145439704Y-104551065D01*
X145439704Y-104551065D02*
X145534942Y-104598684D01*
X145534942Y-104598684D02*
X145582561Y-104646303D01*
X145582561Y-104646303D02*
X145630180Y-104741541D01*
X145630180Y-104741541D02*
X145630180Y-104979636D01*
X145630180Y-104979636D02*
X145582561Y-105122493D01*
X144630180Y-105551065D02*
X145630180Y-105551065D01*
X144630180Y-106027255D02*
X145630180Y-106027255D01*
X145630180Y-106027255D02*
X145630180Y-106265350D01*
X145630180Y-106265350D02*
X145582561Y-106408207D01*
X145582561Y-106408207D02*
X145487323Y-106503445D01*
X145487323Y-106503445D02*
X145392085Y-106551064D01*
X145392085Y-106551064D02*
X145201609Y-106598683D01*
X145201609Y-106598683D02*
X145058752Y-106598683D01*
X145058752Y-106598683D02*
X144868276Y-106551064D01*
X144868276Y-106551064D02*
X144773038Y-106503445D01*
X144773038Y-106503445D02*
X144677800Y-106408207D01*
X144677800Y-106408207D02*
X144630180Y-106265350D01*
X144630180Y-106265350D02*
X144630180Y-106027255D01*
X145153990Y-107027255D02*
X145153990Y-107360588D01*
X144630180Y-107503445D02*
X144630180Y-107027255D01*
X144630180Y-107027255D02*
X145630180Y-107027255D01*
X145630180Y-107027255D02*
X145630180Y-107503445D01*
D11*
X145803884Y-62622419D02*
X145803884Y-61622419D01*
X145803884Y-62098609D02*
X146375312Y-62098609D01*
X146375312Y-62622419D02*
X146375312Y-61622419D01*
X150030074Y-62622419D02*
X149553884Y-62622419D01*
X149553884Y-62622419D02*
X149553884Y-61622419D01*
X138553884Y-62622419D02*
X138553884Y-61622419D01*
X138553884Y-62098609D02*
X139125312Y-62098609D01*
X139125312Y-62622419D02*
X139125312Y-61622419D01*
D10*
X131584228Y-68812969D02*
X131512800Y-68741541D01*
X131512800Y-68741541D02*
X131441371Y-68527255D01*
X131441371Y-68527255D02*
X131441371Y-68384398D01*
X131441371Y-68384398D02*
X131512800Y-68170112D01*
X131512800Y-68170112D02*
X131655657Y-68027255D01*
X131655657Y-68027255D02*
X131798514Y-67955826D01*
X131798514Y-67955826D02*
X132084228Y-67884398D01*
X132084228Y-67884398D02*
X132298514Y-67884398D01*
X132298514Y-67884398D02*
X132584228Y-67955826D01*
X132584228Y-67955826D02*
X132727085Y-68027255D01*
X132727085Y-68027255D02*
X132869942Y-68170112D01*
X132869942Y-68170112D02*
X132941371Y-68384398D01*
X132941371Y-68384398D02*
X132941371Y-68527255D01*
X132941371Y-68527255D02*
X132869942Y-68741541D01*
X132869942Y-68741541D02*
X132798514Y-68812969D01*
X132941371Y-69241541D02*
X131441371Y-69741541D01*
X131441371Y-69741541D02*
X132941371Y-70241541D01*
X132941371Y-70527255D02*
X132941371Y-71384398D01*
X131441371Y-70955826D02*
X132941371Y-70955826D01*
X132941371Y-72812969D02*
X132941371Y-73670112D01*
X131441371Y-73241540D02*
X132941371Y-73241540D01*
X131512800Y-74741540D02*
X131441371Y-74598683D01*
X131441371Y-74598683D02*
X131441371Y-74312969D01*
X131441371Y-74312969D02*
X131512800Y-74170111D01*
X131512800Y-74170111D02*
X131655657Y-74098683D01*
X131655657Y-74098683D02*
X132227085Y-74098683D01*
X132227085Y-74098683D02*
X132369942Y-74170111D01*
X132369942Y-74170111D02*
X132441371Y-74312969D01*
X132441371Y-74312969D02*
X132441371Y-74598683D01*
X132441371Y-74598683D02*
X132369942Y-74741540D01*
X132369942Y-74741540D02*
X132227085Y-74812969D01*
X132227085Y-74812969D02*
X132084228Y-74812969D01*
X132084228Y-74812969D02*
X131941371Y-74098683D01*
X131441371Y-75455825D02*
X132441371Y-75455825D01*
X132298514Y-75455825D02*
X132369942Y-75527254D01*
X132369942Y-75527254D02*
X132441371Y-75670111D01*
X132441371Y-75670111D02*
X132441371Y-75884397D01*
X132441371Y-75884397D02*
X132369942Y-76027254D01*
X132369942Y-76027254D02*
X132227085Y-76098683D01*
X132227085Y-76098683D02*
X131441371Y-76098683D01*
X132227085Y-76098683D02*
X132369942Y-76170111D01*
X132369942Y-76170111D02*
X132441371Y-76312968D01*
X132441371Y-76312968D02*
X132441371Y-76527254D01*
X132441371Y-76527254D02*
X132369942Y-76670111D01*
X132369942Y-76670111D02*
X132227085Y-76741540D01*
X132227085Y-76741540D02*
X131441371Y-76741540D01*
X132441371Y-77455825D02*
X130941371Y-77455825D01*
X132369942Y-77455825D02*
X132441371Y-77598683D01*
X132441371Y-77598683D02*
X132441371Y-77884397D01*
X132441371Y-77884397D02*
X132369942Y-78027254D01*
X132369942Y-78027254D02*
X132298514Y-78098683D01*
X132298514Y-78098683D02*
X132155657Y-78170111D01*
X132155657Y-78170111D02*
X131727085Y-78170111D01*
X131727085Y-78170111D02*
X131584228Y-78098683D01*
X131584228Y-78098683D02*
X131512800Y-78027254D01*
X131512800Y-78027254D02*
X131441371Y-77884397D01*
X131441371Y-77884397D02*
X131441371Y-77598683D01*
X131441371Y-77598683D02*
X131512800Y-77455825D01*
X131512800Y-79384397D02*
X131441371Y-79241540D01*
X131441371Y-79241540D02*
X131441371Y-78955826D01*
X131441371Y-78955826D02*
X131512800Y-78812968D01*
X131512800Y-78812968D02*
X131655657Y-78741540D01*
X131655657Y-78741540D02*
X132227085Y-78741540D01*
X132227085Y-78741540D02*
X132369942Y-78812968D01*
X132369942Y-78812968D02*
X132441371Y-78955826D01*
X132441371Y-78955826D02*
X132441371Y-79241540D01*
X132441371Y-79241540D02*
X132369942Y-79384397D01*
X132369942Y-79384397D02*
X132227085Y-79455826D01*
X132227085Y-79455826D02*
X132084228Y-79455826D01*
X132084228Y-79455826D02*
X131941371Y-78741540D01*
X131441371Y-80098682D02*
X132441371Y-80098682D01*
X132155657Y-80098682D02*
X132298514Y-80170111D01*
X132298514Y-80170111D02*
X132369942Y-80241540D01*
X132369942Y-80241540D02*
X132441371Y-80384397D01*
X132441371Y-80384397D02*
X132441371Y-80527254D01*
X131441371Y-81670111D02*
X132227085Y-81670111D01*
X132227085Y-81670111D02*
X132369942Y-81598682D01*
X132369942Y-81598682D02*
X132441371Y-81455825D01*
X132441371Y-81455825D02*
X132441371Y-81170111D01*
X132441371Y-81170111D02*
X132369942Y-81027253D01*
X131512800Y-81670111D02*
X131441371Y-81527253D01*
X131441371Y-81527253D02*
X131441371Y-81170111D01*
X131441371Y-81170111D02*
X131512800Y-81027253D01*
X131512800Y-81027253D02*
X131655657Y-80955825D01*
X131655657Y-80955825D02*
X131798514Y-80955825D01*
X131798514Y-80955825D02*
X131941371Y-81027253D01*
X131941371Y-81027253D02*
X132012800Y-81170111D01*
X132012800Y-81170111D02*
X132012800Y-81527253D01*
X132012800Y-81527253D02*
X132084228Y-81670111D01*
X132441371Y-82170111D02*
X132441371Y-82741539D01*
X132941371Y-82384396D02*
X131655657Y-82384396D01*
X131655657Y-82384396D02*
X131512800Y-82455825D01*
X131512800Y-82455825D02*
X131441371Y-82598682D01*
X131441371Y-82598682D02*
X131441371Y-82741539D01*
X132441371Y-83884397D02*
X131441371Y-83884397D01*
X132441371Y-83241539D02*
X131655657Y-83241539D01*
X131655657Y-83241539D02*
X131512800Y-83312968D01*
X131512800Y-83312968D02*
X131441371Y-83455825D01*
X131441371Y-83455825D02*
X131441371Y-83670111D01*
X131441371Y-83670111D02*
X131512800Y-83812968D01*
X131512800Y-83812968D02*
X131584228Y-83884397D01*
X131441371Y-84598682D02*
X132441371Y-84598682D01*
X132155657Y-84598682D02*
X132298514Y-84670111D01*
X132298514Y-84670111D02*
X132369942Y-84741540D01*
X132369942Y-84741540D02*
X132441371Y-84884397D01*
X132441371Y-84884397D02*
X132441371Y-85027254D01*
X131512800Y-86098682D02*
X131441371Y-85955825D01*
X131441371Y-85955825D02*
X131441371Y-85670111D01*
X131441371Y-85670111D02*
X131512800Y-85527253D01*
X131512800Y-85527253D02*
X131655657Y-85455825D01*
X131655657Y-85455825D02*
X132227085Y-85455825D01*
X132227085Y-85455825D02*
X132369942Y-85527253D01*
X132369942Y-85527253D02*
X132441371Y-85670111D01*
X132441371Y-85670111D02*
X132441371Y-85955825D01*
X132441371Y-85955825D02*
X132369942Y-86098682D01*
X132369942Y-86098682D02*
X132227085Y-86170111D01*
X132227085Y-86170111D02*
X132084228Y-86170111D01*
X132084228Y-86170111D02*
X131941371Y-85455825D01*
X131512800Y-87884396D02*
X131441371Y-88098682D01*
X131441371Y-88098682D02*
X131441371Y-88455824D01*
X131441371Y-88455824D02*
X131512800Y-88598682D01*
X131512800Y-88598682D02*
X131584228Y-88670110D01*
X131584228Y-88670110D02*
X131727085Y-88741539D01*
X131727085Y-88741539D02*
X131869942Y-88741539D01*
X131869942Y-88741539D02*
X132012800Y-88670110D01*
X132012800Y-88670110D02*
X132084228Y-88598682D01*
X132084228Y-88598682D02*
X132155657Y-88455824D01*
X132155657Y-88455824D02*
X132227085Y-88170110D01*
X132227085Y-88170110D02*
X132298514Y-88027253D01*
X132298514Y-88027253D02*
X132369942Y-87955824D01*
X132369942Y-87955824D02*
X132512800Y-87884396D01*
X132512800Y-87884396D02*
X132655657Y-87884396D01*
X132655657Y-87884396D02*
X132798514Y-87955824D01*
X132798514Y-87955824D02*
X132869942Y-88027253D01*
X132869942Y-88027253D02*
X132941371Y-88170110D01*
X132941371Y-88170110D02*
X132941371Y-88527253D01*
X132941371Y-88527253D02*
X132869942Y-88741539D01*
X131512800Y-89955824D02*
X131441371Y-89812967D01*
X131441371Y-89812967D02*
X131441371Y-89527253D01*
X131441371Y-89527253D02*
X131512800Y-89384395D01*
X131512800Y-89384395D02*
X131655657Y-89312967D01*
X131655657Y-89312967D02*
X132227085Y-89312967D01*
X132227085Y-89312967D02*
X132369942Y-89384395D01*
X132369942Y-89384395D02*
X132441371Y-89527253D01*
X132441371Y-89527253D02*
X132441371Y-89812967D01*
X132441371Y-89812967D02*
X132369942Y-89955824D01*
X132369942Y-89955824D02*
X132227085Y-90027253D01*
X132227085Y-90027253D02*
X132084228Y-90027253D01*
X132084228Y-90027253D02*
X131941371Y-89312967D01*
X132441371Y-90670109D02*
X131441371Y-90670109D01*
X132298514Y-90670109D02*
X132369942Y-90741538D01*
X132369942Y-90741538D02*
X132441371Y-90884395D01*
X132441371Y-90884395D02*
X132441371Y-91098681D01*
X132441371Y-91098681D02*
X132369942Y-91241538D01*
X132369942Y-91241538D02*
X132227085Y-91312967D01*
X132227085Y-91312967D02*
X131441371Y-91312967D01*
X131512800Y-91955824D02*
X131441371Y-92098681D01*
X131441371Y-92098681D02*
X131441371Y-92384395D01*
X131441371Y-92384395D02*
X131512800Y-92527252D01*
X131512800Y-92527252D02*
X131655657Y-92598681D01*
X131655657Y-92598681D02*
X131727085Y-92598681D01*
X131727085Y-92598681D02*
X131869942Y-92527252D01*
X131869942Y-92527252D02*
X131941371Y-92384395D01*
X131941371Y-92384395D02*
X131941371Y-92170110D01*
X131941371Y-92170110D02*
X132012800Y-92027252D01*
X132012800Y-92027252D02*
X132155657Y-91955824D01*
X132155657Y-91955824D02*
X132227085Y-91955824D01*
X132227085Y-91955824D02*
X132369942Y-92027252D01*
X132369942Y-92027252D02*
X132441371Y-92170110D01*
X132441371Y-92170110D02*
X132441371Y-92384395D01*
X132441371Y-92384395D02*
X132369942Y-92527252D01*
X131441371Y-93455824D02*
X131512800Y-93312967D01*
X131512800Y-93312967D02*
X131584228Y-93241538D01*
X131584228Y-93241538D02*
X131727085Y-93170110D01*
X131727085Y-93170110D02*
X132155657Y-93170110D01*
X132155657Y-93170110D02*
X132298514Y-93241538D01*
X132298514Y-93241538D02*
X132369942Y-93312967D01*
X132369942Y-93312967D02*
X132441371Y-93455824D01*
X132441371Y-93455824D02*
X132441371Y-93670110D01*
X132441371Y-93670110D02*
X132369942Y-93812967D01*
X132369942Y-93812967D02*
X132298514Y-93884396D01*
X132298514Y-93884396D02*
X132155657Y-93955824D01*
X132155657Y-93955824D02*
X131727085Y-93955824D01*
X131727085Y-93955824D02*
X131584228Y-93884396D01*
X131584228Y-93884396D02*
X131512800Y-93812967D01*
X131512800Y-93812967D02*
X131441371Y-93670110D01*
X131441371Y-93670110D02*
X131441371Y-93455824D01*
X131441371Y-94598681D02*
X132441371Y-94598681D01*
X132155657Y-94598681D02*
X132298514Y-94670110D01*
X132298514Y-94670110D02*
X132369942Y-94741539D01*
X132369942Y-94741539D02*
X132441371Y-94884396D01*
X132441371Y-94884396D02*
X132441371Y-95027253D01*
D11*
X142780074Y-62622419D02*
X142303884Y-62622419D01*
X142303884Y-62622419D02*
X142303884Y-61622419D01*
D12*
%TO.C,G\u002A\u002A\u002A*%
G36*
X137849652Y-127636464D02*
G01*
X137952118Y-127777298D01*
X138018304Y-127960629D01*
X138027709Y-128144405D01*
X138021552Y-128175236D01*
X137947244Y-128311477D01*
X137836831Y-128339719D01*
X137715052Y-128263076D01*
X137624596Y-128125262D01*
X137560159Y-127916250D01*
X137565658Y-127735397D01*
X137634994Y-127613829D01*
X137731409Y-127580174D01*
X137849652Y-127636464D01*
G37*
G36*
X150957772Y-127710167D02*
G01*
X151000893Y-127733375D01*
X151016623Y-127796401D01*
X151004794Y-127919164D01*
X150965236Y-128121582D01*
X150897780Y-128423575D01*
X150880710Y-128498628D01*
X150811382Y-128789312D01*
X150755864Y-128977888D01*
X150704498Y-129086742D01*
X150647628Y-129138258D01*
X150598720Y-129152286D01*
X150487800Y-129137686D01*
X150460848Y-129090987D01*
X150473704Y-128997978D01*
X150508416Y-128811267D01*
X150559204Y-128560781D01*
X150602392Y-128358152D01*
X150668095Y-128066411D01*
X150719312Y-127877234D01*
X150765593Y-127768802D01*
X150816485Y-127719297D01*
X150881539Y-127706900D01*
X150887429Y-127706858D01*
X150957772Y-127710167D01*
G37*
G36*
X141177322Y-127727591D02*
G01*
X141191738Y-127803555D01*
X141187817Y-127817706D01*
X141160754Y-127922660D01*
X141116800Y-128109133D01*
X141063203Y-128344470D01*
X141007209Y-128596015D01*
X140956066Y-128831116D01*
X140917021Y-129017117D01*
X140897322Y-129121364D01*
X140896260Y-129131374D01*
X140841788Y-129155475D01*
X140733637Y-129163716D01*
X140616641Y-129143443D01*
X140598012Y-129069312D01*
X140602080Y-129052868D01*
X140628619Y-128945621D01*
X140674686Y-128747498D01*
X140732705Y-128491373D01*
X140769902Y-128324439D01*
X140834346Y-128042866D01*
X140884311Y-127862884D01*
X140930543Y-127761936D01*
X140983785Y-127717465D01*
X141054783Y-127706916D01*
X141064082Y-127706858D01*
X141177322Y-127727591D01*
G37*
G36*
X141653362Y-127712554D02*
G01*
X141696825Y-127744190D01*
X141707361Y-127823590D01*
X141685737Y-127972575D01*
X141632717Y-128212970D01*
X141598979Y-128356110D01*
X141482584Y-128847007D01*
X141696155Y-128847007D01*
X141842541Y-128859929D01*
X141900974Y-128917304D01*
X141909726Y-129005361D01*
X141901679Y-129093123D01*
X141857707Y-129140506D01*
X141748062Y-129159904D01*
X141542997Y-129163712D01*
X141529676Y-129163716D01*
X141287307Y-129151845D01*
X141166002Y-129115773D01*
X141149626Y-129086581D01*
X141162463Y-128995507D01*
X141197129Y-128810476D01*
X141247856Y-128561170D01*
X141291170Y-128358152D01*
X141356873Y-128066411D01*
X141408090Y-127877234D01*
X141454371Y-127768802D01*
X141505263Y-127719297D01*
X141570317Y-127706900D01*
X141576207Y-127706858D01*
X141653362Y-127712554D01*
G37*
G36*
X144355407Y-127763633D02*
G01*
X144443392Y-127833541D01*
X144547560Y-127985184D01*
X144550654Y-128099614D01*
X144474880Y-128152403D01*
X144342443Y-128119121D01*
X144247058Y-128049528D01*
X144098141Y-127977697D01*
X143954755Y-128026957D01*
X143827040Y-128191798D01*
X143776174Y-128305366D01*
X143715237Y-128550847D01*
X143729779Y-128740533D01*
X143809125Y-128857390D01*
X143942601Y-128884384D01*
X144098129Y-128819119D01*
X144211454Y-128759435D01*
X144284349Y-128781512D01*
X144324681Y-128824942D01*
X144368261Y-128909187D01*
X144322552Y-128989776D01*
X144260131Y-129044292D01*
X144049326Y-129144385D01*
X143813944Y-129150905D01*
X143604556Y-129064512D01*
X143569319Y-129035279D01*
X143428107Y-128843057D01*
X143386300Y-128608739D01*
X143430330Y-128338771D01*
X143547546Y-128066995D01*
X143721576Y-127862165D01*
X143929506Y-127735709D01*
X144148421Y-127699056D01*
X144355407Y-127763633D01*
G37*
G36*
X146455012Y-127710389D02*
G01*
X146586365Y-127726268D01*
X146645695Y-127762426D01*
X146660296Y-127826793D01*
X146660350Y-127833541D01*
X146622098Y-127933843D01*
X146506264Y-127960224D01*
X146432972Y-127963375D01*
X146379725Y-127986870D01*
X146336976Y-128051777D01*
X146295178Y-128179164D01*
X146244782Y-128390095D01*
X146183314Y-128672818D01*
X146126885Y-128919055D01*
X146079861Y-129065891D01*
X146028931Y-129138555D01*
X145960786Y-129162278D01*
X145924355Y-129163716D01*
X145813600Y-129143279D01*
X145796567Y-129058646D01*
X145803985Y-129021197D01*
X145894675Y-128625710D01*
X145959176Y-128339808D01*
X146000488Y-128149800D01*
X146021610Y-128041995D01*
X146025997Y-128007730D01*
X145972666Y-127971517D01*
X145874509Y-127960224D01*
X145764316Y-127939117D01*
X145749775Y-127856875D01*
X145755213Y-127833541D01*
X145787817Y-127765898D01*
X145860819Y-127727535D01*
X146003640Y-127710508D01*
X146224346Y-127706858D01*
X146455012Y-127710389D01*
G37*
G36*
X150205096Y-127742300D02*
G01*
X150356917Y-127829925D01*
X150468548Y-127941676D01*
X150506446Y-128049500D01*
X150495417Y-128082218D01*
X150396028Y-128144352D01*
X150269040Y-128132874D01*
X150184576Y-128055237D01*
X150100219Y-127967430D01*
X149974280Y-127974556D01*
X149838520Y-128068257D01*
X149763396Y-128166085D01*
X149670025Y-128385006D01*
X149641540Y-128603717D01*
X149680018Y-128780775D01*
X149729380Y-128844485D01*
X149842465Y-128884712D01*
X149973941Y-128871813D01*
X150066737Y-128816721D01*
X150080798Y-128777169D01*
X150125728Y-128751538D01*
X150205123Y-128782403D01*
X150293289Y-128874702D01*
X150264332Y-128980865D01*
X150123867Y-129083372D01*
X150106004Y-129091794D01*
X149839435Y-129159628D01*
X149606387Y-129106038D01*
X149476174Y-129008241D01*
X149350908Y-128802172D01*
X149319253Y-128555500D01*
X149368684Y-128296792D01*
X149486681Y-128054615D01*
X149660720Y-127857537D01*
X149878280Y-127734126D01*
X150046628Y-127706858D01*
X150205096Y-127742300D01*
G37*
G36*
X142975056Y-127751421D02*
G01*
X143177429Y-127882283D01*
X143285523Y-128095199D01*
X143303144Y-128258218D01*
X143247337Y-128592767D01*
X143089807Y-128862710D01*
X142844941Y-129054103D01*
X142527127Y-129152999D01*
X142368953Y-129163617D01*
X142193751Y-129152678D01*
X142114195Y-129111540D01*
X142099392Y-129052868D01*
X142112518Y-128945842D01*
X142144865Y-128766204D01*
X142433913Y-128766204D01*
X142444479Y-128837209D01*
X142529849Y-128853361D01*
X142654426Y-128821932D01*
X142782609Y-128750198D01*
X142855253Y-128680111D01*
X142954477Y-128490956D01*
X142985750Y-128289455D01*
X142948515Y-128117257D01*
X142864015Y-128025794D01*
X142736988Y-127972621D01*
X142653865Y-127991367D01*
X142595221Y-128099848D01*
X142541636Y-128315878D01*
X142540193Y-128322813D01*
X142494047Y-128533908D01*
X142453644Y-128699647D01*
X142433913Y-128766204D01*
X142144865Y-128766204D01*
X142148116Y-128748149D01*
X142200022Y-128492524D01*
X142236546Y-128324439D01*
X142374058Y-127706858D01*
X142683175Y-127706858D01*
X142975056Y-127751421D01*
G37*
G36*
X136345947Y-128652296D02*
G01*
X136418434Y-128672053D01*
X136445154Y-128703547D01*
X136518528Y-128783546D01*
X136663031Y-128881410D01*
X136723672Y-128914410D01*
X136885997Y-128989091D01*
X136990873Y-129003137D01*
X137089953Y-128960302D01*
X137117041Y-128943004D01*
X137255371Y-128881889D01*
X137407855Y-128897756D01*
X137466389Y-128916556D01*
X137659112Y-128954340D01*
X137831507Y-128945843D01*
X137950525Y-128933125D01*
X137969132Y-128982256D01*
X137903991Y-129011441D01*
X137737934Y-129056111D01*
X137495119Y-129111618D01*
X137199703Y-129173312D01*
X136875844Y-129236546D01*
X136547700Y-129296670D01*
X136239427Y-129349035D01*
X135975184Y-129388994D01*
X135779128Y-129411897D01*
X135718080Y-129415433D01*
X135660116Y-129361051D01*
X135638903Y-129231548D01*
X135630182Y-129125834D01*
X135584171Y-129061557D01*
X135471100Y-129017868D01*
X135274689Y-128976489D01*
X135036477Y-128927714D01*
X134819257Y-128877779D01*
X134720449Y-128851781D01*
X134530424Y-128796598D01*
X134720449Y-128786449D01*
X134858300Y-128775849D01*
X135088728Y-128754754D01*
X135378367Y-128726328D01*
X135661407Y-128697166D01*
X135987874Y-128665019D01*
X136209240Y-128650007D01*
X136345947Y-128652296D01*
G37*
G36*
X153207495Y-127742935D02*
G01*
X153375410Y-127833063D01*
X153483010Y-127950087D01*
X153501247Y-128016789D01*
X153451670Y-128093228D01*
X153337711Y-128114441D01*
X153211533Y-128074864D01*
X153179918Y-128051055D01*
X153028503Y-127980662D01*
X152877139Y-128029111D01*
X152742338Y-128189636D01*
X152715589Y-128241327D01*
X152639537Y-128471473D01*
X152630229Y-128672378D01*
X152676953Y-128824111D01*
X152768995Y-128906737D01*
X152895641Y-128900323D01*
X153021661Y-128810812D01*
X153111341Y-128687080D01*
X153088575Y-128612850D01*
X152989870Y-128593641D01*
X152888897Y-128559520D01*
X152879568Y-128482793D01*
X152943683Y-128411780D01*
X153075882Y-128362808D01*
X153231617Y-128341225D01*
X153366340Y-128352378D01*
X153435500Y-128401615D01*
X153437552Y-128415809D01*
X153405842Y-128622543D01*
X153327210Y-128839370D01*
X153224056Y-129012192D01*
X153167983Y-129066836D01*
X152961031Y-129149870D01*
X152731289Y-129151880D01*
X152533045Y-129075121D01*
X152489392Y-129038643D01*
X152357929Y-128827212D01*
X152318562Y-128574919D01*
X152359741Y-128310680D01*
X152469916Y-128063412D01*
X152637538Y-127862034D01*
X152851057Y-127735463D01*
X153021312Y-127706858D01*
X153207495Y-127742935D01*
G37*
G36*
X149020255Y-127711094D02*
G01*
X149075902Y-127740704D01*
X149109440Y-127821035D01*
X149131580Y-127977438D01*
X149152577Y-128229426D01*
X149179115Y-128592223D01*
X149191882Y-128847467D01*
X149189332Y-129013698D01*
X149169920Y-129109457D01*
X149132102Y-129153283D01*
X149074720Y-129163716D01*
X148963260Y-129110216D01*
X148922296Y-129037032D01*
X148860142Y-128943914D01*
X148718542Y-128911192D01*
X148676778Y-128910349D01*
X148476818Y-128951378D01*
X148385274Y-129037032D01*
X148299995Y-129113591D01*
X148184156Y-129161837D01*
X148086407Y-129167976D01*
X148053866Y-129130990D01*
X148080670Y-129064998D01*
X148153762Y-128908936D01*
X148262158Y-128685732D01*
X148304179Y-128601063D01*
X148636469Y-128601063D01*
X148699482Y-128652436D01*
X148750624Y-128656982D01*
X148827915Y-128639735D01*
X148864952Y-128566822D01*
X148874827Y-128406490D01*
X148874652Y-128356110D01*
X148871997Y-128055237D01*
X148750624Y-128276932D01*
X148653516Y-128480771D01*
X148636469Y-128601063D01*
X148304179Y-128601063D01*
X148394876Y-128418316D01*
X148402774Y-128402561D01*
X148551753Y-128109899D01*
X148660391Y-127912891D01*
X148742897Y-127792850D01*
X148813479Y-127731094D01*
X148886344Y-127708936D01*
X148931790Y-127706858D01*
X149020255Y-127711094D01*
G37*
G36*
X149898150Y-123401721D02*
G01*
X150065337Y-123407262D01*
X150142270Y-123415129D01*
X150144140Y-123416644D01*
X150127466Y-123479681D01*
X150080685Y-123647311D01*
X150008653Y-123902368D01*
X149916231Y-124227683D01*
X149808276Y-124606089D01*
X149738362Y-124850451D01*
X149582521Y-125382819D01*
X149448838Y-125807019D01*
X149329880Y-126138063D01*
X149218217Y-126390961D01*
X149106415Y-126580724D01*
X148987042Y-126722365D01*
X148852667Y-126830894D01*
X148718953Y-126909446D01*
X148456025Y-127000201D01*
X148117854Y-127052140D01*
X147750230Y-127063864D01*
X147398940Y-127033978D01*
X147109773Y-126961085D01*
X147103741Y-126958702D01*
X146916407Y-126865394D01*
X146838881Y-126764133D01*
X146866817Y-126630738D01*
X146995866Y-126441029D01*
X147007933Y-126425820D01*
X147181857Y-126207847D01*
X147412001Y-126327931D01*
X147687388Y-126414257D01*
X147965738Y-126404053D01*
X148207034Y-126301420D01*
X148280828Y-126238895D01*
X148370625Y-126097107D01*
X148478204Y-125835965D01*
X148604411Y-125453245D01*
X148686906Y-125173192D01*
X148791264Y-124807909D01*
X148895130Y-124445829D01*
X148988072Y-124123224D01*
X149059658Y-123876365D01*
X149074036Y-123827182D01*
X149199380Y-123399626D01*
X149671760Y-123399626D01*
X149898150Y-123401721D01*
G37*
G36*
X147894099Y-127748215D02*
G01*
X148083145Y-127860966D01*
X148173425Y-128028130D01*
X148155549Y-128232728D01*
X148026619Y-128450148D01*
X147925582Y-128600187D01*
X147896407Y-128755876D01*
X147908276Y-128898399D01*
X147924104Y-129065560D01*
X147902887Y-129142472D01*
X147831572Y-129163277D01*
X147806851Y-129163716D01*
X147716757Y-129152912D01*
X147660095Y-129099956D01*
X147616109Y-128974027D01*
X147582887Y-128831172D01*
X147524409Y-128689744D01*
X147449901Y-128663998D01*
X147378440Y-128747896D01*
X147332784Y-128910349D01*
X147287711Y-129084899D01*
X147217174Y-129157642D01*
X147176891Y-129163716D01*
X147059293Y-129145195D01*
X147023650Y-129125852D01*
X147003638Y-129038899D01*
X147008833Y-129015004D01*
X147031644Y-128924952D01*
X147074387Y-128741645D01*
X147130025Y-128495607D01*
X147168023Y-128324439D01*
X147188040Y-128233634D01*
X147484761Y-128233634D01*
X147514568Y-128316056D01*
X147626184Y-128331717D01*
X147657980Y-128328646D01*
X147788545Y-128288213D01*
X147831059Y-128185394D01*
X147832170Y-128151117D01*
X147789799Y-128011824D01*
X147713077Y-127970695D01*
X147579793Y-127998595D01*
X147499208Y-128125276D01*
X147484761Y-128233634D01*
X147188040Y-128233634D01*
X147304165Y-127706858D01*
X147615674Y-127706858D01*
X147894099Y-127748215D01*
G37*
G36*
X151519941Y-127723388D02*
G01*
X151583573Y-127790112D01*
X151644939Y-127932729D01*
X151707912Y-128134414D01*
X151833036Y-128561970D01*
X151926971Y-128150249D01*
X151986169Y-127921561D01*
X152042690Y-127790953D01*
X152111274Y-127731026D01*
X152159331Y-127718288D01*
X152233310Y-127716029D01*
X152276722Y-127747477D01*
X152289397Y-127830839D01*
X152271162Y-127984318D01*
X152221847Y-128226121D01*
X152151692Y-128530299D01*
X152081666Y-128812673D01*
X152025217Y-128993494D01*
X151972052Y-129095621D01*
X151911875Y-129141914D01*
X151871774Y-129151901D01*
X151789399Y-129146721D01*
X151728109Y-129085418D01*
X151669708Y-128942006D01*
X151627850Y-128803521D01*
X151551761Y-128550162D01*
X151496906Y-128416361D01*
X151452837Y-128399017D01*
X151409105Y-128495031D01*
X151355263Y-128701303D01*
X151350502Y-128721231D01*
X151289471Y-128948643D01*
X151232101Y-129078492D01*
X151162959Y-129138447D01*
X151110100Y-129152286D01*
X150999437Y-129154345D01*
X150967581Y-129135780D01*
X150980669Y-129058443D01*
X151015105Y-128890410D01*
X151063653Y-128664399D01*
X151119075Y-128413129D01*
X151174135Y-128169319D01*
X151221594Y-127965687D01*
X151254215Y-127834953D01*
X151259139Y-127817706D01*
X151343921Y-127727923D01*
X151437807Y-127706858D01*
X151519941Y-127723388D01*
G37*
G36*
X145354643Y-127711107D02*
G01*
X145408252Y-127740275D01*
X145441187Y-127818989D01*
X145463014Y-127971880D01*
X145483299Y-128223576D01*
X145486048Y-128261097D01*
X145506080Y-128533217D01*
X145523968Y-128773392D01*
X145536689Y-128941114D01*
X145539240Y-128973691D01*
X145519935Y-129100691D01*
X145416230Y-129151256D01*
X145409352Y-129152286D01*
X145297774Y-129140286D01*
X145266836Y-129042935D01*
X145266833Y-129041438D01*
X145246616Y-128955406D01*
X145163362Y-128917712D01*
X145017735Y-128910349D01*
X144841299Y-128926609D01*
X144751921Y-128986097D01*
X144728429Y-129037032D01*
X144635414Y-129143488D01*
X144534136Y-129163716D01*
X144417047Y-129149876D01*
X144380050Y-129124370D01*
X144407659Y-129056122D01*
X144482929Y-128898830D01*
X144594523Y-128675558D01*
X144619647Y-128626593D01*
X144950125Y-128626593D01*
X145000272Y-128654116D01*
X145106475Y-128653165D01*
X145202375Y-128627878D01*
X145224602Y-128609476D01*
X145233043Y-128521944D01*
X145218910Y-128362313D01*
X145210704Y-128308603D01*
X145168219Y-128055237D01*
X145059172Y-128325721D01*
X144994139Y-128493066D01*
X144955129Y-128605100D01*
X144950125Y-128626593D01*
X144619647Y-128626593D01*
X144731106Y-128409368D01*
X144738079Y-128395941D01*
X144891775Y-128104899D01*
X145004062Y-127909122D01*
X145089247Y-127790101D01*
X145161639Y-127729327D01*
X145235547Y-127708294D01*
X145270797Y-127706858D01*
X145354643Y-127711107D01*
G37*
G36*
X137803441Y-127314439D02*
G01*
X137867941Y-127374314D01*
X138042033Y-127592816D01*
X138148656Y-127793801D01*
X138172569Y-127906140D01*
X138147997Y-127902915D01*
X138084904Y-127807717D01*
X138030050Y-127705688D01*
X137882489Y-127484224D01*
X137731488Y-127389083D01*
X137578950Y-127397257D01*
X137452654Y-127470507D01*
X137393586Y-127578987D01*
X137399640Y-127630724D01*
X137377792Y-127728800D01*
X137309566Y-127805069D01*
X137240647Y-127866623D01*
X137276105Y-127867452D01*
X137293297Y-127861785D01*
X137380295Y-127883497D01*
X137438207Y-127980203D01*
X137448020Y-128100616D01*
X137410395Y-128177660D01*
X137351944Y-128272723D01*
X137405180Y-128316970D01*
X137455588Y-128317401D01*
X137555616Y-128365999D01*
X137607628Y-128466957D01*
X137643056Y-128561557D01*
X137661536Y-128561970D01*
X137698556Y-128555729D01*
X137762863Y-128621583D01*
X137831384Y-128687605D01*
X137855861Y-128669089D01*
X137906817Y-128601865D01*
X137948956Y-128593641D01*
X138025520Y-128536062D01*
X138107383Y-128382102D01*
X138139927Y-128292768D01*
X138237803Y-127991895D01*
X138210378Y-128267323D01*
X138134779Y-128540842D01*
X137985184Y-128734979D01*
X137784895Y-128839105D01*
X137557215Y-128842591D01*
X137325446Y-128734809D01*
X137274955Y-128693995D01*
X137113289Y-128483518D01*
X136998064Y-128202264D01*
X136947388Y-127902928D01*
X136952723Y-127756297D01*
X137033142Y-127501405D01*
X137184428Y-127318919D01*
X137380577Y-127219694D01*
X137595583Y-127214583D01*
X137803441Y-127314439D01*
G37*
G36*
X153113508Y-124935661D02*
G01*
X153155530Y-125379912D01*
X153195737Y-125796652D01*
X153232009Y-126164537D01*
X153262223Y-126462219D01*
X153284259Y-126668353D01*
X153292894Y-126740898D01*
X153328442Y-127010100D01*
X152844770Y-127010100D01*
X152361098Y-127010100D01*
X152361098Y-126793584D01*
X152357564Y-126622839D01*
X152333367Y-126506555D01*
X152268106Y-126434323D01*
X152141385Y-126395731D01*
X151932805Y-126380370D01*
X151621970Y-126377828D01*
X151546715Y-126377940D01*
X150809227Y-126379197D01*
X150621947Y-126694648D01*
X150434666Y-127010100D01*
X149941024Y-127010100D01*
X149709061Y-127006339D01*
X149535620Y-126996364D01*
X149451072Y-126982135D01*
X149447382Y-126978244D01*
X149481254Y-126919866D01*
X149577441Y-126768640D01*
X149727800Y-126537001D01*
X149924191Y-126237385D01*
X150158469Y-125882226D01*
X150283491Y-125693637D01*
X151231505Y-125693637D01*
X151280068Y-125715880D01*
X151427833Y-125732967D01*
X151647341Y-125742292D01*
X151754074Y-125743267D01*
X152297756Y-125743267D01*
X152289888Y-125347381D01*
X152278865Y-125056595D01*
X152258843Y-124728312D01*
X152242382Y-124525399D01*
X152202744Y-124099302D01*
X151727681Y-124871655D01*
X151556261Y-125151367D01*
X151409305Y-125393086D01*
X151299323Y-125576089D01*
X151238823Y-125679652D01*
X151231505Y-125693637D01*
X150283491Y-125693637D01*
X150422494Y-125483960D01*
X150629432Y-125173007D01*
X151811483Y-123399626D01*
X152390577Y-123399626D01*
X152969670Y-123399626D01*
X153113508Y-124935661D01*
G37*
G36*
X139471073Y-128150249D02*
G01*
X139453413Y-128368165D01*
X139448645Y-128526389D01*
X139457630Y-128593195D01*
X139459047Y-128593641D01*
X139495967Y-128539190D01*
X139563962Y-128395188D01*
X139649517Y-128190661D01*
X139665507Y-128150249D01*
X139772812Y-127902049D01*
X139861172Y-127760218D01*
X139941557Y-127708024D01*
X139956142Y-127706858D01*
X140017055Y-127721561D01*
X140052783Y-127783105D01*
X140070160Y-127917645D01*
X140076019Y-128151333D01*
X140076133Y-128166085D01*
X140079447Y-128625312D01*
X140258563Y-128181920D01*
X140359143Y-127948504D01*
X140439658Y-127810187D01*
X140519042Y-127741538D01*
X140603627Y-127718486D01*
X140725830Y-127713558D01*
X140769576Y-127728675D01*
X140745016Y-127794866D01*
X140678162Y-127952644D01*
X140579254Y-128178320D01*
X140459761Y-128445476D01*
X140322822Y-128742022D01*
X140221326Y-128940145D01*
X140142694Y-129058649D01*
X140074347Y-129116341D01*
X140003708Y-129132025D01*
X140000534Y-129132045D01*
X139919881Y-129124069D01*
X139876358Y-129080947D01*
X139860151Y-128973882D01*
X139861445Y-128774080D01*
X139862732Y-128727717D01*
X139863452Y-128510122D01*
X139846317Y-128406251D01*
X139805976Y-128417768D01*
X139737077Y-128546338D01*
X139634270Y-128793624D01*
X139631947Y-128799501D01*
X139541583Y-129006742D01*
X139464834Y-129118338D01*
X139380514Y-129160452D01*
X139337033Y-129163716D01*
X139272295Y-129159846D01*
X139229346Y-129133861D01*
X139203717Y-129064192D01*
X139190935Y-128929271D01*
X139186531Y-128707532D01*
X139186035Y-128435287D01*
X139186035Y-127706858D01*
X139350818Y-127706858D01*
X139515601Y-127706858D01*
X139471073Y-128150249D01*
G37*
G36*
X145901583Y-123401158D02*
G01*
X146074980Y-123409593D01*
X146169565Y-123430684D01*
X146209274Y-123470187D01*
X146218040Y-123533857D01*
X146218139Y-123542144D01*
X146224665Y-123643167D01*
X146242370Y-123851067D01*
X146269472Y-124146701D01*
X146304188Y-124510927D01*
X146344735Y-124924603D01*
X146375954Y-125236533D01*
X146419428Y-125671410D01*
X146458310Y-126068321D01*
X146490838Y-126408610D01*
X146515248Y-126673623D01*
X146529776Y-126844704D01*
X146533127Y-126899252D01*
X146517342Y-126956428D01*
X146452378Y-126990009D01*
X146312856Y-127005921D01*
X146073398Y-127010093D01*
X146058604Y-127010100D01*
X145583542Y-127010100D01*
X145583542Y-126693391D01*
X145583542Y-126376683D01*
X144820825Y-126376683D01*
X144058109Y-126376683D01*
X143861233Y-126693391D01*
X143664356Y-127010100D01*
X143167091Y-127010100D01*
X142934190Y-127006365D01*
X142759699Y-126996455D01*
X142673881Y-126982307D01*
X142669826Y-126978244D01*
X142703698Y-126919866D01*
X142799884Y-126768640D01*
X142950244Y-126537001D01*
X143146635Y-126237385D01*
X143380913Y-125882226D01*
X143504528Y-125695760D01*
X144463460Y-125695760D01*
X144508988Y-125717053D01*
X144654129Y-125733411D01*
X144871836Y-125742335D01*
X144978058Y-125743267D01*
X145520200Y-125743267D01*
X145514651Y-125252369D01*
X145506078Y-124961078D01*
X145488956Y-124670448D01*
X145467145Y-124444763D01*
X145425187Y-124128055D01*
X144958096Y-124888154D01*
X144787752Y-125165539D01*
X144641174Y-125404563D01*
X144531154Y-125584345D01*
X144470480Y-125684004D01*
X144463460Y-125695760D01*
X143504528Y-125695760D01*
X143644938Y-125483960D01*
X143851876Y-125173007D01*
X145033927Y-123399626D01*
X145625442Y-123399626D01*
X145901583Y-123401158D01*
G37*
G36*
X141263156Y-123401017D02*
G01*
X141749843Y-123407528D01*
X142128201Y-123428782D01*
X142416186Y-123469514D01*
X142631759Y-123534462D01*
X142792876Y-123628363D01*
X142917496Y-123755953D01*
X142984989Y-123855170D01*
X143090960Y-124137649D01*
X143081372Y-124425236D01*
X142964864Y-124698083D01*
X142750077Y-124936341D01*
X142445651Y-125120162D01*
X142431719Y-125126107D01*
X142226187Y-125212527D01*
X142413799Y-125351235D01*
X142568011Y-125519075D01*
X142673891Y-125731869D01*
X142674464Y-125733769D01*
X142696844Y-126015884D01*
X142610136Y-126299880D01*
X142429595Y-126563400D01*
X142170476Y-126784088D01*
X141852768Y-126938010D01*
X141738460Y-126957173D01*
X141531235Y-126974030D01*
X141253544Y-126988271D01*
X140927836Y-126999583D01*
X140576562Y-127007655D01*
X140222172Y-127012175D01*
X139887116Y-127012831D01*
X139593844Y-127009311D01*
X139364806Y-127001304D01*
X139222453Y-126988497D01*
X139186035Y-126975042D01*
X139202689Y-126907677D01*
X139249114Y-126737264D01*
X139320009Y-126482486D01*
X139363096Y-126329177D01*
X140327045Y-126329177D01*
X140383520Y-126360638D01*
X140532001Y-126376699D01*
X140738923Y-126378694D01*
X140970719Y-126367961D01*
X141193822Y-126345834D01*
X141374667Y-126313650D01*
X141461804Y-126284013D01*
X141625031Y-126164844D01*
X141703343Y-126000558D01*
X141719701Y-125809112D01*
X141671200Y-125653185D01*
X141521896Y-125552173D01*
X141266087Y-125503782D01*
X140957883Y-125502438D01*
X140554932Y-125521571D01*
X140441419Y-125901621D01*
X140381846Y-126107729D01*
X140340419Y-126263745D01*
X140327045Y-126329177D01*
X139363096Y-126329177D01*
X139410073Y-126162028D01*
X139514004Y-125794572D01*
X139626501Y-125398802D01*
X139742261Y-124993401D01*
X139793984Y-124813133D01*
X140769576Y-124813133D01*
X140826540Y-124843608D01*
X140974416Y-124857934D01*
X141178681Y-124857700D01*
X141404812Y-124844492D01*
X141618285Y-124819900D01*
X141784576Y-124785510D01*
X141841854Y-124763814D01*
X141981080Y-124667257D01*
X142060404Y-124568608D01*
X142100677Y-124351398D01*
X142031387Y-124191427D01*
X141850887Y-124087363D01*
X141557528Y-124037874D01*
X141397246Y-124033042D01*
X140976295Y-124033042D01*
X140872936Y-124401412D01*
X140817985Y-124603934D01*
X140780499Y-124754866D01*
X140769576Y-124813133D01*
X139793984Y-124813133D01*
X139855983Y-124597052D01*
X139962365Y-124228440D01*
X140056106Y-123906247D01*
X140079283Y-123827182D01*
X140204866Y-123399626D01*
X141263156Y-123401017D01*
G37*
G36*
X136947678Y-123127557D02*
G01*
X137084720Y-123229519D01*
X137128876Y-123281406D01*
X137162458Y-123342011D01*
X137186941Y-123428208D01*
X137203799Y-123556871D01*
X137214506Y-123744874D01*
X137220536Y-124009091D01*
X137223365Y-124366395D01*
X137224459Y-124828895D01*
X137225989Y-125296306D01*
X137229692Y-125650064D01*
X137236437Y-125903190D01*
X137247091Y-126068707D01*
X137262524Y-126159639D01*
X137283603Y-126189008D01*
X137311197Y-126169836D01*
X137313659Y-126166665D01*
X137360422Y-126042825D01*
X137401801Y-125812149D01*
X137434561Y-125494465D01*
X137442868Y-125374894D01*
X137470557Y-124992807D01*
X137501866Y-124719552D01*
X137541384Y-124538185D01*
X137742227Y-124538185D01*
X137755625Y-124603117D01*
X137774204Y-124741564D01*
X137791182Y-124962852D01*
X137803326Y-125223147D01*
X137804679Y-125268204D01*
X137818570Y-125774937D01*
X137839699Y-125219511D01*
X137842224Y-124919245D01*
X137826194Y-124690430D01*
X137793546Y-124559332D01*
X137790644Y-124554424D01*
X137744033Y-124492854D01*
X137742227Y-124538185D01*
X137541384Y-124538185D01*
X137541581Y-124537280D01*
X137594489Y-124428146D01*
X137665375Y-124374303D01*
X137714587Y-124361667D01*
X137839093Y-124399781D01*
X137922061Y-124555420D01*
X137963036Y-124826275D01*
X137961566Y-125210037D01*
X137938955Y-125505543D01*
X137886204Y-125931496D01*
X137818308Y-126248753D01*
X137728121Y-126475051D01*
X137608500Y-126628122D01*
X137452300Y-126725704D01*
X137446420Y-126728192D01*
X137288799Y-126816795D01*
X137227035Y-126925089D01*
X137222444Y-126981267D01*
X137189296Y-127115583D01*
X137128988Y-127176621D01*
X137018891Y-127274281D01*
X136921314Y-127452933D01*
X136856835Y-127667146D01*
X136842394Y-127809388D01*
X136866118Y-128020569D01*
X136927263Y-128259891D01*
X137010792Y-128483538D01*
X137101668Y-128647697D01*
X137146187Y-128694534D01*
X137206209Y-128756366D01*
X137162565Y-128809526D01*
X137111341Y-128838669D01*
X136928526Y-128903309D01*
X136770994Y-128864930D01*
X136675207Y-128798093D01*
X136622317Y-128744480D01*
X136582040Y-128667636D01*
X136550467Y-128546977D01*
X136523687Y-128361920D01*
X136497792Y-128091882D01*
X136468871Y-127716281D01*
X136468341Y-127709020D01*
X136440920Y-127369161D01*
X136412129Y-127074942D01*
X136384592Y-126849106D01*
X136360934Y-126714402D01*
X136350491Y-126687370D01*
X136264433Y-126642439D01*
X136109070Y-126583508D01*
X136064216Y-126568707D01*
X135903790Y-126507198D01*
X135787514Y-126427910D01*
X135709503Y-126311804D01*
X135663872Y-126139843D01*
X135644738Y-125892989D01*
X135646216Y-125552206D01*
X135656308Y-125249007D01*
X135671956Y-124911105D01*
X135690328Y-124612873D01*
X135709506Y-124379896D01*
X135727571Y-124237761D01*
X135734035Y-124212129D01*
X135742406Y-124201953D01*
X135930345Y-124201953D01*
X135968512Y-124283528D01*
X136046036Y-124373314D01*
X136082067Y-124356807D01*
X136060437Y-124257470D01*
X135993386Y-124171847D01*
X135957063Y-124159725D01*
X135930345Y-124201953D01*
X135742406Y-124201953D01*
X135834019Y-124090581D01*
X135973835Y-124065331D01*
X136067730Y-124110581D01*
X136107167Y-124162627D01*
X136131558Y-124254187D01*
X136142275Y-124406451D01*
X136140690Y-124640609D01*
X136128176Y-124977851D01*
X136126430Y-125016873D01*
X136113477Y-125422349D01*
X136117096Y-125714987D01*
X136137793Y-125907606D01*
X136164858Y-125994213D01*
X136228633Y-126107416D01*
X136279421Y-126158173D01*
X136319359Y-126136800D01*
X136350579Y-126033614D01*
X136375218Y-125838932D01*
X136395410Y-125543070D01*
X136407493Y-125268204D01*
X136930347Y-125268204D01*
X136931743Y-125534741D01*
X136935718Y-125710572D01*
X136941726Y-125785133D01*
X136949222Y-125747863D01*
X136952566Y-125698395D01*
X136961216Y-125410098D01*
X136959825Y-125082668D01*
X136952767Y-124874953D01*
X136944901Y-124776326D01*
X136938230Y-124794853D01*
X136933298Y-124921011D01*
X136930649Y-125145272D01*
X136930347Y-125268204D01*
X136407493Y-125268204D01*
X136413290Y-125136345D01*
X136424387Y-124817035D01*
X136444052Y-124296454D01*
X136448185Y-124223067D01*
X136857090Y-124223067D01*
X136863694Y-124338306D01*
X136880136Y-124351887D01*
X136886057Y-124333915D01*
X136895908Y-124173266D01*
X136886057Y-124112219D01*
X136867698Y-124092506D01*
X136857702Y-124180091D01*
X136857090Y-124223067D01*
X136448185Y-124223067D01*
X136466985Y-123889275D01*
X136496072Y-123582219D01*
X136534200Y-123362006D01*
X136581123Y-123224532D01*
X136727067Y-123224532D01*
X136782077Y-123270245D01*
X136800823Y-123281337D01*
X136926423Y-123402634D01*
X137016417Y-123606889D01*
X137074047Y-123906610D01*
X137102555Y-124314305D01*
X137105898Y-124458564D01*
X137112045Y-124708892D01*
X137121178Y-124878895D01*
X137132041Y-124952863D01*
X137142821Y-124919825D01*
X137152251Y-124761355D01*
X137155768Y-124515986D01*
X137153115Y-124223379D01*
X137148520Y-124043669D01*
X137135628Y-123739930D01*
X137117042Y-123537356D01*
X137087824Y-123410427D01*
X137043035Y-123333626D01*
X137004477Y-123299404D01*
X136867493Y-123228697D01*
X136782782Y-123211527D01*
X136727067Y-123224532D01*
X136581123Y-123224532D01*
X136584255Y-123215355D01*
X136649125Y-123128986D01*
X136731694Y-123089619D01*
X136801309Y-123082918D01*
X136947678Y-123127557D01*
G37*
D13*
%TO.C,UNIT_1*%
X135740000Y-77190000D02*
X153520000Y-77190000D01*
X135740000Y-120370000D02*
X135740000Y-77190000D01*
X153520000Y-77190000D02*
X153520000Y-120370000D01*
X153520000Y-120370000D02*
X135740000Y-120370000D01*
D14*
X154930000Y-116580000D02*
G75*
G02*
X154730000Y-116580000I-100000J0D01*
G01*
X154730000Y-116580000D02*
G75*
G02*
X154930000Y-116580000I100000J0D01*
G01*
%TD*%
M02*
