%TF.GenerationSoftware,KiCad,Pcbnew,8.0.6*%
%TF.CreationDate,2025-02-26T18:57:19-07:00*%
%TF.ProjectId,Temperature Sensor,54656d70-6572-4617-9475-72652053656e,rev?*%
%TF.SameCoordinates,Original*%
%TF.FileFunction,Soldermask,Bot*%
%TF.FilePolarity,Negative*%
%FSLAX46Y46*%
G04 Gerber Fmt 4.6, Leading zero omitted, Abs format (unit mm)*
G04 Created by KiCad (PCBNEW 8.0.6) date 2025-02-26 18:57:19*
%MOMM*%
%LPD*%
G01*
G04 APERTURE LIST*
G04 Aperture macros list*
%AMRoundRect*
0 Rectangle with rounded corners*
0 $1 Rounding radius*
0 $2 $3 $4 $5 $6 $7 $8 $9 X,Y pos of 4 corners*
0 Add a 4 corners polygon primitive as box body*
4,1,4,$2,$3,$4,$5,$6,$7,$8,$9,$2,$3,0*
0 Add four circle primitives for the rounded corners*
1,1,$1+$1,$2,$3*
1,1,$1+$1,$4,$5*
1,1,$1+$1,$6,$7*
1,1,$1+$1,$8,$9*
0 Add four rect primitives between the rounded corners*
20,1,$1+$1,$2,$3,$4,$5,0*
20,1,$1+$1,$4,$5,$6,$7,0*
20,1,$1+$1,$6,$7,$8,$9,0*
20,1,$1+$1,$8,$9,$2,$3,0*%
G04 Aperture macros list end*
%ADD10C,2.004000*%
%ADD11C,2.404000*%
%ADD12RoundRect,0.249999X-1.025001X-1.025001X1.025001X-1.025001X1.025001X1.025001X-1.025001X1.025001X0*%
%ADD13C,2.550000*%
%ADD14RoundRect,0.250000X0.550000X0.550000X-0.550000X0.550000X-0.550000X-0.550000X0.550000X-0.550000X0*%
%ADD15C,1.600000*%
%ADD16C,2.134400*%
%ADD17RoundRect,0.102000X0.900000X0.900000X-0.900000X0.900000X-0.900000X-0.900000X0.900000X-0.900000X0*%
G04 APERTURE END LIST*
D10*
%TO.C,UNIT_2*%
X152070000Y-119930000D03*
X149530000Y-119930000D03*
X146990000Y-119930000D03*
X144450000Y-119930000D03*
X141910000Y-119930000D03*
X139370000Y-119930000D03*
X136830000Y-119930000D03*
D11*
X146690000Y-84950000D03*
X142190000Y-84950000D03*
%TD*%
D12*
%TO.C,J5*%
X142100000Y-69250000D03*
D13*
X146900000Y-69250000D03*
%TD*%
D14*
%TO.C,J2*%
X149900000Y-64500000D03*
D15*
X146300000Y-64500000D03*
X142700000Y-64500000D03*
X139100000Y-64500000D03*
%TD*%
D16*
%TO.C,UNIT_3*%
X148185000Y-81480000D03*
X145645000Y-81480000D03*
X143105000Y-81480000D03*
X140565000Y-81480000D03*
%TD*%
D17*
%TO.C,UNIT_1*%
X152250000Y-116560000D03*
D10*
X152250000Y-114020000D03*
X152250000Y-111480000D03*
X152250000Y-108940000D03*
X152250000Y-106400000D03*
X152250000Y-103860000D03*
X152250000Y-101320000D03*
X152250000Y-98780000D03*
X152250000Y-96240000D03*
X152250000Y-93700000D03*
X152250000Y-91160000D03*
X152250000Y-88620000D03*
X152250000Y-86080000D03*
X152250000Y-83540000D03*
X152250000Y-81000000D03*
X137010000Y-81000000D03*
X137010000Y-83540000D03*
X137010000Y-86080000D03*
X137010000Y-88620000D03*
X137010000Y-91160000D03*
X137010000Y-93700000D03*
X137010000Y-96240000D03*
X137010000Y-98780000D03*
X137010000Y-101320000D03*
X137010000Y-103860000D03*
X137010000Y-106400000D03*
X137010000Y-108940000D03*
X137010000Y-111480000D03*
X137010000Y-114020000D03*
X137010000Y-116560000D03*
%TD*%
M02*
