%TF.GenerationSoftware,KiCad,Pcbnew,8.0.6*%
%TF.CreationDate,2025-02-27T20:48:21-07:00*%
%TF.ProjectId,Tachometerkicad,54616368-6f6d-4657-9465-726b69636164,rev?*%
%TF.SameCoordinates,Original*%
%TF.FileFunction,Copper,L1,Top*%
%TF.FilePolarity,Positive*%
%FSLAX46Y46*%
G04 Gerber Fmt 4.6, Leading zero omitted, Abs format (unit mm)*
G04 Created by KiCad (PCBNEW 8.0.6) date 2025-02-27 20:48:21*
%MOMM*%
%LPD*%
G01*
G04 APERTURE LIST*
G04 Aperture macros list*
%AMRoundRect*
0 Rectangle with rounded corners*
0 $1 Rounding radius*
0 $2 $3 $4 $5 $6 $7 $8 $9 X,Y pos of 4 corners*
0 Add a 4 corners polygon primitive as box body*
4,1,4,$2,$3,$4,$5,$6,$7,$8,$9,$2,$3,0*
0 Add four circle primitives for the rounded corners*
1,1,$1+$1,$2,$3*
1,1,$1+$1,$4,$5*
1,1,$1+$1,$6,$7*
1,1,$1+$1,$8,$9*
0 Add four rect primitives between the rounded corners*
20,1,$1+$1,$2,$3,$4,$5,0*
20,1,$1+$1,$4,$5,$6,$7,0*
20,1,$1+$1,$6,$7,$8,$9,0*
20,1,$1+$1,$8,$9,$2,$3,0*%
G04 Aperture macros list end*
%TA.AperFunction,ComponentPad*%
%ADD10C,1.800000*%
%TD*%
%TA.AperFunction,ComponentPad*%
%ADD11C,2.200000*%
%TD*%
%TA.AperFunction,ComponentPad*%
%ADD12R,1.600000X1.600000*%
%TD*%
%TA.AperFunction,ComponentPad*%
%ADD13C,1.600000*%
%TD*%
%TA.AperFunction,ComponentPad*%
%ADD14R,1.800000X1.800000*%
%TD*%
%TA.AperFunction,ComponentPad*%
%ADD15C,2.400000*%
%TD*%
%TA.AperFunction,ComponentPad*%
%ADD16O,2.400000X2.400000*%
%TD*%
%TA.AperFunction,ComponentPad*%
%ADD17R,1.500000X1.050000*%
%TD*%
%TA.AperFunction,ComponentPad*%
%ADD18O,1.500000X1.050000*%
%TD*%
%TA.AperFunction,ComponentPad*%
%ADD19RoundRect,0.250000X0.550000X0.550000X-0.550000X0.550000X-0.550000X-0.550000X0.550000X-0.550000X0*%
%TD*%
%TA.AperFunction,ComponentPad*%
%ADD20R,1.222000X1.222000*%
%TD*%
%TA.AperFunction,ComponentPad*%
%ADD21C,1.222000*%
%TD*%
%TA.AperFunction,ComponentPad*%
%ADD22O,1.800000X1.800000*%
%TD*%
%TA.AperFunction,ComponentPad*%
%ADD23O,1.600000X1.600000*%
%TD*%
%TA.AperFunction,ComponentPad*%
%ADD24RoundRect,0.249999X1.025001X1.025001X-1.025001X1.025001X-1.025001X-1.025001X1.025001X-1.025001X0*%
%TD*%
%TA.AperFunction,ComponentPad*%
%ADD25C,2.550000*%
%TD*%
%TA.AperFunction,ComponentPad*%
%ADD26RoundRect,0.249999X-1.025001X-1.025001X1.025001X-1.025001X1.025001X1.025001X-1.025001X1.025001X0*%
%TD*%
%TA.AperFunction,Conductor*%
%ADD27C,0.200000*%
%TD*%
G04 APERTURE END LIST*
D10*
%TO.P,UNIT_2,1,INT*%
%TO.N,unconnected-(UNIT_2-INT-Pad1)*%
X47000000Y-54740000D03*
%TO.P,UNIT_2,2,SCK*%
%TO.N,SCK*%
X47000000Y-57280000D03*
%TO.P,UNIT_2,3,SI*%
%TO.N,SI*%
X47000000Y-59820000D03*
%TO.P,UNIT_2,4,SO*%
%TO.N,SO*%
X47000000Y-62360000D03*
%TO.P,UNIT_2,5,CS*%
%TO.N,CS*%
X47000000Y-64900000D03*
%TO.P,UNIT_2,6,GND*%
%TO.N,GND*%
X47000000Y-67440000D03*
%TO.P,UNIT_2,7,VCC*%
%TO.N,+5V*%
X47000000Y-69980000D03*
D11*
%TO.P,UNIT_2,8,High_CAN*%
%TO.N,High*%
X81980000Y-60120000D03*
%TO.P,UNIT_2,9,Low_CAN*%
%TO.N,Low*%
X81980000Y-64620000D03*
%TD*%
D12*
%TO.P,C1,1*%
%TO.N,Net-(C1-Pad1)*%
X88794888Y-109500000D03*
D13*
%TO.P,C1,2*%
%TO.N,GND*%
X91294888Y-109500000D03*
%TD*%
D14*
%TO.P,UNIT_1,1,D1/TX*%
%TO.N,unconnected-(UNIT_1-D1{slash}TX-Pad1)*%
X83300000Y-80100000D03*
D10*
%TO.P,UNIT_1,2,D0/RX*%
%TO.N,unconnected-(UNIT_1-D0{slash}RX-Pad2)*%
X80760000Y-80100000D03*
%TO.P,UNIT_1,3,RESET*%
%TO.N,unconnected-(UNIT_1-RESET-Pad3)*%
X78220000Y-80100000D03*
%TO.P,UNIT_1,4,COM/GND*%
%TO.N,GND*%
X75680000Y-80100000D03*
%TO.P,UNIT_1,5,D2*%
%TO.N,unconnected-(UNIT_1-D2-Pad5)*%
X73140000Y-80100000D03*
%TO.P,UNIT_1,6,D3*%
%TO.N,unconnected-(UNIT_1-D3-Pad6)*%
X70600000Y-80100000D03*
%TO.P,UNIT_1,7,D4*%
%TO.N,unconnected-(UNIT_1-D4-Pad7)*%
X68060000Y-80100000D03*
%TO.P,UNIT_1,8,D5*%
%TO.N,unconnected-(UNIT_1-D5-Pad8)*%
X65520000Y-80100000D03*
%TO.P,UNIT_1,9,D6*%
%TO.N,unconnected-(UNIT_1-D6-Pad9)*%
X62980000Y-80100000D03*
%TO.P,UNIT_1,10,D7*%
%TO.N,unconnected-(UNIT_1-D7-Pad10)*%
X60440000Y-80100000D03*
%TO.P,UNIT_1,11,D8*%
%TO.N,unconnected-(UNIT_1-D8-Pad11)*%
X57900000Y-80100000D03*
%TO.P,UNIT_1,12,D9*%
%TO.N,unconnected-(UNIT_1-D9-Pad12)*%
X55360000Y-80100000D03*
%TO.P,UNIT_1,13,D10*%
%TO.N,unconnected-(UNIT_1-D10-Pad13)*%
X52820000Y-80100000D03*
%TO.P,UNIT_1,14,D11/MOSI*%
%TO.N,SI*%
X50280000Y-80100000D03*
%TO.P,UNIT_1,15,D12/MISO*%
%TO.N,SO*%
X47740000Y-80100000D03*
%TO.P,UNIT_1,16,D13/SCK*%
%TO.N,SCK*%
X47740000Y-95340000D03*
%TO.P,UNIT_1,17,3V3*%
%TO.N,+3V*%
X50280000Y-95340000D03*
%TO.P,UNIT_1,18,AREF*%
%TO.N,unconnected-(UNIT_1-AREF-Pad18)*%
X52820000Y-95340000D03*
%TO.P,UNIT_1,19,A0*%
%TO.N,arduino input*%
X55360000Y-95340000D03*
%TO.P,UNIT_1,20,A1*%
%TO.N,unconnected-(UNIT_1-A1-Pad20)*%
X57900000Y-95340000D03*
%TO.P,UNIT_1,21,A2*%
%TO.N,unconnected-(UNIT_1-A2-Pad21)*%
X60440000Y-95340000D03*
%TO.P,UNIT_1,22,A3*%
%TO.N,unconnected-(UNIT_1-A3-Pad22)*%
X62980000Y-95340000D03*
%TO.P,UNIT_1,23,A4*%
%TO.N,SDA*%
X65520000Y-95340000D03*
%TO.P,UNIT_1,24,A5*%
%TO.N,SCL*%
X68060000Y-95340000D03*
%TO.P,UNIT_1,25,A6*%
%TO.N,unconnected-(UNIT_1-A6-Pad25)*%
X70600000Y-95340000D03*
%TO.P,UNIT_1,26,A7*%
%TO.N,unconnected-(UNIT_1-A7-Pad26)*%
X73140000Y-95340000D03*
%TO.P,UNIT_1,27,+5V*%
%TO.N,+5V*%
X75680000Y-95340000D03*
%TO.P,UNIT_1,28,RESET*%
%TO.N,unconnected-(UNIT_1-RESET-Pad28)*%
X78220000Y-95340000D03*
%TO.P,UNIT_1,29,COM/GND*%
%TO.N,GND*%
X80760000Y-95340000D03*
%TO.P,UNIT_1,30,VIN*%
%TO.N,unconnected-(UNIT_1-VIN-Pad30)*%
X83300000Y-95340000D03*
%TD*%
D15*
%TO.P,R6,1*%
%TO.N,Net-(R4-Pad2)*%
X112620000Y-112300000D03*
D16*
%TO.P,R6,2*%
%TO.N,+5v*%
X97380000Y-112300000D03*
%TD*%
D17*
%TO.P,Q1,1,C*%
%TO.N,Comparator input*%
X103250000Y-62200000D03*
D18*
%TO.P,Q1,2,B*%
%TO.N,Net-(Q1-B)*%
X103250000Y-63430000D03*
%TO.P,Q1,3,E*%
%TO.N,GND*%
X103250000Y-64700000D03*
%TD*%
D12*
%TO.P,C3,1*%
%TO.N,GND*%
X112031000Y-94500000D03*
D13*
%TO.P,C3,2*%
%TO.N,Net-(U1-DIS)*%
X109500000Y-94500000D03*
%TD*%
D15*
%TO.P,R10,1*%
%TO.N,555 input*%
X90300000Y-66520000D03*
D16*
%TO.P,R10,2*%
%TO.N,GND*%
X90300000Y-51280000D03*
%TD*%
D15*
%TO.P,R11,1*%
%TO.N,Net-(C1-Pad1)*%
X97400000Y-82080000D03*
D16*
%TO.P,R11,2*%
%TO.N,arduino input*%
X97400000Y-97320000D03*
%TD*%
D19*
%TO.P,J4,1,Pin_1*%
%TO.N,Low*%
X84000000Y-100800000D03*
D13*
%TO.P,J4,2,Pin_2*%
%TO.N,High*%
X80400000Y-100800000D03*
%TO.P,J4,3,Pin_3*%
%TO.N,Low*%
X76800000Y-100800000D03*
%TO.P,J4,4,Pin_4*%
%TO.N,High*%
X73200000Y-100800000D03*
%TD*%
D15*
%TO.P,R1,1*%
%TO.N,Possitive*%
X95800000Y-66420000D03*
D16*
%TO.P,R1,2*%
%TO.N,Net-(D1-K)*%
X95800000Y-51180000D03*
%TD*%
D20*
%TO.P,VR1,1*%
%TO.N,+5v*%
X96600000Y-76240000D03*
D21*
%TO.P,VR1,2*%
%TO.N,GND*%
X94060000Y-73700000D03*
%TO.P,VR1,3*%
%TO.N,Net-(U2--)*%
X96600000Y-71160000D03*
%TD*%
D15*
%TO.P,R7,1*%
%TO.N,Net-(U1-DIS)*%
X112620000Y-102800000D03*
D16*
%TO.P,R7,2*%
%TO.N,Net-(R4-Pad1)*%
X97380000Y-102800000D03*
%TD*%
D14*
%TO.P,D2,1,K*%
%TO.N,Net-(D1-K)*%
X101000000Y-50795000D03*
D22*
%TO.P,D2,2,A*%
%TO.N,GND*%
X101000000Y-58415000D03*
%TD*%
D15*
%TO.P,R2,1*%
%TO.N,Net-(D1-K)*%
X109600000Y-51080000D03*
D16*
%TO.P,R2,2*%
%TO.N,Net-(Q1-B)*%
X109600000Y-66320000D03*
%TD*%
D15*
%TO.P,R3,1*%
%TO.N,+5v*%
X90300000Y-85120000D03*
D16*
%TO.P,R3,2*%
%TO.N,Comparator input*%
X90300000Y-69880000D03*
%TD*%
D12*
%TO.P,U1,1,GND*%
%TO.N,GND*%
X110300000Y-81000000D03*
D23*
%TO.P,U1,2,TR*%
%TO.N,555 input*%
X107760000Y-81000000D03*
%TO.P,U1,3,Q*%
%TO.N,555 output*%
X105220000Y-81000000D03*
%TO.P,U1,4,R*%
%TO.N,+5v*%
X102680000Y-81000000D03*
%TO.P,U1,5,CV*%
%TO.N,Net-(U1-CV)*%
X102680000Y-88620000D03*
%TO.P,U1,6,THR*%
%TO.N,Net-(U1-DIS)*%
X105220000Y-88620000D03*
%TO.P,U1,7,DIS*%
X107760000Y-88620000D03*
%TO.P,U1,8,VCC*%
%TO.N,+5v*%
X110300000Y-88620000D03*
%TD*%
D24*
%TO.P,J3,1,Pin_1*%
%TO.N,+5v*%
X81900000Y-107800000D03*
D25*
%TO.P,J3,2,Pin_2*%
%TO.N,GND*%
X77100000Y-107800000D03*
%TD*%
D26*
%TO.P,J1,1,Pin_1*%
%TO.N,GND*%
X90200000Y-46100000D03*
D25*
%TO.P,J1,2,Pin_2*%
%TO.N,Possitive*%
X95000000Y-46100000D03*
%TD*%
D15*
%TO.P,R4,1*%
%TO.N,Net-(R4-Pad1)*%
X97380000Y-107800000D03*
D16*
%TO.P,R4,2*%
%TO.N,Net-(R4-Pad2)*%
X112620000Y-107800000D03*
%TD*%
D13*
%TO.P,C4,1*%
%TO.N,Net-(U1-CV)*%
X103820000Y-97600000D03*
%TO.P,C4,2*%
%TO.N,GND*%
X103820000Y-92600000D03*
%TD*%
D12*
%TO.P,U2,1,GND*%
%TO.N,GND*%
X110200000Y-70000000D03*
D23*
%TO.P,U2,2,+*%
%TO.N,Comparator input*%
X107660000Y-70000000D03*
%TO.P,U2,3,-*%
%TO.N,Net-(U2--)*%
X105120000Y-70000000D03*
%TO.P,U2,4,V-*%
%TO.N,GND*%
X102580000Y-70000000D03*
%TO.P,U2,5,BAL*%
%TO.N,unconnected-(U2-BAL-Pad5)*%
X102580000Y-77620000D03*
%TO.P,U2,6,STRB*%
%TO.N,unconnected-(U2-STRB-Pad6)*%
X105120000Y-77620000D03*
%TO.P,U2,7*%
%TO.N,555 input*%
X107660000Y-77620000D03*
%TO.P,U2,8,V+*%
%TO.N,+5v*%
X110200000Y-77620000D03*
%TD*%
D12*
%TO.P,C2,1*%
%TO.N,arduino input*%
X88500000Y-116500000D03*
D13*
%TO.P,C2,2*%
%TO.N,GND*%
X91000000Y-116500000D03*
%TD*%
D15*
%TO.P,R5,1*%
%TO.N,555 output*%
X90400000Y-88780000D03*
D16*
%TO.P,R5,2*%
%TO.N,Net-(C1-Pad1)*%
X90400000Y-104020000D03*
%TD*%
D14*
%TO.P,D1,1,K*%
%TO.N,Net-(D1-K)*%
X105000000Y-50790000D03*
D22*
%TO.P,D1,2,A*%
%TO.N,GND*%
X105000000Y-58410000D03*
%TD*%
D27*
%TO.N,High*%
X73200000Y-100800000D02*
X74890000Y-99110000D01*
X74890000Y-99110000D02*
X79470000Y-99110000D01*
X79470000Y-99110000D02*
X80400000Y-100040000D01*
X80400000Y-100040000D02*
X80400000Y-100800000D01*
%TO.N,Low*%
X76800000Y-100800000D02*
X76890000Y-100800000D01*
X76890000Y-100800000D02*
X78830000Y-102740000D01*
X78830000Y-102740000D02*
X82060000Y-102740000D01*
X82060000Y-102740000D02*
X84000000Y-100800000D01*
%TO.N,Comparator input*%
X100050000Y-66430000D02*
X100050000Y-64030000D01*
X90300000Y-69880000D02*
X91640000Y-68540000D01*
X91640000Y-68540000D02*
X97940000Y-68540000D01*
X97940000Y-68540000D02*
X100050000Y-66430000D01*
X100050000Y-64030000D02*
X101880000Y-62200000D01*
X101880000Y-62200000D02*
X103250000Y-62200000D01*
X112930000Y-67270000D02*
X112930000Y-62900000D01*
X111950000Y-68250000D02*
X112930000Y-67270000D01*
X107660000Y-70000000D02*
X109410000Y-68250000D01*
X109410000Y-68250000D02*
X111950000Y-68250000D01*
X112930000Y-62900000D02*
X112230000Y-62200000D01*
X112230000Y-62200000D02*
X103250000Y-62200000D01*
%TO.N,GND*%
X75680000Y-80100000D02*
X75680000Y-78030000D01*
X65110000Y-67460000D02*
X60430000Y-67460000D01*
X75680000Y-78030000D02*
X65110000Y-67460000D01*
X60430000Y-67460000D02*
X60410000Y-67440000D01*
X60410000Y-67440000D02*
X47000000Y-67440000D01*
%TO.N,High*%
X85969965Y-70089965D02*
X83450000Y-67570000D01*
X85969965Y-95230035D02*
X85969965Y-70089965D01*
X77860000Y-61780000D02*
X79520000Y-60120000D01*
X79520000Y-60120000D02*
X81980000Y-60120000D01*
X83450000Y-67570000D02*
X80460000Y-67570000D01*
X80400000Y-100800000D02*
X85969965Y-95230035D01*
X80460000Y-67570000D02*
X77860000Y-64970000D01*
X77860000Y-64970000D02*
X77860000Y-61780000D01*
%TO.N,Low*%
X84000000Y-100800000D02*
X86369965Y-98430035D01*
X86369965Y-98430035D02*
X86369965Y-69009965D01*
X86369965Y-69009965D02*
X81980000Y-64620000D01*
%TO.N,+5V*%
X49910000Y-91820000D02*
X41730000Y-83640000D01*
X41730000Y-72080000D02*
X43830000Y-69980000D01*
X75680000Y-91820000D02*
X49910000Y-91820000D01*
X41730000Y-83640000D02*
X41730000Y-72080000D01*
X75680000Y-95340000D02*
X75680000Y-91820000D01*
X43830000Y-69980000D02*
X47000000Y-69980000D01*
%TO.N,SCK*%
X47740000Y-95340000D02*
X47740000Y-91040000D01*
X47740000Y-91040000D02*
X40410000Y-83710000D01*
X40410000Y-83710000D02*
X40410000Y-62840000D01*
X40410000Y-62840000D02*
X42090000Y-61160000D01*
X42090000Y-58440000D02*
X43250000Y-57280000D01*
X43250000Y-57280000D02*
X47000000Y-57280000D01*
X42090000Y-61160000D02*
X42090000Y-58440000D01*
%TO.N,Net-(C1-Pad1)*%
X91000000Y-94500000D02*
X91000000Y-103420000D01*
X97400000Y-82080000D02*
X97400000Y-88100000D01*
X97400000Y-88100000D02*
X91000000Y-94500000D01*
X91000000Y-103420000D02*
X90400000Y-104020000D01*
%TO.N,arduino input*%
X76520000Y-116500000D02*
X55360000Y-95340000D01*
X88500000Y-116500000D02*
X76520000Y-116500000D01*
%TO.N,Net-(U1-DIS)*%
X107760000Y-88620000D02*
X105220000Y-88620000D01*
X109500000Y-90360000D02*
X109500000Y-94500000D01*
X112620000Y-97620000D02*
X109500000Y-94500000D01*
X112620000Y-102800000D02*
X112620000Y-97620000D01*
X107760000Y-88620000D02*
X109500000Y-90360000D01*
%TO.N,Net-(U1-CV)*%
X102680000Y-88620000D02*
X102680000Y-96460000D01*
X102680000Y-96460000D02*
X103820000Y-97600000D01*
%TO.N,Net-(D1-K)*%
X100615000Y-51180000D02*
X101000000Y-50795000D01*
X104995000Y-50795000D02*
X105000000Y-50790000D01*
X95800000Y-51180000D02*
X100615000Y-51180000D01*
X101000000Y-50795000D02*
X104995000Y-50795000D01*
X109310000Y-50790000D02*
X109600000Y-51080000D01*
X105000000Y-50790000D02*
X109310000Y-50790000D01*
%TO.N,Possitive*%
X93500000Y-50000000D02*
X93500000Y-64120000D01*
X95000000Y-46100000D02*
X95000000Y-48500000D01*
X95000000Y-48500000D02*
X93500000Y-50000000D01*
X93500000Y-64120000D02*
X95800000Y-66420000D01*
%TO.N,+5v*%
X86769965Y-87439265D02*
X86769965Y-102930035D01*
X90300000Y-82540000D02*
X96600000Y-76240000D01*
X105680000Y-84000000D02*
X102680000Y-81000000D01*
X97380000Y-112300000D02*
X92880000Y-107800000D01*
X89089230Y-85120000D02*
X86769965Y-87439265D01*
X111500000Y-84000000D02*
X111500000Y-87420000D01*
X113500000Y-81000000D02*
X113500000Y-82000000D01*
X113500000Y-82000000D02*
X111500000Y-84000000D01*
X90300000Y-85120000D02*
X90300000Y-82540000D01*
X86769965Y-102930035D02*
X81900000Y-107800000D01*
X111500000Y-87420000D02*
X110300000Y-88620000D01*
X92880000Y-107800000D02*
X81900000Y-107800000D01*
X90300000Y-85120000D02*
X89089230Y-85120000D01*
X110200000Y-77620000D02*
X110200000Y-77700000D01*
X110200000Y-77700000D02*
X113500000Y-81000000D01*
X111500000Y-84000000D02*
X105680000Y-84000000D01*
%TO.N,Net-(Q1-B)*%
X106710000Y-63430000D02*
X103250000Y-63430000D01*
X109600000Y-66320000D02*
X106710000Y-63430000D01*
%TO.N,555 output*%
X95000000Y-81000000D02*
X96500000Y-79500000D01*
X90400000Y-88780000D02*
X95000000Y-84180000D01*
X95000000Y-84180000D02*
X95000000Y-81000000D01*
X103720000Y-79500000D02*
X105220000Y-81000000D01*
X96500000Y-79500000D02*
X103720000Y-79500000D01*
%TO.N,555 input*%
X90300000Y-66700000D02*
X90300000Y-66520000D01*
X107660000Y-77620000D02*
X105040000Y-75000000D01*
X107660000Y-77620000D02*
X107660000Y-80900000D01*
X91500000Y-75000000D02*
X87500000Y-71000000D01*
X107660000Y-80900000D02*
X107760000Y-81000000D01*
X87500000Y-71000000D02*
X87500000Y-69500000D01*
X105040000Y-75000000D02*
X91500000Y-75000000D01*
X87500000Y-69500000D02*
X90300000Y-66700000D01*
%TO.N,Net-(U2--)*%
X101500000Y-72500000D02*
X102620000Y-72500000D01*
X102620000Y-72500000D02*
X105120000Y-70000000D01*
X96600000Y-71160000D02*
X100160000Y-71160000D01*
X100160000Y-71160000D02*
X101500000Y-72500000D01*
%TO.N,Net-(R4-Pad1)*%
X97380000Y-102800000D02*
X97380000Y-107800000D01*
%TO.N,Net-(R4-Pad2)*%
X112620000Y-112300000D02*
X112620000Y-107800000D01*
%TD*%
M02*
