M48
; DRILL file {KiCad 8.0.6} date 2025-02-27T20:48:24-0700
; FORMAT={-:-/ absolute / inch / decimal}
; #@! TF.CreationDate,2025-02-27T20:48:24-07:00
; #@! TF.GenerationSoftware,Kicad,Pcbnew,8.0.6
; #@! TF.FileFunction,Plated,1,2,PTH
FMAT,2
INCH
; #@! TA.AperFunction,Plated,PTH,ComponentDrill
T1C0.0236
; #@! TA.AperFunction,Plated,PTH,ComponentDrill
T2C0.0281
; #@! TA.AperFunction,Plated,PTH,ComponentDrill
T3C0.0295
; #@! TA.AperFunction,Plated,PTH,ComponentDrill
T4C0.0315
; #@! TA.AperFunction,Plated,PTH,ComponentDrill
T5C0.0354
; #@! TA.AperFunction,Plated,PTH,ComponentDrill
T6C0.0472
; #@! TA.AperFunction,Plated,PTH,ComponentDrill
T7C0.0591
; #@! TA.AperFunction,Plated,PTH,ComponentDrill
T8C0.0610
%
G90
G05
T1
X2.8819Y-3.9685
X3.0236Y-3.9685
X3.1654Y-3.9685
X3.3071Y-3.9685
T2
X3.7031Y-2.9016
X3.8031Y-2.8016
X3.8031Y-3.0016
T3
X4.065Y-2.4488
X4.065Y-2.4972
X4.065Y-2.5472
T4
X3.4843Y-4.5866
X3.4959Y-4.311
X3.5827Y-4.5866
X3.5943Y-4.311
X4.0386Y-2.7559
X4.0386Y-3.0559
X4.0425Y-3.189
X4.0425Y-3.489
X4.0874Y-3.6457
X4.0874Y-3.8425
X4.1386Y-2.7559
X4.1386Y-3.0559
X4.1425Y-3.189
X4.1425Y-3.489
X4.2386Y-2.7559
X4.2386Y-3.0559
X4.2425Y-3.189
X4.2425Y-3.489
X4.311Y-3.7205
X4.3386Y-2.7559
X4.3386Y-3.0559
X4.3425Y-3.189
X4.3425Y-3.489
X4.4107Y-3.7205
T5
X1.8504Y-2.1551
X1.8504Y-2.2551
X1.8504Y-2.3551
X1.8504Y-2.4551
X1.8504Y-2.5551
X1.8504Y-2.6551
X1.8504Y-2.7551
X1.8795Y-3.1535
X1.8795Y-3.7535
X1.9795Y-3.1535
X1.9795Y-3.7535
X2.0795Y-3.1535
X2.0795Y-3.7535
X2.1795Y-3.1535
X2.1795Y-3.7535
X2.2795Y-3.1535
X2.2795Y-3.7535
X2.3795Y-3.1535
X2.3795Y-3.7535
X2.4795Y-3.1535
X2.4795Y-3.7535
X2.5795Y-3.1535
X2.5795Y-3.7535
X2.6795Y-3.1535
X2.6795Y-3.7535
X2.7795Y-3.1535
X2.7795Y-3.7535
X2.8795Y-3.1535
X2.8795Y-3.7535
X2.9795Y-3.1535
X2.9795Y-3.7535
X3.0795Y-3.1535
X3.0795Y-3.7535
X3.1795Y-3.1535
X3.1795Y-3.7535
X3.2795Y-3.1535
X3.2795Y-3.7535
X3.9764Y-1.9998
X3.9764Y-2.2998
X4.1339Y-1.9996
X4.1339Y-2.2996
T6
X3.5551Y-2.0189
X3.5551Y-2.6189
X3.5551Y-2.7512
X3.5551Y-3.3512
X3.5591Y-3.4953
X3.5591Y-4.0953
X3.7717Y-2.015
X3.7717Y-2.615
X3.8339Y-4.0472
X3.8339Y-4.2441
X3.8339Y-4.4213
X3.8346Y-3.2315
X3.8346Y-3.8315
X4.315Y-2.011
X4.315Y-2.611
X4.4339Y-4.0472
X4.4339Y-4.2441
X4.4339Y-4.4213
T7
X3.2276Y-2.3669
X3.2276Y-2.5441
T8
X3.0354Y-4.2441
X3.2244Y-4.2441
X3.5512Y-1.815
X3.7402Y-1.815
M30
