%TF.GenerationSoftware,KiCad,Pcbnew,8.0.6*%
%TF.CreationDate,2025-02-27T20:48:22-07:00*%
%TF.ProjectId,Tachometerkicad,54616368-6f6d-4657-9465-726b69636164,rev?*%
%TF.SameCoordinates,Original*%
%TF.FileFunction,Soldermask,Top*%
%TF.FilePolarity,Negative*%
%FSLAX46Y46*%
G04 Gerber Fmt 4.6, Leading zero omitted, Abs format (unit mm)*
G04 Created by KiCad (PCBNEW 8.0.6) date 2025-02-27 20:48:22*
%MOMM*%
%LPD*%
G01*
G04 APERTURE LIST*
G04 Aperture macros list*
%AMRoundRect*
0 Rectangle with rounded corners*
0 $1 Rounding radius*
0 $2 $3 $4 $5 $6 $7 $8 $9 X,Y pos of 4 corners*
0 Add a 4 corners polygon primitive as box body*
4,1,4,$2,$3,$4,$5,$6,$7,$8,$9,$2,$3,0*
0 Add four circle primitives for the rounded corners*
1,1,$1+$1,$2,$3*
1,1,$1+$1,$4,$5*
1,1,$1+$1,$6,$7*
1,1,$1+$1,$8,$9*
0 Add four rect primitives between the rounded corners*
20,1,$1+$1,$2,$3,$4,$5,0*
20,1,$1+$1,$4,$5,$6,$7,0*
20,1,$1+$1,$6,$7,$8,$9,0*
20,1,$1+$1,$8,$9,$2,$3,0*%
G04 Aperture macros list end*
%ADD10C,2.004000*%
%ADD11C,2.404000*%
%ADD12R,1.600000X1.600000*%
%ADD13C,1.600000*%
%ADD14RoundRect,0.102000X-0.900000X0.900000X-0.900000X-0.900000X0.900000X-0.900000X0.900000X0.900000X0*%
%ADD15C,2.400000*%
%ADD16O,2.400000X2.400000*%
%ADD17R,1.500000X1.050000*%
%ADD18O,1.500000X1.050000*%
%ADD19C,3.200000*%
%ADD20RoundRect,0.250000X0.550000X0.550000X-0.550000X0.550000X-0.550000X-0.550000X0.550000X-0.550000X0*%
%ADD21RoundRect,0.102000X0.611000X-0.611000X0.611000X0.611000X-0.611000X0.611000X-0.611000X-0.611000X0*%
%ADD22C,1.426000*%
%ADD23R,1.800000X1.800000*%
%ADD24O,1.800000X1.800000*%
%ADD25O,1.600000X1.600000*%
%ADD26RoundRect,0.249999X1.025001X1.025001X-1.025001X1.025001X-1.025001X-1.025001X1.025001X-1.025001X0*%
%ADD27C,2.550000*%
%ADD28RoundRect,0.249999X-1.025001X-1.025001X1.025001X-1.025001X1.025001X1.025001X-1.025001X1.025001X0*%
G04 APERTURE END LIST*
D10*
%TO.C,UNIT_2*%
X47000000Y-54740000D03*
X47000000Y-57280000D03*
X47000000Y-59820000D03*
X47000000Y-62360000D03*
X47000000Y-64900000D03*
X47000000Y-67440000D03*
X47000000Y-69980000D03*
D11*
X81980000Y-60120000D03*
X81980000Y-64620000D03*
%TD*%
D12*
%TO.C,C1*%
X88794888Y-109500000D03*
D13*
X91294888Y-109500000D03*
%TD*%
D14*
%TO.C,UNIT_1*%
X83300000Y-80100000D03*
D10*
X80760000Y-80100000D03*
X78220000Y-80100000D03*
X75680000Y-80100000D03*
X73140000Y-80100000D03*
X70600000Y-80100000D03*
X68060000Y-80100000D03*
X65520000Y-80100000D03*
X62980000Y-80100000D03*
X60440000Y-80100000D03*
X57900000Y-80100000D03*
X55360000Y-80100000D03*
X52820000Y-80100000D03*
X50280000Y-80100000D03*
X47740000Y-80100000D03*
X47740000Y-95340000D03*
X50280000Y-95340000D03*
X52820000Y-95340000D03*
X55360000Y-95340000D03*
X57900000Y-95340000D03*
X60440000Y-95340000D03*
X62980000Y-95340000D03*
X65520000Y-95340000D03*
X68060000Y-95340000D03*
X70600000Y-95340000D03*
X73140000Y-95340000D03*
X75680000Y-95340000D03*
X78220000Y-95340000D03*
X80760000Y-95340000D03*
X83300000Y-95340000D03*
%TD*%
D15*
%TO.C,R6*%
X112620000Y-112300000D03*
D16*
X97380000Y-112300000D03*
%TD*%
D17*
%TO.C,Q1*%
X103250000Y-62200000D03*
D18*
X103250000Y-63430000D03*
X103250000Y-64700000D03*
%TD*%
D19*
%TO.C,REF\u002A\u002A*%
X110000000Y-45000000D03*
%TD*%
D12*
%TO.C,C3*%
X112031000Y-94500000D03*
D13*
X109500000Y-94500000D03*
%TD*%
D15*
%TO.C,R10*%
X90300000Y-66520000D03*
D16*
X90300000Y-51280000D03*
%TD*%
D15*
%TO.C,R11*%
X97400000Y-82080000D03*
D16*
X97400000Y-97320000D03*
%TD*%
D20*
%TO.C,J4*%
X84000000Y-100800000D03*
D13*
X80400000Y-100800000D03*
X76800000Y-100800000D03*
X73200000Y-100800000D03*
%TD*%
D15*
%TO.C,R1*%
X95800000Y-66420000D03*
D16*
X95800000Y-51180000D03*
%TD*%
D21*
%TO.C,VR1*%
X96600000Y-76240000D03*
D22*
X94060000Y-73700000D03*
X96600000Y-71160000D03*
%TD*%
D15*
%TO.C,R7*%
X112620000Y-102800000D03*
D16*
X97380000Y-102800000D03*
%TD*%
D23*
%TO.C,D2*%
X101000000Y-50795000D03*
D24*
X101000000Y-58415000D03*
%TD*%
D15*
%TO.C,R2*%
X109600000Y-51080000D03*
D16*
X109600000Y-66320000D03*
%TD*%
D15*
%TO.C,R3*%
X90300000Y-85120000D03*
D16*
X90300000Y-69880000D03*
%TD*%
D12*
%TO.C,U1*%
X110300000Y-81000000D03*
D25*
X107760000Y-81000000D03*
X105220000Y-81000000D03*
X102680000Y-81000000D03*
X102680000Y-88620000D03*
X105220000Y-88620000D03*
X107760000Y-88620000D03*
X110300000Y-88620000D03*
%TD*%
D26*
%TO.C,J3*%
X81900000Y-107800000D03*
D27*
X77100000Y-107800000D03*
%TD*%
D19*
%TO.C,REF\u002A\u002A*%
X40000000Y-120000000D03*
%TD*%
D28*
%TO.C,J1*%
X90200000Y-46100000D03*
D27*
X95000000Y-46100000D03*
%TD*%
D15*
%TO.C,R4*%
X97380000Y-107800000D03*
D16*
X112620000Y-107800000D03*
%TD*%
D19*
%TO.C,REF\u002A\u002A*%
X40000000Y-45000000D03*
%TD*%
D13*
%TO.C,C4*%
X103820000Y-97600000D03*
X103820000Y-92600000D03*
%TD*%
D12*
%TO.C,U2*%
X110200000Y-70000000D03*
D25*
X107660000Y-70000000D03*
X105120000Y-70000000D03*
X102580000Y-70000000D03*
X102580000Y-77620000D03*
X105120000Y-77620000D03*
X107660000Y-77620000D03*
X110200000Y-77620000D03*
%TD*%
D12*
%TO.C,C2*%
X88500000Y-116500000D03*
D13*
X91000000Y-116500000D03*
%TD*%
D15*
%TO.C,R5*%
X90400000Y-88780000D03*
D16*
X90400000Y-104020000D03*
%TD*%
D19*
%TO.C,REF\u002A\u002A*%
X110000000Y-120000000D03*
%TD*%
D23*
%TO.C,D1*%
X105000000Y-50790000D03*
D24*
X105000000Y-58410000D03*
%TD*%
M02*
