%TF.GenerationSoftware,KiCad,Pcbnew,9.0.0*%
%TF.CreationDate,2025-03-25T19:27:29-07:00*%
%TF.ProjectId,Speedometer,53706565-646f-46d6-9574-65722e6b6963,v1*%
%TF.SameCoordinates,Original*%
%TF.FileFunction,Legend,Top*%
%TF.FilePolarity,Positive*%
%FSLAX46Y46*%
G04 Gerber Fmt 4.6, Leading zero omitted, Abs format (unit mm)*
G04 Created by KiCad (PCBNEW 9.0.0) date 2025-03-25 19:27:29*
%MOMM*%
%LPD*%
G01*
G04 APERTURE LIST*
%ADD10C,0.100000*%
%ADD11C,0.150000*%
%ADD12C,0.200000*%
%ADD13C,0.300000*%
%ADD14C,0.120000*%
G04 APERTURE END LIST*
D10*
X126837217Y-71296895D02*
X126456265Y-71296895D01*
X126456265Y-71296895D02*
X126418169Y-71677847D01*
X126418169Y-71677847D02*
X126456265Y-71639752D01*
X126456265Y-71639752D02*
X126532455Y-71601657D01*
X126532455Y-71601657D02*
X126722931Y-71601657D01*
X126722931Y-71601657D02*
X126799122Y-71639752D01*
X126799122Y-71639752D02*
X126837217Y-71677847D01*
X126837217Y-71677847D02*
X126875312Y-71754038D01*
X126875312Y-71754038D02*
X126875312Y-71944514D01*
X126875312Y-71944514D02*
X126837217Y-72020704D01*
X126837217Y-72020704D02*
X126799122Y-72058800D01*
X126799122Y-72058800D02*
X126722931Y-72096895D01*
X126722931Y-72096895D02*
X126532455Y-72096895D01*
X126532455Y-72096895D02*
X126456265Y-72058800D01*
X126456265Y-72058800D02*
X126418169Y-72020704D01*
X127103884Y-71296895D02*
X127370551Y-72096895D01*
X127370551Y-72096895D02*
X127637217Y-71296895D01*
X134037217Y-105896895D02*
X133656265Y-105896895D01*
X133656265Y-105896895D02*
X133618169Y-106277847D01*
X133618169Y-106277847D02*
X133656265Y-106239752D01*
X133656265Y-106239752D02*
X133732455Y-106201657D01*
X133732455Y-106201657D02*
X133922931Y-106201657D01*
X133922931Y-106201657D02*
X133999122Y-106239752D01*
X133999122Y-106239752D02*
X134037217Y-106277847D01*
X134037217Y-106277847D02*
X134075312Y-106354038D01*
X134075312Y-106354038D02*
X134075312Y-106544514D01*
X134075312Y-106544514D02*
X134037217Y-106620704D01*
X134037217Y-106620704D02*
X133999122Y-106658800D01*
X133999122Y-106658800D02*
X133922931Y-106696895D01*
X133922931Y-106696895D02*
X133732455Y-106696895D01*
X133732455Y-106696895D02*
X133656265Y-106658800D01*
X133656265Y-106658800D02*
X133618169Y-106620704D01*
X134303884Y-105896895D02*
X134570551Y-106696895D01*
X134570551Y-106696895D02*
X134837217Y-105896895D01*
X118037217Y-62696895D02*
X117656265Y-62696895D01*
X117656265Y-62696895D02*
X117618169Y-63077847D01*
X117618169Y-63077847D02*
X117656265Y-63039752D01*
X117656265Y-63039752D02*
X117732455Y-63001657D01*
X117732455Y-63001657D02*
X117922931Y-63001657D01*
X117922931Y-63001657D02*
X117999122Y-63039752D01*
X117999122Y-63039752D02*
X118037217Y-63077847D01*
X118037217Y-63077847D02*
X118075312Y-63154038D01*
X118075312Y-63154038D02*
X118075312Y-63344514D01*
X118075312Y-63344514D02*
X118037217Y-63420704D01*
X118037217Y-63420704D02*
X117999122Y-63458800D01*
X117999122Y-63458800D02*
X117922931Y-63496895D01*
X117922931Y-63496895D02*
X117732455Y-63496895D01*
X117732455Y-63496895D02*
X117656265Y-63458800D01*
X117656265Y-63458800D02*
X117618169Y-63420704D01*
X118303884Y-62696895D02*
X118570551Y-63496895D01*
X118570551Y-63496895D02*
X118837217Y-62696895D01*
X126237217Y-48496895D02*
X125856265Y-48496895D01*
X125856265Y-48496895D02*
X125818169Y-48877847D01*
X125818169Y-48877847D02*
X125856265Y-48839752D01*
X125856265Y-48839752D02*
X125932455Y-48801657D01*
X125932455Y-48801657D02*
X126122931Y-48801657D01*
X126122931Y-48801657D02*
X126199122Y-48839752D01*
X126199122Y-48839752D02*
X126237217Y-48877847D01*
X126237217Y-48877847D02*
X126275312Y-48954038D01*
X126275312Y-48954038D02*
X126275312Y-49144514D01*
X126275312Y-49144514D02*
X126237217Y-49220704D01*
X126237217Y-49220704D02*
X126199122Y-49258800D01*
X126199122Y-49258800D02*
X126122931Y-49296895D01*
X126122931Y-49296895D02*
X125932455Y-49296895D01*
X125932455Y-49296895D02*
X125856265Y-49258800D01*
X125856265Y-49258800D02*
X125818169Y-49220704D01*
X126503884Y-48496895D02*
X126770551Y-49296895D01*
X126770551Y-49296895D02*
X127037217Y-48496895D01*
D11*
X122357142Y-48454819D02*
X121880952Y-48454819D01*
X121880952Y-48454819D02*
X121880952Y-47454819D01*
X122690476Y-47931009D02*
X123023809Y-47931009D01*
X123166666Y-48454819D02*
X122690476Y-48454819D01*
X122690476Y-48454819D02*
X122690476Y-47454819D01*
X122690476Y-47454819D02*
X123166666Y-47454819D01*
X123595238Y-48454819D02*
X123595238Y-47454819D01*
X123595238Y-47454819D02*
X123833333Y-47454819D01*
X123833333Y-47454819D02*
X123976190Y-47502438D01*
X123976190Y-47502438D02*
X124071428Y-47597676D01*
X124071428Y-47597676D02*
X124119047Y-47692914D01*
X124119047Y-47692914D02*
X124166666Y-47883390D01*
X124166666Y-47883390D02*
X124166666Y-48026247D01*
X124166666Y-48026247D02*
X124119047Y-48216723D01*
X124119047Y-48216723D02*
X124071428Y-48311961D01*
X124071428Y-48311961D02*
X123976190Y-48407200D01*
X123976190Y-48407200D02*
X123833333Y-48454819D01*
X123833333Y-48454819D02*
X123595238Y-48454819D01*
D10*
X127137217Y-66596895D02*
X126756265Y-66596895D01*
X126756265Y-66596895D02*
X126718169Y-66977847D01*
X126718169Y-66977847D02*
X126756265Y-66939752D01*
X126756265Y-66939752D02*
X126832455Y-66901657D01*
X126832455Y-66901657D02*
X127022931Y-66901657D01*
X127022931Y-66901657D02*
X127099122Y-66939752D01*
X127099122Y-66939752D02*
X127137217Y-66977847D01*
X127137217Y-66977847D02*
X127175312Y-67054038D01*
X127175312Y-67054038D02*
X127175312Y-67244514D01*
X127175312Y-67244514D02*
X127137217Y-67320704D01*
X127137217Y-67320704D02*
X127099122Y-67358800D01*
X127099122Y-67358800D02*
X127022931Y-67396895D01*
X127022931Y-67396895D02*
X126832455Y-67396895D01*
X126832455Y-67396895D02*
X126756265Y-67358800D01*
X126756265Y-67358800D02*
X126718169Y-67320704D01*
X127403884Y-66596895D02*
X127670551Y-67396895D01*
X127670551Y-67396895D02*
X127937217Y-66596895D01*
X124437217Y-48496895D02*
X124056265Y-48496895D01*
X124056265Y-48496895D02*
X124018169Y-48877847D01*
X124018169Y-48877847D02*
X124056265Y-48839752D01*
X124056265Y-48839752D02*
X124132455Y-48801657D01*
X124132455Y-48801657D02*
X124322931Y-48801657D01*
X124322931Y-48801657D02*
X124399122Y-48839752D01*
X124399122Y-48839752D02*
X124437217Y-48877847D01*
X124437217Y-48877847D02*
X124475312Y-48954038D01*
X124475312Y-48954038D02*
X124475312Y-49144514D01*
X124475312Y-49144514D02*
X124437217Y-49220704D01*
X124437217Y-49220704D02*
X124399122Y-49258800D01*
X124399122Y-49258800D02*
X124322931Y-49296895D01*
X124322931Y-49296895D02*
X124132455Y-49296895D01*
X124132455Y-49296895D02*
X124056265Y-49258800D01*
X124056265Y-49258800D02*
X124018169Y-49220704D01*
X124703884Y-48496895D02*
X124970551Y-49296895D01*
X124970551Y-49296895D02*
X125237217Y-48496895D01*
D12*
X74445863Y-66067219D02*
X73969673Y-66067219D01*
X73969673Y-66067219D02*
X73969673Y-65067219D01*
X74922054Y-66067219D02*
X74826816Y-66019600D01*
X74826816Y-66019600D02*
X74779197Y-65971980D01*
X74779197Y-65971980D02*
X74731578Y-65876742D01*
X74731578Y-65876742D02*
X74731578Y-65591028D01*
X74731578Y-65591028D02*
X74779197Y-65495790D01*
X74779197Y-65495790D02*
X74826816Y-65448171D01*
X74826816Y-65448171D02*
X74922054Y-65400552D01*
X74922054Y-65400552D02*
X75064911Y-65400552D01*
X75064911Y-65400552D02*
X75160149Y-65448171D01*
X75160149Y-65448171D02*
X75207768Y-65495790D01*
X75207768Y-65495790D02*
X75255387Y-65591028D01*
X75255387Y-65591028D02*
X75255387Y-65876742D01*
X75255387Y-65876742D02*
X75207768Y-65971980D01*
X75207768Y-65971980D02*
X75160149Y-66019600D01*
X75160149Y-66019600D02*
X75064911Y-66067219D01*
X75064911Y-66067219D02*
X74922054Y-66067219D01*
X75588721Y-65400552D02*
X75779197Y-66067219D01*
X75779197Y-66067219D02*
X75969673Y-65591028D01*
X75969673Y-65591028D02*
X76160149Y-66067219D01*
X76160149Y-66067219D02*
X76350625Y-65400552D01*
D13*
X105340225Y-62872257D02*
X105197368Y-62800828D01*
X105197368Y-62800828D02*
X104983082Y-62800828D01*
X104983082Y-62800828D02*
X104768796Y-62872257D01*
X104768796Y-62872257D02*
X104625939Y-63015114D01*
X104625939Y-63015114D02*
X104554510Y-63157971D01*
X104554510Y-63157971D02*
X104483082Y-63443685D01*
X104483082Y-63443685D02*
X104483082Y-63657971D01*
X104483082Y-63657971D02*
X104554510Y-63943685D01*
X104554510Y-63943685D02*
X104625939Y-64086542D01*
X104625939Y-64086542D02*
X104768796Y-64229400D01*
X104768796Y-64229400D02*
X104983082Y-64300828D01*
X104983082Y-64300828D02*
X105125939Y-64300828D01*
X105125939Y-64300828D02*
X105340225Y-64229400D01*
X105340225Y-64229400D02*
X105411653Y-64157971D01*
X105411653Y-64157971D02*
X105411653Y-63657971D01*
X105411653Y-63657971D02*
X105125939Y-63657971D01*
X106054510Y-64300828D02*
X106054510Y-62800828D01*
X106054510Y-62800828D02*
X106911653Y-64300828D01*
X106911653Y-64300828D02*
X106911653Y-62800828D01*
X107625939Y-64300828D02*
X107625939Y-62800828D01*
X107625939Y-62800828D02*
X107983082Y-62800828D01*
X107983082Y-62800828D02*
X108197368Y-62872257D01*
X108197368Y-62872257D02*
X108340225Y-63015114D01*
X108340225Y-63015114D02*
X108411654Y-63157971D01*
X108411654Y-63157971D02*
X108483082Y-63443685D01*
X108483082Y-63443685D02*
X108483082Y-63657971D01*
X108483082Y-63657971D02*
X108411654Y-63943685D01*
X108411654Y-63943685D02*
X108340225Y-64086542D01*
X108340225Y-64086542D02*
X108197368Y-64229400D01*
X108197368Y-64229400D02*
X107983082Y-64300828D01*
X107983082Y-64300828D02*
X107625939Y-64300828D01*
D10*
X135883884Y-84982419D02*
X135883884Y-83982419D01*
X135883884Y-83982419D02*
X136455312Y-84982419D01*
X136455312Y-84982419D02*
X136455312Y-83982419D01*
X136883884Y-84696704D02*
X137360074Y-84696704D01*
X136788646Y-84982419D02*
X137121979Y-83982419D01*
X137121979Y-83982419D02*
X137455312Y-84982419D01*
X137788646Y-84982419D02*
X137788646Y-83982419D01*
X137788646Y-83982419D02*
X138360074Y-84982419D01*
X138360074Y-84982419D02*
X138360074Y-83982419D01*
X139026741Y-83982419D02*
X139217217Y-83982419D01*
X139217217Y-83982419D02*
X139312455Y-84030038D01*
X139312455Y-84030038D02*
X139407693Y-84125276D01*
X139407693Y-84125276D02*
X139455312Y-84315752D01*
X139455312Y-84315752D02*
X139455312Y-84649085D01*
X139455312Y-84649085D02*
X139407693Y-84839561D01*
X139407693Y-84839561D02*
X139312455Y-84934800D01*
X139312455Y-84934800D02*
X139217217Y-84982419D01*
X139217217Y-84982419D02*
X139026741Y-84982419D01*
X139026741Y-84982419D02*
X138931503Y-84934800D01*
X138931503Y-84934800D02*
X138836265Y-84839561D01*
X138836265Y-84839561D02*
X138788646Y-84649085D01*
X138788646Y-84649085D02*
X138788646Y-84315752D01*
X138788646Y-84315752D02*
X138836265Y-84125276D01*
X138836265Y-84125276D02*
X138931503Y-84030038D01*
X138931503Y-84030038D02*
X139026741Y-83982419D01*
D12*
X77469673Y-66067219D02*
X77469673Y-65067219D01*
X77469673Y-65543409D02*
X78041101Y-65543409D01*
X78041101Y-66067219D02*
X78041101Y-65067219D01*
X78517292Y-66067219D02*
X78517292Y-65400552D01*
X78517292Y-65067219D02*
X78469673Y-65114838D01*
X78469673Y-65114838D02*
X78517292Y-65162457D01*
X78517292Y-65162457D02*
X78564911Y-65114838D01*
X78564911Y-65114838D02*
X78517292Y-65067219D01*
X78517292Y-65067219D02*
X78517292Y-65162457D01*
X79422053Y-65400552D02*
X79422053Y-66210076D01*
X79422053Y-66210076D02*
X79374434Y-66305314D01*
X79374434Y-66305314D02*
X79326815Y-66352933D01*
X79326815Y-66352933D02*
X79231577Y-66400552D01*
X79231577Y-66400552D02*
X79088720Y-66400552D01*
X79088720Y-66400552D02*
X78993482Y-66352933D01*
X79422053Y-66019600D02*
X79326815Y-66067219D01*
X79326815Y-66067219D02*
X79136339Y-66067219D01*
X79136339Y-66067219D02*
X79041101Y-66019600D01*
X79041101Y-66019600D02*
X78993482Y-65971980D01*
X78993482Y-65971980D02*
X78945863Y-65876742D01*
X78945863Y-65876742D02*
X78945863Y-65591028D01*
X78945863Y-65591028D02*
X78993482Y-65495790D01*
X78993482Y-65495790D02*
X79041101Y-65448171D01*
X79041101Y-65448171D02*
X79136339Y-65400552D01*
X79136339Y-65400552D02*
X79326815Y-65400552D01*
X79326815Y-65400552D02*
X79422053Y-65448171D01*
X79898244Y-66067219D02*
X79898244Y-65067219D01*
X80326815Y-66067219D02*
X80326815Y-65543409D01*
X80326815Y-65543409D02*
X80279196Y-65448171D01*
X80279196Y-65448171D02*
X80183958Y-65400552D01*
X80183958Y-65400552D02*
X80041101Y-65400552D01*
X80041101Y-65400552D02*
X79945863Y-65448171D01*
X79945863Y-65448171D02*
X79898244Y-65495790D01*
D10*
X126675312Y-64134990D02*
X126599122Y-64096895D01*
X126599122Y-64096895D02*
X126484836Y-64096895D01*
X126484836Y-64096895D02*
X126370550Y-64134990D01*
X126370550Y-64134990D02*
X126294360Y-64211180D01*
X126294360Y-64211180D02*
X126256265Y-64287371D01*
X126256265Y-64287371D02*
X126218169Y-64439752D01*
X126218169Y-64439752D02*
X126218169Y-64554038D01*
X126218169Y-64554038D02*
X126256265Y-64706419D01*
X126256265Y-64706419D02*
X126294360Y-64782609D01*
X126294360Y-64782609D02*
X126370550Y-64858800D01*
X126370550Y-64858800D02*
X126484836Y-64896895D01*
X126484836Y-64896895D02*
X126561027Y-64896895D01*
X126561027Y-64896895D02*
X126675312Y-64858800D01*
X126675312Y-64858800D02*
X126713408Y-64820704D01*
X126713408Y-64820704D02*
X126713408Y-64554038D01*
X126713408Y-64554038D02*
X126561027Y-64554038D01*
X127056265Y-64896895D02*
X127056265Y-64096895D01*
X127056265Y-64096895D02*
X127513408Y-64896895D01*
X127513408Y-64896895D02*
X127513408Y-64096895D01*
X127894360Y-64896895D02*
X127894360Y-64096895D01*
X127894360Y-64096895D02*
X128084836Y-64096895D01*
X128084836Y-64096895D02*
X128199122Y-64134990D01*
X128199122Y-64134990D02*
X128275312Y-64211180D01*
X128275312Y-64211180D02*
X128313407Y-64287371D01*
X128313407Y-64287371D02*
X128351503Y-64439752D01*
X128351503Y-64439752D02*
X128351503Y-64554038D01*
X128351503Y-64554038D02*
X128313407Y-64706419D01*
X128313407Y-64706419D02*
X128275312Y-64782609D01*
X128275312Y-64782609D02*
X128199122Y-64858800D01*
X128199122Y-64858800D02*
X128084836Y-64896895D01*
X128084836Y-64896895D02*
X127894360Y-64896895D01*
X159675312Y-66634990D02*
X159599122Y-66596895D01*
X159599122Y-66596895D02*
X159484836Y-66596895D01*
X159484836Y-66596895D02*
X159370550Y-66634990D01*
X159370550Y-66634990D02*
X159294360Y-66711180D01*
X159294360Y-66711180D02*
X159256265Y-66787371D01*
X159256265Y-66787371D02*
X159218169Y-66939752D01*
X159218169Y-66939752D02*
X159218169Y-67054038D01*
X159218169Y-67054038D02*
X159256265Y-67206419D01*
X159256265Y-67206419D02*
X159294360Y-67282609D01*
X159294360Y-67282609D02*
X159370550Y-67358800D01*
X159370550Y-67358800D02*
X159484836Y-67396895D01*
X159484836Y-67396895D02*
X159561027Y-67396895D01*
X159561027Y-67396895D02*
X159675312Y-67358800D01*
X159675312Y-67358800D02*
X159713408Y-67320704D01*
X159713408Y-67320704D02*
X159713408Y-67054038D01*
X159713408Y-67054038D02*
X159561027Y-67054038D01*
X160056265Y-67396895D02*
X160056265Y-66596895D01*
X160056265Y-66596895D02*
X160513408Y-67396895D01*
X160513408Y-67396895D02*
X160513408Y-66596895D01*
X160894360Y-67396895D02*
X160894360Y-66596895D01*
X160894360Y-66596895D02*
X161084836Y-66596895D01*
X161084836Y-66596895D02*
X161199122Y-66634990D01*
X161199122Y-66634990D02*
X161275312Y-66711180D01*
X161275312Y-66711180D02*
X161313407Y-66787371D01*
X161313407Y-66787371D02*
X161351503Y-66939752D01*
X161351503Y-66939752D02*
X161351503Y-67054038D01*
X161351503Y-67054038D02*
X161313407Y-67206419D01*
X161313407Y-67206419D02*
X161275312Y-67282609D01*
X161275312Y-67282609D02*
X161199122Y-67358800D01*
X161199122Y-67358800D02*
X161084836Y-67396895D01*
X161084836Y-67396895D02*
X160894360Y-67396895D01*
D13*
X101268796Y-62800828D02*
X100554510Y-62800828D01*
X100554510Y-62800828D02*
X100483082Y-63515114D01*
X100483082Y-63515114D02*
X100554510Y-63443685D01*
X100554510Y-63443685D02*
X100697368Y-63372257D01*
X100697368Y-63372257D02*
X101054510Y-63372257D01*
X101054510Y-63372257D02*
X101197368Y-63443685D01*
X101197368Y-63443685D02*
X101268796Y-63515114D01*
X101268796Y-63515114D02*
X101340225Y-63657971D01*
X101340225Y-63657971D02*
X101340225Y-64015114D01*
X101340225Y-64015114D02*
X101268796Y-64157971D01*
X101268796Y-64157971D02*
X101197368Y-64229400D01*
X101197368Y-64229400D02*
X101054510Y-64300828D01*
X101054510Y-64300828D02*
X100697368Y-64300828D01*
X100697368Y-64300828D02*
X100554510Y-64229400D01*
X100554510Y-64229400D02*
X100483082Y-64157971D01*
X101768796Y-62800828D02*
X102268796Y-64300828D01*
X102268796Y-64300828D02*
X102768796Y-62800828D01*
D12*
X81845863Y-66067219D02*
X81369673Y-66067219D01*
X81369673Y-66067219D02*
X81369673Y-65067219D01*
X82322054Y-66067219D02*
X82226816Y-66019600D01*
X82226816Y-66019600D02*
X82179197Y-65971980D01*
X82179197Y-65971980D02*
X82131578Y-65876742D01*
X82131578Y-65876742D02*
X82131578Y-65591028D01*
X82131578Y-65591028D02*
X82179197Y-65495790D01*
X82179197Y-65495790D02*
X82226816Y-65448171D01*
X82226816Y-65448171D02*
X82322054Y-65400552D01*
X82322054Y-65400552D02*
X82464911Y-65400552D01*
X82464911Y-65400552D02*
X82560149Y-65448171D01*
X82560149Y-65448171D02*
X82607768Y-65495790D01*
X82607768Y-65495790D02*
X82655387Y-65591028D01*
X82655387Y-65591028D02*
X82655387Y-65876742D01*
X82655387Y-65876742D02*
X82607768Y-65971980D01*
X82607768Y-65971980D02*
X82560149Y-66019600D01*
X82560149Y-66019600D02*
X82464911Y-66067219D01*
X82464911Y-66067219D02*
X82322054Y-66067219D01*
X82988721Y-65400552D02*
X83179197Y-66067219D01*
X83179197Y-66067219D02*
X83369673Y-65591028D01*
X83369673Y-65591028D02*
X83560149Y-66067219D01*
X83560149Y-66067219D02*
X83750625Y-65400552D01*
X84969673Y-66067219D02*
X84969673Y-65067219D01*
X84969673Y-65543409D02*
X85541101Y-65543409D01*
X85541101Y-66067219D02*
X85541101Y-65067219D01*
X86017292Y-66067219D02*
X86017292Y-65400552D01*
X86017292Y-65067219D02*
X85969673Y-65114838D01*
X85969673Y-65114838D02*
X86017292Y-65162457D01*
X86017292Y-65162457D02*
X86064911Y-65114838D01*
X86064911Y-65114838D02*
X86017292Y-65067219D01*
X86017292Y-65067219D02*
X86017292Y-65162457D01*
X86922053Y-65400552D02*
X86922053Y-66210076D01*
X86922053Y-66210076D02*
X86874434Y-66305314D01*
X86874434Y-66305314D02*
X86826815Y-66352933D01*
X86826815Y-66352933D02*
X86731577Y-66400552D01*
X86731577Y-66400552D02*
X86588720Y-66400552D01*
X86588720Y-66400552D02*
X86493482Y-66352933D01*
X86922053Y-66019600D02*
X86826815Y-66067219D01*
X86826815Y-66067219D02*
X86636339Y-66067219D01*
X86636339Y-66067219D02*
X86541101Y-66019600D01*
X86541101Y-66019600D02*
X86493482Y-65971980D01*
X86493482Y-65971980D02*
X86445863Y-65876742D01*
X86445863Y-65876742D02*
X86445863Y-65591028D01*
X86445863Y-65591028D02*
X86493482Y-65495790D01*
X86493482Y-65495790D02*
X86541101Y-65448171D01*
X86541101Y-65448171D02*
X86636339Y-65400552D01*
X86636339Y-65400552D02*
X86826815Y-65400552D01*
X86826815Y-65400552D02*
X86922053Y-65448171D01*
X87398244Y-66067219D02*
X87398244Y-65067219D01*
X87826815Y-66067219D02*
X87826815Y-65543409D01*
X87826815Y-65543409D02*
X87779196Y-65448171D01*
X87779196Y-65448171D02*
X87683958Y-65400552D01*
X87683958Y-65400552D02*
X87541101Y-65400552D01*
X87541101Y-65400552D02*
X87445863Y-65448171D01*
X87445863Y-65448171D02*
X87398244Y-65495790D01*
D10*
X93875312Y-65577180D02*
X93827693Y-65624800D01*
X93827693Y-65624800D02*
X93684836Y-65672419D01*
X93684836Y-65672419D02*
X93589598Y-65672419D01*
X93589598Y-65672419D02*
X93446741Y-65624800D01*
X93446741Y-65624800D02*
X93351503Y-65529561D01*
X93351503Y-65529561D02*
X93303884Y-65434323D01*
X93303884Y-65434323D02*
X93256265Y-65243847D01*
X93256265Y-65243847D02*
X93256265Y-65100990D01*
X93256265Y-65100990D02*
X93303884Y-64910514D01*
X93303884Y-64910514D02*
X93351503Y-64815276D01*
X93351503Y-64815276D02*
X93446741Y-64720038D01*
X93446741Y-64720038D02*
X93589598Y-64672419D01*
X93589598Y-64672419D02*
X93684836Y-64672419D01*
X93684836Y-64672419D02*
X93827693Y-64720038D01*
X93827693Y-64720038D02*
X93875312Y-64767657D01*
X94256265Y-65386704D02*
X94732455Y-65386704D01*
X94161027Y-65672419D02*
X94494360Y-64672419D01*
X94494360Y-64672419D02*
X94827693Y-65672419D01*
X95161027Y-65672419D02*
X95161027Y-64672419D01*
X95161027Y-64672419D02*
X95732455Y-65672419D01*
X95732455Y-65672419D02*
X95732455Y-64672419D01*
D11*
X69854819Y-102195238D02*
X69854819Y-102766666D01*
X69854819Y-102480952D02*
X68854819Y-102480952D01*
X68854819Y-102480952D02*
X68997676Y-102576190D01*
X68997676Y-102576190D02*
X69092914Y-102671428D01*
X69092914Y-102671428D02*
X69140533Y-102766666D01*
X68854819Y-101576190D02*
X68854819Y-101480952D01*
X68854819Y-101480952D02*
X68902438Y-101385714D01*
X68902438Y-101385714D02*
X68950057Y-101338095D01*
X68950057Y-101338095D02*
X69045295Y-101290476D01*
X69045295Y-101290476D02*
X69235771Y-101242857D01*
X69235771Y-101242857D02*
X69473866Y-101242857D01*
X69473866Y-101242857D02*
X69664342Y-101290476D01*
X69664342Y-101290476D02*
X69759580Y-101338095D01*
X69759580Y-101338095D02*
X69807200Y-101385714D01*
X69807200Y-101385714D02*
X69854819Y-101480952D01*
X69854819Y-101480952D02*
X69854819Y-101576190D01*
X69854819Y-101576190D02*
X69807200Y-101671428D01*
X69807200Y-101671428D02*
X69759580Y-101719047D01*
X69759580Y-101719047D02*
X69664342Y-101766666D01*
X69664342Y-101766666D02*
X69473866Y-101814285D01*
X69473866Y-101814285D02*
X69235771Y-101814285D01*
X69235771Y-101814285D02*
X69045295Y-101766666D01*
X69045295Y-101766666D02*
X68950057Y-101719047D01*
X68950057Y-101719047D02*
X68902438Y-101671428D01*
X68902438Y-101671428D02*
X68854819Y-101576190D01*
X69854819Y-100814285D02*
X68854819Y-100814285D01*
X69473866Y-100719047D02*
X69854819Y-100433333D01*
X69188152Y-100433333D02*
X69569104Y-100814285D01*
X82054819Y-102275238D02*
X82054819Y-102846666D01*
X82054819Y-102560952D02*
X81054819Y-102560952D01*
X81054819Y-102560952D02*
X81197676Y-102656190D01*
X81197676Y-102656190D02*
X81292914Y-102751428D01*
X81292914Y-102751428D02*
X81340533Y-102846666D01*
X81054819Y-101656190D02*
X81054819Y-101560952D01*
X81054819Y-101560952D02*
X81102438Y-101465714D01*
X81102438Y-101465714D02*
X81150057Y-101418095D01*
X81150057Y-101418095D02*
X81245295Y-101370476D01*
X81245295Y-101370476D02*
X81435771Y-101322857D01*
X81435771Y-101322857D02*
X81673866Y-101322857D01*
X81673866Y-101322857D02*
X81864342Y-101370476D01*
X81864342Y-101370476D02*
X81959580Y-101418095D01*
X81959580Y-101418095D02*
X82007200Y-101465714D01*
X82007200Y-101465714D02*
X82054819Y-101560952D01*
X82054819Y-101560952D02*
X82054819Y-101656190D01*
X82054819Y-101656190D02*
X82007200Y-101751428D01*
X82007200Y-101751428D02*
X81959580Y-101799047D01*
X81959580Y-101799047D02*
X81864342Y-101846666D01*
X81864342Y-101846666D02*
X81673866Y-101894285D01*
X81673866Y-101894285D02*
X81435771Y-101894285D01*
X81435771Y-101894285D02*
X81245295Y-101846666D01*
X81245295Y-101846666D02*
X81150057Y-101799047D01*
X81150057Y-101799047D02*
X81102438Y-101751428D01*
X81102438Y-101751428D02*
X81054819Y-101656190D01*
X82054819Y-100894285D02*
X81054819Y-100894285D01*
X81673866Y-100799047D02*
X82054819Y-100513333D01*
X81388152Y-100513333D02*
X81769104Y-100894285D01*
X77054819Y-102965713D02*
X77054819Y-102346666D01*
X77054819Y-102346666D02*
X77435771Y-102679999D01*
X77435771Y-102679999D02*
X77435771Y-102537142D01*
X77435771Y-102537142D02*
X77483390Y-102441904D01*
X77483390Y-102441904D02*
X77531009Y-102394285D01*
X77531009Y-102394285D02*
X77626247Y-102346666D01*
X77626247Y-102346666D02*
X77864342Y-102346666D01*
X77864342Y-102346666D02*
X77959580Y-102394285D01*
X77959580Y-102394285D02*
X78007200Y-102441904D01*
X78007200Y-102441904D02*
X78054819Y-102537142D01*
X78054819Y-102537142D02*
X78054819Y-102822856D01*
X78054819Y-102822856D02*
X78007200Y-102918094D01*
X78007200Y-102918094D02*
X77959580Y-102965713D01*
X77054819Y-101727618D02*
X77054819Y-101632380D01*
X77054819Y-101632380D02*
X77102438Y-101537142D01*
X77102438Y-101537142D02*
X77150057Y-101489523D01*
X77150057Y-101489523D02*
X77245295Y-101441904D01*
X77245295Y-101441904D02*
X77435771Y-101394285D01*
X77435771Y-101394285D02*
X77673866Y-101394285D01*
X77673866Y-101394285D02*
X77864342Y-101441904D01*
X77864342Y-101441904D02*
X77959580Y-101489523D01*
X77959580Y-101489523D02*
X78007200Y-101537142D01*
X78007200Y-101537142D02*
X78054819Y-101632380D01*
X78054819Y-101632380D02*
X78054819Y-101727618D01*
X78054819Y-101727618D02*
X78007200Y-101822856D01*
X78007200Y-101822856D02*
X77959580Y-101870475D01*
X77959580Y-101870475D02*
X77864342Y-101918094D01*
X77864342Y-101918094D02*
X77673866Y-101965713D01*
X77673866Y-101965713D02*
X77435771Y-101965713D01*
X77435771Y-101965713D02*
X77245295Y-101918094D01*
X77245295Y-101918094D02*
X77150057Y-101870475D01*
X77150057Y-101870475D02*
X77102438Y-101822856D01*
X77102438Y-101822856D02*
X77054819Y-101727618D01*
X77054819Y-100775237D02*
X77054819Y-100679999D01*
X77054819Y-100679999D02*
X77102438Y-100584761D01*
X77102438Y-100584761D02*
X77150057Y-100537142D01*
X77150057Y-100537142D02*
X77245295Y-100489523D01*
X77245295Y-100489523D02*
X77435771Y-100441904D01*
X77435771Y-100441904D02*
X77673866Y-100441904D01*
X77673866Y-100441904D02*
X77864342Y-100489523D01*
X77864342Y-100489523D02*
X77959580Y-100537142D01*
X77959580Y-100537142D02*
X78007200Y-100584761D01*
X78007200Y-100584761D02*
X78054819Y-100679999D01*
X78054819Y-100679999D02*
X78054819Y-100775237D01*
X78054819Y-100775237D02*
X78007200Y-100870475D01*
X78007200Y-100870475D02*
X77959580Y-100918094D01*
X77959580Y-100918094D02*
X77864342Y-100965713D01*
X77864342Y-100965713D02*
X77673866Y-101013332D01*
X77673866Y-101013332D02*
X77435771Y-101013332D01*
X77435771Y-101013332D02*
X77245295Y-100965713D01*
X77245295Y-100965713D02*
X77150057Y-100918094D01*
X77150057Y-100918094D02*
X77102438Y-100870475D01*
X77102438Y-100870475D02*
X77054819Y-100775237D01*
X94150057Y-102766666D02*
X94102438Y-102719047D01*
X94102438Y-102719047D02*
X94054819Y-102623809D01*
X94054819Y-102623809D02*
X94054819Y-102385714D01*
X94054819Y-102385714D02*
X94102438Y-102290476D01*
X94102438Y-102290476D02*
X94150057Y-102242857D01*
X94150057Y-102242857D02*
X94245295Y-102195238D01*
X94245295Y-102195238D02*
X94340533Y-102195238D01*
X94340533Y-102195238D02*
X94483390Y-102242857D01*
X94483390Y-102242857D02*
X95054819Y-102814285D01*
X95054819Y-102814285D02*
X95054819Y-102195238D01*
X94150057Y-101814285D02*
X94102438Y-101766666D01*
X94102438Y-101766666D02*
X94054819Y-101671428D01*
X94054819Y-101671428D02*
X94054819Y-101433333D01*
X94054819Y-101433333D02*
X94102438Y-101338095D01*
X94102438Y-101338095D02*
X94150057Y-101290476D01*
X94150057Y-101290476D02*
X94245295Y-101242857D01*
X94245295Y-101242857D02*
X94340533Y-101242857D01*
X94340533Y-101242857D02*
X94483390Y-101290476D01*
X94483390Y-101290476D02*
X95054819Y-101861904D01*
X95054819Y-101861904D02*
X95054819Y-101242857D01*
X95054819Y-100814285D02*
X94054819Y-100814285D01*
X94673866Y-100719047D02*
X95054819Y-100433333D01*
X94388152Y-100433333D02*
X94769104Y-100814285D01*
X86854819Y-102195238D02*
X86854819Y-102766666D01*
X86854819Y-102480952D02*
X85854819Y-102480952D01*
X85854819Y-102480952D02*
X85997676Y-102576190D01*
X85997676Y-102576190D02*
X86092914Y-102671428D01*
X86092914Y-102671428D02*
X86140533Y-102766666D01*
X85854819Y-101576190D02*
X85854819Y-101480952D01*
X85854819Y-101480952D02*
X85902438Y-101385714D01*
X85902438Y-101385714D02*
X85950057Y-101338095D01*
X85950057Y-101338095D02*
X86045295Y-101290476D01*
X86045295Y-101290476D02*
X86235771Y-101242857D01*
X86235771Y-101242857D02*
X86473866Y-101242857D01*
X86473866Y-101242857D02*
X86664342Y-101290476D01*
X86664342Y-101290476D02*
X86759580Y-101338095D01*
X86759580Y-101338095D02*
X86807200Y-101385714D01*
X86807200Y-101385714D02*
X86854819Y-101480952D01*
X86854819Y-101480952D02*
X86854819Y-101576190D01*
X86854819Y-101576190D02*
X86807200Y-101671428D01*
X86807200Y-101671428D02*
X86759580Y-101719047D01*
X86759580Y-101719047D02*
X86664342Y-101766666D01*
X86664342Y-101766666D02*
X86473866Y-101814285D01*
X86473866Y-101814285D02*
X86235771Y-101814285D01*
X86235771Y-101814285D02*
X86045295Y-101766666D01*
X86045295Y-101766666D02*
X85950057Y-101719047D01*
X85950057Y-101719047D02*
X85902438Y-101671428D01*
X85902438Y-101671428D02*
X85854819Y-101576190D01*
X86854819Y-100814285D02*
X85854819Y-100814285D01*
X86473866Y-100719047D02*
X86854819Y-100433333D01*
X86188152Y-100433333D02*
X86569104Y-100814285D01*
X72854819Y-102814285D02*
X72854819Y-102195238D01*
X72854819Y-102195238D02*
X73235771Y-102528571D01*
X73235771Y-102528571D02*
X73235771Y-102385714D01*
X73235771Y-102385714D02*
X73283390Y-102290476D01*
X73283390Y-102290476D02*
X73331009Y-102242857D01*
X73331009Y-102242857D02*
X73426247Y-102195238D01*
X73426247Y-102195238D02*
X73664342Y-102195238D01*
X73664342Y-102195238D02*
X73759580Y-102242857D01*
X73759580Y-102242857D02*
X73807200Y-102290476D01*
X73807200Y-102290476D02*
X73854819Y-102385714D01*
X73854819Y-102385714D02*
X73854819Y-102671428D01*
X73854819Y-102671428D02*
X73807200Y-102766666D01*
X73807200Y-102766666D02*
X73759580Y-102814285D01*
X72854819Y-101861904D02*
X72854819Y-101242857D01*
X72854819Y-101242857D02*
X73235771Y-101576190D01*
X73235771Y-101576190D02*
X73235771Y-101433333D01*
X73235771Y-101433333D02*
X73283390Y-101338095D01*
X73283390Y-101338095D02*
X73331009Y-101290476D01*
X73331009Y-101290476D02*
X73426247Y-101242857D01*
X73426247Y-101242857D02*
X73664342Y-101242857D01*
X73664342Y-101242857D02*
X73759580Y-101290476D01*
X73759580Y-101290476D02*
X73807200Y-101338095D01*
X73807200Y-101338095D02*
X73854819Y-101433333D01*
X73854819Y-101433333D02*
X73854819Y-101719047D01*
X73854819Y-101719047D02*
X73807200Y-101814285D01*
X73807200Y-101814285D02*
X73759580Y-101861904D01*
X73854819Y-100814285D02*
X72854819Y-100814285D01*
X73473866Y-100719047D02*
X73854819Y-100433333D01*
X73188152Y-100433333D02*
X73569104Y-100814285D01*
X91054819Y-102275238D02*
X91054819Y-102846666D01*
X91054819Y-102560952D02*
X90054819Y-102560952D01*
X90054819Y-102560952D02*
X90197676Y-102656190D01*
X90197676Y-102656190D02*
X90292914Y-102751428D01*
X90292914Y-102751428D02*
X90340533Y-102846666D01*
X90054819Y-101656190D02*
X90054819Y-101560952D01*
X90054819Y-101560952D02*
X90102438Y-101465714D01*
X90102438Y-101465714D02*
X90150057Y-101418095D01*
X90150057Y-101418095D02*
X90245295Y-101370476D01*
X90245295Y-101370476D02*
X90435771Y-101322857D01*
X90435771Y-101322857D02*
X90673866Y-101322857D01*
X90673866Y-101322857D02*
X90864342Y-101370476D01*
X90864342Y-101370476D02*
X90959580Y-101418095D01*
X90959580Y-101418095D02*
X91007200Y-101465714D01*
X91007200Y-101465714D02*
X91054819Y-101560952D01*
X91054819Y-101560952D02*
X91054819Y-101656190D01*
X91054819Y-101656190D02*
X91007200Y-101751428D01*
X91007200Y-101751428D02*
X90959580Y-101799047D01*
X90959580Y-101799047D02*
X90864342Y-101846666D01*
X90864342Y-101846666D02*
X90673866Y-101894285D01*
X90673866Y-101894285D02*
X90435771Y-101894285D01*
X90435771Y-101894285D02*
X90245295Y-101846666D01*
X90245295Y-101846666D02*
X90150057Y-101799047D01*
X90150057Y-101799047D02*
X90102438Y-101751428D01*
X90102438Y-101751428D02*
X90054819Y-101656190D01*
X91054819Y-100894285D02*
X90054819Y-100894285D01*
X90673866Y-100799047D02*
X91054819Y-100513333D01*
X90388152Y-100513333D02*
X90769104Y-100894285D01*
X98854819Y-102275238D02*
X98854819Y-102846666D01*
X98854819Y-102560952D02*
X97854819Y-102560952D01*
X97854819Y-102560952D02*
X97997676Y-102656190D01*
X97997676Y-102656190D02*
X98092914Y-102751428D01*
X98092914Y-102751428D02*
X98140533Y-102846666D01*
X97854819Y-101656190D02*
X97854819Y-101560952D01*
X97854819Y-101560952D02*
X97902438Y-101465714D01*
X97902438Y-101465714D02*
X97950057Y-101418095D01*
X97950057Y-101418095D02*
X98045295Y-101370476D01*
X98045295Y-101370476D02*
X98235771Y-101322857D01*
X98235771Y-101322857D02*
X98473866Y-101322857D01*
X98473866Y-101322857D02*
X98664342Y-101370476D01*
X98664342Y-101370476D02*
X98759580Y-101418095D01*
X98759580Y-101418095D02*
X98807200Y-101465714D01*
X98807200Y-101465714D02*
X98854819Y-101560952D01*
X98854819Y-101560952D02*
X98854819Y-101656190D01*
X98854819Y-101656190D02*
X98807200Y-101751428D01*
X98807200Y-101751428D02*
X98759580Y-101799047D01*
X98759580Y-101799047D02*
X98664342Y-101846666D01*
X98664342Y-101846666D02*
X98473866Y-101894285D01*
X98473866Y-101894285D02*
X98235771Y-101894285D01*
X98235771Y-101894285D02*
X98045295Y-101846666D01*
X98045295Y-101846666D02*
X97950057Y-101799047D01*
X97950057Y-101799047D02*
X97902438Y-101751428D01*
X97902438Y-101751428D02*
X97854819Y-101656190D01*
X98854819Y-100894285D02*
X97854819Y-100894285D01*
X98473866Y-100799047D02*
X98854819Y-100513333D01*
X98188152Y-100513333D02*
X98569104Y-100894285D01*
X109843095Y-94114819D02*
X109843095Y-94924342D01*
X109843095Y-94924342D02*
X109890714Y-95019580D01*
X109890714Y-95019580D02*
X109938333Y-95067200D01*
X109938333Y-95067200D02*
X110033571Y-95114819D01*
X110033571Y-95114819D02*
X110224047Y-95114819D01*
X110224047Y-95114819D02*
X110319285Y-95067200D01*
X110319285Y-95067200D02*
X110366904Y-95019580D01*
X110366904Y-95019580D02*
X110414523Y-94924342D01*
X110414523Y-94924342D02*
X110414523Y-94114819D01*
X111319285Y-94114819D02*
X111128809Y-94114819D01*
X111128809Y-94114819D02*
X111033571Y-94162438D01*
X111033571Y-94162438D02*
X110985952Y-94210057D01*
X110985952Y-94210057D02*
X110890714Y-94352914D01*
X110890714Y-94352914D02*
X110843095Y-94543390D01*
X110843095Y-94543390D02*
X110843095Y-94924342D01*
X110843095Y-94924342D02*
X110890714Y-95019580D01*
X110890714Y-95019580D02*
X110938333Y-95067200D01*
X110938333Y-95067200D02*
X111033571Y-95114819D01*
X111033571Y-95114819D02*
X111224047Y-95114819D01*
X111224047Y-95114819D02*
X111319285Y-95067200D01*
X111319285Y-95067200D02*
X111366904Y-95019580D01*
X111366904Y-95019580D02*
X111414523Y-94924342D01*
X111414523Y-94924342D02*
X111414523Y-94686247D01*
X111414523Y-94686247D02*
X111366904Y-94591009D01*
X111366904Y-94591009D02*
X111319285Y-94543390D01*
X111319285Y-94543390D02*
X111224047Y-94495771D01*
X111224047Y-94495771D02*
X111033571Y-94495771D01*
X111033571Y-94495771D02*
X110938333Y-94543390D01*
X110938333Y-94543390D02*
X110890714Y-94591009D01*
X110890714Y-94591009D02*
X110843095Y-94686247D01*
X111254819Y-103666666D02*
X110254819Y-103666666D01*
X110254819Y-103666666D02*
X111254819Y-103095238D01*
X111254819Y-103095238D02*
X110254819Y-103095238D01*
X110731009Y-102619047D02*
X110731009Y-102285714D01*
X111254819Y-102142857D02*
X111254819Y-102619047D01*
X111254819Y-102619047D02*
X110254819Y-102619047D01*
X110254819Y-102619047D02*
X110254819Y-102142857D01*
X110254819Y-101238095D02*
X110254819Y-101714285D01*
X110254819Y-101714285D02*
X110731009Y-101761904D01*
X110731009Y-101761904D02*
X110683390Y-101714285D01*
X110683390Y-101714285D02*
X110635771Y-101619047D01*
X110635771Y-101619047D02*
X110635771Y-101380952D01*
X110635771Y-101380952D02*
X110683390Y-101285714D01*
X110683390Y-101285714D02*
X110731009Y-101238095D01*
X110731009Y-101238095D02*
X110826247Y-101190476D01*
X110826247Y-101190476D02*
X111064342Y-101190476D01*
X111064342Y-101190476D02*
X111159580Y-101238095D01*
X111159580Y-101238095D02*
X111207200Y-101285714D01*
X111207200Y-101285714D02*
X111254819Y-101380952D01*
X111254819Y-101380952D02*
X111254819Y-101619047D01*
X111254819Y-101619047D02*
X111207200Y-101714285D01*
X111207200Y-101714285D02*
X111159580Y-101761904D01*
X110254819Y-100285714D02*
X110254819Y-100761904D01*
X110254819Y-100761904D02*
X110731009Y-100809523D01*
X110731009Y-100809523D02*
X110683390Y-100761904D01*
X110683390Y-100761904D02*
X110635771Y-100666666D01*
X110635771Y-100666666D02*
X110635771Y-100428571D01*
X110635771Y-100428571D02*
X110683390Y-100333333D01*
X110683390Y-100333333D02*
X110731009Y-100285714D01*
X110731009Y-100285714D02*
X110826247Y-100238095D01*
X110826247Y-100238095D02*
X111064342Y-100238095D01*
X111064342Y-100238095D02*
X111159580Y-100285714D01*
X111159580Y-100285714D02*
X111207200Y-100333333D01*
X111207200Y-100333333D02*
X111254819Y-100428571D01*
X111254819Y-100428571D02*
X111254819Y-100666666D01*
X111254819Y-100666666D02*
X111207200Y-100761904D01*
X111207200Y-100761904D02*
X111159580Y-100809523D01*
X110254819Y-99333333D02*
X110254819Y-99809523D01*
X110254819Y-99809523D02*
X110731009Y-99857142D01*
X110731009Y-99857142D02*
X110683390Y-99809523D01*
X110683390Y-99809523D02*
X110635771Y-99714285D01*
X110635771Y-99714285D02*
X110635771Y-99476190D01*
X110635771Y-99476190D02*
X110683390Y-99380952D01*
X110683390Y-99380952D02*
X110731009Y-99333333D01*
X110731009Y-99333333D02*
X110826247Y-99285714D01*
X110826247Y-99285714D02*
X111064342Y-99285714D01*
X111064342Y-99285714D02*
X111159580Y-99333333D01*
X111159580Y-99333333D02*
X111207200Y-99380952D01*
X111207200Y-99380952D02*
X111254819Y-99476190D01*
X111254819Y-99476190D02*
X111254819Y-99714285D01*
X111254819Y-99714285D02*
X111207200Y-99809523D01*
X111207200Y-99809523D02*
X111159580Y-99857142D01*
X111254819Y-98857142D02*
X110254819Y-98857142D01*
X110254819Y-98857142D02*
X110254819Y-98476190D01*
X110254819Y-98476190D02*
X110302438Y-98380952D01*
X110302438Y-98380952D02*
X110350057Y-98333333D01*
X110350057Y-98333333D02*
X110445295Y-98285714D01*
X110445295Y-98285714D02*
X110588152Y-98285714D01*
X110588152Y-98285714D02*
X110683390Y-98333333D01*
X110683390Y-98333333D02*
X110731009Y-98380952D01*
X110731009Y-98380952D02*
X110778628Y-98476190D01*
X110778628Y-98476190D02*
X110778628Y-98857142D01*
X103854819Y-101558094D02*
X102854819Y-101558094D01*
X102854819Y-101558094D02*
X102854819Y-101319999D01*
X102854819Y-101319999D02*
X102902438Y-101177142D01*
X102902438Y-101177142D02*
X102997676Y-101081904D01*
X102997676Y-101081904D02*
X103092914Y-101034285D01*
X103092914Y-101034285D02*
X103283390Y-100986666D01*
X103283390Y-100986666D02*
X103426247Y-100986666D01*
X103426247Y-100986666D02*
X103616723Y-101034285D01*
X103616723Y-101034285D02*
X103711961Y-101081904D01*
X103711961Y-101081904D02*
X103807200Y-101177142D01*
X103807200Y-101177142D02*
X103854819Y-101319999D01*
X103854819Y-101319999D02*
X103854819Y-101558094D01*
X102854819Y-100129523D02*
X102854819Y-100319999D01*
X102854819Y-100319999D02*
X102902438Y-100415237D01*
X102902438Y-100415237D02*
X102950057Y-100462856D01*
X102950057Y-100462856D02*
X103092914Y-100558094D01*
X103092914Y-100558094D02*
X103283390Y-100605713D01*
X103283390Y-100605713D02*
X103664342Y-100605713D01*
X103664342Y-100605713D02*
X103759580Y-100558094D01*
X103759580Y-100558094D02*
X103807200Y-100510475D01*
X103807200Y-100510475D02*
X103854819Y-100415237D01*
X103854819Y-100415237D02*
X103854819Y-100224761D01*
X103854819Y-100224761D02*
X103807200Y-100129523D01*
X103807200Y-100129523D02*
X103759580Y-100081904D01*
X103759580Y-100081904D02*
X103664342Y-100034285D01*
X103664342Y-100034285D02*
X103426247Y-100034285D01*
X103426247Y-100034285D02*
X103331009Y-100081904D01*
X103331009Y-100081904D02*
X103283390Y-100129523D01*
X103283390Y-100129523D02*
X103235771Y-100224761D01*
X103235771Y-100224761D02*
X103235771Y-100415237D01*
X103235771Y-100415237D02*
X103283390Y-100510475D01*
X103283390Y-100510475D02*
X103331009Y-100558094D01*
X103331009Y-100558094D02*
X103426247Y-100605713D01*
X127957142Y-107254819D02*
X127480952Y-107254819D01*
X127480952Y-107254819D02*
X127480952Y-106254819D01*
X128290476Y-106731009D02*
X128623809Y-106731009D01*
X128766666Y-107254819D02*
X128290476Y-107254819D01*
X128290476Y-107254819D02*
X128290476Y-106254819D01*
X128290476Y-106254819D02*
X128766666Y-106254819D01*
X129195238Y-107254819D02*
X129195238Y-106254819D01*
X129195238Y-106254819D02*
X129433333Y-106254819D01*
X129433333Y-106254819D02*
X129576190Y-106302438D01*
X129576190Y-106302438D02*
X129671428Y-106397676D01*
X129671428Y-106397676D02*
X129719047Y-106492914D01*
X129719047Y-106492914D02*
X129766666Y-106683390D01*
X129766666Y-106683390D02*
X129766666Y-106826247D01*
X129766666Y-106826247D02*
X129719047Y-107016723D01*
X129719047Y-107016723D02*
X129671428Y-107111961D01*
X129671428Y-107111961D02*
X129576190Y-107207200D01*
X129576190Y-107207200D02*
X129433333Y-107254819D01*
X129433333Y-107254819D02*
X129195238Y-107254819D01*
X119459524Y-103350057D02*
X119507143Y-103302438D01*
X119507143Y-103302438D02*
X119602381Y-103254819D01*
X119602381Y-103254819D02*
X119840476Y-103254819D01*
X119840476Y-103254819D02*
X119935714Y-103302438D01*
X119935714Y-103302438D02*
X119983333Y-103350057D01*
X119983333Y-103350057D02*
X120030952Y-103445295D01*
X120030952Y-103445295D02*
X120030952Y-103540533D01*
X120030952Y-103540533D02*
X119983333Y-103683390D01*
X119983333Y-103683390D02*
X119411905Y-104254819D01*
X119411905Y-104254819D02*
X120030952Y-104254819D01*
X120411905Y-103350057D02*
X120459524Y-103302438D01*
X120459524Y-103302438D02*
X120554762Y-103254819D01*
X120554762Y-103254819D02*
X120792857Y-103254819D01*
X120792857Y-103254819D02*
X120888095Y-103302438D01*
X120888095Y-103302438D02*
X120935714Y-103350057D01*
X120935714Y-103350057D02*
X120983333Y-103445295D01*
X120983333Y-103445295D02*
X120983333Y-103540533D01*
X120983333Y-103540533D02*
X120935714Y-103683390D01*
X120935714Y-103683390D02*
X120364286Y-104254819D01*
X120364286Y-104254819D02*
X120983333Y-104254819D01*
X121602381Y-103254819D02*
X121697619Y-103254819D01*
X121697619Y-103254819D02*
X121792857Y-103302438D01*
X121792857Y-103302438D02*
X121840476Y-103350057D01*
X121840476Y-103350057D02*
X121888095Y-103445295D01*
X121888095Y-103445295D02*
X121935714Y-103635771D01*
X121935714Y-103635771D02*
X121935714Y-103873866D01*
X121935714Y-103873866D02*
X121888095Y-104064342D01*
X121888095Y-104064342D02*
X121840476Y-104159580D01*
X121840476Y-104159580D02*
X121792857Y-104207200D01*
X121792857Y-104207200D02*
X121697619Y-104254819D01*
X121697619Y-104254819D02*
X121602381Y-104254819D01*
X121602381Y-104254819D02*
X121507143Y-104207200D01*
X121507143Y-104207200D02*
X121459524Y-104159580D01*
X121459524Y-104159580D02*
X121411905Y-104064342D01*
X121411905Y-104064342D02*
X121364286Y-103873866D01*
X121364286Y-103873866D02*
X121364286Y-103635771D01*
X121364286Y-103635771D02*
X121411905Y-103445295D01*
X121411905Y-103445295D02*
X121459524Y-103350057D01*
X121459524Y-103350057D02*
X121507143Y-103302438D01*
X121507143Y-103302438D02*
X121602381Y-103254819D01*
X122364286Y-103588152D02*
X122364286Y-104254819D01*
X122364286Y-103683390D02*
X122411905Y-103635771D01*
X122411905Y-103635771D02*
X122507143Y-103588152D01*
X122507143Y-103588152D02*
X122650000Y-103588152D01*
X122650000Y-103588152D02*
X122745238Y-103635771D01*
X122745238Y-103635771D02*
X122792857Y-103731009D01*
X122792857Y-103731009D02*
X122792857Y-104254819D01*
X138454819Y-97842857D02*
X138454819Y-98414285D01*
X138454819Y-98128571D02*
X137454819Y-98128571D01*
X137454819Y-98128571D02*
X137597676Y-98223809D01*
X137597676Y-98223809D02*
X137692914Y-98319047D01*
X137692914Y-98319047D02*
X137740533Y-98414285D01*
X137454819Y-97223809D02*
X137454819Y-97128571D01*
X137454819Y-97128571D02*
X137502438Y-97033333D01*
X137502438Y-97033333D02*
X137550057Y-96985714D01*
X137550057Y-96985714D02*
X137645295Y-96938095D01*
X137645295Y-96938095D02*
X137835771Y-96890476D01*
X137835771Y-96890476D02*
X138073866Y-96890476D01*
X138073866Y-96890476D02*
X138264342Y-96938095D01*
X138264342Y-96938095D02*
X138359580Y-96985714D01*
X138359580Y-96985714D02*
X138407200Y-97033333D01*
X138407200Y-97033333D02*
X138454819Y-97128571D01*
X138454819Y-97128571D02*
X138454819Y-97223809D01*
X138454819Y-97223809D02*
X138407200Y-97319047D01*
X138407200Y-97319047D02*
X138359580Y-97366666D01*
X138359580Y-97366666D02*
X138264342Y-97414285D01*
X138264342Y-97414285D02*
X138073866Y-97461904D01*
X138073866Y-97461904D02*
X137835771Y-97461904D01*
X137835771Y-97461904D02*
X137645295Y-97414285D01*
X137645295Y-97414285D02*
X137550057Y-97366666D01*
X137550057Y-97366666D02*
X137502438Y-97319047D01*
X137502438Y-97319047D02*
X137454819Y-97223809D01*
X137788152Y-96461904D02*
X138454819Y-96461904D01*
X137883390Y-96461904D02*
X137835771Y-96414285D01*
X137835771Y-96414285D02*
X137788152Y-96319047D01*
X137788152Y-96319047D02*
X137788152Y-96176190D01*
X137788152Y-96176190D02*
X137835771Y-96080952D01*
X137835771Y-96080952D02*
X137931009Y-96033333D01*
X137931009Y-96033333D02*
X138454819Y-96033333D01*
X133654819Y-97642857D02*
X133654819Y-98214285D01*
X133654819Y-97928571D02*
X132654819Y-97928571D01*
X132654819Y-97928571D02*
X132797676Y-98023809D01*
X132797676Y-98023809D02*
X132892914Y-98119047D01*
X132892914Y-98119047D02*
X132940533Y-98214285D01*
X132654819Y-97023809D02*
X132654819Y-96928571D01*
X132654819Y-96928571D02*
X132702438Y-96833333D01*
X132702438Y-96833333D02*
X132750057Y-96785714D01*
X132750057Y-96785714D02*
X132845295Y-96738095D01*
X132845295Y-96738095D02*
X133035771Y-96690476D01*
X133035771Y-96690476D02*
X133273866Y-96690476D01*
X133273866Y-96690476D02*
X133464342Y-96738095D01*
X133464342Y-96738095D02*
X133559580Y-96785714D01*
X133559580Y-96785714D02*
X133607200Y-96833333D01*
X133607200Y-96833333D02*
X133654819Y-96928571D01*
X133654819Y-96928571D02*
X133654819Y-97023809D01*
X133654819Y-97023809D02*
X133607200Y-97119047D01*
X133607200Y-97119047D02*
X133559580Y-97166666D01*
X133559580Y-97166666D02*
X133464342Y-97214285D01*
X133464342Y-97214285D02*
X133273866Y-97261904D01*
X133273866Y-97261904D02*
X133035771Y-97261904D01*
X133035771Y-97261904D02*
X132845295Y-97214285D01*
X132845295Y-97214285D02*
X132750057Y-97166666D01*
X132750057Y-97166666D02*
X132702438Y-97119047D01*
X132702438Y-97119047D02*
X132654819Y-97023809D01*
X132988152Y-96261904D02*
X133654819Y-96261904D01*
X133083390Y-96261904D02*
X133035771Y-96214285D01*
X133035771Y-96214285D02*
X132988152Y-96119047D01*
X132988152Y-96119047D02*
X132988152Y-95976190D01*
X132988152Y-95976190D02*
X133035771Y-95880952D01*
X133035771Y-95880952D02*
X133131009Y-95833333D01*
X133131009Y-95833333D02*
X133654819Y-95833333D01*
X125854819Y-96842857D02*
X125854819Y-97414285D01*
X125854819Y-97128571D02*
X124854819Y-97128571D01*
X124854819Y-97128571D02*
X124997676Y-97223809D01*
X124997676Y-97223809D02*
X125092914Y-97319047D01*
X125092914Y-97319047D02*
X125140533Y-97414285D01*
X124854819Y-96223809D02*
X124854819Y-96128571D01*
X124854819Y-96128571D02*
X124902438Y-96033333D01*
X124902438Y-96033333D02*
X124950057Y-95985714D01*
X124950057Y-95985714D02*
X125045295Y-95938095D01*
X125045295Y-95938095D02*
X125235771Y-95890476D01*
X125235771Y-95890476D02*
X125473866Y-95890476D01*
X125473866Y-95890476D02*
X125664342Y-95938095D01*
X125664342Y-95938095D02*
X125759580Y-95985714D01*
X125759580Y-95985714D02*
X125807200Y-96033333D01*
X125807200Y-96033333D02*
X125854819Y-96128571D01*
X125854819Y-96128571D02*
X125854819Y-96223809D01*
X125854819Y-96223809D02*
X125807200Y-96319047D01*
X125807200Y-96319047D02*
X125759580Y-96366666D01*
X125759580Y-96366666D02*
X125664342Y-96414285D01*
X125664342Y-96414285D02*
X125473866Y-96461904D01*
X125473866Y-96461904D02*
X125235771Y-96461904D01*
X125235771Y-96461904D02*
X125045295Y-96414285D01*
X125045295Y-96414285D02*
X124950057Y-96366666D01*
X124950057Y-96366666D02*
X124902438Y-96319047D01*
X124902438Y-96319047D02*
X124854819Y-96223809D01*
X125188152Y-95461904D02*
X125854819Y-95461904D01*
X125283390Y-95461904D02*
X125235771Y-95414285D01*
X125235771Y-95414285D02*
X125188152Y-95319047D01*
X125188152Y-95319047D02*
X125188152Y-95176190D01*
X125188152Y-95176190D02*
X125235771Y-95080952D01*
X125235771Y-95080952D02*
X125331009Y-95033333D01*
X125331009Y-95033333D02*
X125854819Y-95033333D01*
X147085714Y-101104819D02*
X146514286Y-101104819D01*
X146800000Y-101104819D02*
X146800000Y-100104819D01*
X146800000Y-100104819D02*
X146704762Y-100247676D01*
X146704762Y-100247676D02*
X146609524Y-100342914D01*
X146609524Y-100342914D02*
X146514286Y-100390533D01*
X147704762Y-100104819D02*
X147800000Y-100104819D01*
X147800000Y-100104819D02*
X147895238Y-100152438D01*
X147895238Y-100152438D02*
X147942857Y-100200057D01*
X147942857Y-100200057D02*
X147990476Y-100295295D01*
X147990476Y-100295295D02*
X148038095Y-100485771D01*
X148038095Y-100485771D02*
X148038095Y-100723866D01*
X148038095Y-100723866D02*
X147990476Y-100914342D01*
X147990476Y-100914342D02*
X147942857Y-101009580D01*
X147942857Y-101009580D02*
X147895238Y-101057200D01*
X147895238Y-101057200D02*
X147800000Y-101104819D01*
X147800000Y-101104819D02*
X147704762Y-101104819D01*
X147704762Y-101104819D02*
X147609524Y-101057200D01*
X147609524Y-101057200D02*
X147561905Y-101009580D01*
X147561905Y-101009580D02*
X147514286Y-100914342D01*
X147514286Y-100914342D02*
X147466667Y-100723866D01*
X147466667Y-100723866D02*
X147466667Y-100485771D01*
X147466667Y-100485771D02*
X147514286Y-100295295D01*
X147514286Y-100295295D02*
X147561905Y-100200057D01*
X147561905Y-100200057D02*
X147609524Y-100152438D01*
X147609524Y-100152438D02*
X147704762Y-100104819D01*
X148466667Y-100438152D02*
X148466667Y-101438152D01*
X148942857Y-100961961D02*
X148990476Y-101057200D01*
X148990476Y-101057200D02*
X149085714Y-101104819D01*
X148466667Y-100961961D02*
X148514286Y-101057200D01*
X148514286Y-101057200D02*
X148609524Y-101104819D01*
X148609524Y-101104819D02*
X148800000Y-101104819D01*
X148800000Y-101104819D02*
X148895238Y-101057200D01*
X148895238Y-101057200D02*
X148942857Y-100961961D01*
X148942857Y-100961961D02*
X148942857Y-100438152D01*
X141785714Y-100904819D02*
X141214286Y-100904819D01*
X141500000Y-100904819D02*
X141500000Y-99904819D01*
X141500000Y-99904819D02*
X141404762Y-100047676D01*
X141404762Y-100047676D02*
X141309524Y-100142914D01*
X141309524Y-100142914D02*
X141214286Y-100190533D01*
X142404762Y-99904819D02*
X142500000Y-99904819D01*
X142500000Y-99904819D02*
X142595238Y-99952438D01*
X142595238Y-99952438D02*
X142642857Y-100000057D01*
X142642857Y-100000057D02*
X142690476Y-100095295D01*
X142690476Y-100095295D02*
X142738095Y-100285771D01*
X142738095Y-100285771D02*
X142738095Y-100523866D01*
X142738095Y-100523866D02*
X142690476Y-100714342D01*
X142690476Y-100714342D02*
X142642857Y-100809580D01*
X142642857Y-100809580D02*
X142595238Y-100857200D01*
X142595238Y-100857200D02*
X142500000Y-100904819D01*
X142500000Y-100904819D02*
X142404762Y-100904819D01*
X142404762Y-100904819D02*
X142309524Y-100857200D01*
X142309524Y-100857200D02*
X142261905Y-100809580D01*
X142261905Y-100809580D02*
X142214286Y-100714342D01*
X142214286Y-100714342D02*
X142166667Y-100523866D01*
X142166667Y-100523866D02*
X142166667Y-100285771D01*
X142166667Y-100285771D02*
X142214286Y-100095295D01*
X142214286Y-100095295D02*
X142261905Y-100000057D01*
X142261905Y-100000057D02*
X142309524Y-99952438D01*
X142309524Y-99952438D02*
X142404762Y-99904819D01*
X143166667Y-100238152D02*
X143166667Y-101238152D01*
X143642857Y-100761961D02*
X143690476Y-100857200D01*
X143690476Y-100857200D02*
X143785714Y-100904819D01*
X143166667Y-100761961D02*
X143214286Y-100857200D01*
X143214286Y-100857200D02*
X143309524Y-100904819D01*
X143309524Y-100904819D02*
X143500000Y-100904819D01*
X143500000Y-100904819D02*
X143595238Y-100857200D01*
X143595238Y-100857200D02*
X143642857Y-100761961D01*
X143642857Y-100761961D02*
X143642857Y-100238152D01*
X68485714Y-93854819D02*
X67914286Y-93854819D01*
X68200000Y-93854819D02*
X68200000Y-92854819D01*
X68200000Y-92854819D02*
X68104762Y-92997676D01*
X68104762Y-92997676D02*
X68009524Y-93092914D01*
X68009524Y-93092914D02*
X67914286Y-93140533D01*
X69104762Y-92854819D02*
X69200000Y-92854819D01*
X69200000Y-92854819D02*
X69295238Y-92902438D01*
X69295238Y-92902438D02*
X69342857Y-92950057D01*
X69342857Y-92950057D02*
X69390476Y-93045295D01*
X69390476Y-93045295D02*
X69438095Y-93235771D01*
X69438095Y-93235771D02*
X69438095Y-93473866D01*
X69438095Y-93473866D02*
X69390476Y-93664342D01*
X69390476Y-93664342D02*
X69342857Y-93759580D01*
X69342857Y-93759580D02*
X69295238Y-93807200D01*
X69295238Y-93807200D02*
X69200000Y-93854819D01*
X69200000Y-93854819D02*
X69104762Y-93854819D01*
X69104762Y-93854819D02*
X69009524Y-93807200D01*
X69009524Y-93807200D02*
X68961905Y-93759580D01*
X68961905Y-93759580D02*
X68914286Y-93664342D01*
X68914286Y-93664342D02*
X68866667Y-93473866D01*
X68866667Y-93473866D02*
X68866667Y-93235771D01*
X68866667Y-93235771D02*
X68914286Y-93045295D01*
X68914286Y-93045295D02*
X68961905Y-92950057D01*
X68961905Y-92950057D02*
X69009524Y-92902438D01*
X69009524Y-92902438D02*
X69104762Y-92854819D01*
X69866667Y-93188152D02*
X69866667Y-94188152D01*
X70342857Y-93711961D02*
X70390476Y-93807200D01*
X70390476Y-93807200D02*
X70485714Y-93854819D01*
X69866667Y-93711961D02*
X69914286Y-93807200D01*
X69914286Y-93807200D02*
X70009524Y-93854819D01*
X70009524Y-93854819D02*
X70200000Y-93854819D01*
X70200000Y-93854819D02*
X70295238Y-93807200D01*
X70295238Y-93807200D02*
X70342857Y-93711961D01*
X70342857Y-93711961D02*
X70342857Y-93188152D01*
X127757142Y-48454819D02*
X127280952Y-48454819D01*
X127280952Y-48454819D02*
X127280952Y-47454819D01*
X128090476Y-47931009D02*
X128423809Y-47931009D01*
X128566666Y-48454819D02*
X128090476Y-48454819D01*
X128090476Y-48454819D02*
X128090476Y-47454819D01*
X128090476Y-47454819D02*
X128566666Y-47454819D01*
X128995238Y-48454819D02*
X128995238Y-47454819D01*
X128995238Y-47454819D02*
X129233333Y-47454819D01*
X129233333Y-47454819D02*
X129376190Y-47502438D01*
X129376190Y-47502438D02*
X129471428Y-47597676D01*
X129471428Y-47597676D02*
X129519047Y-47692914D01*
X129519047Y-47692914D02*
X129566666Y-47883390D01*
X129566666Y-47883390D02*
X129566666Y-48026247D01*
X129566666Y-48026247D02*
X129519047Y-48216723D01*
X129519047Y-48216723D02*
X129471428Y-48311961D01*
X129471428Y-48311961D02*
X129376190Y-48407200D01*
X129376190Y-48407200D02*
X129233333Y-48454819D01*
X129233333Y-48454819D02*
X128995238Y-48454819D01*
X64357142Y-80254819D02*
X63785714Y-80254819D01*
X64071428Y-80254819D02*
X64071428Y-79254819D01*
X64071428Y-79254819D02*
X63976190Y-79397676D01*
X63976190Y-79397676D02*
X63880952Y-79492914D01*
X63880952Y-79492914D02*
X63785714Y-79540533D01*
X64976190Y-79254819D02*
X65071428Y-79254819D01*
X65071428Y-79254819D02*
X65166666Y-79302438D01*
X65166666Y-79302438D02*
X65214285Y-79350057D01*
X65214285Y-79350057D02*
X65261904Y-79445295D01*
X65261904Y-79445295D02*
X65309523Y-79635771D01*
X65309523Y-79635771D02*
X65309523Y-79873866D01*
X65309523Y-79873866D02*
X65261904Y-80064342D01*
X65261904Y-80064342D02*
X65214285Y-80159580D01*
X65214285Y-80159580D02*
X65166666Y-80207200D01*
X65166666Y-80207200D02*
X65071428Y-80254819D01*
X65071428Y-80254819D02*
X64976190Y-80254819D01*
X64976190Y-80254819D02*
X64880952Y-80207200D01*
X64880952Y-80207200D02*
X64833333Y-80159580D01*
X64833333Y-80159580D02*
X64785714Y-80064342D01*
X64785714Y-80064342D02*
X64738095Y-79873866D01*
X64738095Y-79873866D02*
X64738095Y-79635771D01*
X64738095Y-79635771D02*
X64785714Y-79445295D01*
X64785714Y-79445295D02*
X64833333Y-79350057D01*
X64833333Y-79350057D02*
X64880952Y-79302438D01*
X64880952Y-79302438D02*
X64976190Y-79254819D01*
X65738095Y-79588152D02*
X65738095Y-80254819D01*
X65738095Y-79683390D02*
X65785714Y-79635771D01*
X65785714Y-79635771D02*
X65880952Y-79588152D01*
X65880952Y-79588152D02*
X66023809Y-79588152D01*
X66023809Y-79588152D02*
X66119047Y-79635771D01*
X66119047Y-79635771D02*
X66166666Y-79731009D01*
X66166666Y-79731009D02*
X66166666Y-80254819D01*
X113607142Y-73954819D02*
X113035714Y-73954819D01*
X113321428Y-73954819D02*
X113321428Y-72954819D01*
X113321428Y-72954819D02*
X113226190Y-73097676D01*
X113226190Y-73097676D02*
X113130952Y-73192914D01*
X113130952Y-73192914D02*
X113035714Y-73240533D01*
X114226190Y-72954819D02*
X114321428Y-72954819D01*
X114321428Y-72954819D02*
X114416666Y-73002438D01*
X114416666Y-73002438D02*
X114464285Y-73050057D01*
X114464285Y-73050057D02*
X114511904Y-73145295D01*
X114511904Y-73145295D02*
X114559523Y-73335771D01*
X114559523Y-73335771D02*
X114559523Y-73573866D01*
X114559523Y-73573866D02*
X114511904Y-73764342D01*
X114511904Y-73764342D02*
X114464285Y-73859580D01*
X114464285Y-73859580D02*
X114416666Y-73907200D01*
X114416666Y-73907200D02*
X114321428Y-73954819D01*
X114321428Y-73954819D02*
X114226190Y-73954819D01*
X114226190Y-73954819D02*
X114130952Y-73907200D01*
X114130952Y-73907200D02*
X114083333Y-73859580D01*
X114083333Y-73859580D02*
X114035714Y-73764342D01*
X114035714Y-73764342D02*
X113988095Y-73573866D01*
X113988095Y-73573866D02*
X113988095Y-73335771D01*
X113988095Y-73335771D02*
X114035714Y-73145295D01*
X114035714Y-73145295D02*
X114083333Y-73050057D01*
X114083333Y-73050057D02*
X114130952Y-73002438D01*
X114130952Y-73002438D02*
X114226190Y-72954819D01*
X114988095Y-73288152D02*
X114988095Y-73954819D01*
X114988095Y-73383390D02*
X115035714Y-73335771D01*
X115035714Y-73335771D02*
X115130952Y-73288152D01*
X115130952Y-73288152D02*
X115273809Y-73288152D01*
X115273809Y-73288152D02*
X115369047Y-73335771D01*
X115369047Y-73335771D02*
X115416666Y-73431009D01*
X115416666Y-73431009D02*
X115416666Y-73954819D01*
X64357142Y-84254819D02*
X63785714Y-84254819D01*
X64071428Y-84254819D02*
X64071428Y-83254819D01*
X64071428Y-83254819D02*
X63976190Y-83397676D01*
X63976190Y-83397676D02*
X63880952Y-83492914D01*
X63880952Y-83492914D02*
X63785714Y-83540533D01*
X64976190Y-83254819D02*
X65071428Y-83254819D01*
X65071428Y-83254819D02*
X65166666Y-83302438D01*
X65166666Y-83302438D02*
X65214285Y-83350057D01*
X65214285Y-83350057D02*
X65261904Y-83445295D01*
X65261904Y-83445295D02*
X65309523Y-83635771D01*
X65309523Y-83635771D02*
X65309523Y-83873866D01*
X65309523Y-83873866D02*
X65261904Y-84064342D01*
X65261904Y-84064342D02*
X65214285Y-84159580D01*
X65214285Y-84159580D02*
X65166666Y-84207200D01*
X65166666Y-84207200D02*
X65071428Y-84254819D01*
X65071428Y-84254819D02*
X64976190Y-84254819D01*
X64976190Y-84254819D02*
X64880952Y-84207200D01*
X64880952Y-84207200D02*
X64833333Y-84159580D01*
X64833333Y-84159580D02*
X64785714Y-84064342D01*
X64785714Y-84064342D02*
X64738095Y-83873866D01*
X64738095Y-83873866D02*
X64738095Y-83635771D01*
X64738095Y-83635771D02*
X64785714Y-83445295D01*
X64785714Y-83445295D02*
X64833333Y-83350057D01*
X64833333Y-83350057D02*
X64880952Y-83302438D01*
X64880952Y-83302438D02*
X64976190Y-83254819D01*
X65738095Y-83588152D02*
X65738095Y-84254819D01*
X65738095Y-83683390D02*
X65785714Y-83635771D01*
X65785714Y-83635771D02*
X65880952Y-83588152D01*
X65880952Y-83588152D02*
X66023809Y-83588152D01*
X66023809Y-83588152D02*
X66119047Y-83635771D01*
X66119047Y-83635771D02*
X66166666Y-83731009D01*
X66166666Y-83731009D02*
X66166666Y-84254819D01*
X112285714Y-48654819D02*
X111714286Y-48654819D01*
X112000000Y-48654819D02*
X112000000Y-47654819D01*
X112000000Y-47654819D02*
X111904762Y-47797676D01*
X111904762Y-47797676D02*
X111809524Y-47892914D01*
X111809524Y-47892914D02*
X111714286Y-47940533D01*
X112904762Y-47654819D02*
X113000000Y-47654819D01*
X113000000Y-47654819D02*
X113095238Y-47702438D01*
X113095238Y-47702438D02*
X113142857Y-47750057D01*
X113142857Y-47750057D02*
X113190476Y-47845295D01*
X113190476Y-47845295D02*
X113238095Y-48035771D01*
X113238095Y-48035771D02*
X113238095Y-48273866D01*
X113238095Y-48273866D02*
X113190476Y-48464342D01*
X113190476Y-48464342D02*
X113142857Y-48559580D01*
X113142857Y-48559580D02*
X113095238Y-48607200D01*
X113095238Y-48607200D02*
X113000000Y-48654819D01*
X113000000Y-48654819D02*
X112904762Y-48654819D01*
X112904762Y-48654819D02*
X112809524Y-48607200D01*
X112809524Y-48607200D02*
X112761905Y-48559580D01*
X112761905Y-48559580D02*
X112714286Y-48464342D01*
X112714286Y-48464342D02*
X112666667Y-48273866D01*
X112666667Y-48273866D02*
X112666667Y-48035771D01*
X112666667Y-48035771D02*
X112714286Y-47845295D01*
X112714286Y-47845295D02*
X112761905Y-47750057D01*
X112761905Y-47750057D02*
X112809524Y-47702438D01*
X112809524Y-47702438D02*
X112904762Y-47654819D01*
X113666667Y-47988152D02*
X113666667Y-48988152D01*
X114142857Y-48511961D02*
X114190476Y-48607200D01*
X114190476Y-48607200D02*
X114285714Y-48654819D01*
X113666667Y-48511961D02*
X113714286Y-48607200D01*
X113714286Y-48607200D02*
X113809524Y-48654819D01*
X113809524Y-48654819D02*
X114000000Y-48654819D01*
X114000000Y-48654819D02*
X114095238Y-48607200D01*
X114095238Y-48607200D02*
X114142857Y-48511961D01*
X114142857Y-48511961D02*
X114142857Y-47988152D01*
X103533333Y-53454819D02*
X103533333Y-52454819D01*
X103533333Y-52454819D02*
X104104761Y-53454819D01*
X104104761Y-53454819D02*
X104104761Y-52454819D01*
X104580952Y-52931009D02*
X104914285Y-52931009D01*
X105057142Y-53454819D02*
X104580952Y-53454819D01*
X104580952Y-53454819D02*
X104580952Y-52454819D01*
X104580952Y-52454819D02*
X105057142Y-52454819D01*
X105961904Y-52454819D02*
X105485714Y-52454819D01*
X105485714Y-52454819D02*
X105438095Y-52931009D01*
X105438095Y-52931009D02*
X105485714Y-52883390D01*
X105485714Y-52883390D02*
X105580952Y-52835771D01*
X105580952Y-52835771D02*
X105819047Y-52835771D01*
X105819047Y-52835771D02*
X105914285Y-52883390D01*
X105914285Y-52883390D02*
X105961904Y-52931009D01*
X105961904Y-52931009D02*
X106009523Y-53026247D01*
X106009523Y-53026247D02*
X106009523Y-53264342D01*
X106009523Y-53264342D02*
X105961904Y-53359580D01*
X105961904Y-53359580D02*
X105914285Y-53407200D01*
X105914285Y-53407200D02*
X105819047Y-53454819D01*
X105819047Y-53454819D02*
X105580952Y-53454819D01*
X105580952Y-53454819D02*
X105485714Y-53407200D01*
X105485714Y-53407200D02*
X105438095Y-53359580D01*
X106914285Y-52454819D02*
X106438095Y-52454819D01*
X106438095Y-52454819D02*
X106390476Y-52931009D01*
X106390476Y-52931009D02*
X106438095Y-52883390D01*
X106438095Y-52883390D02*
X106533333Y-52835771D01*
X106533333Y-52835771D02*
X106771428Y-52835771D01*
X106771428Y-52835771D02*
X106866666Y-52883390D01*
X106866666Y-52883390D02*
X106914285Y-52931009D01*
X106914285Y-52931009D02*
X106961904Y-53026247D01*
X106961904Y-53026247D02*
X106961904Y-53264342D01*
X106961904Y-53264342D02*
X106914285Y-53359580D01*
X106914285Y-53359580D02*
X106866666Y-53407200D01*
X106866666Y-53407200D02*
X106771428Y-53454819D01*
X106771428Y-53454819D02*
X106533333Y-53454819D01*
X106533333Y-53454819D02*
X106438095Y-53407200D01*
X106438095Y-53407200D02*
X106390476Y-53359580D01*
X107866666Y-52454819D02*
X107390476Y-52454819D01*
X107390476Y-52454819D02*
X107342857Y-52931009D01*
X107342857Y-52931009D02*
X107390476Y-52883390D01*
X107390476Y-52883390D02*
X107485714Y-52835771D01*
X107485714Y-52835771D02*
X107723809Y-52835771D01*
X107723809Y-52835771D02*
X107819047Y-52883390D01*
X107819047Y-52883390D02*
X107866666Y-52931009D01*
X107866666Y-52931009D02*
X107914285Y-53026247D01*
X107914285Y-53026247D02*
X107914285Y-53264342D01*
X107914285Y-53264342D02*
X107866666Y-53359580D01*
X107866666Y-53359580D02*
X107819047Y-53407200D01*
X107819047Y-53407200D02*
X107723809Y-53454819D01*
X107723809Y-53454819D02*
X107485714Y-53454819D01*
X107485714Y-53454819D02*
X107390476Y-53407200D01*
X107390476Y-53407200D02*
X107342857Y-53359580D01*
X108342857Y-53454819D02*
X108342857Y-52454819D01*
X108342857Y-52454819D02*
X108723809Y-52454819D01*
X108723809Y-52454819D02*
X108819047Y-52502438D01*
X108819047Y-52502438D02*
X108866666Y-52550057D01*
X108866666Y-52550057D02*
X108914285Y-52645295D01*
X108914285Y-52645295D02*
X108914285Y-52788152D01*
X108914285Y-52788152D02*
X108866666Y-52883390D01*
X108866666Y-52883390D02*
X108819047Y-52931009D01*
X108819047Y-52931009D02*
X108723809Y-52978628D01*
X108723809Y-52978628D02*
X108342857Y-52978628D01*
X132635865Y-55460277D02*
X132635865Y-54841230D01*
X132635865Y-54841230D02*
X133016817Y-55174563D01*
X133016817Y-55174563D02*
X133016817Y-55031706D01*
X133016817Y-55031706D02*
X133064436Y-54936468D01*
X133064436Y-54936468D02*
X133112055Y-54888849D01*
X133112055Y-54888849D02*
X133207293Y-54841230D01*
X133207293Y-54841230D02*
X133445388Y-54841230D01*
X133445388Y-54841230D02*
X133540626Y-54888849D01*
X133540626Y-54888849D02*
X133588246Y-54936468D01*
X133588246Y-54936468D02*
X133635865Y-55031706D01*
X133635865Y-55031706D02*
X133635865Y-55317420D01*
X133635865Y-55317420D02*
X133588246Y-55412658D01*
X133588246Y-55412658D02*
X133540626Y-55460277D01*
X132635865Y-54222182D02*
X132635865Y-54126944D01*
X132635865Y-54126944D02*
X132683484Y-54031706D01*
X132683484Y-54031706D02*
X132731103Y-53984087D01*
X132731103Y-53984087D02*
X132826341Y-53936468D01*
X132826341Y-53936468D02*
X133016817Y-53888849D01*
X133016817Y-53888849D02*
X133254912Y-53888849D01*
X133254912Y-53888849D02*
X133445388Y-53936468D01*
X133445388Y-53936468D02*
X133540626Y-53984087D01*
X133540626Y-53984087D02*
X133588246Y-54031706D01*
X133588246Y-54031706D02*
X133635865Y-54126944D01*
X133635865Y-54126944D02*
X133635865Y-54222182D01*
X133635865Y-54222182D02*
X133588246Y-54317420D01*
X133588246Y-54317420D02*
X133540626Y-54365039D01*
X133540626Y-54365039D02*
X133445388Y-54412658D01*
X133445388Y-54412658D02*
X133254912Y-54460277D01*
X133254912Y-54460277D02*
X133016817Y-54460277D01*
X133016817Y-54460277D02*
X132826341Y-54412658D01*
X132826341Y-54412658D02*
X132731103Y-54365039D01*
X132731103Y-54365039D02*
X132683484Y-54317420D01*
X132683484Y-54317420D02*
X132635865Y-54222182D01*
X132635865Y-53269801D02*
X132635865Y-53174563D01*
X132635865Y-53174563D02*
X132683484Y-53079325D01*
X132683484Y-53079325D02*
X132731103Y-53031706D01*
X132731103Y-53031706D02*
X132826341Y-52984087D01*
X132826341Y-52984087D02*
X133016817Y-52936468D01*
X133016817Y-52936468D02*
X133254912Y-52936468D01*
X133254912Y-52936468D02*
X133445388Y-52984087D01*
X133445388Y-52984087D02*
X133540626Y-53031706D01*
X133540626Y-53031706D02*
X133588246Y-53079325D01*
X133588246Y-53079325D02*
X133635865Y-53174563D01*
X133635865Y-53174563D02*
X133635865Y-53269801D01*
X133635865Y-53269801D02*
X133588246Y-53365039D01*
X133588246Y-53365039D02*
X133540626Y-53412658D01*
X133540626Y-53412658D02*
X133445388Y-53460277D01*
X133445388Y-53460277D02*
X133254912Y-53507896D01*
X133254912Y-53507896D02*
X133016817Y-53507896D01*
X133016817Y-53507896D02*
X132826341Y-53460277D01*
X132826341Y-53460277D02*
X132731103Y-53412658D01*
X132731103Y-53412658D02*
X132683484Y-53365039D01*
X132683484Y-53365039D02*
X132635865Y-53269801D01*
X94054819Y-56685713D02*
X94054819Y-56066666D01*
X94054819Y-56066666D02*
X94435771Y-56399999D01*
X94435771Y-56399999D02*
X94435771Y-56257142D01*
X94435771Y-56257142D02*
X94483390Y-56161904D01*
X94483390Y-56161904D02*
X94531009Y-56114285D01*
X94531009Y-56114285D02*
X94626247Y-56066666D01*
X94626247Y-56066666D02*
X94864342Y-56066666D01*
X94864342Y-56066666D02*
X94959580Y-56114285D01*
X94959580Y-56114285D02*
X95007200Y-56161904D01*
X95007200Y-56161904D02*
X95054819Y-56257142D01*
X95054819Y-56257142D02*
X95054819Y-56542856D01*
X95054819Y-56542856D02*
X95007200Y-56638094D01*
X95007200Y-56638094D02*
X94959580Y-56685713D01*
X94054819Y-55447618D02*
X94054819Y-55352380D01*
X94054819Y-55352380D02*
X94102438Y-55257142D01*
X94102438Y-55257142D02*
X94150057Y-55209523D01*
X94150057Y-55209523D02*
X94245295Y-55161904D01*
X94245295Y-55161904D02*
X94435771Y-55114285D01*
X94435771Y-55114285D02*
X94673866Y-55114285D01*
X94673866Y-55114285D02*
X94864342Y-55161904D01*
X94864342Y-55161904D02*
X94959580Y-55209523D01*
X94959580Y-55209523D02*
X95007200Y-55257142D01*
X95007200Y-55257142D02*
X95054819Y-55352380D01*
X95054819Y-55352380D02*
X95054819Y-55447618D01*
X95054819Y-55447618D02*
X95007200Y-55542856D01*
X95007200Y-55542856D02*
X94959580Y-55590475D01*
X94959580Y-55590475D02*
X94864342Y-55638094D01*
X94864342Y-55638094D02*
X94673866Y-55685713D01*
X94673866Y-55685713D02*
X94435771Y-55685713D01*
X94435771Y-55685713D02*
X94245295Y-55638094D01*
X94245295Y-55638094D02*
X94150057Y-55590475D01*
X94150057Y-55590475D02*
X94102438Y-55542856D01*
X94102438Y-55542856D02*
X94054819Y-55447618D01*
X94054819Y-54495237D02*
X94054819Y-54399999D01*
X94054819Y-54399999D02*
X94102438Y-54304761D01*
X94102438Y-54304761D02*
X94150057Y-54257142D01*
X94150057Y-54257142D02*
X94245295Y-54209523D01*
X94245295Y-54209523D02*
X94435771Y-54161904D01*
X94435771Y-54161904D02*
X94673866Y-54161904D01*
X94673866Y-54161904D02*
X94864342Y-54209523D01*
X94864342Y-54209523D02*
X94959580Y-54257142D01*
X94959580Y-54257142D02*
X95007200Y-54304761D01*
X95007200Y-54304761D02*
X95054819Y-54399999D01*
X95054819Y-54399999D02*
X95054819Y-54495237D01*
X95054819Y-54495237D02*
X95007200Y-54590475D01*
X95007200Y-54590475D02*
X94959580Y-54638094D01*
X94959580Y-54638094D02*
X94864342Y-54685713D01*
X94864342Y-54685713D02*
X94673866Y-54733332D01*
X94673866Y-54733332D02*
X94435771Y-54733332D01*
X94435771Y-54733332D02*
X94245295Y-54685713D01*
X94245295Y-54685713D02*
X94150057Y-54638094D01*
X94150057Y-54638094D02*
X94102438Y-54590475D01*
X94102438Y-54590475D02*
X94054819Y-54495237D01*
X140135865Y-54769802D02*
X140135865Y-55341230D01*
X140135865Y-55055516D02*
X139135865Y-55055516D01*
X139135865Y-55055516D02*
X139278722Y-55150754D01*
X139278722Y-55150754D02*
X139373960Y-55245992D01*
X139373960Y-55245992D02*
X139421579Y-55341230D01*
X139135865Y-54150754D02*
X139135865Y-54055516D01*
X139135865Y-54055516D02*
X139183484Y-53960278D01*
X139183484Y-53960278D02*
X139231103Y-53912659D01*
X139231103Y-53912659D02*
X139326341Y-53865040D01*
X139326341Y-53865040D02*
X139516817Y-53817421D01*
X139516817Y-53817421D02*
X139754912Y-53817421D01*
X139754912Y-53817421D02*
X139945388Y-53865040D01*
X139945388Y-53865040D02*
X140040626Y-53912659D01*
X140040626Y-53912659D02*
X140088246Y-53960278D01*
X140088246Y-53960278D02*
X140135865Y-54055516D01*
X140135865Y-54055516D02*
X140135865Y-54150754D01*
X140135865Y-54150754D02*
X140088246Y-54245992D01*
X140088246Y-54245992D02*
X140040626Y-54293611D01*
X140040626Y-54293611D02*
X139945388Y-54341230D01*
X139945388Y-54341230D02*
X139754912Y-54388849D01*
X139754912Y-54388849D02*
X139516817Y-54388849D01*
X139516817Y-54388849D02*
X139326341Y-54341230D01*
X139326341Y-54341230D02*
X139231103Y-54293611D01*
X139231103Y-54293611D02*
X139183484Y-54245992D01*
X139183484Y-54245992D02*
X139135865Y-54150754D01*
X140135865Y-53388849D02*
X139135865Y-53388849D01*
X139754912Y-53293611D02*
X140135865Y-53007897D01*
X139469198Y-53007897D02*
X139850150Y-53388849D01*
X154354819Y-85881904D02*
X155164342Y-85881904D01*
X155164342Y-85881904D02*
X155259580Y-85834285D01*
X155259580Y-85834285D02*
X155307200Y-85786666D01*
X155307200Y-85786666D02*
X155354819Y-85691428D01*
X155354819Y-85691428D02*
X155354819Y-85500952D01*
X155354819Y-85500952D02*
X155307200Y-85405714D01*
X155307200Y-85405714D02*
X155259580Y-85358095D01*
X155259580Y-85358095D02*
X155164342Y-85310476D01*
X155164342Y-85310476D02*
X154354819Y-85310476D01*
X155307200Y-84881904D02*
X155354819Y-84739047D01*
X155354819Y-84739047D02*
X155354819Y-84500952D01*
X155354819Y-84500952D02*
X155307200Y-84405714D01*
X155307200Y-84405714D02*
X155259580Y-84358095D01*
X155259580Y-84358095D02*
X155164342Y-84310476D01*
X155164342Y-84310476D02*
X155069104Y-84310476D01*
X155069104Y-84310476D02*
X154973866Y-84358095D01*
X154973866Y-84358095D02*
X154926247Y-84405714D01*
X154926247Y-84405714D02*
X154878628Y-84500952D01*
X154878628Y-84500952D02*
X154831009Y-84691428D01*
X154831009Y-84691428D02*
X154783390Y-84786666D01*
X154783390Y-84786666D02*
X154735771Y-84834285D01*
X154735771Y-84834285D02*
X154640533Y-84881904D01*
X154640533Y-84881904D02*
X154545295Y-84881904D01*
X154545295Y-84881904D02*
X154450057Y-84834285D01*
X154450057Y-84834285D02*
X154402438Y-84786666D01*
X154402438Y-84786666D02*
X154354819Y-84691428D01*
X154354819Y-84691428D02*
X154354819Y-84453333D01*
X154354819Y-84453333D02*
X154402438Y-84310476D01*
X154831009Y-83548571D02*
X154878628Y-83405714D01*
X154878628Y-83405714D02*
X154926247Y-83358095D01*
X154926247Y-83358095D02*
X155021485Y-83310476D01*
X155021485Y-83310476D02*
X155164342Y-83310476D01*
X155164342Y-83310476D02*
X155259580Y-83358095D01*
X155259580Y-83358095D02*
X155307200Y-83405714D01*
X155307200Y-83405714D02*
X155354819Y-83500952D01*
X155354819Y-83500952D02*
X155354819Y-83881904D01*
X155354819Y-83881904D02*
X154354819Y-83881904D01*
X154354819Y-83881904D02*
X154354819Y-83548571D01*
X154354819Y-83548571D02*
X154402438Y-83453333D01*
X154402438Y-83453333D02*
X154450057Y-83405714D01*
X154450057Y-83405714D02*
X154545295Y-83358095D01*
X154545295Y-83358095D02*
X154640533Y-83358095D01*
X154640533Y-83358095D02*
X154735771Y-83405714D01*
X154735771Y-83405714D02*
X154783390Y-83453333D01*
X154783390Y-83453333D02*
X154831009Y-83548571D01*
X154831009Y-83548571D02*
X154831009Y-83881904D01*
X112785714Y-69654819D02*
X112214286Y-69654819D01*
X112500000Y-69654819D02*
X112500000Y-68654819D01*
X112500000Y-68654819D02*
X112404762Y-68797676D01*
X112404762Y-68797676D02*
X112309524Y-68892914D01*
X112309524Y-68892914D02*
X112214286Y-68940533D01*
X113404762Y-68654819D02*
X113500000Y-68654819D01*
X113500000Y-68654819D02*
X113595238Y-68702438D01*
X113595238Y-68702438D02*
X113642857Y-68750057D01*
X113642857Y-68750057D02*
X113690476Y-68845295D01*
X113690476Y-68845295D02*
X113738095Y-69035771D01*
X113738095Y-69035771D02*
X113738095Y-69273866D01*
X113738095Y-69273866D02*
X113690476Y-69464342D01*
X113690476Y-69464342D02*
X113642857Y-69559580D01*
X113642857Y-69559580D02*
X113595238Y-69607200D01*
X113595238Y-69607200D02*
X113500000Y-69654819D01*
X113500000Y-69654819D02*
X113404762Y-69654819D01*
X113404762Y-69654819D02*
X113309524Y-69607200D01*
X113309524Y-69607200D02*
X113261905Y-69559580D01*
X113261905Y-69559580D02*
X113214286Y-69464342D01*
X113214286Y-69464342D02*
X113166667Y-69273866D01*
X113166667Y-69273866D02*
X113166667Y-69035771D01*
X113166667Y-69035771D02*
X113214286Y-68845295D01*
X113214286Y-68845295D02*
X113261905Y-68750057D01*
X113261905Y-68750057D02*
X113309524Y-68702438D01*
X113309524Y-68702438D02*
X113404762Y-68654819D01*
X114166667Y-68988152D02*
X114166667Y-69988152D01*
X114642857Y-69511961D02*
X114690476Y-69607200D01*
X114690476Y-69607200D02*
X114785714Y-69654819D01*
X114166667Y-69511961D02*
X114214286Y-69607200D01*
X114214286Y-69607200D02*
X114309524Y-69654819D01*
X114309524Y-69654819D02*
X114500000Y-69654819D01*
X114500000Y-69654819D02*
X114595238Y-69607200D01*
X114595238Y-69607200D02*
X114642857Y-69511961D01*
X114642857Y-69511961D02*
X114642857Y-68988152D01*
X121404761Y-56854819D02*
X120833333Y-56854819D01*
X121119047Y-56854819D02*
X121119047Y-55854819D01*
X121119047Y-55854819D02*
X121023809Y-55997676D01*
X121023809Y-55997676D02*
X120928571Y-56092914D01*
X120928571Y-56092914D02*
X120833333Y-56140533D01*
X122023809Y-55854819D02*
X122119047Y-55854819D01*
X122119047Y-55854819D02*
X122214285Y-55902438D01*
X122214285Y-55902438D02*
X122261904Y-55950057D01*
X122261904Y-55950057D02*
X122309523Y-56045295D01*
X122309523Y-56045295D02*
X122357142Y-56235771D01*
X122357142Y-56235771D02*
X122357142Y-56473866D01*
X122357142Y-56473866D02*
X122309523Y-56664342D01*
X122309523Y-56664342D02*
X122261904Y-56759580D01*
X122261904Y-56759580D02*
X122214285Y-56807200D01*
X122214285Y-56807200D02*
X122119047Y-56854819D01*
X122119047Y-56854819D02*
X122023809Y-56854819D01*
X122023809Y-56854819D02*
X121928571Y-56807200D01*
X121928571Y-56807200D02*
X121880952Y-56759580D01*
X121880952Y-56759580D02*
X121833333Y-56664342D01*
X121833333Y-56664342D02*
X121785714Y-56473866D01*
X121785714Y-56473866D02*
X121785714Y-56235771D01*
X121785714Y-56235771D02*
X121833333Y-56045295D01*
X121833333Y-56045295D02*
X121880952Y-55950057D01*
X121880952Y-55950057D02*
X121928571Y-55902438D01*
X121928571Y-55902438D02*
X122023809Y-55854819D01*
X122785714Y-56854819D02*
X122785714Y-55854819D01*
X122880952Y-56473866D02*
X123166666Y-56854819D01*
X123166666Y-56188152D02*
X122785714Y-56569104D01*
X142450749Y-69692854D02*
X141879321Y-69692854D01*
X142165035Y-69692854D02*
X142165035Y-68692854D01*
X142165035Y-68692854D02*
X142069797Y-68835711D01*
X142069797Y-68835711D02*
X141974559Y-68930949D01*
X141974559Y-68930949D02*
X141879321Y-68978568D01*
X143069797Y-68692854D02*
X143165035Y-68692854D01*
X143165035Y-68692854D02*
X143260273Y-68740473D01*
X143260273Y-68740473D02*
X143307892Y-68788092D01*
X143307892Y-68788092D02*
X143355511Y-68883330D01*
X143355511Y-68883330D02*
X143403130Y-69073806D01*
X143403130Y-69073806D02*
X143403130Y-69311901D01*
X143403130Y-69311901D02*
X143355511Y-69502377D01*
X143355511Y-69502377D02*
X143307892Y-69597615D01*
X143307892Y-69597615D02*
X143260273Y-69645235D01*
X143260273Y-69645235D02*
X143165035Y-69692854D01*
X143165035Y-69692854D02*
X143069797Y-69692854D01*
X143069797Y-69692854D02*
X142974559Y-69645235D01*
X142974559Y-69645235D02*
X142926940Y-69597615D01*
X142926940Y-69597615D02*
X142879321Y-69502377D01*
X142879321Y-69502377D02*
X142831702Y-69311901D01*
X142831702Y-69311901D02*
X142831702Y-69073806D01*
X142831702Y-69073806D02*
X142879321Y-68883330D01*
X142879321Y-68883330D02*
X142926940Y-68788092D01*
X142926940Y-68788092D02*
X142974559Y-68740473D01*
X142974559Y-68740473D02*
X143069797Y-68692854D01*
X143831702Y-69692854D02*
X143831702Y-68692854D01*
X143926940Y-69311901D02*
X144212654Y-69692854D01*
X144212654Y-69026187D02*
X143831702Y-69407139D01*
X78254819Y-55795238D02*
X78254819Y-56366666D01*
X78254819Y-56080952D02*
X77254819Y-56080952D01*
X77254819Y-56080952D02*
X77397676Y-56176190D01*
X77397676Y-56176190D02*
X77492914Y-56271428D01*
X77492914Y-56271428D02*
X77540533Y-56366666D01*
X77254819Y-55176190D02*
X77254819Y-55080952D01*
X77254819Y-55080952D02*
X77302438Y-54985714D01*
X77302438Y-54985714D02*
X77350057Y-54938095D01*
X77350057Y-54938095D02*
X77445295Y-54890476D01*
X77445295Y-54890476D02*
X77635771Y-54842857D01*
X77635771Y-54842857D02*
X77873866Y-54842857D01*
X77873866Y-54842857D02*
X78064342Y-54890476D01*
X78064342Y-54890476D02*
X78159580Y-54938095D01*
X78159580Y-54938095D02*
X78207200Y-54985714D01*
X78207200Y-54985714D02*
X78254819Y-55080952D01*
X78254819Y-55080952D02*
X78254819Y-55176190D01*
X78254819Y-55176190D02*
X78207200Y-55271428D01*
X78207200Y-55271428D02*
X78159580Y-55319047D01*
X78159580Y-55319047D02*
X78064342Y-55366666D01*
X78064342Y-55366666D02*
X77873866Y-55414285D01*
X77873866Y-55414285D02*
X77635771Y-55414285D01*
X77635771Y-55414285D02*
X77445295Y-55366666D01*
X77445295Y-55366666D02*
X77350057Y-55319047D01*
X77350057Y-55319047D02*
X77302438Y-55271428D01*
X77302438Y-55271428D02*
X77254819Y-55176190D01*
X78254819Y-54414285D02*
X77254819Y-54414285D01*
X77873866Y-54319047D02*
X78254819Y-54033333D01*
X77588152Y-54033333D02*
X77969104Y-54414285D01*
X130653130Y-64942854D02*
X130081702Y-64942854D01*
X130367416Y-64942854D02*
X130367416Y-63942854D01*
X130367416Y-63942854D02*
X130272178Y-64085711D01*
X130272178Y-64085711D02*
X130176940Y-64180949D01*
X130176940Y-64180949D02*
X130081702Y-64228568D01*
X131272178Y-63942854D02*
X131367416Y-63942854D01*
X131367416Y-63942854D02*
X131462654Y-63990473D01*
X131462654Y-63990473D02*
X131510273Y-64038092D01*
X131510273Y-64038092D02*
X131557892Y-64133330D01*
X131557892Y-64133330D02*
X131605511Y-64323806D01*
X131605511Y-64323806D02*
X131605511Y-64561901D01*
X131605511Y-64561901D02*
X131557892Y-64752377D01*
X131557892Y-64752377D02*
X131510273Y-64847615D01*
X131510273Y-64847615D02*
X131462654Y-64895235D01*
X131462654Y-64895235D02*
X131367416Y-64942854D01*
X131367416Y-64942854D02*
X131272178Y-64942854D01*
X131272178Y-64942854D02*
X131176940Y-64895235D01*
X131176940Y-64895235D02*
X131129321Y-64847615D01*
X131129321Y-64847615D02*
X131081702Y-64752377D01*
X131081702Y-64752377D02*
X131034083Y-64561901D01*
X131034083Y-64561901D02*
X131034083Y-64323806D01*
X131034083Y-64323806D02*
X131081702Y-64133330D01*
X131081702Y-64133330D02*
X131129321Y-64038092D01*
X131129321Y-64038092D02*
X131176940Y-63990473D01*
X131176940Y-63990473D02*
X131272178Y-63942854D01*
X132034083Y-64276187D02*
X132034083Y-64942854D01*
X132034083Y-64371425D02*
X132081702Y-64323806D01*
X132081702Y-64323806D02*
X132176940Y-64276187D01*
X132176940Y-64276187D02*
X132319797Y-64276187D01*
X132319797Y-64276187D02*
X132415035Y-64323806D01*
X132415035Y-64323806D02*
X132462654Y-64419044D01*
X132462654Y-64419044D02*
X132462654Y-64942854D01*
X136635865Y-54769802D02*
X136635865Y-55341230D01*
X136635865Y-55055516D02*
X135635865Y-55055516D01*
X135635865Y-55055516D02*
X135778722Y-55150754D01*
X135778722Y-55150754D02*
X135873960Y-55245992D01*
X135873960Y-55245992D02*
X135921579Y-55341230D01*
X135635865Y-54150754D02*
X135635865Y-54055516D01*
X135635865Y-54055516D02*
X135683484Y-53960278D01*
X135683484Y-53960278D02*
X135731103Y-53912659D01*
X135731103Y-53912659D02*
X135826341Y-53865040D01*
X135826341Y-53865040D02*
X136016817Y-53817421D01*
X136016817Y-53817421D02*
X136254912Y-53817421D01*
X136254912Y-53817421D02*
X136445388Y-53865040D01*
X136445388Y-53865040D02*
X136540626Y-53912659D01*
X136540626Y-53912659D02*
X136588246Y-53960278D01*
X136588246Y-53960278D02*
X136635865Y-54055516D01*
X136635865Y-54055516D02*
X136635865Y-54150754D01*
X136635865Y-54150754D02*
X136588246Y-54245992D01*
X136588246Y-54245992D02*
X136540626Y-54293611D01*
X136540626Y-54293611D02*
X136445388Y-54341230D01*
X136445388Y-54341230D02*
X136254912Y-54388849D01*
X136254912Y-54388849D02*
X136016817Y-54388849D01*
X136016817Y-54388849D02*
X135826341Y-54341230D01*
X135826341Y-54341230D02*
X135731103Y-54293611D01*
X135731103Y-54293611D02*
X135683484Y-54245992D01*
X135683484Y-54245992D02*
X135635865Y-54150754D01*
X136635865Y-53388849D02*
X135635865Y-53388849D01*
X136254912Y-53293611D02*
X136635865Y-53007897D01*
X135969198Y-53007897D02*
X136350150Y-53388849D01*
X159550057Y-63286666D02*
X159502438Y-63239047D01*
X159502438Y-63239047D02*
X159454819Y-63143809D01*
X159454819Y-63143809D02*
X159454819Y-62905714D01*
X159454819Y-62905714D02*
X159502438Y-62810476D01*
X159502438Y-62810476D02*
X159550057Y-62762857D01*
X159550057Y-62762857D02*
X159645295Y-62715238D01*
X159645295Y-62715238D02*
X159740533Y-62715238D01*
X159740533Y-62715238D02*
X159883390Y-62762857D01*
X159883390Y-62762857D02*
X160454819Y-63334285D01*
X160454819Y-63334285D02*
X160454819Y-62715238D01*
X159550057Y-62334285D02*
X159502438Y-62286666D01*
X159502438Y-62286666D02*
X159454819Y-62191428D01*
X159454819Y-62191428D02*
X159454819Y-61953333D01*
X159454819Y-61953333D02*
X159502438Y-61858095D01*
X159502438Y-61858095D02*
X159550057Y-61810476D01*
X159550057Y-61810476D02*
X159645295Y-61762857D01*
X159645295Y-61762857D02*
X159740533Y-61762857D01*
X159740533Y-61762857D02*
X159883390Y-61810476D01*
X159883390Y-61810476D02*
X160454819Y-62381904D01*
X160454819Y-62381904D02*
X160454819Y-61762857D01*
X160454819Y-61334285D02*
X159454819Y-61334285D01*
X160073866Y-61239047D02*
X160454819Y-60953333D01*
X159788152Y-60953333D02*
X160169104Y-61334285D01*
X89350057Y-56446666D02*
X89302438Y-56399047D01*
X89302438Y-56399047D02*
X89254819Y-56303809D01*
X89254819Y-56303809D02*
X89254819Y-56065714D01*
X89254819Y-56065714D02*
X89302438Y-55970476D01*
X89302438Y-55970476D02*
X89350057Y-55922857D01*
X89350057Y-55922857D02*
X89445295Y-55875238D01*
X89445295Y-55875238D02*
X89540533Y-55875238D01*
X89540533Y-55875238D02*
X89683390Y-55922857D01*
X89683390Y-55922857D02*
X90254819Y-56494285D01*
X90254819Y-56494285D02*
X90254819Y-55875238D01*
X89350057Y-55494285D02*
X89302438Y-55446666D01*
X89302438Y-55446666D02*
X89254819Y-55351428D01*
X89254819Y-55351428D02*
X89254819Y-55113333D01*
X89254819Y-55113333D02*
X89302438Y-55018095D01*
X89302438Y-55018095D02*
X89350057Y-54970476D01*
X89350057Y-54970476D02*
X89445295Y-54922857D01*
X89445295Y-54922857D02*
X89540533Y-54922857D01*
X89540533Y-54922857D02*
X89683390Y-54970476D01*
X89683390Y-54970476D02*
X90254819Y-55541904D01*
X90254819Y-55541904D02*
X90254819Y-54922857D01*
X90254819Y-54494285D02*
X89254819Y-54494285D01*
X89873866Y-54399047D02*
X90254819Y-54113333D01*
X89588152Y-54113333D02*
X89969104Y-54494285D01*
X150685714Y-75442854D02*
X150114286Y-75442854D01*
X150400000Y-75442854D02*
X150400000Y-74442854D01*
X150400000Y-74442854D02*
X150304762Y-74585711D01*
X150304762Y-74585711D02*
X150209524Y-74680949D01*
X150209524Y-74680949D02*
X150114286Y-74728568D01*
X151304762Y-74442854D02*
X151400000Y-74442854D01*
X151400000Y-74442854D02*
X151495238Y-74490473D01*
X151495238Y-74490473D02*
X151542857Y-74538092D01*
X151542857Y-74538092D02*
X151590476Y-74633330D01*
X151590476Y-74633330D02*
X151638095Y-74823806D01*
X151638095Y-74823806D02*
X151638095Y-75061901D01*
X151638095Y-75061901D02*
X151590476Y-75252377D01*
X151590476Y-75252377D02*
X151542857Y-75347615D01*
X151542857Y-75347615D02*
X151495238Y-75395235D01*
X151495238Y-75395235D02*
X151400000Y-75442854D01*
X151400000Y-75442854D02*
X151304762Y-75442854D01*
X151304762Y-75442854D02*
X151209524Y-75395235D01*
X151209524Y-75395235D02*
X151161905Y-75347615D01*
X151161905Y-75347615D02*
X151114286Y-75252377D01*
X151114286Y-75252377D02*
X151066667Y-75061901D01*
X151066667Y-75061901D02*
X151066667Y-74823806D01*
X151066667Y-74823806D02*
X151114286Y-74633330D01*
X151114286Y-74633330D02*
X151161905Y-74538092D01*
X151161905Y-74538092D02*
X151209524Y-74490473D01*
X151209524Y-74490473D02*
X151304762Y-74442854D01*
X152066667Y-74776187D02*
X152066667Y-75776187D01*
X152542857Y-75299996D02*
X152590476Y-75395235D01*
X152590476Y-75395235D02*
X152685714Y-75442854D01*
X152066667Y-75299996D02*
X152114286Y-75395235D01*
X152114286Y-75395235D02*
X152209524Y-75442854D01*
X152209524Y-75442854D02*
X152400000Y-75442854D01*
X152400000Y-75442854D02*
X152495238Y-75395235D01*
X152495238Y-75395235D02*
X152542857Y-75299996D01*
X152542857Y-75299996D02*
X152542857Y-74776187D01*
X115809580Y-51592857D02*
X115857200Y-51640476D01*
X115857200Y-51640476D02*
X115904819Y-51783333D01*
X115904819Y-51783333D02*
X115904819Y-51878571D01*
X115904819Y-51878571D02*
X115857200Y-52021428D01*
X115857200Y-52021428D02*
X115761961Y-52116666D01*
X115761961Y-52116666D02*
X115666723Y-52164285D01*
X115666723Y-52164285D02*
X115476247Y-52211904D01*
X115476247Y-52211904D02*
X115333390Y-52211904D01*
X115333390Y-52211904D02*
X115142914Y-52164285D01*
X115142914Y-52164285D02*
X115047676Y-52116666D01*
X115047676Y-52116666D02*
X114952438Y-52021428D01*
X114952438Y-52021428D02*
X114904819Y-51878571D01*
X114904819Y-51878571D02*
X114904819Y-51783333D01*
X114904819Y-51783333D02*
X114952438Y-51640476D01*
X114952438Y-51640476D02*
X115000057Y-51592857D01*
X115904819Y-50640476D02*
X115904819Y-51211904D01*
X115904819Y-50926190D02*
X114904819Y-50926190D01*
X114904819Y-50926190D02*
X115047676Y-51021428D01*
X115047676Y-51021428D02*
X115142914Y-51116666D01*
X115142914Y-51116666D02*
X115190533Y-51211904D01*
X114904819Y-50307142D02*
X114904819Y-49640476D01*
X114904819Y-49640476D02*
X115904819Y-50069047D01*
X156454819Y-62094285D02*
X156454819Y-61475238D01*
X156454819Y-61475238D02*
X156835771Y-61808571D01*
X156835771Y-61808571D02*
X156835771Y-61665714D01*
X156835771Y-61665714D02*
X156883390Y-61570476D01*
X156883390Y-61570476D02*
X156931009Y-61522857D01*
X156931009Y-61522857D02*
X157026247Y-61475238D01*
X157026247Y-61475238D02*
X157264342Y-61475238D01*
X157264342Y-61475238D02*
X157359580Y-61522857D01*
X157359580Y-61522857D02*
X157407200Y-61570476D01*
X157407200Y-61570476D02*
X157454819Y-61665714D01*
X157454819Y-61665714D02*
X157454819Y-61951428D01*
X157454819Y-61951428D02*
X157407200Y-62046666D01*
X157407200Y-62046666D02*
X157359580Y-62094285D01*
X156454819Y-61141904D02*
X156454819Y-60522857D01*
X156454819Y-60522857D02*
X156835771Y-60856190D01*
X156835771Y-60856190D02*
X156835771Y-60713333D01*
X156835771Y-60713333D02*
X156883390Y-60618095D01*
X156883390Y-60618095D02*
X156931009Y-60570476D01*
X156931009Y-60570476D02*
X157026247Y-60522857D01*
X157026247Y-60522857D02*
X157264342Y-60522857D01*
X157264342Y-60522857D02*
X157359580Y-60570476D01*
X157359580Y-60570476D02*
X157407200Y-60618095D01*
X157407200Y-60618095D02*
X157454819Y-60713333D01*
X157454819Y-60713333D02*
X157454819Y-60999047D01*
X157454819Y-60999047D02*
X157407200Y-61094285D01*
X157407200Y-61094285D02*
X157359580Y-61141904D01*
X157454819Y-60094285D02*
X156454819Y-60094285D01*
X157073866Y-59999047D02*
X157454819Y-59713333D01*
X156788152Y-59713333D02*
X157169104Y-60094285D01*
X121524761Y-60254819D02*
X120953333Y-60254819D01*
X121239047Y-60254819D02*
X121239047Y-59254819D01*
X121239047Y-59254819D02*
X121143809Y-59397676D01*
X121143809Y-59397676D02*
X121048571Y-59492914D01*
X121048571Y-59492914D02*
X120953333Y-59540533D01*
X122143809Y-59254819D02*
X122239047Y-59254819D01*
X122239047Y-59254819D02*
X122334285Y-59302438D01*
X122334285Y-59302438D02*
X122381904Y-59350057D01*
X122381904Y-59350057D02*
X122429523Y-59445295D01*
X122429523Y-59445295D02*
X122477142Y-59635771D01*
X122477142Y-59635771D02*
X122477142Y-59873866D01*
X122477142Y-59873866D02*
X122429523Y-60064342D01*
X122429523Y-60064342D02*
X122381904Y-60159580D01*
X122381904Y-60159580D02*
X122334285Y-60207200D01*
X122334285Y-60207200D02*
X122239047Y-60254819D01*
X122239047Y-60254819D02*
X122143809Y-60254819D01*
X122143809Y-60254819D02*
X122048571Y-60207200D01*
X122048571Y-60207200D02*
X122000952Y-60159580D01*
X122000952Y-60159580D02*
X121953333Y-60064342D01*
X121953333Y-60064342D02*
X121905714Y-59873866D01*
X121905714Y-59873866D02*
X121905714Y-59635771D01*
X121905714Y-59635771D02*
X121953333Y-59445295D01*
X121953333Y-59445295D02*
X122000952Y-59350057D01*
X122000952Y-59350057D02*
X122048571Y-59302438D01*
X122048571Y-59302438D02*
X122143809Y-59254819D01*
X122905714Y-60254819D02*
X122905714Y-59254819D01*
X123000952Y-59873866D02*
X123286666Y-60254819D01*
X123286666Y-59588152D02*
X122905714Y-59969104D01*
X149653130Y-62942854D02*
X149081702Y-62942854D01*
X149367416Y-62942854D02*
X149367416Y-61942854D01*
X149367416Y-61942854D02*
X149272178Y-62085711D01*
X149272178Y-62085711D02*
X149176940Y-62180949D01*
X149176940Y-62180949D02*
X149081702Y-62228568D01*
X150272178Y-61942854D02*
X150367416Y-61942854D01*
X150367416Y-61942854D02*
X150462654Y-61990473D01*
X150462654Y-61990473D02*
X150510273Y-62038092D01*
X150510273Y-62038092D02*
X150557892Y-62133330D01*
X150557892Y-62133330D02*
X150605511Y-62323806D01*
X150605511Y-62323806D02*
X150605511Y-62561901D01*
X150605511Y-62561901D02*
X150557892Y-62752377D01*
X150557892Y-62752377D02*
X150510273Y-62847615D01*
X150510273Y-62847615D02*
X150462654Y-62895235D01*
X150462654Y-62895235D02*
X150367416Y-62942854D01*
X150367416Y-62942854D02*
X150272178Y-62942854D01*
X150272178Y-62942854D02*
X150176940Y-62895235D01*
X150176940Y-62895235D02*
X150129321Y-62847615D01*
X150129321Y-62847615D02*
X150081702Y-62752377D01*
X150081702Y-62752377D02*
X150034083Y-62561901D01*
X150034083Y-62561901D02*
X150034083Y-62323806D01*
X150034083Y-62323806D02*
X150081702Y-62133330D01*
X150081702Y-62133330D02*
X150129321Y-62038092D01*
X150129321Y-62038092D02*
X150176940Y-61990473D01*
X150176940Y-61990473D02*
X150272178Y-61942854D01*
X151034083Y-62276187D02*
X151034083Y-62942854D01*
X151034083Y-62371425D02*
X151081702Y-62323806D01*
X151081702Y-62323806D02*
X151176940Y-62276187D01*
X151176940Y-62276187D02*
X151319797Y-62276187D01*
X151319797Y-62276187D02*
X151415035Y-62323806D01*
X151415035Y-62323806D02*
X151462654Y-62419044D01*
X151462654Y-62419044D02*
X151462654Y-62942854D01*
X96354819Y-60371904D02*
X95354819Y-60371904D01*
X96354819Y-59800476D02*
X95783390Y-60229047D01*
X95354819Y-59800476D02*
X95926247Y-60371904D01*
X98454819Y-56648094D02*
X97454819Y-56648094D01*
X97454819Y-56648094D02*
X97454819Y-56409999D01*
X97454819Y-56409999D02*
X97502438Y-56267142D01*
X97502438Y-56267142D02*
X97597676Y-56171904D01*
X97597676Y-56171904D02*
X97692914Y-56124285D01*
X97692914Y-56124285D02*
X97883390Y-56076666D01*
X97883390Y-56076666D02*
X98026247Y-56076666D01*
X98026247Y-56076666D02*
X98216723Y-56124285D01*
X98216723Y-56124285D02*
X98311961Y-56171904D01*
X98311961Y-56171904D02*
X98407200Y-56267142D01*
X98407200Y-56267142D02*
X98454819Y-56409999D01*
X98454819Y-56409999D02*
X98454819Y-56648094D01*
X97788152Y-55219523D02*
X98454819Y-55219523D01*
X97407200Y-55457618D02*
X98121485Y-55695713D01*
X98121485Y-55695713D02*
X98121485Y-55076666D01*
X150500807Y-58404701D02*
X149500807Y-58404701D01*
X149500807Y-58404701D02*
X150500807Y-57833273D01*
X150500807Y-57833273D02*
X149500807Y-57833273D01*
X149976997Y-57357082D02*
X149976997Y-57023749D01*
X150500807Y-56880892D02*
X150500807Y-57357082D01*
X150500807Y-57357082D02*
X149500807Y-57357082D01*
X149500807Y-57357082D02*
X149500807Y-56880892D01*
X149500807Y-55976130D02*
X149500807Y-56452320D01*
X149500807Y-56452320D02*
X149976997Y-56499939D01*
X149976997Y-56499939D02*
X149929378Y-56452320D01*
X149929378Y-56452320D02*
X149881759Y-56357082D01*
X149881759Y-56357082D02*
X149881759Y-56118987D01*
X149881759Y-56118987D02*
X149929378Y-56023749D01*
X149929378Y-56023749D02*
X149976997Y-55976130D01*
X149976997Y-55976130D02*
X150072235Y-55928511D01*
X150072235Y-55928511D02*
X150310330Y-55928511D01*
X150310330Y-55928511D02*
X150405568Y-55976130D01*
X150405568Y-55976130D02*
X150453188Y-56023749D01*
X150453188Y-56023749D02*
X150500807Y-56118987D01*
X150500807Y-56118987D02*
X150500807Y-56357082D01*
X150500807Y-56357082D02*
X150453188Y-56452320D01*
X150453188Y-56452320D02*
X150405568Y-56499939D01*
X149500807Y-55023749D02*
X149500807Y-55499939D01*
X149500807Y-55499939D02*
X149976997Y-55547558D01*
X149976997Y-55547558D02*
X149929378Y-55499939D01*
X149929378Y-55499939D02*
X149881759Y-55404701D01*
X149881759Y-55404701D02*
X149881759Y-55166606D01*
X149881759Y-55166606D02*
X149929378Y-55071368D01*
X149929378Y-55071368D02*
X149976997Y-55023749D01*
X149976997Y-55023749D02*
X150072235Y-54976130D01*
X150072235Y-54976130D02*
X150310330Y-54976130D01*
X150310330Y-54976130D02*
X150405568Y-55023749D01*
X150405568Y-55023749D02*
X150453188Y-55071368D01*
X150453188Y-55071368D02*
X150500807Y-55166606D01*
X150500807Y-55166606D02*
X150500807Y-55404701D01*
X150500807Y-55404701D02*
X150453188Y-55499939D01*
X150453188Y-55499939D02*
X150405568Y-55547558D01*
X149500807Y-54071368D02*
X149500807Y-54547558D01*
X149500807Y-54547558D02*
X149976997Y-54595177D01*
X149976997Y-54595177D02*
X149929378Y-54547558D01*
X149929378Y-54547558D02*
X149881759Y-54452320D01*
X149881759Y-54452320D02*
X149881759Y-54214225D01*
X149881759Y-54214225D02*
X149929378Y-54118987D01*
X149929378Y-54118987D02*
X149976997Y-54071368D01*
X149976997Y-54071368D02*
X150072235Y-54023749D01*
X150072235Y-54023749D02*
X150310330Y-54023749D01*
X150310330Y-54023749D02*
X150405568Y-54071368D01*
X150405568Y-54071368D02*
X150453188Y-54118987D01*
X150453188Y-54118987D02*
X150500807Y-54214225D01*
X150500807Y-54214225D02*
X150500807Y-54452320D01*
X150500807Y-54452320D02*
X150453188Y-54547558D01*
X150453188Y-54547558D02*
X150405568Y-54595177D01*
X150500807Y-53595177D02*
X149500807Y-53595177D01*
X149500807Y-53595177D02*
X149500807Y-53214225D01*
X149500807Y-53214225D02*
X149548426Y-53118987D01*
X149548426Y-53118987D02*
X149596045Y-53071368D01*
X149596045Y-53071368D02*
X149691283Y-53023749D01*
X149691283Y-53023749D02*
X149834140Y-53023749D01*
X149834140Y-53023749D02*
X149929378Y-53071368D01*
X149929378Y-53071368D02*
X149976997Y-53118987D01*
X149976997Y-53118987D02*
X150024616Y-53214225D01*
X150024616Y-53214225D02*
X150024616Y-53595177D01*
X152909524Y-67950057D02*
X152957143Y-67902438D01*
X152957143Y-67902438D02*
X153052381Y-67854819D01*
X153052381Y-67854819D02*
X153290476Y-67854819D01*
X153290476Y-67854819D02*
X153385714Y-67902438D01*
X153385714Y-67902438D02*
X153433333Y-67950057D01*
X153433333Y-67950057D02*
X153480952Y-68045295D01*
X153480952Y-68045295D02*
X153480952Y-68140533D01*
X153480952Y-68140533D02*
X153433333Y-68283390D01*
X153433333Y-68283390D02*
X152861905Y-68854819D01*
X152861905Y-68854819D02*
X153480952Y-68854819D01*
X153861905Y-67950057D02*
X153909524Y-67902438D01*
X153909524Y-67902438D02*
X154004762Y-67854819D01*
X154004762Y-67854819D02*
X154242857Y-67854819D01*
X154242857Y-67854819D02*
X154338095Y-67902438D01*
X154338095Y-67902438D02*
X154385714Y-67950057D01*
X154385714Y-67950057D02*
X154433333Y-68045295D01*
X154433333Y-68045295D02*
X154433333Y-68140533D01*
X154433333Y-68140533D02*
X154385714Y-68283390D01*
X154385714Y-68283390D02*
X153814286Y-68854819D01*
X153814286Y-68854819D02*
X154433333Y-68854819D01*
X155052381Y-67854819D02*
X155147619Y-67854819D01*
X155147619Y-67854819D02*
X155242857Y-67902438D01*
X155242857Y-67902438D02*
X155290476Y-67950057D01*
X155290476Y-67950057D02*
X155338095Y-68045295D01*
X155338095Y-68045295D02*
X155385714Y-68235771D01*
X155385714Y-68235771D02*
X155385714Y-68473866D01*
X155385714Y-68473866D02*
X155338095Y-68664342D01*
X155338095Y-68664342D02*
X155290476Y-68759580D01*
X155290476Y-68759580D02*
X155242857Y-68807200D01*
X155242857Y-68807200D02*
X155147619Y-68854819D01*
X155147619Y-68854819D02*
X155052381Y-68854819D01*
X155052381Y-68854819D02*
X154957143Y-68807200D01*
X154957143Y-68807200D02*
X154909524Y-68759580D01*
X154909524Y-68759580D02*
X154861905Y-68664342D01*
X154861905Y-68664342D02*
X154814286Y-68473866D01*
X154814286Y-68473866D02*
X154814286Y-68235771D01*
X154814286Y-68235771D02*
X154861905Y-68045295D01*
X154861905Y-68045295D02*
X154909524Y-67950057D01*
X154909524Y-67950057D02*
X154957143Y-67902438D01*
X154957143Y-67902438D02*
X155052381Y-67854819D01*
X155814286Y-68188152D02*
X155814286Y-68854819D01*
X155814286Y-68283390D02*
X155861905Y-68235771D01*
X155861905Y-68235771D02*
X155957143Y-68188152D01*
X155957143Y-68188152D02*
X156100000Y-68188152D01*
X156100000Y-68188152D02*
X156195238Y-68235771D01*
X156195238Y-68235771D02*
X156242857Y-68331009D01*
X156242857Y-68331009D02*
X156242857Y-68854819D01*
X140784083Y-65192854D02*
X140784083Y-64192854D01*
X140784083Y-64192854D02*
X141022178Y-64192854D01*
X141022178Y-64192854D02*
X141165035Y-64240473D01*
X141165035Y-64240473D02*
X141260273Y-64335711D01*
X141260273Y-64335711D02*
X141307892Y-64430949D01*
X141307892Y-64430949D02*
X141355511Y-64621425D01*
X141355511Y-64621425D02*
X141355511Y-64764282D01*
X141355511Y-64764282D02*
X141307892Y-64954758D01*
X141307892Y-64954758D02*
X141260273Y-65049996D01*
X141260273Y-65049996D02*
X141165035Y-65145235D01*
X141165035Y-65145235D02*
X141022178Y-65192854D01*
X141022178Y-65192854D02*
X140784083Y-65192854D01*
X142450749Y-74192854D02*
X141879321Y-74192854D01*
X142165035Y-74192854D02*
X142165035Y-73192854D01*
X142165035Y-73192854D02*
X142069797Y-73335711D01*
X142069797Y-73335711D02*
X141974559Y-73430949D01*
X141974559Y-73430949D02*
X141879321Y-73478568D01*
X143069797Y-73192854D02*
X143165035Y-73192854D01*
X143165035Y-73192854D02*
X143260273Y-73240473D01*
X143260273Y-73240473D02*
X143307892Y-73288092D01*
X143307892Y-73288092D02*
X143355511Y-73383330D01*
X143355511Y-73383330D02*
X143403130Y-73573806D01*
X143403130Y-73573806D02*
X143403130Y-73811901D01*
X143403130Y-73811901D02*
X143355511Y-74002377D01*
X143355511Y-74002377D02*
X143307892Y-74097615D01*
X143307892Y-74097615D02*
X143260273Y-74145235D01*
X143260273Y-74145235D02*
X143165035Y-74192854D01*
X143165035Y-74192854D02*
X143069797Y-74192854D01*
X143069797Y-74192854D02*
X142974559Y-74145235D01*
X142974559Y-74145235D02*
X142926940Y-74097615D01*
X142926940Y-74097615D02*
X142879321Y-74002377D01*
X142879321Y-74002377D02*
X142831702Y-73811901D01*
X142831702Y-73811901D02*
X142831702Y-73573806D01*
X142831702Y-73573806D02*
X142879321Y-73383330D01*
X142879321Y-73383330D02*
X142926940Y-73288092D01*
X142926940Y-73288092D02*
X142974559Y-73240473D01*
X142974559Y-73240473D02*
X143069797Y-73192854D01*
X143831702Y-74192854D02*
X143831702Y-73192854D01*
X143926940Y-73811901D02*
X144212654Y-74192854D01*
X144212654Y-73526187D02*
X143831702Y-73907139D01*
X110085714Y-61854819D02*
X109514286Y-61854819D01*
X109800000Y-61854819D02*
X109800000Y-60854819D01*
X109800000Y-60854819D02*
X109704762Y-60997676D01*
X109704762Y-60997676D02*
X109609524Y-61092914D01*
X109609524Y-61092914D02*
X109514286Y-61140533D01*
X110704762Y-60854819D02*
X110800000Y-60854819D01*
X110800000Y-60854819D02*
X110895238Y-60902438D01*
X110895238Y-60902438D02*
X110942857Y-60950057D01*
X110942857Y-60950057D02*
X110990476Y-61045295D01*
X110990476Y-61045295D02*
X111038095Y-61235771D01*
X111038095Y-61235771D02*
X111038095Y-61473866D01*
X111038095Y-61473866D02*
X110990476Y-61664342D01*
X110990476Y-61664342D02*
X110942857Y-61759580D01*
X110942857Y-61759580D02*
X110895238Y-61807200D01*
X110895238Y-61807200D02*
X110800000Y-61854819D01*
X110800000Y-61854819D02*
X110704762Y-61854819D01*
X110704762Y-61854819D02*
X110609524Y-61807200D01*
X110609524Y-61807200D02*
X110561905Y-61759580D01*
X110561905Y-61759580D02*
X110514286Y-61664342D01*
X110514286Y-61664342D02*
X110466667Y-61473866D01*
X110466667Y-61473866D02*
X110466667Y-61235771D01*
X110466667Y-61235771D02*
X110514286Y-61045295D01*
X110514286Y-61045295D02*
X110561905Y-60950057D01*
X110561905Y-60950057D02*
X110609524Y-60902438D01*
X110609524Y-60902438D02*
X110704762Y-60854819D01*
X111466667Y-61188152D02*
X111466667Y-62188152D01*
X111942857Y-61711961D02*
X111990476Y-61807200D01*
X111990476Y-61807200D02*
X112085714Y-61854819D01*
X111466667Y-61711961D02*
X111514286Y-61807200D01*
X111514286Y-61807200D02*
X111609524Y-61854819D01*
X111609524Y-61854819D02*
X111800000Y-61854819D01*
X111800000Y-61854819D02*
X111895238Y-61807200D01*
X111895238Y-61807200D02*
X111942857Y-61711961D01*
X111942857Y-61711961D02*
X111942857Y-61188152D01*
X143635865Y-54769802D02*
X143635865Y-55341230D01*
X143635865Y-55055516D02*
X142635865Y-55055516D01*
X142635865Y-55055516D02*
X142778722Y-55150754D01*
X142778722Y-55150754D02*
X142873960Y-55245992D01*
X142873960Y-55245992D02*
X142921579Y-55341230D01*
X142635865Y-54150754D02*
X142635865Y-54055516D01*
X142635865Y-54055516D02*
X142683484Y-53960278D01*
X142683484Y-53960278D02*
X142731103Y-53912659D01*
X142731103Y-53912659D02*
X142826341Y-53865040D01*
X142826341Y-53865040D02*
X143016817Y-53817421D01*
X143016817Y-53817421D02*
X143254912Y-53817421D01*
X143254912Y-53817421D02*
X143445388Y-53865040D01*
X143445388Y-53865040D02*
X143540626Y-53912659D01*
X143540626Y-53912659D02*
X143588246Y-53960278D01*
X143588246Y-53960278D02*
X143635865Y-54055516D01*
X143635865Y-54055516D02*
X143635865Y-54150754D01*
X143635865Y-54150754D02*
X143588246Y-54245992D01*
X143588246Y-54245992D02*
X143540626Y-54293611D01*
X143540626Y-54293611D02*
X143445388Y-54341230D01*
X143445388Y-54341230D02*
X143254912Y-54388849D01*
X143254912Y-54388849D02*
X143016817Y-54388849D01*
X143016817Y-54388849D02*
X142826341Y-54341230D01*
X142826341Y-54341230D02*
X142731103Y-54293611D01*
X142731103Y-54293611D02*
X142683484Y-54245992D01*
X142683484Y-54245992D02*
X142635865Y-54150754D01*
X143635865Y-53388849D02*
X142635865Y-53388849D01*
X143254912Y-53293611D02*
X143635865Y-53007897D01*
X142969198Y-53007897D02*
X143350150Y-53388849D01*
X131331702Y-69192854D02*
X130760274Y-69192854D01*
X131045988Y-69192854D02*
X131045988Y-68192854D01*
X131045988Y-68192854D02*
X130950750Y-68335711D01*
X130950750Y-68335711D02*
X130855512Y-68430949D01*
X130855512Y-68430949D02*
X130760274Y-68478568D01*
X131950750Y-68192854D02*
X132045988Y-68192854D01*
X132045988Y-68192854D02*
X132141226Y-68240473D01*
X132141226Y-68240473D02*
X132188845Y-68288092D01*
X132188845Y-68288092D02*
X132236464Y-68383330D01*
X132236464Y-68383330D02*
X132284083Y-68573806D01*
X132284083Y-68573806D02*
X132284083Y-68811901D01*
X132284083Y-68811901D02*
X132236464Y-69002377D01*
X132236464Y-69002377D02*
X132188845Y-69097615D01*
X132188845Y-69097615D02*
X132141226Y-69145235D01*
X132141226Y-69145235D02*
X132045988Y-69192854D01*
X132045988Y-69192854D02*
X131950750Y-69192854D01*
X131950750Y-69192854D02*
X131855512Y-69145235D01*
X131855512Y-69145235D02*
X131807893Y-69097615D01*
X131807893Y-69097615D02*
X131760274Y-69002377D01*
X131760274Y-69002377D02*
X131712655Y-68811901D01*
X131712655Y-68811901D02*
X131712655Y-68573806D01*
X131712655Y-68573806D02*
X131760274Y-68383330D01*
X131760274Y-68383330D02*
X131807893Y-68288092D01*
X131807893Y-68288092D02*
X131855512Y-68240473D01*
X131855512Y-68240473D02*
X131950750Y-68192854D01*
X132712655Y-68526187D02*
X132712655Y-69526187D01*
X133188845Y-69049996D02*
X133236464Y-69145235D01*
X133236464Y-69145235D02*
X133331702Y-69192854D01*
X132712655Y-69049996D02*
X132760274Y-69145235D01*
X132760274Y-69145235D02*
X132855512Y-69192854D01*
X132855512Y-69192854D02*
X133045988Y-69192854D01*
X133045988Y-69192854D02*
X133141226Y-69145235D01*
X133141226Y-69145235D02*
X133188845Y-69049996D01*
X133188845Y-69049996D02*
X133188845Y-68526187D01*
X69685714Y-62054819D02*
X69114286Y-62054819D01*
X69400000Y-62054819D02*
X69400000Y-61054819D01*
X69400000Y-61054819D02*
X69304762Y-61197676D01*
X69304762Y-61197676D02*
X69209524Y-61292914D01*
X69209524Y-61292914D02*
X69114286Y-61340533D01*
X70304762Y-61054819D02*
X70400000Y-61054819D01*
X70400000Y-61054819D02*
X70495238Y-61102438D01*
X70495238Y-61102438D02*
X70542857Y-61150057D01*
X70542857Y-61150057D02*
X70590476Y-61245295D01*
X70590476Y-61245295D02*
X70638095Y-61435771D01*
X70638095Y-61435771D02*
X70638095Y-61673866D01*
X70638095Y-61673866D02*
X70590476Y-61864342D01*
X70590476Y-61864342D02*
X70542857Y-61959580D01*
X70542857Y-61959580D02*
X70495238Y-62007200D01*
X70495238Y-62007200D02*
X70400000Y-62054819D01*
X70400000Y-62054819D02*
X70304762Y-62054819D01*
X70304762Y-62054819D02*
X70209524Y-62007200D01*
X70209524Y-62007200D02*
X70161905Y-61959580D01*
X70161905Y-61959580D02*
X70114286Y-61864342D01*
X70114286Y-61864342D02*
X70066667Y-61673866D01*
X70066667Y-61673866D02*
X70066667Y-61435771D01*
X70066667Y-61435771D02*
X70114286Y-61245295D01*
X70114286Y-61245295D02*
X70161905Y-61150057D01*
X70161905Y-61150057D02*
X70209524Y-61102438D01*
X70209524Y-61102438D02*
X70304762Y-61054819D01*
X71066667Y-61388152D02*
X71066667Y-62388152D01*
X71542857Y-61911961D02*
X71590476Y-62007200D01*
X71590476Y-62007200D02*
X71685714Y-62054819D01*
X71066667Y-61911961D02*
X71114286Y-62007200D01*
X71114286Y-62007200D02*
X71209524Y-62054819D01*
X71209524Y-62054819D02*
X71400000Y-62054819D01*
X71400000Y-62054819D02*
X71495238Y-62007200D01*
X71495238Y-62007200D02*
X71542857Y-61911961D01*
X71542857Y-61911961D02*
X71542857Y-61388152D01*
X67059524Y-69150057D02*
X67107143Y-69102438D01*
X67107143Y-69102438D02*
X67202381Y-69054819D01*
X67202381Y-69054819D02*
X67440476Y-69054819D01*
X67440476Y-69054819D02*
X67535714Y-69102438D01*
X67535714Y-69102438D02*
X67583333Y-69150057D01*
X67583333Y-69150057D02*
X67630952Y-69245295D01*
X67630952Y-69245295D02*
X67630952Y-69340533D01*
X67630952Y-69340533D02*
X67583333Y-69483390D01*
X67583333Y-69483390D02*
X67011905Y-70054819D01*
X67011905Y-70054819D02*
X67630952Y-70054819D01*
X68011905Y-69150057D02*
X68059524Y-69102438D01*
X68059524Y-69102438D02*
X68154762Y-69054819D01*
X68154762Y-69054819D02*
X68392857Y-69054819D01*
X68392857Y-69054819D02*
X68488095Y-69102438D01*
X68488095Y-69102438D02*
X68535714Y-69150057D01*
X68535714Y-69150057D02*
X68583333Y-69245295D01*
X68583333Y-69245295D02*
X68583333Y-69340533D01*
X68583333Y-69340533D02*
X68535714Y-69483390D01*
X68535714Y-69483390D02*
X67964286Y-70054819D01*
X67964286Y-70054819D02*
X68583333Y-70054819D01*
X69202381Y-69054819D02*
X69297619Y-69054819D01*
X69297619Y-69054819D02*
X69392857Y-69102438D01*
X69392857Y-69102438D02*
X69440476Y-69150057D01*
X69440476Y-69150057D02*
X69488095Y-69245295D01*
X69488095Y-69245295D02*
X69535714Y-69435771D01*
X69535714Y-69435771D02*
X69535714Y-69673866D01*
X69535714Y-69673866D02*
X69488095Y-69864342D01*
X69488095Y-69864342D02*
X69440476Y-69959580D01*
X69440476Y-69959580D02*
X69392857Y-70007200D01*
X69392857Y-70007200D02*
X69297619Y-70054819D01*
X69297619Y-70054819D02*
X69202381Y-70054819D01*
X69202381Y-70054819D02*
X69107143Y-70007200D01*
X69107143Y-70007200D02*
X69059524Y-69959580D01*
X69059524Y-69959580D02*
X69011905Y-69864342D01*
X69011905Y-69864342D02*
X68964286Y-69673866D01*
X68964286Y-69673866D02*
X68964286Y-69435771D01*
X68964286Y-69435771D02*
X69011905Y-69245295D01*
X69011905Y-69245295D02*
X69059524Y-69150057D01*
X69059524Y-69150057D02*
X69107143Y-69102438D01*
X69107143Y-69102438D02*
X69202381Y-69054819D01*
X69964286Y-69388152D02*
X69964286Y-70054819D01*
X69964286Y-69483390D02*
X70011905Y-69435771D01*
X70011905Y-69435771D02*
X70107143Y-69388152D01*
X70107143Y-69388152D02*
X70250000Y-69388152D01*
X70250000Y-69388152D02*
X70345238Y-69435771D01*
X70345238Y-69435771D02*
X70392857Y-69531009D01*
X70392857Y-69531009D02*
X70392857Y-70054819D01*
X86254819Y-55875238D02*
X86254819Y-56446666D01*
X86254819Y-56160952D02*
X85254819Y-56160952D01*
X85254819Y-56160952D02*
X85397676Y-56256190D01*
X85397676Y-56256190D02*
X85492914Y-56351428D01*
X85492914Y-56351428D02*
X85540533Y-56446666D01*
X85254819Y-55256190D02*
X85254819Y-55160952D01*
X85254819Y-55160952D02*
X85302438Y-55065714D01*
X85302438Y-55065714D02*
X85350057Y-55018095D01*
X85350057Y-55018095D02*
X85445295Y-54970476D01*
X85445295Y-54970476D02*
X85635771Y-54922857D01*
X85635771Y-54922857D02*
X85873866Y-54922857D01*
X85873866Y-54922857D02*
X86064342Y-54970476D01*
X86064342Y-54970476D02*
X86159580Y-55018095D01*
X86159580Y-55018095D02*
X86207200Y-55065714D01*
X86207200Y-55065714D02*
X86254819Y-55160952D01*
X86254819Y-55160952D02*
X86254819Y-55256190D01*
X86254819Y-55256190D02*
X86207200Y-55351428D01*
X86207200Y-55351428D02*
X86159580Y-55399047D01*
X86159580Y-55399047D02*
X86064342Y-55446666D01*
X86064342Y-55446666D02*
X85873866Y-55494285D01*
X85873866Y-55494285D02*
X85635771Y-55494285D01*
X85635771Y-55494285D02*
X85445295Y-55446666D01*
X85445295Y-55446666D02*
X85350057Y-55399047D01*
X85350057Y-55399047D02*
X85302438Y-55351428D01*
X85302438Y-55351428D02*
X85254819Y-55256190D01*
X86254819Y-54494285D02*
X85254819Y-54494285D01*
X85873866Y-54399047D02*
X86254819Y-54113333D01*
X85588152Y-54113333D02*
X85969104Y-54494285D01*
X82054819Y-55795238D02*
X82054819Y-56366666D01*
X82054819Y-56080952D02*
X81054819Y-56080952D01*
X81054819Y-56080952D02*
X81197676Y-56176190D01*
X81197676Y-56176190D02*
X81292914Y-56271428D01*
X81292914Y-56271428D02*
X81340533Y-56366666D01*
X81054819Y-55176190D02*
X81054819Y-55080952D01*
X81054819Y-55080952D02*
X81102438Y-54985714D01*
X81102438Y-54985714D02*
X81150057Y-54938095D01*
X81150057Y-54938095D02*
X81245295Y-54890476D01*
X81245295Y-54890476D02*
X81435771Y-54842857D01*
X81435771Y-54842857D02*
X81673866Y-54842857D01*
X81673866Y-54842857D02*
X81864342Y-54890476D01*
X81864342Y-54890476D02*
X81959580Y-54938095D01*
X81959580Y-54938095D02*
X82007200Y-54985714D01*
X82007200Y-54985714D02*
X82054819Y-55080952D01*
X82054819Y-55080952D02*
X82054819Y-55176190D01*
X82054819Y-55176190D02*
X82007200Y-55271428D01*
X82007200Y-55271428D02*
X81959580Y-55319047D01*
X81959580Y-55319047D02*
X81864342Y-55366666D01*
X81864342Y-55366666D02*
X81673866Y-55414285D01*
X81673866Y-55414285D02*
X81435771Y-55414285D01*
X81435771Y-55414285D02*
X81245295Y-55366666D01*
X81245295Y-55366666D02*
X81150057Y-55319047D01*
X81150057Y-55319047D02*
X81102438Y-55271428D01*
X81102438Y-55271428D02*
X81054819Y-55176190D01*
X82054819Y-54414285D02*
X81054819Y-54414285D01*
X81673866Y-54319047D02*
X82054819Y-54033333D01*
X81388152Y-54033333D02*
X81769104Y-54414285D01*
X73054819Y-56414285D02*
X73054819Y-55795238D01*
X73054819Y-55795238D02*
X73435771Y-56128571D01*
X73435771Y-56128571D02*
X73435771Y-55985714D01*
X73435771Y-55985714D02*
X73483390Y-55890476D01*
X73483390Y-55890476D02*
X73531009Y-55842857D01*
X73531009Y-55842857D02*
X73626247Y-55795238D01*
X73626247Y-55795238D02*
X73864342Y-55795238D01*
X73864342Y-55795238D02*
X73959580Y-55842857D01*
X73959580Y-55842857D02*
X74007200Y-55890476D01*
X74007200Y-55890476D02*
X74054819Y-55985714D01*
X74054819Y-55985714D02*
X74054819Y-56271428D01*
X74054819Y-56271428D02*
X74007200Y-56366666D01*
X74007200Y-56366666D02*
X73959580Y-56414285D01*
X73054819Y-55461904D02*
X73054819Y-54842857D01*
X73054819Y-54842857D02*
X73435771Y-55176190D01*
X73435771Y-55176190D02*
X73435771Y-55033333D01*
X73435771Y-55033333D02*
X73483390Y-54938095D01*
X73483390Y-54938095D02*
X73531009Y-54890476D01*
X73531009Y-54890476D02*
X73626247Y-54842857D01*
X73626247Y-54842857D02*
X73864342Y-54842857D01*
X73864342Y-54842857D02*
X73959580Y-54890476D01*
X73959580Y-54890476D02*
X74007200Y-54938095D01*
X74007200Y-54938095D02*
X74054819Y-55033333D01*
X74054819Y-55033333D02*
X74054819Y-55319047D01*
X74054819Y-55319047D02*
X74007200Y-55414285D01*
X74007200Y-55414285D02*
X73959580Y-55461904D01*
X74054819Y-54414285D02*
X73054819Y-54414285D01*
X73673866Y-54319047D02*
X74054819Y-54033333D01*
X73388152Y-54033333D02*
X73769104Y-54414285D01*
D14*
%TO.C,R8*%
X69450000Y-97640000D02*
X69450000Y-98410000D01*
X70820000Y-98410000D02*
X68080000Y-98410000D01*
X68080000Y-98410000D02*
X68080000Y-104950000D01*
X70820000Y-104950000D02*
X70820000Y-98410000D01*
X68080000Y-104950000D02*
X70820000Y-104950000D01*
X69450000Y-105720000D02*
X69450000Y-104950000D01*
%TO.C,R18*%
X81600000Y-97640000D02*
X81600000Y-98410000D01*
X82970000Y-98410000D02*
X80230000Y-98410000D01*
X80230000Y-98410000D02*
X80230000Y-104950000D01*
X82970000Y-104950000D02*
X82970000Y-98410000D01*
X80230000Y-104950000D02*
X82970000Y-104950000D01*
X81600000Y-105720000D02*
X81600000Y-104950000D01*
%TO.C,R16*%
X77550000Y-97640000D02*
X77550000Y-98410000D01*
X78920000Y-98410000D02*
X76180000Y-98410000D01*
X76180000Y-98410000D02*
X76180000Y-104950000D01*
X78920000Y-104950000D02*
X78920000Y-98410000D01*
X76180000Y-104950000D02*
X78920000Y-104950000D01*
X77550000Y-105720000D02*
X77550000Y-104950000D01*
%TO.C,R23*%
X94550000Y-97640000D02*
X94550000Y-98410000D01*
X95920000Y-98410000D02*
X93180000Y-98410000D01*
X93180000Y-98410000D02*
X93180000Y-104950000D01*
X95920000Y-104950000D02*
X95920000Y-98410000D01*
X93180000Y-104950000D02*
X95920000Y-104950000D01*
X94550000Y-105720000D02*
X94550000Y-104950000D01*
%TO.C,R19*%
X86450000Y-97640000D02*
X86450000Y-98410000D01*
X87820000Y-98410000D02*
X85080000Y-98410000D01*
X85080000Y-98410000D02*
X85080000Y-104950000D01*
X87820000Y-104950000D02*
X87820000Y-98410000D01*
X85080000Y-104950000D02*
X87820000Y-104950000D01*
X86450000Y-105720000D02*
X86450000Y-104950000D01*
%TO.C,R24*%
X73400000Y-97640000D02*
X73400000Y-98410000D01*
X74770000Y-98410000D02*
X72030000Y-98410000D01*
X72030000Y-98410000D02*
X72030000Y-104950000D01*
X74770000Y-104950000D02*
X74770000Y-98410000D01*
X72030000Y-104950000D02*
X74770000Y-104950000D01*
X73400000Y-105720000D02*
X73400000Y-104950000D01*
%TO.C,R22*%
X90500000Y-97640000D02*
X90500000Y-98410000D01*
X91870000Y-98410000D02*
X89130000Y-98410000D01*
X89130000Y-98410000D02*
X89130000Y-104950000D01*
X91870000Y-104950000D02*
X91870000Y-98410000D01*
X89130000Y-104950000D02*
X91870000Y-104950000D01*
X90500000Y-105720000D02*
X90500000Y-104950000D01*
%TO.C,R10*%
X98400000Y-97640000D02*
X98400000Y-98410000D01*
X99770000Y-98410000D02*
X97030000Y-98410000D01*
X97030000Y-98410000D02*
X97030000Y-104950000D01*
X99770000Y-104950000D02*
X99770000Y-98410000D01*
X97030000Y-104950000D02*
X99770000Y-104950000D01*
X98400000Y-105720000D02*
X98400000Y-104950000D01*
%TO.C,U6*%
X107955000Y-95660000D02*
X107955000Y-105940000D01*
X107955000Y-105940000D02*
X113255000Y-105940000D01*
X109605000Y-95660000D02*
X107955000Y-95660000D01*
X113255000Y-95660000D02*
X111605000Y-95660000D01*
X113255000Y-105940000D02*
X113255000Y-95660000D01*
X111605000Y-95660000D02*
G75*
G02*
X109605000Y-95660000I-1000000J0D01*
G01*
%TO.C,U4*%
X132890000Y-105550000D02*
X132890000Y-104220000D01*
X134220000Y-105550000D02*
X132890000Y-105550000D01*
X135490000Y-105550000D02*
X140630000Y-105550000D01*
X135490000Y-105550000D02*
X135490000Y-102890000D01*
X140630000Y-105550000D02*
X140630000Y-102890000D01*
X135490000Y-102890000D02*
X140630000Y-102890000D01*
%TO.C,D6*%
X101930000Y-103930000D02*
X101930000Y-98490000D01*
X102060000Y-103930000D02*
X101930000Y-103930000D01*
X104740000Y-103930000D02*
X104870000Y-103930000D01*
X104870000Y-103930000D02*
X104870000Y-98490000D01*
X101930000Y-103150000D02*
X104870000Y-103150000D01*
X101930000Y-103030000D02*
X104870000Y-103030000D01*
X101930000Y-102910000D02*
X104870000Y-102910000D01*
X101930000Y-98490000D02*
X102060000Y-98490000D01*
X104870000Y-98490000D02*
X104740000Y-98490000D01*
%TO.C,D5*%
X127261000Y-105370000D02*
X127580000Y-105370000D01*
X129740000Y-105370000D02*
X130059000Y-105370000D01*
X127261251Y-105370000D02*
G75*
G02*
X127579931Y-101066443I1398749J2060000D01*
G01*
X127580000Y-104993330D02*
G75*
G02*
X127579943Y-101626706I1080000J1683330D01*
G01*
X129740057Y-101626706D02*
G75*
G02*
X129740000Y-104993330I-1080057J-1683294D01*
G01*
X129740069Y-101066442D02*
G75*
G02*
X130058749Y-105370000I-1080069J-2243558D01*
G01*
%TO.C,C21*%
X117649759Y-97561000D02*
X118279759Y-97561000D01*
X117964759Y-97246000D02*
X117964759Y-97876000D01*
X121150000Y-96170000D02*
X121150000Y-102630000D01*
X121190000Y-96170000D02*
X121190000Y-102630000D01*
X121230000Y-96170000D02*
X121230000Y-102630000D01*
X121270000Y-96172000D02*
X121270000Y-102628000D01*
X121310000Y-96173000D02*
X121310000Y-102627000D01*
X121350000Y-96176000D02*
X121350000Y-102624000D01*
X121390000Y-96178000D02*
X121390000Y-98360000D01*
X121390000Y-100440000D02*
X121390000Y-102622000D01*
X121430000Y-96182000D02*
X121430000Y-98360000D01*
X121430000Y-100440000D02*
X121430000Y-102618000D01*
X121470000Y-96185000D02*
X121470000Y-98360000D01*
X121470000Y-100440000D02*
X121470000Y-102615000D01*
X121510000Y-96189000D02*
X121510000Y-98360000D01*
X121510000Y-100440000D02*
X121510000Y-102611000D01*
X121550000Y-96194000D02*
X121550000Y-98360000D01*
X121550000Y-100440000D02*
X121550000Y-102606000D01*
X121590000Y-96199000D02*
X121590000Y-98360000D01*
X121590000Y-100440000D02*
X121590000Y-102601000D01*
X121630000Y-96205000D02*
X121630000Y-98360000D01*
X121630000Y-100440000D02*
X121630000Y-102595000D01*
X121670000Y-96211000D02*
X121670000Y-98360000D01*
X121670000Y-100440000D02*
X121670000Y-102589000D01*
X121710000Y-96218000D02*
X121710000Y-98360000D01*
X121710000Y-100440000D02*
X121710000Y-102582000D01*
X121750000Y-96225000D02*
X121750000Y-98360000D01*
X121750000Y-100440000D02*
X121750000Y-102575000D01*
X121790000Y-96233000D02*
X121790000Y-98360000D01*
X121790000Y-100440000D02*
X121790000Y-102567000D01*
X121830000Y-96241000D02*
X121830000Y-98360000D01*
X121830000Y-100440000D02*
X121830000Y-102559000D01*
X121871000Y-96250000D02*
X121871000Y-98360000D01*
X121871000Y-100440000D02*
X121871000Y-102550000D01*
X121911000Y-96259000D02*
X121911000Y-98360000D01*
X121911000Y-100440000D02*
X121911000Y-102541000D01*
X121951000Y-96269000D02*
X121951000Y-98360000D01*
X121951000Y-100440000D02*
X121951000Y-102531000D01*
X121991000Y-96279000D02*
X121991000Y-98360000D01*
X121991000Y-100440000D02*
X121991000Y-102521000D01*
X122031000Y-96290000D02*
X122031000Y-98360000D01*
X122031000Y-100440000D02*
X122031000Y-102510000D01*
X122071000Y-96302000D02*
X122071000Y-98360000D01*
X122071000Y-100440000D02*
X122071000Y-102498000D01*
X122111000Y-96314000D02*
X122111000Y-98360000D01*
X122111000Y-100440000D02*
X122111000Y-102486000D01*
X122151000Y-96326000D02*
X122151000Y-98360000D01*
X122151000Y-100440000D02*
X122151000Y-102474000D01*
X122191000Y-96339000D02*
X122191000Y-98360000D01*
X122191000Y-100440000D02*
X122191000Y-102461000D01*
X122231000Y-96353000D02*
X122231000Y-98360000D01*
X122231000Y-100440000D02*
X122231000Y-102447000D01*
X122271000Y-96367000D02*
X122271000Y-98360000D01*
X122271000Y-100440000D02*
X122271000Y-102433000D01*
X122311000Y-96382000D02*
X122311000Y-98360000D01*
X122311000Y-100440000D02*
X122311000Y-102418000D01*
X122351000Y-96398000D02*
X122351000Y-98360000D01*
X122351000Y-100440000D02*
X122351000Y-102402000D01*
X122391000Y-96414000D02*
X122391000Y-98360000D01*
X122391000Y-100440000D02*
X122391000Y-102386000D01*
X122431000Y-96430000D02*
X122431000Y-98360000D01*
X122431000Y-100440000D02*
X122431000Y-102370000D01*
X122471000Y-96448000D02*
X122471000Y-98360000D01*
X122471000Y-100440000D02*
X122471000Y-102352000D01*
X122511000Y-96466000D02*
X122511000Y-98360000D01*
X122511000Y-100440000D02*
X122511000Y-102334000D01*
X122551000Y-96484000D02*
X122551000Y-98360000D01*
X122551000Y-100440000D02*
X122551000Y-102316000D01*
X122591000Y-96504000D02*
X122591000Y-98360000D01*
X122591000Y-100440000D02*
X122591000Y-102296000D01*
X122631000Y-96524000D02*
X122631000Y-98360000D01*
X122631000Y-100440000D02*
X122631000Y-102276000D01*
X122671000Y-96544000D02*
X122671000Y-98360000D01*
X122671000Y-100440000D02*
X122671000Y-102256000D01*
X122711000Y-96566000D02*
X122711000Y-98360000D01*
X122711000Y-100440000D02*
X122711000Y-102234000D01*
X122751000Y-96588000D02*
X122751000Y-98360000D01*
X122751000Y-100440000D02*
X122751000Y-102212000D01*
X122791000Y-96610000D02*
X122791000Y-98360000D01*
X122791000Y-100440000D02*
X122791000Y-102190000D01*
X122831000Y-96634000D02*
X122831000Y-98360000D01*
X122831000Y-100440000D02*
X122831000Y-102166000D01*
X122871000Y-96658000D02*
X122871000Y-98360000D01*
X122871000Y-100440000D02*
X122871000Y-102142000D01*
X122911000Y-96684000D02*
X122911000Y-98360000D01*
X122911000Y-100440000D02*
X122911000Y-102116000D01*
X122951000Y-96710000D02*
X122951000Y-98360000D01*
X122951000Y-100440000D02*
X122951000Y-102090000D01*
X122991000Y-96736000D02*
X122991000Y-98360000D01*
X122991000Y-100440000D02*
X122991000Y-102064000D01*
X123031000Y-96764000D02*
X123031000Y-98360000D01*
X123031000Y-100440000D02*
X123031000Y-102036000D01*
X123071000Y-96793000D02*
X123071000Y-98360000D01*
X123071000Y-100440000D02*
X123071000Y-102007000D01*
X123111000Y-96822000D02*
X123111000Y-98360000D01*
X123111000Y-100440000D02*
X123111000Y-101978000D01*
X123151000Y-96852000D02*
X123151000Y-98360000D01*
X123151000Y-100440000D02*
X123151000Y-101948000D01*
X123191000Y-96884000D02*
X123191000Y-98360000D01*
X123191000Y-100440000D02*
X123191000Y-101916000D01*
X123231000Y-96916000D02*
X123231000Y-98360000D01*
X123231000Y-100440000D02*
X123231000Y-101884000D01*
X123271000Y-96950000D02*
X123271000Y-98360000D01*
X123271000Y-100440000D02*
X123271000Y-101850000D01*
X123311000Y-96984000D02*
X123311000Y-98360000D01*
X123311000Y-100440000D02*
X123311000Y-101816000D01*
X123351000Y-97020000D02*
X123351000Y-98360000D01*
X123351000Y-100440000D02*
X123351000Y-101780000D01*
X123391000Y-97057000D02*
X123391000Y-98360000D01*
X123391000Y-100440000D02*
X123391000Y-101743000D01*
X123431000Y-97095000D02*
X123431000Y-98360000D01*
X123431000Y-100440000D02*
X123431000Y-101705000D01*
X123471000Y-97135000D02*
X123471000Y-101665000D01*
X123511000Y-97176000D02*
X123511000Y-101624000D01*
X123551000Y-97218000D02*
X123551000Y-101582000D01*
X123591000Y-97263000D02*
X123591000Y-101537000D01*
X123631000Y-97308000D02*
X123631000Y-101492000D01*
X123671000Y-97356000D02*
X123671000Y-101444000D01*
X123711000Y-97405000D02*
X123711000Y-101395000D01*
X123751000Y-97456000D02*
X123751000Y-101344000D01*
X123791000Y-97510000D02*
X123791000Y-101290000D01*
X123831000Y-97566000D02*
X123831000Y-101234000D01*
X123871000Y-97624000D02*
X123871000Y-101176000D01*
X123911000Y-97686000D02*
X123911000Y-101114000D01*
X123951000Y-97750000D02*
X123951000Y-101050000D01*
X123991000Y-97819000D02*
X123991000Y-100981000D01*
X124031000Y-97891000D02*
X124031000Y-100909000D01*
X124071000Y-97968000D02*
X124071000Y-100832000D01*
X124111000Y-98050000D02*
X124111000Y-100750000D01*
X124151000Y-98138000D02*
X124151000Y-100662000D01*
X124191000Y-98235000D02*
X124191000Y-100565000D01*
X124231000Y-98341000D02*
X124231000Y-100459000D01*
X124271000Y-98460000D02*
X124271000Y-100340000D01*
X124311000Y-98598000D02*
X124311000Y-100202000D01*
X124351000Y-98767000D02*
X124351000Y-100033000D01*
X124391000Y-98998000D02*
X124391000Y-99802000D01*
X124420000Y-99400000D02*
G75*
G02*
X117880000Y-99400000I-3270000J0D01*
G01*
X117880000Y-99400000D02*
G75*
G02*
X124420000Y-99400000I3270000J0D01*
G01*
%TO.C,C20*%
X134380000Y-99270000D02*
X135005000Y-99270000D01*
X134380000Y-99270000D02*
X134380000Y-95230000D01*
X136595000Y-99270000D02*
X137220000Y-99270000D01*
X137220000Y-99270000D02*
X137220000Y-95230000D01*
X134380000Y-95230000D02*
X135005000Y-95230000D01*
X136595000Y-95230000D02*
X137220000Y-95230000D01*
%TO.C,C18*%
X130230000Y-99270000D02*
X130855000Y-99270000D01*
X130230000Y-99270000D02*
X130230000Y-95230000D01*
X132445000Y-99270000D02*
X133070000Y-99270000D01*
X133070000Y-99270000D02*
X133070000Y-95230000D01*
X130230000Y-95230000D02*
X130855000Y-95230000D01*
X132445000Y-95230000D02*
X133070000Y-95230000D01*
%TO.C,C13*%
X126080000Y-99270000D02*
X126705000Y-99270000D01*
X126080000Y-99270000D02*
X126080000Y-95230000D01*
X128295000Y-99270000D02*
X128920000Y-99270000D01*
X128920000Y-99270000D02*
X128920000Y-95230000D01*
X126080000Y-95230000D02*
X126705000Y-95230000D01*
X128295000Y-95230000D02*
X128920000Y-95230000D01*
%TO.C,C12*%
X145530199Y-96205000D02*
X145930199Y-96205000D01*
X145730199Y-96005000D02*
X145730199Y-96405000D01*
X147800000Y-95320000D02*
X147800000Y-99480000D01*
X147840000Y-95320000D02*
X147840000Y-99480000D01*
X147880000Y-95321000D02*
X147880000Y-99479000D01*
X147920000Y-95323000D02*
X147920000Y-99477000D01*
X147960000Y-95326000D02*
X147960000Y-99474000D01*
X148000000Y-95329000D02*
X148000000Y-96560000D01*
X148000000Y-98240000D02*
X148000000Y-99471000D01*
X148040000Y-95333000D02*
X148040000Y-96560000D01*
X148040000Y-98240000D02*
X148040000Y-99467000D01*
X148080000Y-95338000D02*
X148080000Y-96560000D01*
X148080000Y-98240000D02*
X148080000Y-99462000D01*
X148120000Y-95344000D02*
X148120000Y-96560000D01*
X148120000Y-98240000D02*
X148120000Y-99456000D01*
X148160000Y-95350000D02*
X148160000Y-96560000D01*
X148160000Y-98240000D02*
X148160000Y-99450000D01*
X148200000Y-95358000D02*
X148200000Y-96560000D01*
X148200000Y-98240000D02*
X148200000Y-99442000D01*
X148240000Y-95366000D02*
X148240000Y-96560000D01*
X148240000Y-98240000D02*
X148240000Y-99434000D01*
X148280000Y-95375000D02*
X148280000Y-96560000D01*
X148280000Y-98240000D02*
X148280000Y-99425000D01*
X148320000Y-95384000D02*
X148320000Y-96560000D01*
X148320000Y-98240000D02*
X148320000Y-99416000D01*
X148360000Y-95395000D02*
X148360000Y-96560000D01*
X148360000Y-98240000D02*
X148360000Y-99405000D01*
X148400000Y-95406000D02*
X148400000Y-96560000D01*
X148400000Y-98240000D02*
X148400000Y-99394000D01*
X148440000Y-95418000D02*
X148440000Y-96560000D01*
X148440000Y-98240000D02*
X148440000Y-99382000D01*
X148480000Y-95432000D02*
X148480000Y-96560000D01*
X148480000Y-98240000D02*
X148480000Y-99368000D01*
X148521000Y-95446000D02*
X148521000Y-96560000D01*
X148521000Y-98240000D02*
X148521000Y-99354000D01*
X148561000Y-95460000D02*
X148561000Y-96560000D01*
X148561000Y-98240000D02*
X148561000Y-99340000D01*
X148601000Y-95476000D02*
X148601000Y-96560000D01*
X148601000Y-98240000D02*
X148601000Y-99324000D01*
X148641000Y-95493000D02*
X148641000Y-96560000D01*
X148641000Y-98240000D02*
X148641000Y-99307000D01*
X148681000Y-95511000D02*
X148681000Y-96560000D01*
X148681000Y-98240000D02*
X148681000Y-99289000D01*
X148721000Y-95530000D02*
X148721000Y-96560000D01*
X148721000Y-98240000D02*
X148721000Y-99270000D01*
X148761000Y-95549000D02*
X148761000Y-96560000D01*
X148761000Y-98240000D02*
X148761000Y-99251000D01*
X148801000Y-95570000D02*
X148801000Y-96560000D01*
X148801000Y-98240000D02*
X148801000Y-99230000D01*
X148841000Y-95592000D02*
X148841000Y-96560000D01*
X148841000Y-98240000D02*
X148841000Y-99208000D01*
X148881000Y-95615000D02*
X148881000Y-96560000D01*
X148881000Y-98240000D02*
X148881000Y-99185000D01*
X148921000Y-95640000D02*
X148921000Y-96560000D01*
X148921000Y-98240000D02*
X148921000Y-99160000D01*
X148961000Y-95665000D02*
X148961000Y-96560000D01*
X148961000Y-98240000D02*
X148961000Y-99135000D01*
X149001000Y-95692000D02*
X149001000Y-96560000D01*
X149001000Y-98240000D02*
X149001000Y-99108000D01*
X149041000Y-95720000D02*
X149041000Y-96560000D01*
X149041000Y-98240000D02*
X149041000Y-99080000D01*
X149081000Y-95750000D02*
X149081000Y-96560000D01*
X149081000Y-98240000D02*
X149081000Y-99050000D01*
X149121000Y-95781000D02*
X149121000Y-96560000D01*
X149121000Y-98240000D02*
X149121000Y-99019000D01*
X149161000Y-95813000D02*
X149161000Y-96560000D01*
X149161000Y-98240000D02*
X149161000Y-98987000D01*
X149201000Y-95848000D02*
X149201000Y-96560000D01*
X149201000Y-98240000D02*
X149201000Y-98952000D01*
X149241000Y-95884000D02*
X149241000Y-96560000D01*
X149241000Y-98240000D02*
X149241000Y-98916000D01*
X149281000Y-95922000D02*
X149281000Y-96560000D01*
X149281000Y-98240000D02*
X149281000Y-98878000D01*
X149321000Y-95962000D02*
X149321000Y-96560000D01*
X149321000Y-98240000D02*
X149321000Y-98838000D01*
X149361000Y-96004000D02*
X149361000Y-96560000D01*
X149361000Y-98240000D02*
X149361000Y-98796000D01*
X149401000Y-96049000D02*
X149401000Y-96560000D01*
X149401000Y-98240000D02*
X149401000Y-98751000D01*
X149441000Y-96096000D02*
X149441000Y-96560000D01*
X149441000Y-98240000D02*
X149441000Y-98704000D01*
X149481000Y-96146000D02*
X149481000Y-96560000D01*
X149481000Y-98240000D02*
X149481000Y-98654000D01*
X149521000Y-96200000D02*
X149521000Y-96560000D01*
X149521000Y-98240000D02*
X149521000Y-98600000D01*
X149561000Y-96258000D02*
X149561000Y-96560000D01*
X149561000Y-98240000D02*
X149561000Y-98542000D01*
X149601000Y-96320000D02*
X149601000Y-96560000D01*
X149601000Y-98240000D02*
X149601000Y-98480000D01*
X149641000Y-96387000D02*
X149641000Y-98413000D01*
X149681000Y-96460000D02*
X149681000Y-98340000D01*
X149721000Y-96541000D02*
X149721000Y-98259000D01*
X149761000Y-96632000D02*
X149761000Y-98168000D01*
X149801000Y-96736000D02*
X149801000Y-98064000D01*
X149841000Y-96863000D02*
X149841000Y-97937000D01*
X149881000Y-97030000D02*
X149881000Y-97770000D01*
X149920000Y-97400000D02*
G75*
G02*
X145680000Y-97400000I-2120000J0D01*
G01*
X145680000Y-97400000D02*
G75*
G02*
X149920000Y-97400000I2120000J0D01*
G01*
%TO.C,C9*%
X140230199Y-96005000D02*
X140630199Y-96005000D01*
X140430199Y-95805000D02*
X140430199Y-96205000D01*
X142500000Y-95120000D02*
X142500000Y-99280000D01*
X142540000Y-95120000D02*
X142540000Y-99280000D01*
X142580000Y-95121000D02*
X142580000Y-99279000D01*
X142620000Y-95123000D02*
X142620000Y-99277000D01*
X142660000Y-95126000D02*
X142660000Y-99274000D01*
X142700000Y-95129000D02*
X142700000Y-96360000D01*
X142700000Y-98040000D02*
X142700000Y-99271000D01*
X142740000Y-95133000D02*
X142740000Y-96360000D01*
X142740000Y-98040000D02*
X142740000Y-99267000D01*
X142780000Y-95138000D02*
X142780000Y-96360000D01*
X142780000Y-98040000D02*
X142780000Y-99262000D01*
X142820000Y-95144000D02*
X142820000Y-96360000D01*
X142820000Y-98040000D02*
X142820000Y-99256000D01*
X142860000Y-95150000D02*
X142860000Y-96360000D01*
X142860000Y-98040000D02*
X142860000Y-99250000D01*
X142900000Y-95158000D02*
X142900000Y-96360000D01*
X142900000Y-98040000D02*
X142900000Y-99242000D01*
X142940000Y-95166000D02*
X142940000Y-96360000D01*
X142940000Y-98040000D02*
X142940000Y-99234000D01*
X142980000Y-95175000D02*
X142980000Y-96360000D01*
X142980000Y-98040000D02*
X142980000Y-99225000D01*
X143020000Y-95184000D02*
X143020000Y-96360000D01*
X143020000Y-98040000D02*
X143020000Y-99216000D01*
X143060000Y-95195000D02*
X143060000Y-96360000D01*
X143060000Y-98040000D02*
X143060000Y-99205000D01*
X143100000Y-95206000D02*
X143100000Y-96360000D01*
X143100000Y-98040000D02*
X143100000Y-99194000D01*
X143140000Y-95218000D02*
X143140000Y-96360000D01*
X143140000Y-98040000D02*
X143140000Y-99182000D01*
X143180000Y-95232000D02*
X143180000Y-96360000D01*
X143180000Y-98040000D02*
X143180000Y-99168000D01*
X143221000Y-95246000D02*
X143221000Y-96360000D01*
X143221000Y-98040000D02*
X143221000Y-99154000D01*
X143261000Y-95260000D02*
X143261000Y-96360000D01*
X143261000Y-98040000D02*
X143261000Y-99140000D01*
X143301000Y-95276000D02*
X143301000Y-96360000D01*
X143301000Y-98040000D02*
X143301000Y-99124000D01*
X143341000Y-95293000D02*
X143341000Y-96360000D01*
X143341000Y-98040000D02*
X143341000Y-99107000D01*
X143381000Y-95311000D02*
X143381000Y-96360000D01*
X143381000Y-98040000D02*
X143381000Y-99089000D01*
X143421000Y-95330000D02*
X143421000Y-96360000D01*
X143421000Y-98040000D02*
X143421000Y-99070000D01*
X143461000Y-95349000D02*
X143461000Y-96360000D01*
X143461000Y-98040000D02*
X143461000Y-99051000D01*
X143501000Y-95370000D02*
X143501000Y-96360000D01*
X143501000Y-98040000D02*
X143501000Y-99030000D01*
X143541000Y-95392000D02*
X143541000Y-96360000D01*
X143541000Y-98040000D02*
X143541000Y-99008000D01*
X143581000Y-95415000D02*
X143581000Y-96360000D01*
X143581000Y-98040000D02*
X143581000Y-98985000D01*
X143621000Y-95440000D02*
X143621000Y-96360000D01*
X143621000Y-98040000D02*
X143621000Y-98960000D01*
X143661000Y-95465000D02*
X143661000Y-96360000D01*
X143661000Y-98040000D02*
X143661000Y-98935000D01*
X143701000Y-95492000D02*
X143701000Y-96360000D01*
X143701000Y-98040000D02*
X143701000Y-98908000D01*
X143741000Y-95520000D02*
X143741000Y-96360000D01*
X143741000Y-98040000D02*
X143741000Y-98880000D01*
X143781000Y-95550000D02*
X143781000Y-96360000D01*
X143781000Y-98040000D02*
X143781000Y-98850000D01*
X143821000Y-95581000D02*
X143821000Y-96360000D01*
X143821000Y-98040000D02*
X143821000Y-98819000D01*
X143861000Y-95613000D02*
X143861000Y-96360000D01*
X143861000Y-98040000D02*
X143861000Y-98787000D01*
X143901000Y-95648000D02*
X143901000Y-96360000D01*
X143901000Y-98040000D02*
X143901000Y-98752000D01*
X143941000Y-95684000D02*
X143941000Y-96360000D01*
X143941000Y-98040000D02*
X143941000Y-98716000D01*
X143981000Y-95722000D02*
X143981000Y-96360000D01*
X143981000Y-98040000D02*
X143981000Y-98678000D01*
X144021000Y-95762000D02*
X144021000Y-96360000D01*
X144021000Y-98040000D02*
X144021000Y-98638000D01*
X144061000Y-95804000D02*
X144061000Y-96360000D01*
X144061000Y-98040000D02*
X144061000Y-98596000D01*
X144101000Y-95849000D02*
X144101000Y-96360000D01*
X144101000Y-98040000D02*
X144101000Y-98551000D01*
X144141000Y-95896000D02*
X144141000Y-96360000D01*
X144141000Y-98040000D02*
X144141000Y-98504000D01*
X144181000Y-95946000D02*
X144181000Y-96360000D01*
X144181000Y-98040000D02*
X144181000Y-98454000D01*
X144221000Y-96000000D02*
X144221000Y-96360000D01*
X144221000Y-98040000D02*
X144221000Y-98400000D01*
X144261000Y-96058000D02*
X144261000Y-96360000D01*
X144261000Y-98040000D02*
X144261000Y-98342000D01*
X144301000Y-96120000D02*
X144301000Y-96360000D01*
X144301000Y-98040000D02*
X144301000Y-98280000D01*
X144341000Y-96187000D02*
X144341000Y-98213000D01*
X144381000Y-96260000D02*
X144381000Y-98140000D01*
X144421000Y-96341000D02*
X144421000Y-98059000D01*
X144461000Y-96432000D02*
X144461000Y-97968000D01*
X144501000Y-96536000D02*
X144501000Y-97864000D01*
X144541000Y-96663000D02*
X144541000Y-97737000D01*
X144581000Y-96830000D02*
X144581000Y-97570000D01*
X144620000Y-97200000D02*
G75*
G02*
X140380000Y-97200000I-2120000J0D01*
G01*
X140380000Y-97200000D02*
G75*
G02*
X144620000Y-97200000I2120000J0D01*
G01*
%TO.C,C7*%
X66930199Y-89405000D02*
X67330199Y-89405000D01*
X67130199Y-89205000D02*
X67130199Y-89605000D01*
X69200000Y-88520000D02*
X69200000Y-92680000D01*
X69240000Y-88520000D02*
X69240000Y-92680000D01*
X69280000Y-88521000D02*
X69280000Y-92679000D01*
X69320000Y-88523000D02*
X69320000Y-92677000D01*
X69360000Y-88526000D02*
X69360000Y-92674000D01*
X69400000Y-88529000D02*
X69400000Y-89760000D01*
X69400000Y-91440000D02*
X69400000Y-92671000D01*
X69440000Y-88533000D02*
X69440000Y-89760000D01*
X69440000Y-91440000D02*
X69440000Y-92667000D01*
X69480000Y-88538000D02*
X69480000Y-89760000D01*
X69480000Y-91440000D02*
X69480000Y-92662000D01*
X69520000Y-88544000D02*
X69520000Y-89760000D01*
X69520000Y-91440000D02*
X69520000Y-92656000D01*
X69560000Y-88550000D02*
X69560000Y-89760000D01*
X69560000Y-91440000D02*
X69560000Y-92650000D01*
X69600000Y-88558000D02*
X69600000Y-89760000D01*
X69600000Y-91440000D02*
X69600000Y-92642000D01*
X69640000Y-88566000D02*
X69640000Y-89760000D01*
X69640000Y-91440000D02*
X69640000Y-92634000D01*
X69680000Y-88575000D02*
X69680000Y-89760000D01*
X69680000Y-91440000D02*
X69680000Y-92625000D01*
X69720000Y-88584000D02*
X69720000Y-89760000D01*
X69720000Y-91440000D02*
X69720000Y-92616000D01*
X69760000Y-88595000D02*
X69760000Y-89760000D01*
X69760000Y-91440000D02*
X69760000Y-92605000D01*
X69800000Y-88606000D02*
X69800000Y-89760000D01*
X69800000Y-91440000D02*
X69800000Y-92594000D01*
X69840000Y-88618000D02*
X69840000Y-89760000D01*
X69840000Y-91440000D02*
X69840000Y-92582000D01*
X69880000Y-88632000D02*
X69880000Y-89760000D01*
X69880000Y-91440000D02*
X69880000Y-92568000D01*
X69921000Y-88646000D02*
X69921000Y-89760000D01*
X69921000Y-91440000D02*
X69921000Y-92554000D01*
X69961000Y-88660000D02*
X69961000Y-89760000D01*
X69961000Y-91440000D02*
X69961000Y-92540000D01*
X70001000Y-88676000D02*
X70001000Y-89760000D01*
X70001000Y-91440000D02*
X70001000Y-92524000D01*
X70041000Y-88693000D02*
X70041000Y-89760000D01*
X70041000Y-91440000D02*
X70041000Y-92507000D01*
X70081000Y-88711000D02*
X70081000Y-89760000D01*
X70081000Y-91440000D02*
X70081000Y-92489000D01*
X70121000Y-88730000D02*
X70121000Y-89760000D01*
X70121000Y-91440000D02*
X70121000Y-92470000D01*
X70161000Y-88749000D02*
X70161000Y-89760000D01*
X70161000Y-91440000D02*
X70161000Y-92451000D01*
X70201000Y-88770000D02*
X70201000Y-89760000D01*
X70201000Y-91440000D02*
X70201000Y-92430000D01*
X70241000Y-88792000D02*
X70241000Y-89760000D01*
X70241000Y-91440000D02*
X70241000Y-92408000D01*
X70281000Y-88815000D02*
X70281000Y-89760000D01*
X70281000Y-91440000D02*
X70281000Y-92385000D01*
X70321000Y-88840000D02*
X70321000Y-89760000D01*
X70321000Y-91440000D02*
X70321000Y-92360000D01*
X70361000Y-88865000D02*
X70361000Y-89760000D01*
X70361000Y-91440000D02*
X70361000Y-92335000D01*
X70401000Y-88892000D02*
X70401000Y-89760000D01*
X70401000Y-91440000D02*
X70401000Y-92308000D01*
X70441000Y-88920000D02*
X70441000Y-89760000D01*
X70441000Y-91440000D02*
X70441000Y-92280000D01*
X70481000Y-88950000D02*
X70481000Y-89760000D01*
X70481000Y-91440000D02*
X70481000Y-92250000D01*
X70521000Y-88981000D02*
X70521000Y-89760000D01*
X70521000Y-91440000D02*
X70521000Y-92219000D01*
X70561000Y-89013000D02*
X70561000Y-89760000D01*
X70561000Y-91440000D02*
X70561000Y-92187000D01*
X70601000Y-89048000D02*
X70601000Y-89760000D01*
X70601000Y-91440000D02*
X70601000Y-92152000D01*
X70641000Y-89084000D02*
X70641000Y-89760000D01*
X70641000Y-91440000D02*
X70641000Y-92116000D01*
X70681000Y-89122000D02*
X70681000Y-89760000D01*
X70681000Y-91440000D02*
X70681000Y-92078000D01*
X70721000Y-89162000D02*
X70721000Y-89760000D01*
X70721000Y-91440000D02*
X70721000Y-92038000D01*
X70761000Y-89204000D02*
X70761000Y-89760000D01*
X70761000Y-91440000D02*
X70761000Y-91996000D01*
X70801000Y-89249000D02*
X70801000Y-89760000D01*
X70801000Y-91440000D02*
X70801000Y-91951000D01*
X70841000Y-89296000D02*
X70841000Y-89760000D01*
X70841000Y-91440000D02*
X70841000Y-91904000D01*
X70881000Y-89346000D02*
X70881000Y-89760000D01*
X70881000Y-91440000D02*
X70881000Y-91854000D01*
X70921000Y-89400000D02*
X70921000Y-89760000D01*
X70921000Y-91440000D02*
X70921000Y-91800000D01*
X70961000Y-89458000D02*
X70961000Y-89760000D01*
X70961000Y-91440000D02*
X70961000Y-91742000D01*
X71001000Y-89520000D02*
X71001000Y-89760000D01*
X71001000Y-91440000D02*
X71001000Y-91680000D01*
X71041000Y-89587000D02*
X71041000Y-91613000D01*
X71081000Y-89660000D02*
X71081000Y-91540000D01*
X71121000Y-89741000D02*
X71121000Y-91459000D01*
X71161000Y-89832000D02*
X71161000Y-91368000D01*
X71201000Y-89936000D02*
X71201000Y-91264000D01*
X71241000Y-90063000D02*
X71241000Y-91137000D01*
X71281000Y-90230000D02*
X71281000Y-90970000D01*
X71320000Y-90600000D02*
G75*
G02*
X67080000Y-90600000I-2120000J0D01*
G01*
X67080000Y-90600000D02*
G75*
G02*
X71320000Y-90600000I2120000J0D01*
G01*
%TO.C,D1*%
X130390000Y-50320000D02*
X130390000Y-50001000D01*
X130390000Y-52799000D02*
X130390000Y-52480000D01*
X126086442Y-50319931D02*
G75*
G02*
X130390000Y-50001251I2243558J-1080069D01*
G01*
X126646706Y-50319943D02*
G75*
G02*
X130013330Y-50320000I1683294J-1080057D01*
G01*
X130013330Y-52480000D02*
G75*
G02*
X126646706Y-52480057I-1683330J1080000D01*
G01*
X130390000Y-52798749D02*
G75*
G02*
X126086443Y-52480069I-2060000J1398749D01*
G01*
%TO.C,C14*%
X66930000Y-78755000D02*
X66930000Y-78130000D01*
X66930000Y-80970000D02*
X66930000Y-80345000D01*
X70970000Y-78130000D02*
X66930000Y-78130000D01*
X70970000Y-78755000D02*
X70970000Y-78130000D01*
X70970000Y-80970000D02*
X66930000Y-80970000D01*
X70970000Y-80970000D02*
X70970000Y-80345000D01*
%TO.C,C2*%
X116230000Y-71580000D02*
X116230000Y-72205000D01*
X116230000Y-71580000D02*
X120270000Y-71580000D01*
X116230000Y-73795000D02*
X116230000Y-74420000D01*
X116230000Y-74420000D02*
X120270000Y-74420000D01*
X120270000Y-71580000D02*
X120270000Y-72205000D01*
X120270000Y-73795000D02*
X120270000Y-74420000D01*
%TO.C,C11*%
X66930000Y-82905000D02*
X66930000Y-82280000D01*
X66930000Y-85120000D02*
X66930000Y-84495000D01*
X70970000Y-82280000D02*
X66930000Y-82280000D01*
X70970000Y-82905000D02*
X70970000Y-82280000D01*
X70970000Y-85120000D02*
X66930000Y-85120000D01*
X70970000Y-85120000D02*
X70970000Y-84495000D01*
%TO.C,C15*%
X111519000Y-51170000D02*
X111519000Y-50430000D01*
X111559000Y-51337000D02*
X111559000Y-50263000D01*
X111599000Y-51464000D02*
X111599000Y-50136000D01*
X111639000Y-51568000D02*
X111639000Y-50032000D01*
X111679000Y-51659000D02*
X111679000Y-49941000D01*
X111719000Y-51740000D02*
X111719000Y-49860000D01*
X111759000Y-51813000D02*
X111759000Y-49787000D01*
X111799000Y-49960000D02*
X111799000Y-49720000D01*
X111799000Y-51880000D02*
X111799000Y-51640000D01*
X111839000Y-49960000D02*
X111839000Y-49658000D01*
X111839000Y-51942000D02*
X111839000Y-51640000D01*
X111879000Y-49960000D02*
X111879000Y-49600000D01*
X111879000Y-52000000D02*
X111879000Y-51640000D01*
X111919000Y-49960000D02*
X111919000Y-49546000D01*
X111919000Y-52054000D02*
X111919000Y-51640000D01*
X111959000Y-49960000D02*
X111959000Y-49496000D01*
X111959000Y-52104000D02*
X111959000Y-51640000D01*
X111999000Y-49960000D02*
X111999000Y-49449000D01*
X111999000Y-52151000D02*
X111999000Y-51640000D01*
X112039000Y-49960000D02*
X112039000Y-49404000D01*
X112039000Y-52196000D02*
X112039000Y-51640000D01*
X112079000Y-49960000D02*
X112079000Y-49362000D01*
X112079000Y-52238000D02*
X112079000Y-51640000D01*
X112119000Y-49960000D02*
X112119000Y-49322000D01*
X112119000Y-52278000D02*
X112119000Y-51640000D01*
X112159000Y-49960000D02*
X112159000Y-49284000D01*
X112159000Y-52316000D02*
X112159000Y-51640000D01*
X112199000Y-49960000D02*
X112199000Y-49248000D01*
X112199000Y-52352000D02*
X112199000Y-51640000D01*
X112239000Y-49960000D02*
X112239000Y-49213000D01*
X112239000Y-52387000D02*
X112239000Y-51640000D01*
X112279000Y-49960000D02*
X112279000Y-49181000D01*
X112279000Y-52419000D02*
X112279000Y-51640000D01*
X112319000Y-49960000D02*
X112319000Y-49150000D01*
X112319000Y-52450000D02*
X112319000Y-51640000D01*
X112359000Y-49960000D02*
X112359000Y-49120000D01*
X112359000Y-52480000D02*
X112359000Y-51640000D01*
X112399000Y-49960000D02*
X112399000Y-49092000D01*
X112399000Y-52508000D02*
X112399000Y-51640000D01*
X112439000Y-49960000D02*
X112439000Y-49065000D01*
X112439000Y-52535000D02*
X112439000Y-51640000D01*
X112479000Y-49960000D02*
X112479000Y-49040000D01*
X112479000Y-52560000D02*
X112479000Y-51640000D01*
X112519000Y-49960000D02*
X112519000Y-49015000D01*
X112519000Y-52585000D02*
X112519000Y-51640000D01*
X112559000Y-49960000D02*
X112559000Y-48992000D01*
X112559000Y-52608000D02*
X112559000Y-51640000D01*
X112599000Y-49960000D02*
X112599000Y-48970000D01*
X112599000Y-52630000D02*
X112599000Y-51640000D01*
X112639000Y-49960000D02*
X112639000Y-48949000D01*
X112639000Y-52651000D02*
X112639000Y-51640000D01*
X112679000Y-49960000D02*
X112679000Y-48930000D01*
X112679000Y-52670000D02*
X112679000Y-51640000D01*
X112719000Y-49960000D02*
X112719000Y-48911000D01*
X112719000Y-52689000D02*
X112719000Y-51640000D01*
X112759000Y-49960000D02*
X112759000Y-48893000D01*
X112759000Y-52707000D02*
X112759000Y-51640000D01*
X112799000Y-49960000D02*
X112799000Y-48876000D01*
X112799000Y-52724000D02*
X112799000Y-51640000D01*
X112839000Y-49960000D02*
X112839000Y-48860000D01*
X112839000Y-52740000D02*
X112839000Y-51640000D01*
X112879000Y-49960000D02*
X112879000Y-48846000D01*
X112879000Y-52754000D02*
X112879000Y-51640000D01*
X112920000Y-49960000D02*
X112920000Y-48832000D01*
X112920000Y-52768000D02*
X112920000Y-51640000D01*
X112960000Y-49960000D02*
X112960000Y-48818000D01*
X112960000Y-52782000D02*
X112960000Y-51640000D01*
X113000000Y-49960000D02*
X113000000Y-48806000D01*
X113000000Y-52794000D02*
X113000000Y-51640000D01*
X113040000Y-49960000D02*
X113040000Y-48795000D01*
X113040000Y-52805000D02*
X113040000Y-51640000D01*
X113080000Y-49960000D02*
X113080000Y-48784000D01*
X113080000Y-52816000D02*
X113080000Y-51640000D01*
X113120000Y-49960000D02*
X113120000Y-48775000D01*
X113120000Y-52825000D02*
X113120000Y-51640000D01*
X113160000Y-49960000D02*
X113160000Y-48766000D01*
X113160000Y-52834000D02*
X113160000Y-51640000D01*
X113200000Y-49960000D02*
X113200000Y-48758000D01*
X113200000Y-52842000D02*
X113200000Y-51640000D01*
X113240000Y-49960000D02*
X113240000Y-48750000D01*
X113240000Y-52850000D02*
X113240000Y-51640000D01*
X113280000Y-49960000D02*
X113280000Y-48744000D01*
X113280000Y-52856000D02*
X113280000Y-51640000D01*
X113320000Y-49960000D02*
X113320000Y-48738000D01*
X113320000Y-52862000D02*
X113320000Y-51640000D01*
X113360000Y-49960000D02*
X113360000Y-48733000D01*
X113360000Y-52867000D02*
X113360000Y-51640000D01*
X113400000Y-49960000D02*
X113400000Y-48729000D01*
X113400000Y-52871000D02*
X113400000Y-51640000D01*
X113440000Y-52874000D02*
X113440000Y-48726000D01*
X113480000Y-52877000D02*
X113480000Y-48723000D01*
X113520000Y-52879000D02*
X113520000Y-48721000D01*
X113560000Y-52880000D02*
X113560000Y-48720000D01*
X113600000Y-52880000D02*
X113600000Y-48720000D01*
X115669801Y-52195000D02*
X115669801Y-51795000D01*
X115869801Y-51995000D02*
X115469801Y-51995000D01*
X115720000Y-50800000D02*
G75*
G02*
X111480000Y-50800000I-2120000J0D01*
G01*
X111480000Y-50800000D02*
G75*
G02*
X115720000Y-50800000I2120000J0D01*
G01*
%TO.C,U5*%
X100790000Y-50360000D02*
X100790000Y-52010000D01*
X100790000Y-54010000D02*
X100790000Y-55660000D01*
X100790000Y-55660000D02*
X111070000Y-55660000D01*
X111070000Y-50360000D02*
X100790000Y-50360000D01*
X111070000Y-55660000D02*
X111070000Y-50360000D01*
X100790000Y-52010000D02*
G75*
G02*
X100790000Y-54010000I0J-1000000D01*
G01*
%TO.C,R1*%
X131811046Y-50904564D02*
X131811046Y-57444564D01*
X131811046Y-57444564D02*
X134551046Y-57444564D01*
X133181046Y-50134564D02*
X133181046Y-50904564D01*
X133181046Y-58214564D02*
X133181046Y-57444564D01*
X134551046Y-50904564D02*
X131811046Y-50904564D01*
X134551046Y-57444564D02*
X134551046Y-50904564D01*
%TO.C,R11*%
X93030000Y-52010000D02*
X93030000Y-58550000D01*
X93030000Y-58550000D02*
X95770000Y-58550000D01*
X94400000Y-51240000D02*
X94400000Y-52010000D01*
X94400000Y-59320000D02*
X94400000Y-58550000D01*
X95770000Y-52010000D02*
X93030000Y-52010000D01*
X95770000Y-58550000D02*
X95770000Y-52010000D01*
%TO.C,R3*%
X138311046Y-50904564D02*
X138311046Y-57444564D01*
X138311046Y-57444564D02*
X141051046Y-57444564D01*
X139681046Y-50134564D02*
X139681046Y-50904564D01*
X139681046Y-58214564D02*
X139681046Y-57444564D01*
X141051046Y-50904564D02*
X138311046Y-50904564D01*
X141051046Y-57444564D02*
X141051046Y-50904564D01*
%TO.C,UNIT_2*%
X115400000Y-75600000D02*
X115400000Y-93640000D01*
X115400000Y-93640000D02*
X118070000Y-93640000D01*
X118070000Y-78270000D02*
X118070000Y-75600000D01*
X118070000Y-78270000D02*
X156170000Y-78270000D01*
X118070000Y-90970000D02*
X118070000Y-93640000D01*
X120610000Y-90970000D02*
X118070000Y-90970000D01*
X120610000Y-90970000D02*
X120610000Y-93640000D01*
X120610000Y-90970000D02*
X156170000Y-90970000D01*
X120610000Y-93640000D02*
X158840000Y-93640000D01*
X150960000Y-80680000D02*
X161380000Y-80680000D01*
X150960000Y-88560000D02*
X150960000Y-80680000D01*
X156170000Y-78270000D02*
X156170000Y-75600000D01*
X156170000Y-90970000D02*
X156170000Y-93640000D01*
X158840000Y-75600000D02*
X115400000Y-75600000D01*
X158840000Y-75600000D02*
X158840000Y-80680000D01*
X158840000Y-93640000D02*
X158840000Y-88560000D01*
X161380000Y-80680000D02*
X161380000Y-88560000D01*
X161380000Y-88560000D02*
X150960000Y-88560000D01*
%TO.C,C1*%
X115730199Y-68005000D02*
X116130199Y-68005000D01*
X115930199Y-67805000D02*
X115930199Y-68205000D01*
X118000000Y-67120000D02*
X118000000Y-71280000D01*
X118040000Y-67120000D02*
X118040000Y-71280000D01*
X118080000Y-67121000D02*
X118080000Y-71279000D01*
X118120000Y-67123000D02*
X118120000Y-71277000D01*
X118160000Y-67126000D02*
X118160000Y-71274000D01*
X118200000Y-67129000D02*
X118200000Y-68360000D01*
X118200000Y-70040000D02*
X118200000Y-71271000D01*
X118240000Y-67133000D02*
X118240000Y-68360000D01*
X118240000Y-70040000D02*
X118240000Y-71267000D01*
X118280000Y-67138000D02*
X118280000Y-68360000D01*
X118280000Y-70040000D02*
X118280000Y-71262000D01*
X118320000Y-67144000D02*
X118320000Y-68360000D01*
X118320000Y-70040000D02*
X118320000Y-71256000D01*
X118360000Y-67150000D02*
X118360000Y-68360000D01*
X118360000Y-70040000D02*
X118360000Y-71250000D01*
X118400000Y-67158000D02*
X118400000Y-68360000D01*
X118400000Y-70040000D02*
X118400000Y-71242000D01*
X118440000Y-67166000D02*
X118440000Y-68360000D01*
X118440000Y-70040000D02*
X118440000Y-71234000D01*
X118480000Y-67175000D02*
X118480000Y-68360000D01*
X118480000Y-70040000D02*
X118480000Y-71225000D01*
X118520000Y-67184000D02*
X118520000Y-68360000D01*
X118520000Y-70040000D02*
X118520000Y-71216000D01*
X118560000Y-67195000D02*
X118560000Y-68360000D01*
X118560000Y-70040000D02*
X118560000Y-71205000D01*
X118600000Y-67206000D02*
X118600000Y-68360000D01*
X118600000Y-70040000D02*
X118600000Y-71194000D01*
X118640000Y-67218000D02*
X118640000Y-68360000D01*
X118640000Y-70040000D02*
X118640000Y-71182000D01*
X118680000Y-67232000D02*
X118680000Y-68360000D01*
X118680000Y-70040000D02*
X118680000Y-71168000D01*
X118721000Y-67246000D02*
X118721000Y-68360000D01*
X118721000Y-70040000D02*
X118721000Y-71154000D01*
X118761000Y-67260000D02*
X118761000Y-68360000D01*
X118761000Y-70040000D02*
X118761000Y-71140000D01*
X118801000Y-67276000D02*
X118801000Y-68360000D01*
X118801000Y-70040000D02*
X118801000Y-71124000D01*
X118841000Y-67293000D02*
X118841000Y-68360000D01*
X118841000Y-70040000D02*
X118841000Y-71107000D01*
X118881000Y-67311000D02*
X118881000Y-68360000D01*
X118881000Y-70040000D02*
X118881000Y-71089000D01*
X118921000Y-67330000D02*
X118921000Y-68360000D01*
X118921000Y-70040000D02*
X118921000Y-71070000D01*
X118961000Y-67349000D02*
X118961000Y-68360000D01*
X118961000Y-70040000D02*
X118961000Y-71051000D01*
X119001000Y-67370000D02*
X119001000Y-68360000D01*
X119001000Y-70040000D02*
X119001000Y-71030000D01*
X119041000Y-67392000D02*
X119041000Y-68360000D01*
X119041000Y-70040000D02*
X119041000Y-71008000D01*
X119081000Y-67415000D02*
X119081000Y-68360000D01*
X119081000Y-70040000D02*
X119081000Y-70985000D01*
X119121000Y-67440000D02*
X119121000Y-68360000D01*
X119121000Y-70040000D02*
X119121000Y-70960000D01*
X119161000Y-67465000D02*
X119161000Y-68360000D01*
X119161000Y-70040000D02*
X119161000Y-70935000D01*
X119201000Y-67492000D02*
X119201000Y-68360000D01*
X119201000Y-70040000D02*
X119201000Y-70908000D01*
X119241000Y-67520000D02*
X119241000Y-68360000D01*
X119241000Y-70040000D02*
X119241000Y-70880000D01*
X119281000Y-67550000D02*
X119281000Y-68360000D01*
X119281000Y-70040000D02*
X119281000Y-70850000D01*
X119321000Y-67581000D02*
X119321000Y-68360000D01*
X119321000Y-70040000D02*
X119321000Y-70819000D01*
X119361000Y-67613000D02*
X119361000Y-68360000D01*
X119361000Y-70040000D02*
X119361000Y-70787000D01*
X119401000Y-67648000D02*
X119401000Y-68360000D01*
X119401000Y-70040000D02*
X119401000Y-70752000D01*
X119441000Y-67684000D02*
X119441000Y-68360000D01*
X119441000Y-70040000D02*
X119441000Y-70716000D01*
X119481000Y-67722000D02*
X119481000Y-68360000D01*
X119481000Y-70040000D02*
X119481000Y-70678000D01*
X119521000Y-67762000D02*
X119521000Y-68360000D01*
X119521000Y-70040000D02*
X119521000Y-70638000D01*
X119561000Y-67804000D02*
X119561000Y-68360000D01*
X119561000Y-70040000D02*
X119561000Y-70596000D01*
X119601000Y-67849000D02*
X119601000Y-68360000D01*
X119601000Y-70040000D02*
X119601000Y-70551000D01*
X119641000Y-67896000D02*
X119641000Y-68360000D01*
X119641000Y-70040000D02*
X119641000Y-70504000D01*
X119681000Y-67946000D02*
X119681000Y-68360000D01*
X119681000Y-70040000D02*
X119681000Y-70454000D01*
X119721000Y-68000000D02*
X119721000Y-68360000D01*
X119721000Y-70040000D02*
X119721000Y-70400000D01*
X119761000Y-68058000D02*
X119761000Y-68360000D01*
X119761000Y-70040000D02*
X119761000Y-70342000D01*
X119801000Y-68120000D02*
X119801000Y-68360000D01*
X119801000Y-70040000D02*
X119801000Y-70280000D01*
X119841000Y-68187000D02*
X119841000Y-70213000D01*
X119881000Y-68260000D02*
X119881000Y-70140000D01*
X119921000Y-68341000D02*
X119921000Y-70059000D01*
X119961000Y-68432000D02*
X119961000Y-69968000D01*
X120001000Y-68536000D02*
X120001000Y-69864000D01*
X120041000Y-68663000D02*
X120041000Y-69737000D01*
X120081000Y-68830000D02*
X120081000Y-69570000D01*
X120120000Y-69200000D02*
G75*
G02*
X115880000Y-69200000I-2120000J0D01*
G01*
X115880000Y-69200000D02*
G75*
G02*
X120120000Y-69200000I2120000J0D01*
G01*
%TO.C,R13*%
X117840000Y-56400000D02*
X118610000Y-56400000D01*
X118610000Y-55030000D02*
X118610000Y-57770000D01*
X118610000Y-57770000D02*
X125150000Y-57770000D01*
X125150000Y-55030000D02*
X118610000Y-55030000D01*
X125150000Y-57770000D02*
X125150000Y-55030000D01*
X125920000Y-56400000D02*
X125150000Y-56400000D01*
%TO.C,R7*%
X138925988Y-69238035D02*
X139695988Y-69238035D01*
X139695988Y-67868035D02*
X139695988Y-70608035D01*
X139695988Y-70608035D02*
X146235988Y-70608035D01*
X146235988Y-67868035D02*
X139695988Y-67868035D01*
X146235988Y-70608035D02*
X146235988Y-67868035D01*
X147005988Y-69238035D02*
X146235988Y-69238035D01*
%TO.C,R12*%
X76280000Y-52010000D02*
X76280000Y-58550000D01*
X76280000Y-58550000D02*
X79020000Y-58550000D01*
X77650000Y-51240000D02*
X77650000Y-52010000D01*
X77650000Y-59320000D02*
X77650000Y-58550000D01*
X79020000Y-52010000D02*
X76280000Y-52010000D01*
X79020000Y-58550000D02*
X79020000Y-52010000D01*
%TO.C,C3*%
X132625988Y-62468035D02*
X132625988Y-66508035D01*
X133250988Y-62468035D02*
X132625988Y-62468035D01*
X133250988Y-66508035D02*
X132625988Y-66508035D01*
X135465988Y-62468035D02*
X134840988Y-62468035D01*
X135465988Y-62468035D02*
X135465988Y-66508035D01*
X135465988Y-66508035D02*
X134840988Y-66508035D01*
%TO.C,R2*%
X134811046Y-50904564D02*
X134811046Y-57444564D01*
X134811046Y-57444564D02*
X137551046Y-57444564D01*
X136181046Y-50134564D02*
X136181046Y-50904564D01*
X136181046Y-58214564D02*
X136181046Y-57444564D01*
X137551046Y-50904564D02*
X134811046Y-50904564D01*
X137551046Y-57444564D02*
X137551046Y-50904564D01*
%TO.C,R5*%
X158630000Y-58850000D02*
X158630000Y-65390000D01*
X158630000Y-65390000D02*
X161370000Y-65390000D01*
X160000000Y-58080000D02*
X160000000Y-58850000D01*
X160000000Y-66160000D02*
X160000000Y-65390000D01*
X161370000Y-58850000D02*
X158630000Y-58850000D01*
X161370000Y-65390000D02*
X161370000Y-58850000D01*
%TO.C,R20*%
X88430000Y-52010000D02*
X88430000Y-58550000D01*
X88430000Y-58550000D02*
X91170000Y-58550000D01*
X89800000Y-51240000D02*
X89800000Y-52010000D01*
X89800000Y-59320000D02*
X89800000Y-58550000D01*
X91170000Y-52010000D02*
X88430000Y-52010000D01*
X91170000Y-58550000D02*
X91170000Y-52010000D01*
%TO.C,C6*%
X149130199Y-70543035D02*
X149530199Y-70543035D01*
X149330199Y-70343035D02*
X149330199Y-70743035D01*
X151400000Y-69658035D02*
X151400000Y-73818035D01*
X151440000Y-69658035D02*
X151440000Y-73818035D01*
X151480000Y-69659035D02*
X151480000Y-73817035D01*
X151520000Y-69661035D02*
X151520000Y-73815035D01*
X151560000Y-69664035D02*
X151560000Y-73812035D01*
X151600000Y-69667035D02*
X151600000Y-70898035D01*
X151600000Y-72578035D02*
X151600000Y-73809035D01*
X151640000Y-69671035D02*
X151640000Y-70898035D01*
X151640000Y-72578035D02*
X151640000Y-73805035D01*
X151680000Y-69676035D02*
X151680000Y-70898035D01*
X151680000Y-72578035D02*
X151680000Y-73800035D01*
X151720000Y-69682035D02*
X151720000Y-70898035D01*
X151720000Y-72578035D02*
X151720000Y-73794035D01*
X151760000Y-69688035D02*
X151760000Y-70898035D01*
X151760000Y-72578035D02*
X151760000Y-73788035D01*
X151800000Y-69696035D02*
X151800000Y-70898035D01*
X151800000Y-72578035D02*
X151800000Y-73780035D01*
X151840000Y-69704035D02*
X151840000Y-70898035D01*
X151840000Y-72578035D02*
X151840000Y-73772035D01*
X151880000Y-69713035D02*
X151880000Y-70898035D01*
X151880000Y-72578035D02*
X151880000Y-73763035D01*
X151920000Y-69722035D02*
X151920000Y-70898035D01*
X151920000Y-72578035D02*
X151920000Y-73754035D01*
X151960000Y-69733035D02*
X151960000Y-70898035D01*
X151960000Y-72578035D02*
X151960000Y-73743035D01*
X152000000Y-69744035D02*
X152000000Y-70898035D01*
X152000000Y-72578035D02*
X152000000Y-73732035D01*
X152040000Y-69756035D02*
X152040000Y-70898035D01*
X152040000Y-72578035D02*
X152040000Y-73720035D01*
X152080000Y-69770035D02*
X152080000Y-70898035D01*
X152080000Y-72578035D02*
X152080000Y-73706035D01*
X152121000Y-69784035D02*
X152121000Y-70898035D01*
X152121000Y-72578035D02*
X152121000Y-73692035D01*
X152161000Y-69798035D02*
X152161000Y-70898035D01*
X152161000Y-72578035D02*
X152161000Y-73678035D01*
X152201000Y-69814035D02*
X152201000Y-70898035D01*
X152201000Y-72578035D02*
X152201000Y-73662035D01*
X152241000Y-69831035D02*
X152241000Y-70898035D01*
X152241000Y-72578035D02*
X152241000Y-73645035D01*
X152281000Y-69849035D02*
X152281000Y-70898035D01*
X152281000Y-72578035D02*
X152281000Y-73627035D01*
X152321000Y-69868035D02*
X152321000Y-70898035D01*
X152321000Y-72578035D02*
X152321000Y-73608035D01*
X152361000Y-69887035D02*
X152361000Y-70898035D01*
X152361000Y-72578035D02*
X152361000Y-73589035D01*
X152401000Y-69908035D02*
X152401000Y-70898035D01*
X152401000Y-72578035D02*
X152401000Y-73568035D01*
X152441000Y-69930035D02*
X152441000Y-70898035D01*
X152441000Y-72578035D02*
X152441000Y-73546035D01*
X152481000Y-69953035D02*
X152481000Y-70898035D01*
X152481000Y-72578035D02*
X152481000Y-73523035D01*
X152521000Y-69978035D02*
X152521000Y-70898035D01*
X152521000Y-72578035D02*
X152521000Y-73498035D01*
X152561000Y-70003035D02*
X152561000Y-70898035D01*
X152561000Y-72578035D02*
X152561000Y-73473035D01*
X152601000Y-70030035D02*
X152601000Y-70898035D01*
X152601000Y-72578035D02*
X152601000Y-73446035D01*
X152641000Y-70058035D02*
X152641000Y-70898035D01*
X152641000Y-72578035D02*
X152641000Y-73418035D01*
X152681000Y-70088035D02*
X152681000Y-70898035D01*
X152681000Y-72578035D02*
X152681000Y-73388035D01*
X152721000Y-70119035D02*
X152721000Y-70898035D01*
X152721000Y-72578035D02*
X152721000Y-73357035D01*
X152761000Y-70151035D02*
X152761000Y-70898035D01*
X152761000Y-72578035D02*
X152761000Y-73325035D01*
X152801000Y-70186035D02*
X152801000Y-70898035D01*
X152801000Y-72578035D02*
X152801000Y-73290035D01*
X152841000Y-70222035D02*
X152841000Y-70898035D01*
X152841000Y-72578035D02*
X152841000Y-73254035D01*
X152881000Y-70260035D02*
X152881000Y-70898035D01*
X152881000Y-72578035D02*
X152881000Y-73216035D01*
X152921000Y-70300035D02*
X152921000Y-70898035D01*
X152921000Y-72578035D02*
X152921000Y-73176035D01*
X152961000Y-70342035D02*
X152961000Y-70898035D01*
X152961000Y-72578035D02*
X152961000Y-73134035D01*
X153001000Y-70387035D02*
X153001000Y-70898035D01*
X153001000Y-72578035D02*
X153001000Y-73089035D01*
X153041000Y-70434035D02*
X153041000Y-70898035D01*
X153041000Y-72578035D02*
X153041000Y-73042035D01*
X153081000Y-70484035D02*
X153081000Y-70898035D01*
X153081000Y-72578035D02*
X153081000Y-72992035D01*
X153121000Y-70538035D02*
X153121000Y-70898035D01*
X153121000Y-72578035D02*
X153121000Y-72938035D01*
X153161000Y-70596035D02*
X153161000Y-70898035D01*
X153161000Y-72578035D02*
X153161000Y-72880035D01*
X153201000Y-70658035D02*
X153201000Y-70898035D01*
X153201000Y-72578035D02*
X153201000Y-72818035D01*
X153241000Y-70725035D02*
X153241000Y-72751035D01*
X153281000Y-70798035D02*
X153281000Y-72678035D01*
X153321000Y-70879035D02*
X153321000Y-72597035D01*
X153361000Y-70970035D02*
X153361000Y-72506035D01*
X153401000Y-71074035D02*
X153401000Y-72402035D01*
X153441000Y-71201035D02*
X153441000Y-72275035D01*
X153481000Y-71368035D02*
X153481000Y-72108035D01*
X153520000Y-71738035D02*
G75*
G02*
X149280000Y-71738035I-2120000J0D01*
G01*
X149280000Y-71738035D02*
G75*
G02*
X153520000Y-71738035I2120000J0D01*
G01*
%TO.C,C17*%
X116580000Y-48930000D02*
X117205000Y-48930000D01*
X116580000Y-52970000D02*
X116580000Y-48930000D01*
X116580000Y-52970000D02*
X117205000Y-52970000D01*
X118795000Y-48930000D02*
X119420000Y-48930000D01*
X118795000Y-52970000D02*
X119420000Y-52970000D01*
X119420000Y-52970000D02*
X119420000Y-48930000D01*
%TO.C,R6*%
X155630000Y-57610000D02*
X155630000Y-64150000D01*
X155630000Y-64150000D02*
X158370000Y-64150000D01*
X157000000Y-56840000D02*
X157000000Y-57610000D01*
X157000000Y-64920000D02*
X157000000Y-64150000D01*
X158370000Y-57610000D02*
X155630000Y-57610000D01*
X158370000Y-64150000D02*
X158370000Y-57610000D01*
%TO.C,R15*%
X118080000Y-59800000D02*
X118850000Y-59800000D01*
X118850000Y-58430000D02*
X118850000Y-61170000D01*
X118850000Y-61170000D02*
X125390000Y-61170000D01*
X125390000Y-58430000D02*
X118850000Y-58430000D01*
X125390000Y-61170000D02*
X125390000Y-58430000D01*
X126160000Y-59800000D02*
X125390000Y-59800000D01*
%TO.C,C4*%
X148295988Y-63318035D02*
X148295988Y-63943035D01*
X148295988Y-63318035D02*
X152335988Y-63318035D01*
X148295988Y-65533035D02*
X148295988Y-66158035D01*
X148295988Y-66158035D02*
X152335988Y-66158035D01*
X152335988Y-63318035D02*
X152335988Y-63943035D01*
X152335988Y-65533035D02*
X152335988Y-66158035D01*
%TO.C,D4*%
X96530000Y-53580000D02*
X96660000Y-53580000D01*
X96530000Y-58000000D02*
X99470000Y-58000000D01*
X96530000Y-58120000D02*
X99470000Y-58120000D01*
X96530000Y-58240000D02*
X99470000Y-58240000D01*
X96530000Y-59020000D02*
X96530000Y-53580000D01*
X96660000Y-59020000D02*
X96530000Y-59020000D01*
X99340000Y-59020000D02*
X99470000Y-59020000D01*
X99470000Y-53580000D02*
X99340000Y-53580000D01*
X99470000Y-59020000D02*
X99470000Y-53580000D01*
%TO.C,U2*%
X147405988Y-50608035D02*
X147405988Y-60888035D01*
X147405988Y-60888035D02*
X152705988Y-60888035D01*
X149055988Y-50608035D02*
X147405988Y-50608035D01*
X152705988Y-50608035D02*
X151055988Y-50608035D01*
X152705988Y-60888035D02*
X152705988Y-50608035D01*
X151055988Y-50608035D02*
G75*
G02*
X149055988Y-50608035I-1000000J0D01*
G01*
%TO.C,C5*%
X156160000Y-71690000D02*
X153978000Y-71690000D01*
X156160000Y-71730000D02*
X153982000Y-71730000D01*
X156160000Y-71770000D02*
X153985000Y-71770000D01*
X156160000Y-71810000D02*
X153989000Y-71810000D01*
X156160000Y-71850000D02*
X153994000Y-71850000D01*
X156160000Y-71890000D02*
X153999000Y-71890000D01*
X156160000Y-71930000D02*
X154005000Y-71930000D01*
X156160000Y-71970000D02*
X154011000Y-71970000D01*
X156160000Y-72010000D02*
X154018000Y-72010000D01*
X156160000Y-72050000D02*
X154025000Y-72050000D01*
X156160000Y-72090000D02*
X154033000Y-72090000D01*
X156160000Y-72130000D02*
X154041000Y-72130000D01*
X156160000Y-72171000D02*
X154050000Y-72171000D01*
X156160000Y-72211000D02*
X154059000Y-72211000D01*
X156160000Y-72251000D02*
X154069000Y-72251000D01*
X156160000Y-72291000D02*
X154079000Y-72291000D01*
X156160000Y-72331000D02*
X154090000Y-72331000D01*
X156160000Y-72371000D02*
X154102000Y-72371000D01*
X156160000Y-72411000D02*
X154114000Y-72411000D01*
X156160000Y-72451000D02*
X154126000Y-72451000D01*
X156160000Y-72491000D02*
X154139000Y-72491000D01*
X156160000Y-72531000D02*
X154153000Y-72531000D01*
X156160000Y-72571000D02*
X154167000Y-72571000D01*
X156160000Y-72611000D02*
X154182000Y-72611000D01*
X156160000Y-72651000D02*
X154198000Y-72651000D01*
X156160000Y-72691000D02*
X154214000Y-72691000D01*
X156160000Y-72731000D02*
X154230000Y-72731000D01*
X156160000Y-72771000D02*
X154248000Y-72771000D01*
X156160000Y-72811000D02*
X154266000Y-72811000D01*
X156160000Y-72851000D02*
X154284000Y-72851000D01*
X156160000Y-72891000D02*
X154304000Y-72891000D01*
X156160000Y-72931000D02*
X154324000Y-72931000D01*
X156160000Y-72971000D02*
X154344000Y-72971000D01*
X156160000Y-73011000D02*
X154366000Y-73011000D01*
X156160000Y-73051000D02*
X154388000Y-73051000D01*
X156160000Y-73091000D02*
X154410000Y-73091000D01*
X156160000Y-73131000D02*
X154434000Y-73131000D01*
X156160000Y-73171000D02*
X154458000Y-73171000D01*
X156160000Y-73211000D02*
X154484000Y-73211000D01*
X156160000Y-73251000D02*
X154510000Y-73251000D01*
X156160000Y-73291000D02*
X154536000Y-73291000D01*
X156160000Y-73331000D02*
X154564000Y-73331000D01*
X156160000Y-73371000D02*
X154593000Y-73371000D01*
X156160000Y-73411000D02*
X154622000Y-73411000D01*
X156160000Y-73451000D02*
X154652000Y-73451000D01*
X156160000Y-73491000D02*
X154684000Y-73491000D01*
X156160000Y-73531000D02*
X154716000Y-73531000D01*
X156160000Y-73571000D02*
X154750000Y-73571000D01*
X156160000Y-73611000D02*
X154784000Y-73611000D01*
X156160000Y-73651000D02*
X154820000Y-73651000D01*
X156160000Y-73691000D02*
X154857000Y-73691000D01*
X156160000Y-73731000D02*
X154895000Y-73731000D01*
X157602000Y-74691000D02*
X156798000Y-74691000D01*
X157833000Y-74651000D02*
X156567000Y-74651000D01*
X158002000Y-74611000D02*
X156398000Y-74611000D01*
X158140000Y-74571000D02*
X156260000Y-74571000D01*
X158259000Y-74531000D02*
X156141000Y-74531000D01*
X158365000Y-74491000D02*
X156035000Y-74491000D01*
X158462000Y-74451000D02*
X155938000Y-74451000D01*
X158550000Y-74411000D02*
X155850000Y-74411000D01*
X158632000Y-74371000D02*
X155768000Y-74371000D01*
X158709000Y-74331000D02*
X155691000Y-74331000D01*
X158781000Y-74291000D02*
X155619000Y-74291000D01*
X158850000Y-74251000D02*
X155550000Y-74251000D01*
X158914000Y-74211000D02*
X155486000Y-74211000D01*
X158976000Y-74171000D02*
X155424000Y-74171000D01*
X159034000Y-74131000D02*
X155366000Y-74131000D01*
X159039000Y-67949759D02*
X159039000Y-68579759D01*
X159090000Y-74091000D02*
X155310000Y-74091000D01*
X159144000Y-74051000D02*
X155256000Y-74051000D01*
X159195000Y-74011000D02*
X155205000Y-74011000D01*
X159244000Y-73971000D02*
X155156000Y-73971000D01*
X159292000Y-73931000D02*
X155108000Y-73931000D01*
X159337000Y-73891000D02*
X155063000Y-73891000D01*
X159354000Y-68264759D02*
X158724000Y-68264759D01*
X159382000Y-73851000D02*
X155018000Y-73851000D01*
X159424000Y-73811000D02*
X154976000Y-73811000D01*
X159465000Y-73771000D02*
X154935000Y-73771000D01*
X159505000Y-73731000D02*
X158240000Y-73731000D01*
X159543000Y-73691000D02*
X158240000Y-73691000D01*
X159580000Y-73651000D02*
X158240000Y-73651000D01*
X159616000Y-73611000D02*
X158240000Y-73611000D01*
X159650000Y-73571000D02*
X158240000Y-73571000D01*
X159684000Y-73531000D02*
X158240000Y-73531000D01*
X159716000Y-73491000D02*
X158240000Y-73491000D01*
X159748000Y-73451000D02*
X158240000Y-73451000D01*
X159778000Y-73411000D02*
X158240000Y-73411000D01*
X159807000Y-73371000D02*
X158240000Y-73371000D01*
X159836000Y-73331000D02*
X158240000Y-73331000D01*
X159864000Y-73291000D02*
X158240000Y-73291000D01*
X159890000Y-73251000D02*
X158240000Y-73251000D01*
X159916000Y-73211000D02*
X158240000Y-73211000D01*
X159942000Y-73171000D02*
X158240000Y-73171000D01*
X159966000Y-73131000D02*
X158240000Y-73131000D01*
X159990000Y-73091000D02*
X158240000Y-73091000D01*
X160012000Y-73051000D02*
X158240000Y-73051000D01*
X160034000Y-73011000D02*
X158240000Y-73011000D01*
X160056000Y-72971000D02*
X158240000Y-72971000D01*
X160076000Y-72931000D02*
X158240000Y-72931000D01*
X160096000Y-72891000D02*
X158240000Y-72891000D01*
X160116000Y-72851000D02*
X158240000Y-72851000D01*
X160134000Y-72811000D02*
X158240000Y-72811000D01*
X160152000Y-72771000D02*
X158240000Y-72771000D01*
X160170000Y-72731000D02*
X158240000Y-72731000D01*
X160186000Y-72691000D02*
X158240000Y-72691000D01*
X160202000Y-72651000D02*
X158240000Y-72651000D01*
X160218000Y-72611000D02*
X158240000Y-72611000D01*
X160233000Y-72571000D02*
X158240000Y-72571000D01*
X160247000Y-72531000D02*
X158240000Y-72531000D01*
X160261000Y-72491000D02*
X158240000Y-72491000D01*
X160274000Y-72451000D02*
X158240000Y-72451000D01*
X160286000Y-72411000D02*
X158240000Y-72411000D01*
X160298000Y-72371000D02*
X158240000Y-72371000D01*
X160310000Y-72331000D02*
X158240000Y-72331000D01*
X160321000Y-72291000D02*
X158240000Y-72291000D01*
X160331000Y-72251000D02*
X158240000Y-72251000D01*
X160341000Y-72211000D02*
X158240000Y-72211000D01*
X160350000Y-72171000D02*
X158240000Y-72171000D01*
X160359000Y-72130000D02*
X158240000Y-72130000D01*
X160367000Y-72090000D02*
X158240000Y-72090000D01*
X160375000Y-72050000D02*
X158240000Y-72050000D01*
X160382000Y-72010000D02*
X158240000Y-72010000D01*
X160389000Y-71970000D02*
X158240000Y-71970000D01*
X160395000Y-71930000D02*
X158240000Y-71930000D01*
X160401000Y-71890000D02*
X158240000Y-71890000D01*
X160406000Y-71850000D02*
X158240000Y-71850000D01*
X160411000Y-71810000D02*
X158240000Y-71810000D01*
X160415000Y-71770000D02*
X158240000Y-71770000D01*
X160418000Y-71730000D02*
X158240000Y-71730000D01*
X160422000Y-71690000D02*
X158240000Y-71690000D01*
X160424000Y-71650000D02*
X153976000Y-71650000D01*
X160427000Y-71610000D02*
X153973000Y-71610000D01*
X160428000Y-71570000D02*
X153972000Y-71570000D01*
X160430000Y-71450000D02*
X153970000Y-71450000D01*
X160430000Y-71490000D02*
X153970000Y-71490000D01*
X160430000Y-71530000D02*
X153970000Y-71530000D01*
X160470000Y-71450000D02*
G75*
G02*
X153930000Y-71450000I-3270000J0D01*
G01*
X153930000Y-71450000D02*
G75*
G02*
X160470000Y-71450000I3270000J0D01*
G01*
%TO.C,D2*%
X138325988Y-63268035D02*
X143765988Y-63268035D01*
X138325988Y-63398035D02*
X138325988Y-63268035D01*
X138325988Y-66078035D02*
X138325988Y-66208035D01*
X138325988Y-66208035D02*
X143765988Y-66208035D01*
X139105988Y-63268035D02*
X139105988Y-66208035D01*
X139225988Y-63268035D02*
X139225988Y-66208035D01*
X139345988Y-63268035D02*
X139345988Y-66208035D01*
X143765988Y-63268035D02*
X143765988Y-63398035D01*
X143765988Y-66208035D02*
X143765988Y-66078035D01*
%TO.C,R9*%
X139005988Y-73738035D02*
X139775988Y-73738035D01*
X139775988Y-72368035D02*
X139775988Y-75108035D01*
X139775988Y-75108035D02*
X146315988Y-75108035D01*
X146315988Y-72368035D02*
X139775988Y-72368035D01*
X146315988Y-75108035D02*
X146315988Y-72368035D01*
X147085988Y-73738035D02*
X146315988Y-73738035D01*
%TO.C,C16*%
X111157600Y-58805000D02*
X111557600Y-58805000D01*
X111357600Y-58605000D02*
X111357600Y-59005000D01*
X113427401Y-57920000D02*
X113427401Y-62080000D01*
X113467401Y-57920000D02*
X113467401Y-62080000D01*
X113507401Y-57921000D02*
X113507401Y-62079000D01*
X113547401Y-57923000D02*
X113547401Y-62077000D01*
X113587401Y-57926000D02*
X113587401Y-62074000D01*
X113627401Y-57929000D02*
X113627401Y-59160000D01*
X113627401Y-60840000D02*
X113627401Y-62071000D01*
X113667401Y-57933000D02*
X113667401Y-59160000D01*
X113667401Y-60840000D02*
X113667401Y-62067000D01*
X113707401Y-57938000D02*
X113707401Y-59160000D01*
X113707401Y-60840000D02*
X113707401Y-62062000D01*
X113747401Y-57944000D02*
X113747401Y-59160000D01*
X113747401Y-60840000D02*
X113747401Y-62056000D01*
X113787401Y-57950000D02*
X113787401Y-59160000D01*
X113787401Y-60840000D02*
X113787401Y-62050000D01*
X113827401Y-57958000D02*
X113827401Y-59160000D01*
X113827401Y-60840000D02*
X113827401Y-62042000D01*
X113867401Y-57966000D02*
X113867401Y-59160000D01*
X113867401Y-60840000D02*
X113867401Y-62034000D01*
X113907401Y-57975000D02*
X113907401Y-59160000D01*
X113907401Y-60840000D02*
X113907401Y-62025000D01*
X113947401Y-57984000D02*
X113947401Y-59160000D01*
X113947401Y-60840000D02*
X113947401Y-62016000D01*
X113987401Y-57995000D02*
X113987401Y-59160000D01*
X113987401Y-60840000D02*
X113987401Y-62005000D01*
X114027401Y-58006000D02*
X114027401Y-59160000D01*
X114027401Y-60840000D02*
X114027401Y-61994000D01*
X114067401Y-58018000D02*
X114067401Y-59160000D01*
X114067401Y-60840000D02*
X114067401Y-61982000D01*
X114107401Y-58032000D02*
X114107401Y-59160000D01*
X114107401Y-60840000D02*
X114107401Y-61968000D01*
X114148401Y-58046000D02*
X114148401Y-59160000D01*
X114148401Y-60840000D02*
X114148401Y-61954000D01*
X114188401Y-58060000D02*
X114188401Y-59160000D01*
X114188401Y-60840000D02*
X114188401Y-61940000D01*
X114228401Y-58076000D02*
X114228401Y-59160000D01*
X114228401Y-60840000D02*
X114228401Y-61924000D01*
X114268401Y-58093000D02*
X114268401Y-59160000D01*
X114268401Y-60840000D02*
X114268401Y-61907000D01*
X114308401Y-58111000D02*
X114308401Y-59160000D01*
X114308401Y-60840000D02*
X114308401Y-61889000D01*
X114348401Y-58130000D02*
X114348401Y-59160000D01*
X114348401Y-60840000D02*
X114348401Y-61870000D01*
X114388401Y-58149000D02*
X114388401Y-59160000D01*
X114388401Y-60840000D02*
X114388401Y-61851000D01*
X114428401Y-58170000D02*
X114428401Y-59160000D01*
X114428401Y-60840000D02*
X114428401Y-61830000D01*
X114468401Y-58192000D02*
X114468401Y-59160000D01*
X114468401Y-60840000D02*
X114468401Y-61808000D01*
X114508401Y-58215000D02*
X114508401Y-59160000D01*
X114508401Y-60840000D02*
X114508401Y-61785000D01*
X114548401Y-58240000D02*
X114548401Y-59160000D01*
X114548401Y-60840000D02*
X114548401Y-61760000D01*
X114588401Y-58265000D02*
X114588401Y-59160000D01*
X114588401Y-60840000D02*
X114588401Y-61735000D01*
X114628401Y-58292000D02*
X114628401Y-59160000D01*
X114628401Y-60840000D02*
X114628401Y-61708000D01*
X114668401Y-58320000D02*
X114668401Y-59160000D01*
X114668401Y-60840000D02*
X114668401Y-61680000D01*
X114708401Y-58350000D02*
X114708401Y-59160000D01*
X114708401Y-60840000D02*
X114708401Y-61650000D01*
X114748401Y-58381000D02*
X114748401Y-59160000D01*
X114748401Y-60840000D02*
X114748401Y-61619000D01*
X114788401Y-58413000D02*
X114788401Y-59160000D01*
X114788401Y-60840000D02*
X114788401Y-61587000D01*
X114828401Y-58448000D02*
X114828401Y-59160000D01*
X114828401Y-60840000D02*
X114828401Y-61552000D01*
X114868401Y-58484000D02*
X114868401Y-59160000D01*
X114868401Y-60840000D02*
X114868401Y-61516000D01*
X114908401Y-58522000D02*
X114908401Y-59160000D01*
X114908401Y-60840000D02*
X114908401Y-61478000D01*
X114948401Y-58562000D02*
X114948401Y-59160000D01*
X114948401Y-60840000D02*
X114948401Y-61438000D01*
X114988401Y-58604000D02*
X114988401Y-59160000D01*
X114988401Y-60840000D02*
X114988401Y-61396000D01*
X115028401Y-58649000D02*
X115028401Y-59160000D01*
X115028401Y-60840000D02*
X115028401Y-61351000D01*
X115068401Y-58696000D02*
X115068401Y-59160000D01*
X115068401Y-60840000D02*
X115068401Y-61304000D01*
X115108401Y-58746000D02*
X115108401Y-59160000D01*
X115108401Y-60840000D02*
X115108401Y-61254000D01*
X115148401Y-58800000D02*
X115148401Y-59160000D01*
X115148401Y-60840000D02*
X115148401Y-61200000D01*
X115188401Y-58858000D02*
X115188401Y-59160000D01*
X115188401Y-60840000D02*
X115188401Y-61142000D01*
X115228401Y-58920000D02*
X115228401Y-59160000D01*
X115228401Y-60840000D02*
X115228401Y-61080000D01*
X115268401Y-58987000D02*
X115268401Y-61013000D01*
X115308401Y-59060000D02*
X115308401Y-60940000D01*
X115348401Y-59141000D02*
X115348401Y-60859000D01*
X115388401Y-59232000D02*
X115388401Y-60768000D01*
X115428401Y-59336000D02*
X115428401Y-60664000D01*
X115468401Y-59463000D02*
X115468401Y-60537000D01*
X115508401Y-59630000D02*
X115508401Y-60370000D01*
X115547401Y-60000000D02*
G75*
G02*
X111307401Y-60000000I-2120000J0D01*
G01*
X111307401Y-60000000D02*
G75*
G02*
X115547401Y-60000000I2120000J0D01*
G01*
%TO.C,U1*%
X126270000Y-68330000D02*
X126270000Y-63190000D01*
X128930000Y-63190000D02*
X126270000Y-63190000D01*
X128930000Y-68330000D02*
X126270000Y-68330000D01*
X128930000Y-68330000D02*
X128930000Y-63190000D01*
X128930000Y-69600000D02*
X128930000Y-70930000D01*
X128930000Y-70930000D02*
X127600000Y-70930000D01*
%TO.C,R4*%
X141811046Y-50904564D02*
X141811046Y-57444564D01*
X141811046Y-57444564D02*
X144551046Y-57444564D01*
X143181046Y-50134564D02*
X143181046Y-50904564D01*
X143181046Y-58214564D02*
X143181046Y-57444564D01*
X144551046Y-50904564D02*
X141811046Y-50904564D01*
X144551046Y-57444564D02*
X144551046Y-50904564D01*
%TO.C,U3*%
X109390000Y-62870000D02*
X109390000Y-65530000D01*
X114530000Y-62870000D02*
X109390000Y-62870000D01*
X114530000Y-62870000D02*
X114530000Y-65530000D01*
X114530000Y-65530000D02*
X109390000Y-65530000D01*
X115800000Y-62870000D02*
X117130000Y-62870000D01*
X117130000Y-62870000D02*
X117130000Y-64200000D01*
%TO.C,C8*%
X129964988Y-72108035D02*
X129964988Y-71368035D01*
X130004988Y-72275035D02*
X130004988Y-71201035D01*
X130044988Y-72402035D02*
X130044988Y-71074035D01*
X130084988Y-72506035D02*
X130084988Y-70970035D01*
X130124988Y-72597035D02*
X130124988Y-70879035D01*
X130164988Y-72678035D02*
X130164988Y-70798035D01*
X130204988Y-72751035D02*
X130204988Y-70725035D01*
X130244988Y-70898035D02*
X130244988Y-70658035D01*
X130244988Y-72818035D02*
X130244988Y-72578035D01*
X130284988Y-70898035D02*
X130284988Y-70596035D01*
X130284988Y-72880035D02*
X130284988Y-72578035D01*
X130324988Y-70898035D02*
X130324988Y-70538035D01*
X130324988Y-72938035D02*
X130324988Y-72578035D01*
X130364988Y-70898035D02*
X130364988Y-70484035D01*
X130364988Y-72992035D02*
X130364988Y-72578035D01*
X130404988Y-70898035D02*
X130404988Y-70434035D01*
X130404988Y-73042035D02*
X130404988Y-72578035D01*
X130444988Y-70898035D02*
X130444988Y-70387035D01*
X130444988Y-73089035D02*
X130444988Y-72578035D01*
X130484988Y-70898035D02*
X130484988Y-70342035D01*
X130484988Y-73134035D02*
X130484988Y-72578035D01*
X130524988Y-70898035D02*
X130524988Y-70300035D01*
X130524988Y-73176035D02*
X130524988Y-72578035D01*
X130564988Y-70898035D02*
X130564988Y-70260035D01*
X130564988Y-73216035D02*
X130564988Y-72578035D01*
X130604988Y-70898035D02*
X130604988Y-70222035D01*
X130604988Y-73254035D02*
X130604988Y-72578035D01*
X130644988Y-70898035D02*
X130644988Y-70186035D01*
X130644988Y-73290035D02*
X130644988Y-72578035D01*
X130684988Y-70898035D02*
X130684988Y-70151035D01*
X130684988Y-73325035D02*
X130684988Y-72578035D01*
X130724988Y-70898035D02*
X130724988Y-70119035D01*
X130724988Y-73357035D02*
X130724988Y-72578035D01*
X130764988Y-70898035D02*
X130764988Y-70088035D01*
X130764988Y-73388035D02*
X130764988Y-72578035D01*
X130804988Y-70898035D02*
X130804988Y-70058035D01*
X130804988Y-73418035D02*
X130804988Y-72578035D01*
X130844988Y-70898035D02*
X130844988Y-70030035D01*
X130844988Y-73446035D02*
X130844988Y-72578035D01*
X130884988Y-70898035D02*
X130884988Y-70003035D01*
X130884988Y-73473035D02*
X130884988Y-72578035D01*
X130924988Y-70898035D02*
X130924988Y-69978035D01*
X130924988Y-73498035D02*
X130924988Y-72578035D01*
X130964988Y-70898035D02*
X130964988Y-69953035D01*
X130964988Y-73523035D02*
X130964988Y-72578035D01*
X131004988Y-70898035D02*
X131004988Y-69930035D01*
X131004988Y-73546035D02*
X131004988Y-72578035D01*
X131044988Y-70898035D02*
X131044988Y-69908035D01*
X131044988Y-73568035D02*
X131044988Y-72578035D01*
X131084988Y-70898035D02*
X131084988Y-69887035D01*
X131084988Y-73589035D02*
X131084988Y-72578035D01*
X131124988Y-70898035D02*
X131124988Y-69868035D01*
X131124988Y-73608035D02*
X131124988Y-72578035D01*
X131164988Y-70898035D02*
X131164988Y-69849035D01*
X131164988Y-73627035D02*
X131164988Y-72578035D01*
X131204988Y-70898035D02*
X131204988Y-69831035D01*
X131204988Y-73645035D02*
X131204988Y-72578035D01*
X131244988Y-70898035D02*
X131244988Y-69814035D01*
X131244988Y-73662035D02*
X131244988Y-72578035D01*
X131284988Y-70898035D02*
X131284988Y-69798035D01*
X131284988Y-73678035D02*
X131284988Y-72578035D01*
X131324988Y-70898035D02*
X131324988Y-69784035D01*
X131324988Y-73692035D02*
X131324988Y-72578035D01*
X131365988Y-70898035D02*
X131365988Y-69770035D01*
X131365988Y-73706035D02*
X131365988Y-72578035D01*
X131405988Y-70898035D02*
X131405988Y-69756035D01*
X131405988Y-73720035D02*
X131405988Y-72578035D01*
X131445988Y-70898035D02*
X131445988Y-69744035D01*
X131445988Y-73732035D02*
X131445988Y-72578035D01*
X131485988Y-70898035D02*
X131485988Y-69733035D01*
X131485988Y-73743035D02*
X131485988Y-72578035D01*
X131525988Y-70898035D02*
X131525988Y-69722035D01*
X131525988Y-73754035D02*
X131525988Y-72578035D01*
X131565988Y-70898035D02*
X131565988Y-69713035D01*
X131565988Y-73763035D02*
X131565988Y-72578035D01*
X131605988Y-70898035D02*
X131605988Y-69704035D01*
X131605988Y-73772035D02*
X131605988Y-72578035D01*
X131645988Y-70898035D02*
X131645988Y-69696035D01*
X131645988Y-73780035D02*
X131645988Y-72578035D01*
X131685988Y-70898035D02*
X131685988Y-69688035D01*
X131685988Y-73788035D02*
X131685988Y-72578035D01*
X131725988Y-70898035D02*
X131725988Y-69682035D01*
X131725988Y-73794035D02*
X131725988Y-72578035D01*
X131765988Y-70898035D02*
X131765988Y-69676035D01*
X131765988Y-73800035D02*
X131765988Y-72578035D01*
X131805988Y-70898035D02*
X131805988Y-69671035D01*
X131805988Y-73805035D02*
X131805988Y-72578035D01*
X131845988Y-70898035D02*
X131845988Y-69667035D01*
X131845988Y-73809035D02*
X131845988Y-72578035D01*
X131885988Y-73812035D02*
X131885988Y-69664035D01*
X131925988Y-73815035D02*
X131925988Y-69661035D01*
X131965988Y-73817035D02*
X131965988Y-69659035D01*
X132005988Y-73818035D02*
X132005988Y-69658035D01*
X132045988Y-73818035D02*
X132045988Y-69658035D01*
X134115789Y-73133035D02*
X134115789Y-72733035D01*
X134315789Y-72933035D02*
X133915789Y-72933035D01*
X134165988Y-71738035D02*
G75*
G02*
X129925988Y-71738035I-2120000J0D01*
G01*
X129925988Y-71738035D02*
G75*
G02*
X134165988Y-71738035I2120000J0D01*
G01*
%TO.C,C10*%
X68919000Y-64970000D02*
X68919000Y-64230000D01*
X68959000Y-65137000D02*
X68959000Y-64063000D01*
X68999000Y-65264000D02*
X68999000Y-63936000D01*
X69039000Y-65368000D02*
X69039000Y-63832000D01*
X69079000Y-65459000D02*
X69079000Y-63741000D01*
X69119000Y-65540000D02*
X69119000Y-63660000D01*
X69159000Y-65613000D02*
X69159000Y-63587000D01*
X69199000Y-63760000D02*
X69199000Y-63520000D01*
X69199000Y-65680000D02*
X69199000Y-65440000D01*
X69239000Y-63760000D02*
X69239000Y-63458000D01*
X69239000Y-65742000D02*
X69239000Y-65440000D01*
X69279000Y-63760000D02*
X69279000Y-63400000D01*
X69279000Y-65800000D02*
X69279000Y-65440000D01*
X69319000Y-63760000D02*
X69319000Y-63346000D01*
X69319000Y-65854000D02*
X69319000Y-65440000D01*
X69359000Y-63760000D02*
X69359000Y-63296000D01*
X69359000Y-65904000D02*
X69359000Y-65440000D01*
X69399000Y-63760000D02*
X69399000Y-63249000D01*
X69399000Y-65951000D02*
X69399000Y-65440000D01*
X69439000Y-63760000D02*
X69439000Y-63204000D01*
X69439000Y-65996000D02*
X69439000Y-65440000D01*
X69479000Y-63760000D02*
X69479000Y-63162000D01*
X69479000Y-66038000D02*
X69479000Y-65440000D01*
X69519000Y-63760000D02*
X69519000Y-63122000D01*
X69519000Y-66078000D02*
X69519000Y-65440000D01*
X69559000Y-63760000D02*
X69559000Y-63084000D01*
X69559000Y-66116000D02*
X69559000Y-65440000D01*
X69599000Y-63760000D02*
X69599000Y-63048000D01*
X69599000Y-66152000D02*
X69599000Y-65440000D01*
X69639000Y-63760000D02*
X69639000Y-63013000D01*
X69639000Y-66187000D02*
X69639000Y-65440000D01*
X69679000Y-63760000D02*
X69679000Y-62981000D01*
X69679000Y-66219000D02*
X69679000Y-65440000D01*
X69719000Y-63760000D02*
X69719000Y-62950000D01*
X69719000Y-66250000D02*
X69719000Y-65440000D01*
X69759000Y-63760000D02*
X69759000Y-62920000D01*
X69759000Y-66280000D02*
X69759000Y-65440000D01*
X69799000Y-63760000D02*
X69799000Y-62892000D01*
X69799000Y-66308000D02*
X69799000Y-65440000D01*
X69839000Y-63760000D02*
X69839000Y-62865000D01*
X69839000Y-66335000D02*
X69839000Y-65440000D01*
X69879000Y-63760000D02*
X69879000Y-62840000D01*
X69879000Y-66360000D02*
X69879000Y-65440000D01*
X69919000Y-63760000D02*
X69919000Y-62815000D01*
X69919000Y-66385000D02*
X69919000Y-65440000D01*
X69959000Y-63760000D02*
X69959000Y-62792000D01*
X69959000Y-66408000D02*
X69959000Y-65440000D01*
X69999000Y-63760000D02*
X69999000Y-62770000D01*
X69999000Y-66430000D02*
X69999000Y-65440000D01*
X70039000Y-63760000D02*
X70039000Y-62749000D01*
X70039000Y-66451000D02*
X70039000Y-65440000D01*
X70079000Y-63760000D02*
X70079000Y-62730000D01*
X70079000Y-66470000D02*
X70079000Y-65440000D01*
X70119000Y-63760000D02*
X70119000Y-62711000D01*
X70119000Y-66489000D02*
X70119000Y-65440000D01*
X70159000Y-63760000D02*
X70159000Y-62693000D01*
X70159000Y-66507000D02*
X70159000Y-65440000D01*
X70199000Y-63760000D02*
X70199000Y-62676000D01*
X70199000Y-66524000D02*
X70199000Y-65440000D01*
X70239000Y-63760000D02*
X70239000Y-62660000D01*
X70239000Y-66540000D02*
X70239000Y-65440000D01*
X70279000Y-63760000D02*
X70279000Y-62646000D01*
X70279000Y-66554000D02*
X70279000Y-65440000D01*
X70320000Y-63760000D02*
X70320000Y-62632000D01*
X70320000Y-66568000D02*
X70320000Y-65440000D01*
X70360000Y-63760000D02*
X70360000Y-62618000D01*
X70360000Y-66582000D02*
X70360000Y-65440000D01*
X70400000Y-63760000D02*
X70400000Y-62606000D01*
X70400000Y-66594000D02*
X70400000Y-65440000D01*
X70440000Y-63760000D02*
X70440000Y-62595000D01*
X70440000Y-66605000D02*
X70440000Y-65440000D01*
X70480000Y-63760000D02*
X70480000Y-62584000D01*
X70480000Y-66616000D02*
X70480000Y-65440000D01*
X70520000Y-63760000D02*
X70520000Y-62575000D01*
X70520000Y-66625000D02*
X70520000Y-65440000D01*
X70560000Y-63760000D02*
X70560000Y-62566000D01*
X70560000Y-66634000D02*
X70560000Y-65440000D01*
X70600000Y-63760000D02*
X70600000Y-62558000D01*
X70600000Y-66642000D02*
X70600000Y-65440000D01*
X70640000Y-63760000D02*
X70640000Y-62550000D01*
X70640000Y-66650000D02*
X70640000Y-65440000D01*
X70680000Y-63760000D02*
X70680000Y-62544000D01*
X70680000Y-66656000D02*
X70680000Y-65440000D01*
X70720000Y-63760000D02*
X70720000Y-62538000D01*
X70720000Y-66662000D02*
X70720000Y-65440000D01*
X70760000Y-63760000D02*
X70760000Y-62533000D01*
X70760000Y-66667000D02*
X70760000Y-65440000D01*
X70800000Y-63760000D02*
X70800000Y-62529000D01*
X70800000Y-66671000D02*
X70800000Y-65440000D01*
X70840000Y-66674000D02*
X70840000Y-62526000D01*
X70880000Y-66677000D02*
X70880000Y-62523000D01*
X70920000Y-66679000D02*
X70920000Y-62521000D01*
X70960000Y-66680000D02*
X70960000Y-62520000D01*
X71000000Y-66680000D02*
X71000000Y-62520000D01*
X73069801Y-65995000D02*
X73069801Y-65595000D01*
X73269801Y-65795000D02*
X72869801Y-65795000D01*
X73120000Y-64600000D02*
G75*
G02*
X68880000Y-64600000I-2120000J0D01*
G01*
X68880000Y-64600000D02*
G75*
G02*
X73120000Y-64600000I2120000J0D01*
G01*
%TO.C,C19*%
X65509000Y-74402000D02*
X65509000Y-73598000D01*
X65549000Y-74633000D02*
X65549000Y-73367000D01*
X65589000Y-74802000D02*
X65589000Y-73198000D01*
X65629000Y-74940000D02*
X65629000Y-73060000D01*
X65669000Y-75059000D02*
X65669000Y-72941000D01*
X65709000Y-75165000D02*
X65709000Y-72835000D01*
X65749000Y-75262000D02*
X65749000Y-72738000D01*
X65789000Y-75350000D02*
X65789000Y-72650000D01*
X65829000Y-75432000D02*
X65829000Y-72568000D01*
X65869000Y-75509000D02*
X65869000Y-72491000D01*
X65909000Y-75581000D02*
X65909000Y-72419000D01*
X65949000Y-75650000D02*
X65949000Y-72350000D01*
X65989000Y-75714000D02*
X65989000Y-72286000D01*
X66029000Y-75776000D02*
X66029000Y-72224000D01*
X66069000Y-75834000D02*
X66069000Y-72166000D01*
X66109000Y-75890000D02*
X66109000Y-72110000D01*
X66149000Y-75944000D02*
X66149000Y-72056000D01*
X66189000Y-75995000D02*
X66189000Y-72005000D01*
X66229000Y-76044000D02*
X66229000Y-71956000D01*
X66269000Y-76092000D02*
X66269000Y-71908000D01*
X66309000Y-76137000D02*
X66309000Y-71863000D01*
X66349000Y-76182000D02*
X66349000Y-71818000D01*
X66389000Y-76224000D02*
X66389000Y-71776000D01*
X66429000Y-76265000D02*
X66429000Y-71735000D01*
X66469000Y-72960000D02*
X66469000Y-71695000D01*
X66469000Y-76305000D02*
X66469000Y-75040000D01*
X66509000Y-72960000D02*
X66509000Y-71657000D01*
X66509000Y-76343000D02*
X66509000Y-75040000D01*
X66549000Y-72960000D02*
X66549000Y-71620000D01*
X66549000Y-76380000D02*
X66549000Y-75040000D01*
X66589000Y-72960000D02*
X66589000Y-71584000D01*
X66589000Y-76416000D02*
X66589000Y-75040000D01*
X66629000Y-72960000D02*
X66629000Y-71550000D01*
X66629000Y-76450000D02*
X66629000Y-75040000D01*
X66669000Y-72960000D02*
X66669000Y-71516000D01*
X66669000Y-76484000D02*
X66669000Y-75040000D01*
X66709000Y-72960000D02*
X66709000Y-71484000D01*
X66709000Y-76516000D02*
X66709000Y-75040000D01*
X66749000Y-72960000D02*
X66749000Y-71452000D01*
X66749000Y-76548000D02*
X66749000Y-75040000D01*
X66789000Y-72960000D02*
X66789000Y-71422000D01*
X66789000Y-76578000D02*
X66789000Y-75040000D01*
X66829000Y-72960000D02*
X66829000Y-71393000D01*
X66829000Y-76607000D02*
X66829000Y-75040000D01*
X66869000Y-72960000D02*
X66869000Y-71364000D01*
X66869000Y-76636000D02*
X66869000Y-75040000D01*
X66909000Y-72960000D02*
X66909000Y-71336000D01*
X66909000Y-76664000D02*
X66909000Y-75040000D01*
X66949000Y-72960000D02*
X66949000Y-71310000D01*
X66949000Y-76690000D02*
X66949000Y-75040000D01*
X66989000Y-72960000D02*
X66989000Y-71284000D01*
X66989000Y-76716000D02*
X66989000Y-75040000D01*
X67029000Y-72960000D02*
X67029000Y-71258000D01*
X67029000Y-76742000D02*
X67029000Y-75040000D01*
X67069000Y-72960000D02*
X67069000Y-71234000D01*
X67069000Y-76766000D02*
X67069000Y-75040000D01*
X67109000Y-72960000D02*
X67109000Y-71210000D01*
X67109000Y-76790000D02*
X67109000Y-75040000D01*
X67149000Y-72960000D02*
X67149000Y-71188000D01*
X67149000Y-76812000D02*
X67149000Y-75040000D01*
X67189000Y-72960000D02*
X67189000Y-71166000D01*
X67189000Y-76834000D02*
X67189000Y-75040000D01*
X67229000Y-72960000D02*
X67229000Y-71144000D01*
X67229000Y-76856000D02*
X67229000Y-75040000D01*
X67269000Y-72960000D02*
X67269000Y-71124000D01*
X67269000Y-76876000D02*
X67269000Y-75040000D01*
X67309000Y-72960000D02*
X67309000Y-71104000D01*
X67309000Y-76896000D02*
X67309000Y-75040000D01*
X67349000Y-72960000D02*
X67349000Y-71084000D01*
X67349000Y-76916000D02*
X67349000Y-75040000D01*
X67389000Y-72960000D02*
X67389000Y-71066000D01*
X67389000Y-76934000D02*
X67389000Y-75040000D01*
X67429000Y-72960000D02*
X67429000Y-71048000D01*
X67429000Y-76952000D02*
X67429000Y-75040000D01*
X67469000Y-72960000D02*
X67469000Y-71030000D01*
X67469000Y-76970000D02*
X67469000Y-75040000D01*
X67509000Y-72960000D02*
X67509000Y-71014000D01*
X67509000Y-76986000D02*
X67509000Y-75040000D01*
X67549000Y-72960000D02*
X67549000Y-70998000D01*
X67549000Y-77002000D02*
X67549000Y-75040000D01*
X67589000Y-72960000D02*
X67589000Y-70982000D01*
X67589000Y-77018000D02*
X67589000Y-75040000D01*
X67629000Y-72960000D02*
X67629000Y-70967000D01*
X67629000Y-77033000D02*
X67629000Y-75040000D01*
X67669000Y-72960000D02*
X67669000Y-70953000D01*
X67669000Y-77047000D02*
X67669000Y-75040000D01*
X67709000Y-72960000D02*
X67709000Y-70939000D01*
X67709000Y-77061000D02*
X67709000Y-75040000D01*
X67749000Y-72960000D02*
X67749000Y-70926000D01*
X67749000Y-77074000D02*
X67749000Y-75040000D01*
X67789000Y-72960000D02*
X67789000Y-70914000D01*
X67789000Y-77086000D02*
X67789000Y-75040000D01*
X67829000Y-72960000D02*
X67829000Y-70902000D01*
X67829000Y-77098000D02*
X67829000Y-75040000D01*
X67869000Y-72960000D02*
X67869000Y-70890000D01*
X67869000Y-77110000D02*
X67869000Y-75040000D01*
X67909000Y-72960000D02*
X67909000Y-70879000D01*
X67909000Y-77121000D02*
X67909000Y-75040000D01*
X67949000Y-72960000D02*
X67949000Y-70869000D01*
X67949000Y-77131000D02*
X67949000Y-75040000D01*
X67989000Y-72960000D02*
X67989000Y-70859000D01*
X67989000Y-77141000D02*
X67989000Y-75040000D01*
X68029000Y-72960000D02*
X68029000Y-70850000D01*
X68029000Y-77150000D02*
X68029000Y-75040000D01*
X68070000Y-72960000D02*
X68070000Y-70841000D01*
X68070000Y-77159000D02*
X68070000Y-75040000D01*
X68110000Y-72960000D02*
X68110000Y-70833000D01*
X68110000Y-77167000D02*
X68110000Y-75040000D01*
X68150000Y-72960000D02*
X68150000Y-70825000D01*
X68150000Y-77175000D02*
X68150000Y-75040000D01*
X68190000Y-72960000D02*
X68190000Y-70818000D01*
X68190000Y-77182000D02*
X68190000Y-75040000D01*
X68230000Y-72960000D02*
X68230000Y-70811000D01*
X68230000Y-77189000D02*
X68230000Y-75040000D01*
X68270000Y-72960000D02*
X68270000Y-70805000D01*
X68270000Y-77195000D02*
X68270000Y-75040000D01*
X68310000Y-72960000D02*
X68310000Y-70799000D01*
X68310000Y-77201000D02*
X68310000Y-75040000D01*
X68350000Y-72960000D02*
X68350000Y-70794000D01*
X68350000Y-77206000D02*
X68350000Y-75040000D01*
X68390000Y-72960000D02*
X68390000Y-70789000D01*
X68390000Y-77211000D02*
X68390000Y-75040000D01*
X68430000Y-72960000D02*
X68430000Y-70785000D01*
X68430000Y-77215000D02*
X68430000Y-75040000D01*
X68470000Y-72960000D02*
X68470000Y-70782000D01*
X68470000Y-77218000D02*
X68470000Y-75040000D01*
X68510000Y-72960000D02*
X68510000Y-70778000D01*
X68510000Y-77222000D02*
X68510000Y-75040000D01*
X68550000Y-77224000D02*
X68550000Y-70776000D01*
X68590000Y-77227000D02*
X68590000Y-70773000D01*
X68630000Y-77228000D02*
X68630000Y-70772000D01*
X68670000Y-77230000D02*
X68670000Y-70770000D01*
X68710000Y-77230000D02*
X68710000Y-70770000D01*
X68750000Y-77230000D02*
X68750000Y-70770000D01*
X71935241Y-76154000D02*
X71935241Y-75524000D01*
X72250241Y-75839000D02*
X71620241Y-75839000D01*
X72020000Y-74000000D02*
G75*
G02*
X65480000Y-74000000I-3270000J0D01*
G01*
X65480000Y-74000000D02*
G75*
G02*
X72020000Y-74000000I3270000J0D01*
G01*
%TO.C,UNIT_1*%
D10*
X73440000Y-66070000D02*
X113440000Y-66070000D01*
X113440000Y-93670000D01*
X73440000Y-93670000D01*
X73440000Y-66070000D01*
D14*
%TO.C,R17*%
X84380000Y-52010000D02*
X84380000Y-58550000D01*
X84380000Y-58550000D02*
X87120000Y-58550000D01*
X85750000Y-51240000D02*
X85750000Y-52010000D01*
X85750000Y-59320000D02*
X85750000Y-58550000D01*
X87120000Y-52010000D02*
X84380000Y-52010000D01*
X87120000Y-58550000D02*
X87120000Y-52010000D01*
%TO.C,R14*%
X80330000Y-52010000D02*
X80330000Y-58550000D01*
X80330000Y-58550000D02*
X83070000Y-58550000D01*
X81700000Y-51240000D02*
X81700000Y-52010000D01*
X81700000Y-59320000D02*
X81700000Y-58550000D01*
X83070000Y-52010000D02*
X80330000Y-52010000D01*
X83070000Y-58550000D02*
X83070000Y-52010000D01*
%TO.C,R21*%
X72230000Y-52010000D02*
X72230000Y-58550000D01*
X72230000Y-58550000D02*
X74970000Y-58550000D01*
X73600000Y-51240000D02*
X73600000Y-52010000D01*
X73600000Y-59320000D02*
X73600000Y-58550000D01*
X74970000Y-52010000D02*
X72230000Y-52010000D01*
X74970000Y-58550000D02*
X74970000Y-52010000D01*
%TO.C,D3*%
X120610000Y-50001000D02*
X120610000Y-50320000D01*
X120610000Y-52480000D02*
X120610000Y-52799000D01*
X120610000Y-50001251D02*
G75*
G02*
X124913557Y-50319931I2060000J-1398749D01*
G01*
X120986670Y-50320000D02*
G75*
G02*
X124353294Y-50319943I1683330J-1080000D01*
G01*
X124353294Y-52480057D02*
G75*
G02*
X120986670Y-52480000I-1683294J1080057D01*
G01*
X124913558Y-52480069D02*
G75*
G02*
X120610000Y-52798749I-2243558J1080069D01*
G01*
%TD*%
M02*
