M48
; DRILL file {KiCad 9.0.0} date 2025-03-25T19:27:15-0700
; FORMAT={-:-/ absolute / metric / decimal}
; #@! TF.CreationDate,2025-03-25T19:27:15-07:00
; #@! TF.GenerationSoftware,Kicad,Pcbnew,9.0.0
; #@! TF.FileFunction,Plated,1,2,PTH
FMAT,2
METRIC
; #@! TA.AperFunction,Plated,PTH,ViaDrill
T1C0.300
; #@! TA.AperFunction,Plated,PTH,ComponentDrill
T2C0.600
; #@! TA.AperFunction,Plated,PTH,ComponentDrill
T3C0.800
; #@! TA.AperFunction,Plated,PTH,ComponentDrill
T4C0.900
; #@! TA.AperFunction,Plated,PTH,ComponentDrill
T5C1.000
; #@! TA.AperFunction,Plated,PTH,ComponentDrill
T6C1.100
; #@! TA.AperFunction,Plated,PTH,ComponentDrill
T7C1.500
; #@! TA.AperFunction,Plated,PTH,ComponentDrill
T8C1.550
%
G90
G05
T1
X82.2Y-99.2
X95.2Y-55.4
X103.475Y-59.204
X112.6Y-100.2
X116.6Y-91.0
X121.6Y-87.4
X122.0Y-83.0
X122.0Y-85.5
X124.6Y-102.6
X134.6Y-101.0
X142.2Y-84.6
X144.8Y-80.6
T2
X68.2Y-90.6
X70.0Y-64.6
X70.2Y-90.6
X72.0Y-64.6
X75.25Y-63.75
X78.85Y-63.75
X82.45Y-63.75
X86.05Y-63.75
X112.427Y-60.0
X112.6Y-50.8
X114.427Y-60.0
X114.6Y-50.8
X117.0Y-69.2
X119.0Y-69.2
X131.046Y-71.738
X133.046Y-71.738
X141.5Y-97.2
X143.5Y-97.2
X146.8Y-97.4
X148.8Y-97.4
X150.4Y-71.738
X152.4Y-71.738
T3
X67.5Y-74.0
X67.7Y-79.55
X67.7Y-83.7
X69.45Y-96.6
X69.45Y-106.76
X70.0Y-74.0
X70.2Y-79.55
X70.2Y-83.7
X73.4Y-96.6
X73.4Y-106.76
X73.6Y-50.2
X73.6Y-60.36
X77.55Y-96.6
X77.55Y-106.76
X77.65Y-50.2
X77.65Y-60.36
X81.6Y-96.6
X81.6Y-106.76
X81.7Y-50.2
X81.7Y-60.36
X85.75Y-50.2
X85.75Y-60.36
X86.45Y-96.6
X86.45Y-106.76
X89.8Y-50.2
X89.8Y-60.36
X90.5Y-96.6
X90.5Y-106.76
X94.4Y-50.2
X94.4Y-60.36
X94.55Y-96.6
X94.55Y-106.76
X98.4Y-96.6
X98.4Y-106.76
X102.12Y-49.2
X102.12Y-56.82
X104.66Y-49.2
X104.66Y-56.82
X106.795Y-96.99
X106.795Y-99.53
X106.795Y-102.07
X106.795Y-104.61
X107.2Y-49.2
X107.2Y-56.82
X109.74Y-49.2
X109.74Y-56.82
X114.415Y-96.99
X114.415Y-99.53
X114.415Y-102.07
X114.415Y-104.61
X116.8Y-56.4
X117.0Y-73.0
X117.04Y-59.8
X118.0Y-49.7
X118.0Y-52.2
X119.5Y-73.0
X119.9Y-99.4
X122.4Y-99.4
X126.96Y-56.4
X127.2Y-59.8
X127.5Y-96.0
X127.5Y-98.5
X131.65Y-96.0
X131.65Y-98.5
X133.181Y-49.095
X133.181Y-59.255
X134.046Y-63.238
X134.046Y-65.738
X135.8Y-96.0
X135.8Y-98.5
X136.181Y-49.095
X136.181Y-59.255
X137.886Y-69.238
X137.966Y-73.738
X139.681Y-49.095
X139.681Y-59.255
X143.181Y-49.095
X143.181Y-59.255
X146.246Y-51.938
X146.246Y-54.478
X146.246Y-57.018
X146.246Y-59.558
X148.046Y-69.238
X148.126Y-73.738
X149.066Y-64.738
X151.566Y-64.738
X153.866Y-51.938
X153.866Y-54.478
X153.866Y-57.018
X153.866Y-59.558
X157.0Y-55.8
X157.0Y-65.96
X157.2Y-70.2
X157.2Y-72.7
X160.0Y-57.04
X160.0Y-67.2
T4
X112.26Y-72.23
X112.26Y-74.77
X112.26Y-77.31
X112.26Y-79.85
X112.26Y-82.39
X112.26Y-84.93
X112.26Y-87.47
X121.4Y-51.4
X123.94Y-51.4
X127.06Y-51.4
X128.66Y-102.04
X128.66Y-104.58
X129.6Y-51.4
T5
X110.72Y-64.2
X113.26Y-64.2
X115.8Y-64.2
X119.34Y-77.0
X119.34Y-92.24
X121.88Y-77.0
X121.88Y-92.24
X124.42Y-77.0
X124.42Y-92.24
X126.96Y-77.0
X126.96Y-92.24
X127.6Y-64.52
X127.6Y-67.06
X127.6Y-69.6
X129.5Y-77.0
X129.5Y-92.24
X132.04Y-77.0
X132.04Y-92.24
X134.22Y-104.22
X134.58Y-77.0
X134.58Y-92.24
X136.76Y-104.22
X137.12Y-77.0
X137.12Y-92.24
X139.3Y-104.22
X139.66Y-77.0
X139.66Y-92.24
X142.2Y-77.0
X142.2Y-92.24
X144.74Y-77.0
X144.74Y-92.24
X147.28Y-77.0
X147.28Y-92.24
X149.82Y-77.0
X149.82Y-92.24
X152.36Y-77.0
X152.36Y-92.24
X154.9Y-77.0
X154.9Y-92.24
T6
X98.0Y-52.49
X98.0Y-60.11
X103.4Y-97.4
X103.4Y-105.02
X137.236Y-64.738
X144.856Y-64.738
T7
X76.82Y-82.37
X76.84Y-77.29
T8
X101.7Y-60.0
X106.5Y-60.0
M30
