%TF.GenerationSoftware,KiCad,Pcbnew,9.0.0*%
%TF.CreationDate,2025-03-25T19:27:28-07:00*%
%TF.ProjectId,Speedometer,53706565-646f-46d6-9574-65722e6b6963,v1*%
%TF.SameCoordinates,Original*%
%TF.FileFunction,Copper,L1,Top*%
%TF.FilePolarity,Positive*%
%FSLAX46Y46*%
G04 Gerber Fmt 4.6, Leading zero omitted, Abs format (unit mm)*
G04 Created by KiCad (PCBNEW 9.0.0) date 2025-03-25 19:27:28*
%MOMM*%
%LPD*%
G01*
G04 APERTURE LIST*
G04 Aperture macros list*
%AMRoundRect*
0 Rectangle with rounded corners*
0 $1 Rounding radius*
0 $2 $3 $4 $5 $6 $7 $8 $9 X,Y pos of 4 corners*
0 Add a 4 corners polygon primitive as box body*
4,1,4,$2,$3,$4,$5,$6,$7,$8,$9,$2,$3,0*
0 Add four circle primitives for the rounded corners*
1,1,$1+$1,$2,$3*
1,1,$1+$1,$4,$5*
1,1,$1+$1,$6,$7*
1,1,$1+$1,$8,$9*
0 Add four rect primitives between the rounded corners*
20,1,$1+$1,$2,$3,$4,$5,0*
20,1,$1+$1,$4,$5,$6,$7,0*
20,1,$1+$1,$6,$7,$8,$9,0*
20,1,$1+$1,$8,$9,$2,$3,0*%
G04 Aperture macros list end*
%TA.AperFunction,ComponentPad*%
%ADD10O,1.600000X1.600000*%
%TD*%
%TA.AperFunction,ComponentPad*%
%ADD11C,1.600000*%
%TD*%
%TA.AperFunction,ComponentPad*%
%ADD12RoundRect,0.250000X-0.550000X-0.550000X0.550000X-0.550000X0.550000X0.550000X-0.550000X0.550000X0*%
%TD*%
%TA.AperFunction,ComponentPad*%
%ADD13R,1.700000X1.700000*%
%TD*%
%TA.AperFunction,ComponentPad*%
%ADD14O,1.700000X1.700000*%
%TD*%
%TA.AperFunction,ComponentPad*%
%ADD15R,2.200000X2.200000*%
%TD*%
%TA.AperFunction,ComponentPad*%
%ADD16O,2.200000X2.200000*%
%TD*%
%TA.AperFunction,ComponentPad*%
%ADD17R,1.800000X1.800000*%
%TD*%
%TA.AperFunction,ComponentPad*%
%ADD18C,1.800000*%
%TD*%
%TA.AperFunction,ComponentPad*%
%ADD19R,1.600000X1.600000*%
%TD*%
%TA.AperFunction,ComponentPad*%
%ADD20R,1.200000X1.200000*%
%TD*%
%TA.AperFunction,ComponentPad*%
%ADD21C,1.200000*%
%TD*%
%TA.AperFunction,ComponentPad*%
%ADD22RoundRect,0.250000X0.550000X-0.550000X0.550000X0.550000X-0.550000X0.550000X-0.550000X-0.550000X0*%
%TD*%
%TA.AperFunction,ComponentPad*%
%ADD23RoundRect,0.249999X-1.025001X-1.025001X1.025001X-1.025001X1.025001X1.025001X-1.025001X1.025001X0*%
%TD*%
%TA.AperFunction,ComponentPad*%
%ADD24C,2.550000*%
%TD*%
%TA.AperFunction,ComponentPad*%
%ADD25C,2.200000*%
%TD*%
%TA.AperFunction,ViaPad*%
%ADD26C,0.600000*%
%TD*%
%TA.AperFunction,Conductor*%
%ADD27C,0.200000*%
%TD*%
%TA.AperFunction,Conductor*%
%ADD28C,0.600000*%
%TD*%
G04 APERTURE END LIST*
D10*
%TO.P,R8,2*%
%TO.N,/Filter1.2*%
X69450000Y-96600000D03*
D11*
%TO.P,R8,1*%
%TO.N,/NE555_Out2*%
X69450000Y-106760000D03*
%TD*%
D10*
%TO.P,R18,2*%
%TO.N,/Hall_Out2*%
X81600000Y-96600000D03*
D11*
%TO.P,R18,1*%
%TO.N,+5V*%
X81600000Y-106760000D03*
%TD*%
D10*
%TO.P,R16,2*%
%TO.N,/Hall_Out2*%
X77550000Y-96600000D03*
D11*
%TO.P,R16,1*%
%TO.N,Net-(D5-K)*%
X77550000Y-106760000D03*
%TD*%
D10*
%TO.P,R23,2*%
%TO.N,Net-(R23-Pad2)*%
X94550000Y-96600000D03*
D11*
%TO.P,R23,1*%
%TO.N,+5V*%
X94550000Y-106760000D03*
%TD*%
D10*
%TO.P,R19,2*%
%TO.N,/Diff2*%
X86450000Y-96600000D03*
D11*
%TO.P,R19,1*%
%TO.N,+5V*%
X86450000Y-106760000D03*
%TD*%
D10*
%TO.P,R24,2*%
%TO.N,/DIS_THR2*%
X73400000Y-96600000D03*
D11*
%TO.P,R24,1*%
%TO.N,Net-(R23-Pad2)*%
X73400000Y-106760000D03*
%TD*%
D10*
%TO.P,R22,2*%
%TO.N,/Rect2*%
X90500000Y-96600000D03*
D11*
%TO.P,R22,1*%
%TO.N,+5V*%
X90500000Y-106760000D03*
%TD*%
D10*
%TO.P,R10,2*%
%TO.N,/Nano_Input2*%
X98400000Y-96600000D03*
D11*
%TO.P,R10,1*%
%TO.N,/Filter1.2*%
X98400000Y-106760000D03*
%TD*%
D12*
%TO.P,U6,1,GND*%
%TO.N,GND*%
X106795000Y-96990000D03*
D11*
%TO.P,U6,2,TR*%
%TO.N,/Rect2*%
X106795000Y-99530000D03*
%TO.P,U6,3,Q*%
%TO.N,/NE555_Out2*%
X106795000Y-102070000D03*
%TO.P,U6,4,R*%
%TO.N,+5V*%
X106795000Y-104610000D03*
%TO.P,U6,5,CV*%
%TO.N,/CV2*%
X114415000Y-104610000D03*
%TO.P,U6,6,THR*%
%TO.N,/DIS_THR2*%
X114415000Y-102070000D03*
%TO.P,U6,7,DIS*%
X114415000Y-99530000D03*
%TO.P,U6,8,VCC*%
%TO.N,+5V*%
X114415000Y-96990000D03*
%TD*%
D13*
%TO.P,U4,1,Vcc*%
%TO.N,+5V*%
X134220000Y-104220000D03*
D14*
%TO.P,U4,2,GND*%
%TO.N,GND*%
X136760000Y-104220000D03*
%TO.P,U4,3,OUT*%
%TO.N,/Hall_Out2*%
X139300000Y-104220000D03*
%TD*%
D15*
%TO.P,D6,1,K*%
%TO.N,/Diff2*%
X103400000Y-105020000D03*
D16*
%TO.P,D6,2,A*%
%TO.N,/Rect2*%
X103400000Y-97400000D03*
%TD*%
D17*
%TO.P,D5,1,K*%
%TO.N,Net-(D5-K)*%
X128660000Y-104580000D03*
D18*
%TO.P,D5,2,A*%
%TO.N,+5V*%
X128660000Y-102040000D03*
%TD*%
D19*
%TO.P,C21,1*%
%TO.N,/DIS_THR2*%
X119900000Y-99400000D03*
D11*
%TO.P,C21,2*%
%TO.N,GND*%
X122400000Y-99400000D03*
%TD*%
%TO.P,C20,1*%
%TO.N,GND*%
X135800000Y-98500000D03*
%TO.P,C20,2*%
%TO.N,/CV2*%
X135800000Y-96000000D03*
%TD*%
%TO.P,C18,1*%
%TO.N,/Hall_Out2*%
X131650000Y-98500000D03*
%TO.P,C18,2*%
%TO.N,/Diff2*%
X131650000Y-96000000D03*
%TD*%
%TO.P,C13,1*%
%TO.N,+5V*%
X127500000Y-98500000D03*
%TO.P,C13,2*%
%TO.N,GND*%
X127500000Y-96000000D03*
%TD*%
D20*
%TO.P,C12,1*%
%TO.N,+5V*%
X146800000Y-97400000D03*
D21*
%TO.P,C12,2*%
%TO.N,GND*%
X148800000Y-97400000D03*
%TD*%
D20*
%TO.P,C9,1*%
%TO.N,/Nano_Input2*%
X141500000Y-97200000D03*
D21*
%TO.P,C9,2*%
%TO.N,GND*%
X143500000Y-97200000D03*
%TD*%
D20*
%TO.P,C7,1*%
%TO.N,/Filter1.2*%
X68200000Y-90600000D03*
D21*
%TO.P,C7,2*%
%TO.N,GND*%
X70200000Y-90600000D03*
%TD*%
D17*
%TO.P,D1,1,K*%
%TO.N,Net-(D1-K)*%
X129600000Y-51400000D03*
D18*
%TO.P,D1,2,A*%
%TO.N,+5V*%
X127060000Y-51400000D03*
%TD*%
D11*
%TO.P,C14,1*%
%TO.N,/Hall_Out1*%
X70200000Y-79550000D03*
%TO.P,C14,2*%
%TO.N,/Diff1*%
X67700000Y-79550000D03*
%TD*%
%TO.P,C2,1*%
%TO.N,+5V*%
X117000000Y-73000000D03*
%TO.P,C2,2*%
%TO.N,GND*%
X119500000Y-73000000D03*
%TD*%
%TO.P,C11,1*%
%TO.N,+5V*%
X70200000Y-83700000D03*
%TO.P,C11,2*%
%TO.N,GND*%
X67700000Y-83700000D03*
%TD*%
D20*
%TO.P,C15,1*%
%TO.N,/Filter1.1*%
X114600000Y-50800000D03*
D21*
%TO.P,C15,2*%
%TO.N,GND*%
X112600000Y-50800000D03*
%TD*%
D22*
%TO.P,U5,1,GND*%
%TO.N,GND*%
X102120000Y-56820000D03*
D11*
%TO.P,U5,2,TR*%
%TO.N,/Rect1*%
X104660000Y-56820000D03*
%TO.P,U5,3,Q*%
%TO.N,/NE555_Out1*%
X107200000Y-56820000D03*
%TO.P,U5,4,R*%
%TO.N,+5V*%
X109740000Y-56820000D03*
%TO.P,U5,5,CV*%
%TO.N,/CV1*%
X109740000Y-49200000D03*
%TO.P,U5,6,THR*%
%TO.N,/DIS_THR1*%
X107200000Y-49200000D03*
%TO.P,U5,7,DIS*%
X104660000Y-49200000D03*
%TO.P,U5,8,VCC*%
%TO.N,+5V*%
X102120000Y-49200000D03*
%TD*%
%TO.P,R1,1*%
%TO.N,Net-(D1-K)*%
X133181046Y-49094564D03*
D10*
%TO.P,R1,2*%
%TO.N,/Hall_Out*%
X133181046Y-59254564D03*
%TD*%
D11*
%TO.P,R11,1*%
%TO.N,Net-(D3-K)*%
X94400000Y-60360000D03*
D10*
%TO.P,R11,2*%
%TO.N,/Hall_Out1*%
X94400000Y-50200000D03*
%TD*%
D11*
%TO.P,R3,1*%
%TO.N,+5V*%
X139681046Y-49094564D03*
D10*
%TO.P,R3,2*%
%TO.N,/Diff*%
X139681046Y-59254564D03*
%TD*%
D19*
%TO.P,UNIT_2,1,D1/TX*%
%TO.N,unconnected-(UNIT_2-D1{slash}TX-Pad1)*%
X119340000Y-92240000D03*
D10*
%TO.P,UNIT_2,2,D0/RX*%
%TO.N,unconnected-(UNIT_2-D0{slash}RX-Pad2)*%
X121880000Y-92240000D03*
%TO.P,UNIT_2,3,RESET*%
%TO.N,unconnected-(UNIT_2-RESET-Pad3)*%
X124420000Y-92240000D03*
%TO.P,UNIT_2,4,COM/GND*%
%TO.N,GND*%
X126960000Y-92240000D03*
%TO.P,UNIT_2,5,D2*%
%TO.N,unconnected-(UNIT_2-D2-Pad5)*%
X129500000Y-92240000D03*
%TO.P,UNIT_2,6,D3*%
%TO.N,unconnected-(UNIT_2-D3-Pad6)*%
X132040000Y-92240000D03*
%TO.P,UNIT_2,7,D4*%
%TO.N,unconnected-(UNIT_2-D4-Pad7)*%
X134580000Y-92240000D03*
%TO.P,UNIT_2,8,D5*%
%TO.N,unconnected-(UNIT_2-D5-Pad8)*%
X137120000Y-92240000D03*
%TO.P,UNIT_2,9,D6*%
%TO.N,unconnected-(UNIT_2-D6-Pad9)*%
X139660000Y-92240000D03*
%TO.P,UNIT_2,10,D7*%
%TO.N,unconnected-(UNIT_2-D7-Pad10)*%
X142200000Y-92240000D03*
%TO.P,UNIT_2,11,D8*%
%TO.N,unconnected-(UNIT_2-D8-Pad11)*%
X144740000Y-92240000D03*
%TO.P,UNIT_2,12,D9*%
%TO.N,unconnected-(UNIT_2-D9-Pad12)*%
X147280000Y-92240000D03*
%TO.P,UNIT_2,13,D10*%
%TO.N,CS*%
X149820000Y-92240000D03*
%TO.P,UNIT_2,14,D11/MOSI*%
%TO.N,SI*%
X152360000Y-92240000D03*
%TO.P,UNIT_2,15,D12/MISO*%
%TO.N,SO*%
X154900000Y-92240000D03*
%TO.P,UNIT_2,16,D13/SCK*%
%TO.N,SCK*%
X154900000Y-77000000D03*
%TO.P,UNIT_2,17,3V3*%
%TO.N,unconnected-(UNIT_2-3V3-Pad17)*%
X152360000Y-77000000D03*
%TO.P,UNIT_2,18,AREF*%
%TO.N,unconnected-(UNIT_2-AREF-Pad18)*%
X149820000Y-77000000D03*
%TO.P,UNIT_2,19,A0*%
%TO.N,/Nano_Input*%
X147280000Y-77000000D03*
%TO.P,UNIT_2,20,A1*%
%TO.N,/Nano_Input1*%
X144740000Y-77000000D03*
%TO.P,UNIT_2,21,A2*%
%TO.N,/Nano_Input2*%
X142200000Y-77000000D03*
%TO.P,UNIT_2,22,A3*%
%TO.N,unconnected-(UNIT_2-A3-Pad22)*%
X139660000Y-77000000D03*
%TO.P,UNIT_2,23,A4*%
%TO.N,unconnected-(UNIT_2-A4-Pad23)*%
X137120000Y-77000000D03*
%TO.P,UNIT_2,24,A5*%
%TO.N,unconnected-(UNIT_2-A5-Pad24)*%
X134580000Y-77000000D03*
%TO.P,UNIT_2,25,A6*%
%TO.N,unconnected-(UNIT_2-A6-Pad25)*%
X132040000Y-77000000D03*
%TO.P,UNIT_2,26,A7*%
%TO.N,unconnected-(UNIT_2-A7-Pad26)*%
X129500000Y-77000000D03*
%TO.P,UNIT_2,27,+5V*%
%TO.N,+5V*%
X126960000Y-77000000D03*
%TO.P,UNIT_2,28,RESET*%
%TO.N,unconnected-(UNIT_2-RESET-Pad28)*%
X124420000Y-77000000D03*
%TO.P,UNIT_2,29,COM/GND*%
%TO.N,GND*%
X121880000Y-77000000D03*
%TO.P,UNIT_2,30,VIN*%
%TO.N,+5V*%
X119340000Y-77000000D03*
%TD*%
D20*
%TO.P,C1,1*%
%TO.N,+5V*%
X117000000Y-69200000D03*
D21*
%TO.P,C1,2*%
%TO.N,GND*%
X119000000Y-69200000D03*
%TD*%
D11*
%TO.P,R13,1*%
%TO.N,/NE555_Out1*%
X116800000Y-56400000D03*
D10*
%TO.P,R13,2*%
%TO.N,/Filter1.1*%
X126960000Y-56400000D03*
%TD*%
D11*
%TO.P,R7,1*%
%TO.N,/NE555_Out*%
X137885988Y-69238035D03*
D10*
%TO.P,R7,2*%
%TO.N,/Filter1*%
X148045988Y-69238035D03*
%TD*%
D11*
%TO.P,R12,1*%
%TO.N,+5V*%
X77650000Y-60360000D03*
D10*
%TO.P,R12,2*%
%TO.N,/Hall_Out1*%
X77650000Y-50200000D03*
%TD*%
D11*
%TO.P,C3,1*%
%TO.N,/Hall_Out*%
X134045988Y-63238035D03*
%TO.P,C3,2*%
%TO.N,/Diff*%
X134045988Y-65738035D03*
%TD*%
%TO.P,R2,1*%
%TO.N,+5V*%
X136181046Y-49094564D03*
D10*
%TO.P,R2,2*%
%TO.N,/Hall_Out*%
X136181046Y-59254564D03*
%TD*%
D11*
%TO.P,R5,1*%
%TO.N,+5V*%
X160000000Y-67200000D03*
D10*
%TO.P,R5,2*%
%TO.N,Net-(R5-Pad2)*%
X160000000Y-57040000D03*
%TD*%
D11*
%TO.P,R20,1*%
%TO.N,+5V*%
X89800000Y-60360000D03*
D10*
%TO.P,R20,2*%
%TO.N,Net-(R20-Pad2)*%
X89800000Y-50200000D03*
%TD*%
D20*
%TO.P,C6,1*%
%TO.N,/Filter1*%
X150400000Y-71738035D03*
D21*
%TO.P,C6,2*%
%TO.N,GND*%
X152400000Y-71738035D03*
%TD*%
D23*
%TO.P,J1,1,Pin_1*%
%TO.N,+5V*%
X101700000Y-60000000D03*
D24*
%TO.P,J1,2,Pin_2*%
%TO.N,GND*%
X106500000Y-60000000D03*
%TD*%
D11*
%TO.P,C17,1*%
%TO.N,GND*%
X118000000Y-52200000D03*
%TO.P,C17,2*%
%TO.N,/CV1*%
X118000000Y-49700000D03*
%TD*%
%TO.P,R6,1*%
%TO.N,Net-(R5-Pad2)*%
X157000000Y-55800000D03*
D10*
%TO.P,R6,2*%
%TO.N,/DIS_THR*%
X157000000Y-65960000D03*
%TD*%
D11*
%TO.P,R15,1*%
%TO.N,/Filter1.1*%
X117040000Y-59800000D03*
D10*
%TO.P,R15,2*%
%TO.N,/Nano_Input1*%
X127200000Y-59800000D03*
%TD*%
D12*
%TO.P,J2,1,Pin_1*%
%TO.N,Low*%
X75250000Y-63750000D03*
D11*
%TO.P,J2,2,Pin_2*%
%TO.N,High*%
X78850000Y-63750000D03*
%TO.P,J2,3,Pin_3*%
%TO.N,Low*%
X82450000Y-63750000D03*
%TO.P,J2,4,Pin_4*%
%TO.N,High*%
X86050000Y-63750000D03*
%TD*%
%TO.P,C4,1*%
%TO.N,GND*%
X149065988Y-64738035D03*
%TO.P,C4,2*%
%TO.N,/CV*%
X151565988Y-64738035D03*
%TD*%
D15*
%TO.P,D4,1,K*%
%TO.N,/Diff1*%
X98000000Y-60110000D03*
D16*
%TO.P,D4,2,A*%
%TO.N,/Rect1*%
X98000000Y-52490000D03*
%TD*%
D19*
%TO.P,U2,1,GND*%
%TO.N,GND*%
X146245988Y-51938035D03*
D10*
%TO.P,U2,2,TR*%
%TO.N,/Rect*%
X146245988Y-54478035D03*
%TO.P,U2,3,Q*%
%TO.N,/NE555_Out*%
X146245988Y-57018035D03*
%TO.P,U2,4,R*%
%TO.N,+5V*%
X146245988Y-59558035D03*
%TO.P,U2,5,CV*%
%TO.N,/CV*%
X153865988Y-59558035D03*
%TO.P,U2,6,THR*%
%TO.N,/DIS_THR*%
X153865988Y-57018035D03*
%TO.P,U2,7,DIS*%
X153865988Y-54478035D03*
%TO.P,U2,8,VCC*%
%TO.N,+5V*%
X153865988Y-51938035D03*
%TD*%
D19*
%TO.P,C5,1*%
%TO.N,/DIS_THR*%
X157200000Y-70200000D03*
D11*
%TO.P,C5,2*%
%TO.N,GND*%
X157200000Y-72700000D03*
%TD*%
D15*
%TO.P,D2,1,K*%
%TO.N,/Diff*%
X137235988Y-64738035D03*
D16*
%TO.P,D2,2,A*%
%TO.N,/Rect*%
X144855988Y-64738035D03*
%TD*%
D11*
%TO.P,R9,1*%
%TO.N,/Filter1*%
X148125988Y-73738035D03*
D10*
%TO.P,R9,2*%
%TO.N,/Nano_Input*%
X137965988Y-73738035D03*
%TD*%
D20*
%TO.P,C16,1*%
%TO.N,/Nano_Input1*%
X112427401Y-60000000D03*
D21*
%TO.P,C16,2*%
%TO.N,GND*%
X114427401Y-60000000D03*
%TD*%
D13*
%TO.P,U1,1,Vcc*%
%TO.N,+5V*%
X127600000Y-69600000D03*
D14*
%TO.P,U1,2,GND*%
%TO.N,GND*%
X127600000Y-67060000D03*
%TO.P,U1,3,OUT*%
%TO.N,/Hall_Out*%
X127600000Y-64520000D03*
%TD*%
D11*
%TO.P,R4,1*%
%TO.N,+5V*%
X143181046Y-49094564D03*
D10*
%TO.P,R4,2*%
%TO.N,/Rect*%
X143181046Y-59254564D03*
%TD*%
D13*
%TO.P,U3,1,Vcc*%
%TO.N,+5V*%
X115800000Y-64200000D03*
D14*
%TO.P,U3,2,GND*%
%TO.N,GND*%
X113260000Y-64200000D03*
%TO.P,U3,3,OUT*%
%TO.N,/Hall_Out1*%
X110720000Y-64200000D03*
%TD*%
D20*
%TO.P,C8,1*%
%TO.N,/Nano_Input*%
X133045988Y-71738035D03*
D21*
%TO.P,C8,2*%
%TO.N,GND*%
X131045988Y-71738035D03*
%TD*%
D20*
%TO.P,C10,1*%
%TO.N,+5V*%
X72000000Y-64600000D03*
D21*
%TO.P,C10,2*%
%TO.N,GND*%
X70000000Y-64600000D03*
%TD*%
D19*
%TO.P,C19,1*%
%TO.N,/DIS_THR1*%
X70000000Y-74000000D03*
D11*
%TO.P,C19,2*%
%TO.N,GND*%
X67500000Y-74000000D03*
%TD*%
D18*
%TO.P,UNIT_1,1,INT*%
%TO.N,unconnected-(UNIT_1-INT-Pad1)*%
X112260000Y-87470000D03*
%TO.P,UNIT_1,2,SCK*%
%TO.N,SCK*%
X112260000Y-84930000D03*
%TO.P,UNIT_1,3,SI*%
%TO.N,SI*%
X112260000Y-82390000D03*
%TO.P,UNIT_1,4,SO*%
%TO.N,SO*%
X112260000Y-79850000D03*
%TO.P,UNIT_1,5,CS*%
%TO.N,CS*%
X112260000Y-77310000D03*
%TO.P,UNIT_1,6,GND*%
%TO.N,GND*%
X112260000Y-74770000D03*
%TO.P,UNIT_1,7,VCC*%
%TO.N,+5V*%
X112260000Y-72230000D03*
D25*
%TO.P,UNIT_1,8,High_CAN*%
%TO.N,High*%
X76820000Y-82370000D03*
%TO.P,UNIT_1,9,Low_CAN*%
%TO.N,Low*%
X76840000Y-77290000D03*
%TD*%
D11*
%TO.P,R17,1*%
%TO.N,+5V*%
X85750000Y-60360000D03*
D10*
%TO.P,R17,2*%
%TO.N,/Rect1*%
X85750000Y-50200000D03*
%TD*%
D11*
%TO.P,R14,1*%
%TO.N,+5V*%
X81700000Y-60360000D03*
D10*
%TO.P,R14,2*%
%TO.N,/Diff1*%
X81700000Y-50200000D03*
%TD*%
D11*
%TO.P,R21,1*%
%TO.N,Net-(R20-Pad2)*%
X73600000Y-60360000D03*
D10*
%TO.P,R21,2*%
%TO.N,/DIS_THR1*%
X73600000Y-50200000D03*
%TD*%
D17*
%TO.P,D3,1,K*%
%TO.N,Net-(D3-K)*%
X121400000Y-51400000D03*
D18*
%TO.P,D3,2,A*%
%TO.N,+5V*%
X123940000Y-51400000D03*
%TD*%
D26*
%TO.N,GND*%
X124600000Y-102600000D03*
X112600000Y-100200000D03*
%TO.N,/Nano_Input2*%
X142200000Y-84600000D03*
X121600000Y-87400000D03*
X116600000Y-91000000D03*
X144800000Y-80600000D03*
%TO.N,/Hall_Out2*%
X134600000Y-101000000D03*
%TO.N,/Filter1.2*%
X82200000Y-99200000D03*
%TO.N,GND*%
X122000000Y-85500000D03*
X122000000Y-83000000D03*
%TO.N,/Hall_Out1*%
X103475000Y-59203603D03*
X95200000Y-55400000D03*
%TD*%
D27*
%TO.N,GND*%
X122400000Y-100400000D02*
X124600000Y-102600000D01*
X122400000Y-99400000D02*
X122400000Y-100400000D01*
X109390000Y-96990000D02*
X112600000Y-100200000D01*
X106795000Y-96990000D02*
X109390000Y-96990000D01*
%TO.N,/Hall_Out1*%
X103475000Y-60075000D02*
X103475000Y-59203603D01*
X107600000Y-64200000D02*
X103475000Y-60075000D01*
X110720000Y-64200000D02*
X107600000Y-64200000D01*
%TO.N,Net-(R20-Pad2)*%
X81050000Y-59000000D02*
X89800000Y-50250000D01*
X73600000Y-60410000D02*
X75010000Y-59000000D01*
X75010000Y-59000000D02*
X81050000Y-59000000D01*
%TO.N,/Hall_Out1*%
X87141950Y-51351000D02*
X78751000Y-51351000D01*
X78751000Y-51351000D02*
X77650000Y-50250000D01*
X87141950Y-51301000D02*
X87141950Y-51351000D01*
X89343950Y-49099000D02*
X87141950Y-51301000D01*
X93299000Y-49099000D02*
X89343950Y-49099000D01*
X94400000Y-50200000D02*
X93299000Y-49099000D01*
%TO.N,/Rect1*%
X98000000Y-50934366D02*
X98000000Y-52490000D01*
X95265634Y-48200000D02*
X98000000Y-50934366D01*
X85750000Y-50250000D02*
X87800000Y-48200000D01*
X87800000Y-48200000D02*
X95265634Y-48200000D01*
%TO.N,GND*%
X127500000Y-92780000D02*
X126960000Y-92240000D01*
X127500000Y-96000000D02*
X127500000Y-92780000D01*
%TO.N,/Filter1.2*%
X73619000Y-94819000D02*
X70271000Y-94819000D01*
X78000000Y-99200000D02*
X73619000Y-94819000D01*
X82200000Y-99200000D02*
X78000000Y-99200000D01*
X70271000Y-94819000D02*
X69450000Y-95640000D01*
%TO.N,/Diff1*%
X68899000Y-78351000D02*
X67700000Y-79550000D01*
X68098000Y-68065100D02*
X68899000Y-68866100D01*
X71600000Y-50600000D02*
X68098000Y-54102000D01*
X68899000Y-68866100D02*
X68899000Y-78351000D01*
X73000000Y-48800000D02*
X71600000Y-50200000D01*
X80250000Y-48800000D02*
X73000000Y-48800000D01*
X71600000Y-50200000D02*
X71600000Y-50600000D01*
X68098000Y-54102000D02*
X68098000Y-68065100D01*
X81700000Y-50250000D02*
X80250000Y-48800000D01*
D28*
%TO.N,+5V*%
X127600000Y-69292047D02*
X127600000Y-69600000D01*
X120069946Y-71730054D02*
X123800000Y-68000000D01*
X120038892Y-71699000D02*
X120069946Y-71730054D01*
X123800000Y-68000000D02*
X126307953Y-68000000D01*
X118301000Y-71699000D02*
X120038892Y-71699000D01*
X117000000Y-73000000D02*
X118301000Y-71699000D01*
X126307953Y-68000000D02*
X127600000Y-69292047D01*
X132459000Y-105981000D02*
X134220000Y-104220000D01*
X108166000Y-105981000D02*
X132459000Y-105981000D01*
X106795000Y-104610000D02*
X108166000Y-105981000D01*
X103205000Y-108200000D02*
X95990000Y-108200000D01*
X106795000Y-104610000D02*
X103205000Y-108200000D01*
X95990000Y-108200000D02*
X94550000Y-106760000D01*
D27*
%TO.N,/Hall_Out2*%
X81600000Y-95640000D02*
X82320000Y-94920000D01*
X81600000Y-96600000D02*
X81600000Y-95640000D01*
X82320000Y-94920000D02*
X82240000Y-95000000D01*
%TO.N,Net-(R5-Pad2)*%
X157000000Y-55800000D02*
X158760000Y-55800000D01*
X158760000Y-55800000D02*
X160000000Y-57040000D01*
D28*
%TO.N,+5V*%
X160545988Y-61545988D02*
X160545988Y-66654012D01*
X160545988Y-66654012D02*
X160000000Y-67200000D01*
X155200000Y-56200000D02*
X160545988Y-61545988D01*
X155200000Y-55049939D02*
X155200000Y-56200000D01*
X155166988Y-53939143D02*
X155166988Y-55016927D01*
X153865988Y-52638143D02*
X155166988Y-53939143D01*
X153865988Y-51938035D02*
X153865988Y-52638143D01*
X155166988Y-55016927D02*
X155200000Y-55049939D01*
D27*
%TO.N,/DIS_THR*%
X157045988Y-60198035D02*
X153865988Y-57018035D01*
X157045988Y-60898035D02*
X157045988Y-60198035D01*
X158045988Y-61898035D02*
X157045988Y-60898035D01*
X158045988Y-63554012D02*
X158045988Y-61898035D01*
X157200000Y-64400000D02*
X158045988Y-63554012D01*
X157200000Y-70200000D02*
X157200000Y-64400000D01*
%TO.N,/Filter1*%
X150400000Y-71738035D02*
X148400000Y-73738035D01*
X148400000Y-73738035D02*
X148125988Y-73738035D01*
%TO.N,/DIS_THR1*%
X73600000Y-51400000D02*
X73600000Y-50250000D01*
X68499000Y-67899000D02*
X68499000Y-56501000D01*
X70000000Y-69400000D02*
X68499000Y-67899000D01*
X70000000Y-74000000D02*
X70000000Y-69400000D01*
X68499000Y-56501000D02*
X73600000Y-51400000D01*
%TO.N,/DIS_THR2*%
X77600000Y-100800000D02*
X73400000Y-96600000D01*
X113145000Y-100800000D02*
X77600000Y-100800000D01*
X114415000Y-99530000D02*
X113145000Y-100800000D01*
D28*
%TO.N,+5V*%
X81600000Y-106760000D02*
X86450000Y-106760000D01*
X90500000Y-106760000D02*
X86450000Y-106760000D01*
X94550000Y-106760000D02*
X90500000Y-106760000D01*
D27*
%TO.N,Net-(D5-K)*%
X77550000Y-105800000D02*
X77550000Y-106760000D01*
%TO.N,/NE555_Out2*%
X69450000Y-105800000D02*
X69450000Y-106760000D01*
%TO.N,/Hall_Out2*%
X80560000Y-95640000D02*
X78510000Y-95640000D01*
X78510000Y-95640000D02*
X77550000Y-96600000D01*
X82240000Y-95000000D02*
X81200000Y-95000000D01*
X81200000Y-95000000D02*
X80560000Y-95640000D01*
X82822000Y-94418000D02*
X82320000Y-94920000D01*
X110285950Y-94418000D02*
X82822000Y-94418000D01*
X113958950Y-98091000D02*
X110285950Y-94418000D01*
X130549000Y-97399000D02*
X124543950Y-97399000D01*
X131650000Y-98500000D02*
X130549000Y-97399000D01*
X124543950Y-97399000D02*
X123851950Y-98091000D01*
X123851950Y-98091000D02*
X113958950Y-98091000D01*
%TO.N,/Filter1.2*%
X69450000Y-95640000D02*
X69450000Y-96600000D01*
D28*
%TO.N,+5V*%
X145600000Y-98600000D02*
X139840000Y-98600000D01*
X139840000Y-98600000D02*
X134220000Y-104220000D01*
X146800000Y-97400000D02*
X145600000Y-98600000D01*
D27*
%TO.N,Low*%
X81222900Y-77400000D02*
X76950000Y-77400000D01*
X82000000Y-76622900D02*
X81222900Y-77400000D01*
X82000000Y-67467100D02*
X82000000Y-76622900D01*
X78393950Y-64851000D02*
X79306050Y-64851000D01*
X77406050Y-64206050D02*
X77749000Y-64206050D01*
X77749000Y-64206050D02*
X78393950Y-64851000D01*
X79344975Y-64812075D02*
X82000000Y-67467100D01*
X76950000Y-63750000D02*
X77406050Y-64206050D01*
X79306050Y-64851000D02*
X79344975Y-64812075D01*
X75250000Y-63750000D02*
X76950000Y-63750000D01*
X76950000Y-77400000D02*
X76840000Y-77290000D01*
%TO.N,/Nano_Input2*%
X120400000Y-87400000D02*
X121600000Y-87400000D01*
X116600000Y-91000000D02*
X116800000Y-91000000D01*
X116800000Y-91000000D02*
X120400000Y-87400000D01*
X144800000Y-82000000D02*
X142200000Y-84600000D01*
X144800000Y-80600000D02*
X144800000Y-82000000D01*
%TO.N,/Hall_Out2*%
X134600000Y-101000000D02*
X134150000Y-101000000D01*
X134150000Y-101000000D02*
X131650000Y-98500000D01*
D28*
%TO.N,+5V*%
X132040000Y-102040000D02*
X134220000Y-104220000D01*
X128660000Y-102040000D02*
X132040000Y-102040000D01*
X127500000Y-100880000D02*
X128660000Y-102040000D01*
X127500000Y-98500000D02*
X127500000Y-100880000D01*
X101396000Y-83971000D02*
X114415000Y-96990000D01*
X100519000Y-83971000D02*
X101396000Y-83971000D01*
D27*
%TO.N,/Rect2*%
X105530000Y-99530000D02*
X103400000Y-97400000D01*
X106795000Y-99530000D02*
X105530000Y-99530000D01*
%TO.N,/DIS_THR2*%
X119770000Y-99530000D02*
X119900000Y-99400000D01*
X114415000Y-99530000D02*
X119770000Y-99530000D01*
X114415000Y-102070000D02*
X114415000Y-99530000D01*
%TO.N,Net-(D5-K)*%
X127589000Y-103509000D02*
X128660000Y-104580000D01*
X79841000Y-103509000D02*
X127589000Y-103509000D01*
X77550000Y-105800000D02*
X79841000Y-103509000D01*
%TO.N,/Rect2*%
X91601000Y-94819000D02*
X100819000Y-94819000D01*
X100819000Y-94819000D02*
X103400000Y-97400000D01*
X90500000Y-95920000D02*
X91601000Y-94819000D01*
%TO.N,/NE555_Out2*%
X73180000Y-102070000D02*
X106795000Y-102070000D01*
X69450000Y-105800000D02*
X73180000Y-102070000D01*
%TO.N,/Filter1.2*%
X69450000Y-95640000D02*
X69450000Y-91850000D01*
X69450000Y-91850000D02*
X68200000Y-90600000D01*
D28*
%TO.N,+5V*%
X124957953Y-51400000D02*
X127060000Y-51400000D01*
X124307953Y-50750000D02*
X124957953Y-51400000D01*
X124190000Y-50750000D02*
X124307953Y-50750000D01*
X123940000Y-51400000D02*
X123940000Y-51000000D01*
X123940000Y-51000000D02*
X124190000Y-50750000D01*
D27*
%TO.N,Net-(D3-K)*%
X118400000Y-51000000D02*
X121000000Y-51000000D01*
X118301000Y-51099000D02*
X118400000Y-51000000D01*
X121000000Y-51000000D02*
X121400000Y-51400000D01*
X116899000Y-51743950D02*
X117543950Y-51099000D01*
X117543950Y-51099000D02*
X118301000Y-51099000D01*
X111479000Y-57921000D02*
X116899000Y-52501000D01*
X96839000Y-57921000D02*
X111479000Y-57921000D01*
X116899000Y-52501000D02*
X116899000Y-51743950D01*
X94400000Y-60360000D02*
X96839000Y-57921000D01*
%TO.N,/CV*%
X153865988Y-61510082D02*
X153865988Y-59558035D01*
X153200000Y-62176070D02*
X153865988Y-61510082D01*
X153200000Y-63104023D02*
X153200000Y-62176070D01*
X151565988Y-64738035D02*
X153200000Y-63104023D01*
%TO.N,GND*%
X122000000Y-83000000D02*
X121880000Y-82880000D01*
X121880000Y-82880000D02*
X121880000Y-77000000D01*
X126960000Y-90460000D02*
X122000000Y-85500000D01*
X126960000Y-92240000D02*
X126960000Y-90460000D01*
%TO.N,Net-(D1-K)*%
X133181046Y-49094564D02*
X132529459Y-49094564D01*
X132529459Y-49094564D02*
X130224023Y-51400000D01*
X130224023Y-51400000D02*
X129600000Y-51400000D01*
D28*
%TO.N,+5V*%
X75860000Y-62200000D02*
X77650000Y-60410000D01*
X70200000Y-83700000D02*
X70471000Y-83971000D01*
X110150000Y-68150000D02*
X112150000Y-68150000D01*
X72000000Y-64600000D02*
X74400000Y-62200000D01*
X124500000Y-73500000D02*
X124500000Y-73000000D01*
X129757953Y-54242047D02*
X127800000Y-54242047D01*
X110150000Y-68150000D02*
X109850000Y-68150000D01*
X74400000Y-62200000D02*
X75860000Y-62200000D01*
X153865988Y-51938035D02*
X152505988Y-50578035D01*
X124500000Y-70284023D02*
X124500000Y-73000000D01*
X133911454Y-50578035D02*
X133421965Y-50578035D01*
X139681046Y-49094564D02*
X143181046Y-49094564D01*
X125500000Y-74000000D02*
X125500000Y-75540000D01*
X109850000Y-68150000D02*
X101700000Y-60000000D01*
X152505988Y-50578035D02*
X145625956Y-50578035D01*
X127800000Y-54242047D02*
X127060000Y-53502047D01*
X127060000Y-53502047D02*
X127060000Y-51400000D01*
X136181046Y-49094564D02*
X135394925Y-49094564D01*
X135394925Y-49094564D02*
X133911454Y-50578035D01*
X124500000Y-73000000D02*
X125500000Y-74000000D01*
X100519000Y-83971000D02*
X112260000Y-72230000D01*
X119340000Y-77000000D02*
X121840000Y-74500000D01*
X89800000Y-60410000D02*
X92890000Y-63500000D01*
X77650000Y-60410000D02*
X81700000Y-60410000D01*
X85750000Y-60410000D02*
X81700000Y-60410000D01*
X102120000Y-49200000D02*
X109740000Y-56820000D01*
X98200000Y-63500000D02*
X101700000Y-60000000D01*
X146245988Y-59558035D02*
X153865988Y-51938035D01*
X136181046Y-49094564D02*
X139681046Y-49094564D01*
X85750000Y-60410000D02*
X89800000Y-60410000D01*
X110150000Y-68150000D02*
X112260000Y-70260000D01*
X112150000Y-68150000D02*
X117000000Y-73000000D01*
X144142485Y-49094564D02*
X143181046Y-49094564D01*
X145625956Y-50578035D02*
X144142485Y-49094564D01*
X117000000Y-67600000D02*
X117000000Y-73000000D01*
X115800000Y-64200000D02*
X115800000Y-66400000D01*
X121840000Y-74500000D02*
X123500000Y-74500000D01*
X115800000Y-66400000D02*
X117000000Y-67600000D01*
X70471000Y-83971000D02*
X100519000Y-83971000D01*
X127600000Y-69600000D02*
X125184023Y-69600000D01*
X125500000Y-75540000D02*
X126960000Y-77000000D01*
X112260000Y-70260000D02*
X112260000Y-72230000D01*
X133421965Y-50578035D02*
X129757953Y-54242047D01*
X123500000Y-74500000D02*
X124500000Y-73500000D01*
X125184023Y-69600000D02*
X124500000Y-70284023D01*
X92890000Y-63500000D02*
X98200000Y-63500000D01*
D27*
%TO.N,/Nano_Input*%
X137965988Y-73738035D02*
X135045988Y-73738035D01*
X135045988Y-73738035D02*
X133045988Y-71738035D01*
X139204023Y-72500000D02*
X142780000Y-72500000D01*
X142780000Y-72500000D02*
X147280000Y-77000000D01*
X137965988Y-73738035D02*
X139204023Y-72500000D01*
%TO.N,SCK*%
X152900000Y-79000000D02*
X154900000Y-77000000D01*
X127651471Y-79000000D02*
X152900000Y-79000000D01*
X121721471Y-84930000D02*
X127651471Y-79000000D01*
X112260000Y-84930000D02*
X121721471Y-84930000D01*
%TO.N,/NE555_Out*%
X146545988Y-62238035D02*
X146545988Y-65027934D01*
X142335887Y-69238035D02*
X146545988Y-65027934D01*
X145145988Y-58118035D02*
X145145988Y-60838035D01*
X146245988Y-57018035D02*
X145145988Y-58118035D01*
X137885988Y-69238035D02*
X142335887Y-69238035D01*
X145145988Y-60838035D02*
X146545988Y-62238035D01*
%TO.N,/Diff*%
X139681046Y-59254564D02*
X139681046Y-62292977D01*
X137048035Y-64738035D02*
X137235988Y-64738035D01*
X135045988Y-64738035D02*
X134045988Y-65738035D01*
X137235988Y-64738035D02*
X135045988Y-64738035D01*
X139681046Y-62292977D02*
X137235988Y-64738035D01*
%TO.N,/Hall_Out*%
X133181046Y-59254564D02*
X132394925Y-59254564D01*
X134045988Y-61389622D02*
X136181046Y-59254564D01*
X132394925Y-59254564D02*
X130911454Y-60738035D01*
X133181046Y-59254564D02*
X136181046Y-59254564D01*
X130911454Y-60738035D02*
X128965988Y-60738035D01*
X128965988Y-60738035D02*
X127600000Y-62104023D01*
X134045988Y-63238035D02*
X134045988Y-61389622D01*
X127600000Y-62104023D02*
X127600000Y-64520000D01*
X127600000Y-64520000D02*
X126720000Y-64520000D01*
%TO.N,/DIS_THR*%
X153865988Y-57018035D02*
X153865988Y-54478035D01*
%TO.N,/Filter1*%
X148045988Y-73658035D02*
X148125988Y-73738035D01*
X148045988Y-69238035D02*
X148045988Y-73658035D01*
%TO.N,/Rect*%
X143268705Y-59342223D02*
X143268705Y-62960752D01*
X143268705Y-59166905D02*
X143268705Y-57455318D01*
X143181046Y-59254564D02*
X143268705Y-59166905D01*
X143181046Y-59254564D02*
X143268705Y-59342223D01*
X144855988Y-64548035D02*
X144855988Y-64738035D01*
X143268705Y-62960752D02*
X144855988Y-64548035D01*
X143268705Y-57455318D02*
X146245988Y-54478035D01*
%TO.N,/Hall_Out1*%
X95200000Y-55400000D02*
X94400000Y-54600000D01*
X94400000Y-54600000D02*
X94400000Y-50200000D01*
%TO.N,High*%
X82500000Y-67400000D02*
X82500000Y-76690000D01*
X82500000Y-76690000D02*
X76820000Y-82370000D01*
X78850000Y-63750000D02*
X80350000Y-65250000D01*
X84550000Y-65250000D02*
X86050000Y-63750000D01*
X80350000Y-65250000D02*
X84550000Y-65250000D01*
X78850000Y-63750000D02*
X82500000Y-67400000D01*
%TO.N,Low*%
X75250000Y-63750000D02*
X76875000Y-62125000D01*
X82225000Y-62125000D02*
X82450000Y-62350000D01*
X82450000Y-62350000D02*
X82450000Y-63750000D01*
X76875000Y-62125000D02*
X82225000Y-62125000D01*
%TO.N,/CV1*%
X109800000Y-49200000D02*
X110300000Y-49700000D01*
X110300000Y-49700000D02*
X118000000Y-49700000D01*
X109740000Y-49200000D02*
X109800000Y-49200000D01*
%TO.N,/DIS_THR1*%
X104660000Y-49200000D02*
X107200000Y-49200000D01*
%TO.N,/Rect1*%
X100330000Y-52490000D02*
X98000000Y-52490000D01*
X104660000Y-56820000D02*
X100330000Y-52490000D01*
%TO.N,/Nano_Input1*%
X112427401Y-60000000D02*
X113328401Y-60901000D01*
X126099000Y-60901000D02*
X127200000Y-59800000D01*
X113328401Y-60901000D02*
X126099000Y-60901000D01*
%TO.N,/Filter1.1*%
X120440000Y-56400000D02*
X117040000Y-59800000D01*
X126960000Y-56400000D02*
X120440000Y-56400000D01*
%TD*%
M02*
