%TF.GenerationSoftware,KiCad,Pcbnew,9.0.0*%
%TF.CreationDate,2025-03-25T19:27:29-07:00*%
%TF.ProjectId,Speedometer,53706565-646f-46d6-9574-65722e6b6963,v1*%
%TF.SameCoordinates,Original*%
%TF.FileFunction,Legend,Bot*%
%TF.FilePolarity,Positive*%
%FSLAX46Y46*%
G04 Gerber Fmt 4.6, Leading zero omitted, Abs format (unit mm)*
G04 Created by KiCad (PCBNEW 9.0.0) date 2025-03-25 19:27:29*
%MOMM*%
%LPD*%
G01*
G04 APERTURE LIST*
%ADD10C,0.500000*%
%ADD11C,0.100000*%
G04 APERTURE END LIST*
D10*
X103223433Y-73309350D02*
X103223433Y-74737921D01*
X103223433Y-74737921D02*
X103318672Y-75023635D01*
X103318672Y-75023635D02*
X103509148Y-75214112D01*
X103509148Y-75214112D02*
X103794862Y-75309350D01*
X103794862Y-75309350D02*
X103985338Y-75309350D01*
X101413909Y-75309350D02*
X101413909Y-74261731D01*
X101413909Y-74261731D02*
X101509147Y-74071254D01*
X101509147Y-74071254D02*
X101699623Y-73976016D01*
X101699623Y-73976016D02*
X102080576Y-73976016D01*
X102080576Y-73976016D02*
X102271052Y-74071254D01*
X101413909Y-75214112D02*
X101604385Y-75309350D01*
X101604385Y-75309350D02*
X102080576Y-75309350D01*
X102080576Y-75309350D02*
X102271052Y-75214112D01*
X102271052Y-75214112D02*
X102366290Y-75023635D01*
X102366290Y-75023635D02*
X102366290Y-74833159D01*
X102366290Y-74833159D02*
X102271052Y-74642683D01*
X102271052Y-74642683D02*
X102080576Y-74547445D01*
X102080576Y-74547445D02*
X101604385Y-74547445D01*
X101604385Y-74547445D02*
X101413909Y-74452207D01*
X99604385Y-75214112D02*
X99794861Y-75309350D01*
X99794861Y-75309350D02*
X100175814Y-75309350D01*
X100175814Y-75309350D02*
X100366290Y-75214112D01*
X100366290Y-75214112D02*
X100461528Y-75118873D01*
X100461528Y-75118873D02*
X100556766Y-74928397D01*
X100556766Y-74928397D02*
X100556766Y-74356969D01*
X100556766Y-74356969D02*
X100461528Y-74166492D01*
X100461528Y-74166492D02*
X100366290Y-74071254D01*
X100366290Y-74071254D02*
X100175814Y-73976016D01*
X100175814Y-73976016D02*
X99794861Y-73976016D01*
X99794861Y-73976016D02*
X99604385Y-74071254D01*
X98747242Y-75309350D02*
X98747242Y-73309350D01*
X98556766Y-74547445D02*
X97985337Y-75309350D01*
X97985337Y-73976016D02*
X98747242Y-74737921D01*
X95890098Y-73309350D02*
X94747241Y-73309350D01*
X95318670Y-75309350D02*
X95318670Y-73309350D01*
X93223431Y-75309350D02*
X93223431Y-74261731D01*
X93223431Y-74261731D02*
X93318669Y-74071254D01*
X93318669Y-74071254D02*
X93509145Y-73976016D01*
X93509145Y-73976016D02*
X93890098Y-73976016D01*
X93890098Y-73976016D02*
X94080574Y-74071254D01*
X93223431Y-75214112D02*
X93413907Y-75309350D01*
X93413907Y-75309350D02*
X93890098Y-75309350D01*
X93890098Y-75309350D02*
X94080574Y-75214112D01*
X94080574Y-75214112D02*
X94175812Y-75023635D01*
X94175812Y-75023635D02*
X94175812Y-74833159D01*
X94175812Y-74833159D02*
X94080574Y-74642683D01*
X94080574Y-74642683D02*
X93890098Y-74547445D01*
X93890098Y-74547445D02*
X93413907Y-74547445D01*
X93413907Y-74547445D02*
X93223431Y-74452207D01*
X92271050Y-73976016D02*
X92271050Y-75309350D01*
X92271050Y-74166492D02*
X92175812Y-74071254D01*
X92175812Y-74071254D02*
X91985336Y-73976016D01*
X91985336Y-73976016D02*
X91699621Y-73976016D01*
X91699621Y-73976016D02*
X91509145Y-74071254D01*
X91509145Y-74071254D02*
X91413907Y-74261731D01*
X91413907Y-74261731D02*
X91413907Y-75309350D01*
X90461526Y-73976016D02*
X90461526Y-75309350D01*
X90461526Y-74166492D02*
X90366288Y-74071254D01*
X90366288Y-74071254D02*
X90175812Y-73976016D01*
X90175812Y-73976016D02*
X89890097Y-73976016D01*
X89890097Y-73976016D02*
X89699621Y-74071254D01*
X89699621Y-74071254D02*
X89604383Y-74261731D01*
X89604383Y-74261731D02*
X89604383Y-75309350D01*
X87890097Y-75214112D02*
X88080573Y-75309350D01*
X88080573Y-75309350D02*
X88461526Y-75309350D01*
X88461526Y-75309350D02*
X88652002Y-75214112D01*
X88652002Y-75214112D02*
X88747240Y-75023635D01*
X88747240Y-75023635D02*
X88747240Y-74261731D01*
X88747240Y-74261731D02*
X88652002Y-74071254D01*
X88652002Y-74071254D02*
X88461526Y-73976016D01*
X88461526Y-73976016D02*
X88080573Y-73976016D01*
X88080573Y-73976016D02*
X87890097Y-74071254D01*
X87890097Y-74071254D02*
X87794859Y-74261731D01*
X87794859Y-74261731D02*
X87794859Y-74452207D01*
X87794859Y-74452207D02*
X88747240Y-74642683D01*
X86937716Y-75309350D02*
X86937716Y-73976016D01*
X86937716Y-74356969D02*
X86842478Y-74166492D01*
X86842478Y-74166492D02*
X86747240Y-74071254D01*
X86747240Y-74071254D02*
X86556764Y-73976016D01*
X86556764Y-73976016D02*
X86366287Y-73976016D01*
X103128195Y-77481619D02*
X102842481Y-77576857D01*
X102842481Y-77576857D02*
X102747243Y-77672095D01*
X102747243Y-77672095D02*
X102652005Y-77862571D01*
X102652005Y-77862571D02*
X102652005Y-78148285D01*
X102652005Y-78148285D02*
X102747243Y-78338761D01*
X102747243Y-78338761D02*
X102842481Y-78434000D01*
X102842481Y-78434000D02*
X103032957Y-78529238D01*
X103032957Y-78529238D02*
X103794862Y-78529238D01*
X103794862Y-78529238D02*
X103794862Y-76529238D01*
X103794862Y-76529238D02*
X103128195Y-76529238D01*
X103128195Y-76529238D02*
X102937719Y-76624476D01*
X102937719Y-76624476D02*
X102842481Y-76719714D01*
X102842481Y-76719714D02*
X102747243Y-76910190D01*
X102747243Y-76910190D02*
X102747243Y-77100666D01*
X102747243Y-77100666D02*
X102842481Y-77291142D01*
X102842481Y-77291142D02*
X102937719Y-77386380D01*
X102937719Y-77386380D02*
X103128195Y-77481619D01*
X103128195Y-77481619D02*
X103794862Y-77481619D01*
X100937719Y-78529238D02*
X100937719Y-77481619D01*
X100937719Y-77481619D02*
X101032957Y-77291142D01*
X101032957Y-77291142D02*
X101223433Y-77195904D01*
X101223433Y-77195904D02*
X101604386Y-77195904D01*
X101604386Y-77195904D02*
X101794862Y-77291142D01*
X100937719Y-78434000D02*
X101128195Y-78529238D01*
X101128195Y-78529238D02*
X101604386Y-78529238D01*
X101604386Y-78529238D02*
X101794862Y-78434000D01*
X101794862Y-78434000D02*
X101890100Y-78243523D01*
X101890100Y-78243523D02*
X101890100Y-78053047D01*
X101890100Y-78053047D02*
X101794862Y-77862571D01*
X101794862Y-77862571D02*
X101604386Y-77767333D01*
X101604386Y-77767333D02*
X101128195Y-77767333D01*
X101128195Y-77767333D02*
X100937719Y-77672095D01*
X99985338Y-77195904D02*
X99985338Y-78910190D01*
X99985338Y-78910190D02*
X100080576Y-79100666D01*
X100080576Y-79100666D02*
X100271052Y-79195904D01*
X100271052Y-79195904D02*
X100366290Y-79195904D01*
X99985338Y-76529238D02*
X100080576Y-76624476D01*
X100080576Y-76624476D02*
X99985338Y-76719714D01*
X99985338Y-76719714D02*
X99890100Y-76624476D01*
X99890100Y-76624476D02*
X99985338Y-76529238D01*
X99985338Y-76529238D02*
X99985338Y-76719714D01*
X98175814Y-78529238D02*
X98175814Y-77481619D01*
X98175814Y-77481619D02*
X98271052Y-77291142D01*
X98271052Y-77291142D02*
X98461528Y-77195904D01*
X98461528Y-77195904D02*
X98842481Y-77195904D01*
X98842481Y-77195904D02*
X99032957Y-77291142D01*
X98175814Y-78434000D02*
X98366290Y-78529238D01*
X98366290Y-78529238D02*
X98842481Y-78529238D01*
X98842481Y-78529238D02*
X99032957Y-78434000D01*
X99032957Y-78434000D02*
X99128195Y-78243523D01*
X99128195Y-78243523D02*
X99128195Y-78053047D01*
X99128195Y-78053047D02*
X99032957Y-77862571D01*
X99032957Y-77862571D02*
X98842481Y-77767333D01*
X98842481Y-77767333D02*
X98366290Y-77767333D01*
X98366290Y-77767333D02*
X98175814Y-77672095D01*
X95794861Y-76719714D02*
X95699623Y-76624476D01*
X95699623Y-76624476D02*
X95509147Y-76529238D01*
X95509147Y-76529238D02*
X95032956Y-76529238D01*
X95032956Y-76529238D02*
X94842480Y-76624476D01*
X94842480Y-76624476D02*
X94747242Y-76719714D01*
X94747242Y-76719714D02*
X94652004Y-76910190D01*
X94652004Y-76910190D02*
X94652004Y-77100666D01*
X94652004Y-77100666D02*
X94747242Y-77386380D01*
X94747242Y-77386380D02*
X95890099Y-78529238D01*
X95890099Y-78529238D02*
X94652004Y-78529238D01*
X93413909Y-76529238D02*
X93223432Y-76529238D01*
X93223432Y-76529238D02*
X93032956Y-76624476D01*
X93032956Y-76624476D02*
X92937718Y-76719714D01*
X92937718Y-76719714D02*
X92842480Y-76910190D01*
X92842480Y-76910190D02*
X92747242Y-77291142D01*
X92747242Y-77291142D02*
X92747242Y-77767333D01*
X92747242Y-77767333D02*
X92842480Y-78148285D01*
X92842480Y-78148285D02*
X92937718Y-78338761D01*
X92937718Y-78338761D02*
X93032956Y-78434000D01*
X93032956Y-78434000D02*
X93223432Y-78529238D01*
X93223432Y-78529238D02*
X93413909Y-78529238D01*
X93413909Y-78529238D02*
X93604385Y-78434000D01*
X93604385Y-78434000D02*
X93699623Y-78338761D01*
X93699623Y-78338761D02*
X93794861Y-78148285D01*
X93794861Y-78148285D02*
X93890099Y-77767333D01*
X93890099Y-77767333D02*
X93890099Y-77291142D01*
X93890099Y-77291142D02*
X93794861Y-76910190D01*
X93794861Y-76910190D02*
X93699623Y-76719714D01*
X93699623Y-76719714D02*
X93604385Y-76624476D01*
X93604385Y-76624476D02*
X93413909Y-76529238D01*
X91985337Y-76719714D02*
X91890099Y-76624476D01*
X91890099Y-76624476D02*
X91699623Y-76529238D01*
X91699623Y-76529238D02*
X91223432Y-76529238D01*
X91223432Y-76529238D02*
X91032956Y-76624476D01*
X91032956Y-76624476D02*
X90937718Y-76719714D01*
X90937718Y-76719714D02*
X90842480Y-76910190D01*
X90842480Y-76910190D02*
X90842480Y-77100666D01*
X90842480Y-77100666D02*
X90937718Y-77386380D01*
X90937718Y-77386380D02*
X92080575Y-78529238D01*
X92080575Y-78529238D02*
X90842480Y-78529238D01*
X89128194Y-77195904D02*
X89128194Y-78529238D01*
X89604385Y-76434000D02*
X90080575Y-77862571D01*
X90080575Y-77862571D02*
X88842480Y-77862571D01*
X88080575Y-77767333D02*
X86556766Y-77767333D01*
X85699623Y-76719714D02*
X85604385Y-76624476D01*
X85604385Y-76624476D02*
X85413909Y-76529238D01*
X85413909Y-76529238D02*
X84937718Y-76529238D01*
X84937718Y-76529238D02*
X84747242Y-76624476D01*
X84747242Y-76624476D02*
X84652004Y-76719714D01*
X84652004Y-76719714D02*
X84556766Y-76910190D01*
X84556766Y-76910190D02*
X84556766Y-77100666D01*
X84556766Y-77100666D02*
X84652004Y-77386380D01*
X84652004Y-77386380D02*
X85794861Y-78529238D01*
X85794861Y-78529238D02*
X84556766Y-78529238D01*
X83318671Y-76529238D02*
X83128194Y-76529238D01*
X83128194Y-76529238D02*
X82937718Y-76624476D01*
X82937718Y-76624476D02*
X82842480Y-76719714D01*
X82842480Y-76719714D02*
X82747242Y-76910190D01*
X82747242Y-76910190D02*
X82652004Y-77291142D01*
X82652004Y-77291142D02*
X82652004Y-77767333D01*
X82652004Y-77767333D02*
X82747242Y-78148285D01*
X82747242Y-78148285D02*
X82842480Y-78338761D01*
X82842480Y-78338761D02*
X82937718Y-78434000D01*
X82937718Y-78434000D02*
X83128194Y-78529238D01*
X83128194Y-78529238D02*
X83318671Y-78529238D01*
X83318671Y-78529238D02*
X83509147Y-78434000D01*
X83509147Y-78434000D02*
X83604385Y-78338761D01*
X83604385Y-78338761D02*
X83699623Y-78148285D01*
X83699623Y-78148285D02*
X83794861Y-77767333D01*
X83794861Y-77767333D02*
X83794861Y-77291142D01*
X83794861Y-77291142D02*
X83699623Y-76910190D01*
X83699623Y-76910190D02*
X83604385Y-76719714D01*
X83604385Y-76719714D02*
X83509147Y-76624476D01*
X83509147Y-76624476D02*
X83318671Y-76529238D01*
X81890099Y-76719714D02*
X81794861Y-76624476D01*
X81794861Y-76624476D02*
X81604385Y-76529238D01*
X81604385Y-76529238D02*
X81128194Y-76529238D01*
X81128194Y-76529238D02*
X80937718Y-76624476D01*
X80937718Y-76624476D02*
X80842480Y-76719714D01*
X80842480Y-76719714D02*
X80747242Y-76910190D01*
X80747242Y-76910190D02*
X80747242Y-77100666D01*
X80747242Y-77100666D02*
X80842480Y-77386380D01*
X80842480Y-77386380D02*
X81985337Y-78529238D01*
X81985337Y-78529238D02*
X80747242Y-78529238D01*
X78937718Y-76529238D02*
X79890099Y-76529238D01*
X79890099Y-76529238D02*
X79985337Y-77481619D01*
X79985337Y-77481619D02*
X79890099Y-77386380D01*
X79890099Y-77386380D02*
X79699623Y-77291142D01*
X79699623Y-77291142D02*
X79223432Y-77291142D01*
X79223432Y-77291142D02*
X79032956Y-77386380D01*
X79032956Y-77386380D02*
X78937718Y-77481619D01*
X78937718Y-77481619D02*
X78842480Y-77672095D01*
X78842480Y-77672095D02*
X78842480Y-78148285D01*
X78842480Y-78148285D02*
X78937718Y-78338761D01*
X78937718Y-78338761D02*
X79032956Y-78434000D01*
X79032956Y-78434000D02*
X79223432Y-78529238D01*
X79223432Y-78529238D02*
X79699623Y-78529238D01*
X79699623Y-78529238D02*
X79890099Y-78434000D01*
X79890099Y-78434000D02*
X79985337Y-78338761D01*
D11*
X70727419Y-83244286D02*
X71536942Y-83244286D01*
X71536942Y-83244286D02*
X71632180Y-83291905D01*
X71632180Y-83291905D02*
X71679800Y-83339524D01*
X71679800Y-83339524D02*
X71727419Y-83434762D01*
X71727419Y-83434762D02*
X71727419Y-83625238D01*
X71727419Y-83625238D02*
X71679800Y-83720476D01*
X71679800Y-83720476D02*
X71632180Y-83768095D01*
X71632180Y-83768095D02*
X71536942Y-83815714D01*
X71536942Y-83815714D02*
X70727419Y-83815714D01*
X71727419Y-84291905D02*
X70727419Y-84291905D01*
X70727419Y-84291905D02*
X71727419Y-84863333D01*
X71727419Y-84863333D02*
X70727419Y-84863333D01*
X71727419Y-85339524D02*
X70727419Y-85339524D01*
X70727419Y-85672857D02*
X70727419Y-86244285D01*
X71727419Y-85958571D02*
X70727419Y-85958571D01*
X71822657Y-86339524D02*
X71822657Y-87101428D01*
X71727419Y-87863333D02*
X71727419Y-87291905D01*
X71727419Y-87577619D02*
X70727419Y-87577619D01*
X70727419Y-87577619D02*
X70870276Y-87482381D01*
X70870276Y-87482381D02*
X70965514Y-87387143D01*
X70965514Y-87387143D02*
X71013133Y-87291905D01*
M02*
