%TF.GenerationSoftware,KiCad,Pcbnew,8.0.8-8.0.8-0~ubuntu24.04.1*%
%TF.CreationDate,2025-02-02T19:30:22-07:00*%
%TF.ProjectId,Speedometer,53706565-646f-46d6-9574-65722e6b6963,v1*%
%TF.SameCoordinates,Original*%
%TF.FileFunction,Copper,L1,Top*%
%TF.FilePolarity,Positive*%
%FSLAX46Y46*%
G04 Gerber Fmt 4.6, Leading zero omitted, Abs format (unit mm)*
G04 Created by KiCad (PCBNEW 8.0.8-8.0.8-0~ubuntu24.04.1) date 2025-02-02 19:30:22*
%MOMM*%
%LPD*%
G01*
G04 APERTURE LIST*
G04 Aperture macros list*
%AMRoundRect*
0 Rectangle with rounded corners*
0 $1 Rounding radius*
0 $2 $3 $4 $5 $6 $7 $8 $9 X,Y pos of 4 corners*
0 Add a 4 corners polygon primitive as box body*
4,1,4,$2,$3,$4,$5,$6,$7,$8,$9,$2,$3,0*
0 Add four circle primitives for the rounded corners*
1,1,$1+$1,$2,$3*
1,1,$1+$1,$4,$5*
1,1,$1+$1,$6,$7*
1,1,$1+$1,$8,$9*
0 Add four rect primitives between the rounded corners*
20,1,$1+$1,$2,$3,$4,$5,0*
20,1,$1+$1,$4,$5,$6,$7,0*
20,1,$1+$1,$6,$7,$8,$9,0*
20,1,$1+$1,$8,$9,$2,$3,0*%
G04 Aperture macros list end*
%TA.AperFunction,ComponentPad*%
%ADD10R,1.800000X1.800000*%
%TD*%
%TA.AperFunction,ComponentPad*%
%ADD11C,1.800000*%
%TD*%
%TA.AperFunction,ComponentPad*%
%ADD12C,1.600000*%
%TD*%
%TA.AperFunction,ComponentPad*%
%ADD13O,1.600000X1.600000*%
%TD*%
%TA.AperFunction,ComponentPad*%
%ADD14R,1.200000X1.200000*%
%TD*%
%TA.AperFunction,ComponentPad*%
%ADD15C,1.200000*%
%TD*%
%TA.AperFunction,ComponentPad*%
%ADD16O,2.400000X2.400000*%
%TD*%
%TA.AperFunction,ComponentPad*%
%ADD17C,2.400000*%
%TD*%
%TA.AperFunction,ComponentPad*%
%ADD18RoundRect,0.249999X-1.025001X-1.025001X1.025001X-1.025001X1.025001X1.025001X-1.025001X1.025001X0*%
%TD*%
%TA.AperFunction,ComponentPad*%
%ADD19C,2.550000*%
%TD*%
%TA.AperFunction,ComponentPad*%
%ADD20R,1.600000X1.600000*%
%TD*%
%TA.AperFunction,ComponentPad*%
%ADD21R,2.200000X2.200000*%
%TD*%
%TA.AperFunction,ComponentPad*%
%ADD22O,2.200000X2.200000*%
%TD*%
%TA.AperFunction,ComponentPad*%
%ADD23O,2.200000X1.100000*%
%TD*%
%TA.AperFunction,Conductor*%
%ADD24C,0.200000*%
%TD*%
G04 APERTURE END LIST*
D10*
%TO.P,UNIT_1,1,INT*%
%TO.N,unconnected-(UNIT_1-INT-Pad1)*%
X112500000Y-71760000D03*
D11*
%TO.P,UNIT_1,2,SCK*%
%TO.N,SCK*%
X112500000Y-74300000D03*
%TO.P,UNIT_1,3,SI*%
%TO.N,SI*%
X112500000Y-76840000D03*
%TO.P,UNIT_1,4,SO*%
%TO.N,SO*%
X112500000Y-79380000D03*
%TO.P,UNIT_1,5,CS*%
%TO.N,CS*%
X112500000Y-81920000D03*
%TO.P,UNIT_1,6,GND*%
%TO.N,GND*%
X112500000Y-84460000D03*
%TO.P,UNIT_1,7,VCC*%
%TO.N,+5V*%
X112500000Y-87000000D03*
%TD*%
D10*
%TO.P,D1,1,K*%
%TO.N,Net-(D1-K)*%
X126040000Y-54500000D03*
D11*
%TO.P,D1,2,A*%
%TO.N,+5V*%
X123500000Y-54500000D03*
%TD*%
D12*
%TO.P,C2,1*%
%TO.N,+5V*%
X118000000Y-62500000D03*
%TO.P,C2,2*%
%TO.N,GND*%
X120500000Y-62500000D03*
%TD*%
%TO.P,R1,1*%
%TO.N,Net-(D1-K)*%
X129000000Y-49340000D03*
D13*
%TO.P,R1,2*%
%TO.N,/Hall_Out*%
X129000000Y-59500000D03*
%TD*%
D12*
%TO.P,R3,1*%
%TO.N,+5V*%
X135500000Y-49340000D03*
D13*
%TO.P,R3,2*%
%TO.N,/Diff*%
X135500000Y-59500000D03*
%TD*%
D14*
%TO.P,C1,1*%
%TO.N,+5V*%
X118500000Y-58000000D03*
D15*
%TO.P,C1,2*%
%TO.N,GND*%
X120500000Y-58000000D03*
%TD*%
D16*
%TO.P,R7,2*%
%TO.N,/Filter1*%
X149120000Y-68000000D03*
D17*
%TO.P,R7,1*%
%TO.N,/NE555_Out*%
X133880000Y-68000000D03*
%TD*%
D12*
%TO.P,C3,1*%
%TO.N,/Hall_Out*%
X132000000Y-62000000D03*
%TO.P,C3,2*%
%TO.N,/Diff*%
X132000000Y-64500000D03*
%TD*%
%TO.P,R2,1*%
%TO.N,+5V*%
X132000000Y-49340000D03*
D13*
%TO.P,R2,2*%
%TO.N,/Hall_Out*%
X132000000Y-59500000D03*
%TD*%
D12*
%TO.P,R5,1*%
%TO.N,+5V*%
X158500000Y-59500000D03*
D13*
%TO.P,R5,2*%
%TO.N,Net-(R5-Pad2)*%
X158500000Y-49340000D03*
%TD*%
D14*
%TO.P,C6,1*%
%TO.N,/Filter1*%
X152500000Y-70500000D03*
D15*
%TO.P,C6,2*%
%TO.N,GND*%
X154500000Y-70500000D03*
%TD*%
D12*
%TO.P,R6,1*%
%TO.N,Net-(R5-Pad2)*%
X155000000Y-49340000D03*
D13*
%TO.P,R6,2*%
%TO.N,/DIS_THR*%
X155000000Y-59500000D03*
%TD*%
D18*
%TO.P,J4,1,Pin_1*%
%TO.N,GND*%
X119250000Y-68500000D03*
D19*
%TO.P,J4,2,Pin_2*%
%TO.N,+5V*%
X124050000Y-68500000D03*
%TD*%
D12*
%TO.P,C4,1*%
%TO.N,GND*%
X147020000Y-63500000D03*
%TO.P,C4,2*%
%TO.N,/CV*%
X149520000Y-63500000D03*
%TD*%
D20*
%TO.P,U2,1,GND*%
%TO.N,GND*%
X144200000Y-50700000D03*
D13*
%TO.P,U2,2,TR*%
%TO.N,/Rect*%
X144200000Y-53240000D03*
%TO.P,U2,3,Q*%
%TO.N,/NE555_Out*%
X144200000Y-55780000D03*
%TO.P,U2,4,R*%
%TO.N,+5V*%
X144200000Y-58320000D03*
%TO.P,U2,5,CV*%
%TO.N,/CV*%
X151820000Y-58320000D03*
%TO.P,U2,6,THR*%
%TO.N,/DIS_THR*%
X151820000Y-55780000D03*
%TO.P,U2,7,DIS*%
X151820000Y-53240000D03*
%TO.P,U2,8,VCC*%
%TO.N,+5V*%
X151820000Y-50700000D03*
%TD*%
D21*
%TO.P,D2,1,K*%
%TO.N,/Diff*%
X135190000Y-63500000D03*
D22*
%TO.P,D2,2,A*%
%TO.N,/Rect*%
X142810000Y-63500000D03*
%TD*%
D17*
%TO.P,R8,1*%
%TO.N,/Filter1*%
X149120000Y-72500000D03*
D16*
%TO.P,R8,2*%
%TO.N,/Nano_Input*%
X133880000Y-72500000D03*
%TD*%
D23*
%TO.P,U1,1,Vcc*%
%TO.N,+5V*%
X123500000Y-58960000D03*
%TO.P,U1,2,GND*%
%TO.N,GND*%
X123500000Y-60230000D03*
%TO.P,U1,3,OUT*%
%TO.N,/Hall_Out*%
X123500000Y-61500000D03*
%TD*%
D12*
%TO.P,R4,1*%
%TO.N,+5V*%
X139000000Y-49340000D03*
D13*
%TO.P,R4,2*%
%TO.N,/Rect*%
X139000000Y-59500000D03*
%TD*%
D14*
%TO.P,C7,1*%
%TO.N,/Nano_Input*%
X131000000Y-70500000D03*
D15*
%TO.P,C7,2*%
%TO.N,GND*%
X129000000Y-70500000D03*
%TD*%
D20*
%TO.P,C5,1*%
%TO.N,/DIS_THR*%
X156000000Y-63817621D03*
D12*
%TO.P,C5,2*%
%TO.N,GND*%
X156000000Y-66317621D03*
%TD*%
D20*
%TO.P,UNIT_2,1,D1/TX*%
%TO.N,unconnected-(UNIT_2-D1{slash}TX-Pad1)*%
X119340000Y-92240000D03*
D13*
%TO.P,UNIT_2,2,D0/RX*%
%TO.N,unconnected-(UNIT_2-D0{slash}RX-Pad2)*%
X121880000Y-92240000D03*
%TO.P,UNIT_2,3,RESET*%
%TO.N,unconnected-(UNIT_2-RESET-Pad3)*%
X124420000Y-92240000D03*
%TO.P,UNIT_2,4,COM/GND*%
%TO.N,GND*%
X126960000Y-92240000D03*
%TO.P,UNIT_2,5,D2*%
%TO.N,unconnected-(UNIT_2-D2-Pad5)*%
X129500000Y-92240000D03*
%TO.P,UNIT_2,6,D3*%
%TO.N,unconnected-(UNIT_2-D3-Pad6)*%
X132040000Y-92240000D03*
%TO.P,UNIT_2,7,D4*%
%TO.N,unconnected-(UNIT_2-D4-Pad7)*%
X134580000Y-92240000D03*
%TO.P,UNIT_2,8,D5*%
%TO.N,unconnected-(UNIT_2-D5-Pad8)*%
X137120000Y-92240000D03*
%TO.P,UNIT_2,9,D6*%
%TO.N,unconnected-(UNIT_2-D6-Pad9)*%
X139660000Y-92240000D03*
%TO.P,UNIT_2,10,D7*%
%TO.N,unconnected-(UNIT_2-D7-Pad10)*%
X142200000Y-92240000D03*
%TO.P,UNIT_2,11,D8*%
%TO.N,unconnected-(UNIT_2-D8-Pad11)*%
X144740000Y-92240000D03*
%TO.P,UNIT_2,12,D9*%
%TO.N,unconnected-(UNIT_2-D9-Pad12)*%
X147280000Y-92240000D03*
%TO.P,UNIT_2,13,D10*%
%TO.N,CS*%
X149820000Y-92240000D03*
%TO.P,UNIT_2,14,D11/MOSI*%
%TO.N,SI*%
X152360000Y-92240000D03*
%TO.P,UNIT_2,15,D12/MISO*%
%TO.N,SO*%
X154900000Y-92240000D03*
%TO.P,UNIT_2,16,D13/SCK*%
%TO.N,SCK*%
X154900000Y-77000000D03*
%TO.P,UNIT_2,17,3V3*%
%TO.N,unconnected-(UNIT_2-3V3-Pad17)*%
X152360000Y-77000000D03*
%TO.P,UNIT_2,18,AREF*%
%TO.N,unconnected-(UNIT_2-AREF-Pad18)*%
X149820000Y-77000000D03*
%TO.P,UNIT_2,19,A0*%
%TO.N,/Nano_Input*%
X147280000Y-77000000D03*
%TO.P,UNIT_2,20,A1*%
%TO.N,unconnected-(UNIT_2-A1-Pad20)*%
X144740000Y-77000000D03*
%TO.P,UNIT_2,21,A2*%
%TO.N,unconnected-(UNIT_2-A2-Pad21)*%
X142200000Y-77000000D03*
%TO.P,UNIT_2,22,A3*%
%TO.N,unconnected-(UNIT_2-A3-Pad22)*%
X139660000Y-77000000D03*
%TO.P,UNIT_2,23,A4*%
%TO.N,unconnected-(UNIT_2-A4-Pad23)*%
X137120000Y-77000000D03*
%TO.P,UNIT_2,24,A5*%
%TO.N,unconnected-(UNIT_2-A5-Pad24)*%
X134580000Y-77000000D03*
%TO.P,UNIT_2,25,A6*%
%TO.N,unconnected-(UNIT_2-A6-Pad25)*%
X132040000Y-77000000D03*
%TO.P,UNIT_2,26,A7*%
%TO.N,unconnected-(UNIT_2-A7-Pad26)*%
X129500000Y-77000000D03*
%TO.P,UNIT_2,27,+5V*%
%TO.N,+5V*%
X126960000Y-77000000D03*
%TO.P,UNIT_2,28,RESET*%
%TO.N,unconnected-(UNIT_2-RESET-Pad28)*%
X124420000Y-77000000D03*
%TO.P,UNIT_2,29,COM/GND*%
%TO.N,GND*%
X121880000Y-77000000D03*
%TO.P,UNIT_2,30,VIN*%
%TO.N,unconnected-(UNIT_2-VIN-Pad30)*%
X119340000Y-77000000D03*
%TD*%
D24*
%TO.N,+5V*%
X123500000Y-54500000D02*
X124700000Y-55700000D01*
X124700000Y-55700000D02*
X130050000Y-55700000D01*
X130050000Y-55700000D02*
X132000000Y-53750000D01*
X132000000Y-53750000D02*
X132000000Y-49340000D01*
X122500000Y-68500000D02*
X124050000Y-68500000D01*
X112500000Y-87000000D02*
X111300000Y-85800000D01*
X118000000Y-64000000D02*
X122500000Y-68500000D01*
X124050000Y-68500000D02*
X124300000Y-68750000D01*
X111300000Y-73802943D02*
X112102943Y-73000000D01*
X119550000Y-73000000D02*
X124050000Y-68500000D01*
X112102943Y-73000000D02*
X119550000Y-73000000D01*
X111300000Y-85800000D02*
X111300000Y-73802943D01*
X118000000Y-62500000D02*
X118000000Y-64000000D01*
X124300000Y-68750000D02*
X124300000Y-74340000D01*
X124300000Y-74340000D02*
X126960000Y-77000000D01*
%TO.N,/Nano_Input*%
X133880000Y-72500000D02*
X142780000Y-72500000D01*
%TO.N,/Filter1*%
X149120000Y-68000000D02*
X149120000Y-72500000D01*
%TO.N,+5V*%
X141460000Y-51800000D02*
X139000000Y-49340000D01*
X135500000Y-49340000D02*
X139000000Y-49340000D01*
X132000000Y-49340000D02*
X135500000Y-49340000D01*
%TO.N,Net-(D1-K)*%
X129000000Y-51540000D02*
X129000000Y-49340000D01*
%TO.N,Net-(R5-Pad2)*%
X155000000Y-49340000D02*
X158500000Y-49340000D01*
%TO.N,CS*%
X112500000Y-81920000D02*
X139500000Y-81920000D01*
X139500000Y-81920000D02*
X149820000Y-92240000D01*
%TO.N,SO*%
X112500000Y-79380000D02*
X138855635Y-79380000D01*
X138855635Y-79380000D02*
X151260000Y-91784365D01*
X151260000Y-91784365D02*
X151260000Y-92695635D01*
X151260000Y-92695635D02*
X151904365Y-93340000D01*
X151904365Y-93340000D02*
X153800000Y-93340000D01*
X153800000Y-93340000D02*
X154900000Y-92240000D01*
%TO.N,SI*%
X112500000Y-76840000D02*
X114160000Y-78500000D01*
X114160000Y-78500000D02*
X138620000Y-78500000D01*
X138620000Y-78500000D02*
X152360000Y-92240000D01*
%TO.N,SCK*%
X112500000Y-74300000D02*
X116300000Y-78100000D01*
X116300000Y-78100000D02*
X153800000Y-78100000D01*
X153800000Y-78100000D02*
X154900000Y-77000000D01*
%TO.N,Net-(D1-K)*%
X129000000Y-51540000D02*
X126040000Y-54500000D01*
%TO.N,+5V*%
X158500000Y-57380000D02*
X151820000Y-50700000D01*
X144200000Y-58320000D02*
X145300000Y-57220000D01*
X144800000Y-51800000D02*
X141460000Y-51800000D01*
X151820000Y-50700000D02*
X147100000Y-50700000D01*
X145300000Y-57220000D02*
X145300000Y-52500000D01*
X138920000Y-49420000D02*
X139000000Y-49340000D01*
X145300000Y-52500000D02*
X145300000Y-52300000D01*
X123500000Y-54500000D02*
X123500000Y-58960000D01*
X118500000Y-58000000D02*
X118500000Y-62000000D01*
X147100000Y-50700000D02*
X145300000Y-52500000D01*
X122000000Y-54500000D02*
X123500000Y-54500000D01*
X118500000Y-58000000D02*
X122000000Y-54500000D01*
X118500000Y-62000000D02*
X118000000Y-62500000D01*
X145300000Y-52300000D02*
X144800000Y-51800000D01*
X158500000Y-59500000D02*
X158500000Y-57380000D01*
%TO.N,Net-(R5-Pad2)*%
X155160000Y-49340000D02*
X155000000Y-49500000D01*
%TO.N,/NE555_Out*%
X144500000Y-61000000D02*
X144500000Y-63789899D01*
X143100000Y-56880000D02*
X143100000Y-59600000D01*
X144500000Y-63789899D02*
X140289899Y-68000000D01*
X144200000Y-55780000D02*
X143100000Y-56880000D01*
X140289899Y-68000000D02*
X133880000Y-68000000D01*
X143100000Y-59600000D02*
X144500000Y-61000000D01*
%TO.N,/Diff*%
X133000000Y-63500000D02*
X132000000Y-64500000D01*
X135190000Y-63500000D02*
X133000000Y-63500000D01*
X135500000Y-63190000D02*
X135190000Y-63500000D01*
X135500000Y-59580000D02*
X135500000Y-63190000D01*
%TO.N,/Hall_Out*%
X129000000Y-59580000D02*
X127080000Y-61500000D01*
X127080000Y-61500000D02*
X123500000Y-61500000D01*
X129000000Y-59580000D02*
X132000000Y-59580000D01*
X132000000Y-59580000D02*
X132000000Y-62000000D01*
%TO.N,/CV*%
X149500000Y-63500000D02*
X149500000Y-60640000D01*
X149500000Y-60640000D02*
X151820000Y-58320000D01*
%TO.N,/DIS_THR*%
X156000000Y-60660000D02*
X155000000Y-59660000D01*
X151820000Y-55780000D02*
X155000000Y-58960000D01*
X151820000Y-55780000D02*
X151820000Y-53240000D01*
X155000000Y-58960000D02*
X155000000Y-59660000D01*
X156000000Y-63817621D02*
X156000000Y-60660000D01*
%TO.N,/Filter1*%
X151620000Y-70500000D02*
X149120000Y-68000000D01*
X152500000Y-70500000D02*
X151620000Y-70500000D01*
X149120000Y-72380000D02*
X149000000Y-72500000D01*
%TO.N,/Nano_Input*%
X133760000Y-72500000D02*
X131760000Y-70500000D01*
X131760000Y-70500000D02*
X131000000Y-70500000D01*
X142780000Y-72500000D02*
X147280000Y-77000000D01*
%TO.N,/Rect*%
X142810000Y-63310000D02*
X142810000Y-63500000D01*
X139000000Y-58440000D02*
X144200000Y-53240000D01*
X139000000Y-59500000D02*
X139000000Y-58440000D01*
X139000000Y-59500000D02*
X142810000Y-63310000D01*
%TD*%
M02*
