%TF.GenerationSoftware,KiCad,Pcbnew,8.0.8-8.0.8-0~ubuntu24.04.1*%
%TF.CreationDate,2025-02-02T19:30:22-07:00*%
%TF.ProjectId,Speedometer,53706565-646f-46d6-9574-65722e6b6963,v1*%
%TF.SameCoordinates,Original*%
%TF.FileFunction,Legend,Bot*%
%TF.FilePolarity,Positive*%
%FSLAX46Y46*%
G04 Gerber Fmt 4.6, Leading zero omitted, Abs format (unit mm)*
G04 Created by KiCad (PCBNEW 8.0.8-8.0.8-0~ubuntu24.04.1) date 2025-02-02 19:30:22*
%MOMM*%
%LPD*%
G01*
G04 APERTURE LIST*
%ADD10C,0.500000*%
G04 APERTURE END LIST*
D10*
X101733433Y-73519350D02*
X101733433Y-74947921D01*
X101733433Y-74947921D02*
X101828672Y-75233635D01*
X101828672Y-75233635D02*
X102019148Y-75424112D01*
X102019148Y-75424112D02*
X102304862Y-75519350D01*
X102304862Y-75519350D02*
X102495338Y-75519350D01*
X99923909Y-75519350D02*
X99923909Y-74471731D01*
X99923909Y-74471731D02*
X100019147Y-74281254D01*
X100019147Y-74281254D02*
X100209623Y-74186016D01*
X100209623Y-74186016D02*
X100590576Y-74186016D01*
X100590576Y-74186016D02*
X100781052Y-74281254D01*
X99923909Y-75424112D02*
X100114385Y-75519350D01*
X100114385Y-75519350D02*
X100590576Y-75519350D01*
X100590576Y-75519350D02*
X100781052Y-75424112D01*
X100781052Y-75424112D02*
X100876290Y-75233635D01*
X100876290Y-75233635D02*
X100876290Y-75043159D01*
X100876290Y-75043159D02*
X100781052Y-74852683D01*
X100781052Y-74852683D02*
X100590576Y-74757445D01*
X100590576Y-74757445D02*
X100114385Y-74757445D01*
X100114385Y-74757445D02*
X99923909Y-74662207D01*
X98114385Y-75424112D02*
X98304861Y-75519350D01*
X98304861Y-75519350D02*
X98685814Y-75519350D01*
X98685814Y-75519350D02*
X98876290Y-75424112D01*
X98876290Y-75424112D02*
X98971528Y-75328873D01*
X98971528Y-75328873D02*
X99066766Y-75138397D01*
X99066766Y-75138397D02*
X99066766Y-74566969D01*
X99066766Y-74566969D02*
X98971528Y-74376492D01*
X98971528Y-74376492D02*
X98876290Y-74281254D01*
X98876290Y-74281254D02*
X98685814Y-74186016D01*
X98685814Y-74186016D02*
X98304861Y-74186016D01*
X98304861Y-74186016D02*
X98114385Y-74281254D01*
X97257242Y-75519350D02*
X97257242Y-73519350D01*
X97066766Y-74757445D02*
X96495337Y-75519350D01*
X96495337Y-74186016D02*
X97257242Y-74947921D01*
X94400098Y-73519350D02*
X93257241Y-73519350D01*
X93828670Y-75519350D02*
X93828670Y-73519350D01*
X91733431Y-75519350D02*
X91733431Y-74471731D01*
X91733431Y-74471731D02*
X91828669Y-74281254D01*
X91828669Y-74281254D02*
X92019145Y-74186016D01*
X92019145Y-74186016D02*
X92400098Y-74186016D01*
X92400098Y-74186016D02*
X92590574Y-74281254D01*
X91733431Y-75424112D02*
X91923907Y-75519350D01*
X91923907Y-75519350D02*
X92400098Y-75519350D01*
X92400098Y-75519350D02*
X92590574Y-75424112D01*
X92590574Y-75424112D02*
X92685812Y-75233635D01*
X92685812Y-75233635D02*
X92685812Y-75043159D01*
X92685812Y-75043159D02*
X92590574Y-74852683D01*
X92590574Y-74852683D02*
X92400098Y-74757445D01*
X92400098Y-74757445D02*
X91923907Y-74757445D01*
X91923907Y-74757445D02*
X91733431Y-74662207D01*
X90781050Y-74186016D02*
X90781050Y-75519350D01*
X90781050Y-74376492D02*
X90685812Y-74281254D01*
X90685812Y-74281254D02*
X90495336Y-74186016D01*
X90495336Y-74186016D02*
X90209621Y-74186016D01*
X90209621Y-74186016D02*
X90019145Y-74281254D01*
X90019145Y-74281254D02*
X89923907Y-74471731D01*
X89923907Y-74471731D02*
X89923907Y-75519350D01*
X88971526Y-74186016D02*
X88971526Y-75519350D01*
X88971526Y-74376492D02*
X88876288Y-74281254D01*
X88876288Y-74281254D02*
X88685812Y-74186016D01*
X88685812Y-74186016D02*
X88400097Y-74186016D01*
X88400097Y-74186016D02*
X88209621Y-74281254D01*
X88209621Y-74281254D02*
X88114383Y-74471731D01*
X88114383Y-74471731D02*
X88114383Y-75519350D01*
X86400097Y-75424112D02*
X86590573Y-75519350D01*
X86590573Y-75519350D02*
X86971526Y-75519350D01*
X86971526Y-75519350D02*
X87162002Y-75424112D01*
X87162002Y-75424112D02*
X87257240Y-75233635D01*
X87257240Y-75233635D02*
X87257240Y-74471731D01*
X87257240Y-74471731D02*
X87162002Y-74281254D01*
X87162002Y-74281254D02*
X86971526Y-74186016D01*
X86971526Y-74186016D02*
X86590573Y-74186016D01*
X86590573Y-74186016D02*
X86400097Y-74281254D01*
X86400097Y-74281254D02*
X86304859Y-74471731D01*
X86304859Y-74471731D02*
X86304859Y-74662207D01*
X86304859Y-74662207D02*
X87257240Y-74852683D01*
X85447716Y-75519350D02*
X85447716Y-74186016D01*
X85447716Y-74566969D02*
X85352478Y-74376492D01*
X85352478Y-74376492D02*
X85257240Y-74281254D01*
X85257240Y-74281254D02*
X85066764Y-74186016D01*
X85066764Y-74186016D02*
X84876287Y-74186016D01*
X101638195Y-77691619D02*
X101352481Y-77786857D01*
X101352481Y-77786857D02*
X101257243Y-77882095D01*
X101257243Y-77882095D02*
X101162005Y-78072571D01*
X101162005Y-78072571D02*
X101162005Y-78358285D01*
X101162005Y-78358285D02*
X101257243Y-78548761D01*
X101257243Y-78548761D02*
X101352481Y-78644000D01*
X101352481Y-78644000D02*
X101542957Y-78739238D01*
X101542957Y-78739238D02*
X102304862Y-78739238D01*
X102304862Y-78739238D02*
X102304862Y-76739238D01*
X102304862Y-76739238D02*
X101638195Y-76739238D01*
X101638195Y-76739238D02*
X101447719Y-76834476D01*
X101447719Y-76834476D02*
X101352481Y-76929714D01*
X101352481Y-76929714D02*
X101257243Y-77120190D01*
X101257243Y-77120190D02*
X101257243Y-77310666D01*
X101257243Y-77310666D02*
X101352481Y-77501142D01*
X101352481Y-77501142D02*
X101447719Y-77596380D01*
X101447719Y-77596380D02*
X101638195Y-77691619D01*
X101638195Y-77691619D02*
X102304862Y-77691619D01*
X99447719Y-78739238D02*
X99447719Y-77691619D01*
X99447719Y-77691619D02*
X99542957Y-77501142D01*
X99542957Y-77501142D02*
X99733433Y-77405904D01*
X99733433Y-77405904D02*
X100114386Y-77405904D01*
X100114386Y-77405904D02*
X100304862Y-77501142D01*
X99447719Y-78644000D02*
X99638195Y-78739238D01*
X99638195Y-78739238D02*
X100114386Y-78739238D01*
X100114386Y-78739238D02*
X100304862Y-78644000D01*
X100304862Y-78644000D02*
X100400100Y-78453523D01*
X100400100Y-78453523D02*
X100400100Y-78263047D01*
X100400100Y-78263047D02*
X100304862Y-78072571D01*
X100304862Y-78072571D02*
X100114386Y-77977333D01*
X100114386Y-77977333D02*
X99638195Y-77977333D01*
X99638195Y-77977333D02*
X99447719Y-77882095D01*
X98495338Y-77405904D02*
X98495338Y-79120190D01*
X98495338Y-79120190D02*
X98590576Y-79310666D01*
X98590576Y-79310666D02*
X98781052Y-79405904D01*
X98781052Y-79405904D02*
X98876290Y-79405904D01*
X98495338Y-76739238D02*
X98590576Y-76834476D01*
X98590576Y-76834476D02*
X98495338Y-76929714D01*
X98495338Y-76929714D02*
X98400100Y-76834476D01*
X98400100Y-76834476D02*
X98495338Y-76739238D01*
X98495338Y-76739238D02*
X98495338Y-76929714D01*
X96685814Y-78739238D02*
X96685814Y-77691619D01*
X96685814Y-77691619D02*
X96781052Y-77501142D01*
X96781052Y-77501142D02*
X96971528Y-77405904D01*
X96971528Y-77405904D02*
X97352481Y-77405904D01*
X97352481Y-77405904D02*
X97542957Y-77501142D01*
X96685814Y-78644000D02*
X96876290Y-78739238D01*
X96876290Y-78739238D02*
X97352481Y-78739238D01*
X97352481Y-78739238D02*
X97542957Y-78644000D01*
X97542957Y-78644000D02*
X97638195Y-78453523D01*
X97638195Y-78453523D02*
X97638195Y-78263047D01*
X97638195Y-78263047D02*
X97542957Y-78072571D01*
X97542957Y-78072571D02*
X97352481Y-77977333D01*
X97352481Y-77977333D02*
X96876290Y-77977333D01*
X96876290Y-77977333D02*
X96685814Y-77882095D01*
X94304861Y-76929714D02*
X94209623Y-76834476D01*
X94209623Y-76834476D02*
X94019147Y-76739238D01*
X94019147Y-76739238D02*
X93542956Y-76739238D01*
X93542956Y-76739238D02*
X93352480Y-76834476D01*
X93352480Y-76834476D02*
X93257242Y-76929714D01*
X93257242Y-76929714D02*
X93162004Y-77120190D01*
X93162004Y-77120190D02*
X93162004Y-77310666D01*
X93162004Y-77310666D02*
X93257242Y-77596380D01*
X93257242Y-77596380D02*
X94400099Y-78739238D01*
X94400099Y-78739238D02*
X93162004Y-78739238D01*
X91923909Y-76739238D02*
X91733432Y-76739238D01*
X91733432Y-76739238D02*
X91542956Y-76834476D01*
X91542956Y-76834476D02*
X91447718Y-76929714D01*
X91447718Y-76929714D02*
X91352480Y-77120190D01*
X91352480Y-77120190D02*
X91257242Y-77501142D01*
X91257242Y-77501142D02*
X91257242Y-77977333D01*
X91257242Y-77977333D02*
X91352480Y-78358285D01*
X91352480Y-78358285D02*
X91447718Y-78548761D01*
X91447718Y-78548761D02*
X91542956Y-78644000D01*
X91542956Y-78644000D02*
X91733432Y-78739238D01*
X91733432Y-78739238D02*
X91923909Y-78739238D01*
X91923909Y-78739238D02*
X92114385Y-78644000D01*
X92114385Y-78644000D02*
X92209623Y-78548761D01*
X92209623Y-78548761D02*
X92304861Y-78358285D01*
X92304861Y-78358285D02*
X92400099Y-77977333D01*
X92400099Y-77977333D02*
X92400099Y-77501142D01*
X92400099Y-77501142D02*
X92304861Y-77120190D01*
X92304861Y-77120190D02*
X92209623Y-76929714D01*
X92209623Y-76929714D02*
X92114385Y-76834476D01*
X92114385Y-76834476D02*
X91923909Y-76739238D01*
X90495337Y-76929714D02*
X90400099Y-76834476D01*
X90400099Y-76834476D02*
X90209623Y-76739238D01*
X90209623Y-76739238D02*
X89733432Y-76739238D01*
X89733432Y-76739238D02*
X89542956Y-76834476D01*
X89542956Y-76834476D02*
X89447718Y-76929714D01*
X89447718Y-76929714D02*
X89352480Y-77120190D01*
X89352480Y-77120190D02*
X89352480Y-77310666D01*
X89352480Y-77310666D02*
X89447718Y-77596380D01*
X89447718Y-77596380D02*
X90590575Y-78739238D01*
X90590575Y-78739238D02*
X89352480Y-78739238D01*
X87638194Y-77405904D02*
X87638194Y-78739238D01*
X88114385Y-76644000D02*
X88590575Y-78072571D01*
X88590575Y-78072571D02*
X87352480Y-78072571D01*
X86590575Y-77977333D02*
X85066766Y-77977333D01*
X84209623Y-76929714D02*
X84114385Y-76834476D01*
X84114385Y-76834476D02*
X83923909Y-76739238D01*
X83923909Y-76739238D02*
X83447718Y-76739238D01*
X83447718Y-76739238D02*
X83257242Y-76834476D01*
X83257242Y-76834476D02*
X83162004Y-76929714D01*
X83162004Y-76929714D02*
X83066766Y-77120190D01*
X83066766Y-77120190D02*
X83066766Y-77310666D01*
X83066766Y-77310666D02*
X83162004Y-77596380D01*
X83162004Y-77596380D02*
X84304861Y-78739238D01*
X84304861Y-78739238D02*
X83066766Y-78739238D01*
X81828671Y-76739238D02*
X81638194Y-76739238D01*
X81638194Y-76739238D02*
X81447718Y-76834476D01*
X81447718Y-76834476D02*
X81352480Y-76929714D01*
X81352480Y-76929714D02*
X81257242Y-77120190D01*
X81257242Y-77120190D02*
X81162004Y-77501142D01*
X81162004Y-77501142D02*
X81162004Y-77977333D01*
X81162004Y-77977333D02*
X81257242Y-78358285D01*
X81257242Y-78358285D02*
X81352480Y-78548761D01*
X81352480Y-78548761D02*
X81447718Y-78644000D01*
X81447718Y-78644000D02*
X81638194Y-78739238D01*
X81638194Y-78739238D02*
X81828671Y-78739238D01*
X81828671Y-78739238D02*
X82019147Y-78644000D01*
X82019147Y-78644000D02*
X82114385Y-78548761D01*
X82114385Y-78548761D02*
X82209623Y-78358285D01*
X82209623Y-78358285D02*
X82304861Y-77977333D01*
X82304861Y-77977333D02*
X82304861Y-77501142D01*
X82304861Y-77501142D02*
X82209623Y-77120190D01*
X82209623Y-77120190D02*
X82114385Y-76929714D01*
X82114385Y-76929714D02*
X82019147Y-76834476D01*
X82019147Y-76834476D02*
X81828671Y-76739238D01*
X80400099Y-76929714D02*
X80304861Y-76834476D01*
X80304861Y-76834476D02*
X80114385Y-76739238D01*
X80114385Y-76739238D02*
X79638194Y-76739238D01*
X79638194Y-76739238D02*
X79447718Y-76834476D01*
X79447718Y-76834476D02*
X79352480Y-76929714D01*
X79352480Y-76929714D02*
X79257242Y-77120190D01*
X79257242Y-77120190D02*
X79257242Y-77310666D01*
X79257242Y-77310666D02*
X79352480Y-77596380D01*
X79352480Y-77596380D02*
X80495337Y-78739238D01*
X80495337Y-78739238D02*
X79257242Y-78739238D01*
X77447718Y-76739238D02*
X78400099Y-76739238D01*
X78400099Y-76739238D02*
X78495337Y-77691619D01*
X78495337Y-77691619D02*
X78400099Y-77596380D01*
X78400099Y-77596380D02*
X78209623Y-77501142D01*
X78209623Y-77501142D02*
X77733432Y-77501142D01*
X77733432Y-77501142D02*
X77542956Y-77596380D01*
X77542956Y-77596380D02*
X77447718Y-77691619D01*
X77447718Y-77691619D02*
X77352480Y-77882095D01*
X77352480Y-77882095D02*
X77352480Y-78358285D01*
X77352480Y-78358285D02*
X77447718Y-78548761D01*
X77447718Y-78548761D02*
X77542956Y-78644000D01*
X77542956Y-78644000D02*
X77733432Y-78739238D01*
X77733432Y-78739238D02*
X78209623Y-78739238D01*
X78209623Y-78739238D02*
X78400099Y-78644000D01*
X78400099Y-78644000D02*
X78495337Y-78548761D01*
M02*
