%TF.GenerationSoftware,KiCad,Pcbnew,8.0.8-8.0.8-0~ubuntu24.04.1*%
%TF.CreationDate,2025-02-02T19:30:22-07:00*%
%TF.ProjectId,Speedometer,53706565-646f-46d6-9574-65722e6b6963,v1*%
%TF.SameCoordinates,Original*%
%TF.FileFunction,Legend,Top*%
%TF.FilePolarity,Positive*%
%FSLAX46Y46*%
G04 Gerber Fmt 4.6, Leading zero omitted, Abs format (unit mm)*
G04 Created by KiCad (PCBNEW 8.0.8-8.0.8-0~ubuntu24.04.1) date 2025-02-02 19:30:22*
%MOMM*%
%LPD*%
G01*
G04 APERTURE LIST*
%ADD10C,0.100000*%
%ADD11C,0.150000*%
%ADD12C,0.120000*%
%ADD13C,0.127000*%
%ADD14C,0.200000*%
G04 APERTURE END LIST*
D10*
X135883884Y-84982419D02*
X135883884Y-83982419D01*
X135883884Y-83982419D02*
X136455312Y-84982419D01*
X136455312Y-84982419D02*
X136455312Y-83982419D01*
X136883884Y-84696704D02*
X137360074Y-84696704D01*
X136788646Y-84982419D02*
X137121979Y-83982419D01*
X137121979Y-83982419D02*
X137455312Y-84982419D01*
X137788646Y-84982419D02*
X137788646Y-83982419D01*
X137788646Y-83982419D02*
X138360074Y-84982419D01*
X138360074Y-84982419D02*
X138360074Y-83982419D01*
X139026741Y-83982419D02*
X139217217Y-83982419D01*
X139217217Y-83982419D02*
X139312455Y-84030038D01*
X139312455Y-84030038D02*
X139407693Y-84125276D01*
X139407693Y-84125276D02*
X139455312Y-84315752D01*
X139455312Y-84315752D02*
X139455312Y-84649085D01*
X139455312Y-84649085D02*
X139407693Y-84839561D01*
X139407693Y-84839561D02*
X139312455Y-84934800D01*
X139312455Y-84934800D02*
X139217217Y-84982419D01*
X139217217Y-84982419D02*
X139026741Y-84982419D01*
X139026741Y-84982419D02*
X138931503Y-84934800D01*
X138931503Y-84934800D02*
X138836265Y-84839561D01*
X138836265Y-84839561D02*
X138788646Y-84649085D01*
X138788646Y-84649085D02*
X138788646Y-84315752D01*
X138788646Y-84315752D02*
X138836265Y-84125276D01*
X138836265Y-84125276D02*
X138931503Y-84030038D01*
X138931503Y-84030038D02*
X139026741Y-83982419D01*
X94575312Y-65157180D02*
X94527693Y-65204800D01*
X94527693Y-65204800D02*
X94384836Y-65252419D01*
X94384836Y-65252419D02*
X94289598Y-65252419D01*
X94289598Y-65252419D02*
X94146741Y-65204800D01*
X94146741Y-65204800D02*
X94051503Y-65109561D01*
X94051503Y-65109561D02*
X94003884Y-65014323D01*
X94003884Y-65014323D02*
X93956265Y-64823847D01*
X93956265Y-64823847D02*
X93956265Y-64680990D01*
X93956265Y-64680990D02*
X94003884Y-64490514D01*
X94003884Y-64490514D02*
X94051503Y-64395276D01*
X94051503Y-64395276D02*
X94146741Y-64300038D01*
X94146741Y-64300038D02*
X94289598Y-64252419D01*
X94289598Y-64252419D02*
X94384836Y-64252419D01*
X94384836Y-64252419D02*
X94527693Y-64300038D01*
X94527693Y-64300038D02*
X94575312Y-64347657D01*
X94956265Y-64966704D02*
X95432455Y-64966704D01*
X94861027Y-65252419D02*
X95194360Y-64252419D01*
X95194360Y-64252419D02*
X95527693Y-65252419D01*
X95861027Y-65252419D02*
X95861027Y-64252419D01*
X95861027Y-64252419D02*
X96432455Y-65252419D01*
X96432455Y-65252419D02*
X96432455Y-64252419D01*
D11*
X124127142Y-51494819D02*
X123650952Y-51494819D01*
X123650952Y-51494819D02*
X123650952Y-50494819D01*
X124460476Y-50971009D02*
X124793809Y-50971009D01*
X124936666Y-51494819D02*
X124460476Y-51494819D01*
X124460476Y-51494819D02*
X124460476Y-50494819D01*
X124460476Y-50494819D02*
X124936666Y-50494819D01*
X125365238Y-51494819D02*
X125365238Y-50494819D01*
X125365238Y-50494819D02*
X125603333Y-50494819D01*
X125603333Y-50494819D02*
X125746190Y-50542438D01*
X125746190Y-50542438D02*
X125841428Y-50637676D01*
X125841428Y-50637676D02*
X125889047Y-50732914D01*
X125889047Y-50732914D02*
X125936666Y-50923390D01*
X125936666Y-50923390D02*
X125936666Y-51066247D01*
X125936666Y-51066247D02*
X125889047Y-51256723D01*
X125889047Y-51256723D02*
X125841428Y-51351961D01*
X125841428Y-51351961D02*
X125746190Y-51447200D01*
X125746190Y-51447200D02*
X125603333Y-51494819D01*
X125603333Y-51494819D02*
X125365238Y-51494819D01*
X114607142Y-63454819D02*
X114035714Y-63454819D01*
X114321428Y-63454819D02*
X114321428Y-62454819D01*
X114321428Y-62454819D02*
X114226190Y-62597676D01*
X114226190Y-62597676D02*
X114130952Y-62692914D01*
X114130952Y-62692914D02*
X114035714Y-62740533D01*
X115226190Y-62454819D02*
X115321428Y-62454819D01*
X115321428Y-62454819D02*
X115416666Y-62502438D01*
X115416666Y-62502438D02*
X115464285Y-62550057D01*
X115464285Y-62550057D02*
X115511904Y-62645295D01*
X115511904Y-62645295D02*
X115559523Y-62835771D01*
X115559523Y-62835771D02*
X115559523Y-63073866D01*
X115559523Y-63073866D02*
X115511904Y-63264342D01*
X115511904Y-63264342D02*
X115464285Y-63359580D01*
X115464285Y-63359580D02*
X115416666Y-63407200D01*
X115416666Y-63407200D02*
X115321428Y-63454819D01*
X115321428Y-63454819D02*
X115226190Y-63454819D01*
X115226190Y-63454819D02*
X115130952Y-63407200D01*
X115130952Y-63407200D02*
X115083333Y-63359580D01*
X115083333Y-63359580D02*
X115035714Y-63264342D01*
X115035714Y-63264342D02*
X114988095Y-63073866D01*
X114988095Y-63073866D02*
X114988095Y-62835771D01*
X114988095Y-62835771D02*
X115035714Y-62645295D01*
X115035714Y-62645295D02*
X115083333Y-62550057D01*
X115083333Y-62550057D02*
X115130952Y-62502438D01*
X115130952Y-62502438D02*
X115226190Y-62454819D01*
X115988095Y-62788152D02*
X115988095Y-63454819D01*
X115988095Y-62883390D02*
X116035714Y-62835771D01*
X116035714Y-62835771D02*
X116130952Y-62788152D01*
X116130952Y-62788152D02*
X116273809Y-62788152D01*
X116273809Y-62788152D02*
X116369047Y-62835771D01*
X116369047Y-62835771D02*
X116416666Y-62931009D01*
X116416666Y-62931009D02*
X116416666Y-63454819D01*
X128454819Y-55705713D02*
X128454819Y-55086666D01*
X128454819Y-55086666D02*
X128835771Y-55419999D01*
X128835771Y-55419999D02*
X128835771Y-55277142D01*
X128835771Y-55277142D02*
X128883390Y-55181904D01*
X128883390Y-55181904D02*
X128931009Y-55134285D01*
X128931009Y-55134285D02*
X129026247Y-55086666D01*
X129026247Y-55086666D02*
X129264342Y-55086666D01*
X129264342Y-55086666D02*
X129359580Y-55134285D01*
X129359580Y-55134285D02*
X129407200Y-55181904D01*
X129407200Y-55181904D02*
X129454819Y-55277142D01*
X129454819Y-55277142D02*
X129454819Y-55562856D01*
X129454819Y-55562856D02*
X129407200Y-55658094D01*
X129407200Y-55658094D02*
X129359580Y-55705713D01*
X128454819Y-54467618D02*
X128454819Y-54372380D01*
X128454819Y-54372380D02*
X128502438Y-54277142D01*
X128502438Y-54277142D02*
X128550057Y-54229523D01*
X128550057Y-54229523D02*
X128645295Y-54181904D01*
X128645295Y-54181904D02*
X128835771Y-54134285D01*
X128835771Y-54134285D02*
X129073866Y-54134285D01*
X129073866Y-54134285D02*
X129264342Y-54181904D01*
X129264342Y-54181904D02*
X129359580Y-54229523D01*
X129359580Y-54229523D02*
X129407200Y-54277142D01*
X129407200Y-54277142D02*
X129454819Y-54372380D01*
X129454819Y-54372380D02*
X129454819Y-54467618D01*
X129454819Y-54467618D02*
X129407200Y-54562856D01*
X129407200Y-54562856D02*
X129359580Y-54610475D01*
X129359580Y-54610475D02*
X129264342Y-54658094D01*
X129264342Y-54658094D02*
X129073866Y-54705713D01*
X129073866Y-54705713D02*
X128835771Y-54705713D01*
X128835771Y-54705713D02*
X128645295Y-54658094D01*
X128645295Y-54658094D02*
X128550057Y-54610475D01*
X128550057Y-54610475D02*
X128502438Y-54562856D01*
X128502438Y-54562856D02*
X128454819Y-54467618D01*
X128454819Y-53515237D02*
X128454819Y-53419999D01*
X128454819Y-53419999D02*
X128502438Y-53324761D01*
X128502438Y-53324761D02*
X128550057Y-53277142D01*
X128550057Y-53277142D02*
X128645295Y-53229523D01*
X128645295Y-53229523D02*
X128835771Y-53181904D01*
X128835771Y-53181904D02*
X129073866Y-53181904D01*
X129073866Y-53181904D02*
X129264342Y-53229523D01*
X129264342Y-53229523D02*
X129359580Y-53277142D01*
X129359580Y-53277142D02*
X129407200Y-53324761D01*
X129407200Y-53324761D02*
X129454819Y-53419999D01*
X129454819Y-53419999D02*
X129454819Y-53515237D01*
X129454819Y-53515237D02*
X129407200Y-53610475D01*
X129407200Y-53610475D02*
X129359580Y-53658094D01*
X129359580Y-53658094D02*
X129264342Y-53705713D01*
X129264342Y-53705713D02*
X129073866Y-53753332D01*
X129073866Y-53753332D02*
X128835771Y-53753332D01*
X128835771Y-53753332D02*
X128645295Y-53705713D01*
X128645295Y-53705713D02*
X128550057Y-53658094D01*
X128550057Y-53658094D02*
X128502438Y-53610475D01*
X128502438Y-53610475D02*
X128454819Y-53515237D01*
X135954819Y-55015238D02*
X135954819Y-55586666D01*
X135954819Y-55300952D02*
X134954819Y-55300952D01*
X134954819Y-55300952D02*
X135097676Y-55396190D01*
X135097676Y-55396190D02*
X135192914Y-55491428D01*
X135192914Y-55491428D02*
X135240533Y-55586666D01*
X134954819Y-54396190D02*
X134954819Y-54300952D01*
X134954819Y-54300952D02*
X135002438Y-54205714D01*
X135002438Y-54205714D02*
X135050057Y-54158095D01*
X135050057Y-54158095D02*
X135145295Y-54110476D01*
X135145295Y-54110476D02*
X135335771Y-54062857D01*
X135335771Y-54062857D02*
X135573866Y-54062857D01*
X135573866Y-54062857D02*
X135764342Y-54110476D01*
X135764342Y-54110476D02*
X135859580Y-54158095D01*
X135859580Y-54158095D02*
X135907200Y-54205714D01*
X135907200Y-54205714D02*
X135954819Y-54300952D01*
X135954819Y-54300952D02*
X135954819Y-54396190D01*
X135954819Y-54396190D02*
X135907200Y-54491428D01*
X135907200Y-54491428D02*
X135859580Y-54539047D01*
X135859580Y-54539047D02*
X135764342Y-54586666D01*
X135764342Y-54586666D02*
X135573866Y-54634285D01*
X135573866Y-54634285D02*
X135335771Y-54634285D01*
X135335771Y-54634285D02*
X135145295Y-54586666D01*
X135145295Y-54586666D02*
X135050057Y-54539047D01*
X135050057Y-54539047D02*
X135002438Y-54491428D01*
X135002438Y-54491428D02*
X134954819Y-54396190D01*
X135954819Y-53634285D02*
X134954819Y-53634285D01*
X135573866Y-53539047D02*
X135954819Y-53253333D01*
X135288152Y-53253333D02*
X135669104Y-53634285D01*
X116035714Y-60454819D02*
X115464286Y-60454819D01*
X115750000Y-60454819D02*
X115750000Y-59454819D01*
X115750000Y-59454819D02*
X115654762Y-59597676D01*
X115654762Y-59597676D02*
X115559524Y-59692914D01*
X115559524Y-59692914D02*
X115464286Y-59740533D01*
X116654762Y-59454819D02*
X116750000Y-59454819D01*
X116750000Y-59454819D02*
X116845238Y-59502438D01*
X116845238Y-59502438D02*
X116892857Y-59550057D01*
X116892857Y-59550057D02*
X116940476Y-59645295D01*
X116940476Y-59645295D02*
X116988095Y-59835771D01*
X116988095Y-59835771D02*
X116988095Y-60073866D01*
X116988095Y-60073866D02*
X116940476Y-60264342D01*
X116940476Y-60264342D02*
X116892857Y-60359580D01*
X116892857Y-60359580D02*
X116845238Y-60407200D01*
X116845238Y-60407200D02*
X116750000Y-60454819D01*
X116750000Y-60454819D02*
X116654762Y-60454819D01*
X116654762Y-60454819D02*
X116559524Y-60407200D01*
X116559524Y-60407200D02*
X116511905Y-60359580D01*
X116511905Y-60359580D02*
X116464286Y-60264342D01*
X116464286Y-60264342D02*
X116416667Y-60073866D01*
X116416667Y-60073866D02*
X116416667Y-59835771D01*
X116416667Y-59835771D02*
X116464286Y-59645295D01*
X116464286Y-59645295D02*
X116511905Y-59550057D01*
X116511905Y-59550057D02*
X116559524Y-59502438D01*
X116559524Y-59502438D02*
X116654762Y-59454819D01*
X117416667Y-59788152D02*
X117416667Y-60788152D01*
X117892857Y-60311961D02*
X117940476Y-60407200D01*
X117940476Y-60407200D02*
X118035714Y-60454819D01*
X117416667Y-60311961D02*
X117464286Y-60407200D01*
X117464286Y-60407200D02*
X117559524Y-60454819D01*
X117559524Y-60454819D02*
X117750000Y-60454819D01*
X117750000Y-60454819D02*
X117845238Y-60407200D01*
X117845238Y-60407200D02*
X117892857Y-60311961D01*
X117892857Y-60311961D02*
X117892857Y-59788152D01*
X140904761Y-72954819D02*
X140333333Y-72954819D01*
X140619047Y-72954819D02*
X140619047Y-71954819D01*
X140619047Y-71954819D02*
X140523809Y-72097676D01*
X140523809Y-72097676D02*
X140428571Y-72192914D01*
X140428571Y-72192914D02*
X140333333Y-72240533D01*
X141523809Y-71954819D02*
X141619047Y-71954819D01*
X141619047Y-71954819D02*
X141714285Y-72002438D01*
X141714285Y-72002438D02*
X141761904Y-72050057D01*
X141761904Y-72050057D02*
X141809523Y-72145295D01*
X141809523Y-72145295D02*
X141857142Y-72335771D01*
X141857142Y-72335771D02*
X141857142Y-72573866D01*
X141857142Y-72573866D02*
X141809523Y-72764342D01*
X141809523Y-72764342D02*
X141761904Y-72859580D01*
X141761904Y-72859580D02*
X141714285Y-72907200D01*
X141714285Y-72907200D02*
X141619047Y-72954819D01*
X141619047Y-72954819D02*
X141523809Y-72954819D01*
X141523809Y-72954819D02*
X141428571Y-72907200D01*
X141428571Y-72907200D02*
X141380952Y-72859580D01*
X141380952Y-72859580D02*
X141333333Y-72764342D01*
X141333333Y-72764342D02*
X141285714Y-72573866D01*
X141285714Y-72573866D02*
X141285714Y-72335771D01*
X141285714Y-72335771D02*
X141333333Y-72145295D01*
X141333333Y-72145295D02*
X141380952Y-72050057D01*
X141380952Y-72050057D02*
X141428571Y-72002438D01*
X141428571Y-72002438D02*
X141523809Y-71954819D01*
X142285714Y-72954819D02*
X142285714Y-71954819D01*
X142380952Y-72573866D02*
X142666666Y-72954819D01*
X142666666Y-72288152D02*
X142285714Y-72669104D01*
X128607142Y-63704819D02*
X128035714Y-63704819D01*
X128321428Y-63704819D02*
X128321428Y-62704819D01*
X128321428Y-62704819D02*
X128226190Y-62847676D01*
X128226190Y-62847676D02*
X128130952Y-62942914D01*
X128130952Y-62942914D02*
X128035714Y-62990533D01*
X129226190Y-62704819D02*
X129321428Y-62704819D01*
X129321428Y-62704819D02*
X129416666Y-62752438D01*
X129416666Y-62752438D02*
X129464285Y-62800057D01*
X129464285Y-62800057D02*
X129511904Y-62895295D01*
X129511904Y-62895295D02*
X129559523Y-63085771D01*
X129559523Y-63085771D02*
X129559523Y-63323866D01*
X129559523Y-63323866D02*
X129511904Y-63514342D01*
X129511904Y-63514342D02*
X129464285Y-63609580D01*
X129464285Y-63609580D02*
X129416666Y-63657200D01*
X129416666Y-63657200D02*
X129321428Y-63704819D01*
X129321428Y-63704819D02*
X129226190Y-63704819D01*
X129226190Y-63704819D02*
X129130952Y-63657200D01*
X129130952Y-63657200D02*
X129083333Y-63609580D01*
X129083333Y-63609580D02*
X129035714Y-63514342D01*
X129035714Y-63514342D02*
X128988095Y-63323866D01*
X128988095Y-63323866D02*
X128988095Y-63085771D01*
X128988095Y-63085771D02*
X129035714Y-62895295D01*
X129035714Y-62895295D02*
X129083333Y-62800057D01*
X129083333Y-62800057D02*
X129130952Y-62752438D01*
X129130952Y-62752438D02*
X129226190Y-62704819D01*
X129988095Y-63038152D02*
X129988095Y-63704819D01*
X129988095Y-63133390D02*
X130035714Y-63085771D01*
X130035714Y-63085771D02*
X130130952Y-63038152D01*
X130130952Y-63038152D02*
X130273809Y-63038152D01*
X130273809Y-63038152D02*
X130369047Y-63085771D01*
X130369047Y-63085771D02*
X130416666Y-63181009D01*
X130416666Y-63181009D02*
X130416666Y-63704819D01*
X132454819Y-55015238D02*
X132454819Y-55586666D01*
X132454819Y-55300952D02*
X131454819Y-55300952D01*
X131454819Y-55300952D02*
X131597676Y-55396190D01*
X131597676Y-55396190D02*
X131692914Y-55491428D01*
X131692914Y-55491428D02*
X131740533Y-55586666D01*
X131454819Y-54396190D02*
X131454819Y-54300952D01*
X131454819Y-54300952D02*
X131502438Y-54205714D01*
X131502438Y-54205714D02*
X131550057Y-54158095D01*
X131550057Y-54158095D02*
X131645295Y-54110476D01*
X131645295Y-54110476D02*
X131835771Y-54062857D01*
X131835771Y-54062857D02*
X132073866Y-54062857D01*
X132073866Y-54062857D02*
X132264342Y-54110476D01*
X132264342Y-54110476D02*
X132359580Y-54158095D01*
X132359580Y-54158095D02*
X132407200Y-54205714D01*
X132407200Y-54205714D02*
X132454819Y-54300952D01*
X132454819Y-54300952D02*
X132454819Y-54396190D01*
X132454819Y-54396190D02*
X132407200Y-54491428D01*
X132407200Y-54491428D02*
X132359580Y-54539047D01*
X132359580Y-54539047D02*
X132264342Y-54586666D01*
X132264342Y-54586666D02*
X132073866Y-54634285D01*
X132073866Y-54634285D02*
X131835771Y-54634285D01*
X131835771Y-54634285D02*
X131645295Y-54586666D01*
X131645295Y-54586666D02*
X131550057Y-54539047D01*
X131550057Y-54539047D02*
X131502438Y-54491428D01*
X131502438Y-54491428D02*
X131454819Y-54396190D01*
X132454819Y-53634285D02*
X131454819Y-53634285D01*
X132073866Y-53539047D02*
X132454819Y-53253333D01*
X131788152Y-53253333D02*
X132169104Y-53634285D01*
X158050057Y-55586666D02*
X158002438Y-55539047D01*
X158002438Y-55539047D02*
X157954819Y-55443809D01*
X157954819Y-55443809D02*
X157954819Y-55205714D01*
X157954819Y-55205714D02*
X158002438Y-55110476D01*
X158002438Y-55110476D02*
X158050057Y-55062857D01*
X158050057Y-55062857D02*
X158145295Y-55015238D01*
X158145295Y-55015238D02*
X158240533Y-55015238D01*
X158240533Y-55015238D02*
X158383390Y-55062857D01*
X158383390Y-55062857D02*
X158954819Y-55634285D01*
X158954819Y-55634285D02*
X158954819Y-55015238D01*
X158050057Y-54634285D02*
X158002438Y-54586666D01*
X158002438Y-54586666D02*
X157954819Y-54491428D01*
X157954819Y-54491428D02*
X157954819Y-54253333D01*
X157954819Y-54253333D02*
X158002438Y-54158095D01*
X158002438Y-54158095D02*
X158050057Y-54110476D01*
X158050057Y-54110476D02*
X158145295Y-54062857D01*
X158145295Y-54062857D02*
X158240533Y-54062857D01*
X158240533Y-54062857D02*
X158383390Y-54110476D01*
X158383390Y-54110476D02*
X158954819Y-54681904D01*
X158954819Y-54681904D02*
X158954819Y-54062857D01*
X158954819Y-53634285D02*
X157954819Y-53634285D01*
X158573866Y-53539047D02*
X158954819Y-53253333D01*
X158288152Y-53253333D02*
X158669104Y-53634285D01*
X152785714Y-74204819D02*
X152214286Y-74204819D01*
X152500000Y-74204819D02*
X152500000Y-73204819D01*
X152500000Y-73204819D02*
X152404762Y-73347676D01*
X152404762Y-73347676D02*
X152309524Y-73442914D01*
X152309524Y-73442914D02*
X152214286Y-73490533D01*
X153404762Y-73204819D02*
X153500000Y-73204819D01*
X153500000Y-73204819D02*
X153595238Y-73252438D01*
X153595238Y-73252438D02*
X153642857Y-73300057D01*
X153642857Y-73300057D02*
X153690476Y-73395295D01*
X153690476Y-73395295D02*
X153738095Y-73585771D01*
X153738095Y-73585771D02*
X153738095Y-73823866D01*
X153738095Y-73823866D02*
X153690476Y-74014342D01*
X153690476Y-74014342D02*
X153642857Y-74109580D01*
X153642857Y-74109580D02*
X153595238Y-74157200D01*
X153595238Y-74157200D02*
X153500000Y-74204819D01*
X153500000Y-74204819D02*
X153404762Y-74204819D01*
X153404762Y-74204819D02*
X153309524Y-74157200D01*
X153309524Y-74157200D02*
X153261905Y-74109580D01*
X153261905Y-74109580D02*
X153214286Y-74014342D01*
X153214286Y-74014342D02*
X153166667Y-73823866D01*
X153166667Y-73823866D02*
X153166667Y-73585771D01*
X153166667Y-73585771D02*
X153214286Y-73395295D01*
X153214286Y-73395295D02*
X153261905Y-73300057D01*
X153261905Y-73300057D02*
X153309524Y-73252438D01*
X153309524Y-73252438D02*
X153404762Y-73204819D01*
X154166667Y-73538152D02*
X154166667Y-74538152D01*
X154642857Y-74061961D02*
X154690476Y-74157200D01*
X154690476Y-74157200D02*
X154785714Y-74204819D01*
X154166667Y-74061961D02*
X154214286Y-74157200D01*
X154214286Y-74157200D02*
X154309524Y-74204819D01*
X154309524Y-74204819D02*
X154500000Y-74204819D01*
X154500000Y-74204819D02*
X154595238Y-74157200D01*
X154595238Y-74157200D02*
X154642857Y-74061961D01*
X154642857Y-74061961D02*
X154642857Y-73538152D01*
X154454819Y-55634285D02*
X154454819Y-55015238D01*
X154454819Y-55015238D02*
X154835771Y-55348571D01*
X154835771Y-55348571D02*
X154835771Y-55205714D01*
X154835771Y-55205714D02*
X154883390Y-55110476D01*
X154883390Y-55110476D02*
X154931009Y-55062857D01*
X154931009Y-55062857D02*
X155026247Y-55015238D01*
X155026247Y-55015238D02*
X155264342Y-55015238D01*
X155264342Y-55015238D02*
X155359580Y-55062857D01*
X155359580Y-55062857D02*
X155407200Y-55110476D01*
X155407200Y-55110476D02*
X155454819Y-55205714D01*
X155454819Y-55205714D02*
X155454819Y-55491428D01*
X155454819Y-55491428D02*
X155407200Y-55586666D01*
X155407200Y-55586666D02*
X155359580Y-55634285D01*
X154454819Y-54681904D02*
X154454819Y-54062857D01*
X154454819Y-54062857D02*
X154835771Y-54396190D01*
X154835771Y-54396190D02*
X154835771Y-54253333D01*
X154835771Y-54253333D02*
X154883390Y-54158095D01*
X154883390Y-54158095D02*
X154931009Y-54110476D01*
X154931009Y-54110476D02*
X155026247Y-54062857D01*
X155026247Y-54062857D02*
X155264342Y-54062857D01*
X155264342Y-54062857D02*
X155359580Y-54110476D01*
X155359580Y-54110476D02*
X155407200Y-54158095D01*
X155407200Y-54158095D02*
X155454819Y-54253333D01*
X155454819Y-54253333D02*
X155454819Y-54539047D01*
X155454819Y-54539047D02*
X155407200Y-54634285D01*
X155407200Y-54634285D02*
X155359580Y-54681904D01*
X155454819Y-53634285D02*
X154454819Y-53634285D01*
X155073866Y-53539047D02*
X155454819Y-53253333D01*
X154788152Y-53253333D02*
X155169104Y-53634285D01*
X119578570Y-70901009D02*
X119721427Y-70948628D01*
X119721427Y-70948628D02*
X119769046Y-70996247D01*
X119769046Y-70996247D02*
X119816665Y-71091485D01*
X119816665Y-71091485D02*
X119816665Y-71234342D01*
X119816665Y-71234342D02*
X119769046Y-71329580D01*
X119769046Y-71329580D02*
X119721427Y-71377200D01*
X119721427Y-71377200D02*
X119626189Y-71424819D01*
X119626189Y-71424819D02*
X119245237Y-71424819D01*
X119245237Y-71424819D02*
X119245237Y-70424819D01*
X119245237Y-70424819D02*
X119578570Y-70424819D01*
X119578570Y-70424819D02*
X119673808Y-70472438D01*
X119673808Y-70472438D02*
X119721427Y-70520057D01*
X119721427Y-70520057D02*
X119769046Y-70615295D01*
X119769046Y-70615295D02*
X119769046Y-70710533D01*
X119769046Y-70710533D02*
X119721427Y-70805771D01*
X119721427Y-70805771D02*
X119673808Y-70853390D01*
X119673808Y-70853390D02*
X119578570Y-70901009D01*
X119578570Y-70901009D02*
X119245237Y-70901009D01*
X120673808Y-71424819D02*
X120673808Y-70901009D01*
X120673808Y-70901009D02*
X120626189Y-70805771D01*
X120626189Y-70805771D02*
X120530951Y-70758152D01*
X120530951Y-70758152D02*
X120340475Y-70758152D01*
X120340475Y-70758152D02*
X120245237Y-70805771D01*
X120673808Y-71377200D02*
X120578570Y-71424819D01*
X120578570Y-71424819D02*
X120340475Y-71424819D01*
X120340475Y-71424819D02*
X120245237Y-71377200D01*
X120245237Y-71377200D02*
X120197618Y-71281961D01*
X120197618Y-71281961D02*
X120197618Y-71186723D01*
X120197618Y-71186723D02*
X120245237Y-71091485D01*
X120245237Y-71091485D02*
X120340475Y-71043866D01*
X120340475Y-71043866D02*
X120578570Y-71043866D01*
X120578570Y-71043866D02*
X120673808Y-70996247D01*
X121007142Y-70758152D02*
X121388094Y-70758152D01*
X121149999Y-70424819D02*
X121149999Y-71281961D01*
X121149999Y-71281961D02*
X121197618Y-71377200D01*
X121197618Y-71377200D02*
X121292856Y-71424819D01*
X121292856Y-71424819D02*
X121388094Y-71424819D01*
X121578571Y-70758152D02*
X121959523Y-70758152D01*
X121721428Y-70424819D02*
X121721428Y-71281961D01*
X121721428Y-71281961D02*
X121769047Y-71377200D01*
X121769047Y-71377200D02*
X121864285Y-71424819D01*
X121864285Y-71424819D02*
X121959523Y-71424819D01*
X122673809Y-71377200D02*
X122578571Y-71424819D01*
X122578571Y-71424819D02*
X122388095Y-71424819D01*
X122388095Y-71424819D02*
X122292857Y-71377200D01*
X122292857Y-71377200D02*
X122245238Y-71281961D01*
X122245238Y-71281961D02*
X122245238Y-70901009D01*
X122245238Y-70901009D02*
X122292857Y-70805771D01*
X122292857Y-70805771D02*
X122388095Y-70758152D01*
X122388095Y-70758152D02*
X122578571Y-70758152D01*
X122578571Y-70758152D02*
X122673809Y-70805771D01*
X122673809Y-70805771D02*
X122721428Y-70901009D01*
X122721428Y-70901009D02*
X122721428Y-70996247D01*
X122721428Y-70996247D02*
X122245238Y-71091485D01*
X123150000Y-71424819D02*
X123150000Y-70758152D01*
X123150000Y-70948628D02*
X123197619Y-70853390D01*
X123197619Y-70853390D02*
X123245238Y-70805771D01*
X123245238Y-70805771D02*
X123340476Y-70758152D01*
X123340476Y-70758152D02*
X123435714Y-70758152D01*
X123673810Y-70758152D02*
X123911905Y-71424819D01*
X124150000Y-70758152D02*
X123911905Y-71424819D01*
X123911905Y-71424819D02*
X123816667Y-71662914D01*
X123816667Y-71662914D02*
X123769048Y-71710533D01*
X123769048Y-71710533D02*
X123673810Y-71758152D01*
X147607142Y-61704819D02*
X147035714Y-61704819D01*
X147321428Y-61704819D02*
X147321428Y-60704819D01*
X147321428Y-60704819D02*
X147226190Y-60847676D01*
X147226190Y-60847676D02*
X147130952Y-60942914D01*
X147130952Y-60942914D02*
X147035714Y-60990533D01*
X148226190Y-60704819D02*
X148321428Y-60704819D01*
X148321428Y-60704819D02*
X148416666Y-60752438D01*
X148416666Y-60752438D02*
X148464285Y-60800057D01*
X148464285Y-60800057D02*
X148511904Y-60895295D01*
X148511904Y-60895295D02*
X148559523Y-61085771D01*
X148559523Y-61085771D02*
X148559523Y-61323866D01*
X148559523Y-61323866D02*
X148511904Y-61514342D01*
X148511904Y-61514342D02*
X148464285Y-61609580D01*
X148464285Y-61609580D02*
X148416666Y-61657200D01*
X148416666Y-61657200D02*
X148321428Y-61704819D01*
X148321428Y-61704819D02*
X148226190Y-61704819D01*
X148226190Y-61704819D02*
X148130952Y-61657200D01*
X148130952Y-61657200D02*
X148083333Y-61609580D01*
X148083333Y-61609580D02*
X148035714Y-61514342D01*
X148035714Y-61514342D02*
X147988095Y-61323866D01*
X147988095Y-61323866D02*
X147988095Y-61085771D01*
X147988095Y-61085771D02*
X148035714Y-60895295D01*
X148035714Y-60895295D02*
X148083333Y-60800057D01*
X148083333Y-60800057D02*
X148130952Y-60752438D01*
X148130952Y-60752438D02*
X148226190Y-60704819D01*
X148988095Y-61038152D02*
X148988095Y-61704819D01*
X148988095Y-61133390D02*
X149035714Y-61085771D01*
X149035714Y-61085771D02*
X149130952Y-61038152D01*
X149130952Y-61038152D02*
X149273809Y-61038152D01*
X149273809Y-61038152D02*
X149369047Y-61085771D01*
X149369047Y-61085771D02*
X149416666Y-61181009D01*
X149416666Y-61181009D02*
X149416666Y-61704819D01*
X148454819Y-57166666D02*
X147454819Y-57166666D01*
X147454819Y-57166666D02*
X148454819Y-56595238D01*
X148454819Y-56595238D02*
X147454819Y-56595238D01*
X147931009Y-56119047D02*
X147931009Y-55785714D01*
X148454819Y-55642857D02*
X148454819Y-56119047D01*
X148454819Y-56119047D02*
X147454819Y-56119047D01*
X147454819Y-56119047D02*
X147454819Y-55642857D01*
X147454819Y-54738095D02*
X147454819Y-55214285D01*
X147454819Y-55214285D02*
X147931009Y-55261904D01*
X147931009Y-55261904D02*
X147883390Y-55214285D01*
X147883390Y-55214285D02*
X147835771Y-55119047D01*
X147835771Y-55119047D02*
X147835771Y-54880952D01*
X147835771Y-54880952D02*
X147883390Y-54785714D01*
X147883390Y-54785714D02*
X147931009Y-54738095D01*
X147931009Y-54738095D02*
X148026247Y-54690476D01*
X148026247Y-54690476D02*
X148264342Y-54690476D01*
X148264342Y-54690476D02*
X148359580Y-54738095D01*
X148359580Y-54738095D02*
X148407200Y-54785714D01*
X148407200Y-54785714D02*
X148454819Y-54880952D01*
X148454819Y-54880952D02*
X148454819Y-55119047D01*
X148454819Y-55119047D02*
X148407200Y-55214285D01*
X148407200Y-55214285D02*
X148359580Y-55261904D01*
X147454819Y-53785714D02*
X147454819Y-54261904D01*
X147454819Y-54261904D02*
X147931009Y-54309523D01*
X147931009Y-54309523D02*
X147883390Y-54261904D01*
X147883390Y-54261904D02*
X147835771Y-54166666D01*
X147835771Y-54166666D02*
X147835771Y-53928571D01*
X147835771Y-53928571D02*
X147883390Y-53833333D01*
X147883390Y-53833333D02*
X147931009Y-53785714D01*
X147931009Y-53785714D02*
X148026247Y-53738095D01*
X148026247Y-53738095D02*
X148264342Y-53738095D01*
X148264342Y-53738095D02*
X148359580Y-53785714D01*
X148359580Y-53785714D02*
X148407200Y-53833333D01*
X148407200Y-53833333D02*
X148454819Y-53928571D01*
X148454819Y-53928571D02*
X148454819Y-54166666D01*
X148454819Y-54166666D02*
X148407200Y-54261904D01*
X148407200Y-54261904D02*
X148359580Y-54309523D01*
X147454819Y-52833333D02*
X147454819Y-53309523D01*
X147454819Y-53309523D02*
X147931009Y-53357142D01*
X147931009Y-53357142D02*
X147883390Y-53309523D01*
X147883390Y-53309523D02*
X147835771Y-53214285D01*
X147835771Y-53214285D02*
X147835771Y-52976190D01*
X147835771Y-52976190D02*
X147883390Y-52880952D01*
X147883390Y-52880952D02*
X147931009Y-52833333D01*
X147931009Y-52833333D02*
X148026247Y-52785714D01*
X148026247Y-52785714D02*
X148264342Y-52785714D01*
X148264342Y-52785714D02*
X148359580Y-52833333D01*
X148359580Y-52833333D02*
X148407200Y-52880952D01*
X148407200Y-52880952D02*
X148454819Y-52976190D01*
X148454819Y-52976190D02*
X148454819Y-53214285D01*
X148454819Y-53214285D02*
X148407200Y-53309523D01*
X148407200Y-53309523D02*
X148359580Y-53357142D01*
X148454819Y-52357142D02*
X147454819Y-52357142D01*
X147454819Y-52357142D02*
X147454819Y-51976190D01*
X147454819Y-51976190D02*
X147502438Y-51880952D01*
X147502438Y-51880952D02*
X147550057Y-51833333D01*
X147550057Y-51833333D02*
X147645295Y-51785714D01*
X147645295Y-51785714D02*
X147788152Y-51785714D01*
X147788152Y-51785714D02*
X147883390Y-51833333D01*
X147883390Y-51833333D02*
X147931009Y-51880952D01*
X147931009Y-51880952D02*
X147978628Y-51976190D01*
X147978628Y-51976190D02*
X147978628Y-52357142D01*
X138738095Y-63954819D02*
X138738095Y-62954819D01*
X138738095Y-62954819D02*
X138976190Y-62954819D01*
X138976190Y-62954819D02*
X139119047Y-63002438D01*
X139119047Y-63002438D02*
X139214285Y-63097676D01*
X139214285Y-63097676D02*
X139261904Y-63192914D01*
X139261904Y-63192914D02*
X139309523Y-63383390D01*
X139309523Y-63383390D02*
X139309523Y-63526247D01*
X139309523Y-63526247D02*
X139261904Y-63716723D01*
X139261904Y-63716723D02*
X139214285Y-63811961D01*
X139214285Y-63811961D02*
X139119047Y-63907200D01*
X139119047Y-63907200D02*
X138976190Y-63954819D01*
X138976190Y-63954819D02*
X138738095Y-63954819D01*
X140904761Y-68454819D02*
X140333333Y-68454819D01*
X140619047Y-68454819D02*
X140619047Y-67454819D01*
X140619047Y-67454819D02*
X140523809Y-67597676D01*
X140523809Y-67597676D02*
X140428571Y-67692914D01*
X140428571Y-67692914D02*
X140333333Y-67740533D01*
X141523809Y-67454819D02*
X141619047Y-67454819D01*
X141619047Y-67454819D02*
X141714285Y-67502438D01*
X141714285Y-67502438D02*
X141761904Y-67550057D01*
X141761904Y-67550057D02*
X141809523Y-67645295D01*
X141809523Y-67645295D02*
X141857142Y-67835771D01*
X141857142Y-67835771D02*
X141857142Y-68073866D01*
X141857142Y-68073866D02*
X141809523Y-68264342D01*
X141809523Y-68264342D02*
X141761904Y-68359580D01*
X141761904Y-68359580D02*
X141714285Y-68407200D01*
X141714285Y-68407200D02*
X141619047Y-68454819D01*
X141619047Y-68454819D02*
X141523809Y-68454819D01*
X141523809Y-68454819D02*
X141428571Y-68407200D01*
X141428571Y-68407200D02*
X141380952Y-68359580D01*
X141380952Y-68359580D02*
X141333333Y-68264342D01*
X141333333Y-68264342D02*
X141285714Y-68073866D01*
X141285714Y-68073866D02*
X141285714Y-67835771D01*
X141285714Y-67835771D02*
X141333333Y-67645295D01*
X141333333Y-67645295D02*
X141380952Y-67550057D01*
X141380952Y-67550057D02*
X141428571Y-67502438D01*
X141428571Y-67502438D02*
X141523809Y-67454819D01*
X142285714Y-68454819D02*
X142285714Y-67454819D01*
X142380952Y-68073866D02*
X142666666Y-68454819D01*
X142666666Y-67788152D02*
X142285714Y-68169104D01*
X122107143Y-63919104D02*
X122583333Y-63919104D01*
X122011905Y-64204819D02*
X122345238Y-63204819D01*
X122345238Y-63204819D02*
X122678571Y-64204819D01*
X122916667Y-63204819D02*
X123535714Y-63204819D01*
X123535714Y-63204819D02*
X123202381Y-63585771D01*
X123202381Y-63585771D02*
X123345238Y-63585771D01*
X123345238Y-63585771D02*
X123440476Y-63633390D01*
X123440476Y-63633390D02*
X123488095Y-63681009D01*
X123488095Y-63681009D02*
X123535714Y-63776247D01*
X123535714Y-63776247D02*
X123535714Y-64014342D01*
X123535714Y-64014342D02*
X123488095Y-64109580D01*
X123488095Y-64109580D02*
X123440476Y-64157200D01*
X123440476Y-64157200D02*
X123345238Y-64204819D01*
X123345238Y-64204819D02*
X123059524Y-64204819D01*
X123059524Y-64204819D02*
X122964286Y-64157200D01*
X122964286Y-64157200D02*
X122916667Y-64109580D01*
X124488095Y-64204819D02*
X123916667Y-64204819D01*
X124202381Y-64204819D02*
X124202381Y-63204819D01*
X124202381Y-63204819D02*
X124107143Y-63347676D01*
X124107143Y-63347676D02*
X124011905Y-63442914D01*
X124011905Y-63442914D02*
X123916667Y-63490533D01*
X125345238Y-63538152D02*
X125345238Y-64204819D01*
X125107143Y-63157200D02*
X124869048Y-63871485D01*
X124869048Y-63871485D02*
X125488095Y-63871485D01*
X126297619Y-63538152D02*
X126297619Y-64204819D01*
X126059524Y-63157200D02*
X125821429Y-63871485D01*
X125821429Y-63871485D02*
X126440476Y-63871485D01*
X139454819Y-55015238D02*
X139454819Y-55586666D01*
X139454819Y-55300952D02*
X138454819Y-55300952D01*
X138454819Y-55300952D02*
X138597676Y-55396190D01*
X138597676Y-55396190D02*
X138692914Y-55491428D01*
X138692914Y-55491428D02*
X138740533Y-55586666D01*
X138454819Y-54396190D02*
X138454819Y-54300952D01*
X138454819Y-54300952D02*
X138502438Y-54205714D01*
X138502438Y-54205714D02*
X138550057Y-54158095D01*
X138550057Y-54158095D02*
X138645295Y-54110476D01*
X138645295Y-54110476D02*
X138835771Y-54062857D01*
X138835771Y-54062857D02*
X139073866Y-54062857D01*
X139073866Y-54062857D02*
X139264342Y-54110476D01*
X139264342Y-54110476D02*
X139359580Y-54158095D01*
X139359580Y-54158095D02*
X139407200Y-54205714D01*
X139407200Y-54205714D02*
X139454819Y-54300952D01*
X139454819Y-54300952D02*
X139454819Y-54396190D01*
X139454819Y-54396190D02*
X139407200Y-54491428D01*
X139407200Y-54491428D02*
X139359580Y-54539047D01*
X139359580Y-54539047D02*
X139264342Y-54586666D01*
X139264342Y-54586666D02*
X139073866Y-54634285D01*
X139073866Y-54634285D02*
X138835771Y-54634285D01*
X138835771Y-54634285D02*
X138645295Y-54586666D01*
X138645295Y-54586666D02*
X138550057Y-54539047D01*
X138550057Y-54539047D02*
X138502438Y-54491428D01*
X138502438Y-54491428D02*
X138454819Y-54396190D01*
X139454819Y-53634285D02*
X138454819Y-53634285D01*
X139073866Y-53539047D02*
X139454819Y-53253333D01*
X138788152Y-53253333D02*
X139169104Y-53634285D01*
X129285714Y-67954819D02*
X128714286Y-67954819D01*
X129000000Y-67954819D02*
X129000000Y-66954819D01*
X129000000Y-66954819D02*
X128904762Y-67097676D01*
X128904762Y-67097676D02*
X128809524Y-67192914D01*
X128809524Y-67192914D02*
X128714286Y-67240533D01*
X129904762Y-66954819D02*
X130000000Y-66954819D01*
X130000000Y-66954819D02*
X130095238Y-67002438D01*
X130095238Y-67002438D02*
X130142857Y-67050057D01*
X130142857Y-67050057D02*
X130190476Y-67145295D01*
X130190476Y-67145295D02*
X130238095Y-67335771D01*
X130238095Y-67335771D02*
X130238095Y-67573866D01*
X130238095Y-67573866D02*
X130190476Y-67764342D01*
X130190476Y-67764342D02*
X130142857Y-67859580D01*
X130142857Y-67859580D02*
X130095238Y-67907200D01*
X130095238Y-67907200D02*
X130000000Y-67954819D01*
X130000000Y-67954819D02*
X129904762Y-67954819D01*
X129904762Y-67954819D02*
X129809524Y-67907200D01*
X129809524Y-67907200D02*
X129761905Y-67859580D01*
X129761905Y-67859580D02*
X129714286Y-67764342D01*
X129714286Y-67764342D02*
X129666667Y-67573866D01*
X129666667Y-67573866D02*
X129666667Y-67335771D01*
X129666667Y-67335771D02*
X129714286Y-67145295D01*
X129714286Y-67145295D02*
X129761905Y-67050057D01*
X129761905Y-67050057D02*
X129809524Y-67002438D01*
X129809524Y-67002438D02*
X129904762Y-66954819D01*
X130666667Y-67288152D02*
X130666667Y-68288152D01*
X131142857Y-67811961D02*
X131190476Y-67907200D01*
X131190476Y-67907200D02*
X131285714Y-67954819D01*
X130666667Y-67811961D02*
X130714286Y-67907200D01*
X130714286Y-67907200D02*
X130809524Y-67954819D01*
X130809524Y-67954819D02*
X131000000Y-67954819D01*
X131000000Y-67954819D02*
X131095238Y-67907200D01*
X131095238Y-67907200D02*
X131142857Y-67811961D01*
X131142857Y-67811961D02*
X131142857Y-67288152D01*
X158309524Y-67800057D02*
X158357143Y-67752438D01*
X158357143Y-67752438D02*
X158452381Y-67704819D01*
X158452381Y-67704819D02*
X158690476Y-67704819D01*
X158690476Y-67704819D02*
X158785714Y-67752438D01*
X158785714Y-67752438D02*
X158833333Y-67800057D01*
X158833333Y-67800057D02*
X158880952Y-67895295D01*
X158880952Y-67895295D02*
X158880952Y-67990533D01*
X158880952Y-67990533D02*
X158833333Y-68133390D01*
X158833333Y-68133390D02*
X158261905Y-68704819D01*
X158261905Y-68704819D02*
X158880952Y-68704819D01*
X159261905Y-67800057D02*
X159309524Y-67752438D01*
X159309524Y-67752438D02*
X159404762Y-67704819D01*
X159404762Y-67704819D02*
X159642857Y-67704819D01*
X159642857Y-67704819D02*
X159738095Y-67752438D01*
X159738095Y-67752438D02*
X159785714Y-67800057D01*
X159785714Y-67800057D02*
X159833333Y-67895295D01*
X159833333Y-67895295D02*
X159833333Y-67990533D01*
X159833333Y-67990533D02*
X159785714Y-68133390D01*
X159785714Y-68133390D02*
X159214286Y-68704819D01*
X159214286Y-68704819D02*
X159833333Y-68704819D01*
X160452381Y-67704819D02*
X160547619Y-67704819D01*
X160547619Y-67704819D02*
X160642857Y-67752438D01*
X160642857Y-67752438D02*
X160690476Y-67800057D01*
X160690476Y-67800057D02*
X160738095Y-67895295D01*
X160738095Y-67895295D02*
X160785714Y-68085771D01*
X160785714Y-68085771D02*
X160785714Y-68323866D01*
X160785714Y-68323866D02*
X160738095Y-68514342D01*
X160738095Y-68514342D02*
X160690476Y-68609580D01*
X160690476Y-68609580D02*
X160642857Y-68657200D01*
X160642857Y-68657200D02*
X160547619Y-68704819D01*
X160547619Y-68704819D02*
X160452381Y-68704819D01*
X160452381Y-68704819D02*
X160357143Y-68657200D01*
X160357143Y-68657200D02*
X160309524Y-68609580D01*
X160309524Y-68609580D02*
X160261905Y-68514342D01*
X160261905Y-68514342D02*
X160214286Y-68323866D01*
X160214286Y-68323866D02*
X160214286Y-68085771D01*
X160214286Y-68085771D02*
X160261905Y-67895295D01*
X160261905Y-67895295D02*
X160309524Y-67800057D01*
X160309524Y-67800057D02*
X160357143Y-67752438D01*
X160357143Y-67752438D02*
X160452381Y-67704819D01*
X161214286Y-68038152D02*
X161214286Y-68704819D01*
X161214286Y-68133390D02*
X161261905Y-68085771D01*
X161261905Y-68085771D02*
X161357143Y-68038152D01*
X161357143Y-68038152D02*
X161500000Y-68038152D01*
X161500000Y-68038152D02*
X161595238Y-68085771D01*
X161595238Y-68085771D02*
X161642857Y-68181009D01*
X161642857Y-68181009D02*
X161642857Y-68704819D01*
X154354819Y-85881904D02*
X155164342Y-85881904D01*
X155164342Y-85881904D02*
X155259580Y-85834285D01*
X155259580Y-85834285D02*
X155307200Y-85786666D01*
X155307200Y-85786666D02*
X155354819Y-85691428D01*
X155354819Y-85691428D02*
X155354819Y-85500952D01*
X155354819Y-85500952D02*
X155307200Y-85405714D01*
X155307200Y-85405714D02*
X155259580Y-85358095D01*
X155259580Y-85358095D02*
X155164342Y-85310476D01*
X155164342Y-85310476D02*
X154354819Y-85310476D01*
X155307200Y-84881904D02*
X155354819Y-84739047D01*
X155354819Y-84739047D02*
X155354819Y-84500952D01*
X155354819Y-84500952D02*
X155307200Y-84405714D01*
X155307200Y-84405714D02*
X155259580Y-84358095D01*
X155259580Y-84358095D02*
X155164342Y-84310476D01*
X155164342Y-84310476D02*
X155069104Y-84310476D01*
X155069104Y-84310476D02*
X154973866Y-84358095D01*
X154973866Y-84358095D02*
X154926247Y-84405714D01*
X154926247Y-84405714D02*
X154878628Y-84500952D01*
X154878628Y-84500952D02*
X154831009Y-84691428D01*
X154831009Y-84691428D02*
X154783390Y-84786666D01*
X154783390Y-84786666D02*
X154735771Y-84834285D01*
X154735771Y-84834285D02*
X154640533Y-84881904D01*
X154640533Y-84881904D02*
X154545295Y-84881904D01*
X154545295Y-84881904D02*
X154450057Y-84834285D01*
X154450057Y-84834285D02*
X154402438Y-84786666D01*
X154402438Y-84786666D02*
X154354819Y-84691428D01*
X154354819Y-84691428D02*
X154354819Y-84453333D01*
X154354819Y-84453333D02*
X154402438Y-84310476D01*
X154831009Y-83548571D02*
X154878628Y-83405714D01*
X154878628Y-83405714D02*
X154926247Y-83358095D01*
X154926247Y-83358095D02*
X155021485Y-83310476D01*
X155021485Y-83310476D02*
X155164342Y-83310476D01*
X155164342Y-83310476D02*
X155259580Y-83358095D01*
X155259580Y-83358095D02*
X155307200Y-83405714D01*
X155307200Y-83405714D02*
X155354819Y-83500952D01*
X155354819Y-83500952D02*
X155354819Y-83881904D01*
X155354819Y-83881904D02*
X154354819Y-83881904D01*
X154354819Y-83881904D02*
X154354819Y-83548571D01*
X154354819Y-83548571D02*
X154402438Y-83453333D01*
X154402438Y-83453333D02*
X154450057Y-83405714D01*
X154450057Y-83405714D02*
X154545295Y-83358095D01*
X154545295Y-83358095D02*
X154640533Y-83358095D01*
X154640533Y-83358095D02*
X154735771Y-83405714D01*
X154735771Y-83405714D02*
X154783390Y-83453333D01*
X154783390Y-83453333D02*
X154831009Y-83548571D01*
X154831009Y-83548571D02*
X154831009Y-83881904D01*
%TO.C,UNIT_1*%
D10*
X73700000Y-65380000D02*
X113700000Y-65380000D01*
X113700000Y-93380000D01*
X73700000Y-93380000D01*
X73700000Y-65380000D01*
D12*
%TO.C,D1*%
X126830000Y-53420000D02*
X126830000Y-53101000D01*
X126830000Y-55899000D02*
X126830000Y-55580000D01*
X122526442Y-53419931D02*
G75*
G02*
X126830000Y-53101251I2243558J-1080069D01*
G01*
X123086706Y-53419943D02*
G75*
G02*
X126453330Y-53420000I1683294J-1080057D01*
G01*
X126453330Y-55580000D02*
G75*
G02*
X123086706Y-55580057I-1683330J1080000D01*
G01*
X126830000Y-55898749D02*
G75*
G02*
X122526443Y-55580069I-2060000J1398749D01*
G01*
%TO.C,C2*%
X117230000Y-61080000D02*
X117230000Y-61705000D01*
X117230000Y-61080000D02*
X121270000Y-61080000D01*
X117230000Y-63295000D02*
X117230000Y-63920000D01*
X117230000Y-63920000D02*
X121270000Y-63920000D01*
X121270000Y-61080000D02*
X121270000Y-61705000D01*
X121270000Y-63295000D02*
X121270000Y-63920000D01*
%TO.C,R1*%
X127630000Y-51150000D02*
X127630000Y-57690000D01*
X127630000Y-57690000D02*
X130370000Y-57690000D01*
X129000000Y-50380000D02*
X129000000Y-51150000D01*
X129000000Y-58460000D02*
X129000000Y-57690000D01*
X130370000Y-51150000D02*
X127630000Y-51150000D01*
X130370000Y-57690000D02*
X130370000Y-51150000D01*
%TO.C,R3*%
X134130000Y-51150000D02*
X134130000Y-57690000D01*
X134130000Y-57690000D02*
X136870000Y-57690000D01*
X135500000Y-50380000D02*
X135500000Y-51150000D01*
X135500000Y-58460000D02*
X135500000Y-57690000D01*
X136870000Y-51150000D02*
X134130000Y-51150000D01*
X136870000Y-57690000D02*
X136870000Y-51150000D01*
%TO.C,C1*%
X117230199Y-56805000D02*
X117630199Y-56805000D01*
X117430199Y-56605000D02*
X117430199Y-57005000D01*
X119500000Y-55920000D02*
X119500000Y-60080000D01*
X119540000Y-55920000D02*
X119540000Y-60080000D01*
X119580000Y-55921000D02*
X119580000Y-60079000D01*
X119620000Y-55923000D02*
X119620000Y-60077000D01*
X119660000Y-55926000D02*
X119660000Y-60074000D01*
X119700000Y-55929000D02*
X119700000Y-57160000D01*
X119700000Y-58840000D02*
X119700000Y-60071000D01*
X119740000Y-55933000D02*
X119740000Y-57160000D01*
X119740000Y-58840000D02*
X119740000Y-60067000D01*
X119780000Y-55938000D02*
X119780000Y-57160000D01*
X119780000Y-58840000D02*
X119780000Y-60062000D01*
X119820000Y-55944000D02*
X119820000Y-57160000D01*
X119820000Y-58840000D02*
X119820000Y-60056000D01*
X119860000Y-55950000D02*
X119860000Y-57160000D01*
X119860000Y-58840000D02*
X119860000Y-60050000D01*
X119900000Y-55958000D02*
X119900000Y-57160000D01*
X119900000Y-58840000D02*
X119900000Y-60042000D01*
X119940000Y-55966000D02*
X119940000Y-57160000D01*
X119940000Y-58840000D02*
X119940000Y-60034000D01*
X119980000Y-55975000D02*
X119980000Y-57160000D01*
X119980000Y-58840000D02*
X119980000Y-60025000D01*
X120020000Y-55984000D02*
X120020000Y-57160000D01*
X120020000Y-58840000D02*
X120020000Y-60016000D01*
X120060000Y-55995000D02*
X120060000Y-57160000D01*
X120060000Y-58840000D02*
X120060000Y-60005000D01*
X120100000Y-56006000D02*
X120100000Y-57160000D01*
X120100000Y-58840000D02*
X120100000Y-59994000D01*
X120140000Y-56018000D02*
X120140000Y-57160000D01*
X120140000Y-58840000D02*
X120140000Y-59982000D01*
X120180000Y-56032000D02*
X120180000Y-57160000D01*
X120180000Y-58840000D02*
X120180000Y-59968000D01*
X120221000Y-56046000D02*
X120221000Y-57160000D01*
X120221000Y-58840000D02*
X120221000Y-59954000D01*
X120261000Y-56060000D02*
X120261000Y-57160000D01*
X120261000Y-58840000D02*
X120261000Y-59940000D01*
X120301000Y-56076000D02*
X120301000Y-57160000D01*
X120301000Y-58840000D02*
X120301000Y-59924000D01*
X120341000Y-56093000D02*
X120341000Y-57160000D01*
X120341000Y-58840000D02*
X120341000Y-59907000D01*
X120381000Y-56111000D02*
X120381000Y-57160000D01*
X120381000Y-58840000D02*
X120381000Y-59889000D01*
X120421000Y-56130000D02*
X120421000Y-57160000D01*
X120421000Y-58840000D02*
X120421000Y-59870000D01*
X120461000Y-56149000D02*
X120461000Y-57160000D01*
X120461000Y-58840000D02*
X120461000Y-59851000D01*
X120501000Y-56170000D02*
X120501000Y-57160000D01*
X120501000Y-58840000D02*
X120501000Y-59830000D01*
X120541000Y-56192000D02*
X120541000Y-57160000D01*
X120541000Y-58840000D02*
X120541000Y-59808000D01*
X120581000Y-56215000D02*
X120581000Y-57160000D01*
X120581000Y-58840000D02*
X120581000Y-59785000D01*
X120621000Y-56240000D02*
X120621000Y-57160000D01*
X120621000Y-58840000D02*
X120621000Y-59760000D01*
X120661000Y-56265000D02*
X120661000Y-57160000D01*
X120661000Y-58840000D02*
X120661000Y-59735000D01*
X120701000Y-56292000D02*
X120701000Y-57160000D01*
X120701000Y-58840000D02*
X120701000Y-59708000D01*
X120741000Y-56320000D02*
X120741000Y-57160000D01*
X120741000Y-58840000D02*
X120741000Y-59680000D01*
X120781000Y-56350000D02*
X120781000Y-57160000D01*
X120781000Y-58840000D02*
X120781000Y-59650000D01*
X120821000Y-56381000D02*
X120821000Y-57160000D01*
X120821000Y-58840000D02*
X120821000Y-59619000D01*
X120861000Y-56413000D02*
X120861000Y-57160000D01*
X120861000Y-58840000D02*
X120861000Y-59587000D01*
X120901000Y-56448000D02*
X120901000Y-57160000D01*
X120901000Y-58840000D02*
X120901000Y-59552000D01*
X120941000Y-56484000D02*
X120941000Y-57160000D01*
X120941000Y-58840000D02*
X120941000Y-59516000D01*
X120981000Y-56522000D02*
X120981000Y-57160000D01*
X120981000Y-58840000D02*
X120981000Y-59478000D01*
X121021000Y-56562000D02*
X121021000Y-57160000D01*
X121021000Y-58840000D02*
X121021000Y-59438000D01*
X121061000Y-56604000D02*
X121061000Y-57160000D01*
X121061000Y-58840000D02*
X121061000Y-59396000D01*
X121101000Y-56649000D02*
X121101000Y-57160000D01*
X121101000Y-58840000D02*
X121101000Y-59351000D01*
X121141000Y-56696000D02*
X121141000Y-57160000D01*
X121141000Y-58840000D02*
X121141000Y-59304000D01*
X121181000Y-56746000D02*
X121181000Y-57160000D01*
X121181000Y-58840000D02*
X121181000Y-59254000D01*
X121221000Y-56800000D02*
X121221000Y-57160000D01*
X121221000Y-58840000D02*
X121221000Y-59200000D01*
X121261000Y-56858000D02*
X121261000Y-57160000D01*
X121261000Y-58840000D02*
X121261000Y-59142000D01*
X121301000Y-56920000D02*
X121301000Y-57160000D01*
X121301000Y-58840000D02*
X121301000Y-59080000D01*
X121341000Y-56987000D02*
X121341000Y-59013000D01*
X121381000Y-57060000D02*
X121381000Y-58940000D01*
X121421000Y-57141000D02*
X121421000Y-58859000D01*
X121461000Y-57232000D02*
X121461000Y-58768000D01*
X121501000Y-57336000D02*
X121501000Y-58664000D01*
X121541000Y-57463000D02*
X121541000Y-58537000D01*
X121581000Y-57630000D02*
X121581000Y-58370000D01*
X121620000Y-58000000D02*
G75*
G02*
X117380000Y-58000000I-2120000J0D01*
G01*
X117380000Y-58000000D02*
G75*
G02*
X121620000Y-58000000I2120000J0D01*
G01*
%TO.C,R7*%
X147680000Y-68000000D02*
X146570000Y-68000000D01*
X146570000Y-69920000D02*
X146570000Y-66080000D01*
X146570000Y-66080000D02*
X136430000Y-66080000D01*
X136430000Y-69920000D02*
X146570000Y-69920000D01*
X136430000Y-66080000D02*
X136430000Y-69920000D01*
X135320000Y-68000000D02*
X136430000Y-68000000D01*
%TO.C,C3*%
X130580000Y-61230000D02*
X130580000Y-65270000D01*
X131205000Y-61230000D02*
X130580000Y-61230000D01*
X131205000Y-65270000D02*
X130580000Y-65270000D01*
X133420000Y-61230000D02*
X132795000Y-61230000D01*
X133420000Y-61230000D02*
X133420000Y-65270000D01*
X133420000Y-65270000D02*
X132795000Y-65270000D01*
%TO.C,R2*%
X130630000Y-51150000D02*
X130630000Y-57690000D01*
X130630000Y-57690000D02*
X133370000Y-57690000D01*
X132000000Y-50380000D02*
X132000000Y-51150000D01*
X132000000Y-58460000D02*
X132000000Y-57690000D01*
X133370000Y-51150000D02*
X130630000Y-51150000D01*
X133370000Y-57690000D02*
X133370000Y-51150000D01*
%TO.C,R5*%
X157130000Y-51150000D02*
X157130000Y-57690000D01*
X157130000Y-57690000D02*
X159870000Y-57690000D01*
X158500000Y-50380000D02*
X158500000Y-51150000D01*
X158500000Y-58460000D02*
X158500000Y-57690000D01*
X159870000Y-51150000D02*
X157130000Y-51150000D01*
X159870000Y-57690000D02*
X159870000Y-51150000D01*
%TO.C,C6*%
X151230199Y-69305000D02*
X151630199Y-69305000D01*
X151430199Y-69105000D02*
X151430199Y-69505000D01*
X153500000Y-68420000D02*
X153500000Y-72580000D01*
X153540000Y-68420000D02*
X153540000Y-72580000D01*
X153580000Y-68421000D02*
X153580000Y-72579000D01*
X153620000Y-68423000D02*
X153620000Y-72577000D01*
X153660000Y-68426000D02*
X153660000Y-72574000D01*
X153700000Y-68429000D02*
X153700000Y-69660000D01*
X153700000Y-71340000D02*
X153700000Y-72571000D01*
X153740000Y-68433000D02*
X153740000Y-69660000D01*
X153740000Y-71340000D02*
X153740000Y-72567000D01*
X153780000Y-68438000D02*
X153780000Y-69660000D01*
X153780000Y-71340000D02*
X153780000Y-72562000D01*
X153820000Y-68444000D02*
X153820000Y-69660000D01*
X153820000Y-71340000D02*
X153820000Y-72556000D01*
X153860000Y-68450000D02*
X153860000Y-69660000D01*
X153860000Y-71340000D02*
X153860000Y-72550000D01*
X153900000Y-68458000D02*
X153900000Y-69660000D01*
X153900000Y-71340000D02*
X153900000Y-72542000D01*
X153940000Y-68466000D02*
X153940000Y-69660000D01*
X153940000Y-71340000D02*
X153940000Y-72534000D01*
X153980000Y-68475000D02*
X153980000Y-69660000D01*
X153980000Y-71340000D02*
X153980000Y-72525000D01*
X154020000Y-68484000D02*
X154020000Y-69660000D01*
X154020000Y-71340000D02*
X154020000Y-72516000D01*
X154060000Y-68495000D02*
X154060000Y-69660000D01*
X154060000Y-71340000D02*
X154060000Y-72505000D01*
X154100000Y-68506000D02*
X154100000Y-69660000D01*
X154100000Y-71340000D02*
X154100000Y-72494000D01*
X154140000Y-68518000D02*
X154140000Y-69660000D01*
X154140000Y-71340000D02*
X154140000Y-72482000D01*
X154180000Y-68532000D02*
X154180000Y-69660000D01*
X154180000Y-71340000D02*
X154180000Y-72468000D01*
X154221000Y-68546000D02*
X154221000Y-69660000D01*
X154221000Y-71340000D02*
X154221000Y-72454000D01*
X154261000Y-68560000D02*
X154261000Y-69660000D01*
X154261000Y-71340000D02*
X154261000Y-72440000D01*
X154301000Y-68576000D02*
X154301000Y-69660000D01*
X154301000Y-71340000D02*
X154301000Y-72424000D01*
X154341000Y-68593000D02*
X154341000Y-69660000D01*
X154341000Y-71340000D02*
X154341000Y-72407000D01*
X154381000Y-68611000D02*
X154381000Y-69660000D01*
X154381000Y-71340000D02*
X154381000Y-72389000D01*
X154421000Y-68630000D02*
X154421000Y-69660000D01*
X154421000Y-71340000D02*
X154421000Y-72370000D01*
X154461000Y-68649000D02*
X154461000Y-69660000D01*
X154461000Y-71340000D02*
X154461000Y-72351000D01*
X154501000Y-68670000D02*
X154501000Y-69660000D01*
X154501000Y-71340000D02*
X154501000Y-72330000D01*
X154541000Y-68692000D02*
X154541000Y-69660000D01*
X154541000Y-71340000D02*
X154541000Y-72308000D01*
X154581000Y-68715000D02*
X154581000Y-69660000D01*
X154581000Y-71340000D02*
X154581000Y-72285000D01*
X154621000Y-68740000D02*
X154621000Y-69660000D01*
X154621000Y-71340000D02*
X154621000Y-72260000D01*
X154661000Y-68765000D02*
X154661000Y-69660000D01*
X154661000Y-71340000D02*
X154661000Y-72235000D01*
X154701000Y-68792000D02*
X154701000Y-69660000D01*
X154701000Y-71340000D02*
X154701000Y-72208000D01*
X154741000Y-68820000D02*
X154741000Y-69660000D01*
X154741000Y-71340000D02*
X154741000Y-72180000D01*
X154781000Y-68850000D02*
X154781000Y-69660000D01*
X154781000Y-71340000D02*
X154781000Y-72150000D01*
X154821000Y-68881000D02*
X154821000Y-69660000D01*
X154821000Y-71340000D02*
X154821000Y-72119000D01*
X154861000Y-68913000D02*
X154861000Y-69660000D01*
X154861000Y-71340000D02*
X154861000Y-72087000D01*
X154901000Y-68948000D02*
X154901000Y-69660000D01*
X154901000Y-71340000D02*
X154901000Y-72052000D01*
X154941000Y-68984000D02*
X154941000Y-69660000D01*
X154941000Y-71340000D02*
X154941000Y-72016000D01*
X154981000Y-69022000D02*
X154981000Y-69660000D01*
X154981000Y-71340000D02*
X154981000Y-71978000D01*
X155021000Y-69062000D02*
X155021000Y-69660000D01*
X155021000Y-71340000D02*
X155021000Y-71938000D01*
X155061000Y-69104000D02*
X155061000Y-69660000D01*
X155061000Y-71340000D02*
X155061000Y-71896000D01*
X155101000Y-69149000D02*
X155101000Y-69660000D01*
X155101000Y-71340000D02*
X155101000Y-71851000D01*
X155141000Y-69196000D02*
X155141000Y-69660000D01*
X155141000Y-71340000D02*
X155141000Y-71804000D01*
X155181000Y-69246000D02*
X155181000Y-69660000D01*
X155181000Y-71340000D02*
X155181000Y-71754000D01*
X155221000Y-69300000D02*
X155221000Y-69660000D01*
X155221000Y-71340000D02*
X155221000Y-71700000D01*
X155261000Y-69358000D02*
X155261000Y-69660000D01*
X155261000Y-71340000D02*
X155261000Y-71642000D01*
X155301000Y-69420000D02*
X155301000Y-69660000D01*
X155301000Y-71340000D02*
X155301000Y-71580000D01*
X155341000Y-69487000D02*
X155341000Y-71513000D01*
X155381000Y-69560000D02*
X155381000Y-71440000D01*
X155421000Y-69641000D02*
X155421000Y-71359000D01*
X155461000Y-69732000D02*
X155461000Y-71268000D01*
X155501000Y-69836000D02*
X155501000Y-71164000D01*
X155541000Y-69963000D02*
X155541000Y-71037000D01*
X155581000Y-70130000D02*
X155581000Y-70870000D01*
X155620000Y-70500000D02*
G75*
G02*
X151380000Y-70500000I-2120000J0D01*
G01*
X151380000Y-70500000D02*
G75*
G02*
X155620000Y-70500000I2120000J0D01*
G01*
%TO.C,R6*%
X153630000Y-51150000D02*
X153630000Y-57690000D01*
X153630000Y-57690000D02*
X156370000Y-57690000D01*
X155000000Y-50380000D02*
X155000000Y-51150000D01*
X155000000Y-58460000D02*
X155000000Y-57690000D01*
X156370000Y-51150000D02*
X153630000Y-51150000D01*
X156370000Y-57690000D02*
X156370000Y-51150000D01*
%TO.C,C4*%
X146250000Y-62080000D02*
X146250000Y-62705000D01*
X146250000Y-62080000D02*
X150290000Y-62080000D01*
X146250000Y-64295000D02*
X146250000Y-64920000D01*
X146250000Y-64920000D02*
X150290000Y-64920000D01*
X150290000Y-62080000D02*
X150290000Y-62705000D01*
X150290000Y-64295000D02*
X150290000Y-64920000D01*
%TO.C,U2*%
X145360000Y-49370000D02*
X145360000Y-59650000D01*
X145360000Y-59650000D02*
X150660000Y-59650000D01*
X147010000Y-49370000D02*
X145360000Y-49370000D01*
X150660000Y-49370000D02*
X149010000Y-49370000D01*
X150660000Y-59650000D02*
X150660000Y-49370000D01*
X149010000Y-49370000D02*
G75*
G02*
X147010000Y-49370000I-1000000J0D01*
G01*
%TO.C,D2*%
X136280000Y-62030000D02*
X141720000Y-62030000D01*
X136280000Y-62160000D02*
X136280000Y-62030000D01*
X136280000Y-64840000D02*
X136280000Y-64970000D01*
X136280000Y-64970000D02*
X141720000Y-64970000D01*
X137060000Y-62030000D02*
X137060000Y-64970000D01*
X137180000Y-62030000D02*
X137180000Y-64970000D01*
X137300000Y-62030000D02*
X137300000Y-64970000D01*
X141720000Y-62030000D02*
X141720000Y-62160000D01*
X141720000Y-64970000D02*
X141720000Y-64840000D01*
%TO.C,R8*%
X135320000Y-72500000D02*
X136430000Y-72500000D01*
X136430000Y-70580000D02*
X136430000Y-74420000D01*
X136430000Y-74420000D02*
X146570000Y-74420000D01*
X146570000Y-70580000D02*
X136430000Y-70580000D01*
X146570000Y-74420000D02*
X146570000Y-70580000D01*
X147680000Y-72500000D02*
X146570000Y-72500000D01*
D13*
%TO.C,U1*%
X122230000Y-57930000D02*
X122230000Y-58090000D01*
X122230000Y-62370000D02*
X122230000Y-62530000D01*
X122230000Y-57929999D02*
G75*
G02*
X125829999Y-60230000I1089260J-2262462D01*
G01*
X125830000Y-60230000D02*
G75*
G02*
X122229999Y-62530002I-2510740J-37540D01*
G01*
D14*
X123600000Y-56931000D02*
G75*
G02*
X123400000Y-56931000I-100000J0D01*
G01*
X123400000Y-56931000D02*
G75*
G02*
X123600000Y-56931000I100000J0D01*
G01*
D12*
%TO.C,R4*%
X137630000Y-51150000D02*
X137630000Y-57690000D01*
X137630000Y-57690000D02*
X140370000Y-57690000D01*
X139000000Y-50380000D02*
X139000000Y-51150000D01*
X139000000Y-58460000D02*
X139000000Y-57690000D01*
X140370000Y-51150000D02*
X137630000Y-51150000D01*
X140370000Y-57690000D02*
X140370000Y-51150000D01*
%TO.C,C7*%
X127919000Y-70870000D02*
X127919000Y-70130000D01*
X127959000Y-71037000D02*
X127959000Y-69963000D01*
X127999000Y-71164000D02*
X127999000Y-69836000D01*
X128039000Y-71268000D02*
X128039000Y-69732000D01*
X128079000Y-71359000D02*
X128079000Y-69641000D01*
X128119000Y-71440000D02*
X128119000Y-69560000D01*
X128159000Y-71513000D02*
X128159000Y-69487000D01*
X128199000Y-69660000D02*
X128199000Y-69420000D01*
X128199000Y-71580000D02*
X128199000Y-71340000D01*
X128239000Y-69660000D02*
X128239000Y-69358000D01*
X128239000Y-71642000D02*
X128239000Y-71340000D01*
X128279000Y-69660000D02*
X128279000Y-69300000D01*
X128279000Y-71700000D02*
X128279000Y-71340000D01*
X128319000Y-69660000D02*
X128319000Y-69246000D01*
X128319000Y-71754000D02*
X128319000Y-71340000D01*
X128359000Y-69660000D02*
X128359000Y-69196000D01*
X128359000Y-71804000D02*
X128359000Y-71340000D01*
X128399000Y-69660000D02*
X128399000Y-69149000D01*
X128399000Y-71851000D02*
X128399000Y-71340000D01*
X128439000Y-69660000D02*
X128439000Y-69104000D01*
X128439000Y-71896000D02*
X128439000Y-71340000D01*
X128479000Y-69660000D02*
X128479000Y-69062000D01*
X128479000Y-71938000D02*
X128479000Y-71340000D01*
X128519000Y-69660000D02*
X128519000Y-69022000D01*
X128519000Y-71978000D02*
X128519000Y-71340000D01*
X128559000Y-69660000D02*
X128559000Y-68984000D01*
X128559000Y-72016000D02*
X128559000Y-71340000D01*
X128599000Y-69660000D02*
X128599000Y-68948000D01*
X128599000Y-72052000D02*
X128599000Y-71340000D01*
X128639000Y-69660000D02*
X128639000Y-68913000D01*
X128639000Y-72087000D02*
X128639000Y-71340000D01*
X128679000Y-69660000D02*
X128679000Y-68881000D01*
X128679000Y-72119000D02*
X128679000Y-71340000D01*
X128719000Y-69660000D02*
X128719000Y-68850000D01*
X128719000Y-72150000D02*
X128719000Y-71340000D01*
X128759000Y-69660000D02*
X128759000Y-68820000D01*
X128759000Y-72180000D02*
X128759000Y-71340000D01*
X128799000Y-69660000D02*
X128799000Y-68792000D01*
X128799000Y-72208000D02*
X128799000Y-71340000D01*
X128839000Y-69660000D02*
X128839000Y-68765000D01*
X128839000Y-72235000D02*
X128839000Y-71340000D01*
X128879000Y-69660000D02*
X128879000Y-68740000D01*
X128879000Y-72260000D02*
X128879000Y-71340000D01*
X128919000Y-69660000D02*
X128919000Y-68715000D01*
X128919000Y-72285000D02*
X128919000Y-71340000D01*
X128959000Y-69660000D02*
X128959000Y-68692000D01*
X128959000Y-72308000D02*
X128959000Y-71340000D01*
X128999000Y-69660000D02*
X128999000Y-68670000D01*
X128999000Y-72330000D02*
X128999000Y-71340000D01*
X129039000Y-69660000D02*
X129039000Y-68649000D01*
X129039000Y-72351000D02*
X129039000Y-71340000D01*
X129079000Y-69660000D02*
X129079000Y-68630000D01*
X129079000Y-72370000D02*
X129079000Y-71340000D01*
X129119000Y-69660000D02*
X129119000Y-68611000D01*
X129119000Y-72389000D02*
X129119000Y-71340000D01*
X129159000Y-69660000D02*
X129159000Y-68593000D01*
X129159000Y-72407000D02*
X129159000Y-71340000D01*
X129199000Y-69660000D02*
X129199000Y-68576000D01*
X129199000Y-72424000D02*
X129199000Y-71340000D01*
X129239000Y-69660000D02*
X129239000Y-68560000D01*
X129239000Y-72440000D02*
X129239000Y-71340000D01*
X129279000Y-69660000D02*
X129279000Y-68546000D01*
X129279000Y-72454000D02*
X129279000Y-71340000D01*
X129320000Y-69660000D02*
X129320000Y-68532000D01*
X129320000Y-72468000D02*
X129320000Y-71340000D01*
X129360000Y-69660000D02*
X129360000Y-68518000D01*
X129360000Y-72482000D02*
X129360000Y-71340000D01*
X129400000Y-69660000D02*
X129400000Y-68506000D01*
X129400000Y-72494000D02*
X129400000Y-71340000D01*
X129440000Y-69660000D02*
X129440000Y-68495000D01*
X129440000Y-72505000D02*
X129440000Y-71340000D01*
X129480000Y-69660000D02*
X129480000Y-68484000D01*
X129480000Y-72516000D02*
X129480000Y-71340000D01*
X129520000Y-69660000D02*
X129520000Y-68475000D01*
X129520000Y-72525000D02*
X129520000Y-71340000D01*
X129560000Y-69660000D02*
X129560000Y-68466000D01*
X129560000Y-72534000D02*
X129560000Y-71340000D01*
X129600000Y-69660000D02*
X129600000Y-68458000D01*
X129600000Y-72542000D02*
X129600000Y-71340000D01*
X129640000Y-69660000D02*
X129640000Y-68450000D01*
X129640000Y-72550000D02*
X129640000Y-71340000D01*
X129680000Y-69660000D02*
X129680000Y-68444000D01*
X129680000Y-72556000D02*
X129680000Y-71340000D01*
X129720000Y-69660000D02*
X129720000Y-68438000D01*
X129720000Y-72562000D02*
X129720000Y-71340000D01*
X129760000Y-69660000D02*
X129760000Y-68433000D01*
X129760000Y-72567000D02*
X129760000Y-71340000D01*
X129800000Y-69660000D02*
X129800000Y-68429000D01*
X129800000Y-72571000D02*
X129800000Y-71340000D01*
X129840000Y-72574000D02*
X129840000Y-68426000D01*
X129880000Y-72577000D02*
X129880000Y-68423000D01*
X129920000Y-72579000D02*
X129920000Y-68421000D01*
X129960000Y-72580000D02*
X129960000Y-68420000D01*
X130000000Y-72580000D02*
X130000000Y-68420000D01*
X132069801Y-71895000D02*
X132069801Y-71495000D01*
X132269801Y-71695000D02*
X131869801Y-71695000D01*
X132120000Y-70500000D02*
G75*
G02*
X127880000Y-70500000I-2120000J0D01*
G01*
X127880000Y-70500000D02*
G75*
G02*
X132120000Y-70500000I2120000J0D01*
G01*
%TO.C,C5*%
X154960000Y-65307621D02*
X152778000Y-65307621D01*
X154960000Y-65347621D02*
X152782000Y-65347621D01*
X154960000Y-65387621D02*
X152785000Y-65387621D01*
X154960000Y-65427621D02*
X152789000Y-65427621D01*
X154960000Y-65467621D02*
X152794000Y-65467621D01*
X154960000Y-65507621D02*
X152799000Y-65507621D01*
X154960000Y-65547621D02*
X152805000Y-65547621D01*
X154960000Y-65587621D02*
X152811000Y-65587621D01*
X154960000Y-65627621D02*
X152818000Y-65627621D01*
X154960000Y-65667621D02*
X152825000Y-65667621D01*
X154960000Y-65707621D02*
X152833000Y-65707621D01*
X154960000Y-65747621D02*
X152841000Y-65747621D01*
X154960000Y-65788621D02*
X152850000Y-65788621D01*
X154960000Y-65828621D02*
X152859000Y-65828621D01*
X154960000Y-65868621D02*
X152869000Y-65868621D01*
X154960000Y-65908621D02*
X152879000Y-65908621D01*
X154960000Y-65948621D02*
X152890000Y-65948621D01*
X154960000Y-65988621D02*
X152902000Y-65988621D01*
X154960000Y-66028621D02*
X152914000Y-66028621D01*
X154960000Y-66068621D02*
X152926000Y-66068621D01*
X154960000Y-66108621D02*
X152939000Y-66108621D01*
X154960000Y-66148621D02*
X152953000Y-66148621D01*
X154960000Y-66188621D02*
X152967000Y-66188621D01*
X154960000Y-66228621D02*
X152982000Y-66228621D01*
X154960000Y-66268621D02*
X152998000Y-66268621D01*
X154960000Y-66308621D02*
X153014000Y-66308621D01*
X154960000Y-66348621D02*
X153030000Y-66348621D01*
X154960000Y-66388621D02*
X153048000Y-66388621D01*
X154960000Y-66428621D02*
X153066000Y-66428621D01*
X154960000Y-66468621D02*
X153084000Y-66468621D01*
X154960000Y-66508621D02*
X153104000Y-66508621D01*
X154960000Y-66548621D02*
X153124000Y-66548621D01*
X154960000Y-66588621D02*
X153144000Y-66588621D01*
X154960000Y-66628621D02*
X153166000Y-66628621D01*
X154960000Y-66668621D02*
X153188000Y-66668621D01*
X154960000Y-66708621D02*
X153210000Y-66708621D01*
X154960000Y-66748621D02*
X153234000Y-66748621D01*
X154960000Y-66788621D02*
X153258000Y-66788621D01*
X154960000Y-66828621D02*
X153284000Y-66828621D01*
X154960000Y-66868621D02*
X153310000Y-66868621D01*
X154960000Y-66908621D02*
X153336000Y-66908621D01*
X154960000Y-66948621D02*
X153364000Y-66948621D01*
X154960000Y-66988621D02*
X153393000Y-66988621D01*
X154960000Y-67028621D02*
X153422000Y-67028621D01*
X154960000Y-67068621D02*
X153452000Y-67068621D01*
X154960000Y-67108621D02*
X153484000Y-67108621D01*
X154960000Y-67148621D02*
X153516000Y-67148621D01*
X154960000Y-67188621D02*
X153550000Y-67188621D01*
X154960000Y-67228621D02*
X153584000Y-67228621D01*
X154960000Y-67268621D02*
X153620000Y-67268621D01*
X154960000Y-67308621D02*
X153657000Y-67308621D01*
X154960000Y-67348621D02*
X153695000Y-67348621D01*
X156402000Y-68308621D02*
X155598000Y-68308621D01*
X156633000Y-68268621D02*
X155367000Y-68268621D01*
X156802000Y-68228621D02*
X155198000Y-68228621D01*
X156940000Y-68188621D02*
X155060000Y-68188621D01*
X157059000Y-68148621D02*
X154941000Y-68148621D01*
X157165000Y-68108621D02*
X154835000Y-68108621D01*
X157262000Y-68068621D02*
X154738000Y-68068621D01*
X157350000Y-68028621D02*
X154650000Y-68028621D01*
X157432000Y-67988621D02*
X154568000Y-67988621D01*
X157509000Y-67948621D02*
X154491000Y-67948621D01*
X157581000Y-67908621D02*
X154419000Y-67908621D01*
X157650000Y-67868621D02*
X154350000Y-67868621D01*
X157714000Y-67828621D02*
X154286000Y-67828621D01*
X157776000Y-67788621D02*
X154224000Y-67788621D01*
X157834000Y-67748621D02*
X154166000Y-67748621D01*
X157839000Y-61567380D02*
X157839000Y-62197380D01*
X157890000Y-67708621D02*
X154110000Y-67708621D01*
X157944000Y-67668621D02*
X154056000Y-67668621D01*
X157995000Y-67628621D02*
X154005000Y-67628621D01*
X158044000Y-67588621D02*
X153956000Y-67588621D01*
X158092000Y-67548621D02*
X153908000Y-67548621D01*
X158137000Y-67508621D02*
X153863000Y-67508621D01*
X158154000Y-61882380D02*
X157524000Y-61882380D01*
X158182000Y-67468621D02*
X153818000Y-67468621D01*
X158224000Y-67428621D02*
X153776000Y-67428621D01*
X158265000Y-67388621D02*
X153735000Y-67388621D01*
X158305000Y-67348621D02*
X157040000Y-67348621D01*
X158343000Y-67308621D02*
X157040000Y-67308621D01*
X158380000Y-67268621D02*
X157040000Y-67268621D01*
X158416000Y-67228621D02*
X157040000Y-67228621D01*
X158450000Y-67188621D02*
X157040000Y-67188621D01*
X158484000Y-67148621D02*
X157040000Y-67148621D01*
X158516000Y-67108621D02*
X157040000Y-67108621D01*
X158548000Y-67068621D02*
X157040000Y-67068621D01*
X158578000Y-67028621D02*
X157040000Y-67028621D01*
X158607000Y-66988621D02*
X157040000Y-66988621D01*
X158636000Y-66948621D02*
X157040000Y-66948621D01*
X158664000Y-66908621D02*
X157040000Y-66908621D01*
X158690000Y-66868621D02*
X157040000Y-66868621D01*
X158716000Y-66828621D02*
X157040000Y-66828621D01*
X158742000Y-66788621D02*
X157040000Y-66788621D01*
X158766000Y-66748621D02*
X157040000Y-66748621D01*
X158790000Y-66708621D02*
X157040000Y-66708621D01*
X158812000Y-66668621D02*
X157040000Y-66668621D01*
X158834000Y-66628621D02*
X157040000Y-66628621D01*
X158856000Y-66588621D02*
X157040000Y-66588621D01*
X158876000Y-66548621D02*
X157040000Y-66548621D01*
X158896000Y-66508621D02*
X157040000Y-66508621D01*
X158916000Y-66468621D02*
X157040000Y-66468621D01*
X158934000Y-66428621D02*
X157040000Y-66428621D01*
X158952000Y-66388621D02*
X157040000Y-66388621D01*
X158970000Y-66348621D02*
X157040000Y-66348621D01*
X158986000Y-66308621D02*
X157040000Y-66308621D01*
X159002000Y-66268621D02*
X157040000Y-66268621D01*
X159018000Y-66228621D02*
X157040000Y-66228621D01*
X159033000Y-66188621D02*
X157040000Y-66188621D01*
X159047000Y-66148621D02*
X157040000Y-66148621D01*
X159061000Y-66108621D02*
X157040000Y-66108621D01*
X159074000Y-66068621D02*
X157040000Y-66068621D01*
X159086000Y-66028621D02*
X157040000Y-66028621D01*
X159098000Y-65988621D02*
X157040000Y-65988621D01*
X159110000Y-65948621D02*
X157040000Y-65948621D01*
X159121000Y-65908621D02*
X157040000Y-65908621D01*
X159131000Y-65868621D02*
X157040000Y-65868621D01*
X159141000Y-65828621D02*
X157040000Y-65828621D01*
X159150000Y-65788621D02*
X157040000Y-65788621D01*
X159159000Y-65747621D02*
X157040000Y-65747621D01*
X159167000Y-65707621D02*
X157040000Y-65707621D01*
X159175000Y-65667621D02*
X157040000Y-65667621D01*
X159182000Y-65627621D02*
X157040000Y-65627621D01*
X159189000Y-65587621D02*
X157040000Y-65587621D01*
X159195000Y-65547621D02*
X157040000Y-65547621D01*
X159201000Y-65507621D02*
X157040000Y-65507621D01*
X159206000Y-65467621D02*
X157040000Y-65467621D01*
X159211000Y-65427621D02*
X157040000Y-65427621D01*
X159215000Y-65387621D02*
X157040000Y-65387621D01*
X159218000Y-65347621D02*
X157040000Y-65347621D01*
X159222000Y-65307621D02*
X157040000Y-65307621D01*
X159224000Y-65267621D02*
X152776000Y-65267621D01*
X159227000Y-65227621D02*
X152773000Y-65227621D01*
X159228000Y-65187621D02*
X152772000Y-65187621D01*
X159230000Y-65067621D02*
X152770000Y-65067621D01*
X159230000Y-65107621D02*
X152770000Y-65107621D01*
X159230000Y-65147621D02*
X152770000Y-65147621D01*
X159270000Y-65067621D02*
G75*
G02*
X152730000Y-65067621I-3270000J0D01*
G01*
X152730000Y-65067621D02*
G75*
G02*
X159270000Y-65067621I3270000J0D01*
G01*
%TO.C,UNIT_2*%
X115400000Y-75600000D02*
X115400000Y-93640000D01*
X115400000Y-93640000D02*
X118070000Y-93640000D01*
X118070000Y-78270000D02*
X118070000Y-75600000D01*
X118070000Y-78270000D02*
X156170000Y-78270000D01*
X118070000Y-90970000D02*
X118070000Y-93640000D01*
X120610000Y-90970000D02*
X118070000Y-90970000D01*
X120610000Y-90970000D02*
X120610000Y-93640000D01*
X120610000Y-90970000D02*
X156170000Y-90970000D01*
X120610000Y-93640000D02*
X158840000Y-93640000D01*
X150960000Y-80680000D02*
X161380000Y-80680000D01*
X150960000Y-88560000D02*
X150960000Y-80680000D01*
X156170000Y-78270000D02*
X156170000Y-75600000D01*
X156170000Y-90970000D02*
X156170000Y-93640000D01*
X158840000Y-75600000D02*
X115400000Y-75600000D01*
X158840000Y-75600000D02*
X158840000Y-80680000D01*
X158840000Y-93640000D02*
X158840000Y-88560000D01*
X161380000Y-80680000D02*
X161380000Y-88560000D01*
X161380000Y-88560000D02*
X150960000Y-88560000D01*
%TD*%
M02*
