%TF.GenerationSoftware,KiCad,Pcbnew,8.0.6*%
%TF.CreationDate,2025-02-23T20:13:23-07:00*%
%TF.ProjectId,Dash Indicators (Left),44617368-2049-46e6-9469-6361746f7273,rev?*%
%TF.SameCoordinates,Original*%
%TF.FileFunction,Copper,L1,Top*%
%TF.FilePolarity,Positive*%
%FSLAX46Y46*%
G04 Gerber Fmt 4.6, Leading zero omitted, Abs format (unit mm)*
G04 Created by KiCad (PCBNEW 8.0.6) date 2025-02-23 20:13:23*
%MOMM*%
%LPD*%
G01*
G04 APERTURE LIST*
%TA.AperFunction,ComponentPad*%
%ADD10R,1.800000X1.800000*%
%TD*%
%TA.AperFunction,ComponentPad*%
%ADD11C,1.800000*%
%TD*%
%TA.AperFunction,ComponentPad*%
%ADD12R,1.700000X1.700000*%
%TD*%
%TA.AperFunction,ComponentPad*%
%ADD13O,1.700000X1.700000*%
%TD*%
%TA.AperFunction,Conductor*%
%ADD14C,0.200000*%
%TD*%
%TA.AperFunction,Conductor*%
%ADD15C,0.600000*%
%TD*%
G04 APERTURE END LIST*
D10*
%TO.P,D13,1,K*%
%TO.N,C0*%
X85725000Y-64850000D03*
D11*
%TO.P,D13,2,A*%
%TO.N,A14*%
X88265000Y-64850000D03*
%TD*%
D10*
%TO.P,D8,1,K*%
%TO.N,C1*%
X97525000Y-79850000D03*
D11*
%TO.P,D8,2,A*%
%TO.N,A11*%
X100065000Y-79850000D03*
%TD*%
D10*
%TO.P,D3,1,K*%
%TO.N,C0*%
X85725000Y-72350000D03*
D11*
%TO.P,D3,2,A*%
%TO.N,A9*%
X88265000Y-72350000D03*
%TD*%
D10*
%TO.P,D14,1,K*%
%TO.N,C1*%
X97525000Y-64850000D03*
D11*
%TO.P,D14,2,A*%
%TO.N,A14*%
X100065000Y-64850000D03*
%TD*%
D10*
%TO.P,D16,1,K*%
%TO.N,C1*%
X97525000Y-94850000D03*
D11*
%TO.P,D16,2,A*%
%TO.N,A15*%
X100065000Y-94850000D03*
%TD*%
D10*
%TO.P,D4,1,K*%
%TO.N,C1*%
X97525000Y-72350000D03*
D11*
%TO.P,D4,2,A*%
%TO.N,A9*%
X100065000Y-72350000D03*
%TD*%
D10*
%TO.P,D10,1,K*%
%TO.N,C1*%
X97525000Y-57350000D03*
D11*
%TO.P,D10,2,A*%
%TO.N,A12*%
X100065000Y-57350000D03*
%TD*%
D10*
%TO.P,D9,1,K*%
%TO.N,C0*%
X85725000Y-57350000D03*
D11*
%TO.P,D9,2,A*%
%TO.N,A12*%
X88265000Y-57350000D03*
%TD*%
D10*
%TO.P,D11,1,K*%
%TO.N,C0*%
X85725000Y-87350000D03*
D11*
%TO.P,D11,2,A*%
%TO.N,A13*%
X88265000Y-87350000D03*
%TD*%
D10*
%TO.P,D2,1,K*%
%TO.N,C1*%
X97525000Y-42350000D03*
D11*
%TO.P,D2,2,A*%
%TO.N,A8*%
X100065000Y-42350000D03*
%TD*%
D10*
%TO.P,D12,1,K*%
%TO.N,C1*%
X97525000Y-87350000D03*
D11*
%TO.P,D12,2,A*%
%TO.N,A13*%
X100065000Y-87350000D03*
%TD*%
D10*
%TO.P,D15,1,K*%
%TO.N,C0*%
X85725000Y-94850000D03*
D11*
%TO.P,D15,2,A*%
%TO.N,A15*%
X88265000Y-94850000D03*
%TD*%
D10*
%TO.P,D1,1,K*%
%TO.N,C0*%
X85725000Y-42350000D03*
D11*
%TO.P,D1,2,A*%
%TO.N,A8*%
X88265000Y-42350000D03*
%TD*%
D10*
%TO.P,D7,1,K*%
%TO.N,C0*%
X85725000Y-79850000D03*
D11*
%TO.P,D7,2,A*%
%TO.N,A11*%
X88265000Y-79850000D03*
%TD*%
D10*
%TO.P,D5,1,K*%
%TO.N,C0*%
X85725000Y-49850000D03*
D11*
%TO.P,D5,2,A*%
%TO.N,A10*%
X88265000Y-49850000D03*
%TD*%
D10*
%TO.P,D6,1,K*%
%TO.N,C1*%
X97525000Y-49850000D03*
D11*
%TO.P,D6,2,A*%
%TO.N,A10*%
X100065000Y-49850000D03*
%TD*%
D12*
%TO.P,J1-A1,1,Pin_1*%
%TO.N,A8*%
X98040000Y-105340000D03*
D13*
%TO.P,J1-A1,2,Pin_2*%
%TO.N,A9*%
X95500000Y-105340000D03*
%TO.P,J1-A1,3,Pin_3*%
%TO.N,A10*%
X92960000Y-105340000D03*
%TO.P,J1-A1,4,Pin_4*%
%TO.N,A11*%
X90420000Y-105340000D03*
%TO.P,J1-A1,5,Pin_5*%
%TO.N,A12*%
X87880000Y-105340000D03*
%TD*%
D12*
%TO.P,J1-B1,1,Pin_1*%
%TO.N,A13*%
X98040000Y-102800000D03*
D13*
%TO.P,J1-B1,2,Pin_2*%
%TO.N,A14*%
X95500000Y-102800000D03*
%TO.P,J1-B1,3,Pin_3*%
%TO.N,A15*%
X92960000Y-102800000D03*
%TO.P,J1-B1,4,Pin_4*%
%TO.N,C0*%
X90420000Y-102800000D03*
%TO.P,J1-B1,5,Pin_5*%
%TO.N,C1*%
X87880000Y-102800000D03*
%TD*%
D14*
%TO.N,A8*%
X107100000Y-97400000D02*
X99160000Y-105340000D01*
X99160000Y-105340000D02*
X98040000Y-105340000D01*
X107100000Y-46100000D02*
X107100000Y-97400000D01*
X103350000Y-42350000D02*
X107100000Y-46100000D01*
X100065000Y-42350000D02*
X103350000Y-42350000D01*
D15*
%TO.N,C0*%
X85725000Y-72350000D02*
X85725000Y-79850000D01*
X85725000Y-96925000D02*
X90420000Y-101620000D01*
X85725000Y-87350000D02*
X85725000Y-94850000D01*
X85725000Y-42350000D02*
X85725000Y-49850000D01*
X90420000Y-101620000D02*
X90420000Y-102800000D01*
X85725000Y-79850000D02*
X85725000Y-87350000D01*
X85725000Y-64850000D02*
X85725000Y-72350000D01*
X85725000Y-94850000D02*
X85725000Y-96925000D01*
X85725000Y-49850000D02*
X85725000Y-57350000D01*
X85725000Y-57350000D02*
X85725000Y-64850000D01*
%TO.N,C1*%
X97525000Y-79850000D02*
X97525000Y-87350000D01*
X97525000Y-87350000D02*
X97525000Y-94850000D01*
X97525000Y-57350000D02*
X97525000Y-64850000D01*
X97525000Y-42350000D02*
X97525000Y-49850000D01*
X97525000Y-49850000D02*
X97525000Y-57350000D01*
X97525000Y-64850000D02*
X97525000Y-79850000D01*
D14*
%TO.N,A9*%
X106617157Y-97317157D02*
X99984314Y-103950000D01*
X99984314Y-103950000D02*
X96890000Y-103950000D01*
X96890000Y-103950000D02*
X95500000Y-105340000D01*
X105650000Y-72350000D02*
X100065000Y-72350000D01*
X106617157Y-97317157D02*
X106617157Y-73317157D01*
X106617157Y-73317157D02*
X105650000Y-72350000D01*
%TO.N,A11*%
X90200000Y-96600000D02*
X90200000Y-81785000D01*
X90200000Y-81785000D02*
X88265000Y-79850000D01*
X94350000Y-100750000D02*
X94350000Y-103276346D01*
X90200000Y-96600000D02*
X94350000Y-100750000D01*
X93436346Y-104190000D02*
X91570000Y-104190000D01*
X94350000Y-103276346D02*
X93436346Y-104190000D01*
X91570000Y-104190000D02*
X90420000Y-105340000D01*
%TO.N,A13*%
X104500000Y-98200000D02*
X104500000Y-89700000D01*
X99900000Y-102800000D02*
X104500000Y-98200000D01*
X102150000Y-87350000D02*
X100065000Y-87350000D01*
X104500000Y-89700000D02*
X102150000Y-87350000D01*
X98040000Y-102800000D02*
X99900000Y-102800000D01*
%TO.N,A14*%
X91200000Y-66000000D02*
X90050000Y-64850000D01*
X91200000Y-96300000D02*
X91200000Y-66000000D01*
X95500000Y-102800000D02*
X95500000Y-100600000D01*
X90050000Y-64850000D02*
X88265000Y-64850000D01*
X95500000Y-100600000D02*
X91200000Y-96300000D01*
%TO.N,A15*%
X88265000Y-96165000D02*
X88265000Y-94850000D01*
X92960000Y-102800000D02*
X92960000Y-100860000D01*
X92960000Y-100860000D02*
X88265000Y-96165000D01*
%TD*%
M02*
