%TF.GenerationSoftware,KiCad,Pcbnew,8.0.6*%
%TF.CreationDate,2025-02-23T20:13:24-07:00*%
%TF.ProjectId,Dash Indicators (Left),44617368-2049-46e6-9469-6361746f7273,rev?*%
%TF.SameCoordinates,Original*%
%TF.FileFunction,Legend,Top*%
%TF.FilePolarity,Positive*%
%FSLAX46Y46*%
G04 Gerber Fmt 4.6, Leading zero omitted, Abs format (unit mm)*
G04 Created by KiCad (PCBNEW 8.0.6) date 2025-02-23 20:13:24*
%MOMM*%
%LPD*%
G01*
G04 APERTURE LIST*
%ADD10C,0.100000*%
%ADD11C,0.150000*%
%ADD12C,0.120000*%
G04 APERTURE END LIST*
D10*
X82903884Y-42491466D02*
X83665789Y-42491466D01*
X94803884Y-42491466D02*
X95565789Y-42491466D01*
D11*
X85780714Y-61344819D02*
X85780714Y-60344819D01*
X85780714Y-60344819D02*
X86018809Y-60344819D01*
X86018809Y-60344819D02*
X86161666Y-60392438D01*
X86161666Y-60392438D02*
X86256904Y-60487676D01*
X86256904Y-60487676D02*
X86304523Y-60582914D01*
X86304523Y-60582914D02*
X86352142Y-60773390D01*
X86352142Y-60773390D02*
X86352142Y-60916247D01*
X86352142Y-60916247D02*
X86304523Y-61106723D01*
X86304523Y-61106723D02*
X86256904Y-61201961D01*
X86256904Y-61201961D02*
X86161666Y-61297200D01*
X86161666Y-61297200D02*
X86018809Y-61344819D01*
X86018809Y-61344819D02*
X85780714Y-61344819D01*
X87304523Y-61344819D02*
X86733095Y-61344819D01*
X87018809Y-61344819D02*
X87018809Y-60344819D01*
X87018809Y-60344819D02*
X86923571Y-60487676D01*
X86923571Y-60487676D02*
X86828333Y-60582914D01*
X86828333Y-60582914D02*
X86733095Y-60630533D01*
X87637857Y-60344819D02*
X88256904Y-60344819D01*
X88256904Y-60344819D02*
X87923571Y-60725771D01*
X87923571Y-60725771D02*
X88066428Y-60725771D01*
X88066428Y-60725771D02*
X88161666Y-60773390D01*
X88161666Y-60773390D02*
X88209285Y-60821009D01*
X88209285Y-60821009D02*
X88256904Y-60916247D01*
X88256904Y-60916247D02*
X88256904Y-61154342D01*
X88256904Y-61154342D02*
X88209285Y-61249580D01*
X88209285Y-61249580D02*
X88161666Y-61297200D01*
X88161666Y-61297200D02*
X88066428Y-61344819D01*
X88066428Y-61344819D02*
X87780714Y-61344819D01*
X87780714Y-61344819D02*
X87685476Y-61297200D01*
X87685476Y-61297200D02*
X87637857Y-61249580D01*
X98056905Y-76344819D02*
X98056905Y-75344819D01*
X98056905Y-75344819D02*
X98295000Y-75344819D01*
X98295000Y-75344819D02*
X98437857Y-75392438D01*
X98437857Y-75392438D02*
X98533095Y-75487676D01*
X98533095Y-75487676D02*
X98580714Y-75582914D01*
X98580714Y-75582914D02*
X98628333Y-75773390D01*
X98628333Y-75773390D02*
X98628333Y-75916247D01*
X98628333Y-75916247D02*
X98580714Y-76106723D01*
X98580714Y-76106723D02*
X98533095Y-76201961D01*
X98533095Y-76201961D02*
X98437857Y-76297200D01*
X98437857Y-76297200D02*
X98295000Y-76344819D01*
X98295000Y-76344819D02*
X98056905Y-76344819D01*
X99199762Y-75773390D02*
X99104524Y-75725771D01*
X99104524Y-75725771D02*
X99056905Y-75678152D01*
X99056905Y-75678152D02*
X99009286Y-75582914D01*
X99009286Y-75582914D02*
X99009286Y-75535295D01*
X99009286Y-75535295D02*
X99056905Y-75440057D01*
X99056905Y-75440057D02*
X99104524Y-75392438D01*
X99104524Y-75392438D02*
X99199762Y-75344819D01*
X99199762Y-75344819D02*
X99390238Y-75344819D01*
X99390238Y-75344819D02*
X99485476Y-75392438D01*
X99485476Y-75392438D02*
X99533095Y-75440057D01*
X99533095Y-75440057D02*
X99580714Y-75535295D01*
X99580714Y-75535295D02*
X99580714Y-75582914D01*
X99580714Y-75582914D02*
X99533095Y-75678152D01*
X99533095Y-75678152D02*
X99485476Y-75725771D01*
X99485476Y-75725771D02*
X99390238Y-75773390D01*
X99390238Y-75773390D02*
X99199762Y-75773390D01*
X99199762Y-75773390D02*
X99104524Y-75821009D01*
X99104524Y-75821009D02*
X99056905Y-75868628D01*
X99056905Y-75868628D02*
X99009286Y-75963866D01*
X99009286Y-75963866D02*
X99009286Y-76154342D01*
X99009286Y-76154342D02*
X99056905Y-76249580D01*
X99056905Y-76249580D02*
X99104524Y-76297200D01*
X99104524Y-76297200D02*
X99199762Y-76344819D01*
X99199762Y-76344819D02*
X99390238Y-76344819D01*
X99390238Y-76344819D02*
X99485476Y-76297200D01*
X99485476Y-76297200D02*
X99533095Y-76249580D01*
X99533095Y-76249580D02*
X99580714Y-76154342D01*
X99580714Y-76154342D02*
X99580714Y-75963866D01*
X99580714Y-75963866D02*
X99533095Y-75868628D01*
X99533095Y-75868628D02*
X99485476Y-75821009D01*
X99485476Y-75821009D02*
X99390238Y-75773390D01*
X86256905Y-68844819D02*
X86256905Y-67844819D01*
X86256905Y-67844819D02*
X86495000Y-67844819D01*
X86495000Y-67844819D02*
X86637857Y-67892438D01*
X86637857Y-67892438D02*
X86733095Y-67987676D01*
X86733095Y-67987676D02*
X86780714Y-68082914D01*
X86780714Y-68082914D02*
X86828333Y-68273390D01*
X86828333Y-68273390D02*
X86828333Y-68416247D01*
X86828333Y-68416247D02*
X86780714Y-68606723D01*
X86780714Y-68606723D02*
X86733095Y-68701961D01*
X86733095Y-68701961D02*
X86637857Y-68797200D01*
X86637857Y-68797200D02*
X86495000Y-68844819D01*
X86495000Y-68844819D02*
X86256905Y-68844819D01*
X87161667Y-67844819D02*
X87780714Y-67844819D01*
X87780714Y-67844819D02*
X87447381Y-68225771D01*
X87447381Y-68225771D02*
X87590238Y-68225771D01*
X87590238Y-68225771D02*
X87685476Y-68273390D01*
X87685476Y-68273390D02*
X87733095Y-68321009D01*
X87733095Y-68321009D02*
X87780714Y-68416247D01*
X87780714Y-68416247D02*
X87780714Y-68654342D01*
X87780714Y-68654342D02*
X87733095Y-68749580D01*
X87733095Y-68749580D02*
X87685476Y-68797200D01*
X87685476Y-68797200D02*
X87590238Y-68844819D01*
X87590238Y-68844819D02*
X87304524Y-68844819D01*
X87304524Y-68844819D02*
X87209286Y-68797200D01*
X87209286Y-68797200D02*
X87161667Y-68749580D01*
X97580714Y-61344819D02*
X97580714Y-60344819D01*
X97580714Y-60344819D02*
X97818809Y-60344819D01*
X97818809Y-60344819D02*
X97961666Y-60392438D01*
X97961666Y-60392438D02*
X98056904Y-60487676D01*
X98056904Y-60487676D02*
X98104523Y-60582914D01*
X98104523Y-60582914D02*
X98152142Y-60773390D01*
X98152142Y-60773390D02*
X98152142Y-60916247D01*
X98152142Y-60916247D02*
X98104523Y-61106723D01*
X98104523Y-61106723D02*
X98056904Y-61201961D01*
X98056904Y-61201961D02*
X97961666Y-61297200D01*
X97961666Y-61297200D02*
X97818809Y-61344819D01*
X97818809Y-61344819D02*
X97580714Y-61344819D01*
X99104523Y-61344819D02*
X98533095Y-61344819D01*
X98818809Y-61344819D02*
X98818809Y-60344819D01*
X98818809Y-60344819D02*
X98723571Y-60487676D01*
X98723571Y-60487676D02*
X98628333Y-60582914D01*
X98628333Y-60582914D02*
X98533095Y-60630533D01*
X99961666Y-60678152D02*
X99961666Y-61344819D01*
X99723571Y-60297200D02*
X99485476Y-61011485D01*
X99485476Y-61011485D02*
X100104523Y-61011485D01*
X97580714Y-91344819D02*
X97580714Y-90344819D01*
X97580714Y-90344819D02*
X97818809Y-90344819D01*
X97818809Y-90344819D02*
X97961666Y-90392438D01*
X97961666Y-90392438D02*
X98056904Y-90487676D01*
X98056904Y-90487676D02*
X98104523Y-90582914D01*
X98104523Y-90582914D02*
X98152142Y-90773390D01*
X98152142Y-90773390D02*
X98152142Y-90916247D01*
X98152142Y-90916247D02*
X98104523Y-91106723D01*
X98104523Y-91106723D02*
X98056904Y-91201961D01*
X98056904Y-91201961D02*
X97961666Y-91297200D01*
X97961666Y-91297200D02*
X97818809Y-91344819D01*
X97818809Y-91344819D02*
X97580714Y-91344819D01*
X99104523Y-91344819D02*
X98533095Y-91344819D01*
X98818809Y-91344819D02*
X98818809Y-90344819D01*
X98818809Y-90344819D02*
X98723571Y-90487676D01*
X98723571Y-90487676D02*
X98628333Y-90582914D01*
X98628333Y-90582914D02*
X98533095Y-90630533D01*
X99961666Y-90344819D02*
X99771190Y-90344819D01*
X99771190Y-90344819D02*
X99675952Y-90392438D01*
X99675952Y-90392438D02*
X99628333Y-90440057D01*
X99628333Y-90440057D02*
X99533095Y-90582914D01*
X99533095Y-90582914D02*
X99485476Y-90773390D01*
X99485476Y-90773390D02*
X99485476Y-91154342D01*
X99485476Y-91154342D02*
X99533095Y-91249580D01*
X99533095Y-91249580D02*
X99580714Y-91297200D01*
X99580714Y-91297200D02*
X99675952Y-91344819D01*
X99675952Y-91344819D02*
X99866428Y-91344819D01*
X99866428Y-91344819D02*
X99961666Y-91297200D01*
X99961666Y-91297200D02*
X100009285Y-91249580D01*
X100009285Y-91249580D02*
X100056904Y-91154342D01*
X100056904Y-91154342D02*
X100056904Y-90916247D01*
X100056904Y-90916247D02*
X100009285Y-90821009D01*
X100009285Y-90821009D02*
X99961666Y-90773390D01*
X99961666Y-90773390D02*
X99866428Y-90725771D01*
X99866428Y-90725771D02*
X99675952Y-90725771D01*
X99675952Y-90725771D02*
X99580714Y-90773390D01*
X99580714Y-90773390D02*
X99533095Y-90821009D01*
X99533095Y-90821009D02*
X99485476Y-90916247D01*
X98056905Y-68844819D02*
X98056905Y-67844819D01*
X98056905Y-67844819D02*
X98295000Y-67844819D01*
X98295000Y-67844819D02*
X98437857Y-67892438D01*
X98437857Y-67892438D02*
X98533095Y-67987676D01*
X98533095Y-67987676D02*
X98580714Y-68082914D01*
X98580714Y-68082914D02*
X98628333Y-68273390D01*
X98628333Y-68273390D02*
X98628333Y-68416247D01*
X98628333Y-68416247D02*
X98580714Y-68606723D01*
X98580714Y-68606723D02*
X98533095Y-68701961D01*
X98533095Y-68701961D02*
X98437857Y-68797200D01*
X98437857Y-68797200D02*
X98295000Y-68844819D01*
X98295000Y-68844819D02*
X98056905Y-68844819D01*
X99485476Y-68178152D02*
X99485476Y-68844819D01*
X99247381Y-67797200D02*
X99009286Y-68511485D01*
X99009286Y-68511485D02*
X99628333Y-68511485D01*
X97580714Y-53844819D02*
X97580714Y-52844819D01*
X97580714Y-52844819D02*
X97818809Y-52844819D01*
X97818809Y-52844819D02*
X97961666Y-52892438D01*
X97961666Y-52892438D02*
X98056904Y-52987676D01*
X98056904Y-52987676D02*
X98104523Y-53082914D01*
X98104523Y-53082914D02*
X98152142Y-53273390D01*
X98152142Y-53273390D02*
X98152142Y-53416247D01*
X98152142Y-53416247D02*
X98104523Y-53606723D01*
X98104523Y-53606723D02*
X98056904Y-53701961D01*
X98056904Y-53701961D02*
X97961666Y-53797200D01*
X97961666Y-53797200D02*
X97818809Y-53844819D01*
X97818809Y-53844819D02*
X97580714Y-53844819D01*
X99104523Y-53844819D02*
X98533095Y-53844819D01*
X98818809Y-53844819D02*
X98818809Y-52844819D01*
X98818809Y-52844819D02*
X98723571Y-52987676D01*
X98723571Y-52987676D02*
X98628333Y-53082914D01*
X98628333Y-53082914D02*
X98533095Y-53130533D01*
X99723571Y-52844819D02*
X99818809Y-52844819D01*
X99818809Y-52844819D02*
X99914047Y-52892438D01*
X99914047Y-52892438D02*
X99961666Y-52940057D01*
X99961666Y-52940057D02*
X100009285Y-53035295D01*
X100009285Y-53035295D02*
X100056904Y-53225771D01*
X100056904Y-53225771D02*
X100056904Y-53463866D01*
X100056904Y-53463866D02*
X100009285Y-53654342D01*
X100009285Y-53654342D02*
X99961666Y-53749580D01*
X99961666Y-53749580D02*
X99914047Y-53797200D01*
X99914047Y-53797200D02*
X99818809Y-53844819D01*
X99818809Y-53844819D02*
X99723571Y-53844819D01*
X99723571Y-53844819D02*
X99628333Y-53797200D01*
X99628333Y-53797200D02*
X99580714Y-53749580D01*
X99580714Y-53749580D02*
X99533095Y-53654342D01*
X99533095Y-53654342D02*
X99485476Y-53463866D01*
X99485476Y-53463866D02*
X99485476Y-53225771D01*
X99485476Y-53225771D02*
X99533095Y-53035295D01*
X99533095Y-53035295D02*
X99580714Y-52940057D01*
X99580714Y-52940057D02*
X99628333Y-52892438D01*
X99628333Y-52892438D02*
X99723571Y-52844819D01*
X86256905Y-53844819D02*
X86256905Y-52844819D01*
X86256905Y-52844819D02*
X86495000Y-52844819D01*
X86495000Y-52844819D02*
X86637857Y-52892438D01*
X86637857Y-52892438D02*
X86733095Y-52987676D01*
X86733095Y-52987676D02*
X86780714Y-53082914D01*
X86780714Y-53082914D02*
X86828333Y-53273390D01*
X86828333Y-53273390D02*
X86828333Y-53416247D01*
X86828333Y-53416247D02*
X86780714Y-53606723D01*
X86780714Y-53606723D02*
X86733095Y-53701961D01*
X86733095Y-53701961D02*
X86637857Y-53797200D01*
X86637857Y-53797200D02*
X86495000Y-53844819D01*
X86495000Y-53844819D02*
X86256905Y-53844819D01*
X87304524Y-53844819D02*
X87495000Y-53844819D01*
X87495000Y-53844819D02*
X87590238Y-53797200D01*
X87590238Y-53797200D02*
X87637857Y-53749580D01*
X87637857Y-53749580D02*
X87733095Y-53606723D01*
X87733095Y-53606723D02*
X87780714Y-53416247D01*
X87780714Y-53416247D02*
X87780714Y-53035295D01*
X87780714Y-53035295D02*
X87733095Y-52940057D01*
X87733095Y-52940057D02*
X87685476Y-52892438D01*
X87685476Y-52892438D02*
X87590238Y-52844819D01*
X87590238Y-52844819D02*
X87399762Y-52844819D01*
X87399762Y-52844819D02*
X87304524Y-52892438D01*
X87304524Y-52892438D02*
X87256905Y-52940057D01*
X87256905Y-52940057D02*
X87209286Y-53035295D01*
X87209286Y-53035295D02*
X87209286Y-53273390D01*
X87209286Y-53273390D02*
X87256905Y-53368628D01*
X87256905Y-53368628D02*
X87304524Y-53416247D01*
X87304524Y-53416247D02*
X87399762Y-53463866D01*
X87399762Y-53463866D02*
X87590238Y-53463866D01*
X87590238Y-53463866D02*
X87685476Y-53416247D01*
X87685476Y-53416247D02*
X87733095Y-53368628D01*
X87733095Y-53368628D02*
X87780714Y-53273390D01*
X85780714Y-83844819D02*
X85780714Y-82844819D01*
X85780714Y-82844819D02*
X86018809Y-82844819D01*
X86018809Y-82844819D02*
X86161666Y-82892438D01*
X86161666Y-82892438D02*
X86256904Y-82987676D01*
X86256904Y-82987676D02*
X86304523Y-83082914D01*
X86304523Y-83082914D02*
X86352142Y-83273390D01*
X86352142Y-83273390D02*
X86352142Y-83416247D01*
X86352142Y-83416247D02*
X86304523Y-83606723D01*
X86304523Y-83606723D02*
X86256904Y-83701961D01*
X86256904Y-83701961D02*
X86161666Y-83797200D01*
X86161666Y-83797200D02*
X86018809Y-83844819D01*
X86018809Y-83844819D02*
X85780714Y-83844819D01*
X87304523Y-83844819D02*
X86733095Y-83844819D01*
X87018809Y-83844819D02*
X87018809Y-82844819D01*
X87018809Y-82844819D02*
X86923571Y-82987676D01*
X86923571Y-82987676D02*
X86828333Y-83082914D01*
X86828333Y-83082914D02*
X86733095Y-83130533D01*
X88256904Y-83844819D02*
X87685476Y-83844819D01*
X87971190Y-83844819D02*
X87971190Y-82844819D01*
X87971190Y-82844819D02*
X87875952Y-82987676D01*
X87875952Y-82987676D02*
X87780714Y-83082914D01*
X87780714Y-83082914D02*
X87685476Y-83130533D01*
X98056905Y-38844819D02*
X98056905Y-37844819D01*
X98056905Y-37844819D02*
X98295000Y-37844819D01*
X98295000Y-37844819D02*
X98437857Y-37892438D01*
X98437857Y-37892438D02*
X98533095Y-37987676D01*
X98533095Y-37987676D02*
X98580714Y-38082914D01*
X98580714Y-38082914D02*
X98628333Y-38273390D01*
X98628333Y-38273390D02*
X98628333Y-38416247D01*
X98628333Y-38416247D02*
X98580714Y-38606723D01*
X98580714Y-38606723D02*
X98533095Y-38701961D01*
X98533095Y-38701961D02*
X98437857Y-38797200D01*
X98437857Y-38797200D02*
X98295000Y-38844819D01*
X98295000Y-38844819D02*
X98056905Y-38844819D01*
X99009286Y-37940057D02*
X99056905Y-37892438D01*
X99056905Y-37892438D02*
X99152143Y-37844819D01*
X99152143Y-37844819D02*
X99390238Y-37844819D01*
X99390238Y-37844819D02*
X99485476Y-37892438D01*
X99485476Y-37892438D02*
X99533095Y-37940057D01*
X99533095Y-37940057D02*
X99580714Y-38035295D01*
X99580714Y-38035295D02*
X99580714Y-38130533D01*
X99580714Y-38130533D02*
X99533095Y-38273390D01*
X99533095Y-38273390D02*
X98961667Y-38844819D01*
X98961667Y-38844819D02*
X99580714Y-38844819D01*
X97580714Y-83844819D02*
X97580714Y-82844819D01*
X97580714Y-82844819D02*
X97818809Y-82844819D01*
X97818809Y-82844819D02*
X97961666Y-82892438D01*
X97961666Y-82892438D02*
X98056904Y-82987676D01*
X98056904Y-82987676D02*
X98104523Y-83082914D01*
X98104523Y-83082914D02*
X98152142Y-83273390D01*
X98152142Y-83273390D02*
X98152142Y-83416247D01*
X98152142Y-83416247D02*
X98104523Y-83606723D01*
X98104523Y-83606723D02*
X98056904Y-83701961D01*
X98056904Y-83701961D02*
X97961666Y-83797200D01*
X97961666Y-83797200D02*
X97818809Y-83844819D01*
X97818809Y-83844819D02*
X97580714Y-83844819D01*
X99104523Y-83844819D02*
X98533095Y-83844819D01*
X98818809Y-83844819D02*
X98818809Y-82844819D01*
X98818809Y-82844819D02*
X98723571Y-82987676D01*
X98723571Y-82987676D02*
X98628333Y-83082914D01*
X98628333Y-83082914D02*
X98533095Y-83130533D01*
X99485476Y-82940057D02*
X99533095Y-82892438D01*
X99533095Y-82892438D02*
X99628333Y-82844819D01*
X99628333Y-82844819D02*
X99866428Y-82844819D01*
X99866428Y-82844819D02*
X99961666Y-82892438D01*
X99961666Y-82892438D02*
X100009285Y-82940057D01*
X100009285Y-82940057D02*
X100056904Y-83035295D01*
X100056904Y-83035295D02*
X100056904Y-83130533D01*
X100056904Y-83130533D02*
X100009285Y-83273390D01*
X100009285Y-83273390D02*
X99437857Y-83844819D01*
X99437857Y-83844819D02*
X100056904Y-83844819D01*
X85780714Y-91344819D02*
X85780714Y-90344819D01*
X85780714Y-90344819D02*
X86018809Y-90344819D01*
X86018809Y-90344819D02*
X86161666Y-90392438D01*
X86161666Y-90392438D02*
X86256904Y-90487676D01*
X86256904Y-90487676D02*
X86304523Y-90582914D01*
X86304523Y-90582914D02*
X86352142Y-90773390D01*
X86352142Y-90773390D02*
X86352142Y-90916247D01*
X86352142Y-90916247D02*
X86304523Y-91106723D01*
X86304523Y-91106723D02*
X86256904Y-91201961D01*
X86256904Y-91201961D02*
X86161666Y-91297200D01*
X86161666Y-91297200D02*
X86018809Y-91344819D01*
X86018809Y-91344819D02*
X85780714Y-91344819D01*
X87304523Y-91344819D02*
X86733095Y-91344819D01*
X87018809Y-91344819D02*
X87018809Y-90344819D01*
X87018809Y-90344819D02*
X86923571Y-90487676D01*
X86923571Y-90487676D02*
X86828333Y-90582914D01*
X86828333Y-90582914D02*
X86733095Y-90630533D01*
X88209285Y-90344819D02*
X87733095Y-90344819D01*
X87733095Y-90344819D02*
X87685476Y-90821009D01*
X87685476Y-90821009D02*
X87733095Y-90773390D01*
X87733095Y-90773390D02*
X87828333Y-90725771D01*
X87828333Y-90725771D02*
X88066428Y-90725771D01*
X88066428Y-90725771D02*
X88161666Y-90773390D01*
X88161666Y-90773390D02*
X88209285Y-90821009D01*
X88209285Y-90821009D02*
X88256904Y-90916247D01*
X88256904Y-90916247D02*
X88256904Y-91154342D01*
X88256904Y-91154342D02*
X88209285Y-91249580D01*
X88209285Y-91249580D02*
X88161666Y-91297200D01*
X88161666Y-91297200D02*
X88066428Y-91344819D01*
X88066428Y-91344819D02*
X87828333Y-91344819D01*
X87828333Y-91344819D02*
X87733095Y-91297200D01*
X87733095Y-91297200D02*
X87685476Y-91249580D01*
X86256905Y-38844819D02*
X86256905Y-37844819D01*
X86256905Y-37844819D02*
X86495000Y-37844819D01*
X86495000Y-37844819D02*
X86637857Y-37892438D01*
X86637857Y-37892438D02*
X86733095Y-37987676D01*
X86733095Y-37987676D02*
X86780714Y-38082914D01*
X86780714Y-38082914D02*
X86828333Y-38273390D01*
X86828333Y-38273390D02*
X86828333Y-38416247D01*
X86828333Y-38416247D02*
X86780714Y-38606723D01*
X86780714Y-38606723D02*
X86733095Y-38701961D01*
X86733095Y-38701961D02*
X86637857Y-38797200D01*
X86637857Y-38797200D02*
X86495000Y-38844819D01*
X86495000Y-38844819D02*
X86256905Y-38844819D01*
X87780714Y-38844819D02*
X87209286Y-38844819D01*
X87495000Y-38844819D02*
X87495000Y-37844819D01*
X87495000Y-37844819D02*
X87399762Y-37987676D01*
X87399762Y-37987676D02*
X87304524Y-38082914D01*
X87304524Y-38082914D02*
X87209286Y-38130533D01*
X86256905Y-76344819D02*
X86256905Y-75344819D01*
X86256905Y-75344819D02*
X86495000Y-75344819D01*
X86495000Y-75344819D02*
X86637857Y-75392438D01*
X86637857Y-75392438D02*
X86733095Y-75487676D01*
X86733095Y-75487676D02*
X86780714Y-75582914D01*
X86780714Y-75582914D02*
X86828333Y-75773390D01*
X86828333Y-75773390D02*
X86828333Y-75916247D01*
X86828333Y-75916247D02*
X86780714Y-76106723D01*
X86780714Y-76106723D02*
X86733095Y-76201961D01*
X86733095Y-76201961D02*
X86637857Y-76297200D01*
X86637857Y-76297200D02*
X86495000Y-76344819D01*
X86495000Y-76344819D02*
X86256905Y-76344819D01*
X87161667Y-75344819D02*
X87828333Y-75344819D01*
X87828333Y-75344819D02*
X87399762Y-76344819D01*
X86256905Y-46344819D02*
X86256905Y-45344819D01*
X86256905Y-45344819D02*
X86495000Y-45344819D01*
X86495000Y-45344819D02*
X86637857Y-45392438D01*
X86637857Y-45392438D02*
X86733095Y-45487676D01*
X86733095Y-45487676D02*
X86780714Y-45582914D01*
X86780714Y-45582914D02*
X86828333Y-45773390D01*
X86828333Y-45773390D02*
X86828333Y-45916247D01*
X86828333Y-45916247D02*
X86780714Y-46106723D01*
X86780714Y-46106723D02*
X86733095Y-46201961D01*
X86733095Y-46201961D02*
X86637857Y-46297200D01*
X86637857Y-46297200D02*
X86495000Y-46344819D01*
X86495000Y-46344819D02*
X86256905Y-46344819D01*
X87733095Y-45344819D02*
X87256905Y-45344819D01*
X87256905Y-45344819D02*
X87209286Y-45821009D01*
X87209286Y-45821009D02*
X87256905Y-45773390D01*
X87256905Y-45773390D02*
X87352143Y-45725771D01*
X87352143Y-45725771D02*
X87590238Y-45725771D01*
X87590238Y-45725771D02*
X87685476Y-45773390D01*
X87685476Y-45773390D02*
X87733095Y-45821009D01*
X87733095Y-45821009D02*
X87780714Y-45916247D01*
X87780714Y-45916247D02*
X87780714Y-46154342D01*
X87780714Y-46154342D02*
X87733095Y-46249580D01*
X87733095Y-46249580D02*
X87685476Y-46297200D01*
X87685476Y-46297200D02*
X87590238Y-46344819D01*
X87590238Y-46344819D02*
X87352143Y-46344819D01*
X87352143Y-46344819D02*
X87256905Y-46297200D01*
X87256905Y-46297200D02*
X87209286Y-46249580D01*
X98056905Y-46344819D02*
X98056905Y-45344819D01*
X98056905Y-45344819D02*
X98295000Y-45344819D01*
X98295000Y-45344819D02*
X98437857Y-45392438D01*
X98437857Y-45392438D02*
X98533095Y-45487676D01*
X98533095Y-45487676D02*
X98580714Y-45582914D01*
X98580714Y-45582914D02*
X98628333Y-45773390D01*
X98628333Y-45773390D02*
X98628333Y-45916247D01*
X98628333Y-45916247D02*
X98580714Y-46106723D01*
X98580714Y-46106723D02*
X98533095Y-46201961D01*
X98533095Y-46201961D02*
X98437857Y-46297200D01*
X98437857Y-46297200D02*
X98295000Y-46344819D01*
X98295000Y-46344819D02*
X98056905Y-46344819D01*
X99485476Y-45344819D02*
X99295000Y-45344819D01*
X99295000Y-45344819D02*
X99199762Y-45392438D01*
X99199762Y-45392438D02*
X99152143Y-45440057D01*
X99152143Y-45440057D02*
X99056905Y-45582914D01*
X99056905Y-45582914D02*
X99009286Y-45773390D01*
X99009286Y-45773390D02*
X99009286Y-46154342D01*
X99009286Y-46154342D02*
X99056905Y-46249580D01*
X99056905Y-46249580D02*
X99104524Y-46297200D01*
X99104524Y-46297200D02*
X99199762Y-46344819D01*
X99199762Y-46344819D02*
X99390238Y-46344819D01*
X99390238Y-46344819D02*
X99485476Y-46297200D01*
X99485476Y-46297200D02*
X99533095Y-46249580D01*
X99533095Y-46249580D02*
X99580714Y-46154342D01*
X99580714Y-46154342D02*
X99580714Y-45916247D01*
X99580714Y-45916247D02*
X99533095Y-45821009D01*
X99533095Y-45821009D02*
X99485476Y-45773390D01*
X99485476Y-45773390D02*
X99390238Y-45725771D01*
X99390238Y-45725771D02*
X99199762Y-45725771D01*
X99199762Y-45725771D02*
X99104524Y-45773390D01*
X99104524Y-45773390D02*
X99056905Y-45821009D01*
X99056905Y-45821009D02*
X99009286Y-45916247D01*
D12*
%TO.C,D13*%
X84435000Y-63305000D02*
X84435000Y-66395000D01*
X84435000Y-63305170D02*
G75*
G02*
X89985000Y-64850462I2560000J-1544830D01*
G01*
X89985000Y-64849538D02*
G75*
G02*
X84435000Y-66394830I-2990000J-462D01*
G01*
X89495000Y-64850000D02*
G75*
G02*
X84495000Y-64850000I-2500000J0D01*
G01*
X84495000Y-64850000D02*
G75*
G02*
X89495000Y-64850000I2500000J0D01*
G01*
%TO.C,D8*%
X96235000Y-78305000D02*
X96235000Y-81395000D01*
X96235000Y-78305170D02*
G75*
G02*
X101785000Y-79850462I2560000J-1544830D01*
G01*
X101785000Y-79849538D02*
G75*
G02*
X96235000Y-81394830I-2990000J-462D01*
G01*
X101295000Y-79850000D02*
G75*
G02*
X96295000Y-79850000I-2500000J0D01*
G01*
X96295000Y-79850000D02*
G75*
G02*
X101295000Y-79850000I2500000J0D01*
G01*
%TO.C,D3*%
X84435000Y-70805000D02*
X84435000Y-73895000D01*
X84435000Y-70805170D02*
G75*
G02*
X89985000Y-72350462I2560000J-1544830D01*
G01*
X89985000Y-72349538D02*
G75*
G02*
X84435000Y-73894830I-2990000J-462D01*
G01*
X89495000Y-72350000D02*
G75*
G02*
X84495000Y-72350000I-2500000J0D01*
G01*
X84495000Y-72350000D02*
G75*
G02*
X89495000Y-72350000I2500000J0D01*
G01*
%TO.C,D14*%
X96235000Y-63305000D02*
X96235000Y-66395000D01*
X96235000Y-63305170D02*
G75*
G02*
X101785000Y-64850462I2560000J-1544830D01*
G01*
X101785000Y-64849538D02*
G75*
G02*
X96235000Y-66394830I-2990000J-462D01*
G01*
X101295000Y-64850000D02*
G75*
G02*
X96295000Y-64850000I-2500000J0D01*
G01*
X96295000Y-64850000D02*
G75*
G02*
X101295000Y-64850000I2500000J0D01*
G01*
%TO.C,D16*%
X96235000Y-93305000D02*
X96235000Y-96395000D01*
X96235000Y-93305170D02*
G75*
G02*
X101785000Y-94850462I2560000J-1544830D01*
G01*
X101785000Y-94849538D02*
G75*
G02*
X96235000Y-96394830I-2990000J-462D01*
G01*
X101295000Y-94850000D02*
G75*
G02*
X96295000Y-94850000I-2500000J0D01*
G01*
X96295000Y-94850000D02*
G75*
G02*
X101295000Y-94850000I2500000J0D01*
G01*
%TO.C,D4*%
X96235000Y-70805000D02*
X96235000Y-73895000D01*
X96235000Y-70805170D02*
G75*
G02*
X101785000Y-72350462I2560000J-1544830D01*
G01*
X101785000Y-72349538D02*
G75*
G02*
X96235000Y-73894830I-2990000J-462D01*
G01*
X101295000Y-72350000D02*
G75*
G02*
X96295000Y-72350000I-2500000J0D01*
G01*
X96295000Y-72350000D02*
G75*
G02*
X101295000Y-72350000I2500000J0D01*
G01*
%TO.C,D10*%
X96235000Y-55805000D02*
X96235000Y-58895000D01*
X96235000Y-55805170D02*
G75*
G02*
X101785000Y-57350462I2560000J-1544830D01*
G01*
X101785000Y-57349538D02*
G75*
G02*
X96235000Y-58894830I-2990000J-462D01*
G01*
X101295000Y-57350000D02*
G75*
G02*
X96295000Y-57350000I-2500000J0D01*
G01*
X96295000Y-57350000D02*
G75*
G02*
X101295000Y-57350000I2500000J0D01*
G01*
%TO.C,D9*%
X84435000Y-55805000D02*
X84435000Y-58895000D01*
X84435000Y-55805170D02*
G75*
G02*
X89985000Y-57350462I2560000J-1544830D01*
G01*
X89985000Y-57349538D02*
G75*
G02*
X84435000Y-58894830I-2990000J-462D01*
G01*
X89495000Y-57350000D02*
G75*
G02*
X84495000Y-57350000I-2500000J0D01*
G01*
X84495000Y-57350000D02*
G75*
G02*
X89495000Y-57350000I2500000J0D01*
G01*
%TO.C,D11*%
X84435000Y-85805000D02*
X84435000Y-88895000D01*
X84435000Y-85805170D02*
G75*
G02*
X89985000Y-87350462I2560000J-1544830D01*
G01*
X89985000Y-87349538D02*
G75*
G02*
X84435000Y-88894830I-2990000J-462D01*
G01*
X89495000Y-87350000D02*
G75*
G02*
X84495000Y-87350000I-2500000J0D01*
G01*
X84495000Y-87350000D02*
G75*
G02*
X89495000Y-87350000I2500000J0D01*
G01*
%TO.C,D2*%
X96235000Y-40805000D02*
X96235000Y-43895000D01*
X96235000Y-40805170D02*
G75*
G02*
X101785000Y-42350462I2560000J-1544830D01*
G01*
X101785000Y-42349538D02*
G75*
G02*
X96235000Y-43894830I-2990000J-462D01*
G01*
X101295000Y-42350000D02*
G75*
G02*
X96295000Y-42350000I-2500000J0D01*
G01*
X96295000Y-42350000D02*
G75*
G02*
X101295000Y-42350000I2500000J0D01*
G01*
%TO.C,D12*%
X96235000Y-85805000D02*
X96235000Y-88895000D01*
X96235000Y-85805170D02*
G75*
G02*
X101785000Y-87350462I2560000J-1544830D01*
G01*
X101785000Y-87349538D02*
G75*
G02*
X96235000Y-88894830I-2990000J-462D01*
G01*
X101295000Y-87350000D02*
G75*
G02*
X96295000Y-87350000I-2500000J0D01*
G01*
X96295000Y-87350000D02*
G75*
G02*
X101295000Y-87350000I2500000J0D01*
G01*
%TO.C,D15*%
X84435000Y-93305000D02*
X84435000Y-96395000D01*
X84435000Y-93305170D02*
G75*
G02*
X89985000Y-94850462I2560000J-1544830D01*
G01*
X89985000Y-94849538D02*
G75*
G02*
X84435000Y-96394830I-2990000J-462D01*
G01*
X89495000Y-94850000D02*
G75*
G02*
X84495000Y-94850000I-2500000J0D01*
G01*
X84495000Y-94850000D02*
G75*
G02*
X89495000Y-94850000I2500000J0D01*
G01*
%TO.C,D1*%
X84435000Y-40805000D02*
X84435000Y-43895000D01*
X84435000Y-40805170D02*
G75*
G02*
X89985000Y-42350462I2560000J-1544830D01*
G01*
X89985000Y-42349538D02*
G75*
G02*
X84435000Y-43894830I-2990000J-462D01*
G01*
X89495000Y-42350000D02*
G75*
G02*
X84495000Y-42350000I-2500000J0D01*
G01*
X84495000Y-42350000D02*
G75*
G02*
X89495000Y-42350000I2500000J0D01*
G01*
%TO.C,D7*%
X84435000Y-78305000D02*
X84435000Y-81395000D01*
X84435000Y-78305170D02*
G75*
G02*
X89985000Y-79850462I2560000J-1544830D01*
G01*
X89985000Y-79849538D02*
G75*
G02*
X84435000Y-81394830I-2990000J-462D01*
G01*
X89495000Y-79850000D02*
G75*
G02*
X84495000Y-79850000I-2500000J0D01*
G01*
X84495000Y-79850000D02*
G75*
G02*
X89495000Y-79850000I2500000J0D01*
G01*
%TO.C,D5*%
X84435000Y-48305000D02*
X84435000Y-51395000D01*
X84435000Y-48305170D02*
G75*
G02*
X89985000Y-49850462I2560000J-1544830D01*
G01*
X89985000Y-49849538D02*
G75*
G02*
X84435000Y-51394830I-2990000J-462D01*
G01*
X89495000Y-49850000D02*
G75*
G02*
X84495000Y-49850000I-2500000J0D01*
G01*
X84495000Y-49850000D02*
G75*
G02*
X89495000Y-49850000I2500000J0D01*
G01*
%TO.C,D6*%
X96235000Y-48305000D02*
X96235000Y-51395000D01*
X96235000Y-48305170D02*
G75*
G02*
X101785000Y-49850462I2560000J-1544830D01*
G01*
X101785000Y-49849538D02*
G75*
G02*
X96235000Y-51394830I-2990000J-462D01*
G01*
X101295000Y-49850000D02*
G75*
G02*
X96295000Y-49850000I-2500000J0D01*
G01*
X96295000Y-49850000D02*
G75*
G02*
X101295000Y-49850000I2500000J0D01*
G01*
%TD*%
M02*
