M48
; DRILL file {KiCad 8.0.6} date 2025-02-23T20:13:27-0700
; FORMAT={-:-/ absolute / inch / decimal}
; #@! TF.CreationDate,2025-02-23T20:13:27-07:00
; #@! TF.GenerationSoftware,Kicad,Pcbnew,8.0.6
; #@! TF.FileFunction,Plated,1,2,PTH
FMAT,2
INCH
; #@! TA.AperFunction,Plated,PTH,ComponentDrill
T1C0.0354
; #@! TA.AperFunction,Plated,PTH,ComponentDrill
T2C0.0394
%
G90
G05
T1
X3.375Y-1.6673
X3.375Y-1.9626
X3.375Y-2.2579
X3.375Y-2.5531
X3.375Y-2.8484
X3.375Y-3.1437
X3.375Y-3.439
X3.375Y-3.7343
X3.475Y-1.6673
X3.475Y-1.9626
X3.475Y-2.2579
X3.475Y-2.5531
X3.475Y-2.8484
X3.475Y-3.1437
X3.475Y-3.439
X3.475Y-3.7343
X3.8396Y-1.6673
X3.8396Y-1.9626
X3.8396Y-2.2579
X3.8396Y-2.5531
X3.8396Y-2.8484
X3.8396Y-3.1437
X3.8396Y-3.439
X3.8396Y-3.7343
X3.9396Y-1.6673
X3.9396Y-1.9626
X3.9396Y-2.2579
X3.9396Y-2.5531
X3.9396Y-2.8484
X3.9396Y-3.1437
X3.9396Y-3.439
X3.9396Y-3.7343
T2
X3.4598Y-4.0472
X3.4598Y-4.1472
X3.5598Y-4.0472
X3.5598Y-4.1472
X3.6598Y-4.0472
X3.6598Y-4.1472
X3.7598Y-4.0472
X3.7598Y-4.1472
X3.8598Y-4.0472
X3.8598Y-4.1472
M30
