%TF.GenerationSoftware,KiCad,Pcbnew,8.0.6*%
%TF.CreationDate,2025-02-23T20:14:06-07:00*%
%TF.ProjectId,Dash Indicators (Right),44617368-2049-46e6-9469-6361746f7273,rev?*%
%TF.SameCoordinates,Original*%
%TF.FileFunction,Legend,Bot*%
%TF.FilePolarity,Positive*%
%FSLAX46Y46*%
G04 Gerber Fmt 4.6, Leading zero omitted, Abs format (unit mm)*
G04 Created by KiCad (PCBNEW 8.0.6) date 2025-02-23 20:14:06*
%MOMM*%
%LPD*%
G01*
G04 APERTURE LIST*
%ADD10C,0.100000*%
%ADD11C,0.300000*%
%ADD12C,0.120000*%
%ADD13C,0.000000*%
G04 APERTURE END LIST*
D10*
X97596115Y-30905276D02*
X98929449Y-29000514D01*
X99881830Y-30905276D02*
X99881830Y-26905276D01*
X99881830Y-26905276D02*
X98358020Y-26905276D01*
X98358020Y-26905276D02*
X97977068Y-27095752D01*
X97977068Y-27095752D02*
X97786591Y-27286228D01*
X97786591Y-27286228D02*
X97596115Y-27667180D01*
X97596115Y-27667180D02*
X97596115Y-28238609D01*
X97596115Y-28238609D02*
X97786591Y-28619561D01*
X97786591Y-28619561D02*
X97977068Y-28810038D01*
X97977068Y-28810038D02*
X98358020Y-29000514D01*
X98358020Y-29000514D02*
X99881830Y-29000514D01*
X95881830Y-30905276D02*
X95881830Y-26905276D01*
X91881829Y-27095752D02*
X92262782Y-26905276D01*
X92262782Y-26905276D02*
X92834210Y-26905276D01*
X92834210Y-26905276D02*
X93405639Y-27095752D01*
X93405639Y-27095752D02*
X93786591Y-27476704D01*
X93786591Y-27476704D02*
X93977068Y-27857657D01*
X93977068Y-27857657D02*
X94167544Y-28619561D01*
X94167544Y-28619561D02*
X94167544Y-29190990D01*
X94167544Y-29190990D02*
X93977068Y-29952895D01*
X93977068Y-29952895D02*
X93786591Y-30333847D01*
X93786591Y-30333847D02*
X93405639Y-30714800D01*
X93405639Y-30714800D02*
X92834210Y-30905276D01*
X92834210Y-30905276D02*
X92453258Y-30905276D01*
X92453258Y-30905276D02*
X91881829Y-30714800D01*
X91881829Y-30714800D02*
X91691353Y-30524323D01*
X91691353Y-30524323D02*
X91691353Y-29190990D01*
X91691353Y-29190990D02*
X92453258Y-29190990D01*
X89977068Y-30905276D02*
X89977068Y-26905276D01*
X89977068Y-28810038D02*
X87691353Y-28810038D01*
X87691353Y-30905276D02*
X87691353Y-26905276D01*
X86358020Y-26905276D02*
X84072306Y-26905276D01*
X85215163Y-30905276D02*
X85215163Y-26905276D01*
X105238972Y-102205276D02*
X105238972Y-105062419D01*
X105238972Y-105062419D02*
X105429449Y-105633847D01*
X105429449Y-105633847D02*
X105810401Y-106014800D01*
X105810401Y-106014800D02*
X106381830Y-106205276D01*
X106381830Y-106205276D02*
X106762782Y-106205276D01*
X101238972Y-106205276D02*
X103524687Y-106205276D01*
X102381830Y-106205276D02*
X102381830Y-102205276D01*
X102381830Y-102205276D02*
X102762782Y-102776704D01*
X102762782Y-102776704D02*
X103143734Y-103157657D01*
X103143734Y-103157657D02*
X103524687Y-103348133D01*
X98643734Y-109286704D02*
X98167544Y-109286704D01*
X98738972Y-109572419D02*
X98405639Y-108572419D01*
X98405639Y-108572419D02*
X98072306Y-109572419D01*
X97548496Y-108572419D02*
X97453258Y-108572419D01*
X97453258Y-108572419D02*
X97358020Y-108620038D01*
X97358020Y-108620038D02*
X97310401Y-108667657D01*
X97310401Y-108667657D02*
X97262782Y-108762895D01*
X97262782Y-108762895D02*
X97215163Y-108953371D01*
X97215163Y-108953371D02*
X97215163Y-109191466D01*
X97215163Y-109191466D02*
X97262782Y-109381942D01*
X97262782Y-109381942D02*
X97310401Y-109477180D01*
X97310401Y-109477180D02*
X97358020Y-109524800D01*
X97358020Y-109524800D02*
X97453258Y-109572419D01*
X97453258Y-109572419D02*
X97548496Y-109572419D01*
X97548496Y-109572419D02*
X97643734Y-109524800D01*
X97643734Y-109524800D02*
X97691353Y-109477180D01*
X97691353Y-109477180D02*
X97738972Y-109381942D01*
X97738972Y-109381942D02*
X97786591Y-109191466D01*
X97786591Y-109191466D02*
X97786591Y-108953371D01*
X97786591Y-108953371D02*
X97738972Y-108762895D01*
X97738972Y-108762895D02*
X97691353Y-108667657D01*
X97691353Y-108667657D02*
X97643734Y-108620038D01*
X97643734Y-108620038D02*
X97548496Y-108572419D01*
X97753258Y-32405276D02*
X95467544Y-32405276D01*
X96610401Y-36405276D02*
X96610401Y-32405276D01*
X93372306Y-32405276D02*
X92610401Y-32405276D01*
X92610401Y-32405276D02*
X92229449Y-32595752D01*
X92229449Y-32595752D02*
X91848496Y-32976704D01*
X91848496Y-32976704D02*
X91658020Y-33738609D01*
X91658020Y-33738609D02*
X91658020Y-35071942D01*
X91658020Y-35071942D02*
X91848496Y-35833847D01*
X91848496Y-35833847D02*
X92229449Y-36214800D01*
X92229449Y-36214800D02*
X92610401Y-36405276D01*
X92610401Y-36405276D02*
X93372306Y-36405276D01*
X93372306Y-36405276D02*
X93753258Y-36214800D01*
X93753258Y-36214800D02*
X94134211Y-35833847D01*
X94134211Y-35833847D02*
X94324687Y-35071942D01*
X94324687Y-35071942D02*
X94324687Y-33738609D01*
X94324687Y-33738609D02*
X94134211Y-32976704D01*
X94134211Y-32976704D02*
X93753258Y-32595752D01*
X93753258Y-32595752D02*
X93372306Y-32405276D01*
X89943735Y-36405276D02*
X89943735Y-32405276D01*
X89943735Y-32405276D02*
X88419925Y-32405276D01*
X88419925Y-32405276D02*
X88038973Y-32595752D01*
X88038973Y-32595752D02*
X87848496Y-32786228D01*
X87848496Y-32786228D02*
X87658020Y-33167180D01*
X87658020Y-33167180D02*
X87658020Y-33738609D01*
X87658020Y-33738609D02*
X87848496Y-34119561D01*
X87848496Y-34119561D02*
X88038973Y-34310038D01*
X88038973Y-34310038D02*
X88419925Y-34500514D01*
X88419925Y-34500514D02*
X89943735Y-34500514D01*
X88343734Y-109386704D02*
X87867544Y-109386704D01*
X88438972Y-109672419D02*
X88105639Y-108672419D01*
X88105639Y-108672419D02*
X87772306Y-109672419D01*
X87010401Y-109005752D02*
X87010401Y-109672419D01*
X87248496Y-108624800D02*
X87486591Y-109339085D01*
X87486591Y-109339085D02*
X86867544Y-109339085D01*
X109837524Y-91596115D02*
X110837524Y-91596115D01*
X110837524Y-91596115D02*
X110837524Y-91358020D01*
X110837524Y-91358020D02*
X110789905Y-91215163D01*
X110789905Y-91215163D02*
X110694667Y-91119925D01*
X110694667Y-91119925D02*
X110599429Y-91072306D01*
X110599429Y-91072306D02*
X110408953Y-91024687D01*
X110408953Y-91024687D02*
X110266096Y-91024687D01*
X110266096Y-91024687D02*
X110075620Y-91072306D01*
X110075620Y-91072306D02*
X109980382Y-91119925D01*
X109980382Y-91119925D02*
X109885144Y-91215163D01*
X109885144Y-91215163D02*
X109837524Y-91358020D01*
X109837524Y-91358020D02*
X109837524Y-91596115D01*
X109885144Y-90215163D02*
X109837524Y-90310401D01*
X109837524Y-90310401D02*
X109837524Y-90500877D01*
X109837524Y-90500877D02*
X109885144Y-90596115D01*
X109885144Y-90596115D02*
X109980382Y-90643734D01*
X109980382Y-90643734D02*
X110361334Y-90643734D01*
X110361334Y-90643734D02*
X110456572Y-90596115D01*
X110456572Y-90596115D02*
X110504191Y-90500877D01*
X110504191Y-90500877D02*
X110504191Y-90310401D01*
X110504191Y-90310401D02*
X110456572Y-90215163D01*
X110456572Y-90215163D02*
X110361334Y-90167544D01*
X110361334Y-90167544D02*
X110266096Y-90167544D01*
X110266096Y-90167544D02*
X110170858Y-90643734D01*
X109885144Y-89786591D02*
X109837524Y-89691353D01*
X109837524Y-89691353D02*
X109837524Y-89500877D01*
X109837524Y-89500877D02*
X109885144Y-89405639D01*
X109885144Y-89405639D02*
X109980382Y-89358020D01*
X109980382Y-89358020D02*
X110028001Y-89358020D01*
X110028001Y-89358020D02*
X110123239Y-89405639D01*
X110123239Y-89405639D02*
X110170858Y-89500877D01*
X110170858Y-89500877D02*
X110170858Y-89643734D01*
X110170858Y-89643734D02*
X110218477Y-89738972D01*
X110218477Y-89738972D02*
X110313715Y-89786591D01*
X110313715Y-89786591D02*
X110361334Y-89786591D01*
X110361334Y-89786591D02*
X110456572Y-89738972D01*
X110456572Y-89738972D02*
X110504191Y-89643734D01*
X110504191Y-89643734D02*
X110504191Y-89500877D01*
X110504191Y-89500877D02*
X110456572Y-89405639D01*
X109837524Y-88929448D02*
X110504191Y-88929448D01*
X110837524Y-88929448D02*
X110789905Y-88977067D01*
X110789905Y-88977067D02*
X110742286Y-88929448D01*
X110742286Y-88929448D02*
X110789905Y-88881829D01*
X110789905Y-88881829D02*
X110837524Y-88929448D01*
X110837524Y-88929448D02*
X110742286Y-88929448D01*
X110504191Y-88024687D02*
X109694667Y-88024687D01*
X109694667Y-88024687D02*
X109599429Y-88072306D01*
X109599429Y-88072306D02*
X109551810Y-88119925D01*
X109551810Y-88119925D02*
X109504191Y-88215163D01*
X109504191Y-88215163D02*
X109504191Y-88358020D01*
X109504191Y-88358020D02*
X109551810Y-88453258D01*
X109885144Y-88024687D02*
X109837524Y-88119925D01*
X109837524Y-88119925D02*
X109837524Y-88310401D01*
X109837524Y-88310401D02*
X109885144Y-88405639D01*
X109885144Y-88405639D02*
X109932763Y-88453258D01*
X109932763Y-88453258D02*
X110028001Y-88500877D01*
X110028001Y-88500877D02*
X110313715Y-88500877D01*
X110313715Y-88500877D02*
X110408953Y-88453258D01*
X110408953Y-88453258D02*
X110456572Y-88405639D01*
X110456572Y-88405639D02*
X110504191Y-88310401D01*
X110504191Y-88310401D02*
X110504191Y-88119925D01*
X110504191Y-88119925D02*
X110456572Y-88024687D01*
X110504191Y-87548496D02*
X109837524Y-87548496D01*
X110408953Y-87548496D02*
X110456572Y-87500877D01*
X110456572Y-87500877D02*
X110504191Y-87405639D01*
X110504191Y-87405639D02*
X110504191Y-87262782D01*
X110504191Y-87262782D02*
X110456572Y-87167544D01*
X110456572Y-87167544D02*
X110361334Y-87119925D01*
X110361334Y-87119925D02*
X109837524Y-87119925D01*
X109885144Y-86262782D02*
X109837524Y-86358020D01*
X109837524Y-86358020D02*
X109837524Y-86548496D01*
X109837524Y-86548496D02*
X109885144Y-86643734D01*
X109885144Y-86643734D02*
X109980382Y-86691353D01*
X109980382Y-86691353D02*
X110361334Y-86691353D01*
X110361334Y-86691353D02*
X110456572Y-86643734D01*
X110456572Y-86643734D02*
X110504191Y-86548496D01*
X110504191Y-86548496D02*
X110504191Y-86358020D01*
X110504191Y-86358020D02*
X110456572Y-86262782D01*
X110456572Y-86262782D02*
X110361334Y-86215163D01*
X110361334Y-86215163D02*
X110266096Y-86215163D01*
X110266096Y-86215163D02*
X110170858Y-86691353D01*
X109837524Y-85358020D02*
X110837524Y-85358020D01*
X109885144Y-85358020D02*
X109837524Y-85453258D01*
X109837524Y-85453258D02*
X109837524Y-85643734D01*
X109837524Y-85643734D02*
X109885144Y-85738972D01*
X109885144Y-85738972D02*
X109932763Y-85786591D01*
X109932763Y-85786591D02*
X110028001Y-85834210D01*
X110028001Y-85834210D02*
X110313715Y-85834210D01*
X110313715Y-85834210D02*
X110408953Y-85786591D01*
X110408953Y-85786591D02*
X110456572Y-85738972D01*
X110456572Y-85738972D02*
X110504191Y-85643734D01*
X110504191Y-85643734D02*
X110504191Y-85453258D01*
X110504191Y-85453258D02*
X110456572Y-85358020D01*
X109837524Y-84119924D02*
X110837524Y-84119924D01*
X110456572Y-84119924D02*
X110504191Y-84024686D01*
X110504191Y-84024686D02*
X110504191Y-83834210D01*
X110504191Y-83834210D02*
X110456572Y-83738972D01*
X110456572Y-83738972D02*
X110408953Y-83691353D01*
X110408953Y-83691353D02*
X110313715Y-83643734D01*
X110313715Y-83643734D02*
X110028001Y-83643734D01*
X110028001Y-83643734D02*
X109932763Y-83691353D01*
X109932763Y-83691353D02*
X109885144Y-83738972D01*
X109885144Y-83738972D02*
X109837524Y-83834210D01*
X109837524Y-83834210D02*
X109837524Y-84024686D01*
X109837524Y-84024686D02*
X109885144Y-84119924D01*
X110504191Y-83310400D02*
X109837524Y-83072305D01*
X110504191Y-82834210D02*
X109837524Y-83072305D01*
X109837524Y-83072305D02*
X109599429Y-83167543D01*
X109599429Y-83167543D02*
X109551810Y-83215162D01*
X109551810Y-83215162D02*
X109504191Y-83310400D01*
X109932763Y-81119924D02*
X109885144Y-81167543D01*
X109885144Y-81167543D02*
X109837524Y-81310400D01*
X109837524Y-81310400D02*
X109837524Y-81405638D01*
X109837524Y-81405638D02*
X109885144Y-81548495D01*
X109885144Y-81548495D02*
X109980382Y-81643733D01*
X109980382Y-81643733D02*
X110075620Y-81691352D01*
X110075620Y-81691352D02*
X110266096Y-81738971D01*
X110266096Y-81738971D02*
X110408953Y-81738971D01*
X110408953Y-81738971D02*
X110599429Y-81691352D01*
X110599429Y-81691352D02*
X110694667Y-81643733D01*
X110694667Y-81643733D02*
X110789905Y-81548495D01*
X110789905Y-81548495D02*
X110837524Y-81405638D01*
X110837524Y-81405638D02*
X110837524Y-81310400D01*
X110837524Y-81310400D02*
X110789905Y-81167543D01*
X110789905Y-81167543D02*
X110742286Y-81119924D01*
X109837524Y-80548495D02*
X109885144Y-80643733D01*
X109885144Y-80643733D02*
X109932763Y-80691352D01*
X109932763Y-80691352D02*
X110028001Y-80738971D01*
X110028001Y-80738971D02*
X110313715Y-80738971D01*
X110313715Y-80738971D02*
X110408953Y-80691352D01*
X110408953Y-80691352D02*
X110456572Y-80643733D01*
X110456572Y-80643733D02*
X110504191Y-80548495D01*
X110504191Y-80548495D02*
X110504191Y-80405638D01*
X110504191Y-80405638D02*
X110456572Y-80310400D01*
X110456572Y-80310400D02*
X110408953Y-80262781D01*
X110408953Y-80262781D02*
X110313715Y-80215162D01*
X110313715Y-80215162D02*
X110028001Y-80215162D01*
X110028001Y-80215162D02*
X109932763Y-80262781D01*
X109932763Y-80262781D02*
X109885144Y-80310400D01*
X109885144Y-80310400D02*
X109837524Y-80405638D01*
X109837524Y-80405638D02*
X109837524Y-80548495D01*
X110504191Y-79786590D02*
X109837524Y-79786590D01*
X110408953Y-79786590D02*
X110456572Y-79738971D01*
X110456572Y-79738971D02*
X110504191Y-79643733D01*
X110504191Y-79643733D02*
X110504191Y-79500876D01*
X110504191Y-79500876D02*
X110456572Y-79405638D01*
X110456572Y-79405638D02*
X110361334Y-79358019D01*
X110361334Y-79358019D02*
X109837524Y-79358019D01*
X110504191Y-78881828D02*
X109837524Y-78881828D01*
X110408953Y-78881828D02*
X110456572Y-78834209D01*
X110456572Y-78834209D02*
X110504191Y-78738971D01*
X110504191Y-78738971D02*
X110504191Y-78596114D01*
X110504191Y-78596114D02*
X110456572Y-78500876D01*
X110456572Y-78500876D02*
X110361334Y-78453257D01*
X110361334Y-78453257D02*
X109837524Y-78453257D01*
X109837524Y-77834209D02*
X109885144Y-77929447D01*
X109885144Y-77929447D02*
X109932763Y-77977066D01*
X109932763Y-77977066D02*
X110028001Y-78024685D01*
X110028001Y-78024685D02*
X110313715Y-78024685D01*
X110313715Y-78024685D02*
X110408953Y-77977066D01*
X110408953Y-77977066D02*
X110456572Y-77929447D01*
X110456572Y-77929447D02*
X110504191Y-77834209D01*
X110504191Y-77834209D02*
X110504191Y-77691352D01*
X110504191Y-77691352D02*
X110456572Y-77596114D01*
X110456572Y-77596114D02*
X110408953Y-77548495D01*
X110408953Y-77548495D02*
X110313715Y-77500876D01*
X110313715Y-77500876D02*
X110028001Y-77500876D01*
X110028001Y-77500876D02*
X109932763Y-77548495D01*
X109932763Y-77548495D02*
X109885144Y-77596114D01*
X109885144Y-77596114D02*
X109837524Y-77691352D01*
X109837524Y-77691352D02*
X109837524Y-77834209D01*
X109837524Y-77072304D02*
X110504191Y-77072304D01*
X110313715Y-77072304D02*
X110408953Y-77024685D01*
X110408953Y-77024685D02*
X110456572Y-76977066D01*
X110456572Y-76977066D02*
X110504191Y-76881828D01*
X110504191Y-76881828D02*
X110504191Y-76786590D01*
X109837524Y-75215161D02*
X109837524Y-75691351D01*
X109837524Y-75691351D02*
X110837524Y-75691351D01*
X109837524Y-74453256D02*
X110361334Y-74453256D01*
X110361334Y-74453256D02*
X110456572Y-74500875D01*
X110456572Y-74500875D02*
X110504191Y-74596113D01*
X110504191Y-74596113D02*
X110504191Y-74786589D01*
X110504191Y-74786589D02*
X110456572Y-74881827D01*
X109885144Y-74453256D02*
X109837524Y-74548494D01*
X109837524Y-74548494D02*
X109837524Y-74786589D01*
X109837524Y-74786589D02*
X109885144Y-74881827D01*
X109885144Y-74881827D02*
X109980382Y-74929446D01*
X109980382Y-74929446D02*
X110075620Y-74929446D01*
X110075620Y-74929446D02*
X110170858Y-74881827D01*
X110170858Y-74881827D02*
X110218477Y-74786589D01*
X110218477Y-74786589D02*
X110218477Y-74548494D01*
X110218477Y-74548494D02*
X110266096Y-74453256D01*
X109837524Y-73977065D02*
X110504191Y-73977065D01*
X110313715Y-73977065D02*
X110408953Y-73929446D01*
X110408953Y-73929446D02*
X110456572Y-73881827D01*
X110456572Y-73881827D02*
X110504191Y-73786589D01*
X110504191Y-73786589D02*
X110504191Y-73691351D01*
X109885144Y-73405636D02*
X109837524Y-73310398D01*
X109837524Y-73310398D02*
X109837524Y-73119922D01*
X109837524Y-73119922D02*
X109885144Y-73024684D01*
X109885144Y-73024684D02*
X109980382Y-72977065D01*
X109980382Y-72977065D02*
X110028001Y-72977065D01*
X110028001Y-72977065D02*
X110123239Y-73024684D01*
X110123239Y-73024684D02*
X110170858Y-73119922D01*
X110170858Y-73119922D02*
X110170858Y-73262779D01*
X110170858Y-73262779D02*
X110218477Y-73358017D01*
X110218477Y-73358017D02*
X110313715Y-73405636D01*
X110313715Y-73405636D02*
X110361334Y-73405636D01*
X110361334Y-73405636D02*
X110456572Y-73358017D01*
X110456572Y-73358017D02*
X110504191Y-73262779D01*
X110504191Y-73262779D02*
X110504191Y-73119922D01*
X110504191Y-73119922D02*
X110456572Y-73024684D01*
X109837524Y-72405636D02*
X109885144Y-72500874D01*
X109885144Y-72500874D02*
X109932763Y-72548493D01*
X109932763Y-72548493D02*
X110028001Y-72596112D01*
X110028001Y-72596112D02*
X110313715Y-72596112D01*
X110313715Y-72596112D02*
X110408953Y-72548493D01*
X110408953Y-72548493D02*
X110456572Y-72500874D01*
X110456572Y-72500874D02*
X110504191Y-72405636D01*
X110504191Y-72405636D02*
X110504191Y-72262779D01*
X110504191Y-72262779D02*
X110456572Y-72167541D01*
X110456572Y-72167541D02*
X110408953Y-72119922D01*
X110408953Y-72119922D02*
X110313715Y-72072303D01*
X110313715Y-72072303D02*
X110028001Y-72072303D01*
X110028001Y-72072303D02*
X109932763Y-72119922D01*
X109932763Y-72119922D02*
X109885144Y-72167541D01*
X109885144Y-72167541D02*
X109837524Y-72262779D01*
X109837524Y-72262779D02*
X109837524Y-72405636D01*
X110504191Y-71643731D02*
X109837524Y-71643731D01*
X110408953Y-71643731D02*
X110456572Y-71596112D01*
X110456572Y-71596112D02*
X110504191Y-71500874D01*
X110504191Y-71500874D02*
X110504191Y-71358017D01*
X110504191Y-71358017D02*
X110456572Y-71262779D01*
X110456572Y-71262779D02*
X110361334Y-71215160D01*
X110361334Y-71215160D02*
X109837524Y-71215160D01*
X109885144Y-70691350D02*
X109837524Y-70691350D01*
X109837524Y-70691350D02*
X109742286Y-70738969D01*
X109742286Y-70738969D02*
X109694667Y-70786588D01*
X109837524Y-69500874D02*
X110837524Y-69500874D01*
X109837524Y-68929446D02*
X110408953Y-69358017D01*
X110837524Y-68929446D02*
X110266096Y-69500874D01*
X109837524Y-68072303D02*
X110361334Y-68072303D01*
X110361334Y-68072303D02*
X110456572Y-68119922D01*
X110456572Y-68119922D02*
X110504191Y-68215160D01*
X110504191Y-68215160D02*
X110504191Y-68405636D01*
X110504191Y-68405636D02*
X110456572Y-68500874D01*
X109885144Y-68072303D02*
X109837524Y-68167541D01*
X109837524Y-68167541D02*
X109837524Y-68405636D01*
X109837524Y-68405636D02*
X109885144Y-68500874D01*
X109885144Y-68500874D02*
X109980382Y-68548493D01*
X109980382Y-68548493D02*
X110075620Y-68548493D01*
X110075620Y-68548493D02*
X110170858Y-68500874D01*
X110170858Y-68500874D02*
X110218477Y-68405636D01*
X110218477Y-68405636D02*
X110218477Y-68167541D01*
X110218477Y-68167541D02*
X110266096Y-68072303D01*
X109837524Y-67596112D02*
X110504191Y-67596112D01*
X110313715Y-67596112D02*
X110408953Y-67548493D01*
X110408953Y-67548493D02*
X110456572Y-67500874D01*
X110456572Y-67500874D02*
X110504191Y-67405636D01*
X110504191Y-67405636D02*
X110504191Y-67310398D01*
X109885144Y-67024683D02*
X109837524Y-66929445D01*
X109837524Y-66929445D02*
X109837524Y-66738969D01*
X109837524Y-66738969D02*
X109885144Y-66643731D01*
X109885144Y-66643731D02*
X109980382Y-66596112D01*
X109980382Y-66596112D02*
X110028001Y-66596112D01*
X110028001Y-66596112D02*
X110123239Y-66643731D01*
X110123239Y-66643731D02*
X110170858Y-66738969D01*
X110170858Y-66738969D02*
X110170858Y-66881826D01*
X110170858Y-66881826D02*
X110218477Y-66977064D01*
X110218477Y-66977064D02*
X110313715Y-67024683D01*
X110313715Y-67024683D02*
X110361334Y-67024683D01*
X110361334Y-67024683D02*
X110456572Y-66977064D01*
X110456572Y-66977064D02*
X110504191Y-66881826D01*
X110504191Y-66881826D02*
X110504191Y-66738969D01*
X110504191Y-66738969D02*
X110456572Y-66643731D01*
X110504191Y-66310397D02*
X110504191Y-65929445D01*
X110837524Y-66167540D02*
X109980382Y-66167540D01*
X109980382Y-66167540D02*
X109885144Y-66119921D01*
X109885144Y-66119921D02*
X109837524Y-66024683D01*
X109837524Y-66024683D02*
X109837524Y-65929445D01*
X109885144Y-65215159D02*
X109837524Y-65310397D01*
X109837524Y-65310397D02*
X109837524Y-65500873D01*
X109837524Y-65500873D02*
X109885144Y-65596111D01*
X109885144Y-65596111D02*
X109980382Y-65643730D01*
X109980382Y-65643730D02*
X110361334Y-65643730D01*
X110361334Y-65643730D02*
X110456572Y-65596111D01*
X110456572Y-65596111D02*
X110504191Y-65500873D01*
X110504191Y-65500873D02*
X110504191Y-65310397D01*
X110504191Y-65310397D02*
X110456572Y-65215159D01*
X110456572Y-65215159D02*
X110361334Y-65167540D01*
X110361334Y-65167540D02*
X110266096Y-65167540D01*
X110266096Y-65167540D02*
X110170858Y-65643730D01*
X110504191Y-64738968D02*
X109837524Y-64738968D01*
X110408953Y-64738968D02*
X110456572Y-64691349D01*
X110456572Y-64691349D02*
X110504191Y-64596111D01*
X110504191Y-64596111D02*
X110504191Y-64453254D01*
X110504191Y-64453254D02*
X110456572Y-64358016D01*
X110456572Y-64358016D02*
X110361334Y-64310397D01*
X110361334Y-64310397D02*
X109837524Y-64310397D01*
X110313715Y-62881825D02*
X109837524Y-62881825D01*
X110837524Y-63215158D02*
X110313715Y-62881825D01*
X110313715Y-62881825D02*
X110837524Y-62548492D01*
X109837524Y-62215158D02*
X110504191Y-62215158D01*
X110837524Y-62215158D02*
X110789905Y-62262777D01*
X110789905Y-62262777D02*
X110742286Y-62215158D01*
X110742286Y-62215158D02*
X110789905Y-62167539D01*
X110789905Y-62167539D02*
X110837524Y-62215158D01*
X110837524Y-62215158D02*
X110742286Y-62215158D01*
X109837524Y-61310397D02*
X110361334Y-61310397D01*
X110361334Y-61310397D02*
X110456572Y-61358016D01*
X110456572Y-61358016D02*
X110504191Y-61453254D01*
X110504191Y-61453254D02*
X110504191Y-61643730D01*
X110504191Y-61643730D02*
X110456572Y-61738968D01*
X109885144Y-61310397D02*
X109837524Y-61405635D01*
X109837524Y-61405635D02*
X109837524Y-61643730D01*
X109837524Y-61643730D02*
X109885144Y-61738968D01*
X109885144Y-61738968D02*
X109980382Y-61786587D01*
X109980382Y-61786587D02*
X110075620Y-61786587D01*
X110075620Y-61786587D02*
X110170858Y-61738968D01*
X110170858Y-61738968D02*
X110218477Y-61643730D01*
X110218477Y-61643730D02*
X110218477Y-61405635D01*
X110218477Y-61405635D02*
X110266096Y-61310397D01*
X110504191Y-60834206D02*
X109837524Y-60834206D01*
X110408953Y-60834206D02*
X110456572Y-60786587D01*
X110456572Y-60786587D02*
X110504191Y-60691349D01*
X110504191Y-60691349D02*
X110504191Y-60548492D01*
X110504191Y-60548492D02*
X110456572Y-60453254D01*
X110456572Y-60453254D02*
X110361334Y-60405635D01*
X110361334Y-60405635D02*
X109837524Y-60405635D01*
X109837524Y-58738968D02*
X110361334Y-58738968D01*
X110361334Y-58738968D02*
X110456572Y-58786587D01*
X110456572Y-58786587D02*
X110504191Y-58881825D01*
X110504191Y-58881825D02*
X110504191Y-59072301D01*
X110504191Y-59072301D02*
X110456572Y-59167539D01*
X109885144Y-58738968D02*
X109837524Y-58834206D01*
X109837524Y-58834206D02*
X109837524Y-59072301D01*
X109837524Y-59072301D02*
X109885144Y-59167539D01*
X109885144Y-59167539D02*
X109980382Y-59215158D01*
X109980382Y-59215158D02*
X110075620Y-59215158D01*
X110075620Y-59215158D02*
X110170858Y-59167539D01*
X110170858Y-59167539D02*
X110218477Y-59072301D01*
X110218477Y-59072301D02*
X110218477Y-58834206D01*
X110218477Y-58834206D02*
X110266096Y-58738968D01*
X110504191Y-58262777D02*
X109837524Y-58262777D01*
X110408953Y-58262777D02*
X110456572Y-58215158D01*
X110456572Y-58215158D02*
X110504191Y-58119920D01*
X110504191Y-58119920D02*
X110504191Y-57977063D01*
X110504191Y-57977063D02*
X110456572Y-57881825D01*
X110456572Y-57881825D02*
X110361334Y-57834206D01*
X110361334Y-57834206D02*
X109837524Y-57834206D01*
X109837524Y-56929444D02*
X110837524Y-56929444D01*
X109885144Y-56929444D02*
X109837524Y-57024682D01*
X109837524Y-57024682D02*
X109837524Y-57215158D01*
X109837524Y-57215158D02*
X109885144Y-57310396D01*
X109885144Y-57310396D02*
X109932763Y-57358015D01*
X109932763Y-57358015D02*
X110028001Y-57405634D01*
X110028001Y-57405634D02*
X110313715Y-57405634D01*
X110313715Y-57405634D02*
X110408953Y-57358015D01*
X110408953Y-57358015D02*
X110456572Y-57310396D01*
X110456572Y-57310396D02*
X110504191Y-57215158D01*
X110504191Y-57215158D02*
X110504191Y-57024682D01*
X110504191Y-57024682D02*
X110456572Y-56929444D01*
X110837524Y-55405634D02*
X110123239Y-55405634D01*
X110123239Y-55405634D02*
X109980382Y-55453253D01*
X109980382Y-55453253D02*
X109885144Y-55548491D01*
X109885144Y-55548491D02*
X109837524Y-55691348D01*
X109837524Y-55691348D02*
X109837524Y-55786586D01*
X110504191Y-54500872D02*
X109837524Y-54500872D01*
X110504191Y-54929443D02*
X109980382Y-54929443D01*
X109980382Y-54929443D02*
X109885144Y-54881824D01*
X109885144Y-54881824D02*
X109837524Y-54786586D01*
X109837524Y-54786586D02*
X109837524Y-54643729D01*
X109837524Y-54643729D02*
X109885144Y-54548491D01*
X109885144Y-54548491D02*
X109932763Y-54500872D01*
X109837524Y-53881824D02*
X109885144Y-53977062D01*
X109885144Y-53977062D02*
X109980382Y-54024681D01*
X109980382Y-54024681D02*
X110837524Y-54024681D01*
X109837524Y-53500871D02*
X110504191Y-53500871D01*
X110837524Y-53500871D02*
X110789905Y-53548490D01*
X110789905Y-53548490D02*
X110742286Y-53500871D01*
X110742286Y-53500871D02*
X110789905Y-53453252D01*
X110789905Y-53453252D02*
X110837524Y-53500871D01*
X110837524Y-53500871D02*
X110742286Y-53500871D01*
X109837524Y-52596110D02*
X110361334Y-52596110D01*
X110361334Y-52596110D02*
X110456572Y-52643729D01*
X110456572Y-52643729D02*
X110504191Y-52738967D01*
X110504191Y-52738967D02*
X110504191Y-52929443D01*
X110504191Y-52929443D02*
X110456572Y-53024681D01*
X109885144Y-52596110D02*
X109837524Y-52691348D01*
X109837524Y-52691348D02*
X109837524Y-52929443D01*
X109837524Y-52929443D02*
X109885144Y-53024681D01*
X109885144Y-53024681D02*
X109980382Y-53072300D01*
X109980382Y-53072300D02*
X110075620Y-53072300D01*
X110075620Y-53072300D02*
X110170858Y-53024681D01*
X110170858Y-53024681D02*
X110218477Y-52929443D01*
X110218477Y-52929443D02*
X110218477Y-52691348D01*
X110218477Y-52691348D02*
X110266096Y-52596110D01*
X110504191Y-52119919D02*
X109837524Y-52119919D01*
X110408953Y-52119919D02*
X110456572Y-52072300D01*
X110456572Y-52072300D02*
X110504191Y-51977062D01*
X110504191Y-51977062D02*
X110504191Y-51834205D01*
X110504191Y-51834205D02*
X110456572Y-51738967D01*
X110456572Y-51738967D02*
X110361334Y-51691348D01*
X110361334Y-51691348D02*
X109837524Y-51691348D01*
X109837524Y-50453252D02*
X110504191Y-50453252D01*
X110408953Y-50453252D02*
X110456572Y-50405633D01*
X110456572Y-50405633D02*
X110504191Y-50310395D01*
X110504191Y-50310395D02*
X110504191Y-50167538D01*
X110504191Y-50167538D02*
X110456572Y-50072300D01*
X110456572Y-50072300D02*
X110361334Y-50024681D01*
X110361334Y-50024681D02*
X109837524Y-50024681D01*
X110361334Y-50024681D02*
X110456572Y-49977062D01*
X110456572Y-49977062D02*
X110504191Y-49881824D01*
X110504191Y-49881824D02*
X110504191Y-49738967D01*
X110504191Y-49738967D02*
X110456572Y-49643728D01*
X110456572Y-49643728D02*
X110361334Y-49596109D01*
X110361334Y-49596109D02*
X109837524Y-49596109D01*
X110837524Y-48643729D02*
X110837524Y-49119919D01*
X110837524Y-49119919D02*
X110361334Y-49167538D01*
X110361334Y-49167538D02*
X110408953Y-49119919D01*
X110408953Y-49119919D02*
X110456572Y-49024681D01*
X110456572Y-49024681D02*
X110456572Y-48786586D01*
X110456572Y-48786586D02*
X110408953Y-48691348D01*
X110408953Y-48691348D02*
X110361334Y-48643729D01*
X110361334Y-48643729D02*
X110266096Y-48596110D01*
X110266096Y-48596110D02*
X110028001Y-48596110D01*
X110028001Y-48596110D02*
X109932763Y-48643729D01*
X109932763Y-48643729D02*
X109885144Y-48691348D01*
X109885144Y-48691348D02*
X109837524Y-48786586D01*
X109837524Y-48786586D02*
X109837524Y-49024681D01*
X109837524Y-49024681D02*
X109885144Y-49119919D01*
X109885144Y-49119919D02*
X109932763Y-49167538D01*
X110837524Y-47738967D02*
X110837524Y-47929443D01*
X110837524Y-47929443D02*
X110789905Y-48024681D01*
X110789905Y-48024681D02*
X110742286Y-48072300D01*
X110742286Y-48072300D02*
X110599429Y-48167538D01*
X110599429Y-48167538D02*
X110408953Y-48215157D01*
X110408953Y-48215157D02*
X110028001Y-48215157D01*
X110028001Y-48215157D02*
X109932763Y-48167538D01*
X109932763Y-48167538D02*
X109885144Y-48119919D01*
X109885144Y-48119919D02*
X109837524Y-48024681D01*
X109837524Y-48024681D02*
X109837524Y-47834205D01*
X109837524Y-47834205D02*
X109885144Y-47738967D01*
X109885144Y-47738967D02*
X109932763Y-47691348D01*
X109932763Y-47691348D02*
X110028001Y-47643729D01*
X110028001Y-47643729D02*
X110266096Y-47643729D01*
X110266096Y-47643729D02*
X110361334Y-47691348D01*
X110361334Y-47691348D02*
X110408953Y-47738967D01*
X110408953Y-47738967D02*
X110456572Y-47834205D01*
X110456572Y-47834205D02*
X110456572Y-48024681D01*
X110456572Y-48024681D02*
X110408953Y-48119919D01*
X110408953Y-48119919D02*
X110361334Y-48167538D01*
X110361334Y-48167538D02*
X110266096Y-48215157D01*
X108227580Y-91596115D02*
X109227580Y-91596115D01*
X108894247Y-91119925D02*
X108227580Y-91119925D01*
X108799009Y-91119925D02*
X108846628Y-91072306D01*
X108846628Y-91072306D02*
X108894247Y-90977068D01*
X108894247Y-90977068D02*
X108894247Y-90834211D01*
X108894247Y-90834211D02*
X108846628Y-90738973D01*
X108846628Y-90738973D02*
X108751390Y-90691354D01*
X108751390Y-90691354D02*
X108227580Y-90691354D01*
X109227580Y-89596115D02*
X109227580Y-89024687D01*
X108227580Y-89310401D02*
X109227580Y-89310401D01*
X108894247Y-88262782D02*
X108227580Y-88262782D01*
X108894247Y-88691353D02*
X108370438Y-88691353D01*
X108370438Y-88691353D02*
X108275200Y-88643734D01*
X108275200Y-88643734D02*
X108227580Y-88548496D01*
X108227580Y-88548496D02*
X108227580Y-88405639D01*
X108227580Y-88405639D02*
X108275200Y-88310401D01*
X108275200Y-88310401D02*
X108322819Y-88262782D01*
X108275200Y-87358020D02*
X108227580Y-87453258D01*
X108227580Y-87453258D02*
X108227580Y-87643734D01*
X108227580Y-87643734D02*
X108275200Y-87738972D01*
X108275200Y-87738972D02*
X108322819Y-87786591D01*
X108322819Y-87786591D02*
X108418057Y-87834210D01*
X108418057Y-87834210D02*
X108703771Y-87834210D01*
X108703771Y-87834210D02*
X108799009Y-87786591D01*
X108799009Y-87786591D02*
X108846628Y-87738972D01*
X108846628Y-87738972D02*
X108894247Y-87643734D01*
X108894247Y-87643734D02*
X108894247Y-87453258D01*
X108894247Y-87453258D02*
X108846628Y-87358020D01*
X108275200Y-86977067D02*
X108227580Y-86881829D01*
X108227580Y-86881829D02*
X108227580Y-86691353D01*
X108227580Y-86691353D02*
X108275200Y-86596115D01*
X108275200Y-86596115D02*
X108370438Y-86548496D01*
X108370438Y-86548496D02*
X108418057Y-86548496D01*
X108418057Y-86548496D02*
X108513295Y-86596115D01*
X108513295Y-86596115D02*
X108560914Y-86691353D01*
X108560914Y-86691353D02*
X108560914Y-86834210D01*
X108560914Y-86834210D02*
X108608533Y-86929448D01*
X108608533Y-86929448D02*
X108703771Y-86977067D01*
X108703771Y-86977067D02*
X108751390Y-86977067D01*
X108751390Y-86977067D02*
X108846628Y-86929448D01*
X108846628Y-86929448D02*
X108894247Y-86834210D01*
X108894247Y-86834210D02*
X108894247Y-86691353D01*
X108894247Y-86691353D02*
X108846628Y-86596115D01*
X108227580Y-85977067D02*
X108275200Y-86072305D01*
X108275200Y-86072305D02*
X108322819Y-86119924D01*
X108322819Y-86119924D02*
X108418057Y-86167543D01*
X108418057Y-86167543D02*
X108703771Y-86167543D01*
X108703771Y-86167543D02*
X108799009Y-86119924D01*
X108799009Y-86119924D02*
X108846628Y-86072305D01*
X108846628Y-86072305D02*
X108894247Y-85977067D01*
X108894247Y-85977067D02*
X108894247Y-85834210D01*
X108894247Y-85834210D02*
X108846628Y-85738972D01*
X108846628Y-85738972D02*
X108799009Y-85691353D01*
X108799009Y-85691353D02*
X108703771Y-85643734D01*
X108703771Y-85643734D02*
X108418057Y-85643734D01*
X108418057Y-85643734D02*
X108322819Y-85691353D01*
X108322819Y-85691353D02*
X108275200Y-85738972D01*
X108275200Y-85738972D02*
X108227580Y-85834210D01*
X108227580Y-85834210D02*
X108227580Y-85977067D01*
X108894247Y-85215162D02*
X108227580Y-85215162D01*
X108799009Y-85215162D02*
X108846628Y-85167543D01*
X108846628Y-85167543D02*
X108894247Y-85072305D01*
X108894247Y-85072305D02*
X108894247Y-84929448D01*
X108894247Y-84929448D02*
X108846628Y-84834210D01*
X108846628Y-84834210D02*
X108751390Y-84786591D01*
X108751390Y-84786591D02*
X108227580Y-84786591D01*
X108275200Y-84262781D02*
X108227580Y-84262781D01*
X108227580Y-84262781D02*
X108132342Y-84310400D01*
X108132342Y-84310400D02*
X108084723Y-84358019D01*
X108513295Y-83119924D02*
X108513295Y-82643734D01*
X108227580Y-83215162D02*
X109227580Y-82881829D01*
X109227580Y-82881829D02*
X108227580Y-82548496D01*
X108227580Y-82215162D02*
X108894247Y-82215162D01*
X108703771Y-82215162D02*
X108799009Y-82167543D01*
X108799009Y-82167543D02*
X108846628Y-82119924D01*
X108846628Y-82119924D02*
X108894247Y-82024686D01*
X108894247Y-82024686D02*
X108894247Y-81929448D01*
X108227580Y-81596114D02*
X108894247Y-81596114D01*
X109227580Y-81596114D02*
X109179961Y-81643733D01*
X109179961Y-81643733D02*
X109132342Y-81596114D01*
X109132342Y-81596114D02*
X109179961Y-81548495D01*
X109179961Y-81548495D02*
X109227580Y-81596114D01*
X109227580Y-81596114D02*
X109132342Y-81596114D01*
X108894247Y-81215162D02*
X108894247Y-80691353D01*
X108894247Y-80691353D02*
X108227580Y-81215162D01*
X108227580Y-81215162D02*
X108227580Y-80691353D01*
X108227580Y-80167543D02*
X108275200Y-80262781D01*
X108275200Y-80262781D02*
X108322819Y-80310400D01*
X108322819Y-80310400D02*
X108418057Y-80358019D01*
X108418057Y-80358019D02*
X108703771Y-80358019D01*
X108703771Y-80358019D02*
X108799009Y-80310400D01*
X108799009Y-80310400D02*
X108846628Y-80262781D01*
X108846628Y-80262781D02*
X108894247Y-80167543D01*
X108894247Y-80167543D02*
X108894247Y-80024686D01*
X108894247Y-80024686D02*
X108846628Y-79929448D01*
X108846628Y-79929448D02*
X108799009Y-79881829D01*
X108799009Y-79881829D02*
X108703771Y-79834210D01*
X108703771Y-79834210D02*
X108418057Y-79834210D01*
X108418057Y-79834210D02*
X108322819Y-79881829D01*
X108322819Y-79881829D02*
X108275200Y-79929448D01*
X108275200Y-79929448D02*
X108227580Y-80024686D01*
X108227580Y-80024686D02*
X108227580Y-80167543D01*
X108894247Y-79405638D02*
X108227580Y-79405638D01*
X108799009Y-79405638D02*
X108846628Y-79358019D01*
X108846628Y-79358019D02*
X108894247Y-79262781D01*
X108894247Y-79262781D02*
X108894247Y-79119924D01*
X108894247Y-79119924D02*
X108846628Y-79024686D01*
X108846628Y-79024686D02*
X108751390Y-78977067D01*
X108751390Y-78977067D02*
X108227580Y-78977067D01*
X108227580Y-78072305D02*
X108751390Y-78072305D01*
X108751390Y-78072305D02*
X108846628Y-78119924D01*
X108846628Y-78119924D02*
X108894247Y-78215162D01*
X108894247Y-78215162D02*
X108894247Y-78405638D01*
X108894247Y-78405638D02*
X108846628Y-78500876D01*
X108275200Y-78072305D02*
X108227580Y-78167543D01*
X108227580Y-78167543D02*
X108227580Y-78405638D01*
X108227580Y-78405638D02*
X108275200Y-78500876D01*
X108275200Y-78500876D02*
X108370438Y-78548495D01*
X108370438Y-78548495D02*
X108465676Y-78548495D01*
X108465676Y-78548495D02*
X108560914Y-78500876D01*
X108560914Y-78500876D02*
X108608533Y-78405638D01*
X108608533Y-78405638D02*
X108608533Y-78167543D01*
X108608533Y-78167543D02*
X108656152Y-78072305D01*
X108275200Y-77548495D02*
X108227580Y-77548495D01*
X108227580Y-77548495D02*
X108132342Y-77596114D01*
X108132342Y-77596114D02*
X108084723Y-77643733D01*
X108227580Y-76215162D02*
X108275200Y-76310400D01*
X108275200Y-76310400D02*
X108322819Y-76358019D01*
X108322819Y-76358019D02*
X108418057Y-76405638D01*
X108418057Y-76405638D02*
X108703771Y-76405638D01*
X108703771Y-76405638D02*
X108799009Y-76358019D01*
X108799009Y-76358019D02*
X108846628Y-76310400D01*
X108846628Y-76310400D02*
X108894247Y-76215162D01*
X108894247Y-76215162D02*
X108894247Y-76072305D01*
X108894247Y-76072305D02*
X108846628Y-75977067D01*
X108846628Y-75977067D02*
X108799009Y-75929448D01*
X108799009Y-75929448D02*
X108703771Y-75881829D01*
X108703771Y-75881829D02*
X108418057Y-75881829D01*
X108418057Y-75881829D02*
X108322819Y-75929448D01*
X108322819Y-75929448D02*
X108275200Y-75977067D01*
X108275200Y-75977067D02*
X108227580Y-76072305D01*
X108227580Y-76072305D02*
X108227580Y-76215162D01*
X108894247Y-75453257D02*
X108227580Y-75453257D01*
X108799009Y-75453257D02*
X108846628Y-75405638D01*
X108846628Y-75405638D02*
X108894247Y-75310400D01*
X108894247Y-75310400D02*
X108894247Y-75167543D01*
X108894247Y-75167543D02*
X108846628Y-75072305D01*
X108846628Y-75072305D02*
X108751390Y-75024686D01*
X108751390Y-75024686D02*
X108227580Y-75024686D01*
X108751390Y-73453257D02*
X108751390Y-73786590D01*
X108227580Y-73786590D02*
X109227580Y-73786590D01*
X109227580Y-73786590D02*
X109227580Y-73310400D01*
X108275200Y-72548495D02*
X108227580Y-72643733D01*
X108227580Y-72643733D02*
X108227580Y-72834209D01*
X108227580Y-72834209D02*
X108275200Y-72929447D01*
X108275200Y-72929447D02*
X108370438Y-72977066D01*
X108370438Y-72977066D02*
X108751390Y-72977066D01*
X108751390Y-72977066D02*
X108846628Y-72929447D01*
X108846628Y-72929447D02*
X108894247Y-72834209D01*
X108894247Y-72834209D02*
X108894247Y-72643733D01*
X108894247Y-72643733D02*
X108846628Y-72548495D01*
X108846628Y-72548495D02*
X108751390Y-72500876D01*
X108751390Y-72500876D02*
X108656152Y-72500876D01*
X108656152Y-72500876D02*
X108560914Y-72977066D01*
X108227580Y-72072304D02*
X109227580Y-72072304D01*
X108846628Y-72072304D02*
X108894247Y-71977066D01*
X108894247Y-71977066D02*
X108894247Y-71786590D01*
X108894247Y-71786590D02*
X108846628Y-71691352D01*
X108846628Y-71691352D02*
X108799009Y-71643733D01*
X108799009Y-71643733D02*
X108703771Y-71596114D01*
X108703771Y-71596114D02*
X108418057Y-71596114D01*
X108418057Y-71596114D02*
X108322819Y-71643733D01*
X108322819Y-71643733D02*
X108275200Y-71691352D01*
X108275200Y-71691352D02*
X108227580Y-71786590D01*
X108227580Y-71786590D02*
X108227580Y-71977066D01*
X108227580Y-71977066D02*
X108275200Y-72072304D01*
X108894247Y-70738971D02*
X108227580Y-70738971D01*
X108894247Y-71167542D02*
X108370438Y-71167542D01*
X108370438Y-71167542D02*
X108275200Y-71119923D01*
X108275200Y-71119923D02*
X108227580Y-71024685D01*
X108227580Y-71024685D02*
X108227580Y-70881828D01*
X108227580Y-70881828D02*
X108275200Y-70786590D01*
X108275200Y-70786590D02*
X108322819Y-70738971D01*
X108227580Y-69834209D02*
X108751390Y-69834209D01*
X108751390Y-69834209D02*
X108846628Y-69881828D01*
X108846628Y-69881828D02*
X108894247Y-69977066D01*
X108894247Y-69977066D02*
X108894247Y-70167542D01*
X108894247Y-70167542D02*
X108846628Y-70262780D01*
X108275200Y-69834209D02*
X108227580Y-69929447D01*
X108227580Y-69929447D02*
X108227580Y-70167542D01*
X108227580Y-70167542D02*
X108275200Y-70262780D01*
X108275200Y-70262780D02*
X108370438Y-70310399D01*
X108370438Y-70310399D02*
X108465676Y-70310399D01*
X108465676Y-70310399D02*
X108560914Y-70262780D01*
X108560914Y-70262780D02*
X108608533Y-70167542D01*
X108608533Y-70167542D02*
X108608533Y-69929447D01*
X108608533Y-69929447D02*
X108656152Y-69834209D01*
X108227580Y-69358018D02*
X108894247Y-69358018D01*
X108703771Y-69358018D02*
X108799009Y-69310399D01*
X108799009Y-69310399D02*
X108846628Y-69262780D01*
X108846628Y-69262780D02*
X108894247Y-69167542D01*
X108894247Y-69167542D02*
X108894247Y-69072304D01*
X108894247Y-68834208D02*
X108227580Y-68596113D01*
X108894247Y-68358018D02*
X108227580Y-68596113D01*
X108227580Y-68596113D02*
X107989485Y-68691351D01*
X107989485Y-68691351D02*
X107941866Y-68738970D01*
X107941866Y-68738970D02*
X107894247Y-68834208D01*
X109132342Y-67262779D02*
X109179961Y-67215160D01*
X109179961Y-67215160D02*
X109227580Y-67119922D01*
X109227580Y-67119922D02*
X109227580Y-66881827D01*
X109227580Y-66881827D02*
X109179961Y-66786589D01*
X109179961Y-66786589D02*
X109132342Y-66738970D01*
X109132342Y-66738970D02*
X109037104Y-66691351D01*
X109037104Y-66691351D02*
X108941866Y-66691351D01*
X108941866Y-66691351D02*
X108799009Y-66738970D01*
X108799009Y-66738970D02*
X108227580Y-67310398D01*
X108227580Y-67310398D02*
X108227580Y-66691351D01*
X109227580Y-66358017D02*
X109227580Y-65738970D01*
X109227580Y-65738970D02*
X108846628Y-66072303D01*
X108846628Y-66072303D02*
X108846628Y-65929446D01*
X108846628Y-65929446D02*
X108799009Y-65834208D01*
X108799009Y-65834208D02*
X108751390Y-65786589D01*
X108751390Y-65786589D02*
X108656152Y-65738970D01*
X108656152Y-65738970D02*
X108418057Y-65738970D01*
X108418057Y-65738970D02*
X108322819Y-65786589D01*
X108322819Y-65786589D02*
X108275200Y-65834208D01*
X108275200Y-65834208D02*
X108227580Y-65929446D01*
X108227580Y-65929446D02*
X108227580Y-66215160D01*
X108227580Y-66215160D02*
X108275200Y-66310398D01*
X108275200Y-66310398D02*
X108322819Y-66358017D01*
X108227580Y-65310398D02*
X108894247Y-65310398D01*
X108703771Y-65310398D02*
X108799009Y-65262779D01*
X108799009Y-65262779D02*
X108846628Y-65215160D01*
X108846628Y-65215160D02*
X108894247Y-65119922D01*
X108894247Y-65119922D02*
X108894247Y-65024684D01*
X108227580Y-64262779D02*
X109227580Y-64262779D01*
X108275200Y-64262779D02*
X108227580Y-64358017D01*
X108227580Y-64358017D02*
X108227580Y-64548493D01*
X108227580Y-64548493D02*
X108275200Y-64643731D01*
X108275200Y-64643731D02*
X108322819Y-64691350D01*
X108322819Y-64691350D02*
X108418057Y-64738969D01*
X108418057Y-64738969D02*
X108703771Y-64738969D01*
X108703771Y-64738969D02*
X108799009Y-64691350D01*
X108799009Y-64691350D02*
X108846628Y-64643731D01*
X108846628Y-64643731D02*
X108894247Y-64548493D01*
X108894247Y-64548493D02*
X108894247Y-64358017D01*
X108894247Y-64358017D02*
X108846628Y-64262779D01*
X108275200Y-63738969D02*
X108227580Y-63738969D01*
X108227580Y-63738969D02*
X108132342Y-63786588D01*
X108132342Y-63786588D02*
X108084723Y-63834207D01*
X109132342Y-62596112D02*
X109179961Y-62548493D01*
X109179961Y-62548493D02*
X109227580Y-62453255D01*
X109227580Y-62453255D02*
X109227580Y-62215160D01*
X109227580Y-62215160D02*
X109179961Y-62119922D01*
X109179961Y-62119922D02*
X109132342Y-62072303D01*
X109132342Y-62072303D02*
X109037104Y-62024684D01*
X109037104Y-62024684D02*
X108941866Y-62024684D01*
X108941866Y-62024684D02*
X108799009Y-62072303D01*
X108799009Y-62072303D02*
X108227580Y-62643731D01*
X108227580Y-62643731D02*
X108227580Y-62024684D01*
X109227580Y-61405636D02*
X109227580Y-61310398D01*
X109227580Y-61310398D02*
X109179961Y-61215160D01*
X109179961Y-61215160D02*
X109132342Y-61167541D01*
X109132342Y-61167541D02*
X109037104Y-61119922D01*
X109037104Y-61119922D02*
X108846628Y-61072303D01*
X108846628Y-61072303D02*
X108608533Y-61072303D01*
X108608533Y-61072303D02*
X108418057Y-61119922D01*
X108418057Y-61119922D02*
X108322819Y-61167541D01*
X108322819Y-61167541D02*
X108275200Y-61215160D01*
X108275200Y-61215160D02*
X108227580Y-61310398D01*
X108227580Y-61310398D02*
X108227580Y-61405636D01*
X108227580Y-61405636D02*
X108275200Y-61500874D01*
X108275200Y-61500874D02*
X108322819Y-61548493D01*
X108322819Y-61548493D02*
X108418057Y-61596112D01*
X108418057Y-61596112D02*
X108608533Y-61643731D01*
X108608533Y-61643731D02*
X108846628Y-61643731D01*
X108846628Y-61643731D02*
X109037104Y-61596112D01*
X109037104Y-61596112D02*
X109132342Y-61548493D01*
X109132342Y-61548493D02*
X109179961Y-61500874D01*
X109179961Y-61500874D02*
X109227580Y-61405636D01*
X109132342Y-60691350D02*
X109179961Y-60643731D01*
X109179961Y-60643731D02*
X109227580Y-60548493D01*
X109227580Y-60548493D02*
X109227580Y-60310398D01*
X109227580Y-60310398D02*
X109179961Y-60215160D01*
X109179961Y-60215160D02*
X109132342Y-60167541D01*
X109132342Y-60167541D02*
X109037104Y-60119922D01*
X109037104Y-60119922D02*
X108941866Y-60119922D01*
X108941866Y-60119922D02*
X108799009Y-60167541D01*
X108799009Y-60167541D02*
X108227580Y-60738969D01*
X108227580Y-60738969D02*
X108227580Y-60119922D01*
X109227580Y-59215160D02*
X109227580Y-59691350D01*
X109227580Y-59691350D02*
X108751390Y-59738969D01*
X108751390Y-59738969D02*
X108799009Y-59691350D01*
X108799009Y-59691350D02*
X108846628Y-59596112D01*
X108846628Y-59596112D02*
X108846628Y-59358017D01*
X108846628Y-59358017D02*
X108799009Y-59262779D01*
X108799009Y-59262779D02*
X108751390Y-59215160D01*
X108751390Y-59215160D02*
X108656152Y-59167541D01*
X108656152Y-59167541D02*
X108418057Y-59167541D01*
X108418057Y-59167541D02*
X108322819Y-59215160D01*
X108322819Y-59215160D02*
X108275200Y-59262779D01*
X108275200Y-59262779D02*
X108227580Y-59358017D01*
X108227580Y-59358017D02*
X108227580Y-59596112D01*
X108227580Y-59596112D02*
X108275200Y-59691350D01*
X108275200Y-59691350D02*
X108322819Y-59738969D01*
X108322819Y-58738969D02*
X108275200Y-58691350D01*
X108275200Y-58691350D02*
X108227580Y-58738969D01*
X108227580Y-58738969D02*
X108275200Y-58786588D01*
X108275200Y-58786588D02*
X108322819Y-58738969D01*
X108322819Y-58738969D02*
X108227580Y-58738969D01*
D11*
X92949757Y-69978572D02*
X92878328Y-69835715D01*
X92878328Y-69835715D02*
X92878328Y-69621429D01*
X92878328Y-69621429D02*
X92949757Y-69407143D01*
X92949757Y-69407143D02*
X93092614Y-69264286D01*
X93092614Y-69264286D02*
X93235471Y-69192857D01*
X93235471Y-69192857D02*
X93521185Y-69121429D01*
X93521185Y-69121429D02*
X93735471Y-69121429D01*
X93735471Y-69121429D02*
X94021185Y-69192857D01*
X94021185Y-69192857D02*
X94164042Y-69264286D01*
X94164042Y-69264286D02*
X94306900Y-69407143D01*
X94306900Y-69407143D02*
X94378328Y-69621429D01*
X94378328Y-69621429D02*
X94378328Y-69764286D01*
X94378328Y-69764286D02*
X94306900Y-69978572D01*
X94306900Y-69978572D02*
X94235471Y-70050000D01*
X94235471Y-70050000D02*
X93735471Y-70050000D01*
X93735471Y-70050000D02*
X93735471Y-69764286D01*
X92878328Y-70907143D02*
X93235471Y-70907143D01*
X93092614Y-70550000D02*
X93235471Y-70907143D01*
X93235471Y-70907143D02*
X93092614Y-71264286D01*
X93521185Y-70692857D02*
X93235471Y-70907143D01*
X93235471Y-70907143D02*
X93521185Y-71121429D01*
X92878328Y-72050000D02*
X93235471Y-72050000D01*
X93092614Y-71692857D02*
X93235471Y-72050000D01*
X93235471Y-72050000D02*
X93092614Y-72407143D01*
X93521185Y-71835714D02*
X93235471Y-72050000D01*
X93235471Y-72050000D02*
X93521185Y-72264286D01*
X92878328Y-73192857D02*
X93235471Y-73192857D01*
X93092614Y-72835714D02*
X93235471Y-73192857D01*
X93235471Y-73192857D02*
X93092614Y-73550000D01*
X93521185Y-72978571D02*
X93235471Y-73192857D01*
X93235471Y-73192857D02*
X93521185Y-73407143D01*
D12*
%TO.C,J1-A1*%
X86550000Y-104050000D02*
X86550000Y-106710000D01*
X86550000Y-104050000D02*
X96770000Y-104050000D01*
X86550000Y-106710000D02*
X96770000Y-106710000D01*
X96770000Y-104050000D02*
X96770000Y-106710000D01*
X99370000Y-105380000D02*
X99370000Y-106710000D01*
X99370000Y-106710000D02*
X98040000Y-106710000D01*
%TO.C,J1-B1*%
X86550000Y-101470000D02*
X86550000Y-104130000D01*
X86550000Y-101470000D02*
X96770000Y-101470000D01*
X86550000Y-104130000D02*
X96770000Y-104130000D01*
X96770000Y-101470000D02*
X96770000Y-104130000D01*
X99370000Y-102800000D02*
X99370000Y-104130000D01*
X99370000Y-104130000D02*
X98040000Y-104130000D01*
D13*
%TO.C,G\u002A\u002A\u002A*%
G36*
X88255856Y-90336986D02*
G01*
X88839312Y-90547627D01*
X89287524Y-90873729D01*
X89466667Y-91250041D01*
X89359558Y-91556885D01*
X88972665Y-91777550D01*
X88397094Y-91795051D01*
X87731903Y-91589978D01*
X87293305Y-91302099D01*
X87049387Y-90914533D01*
X87139267Y-90563136D01*
X87572860Y-90326648D01*
X87670980Y-90307056D01*
X88255856Y-90336986D01*
G37*
G36*
X88979099Y-49019382D02*
G01*
X89052960Y-49156616D01*
X89063492Y-49380485D01*
X89063358Y-49399229D01*
X89023904Y-49606266D01*
X88866351Y-49768235D01*
X88521263Y-49915525D01*
X87919199Y-50078526D01*
X86990722Y-50287628D01*
X86345846Y-50425075D01*
X85548666Y-50586711D01*
X84954450Y-50697183D01*
X84658447Y-50738095D01*
X84509823Y-50652320D01*
X84463361Y-50299313D01*
X84508006Y-50143661D01*
X84671956Y-49962671D01*
X85018388Y-49799198D01*
X85618540Y-49622508D01*
X86543651Y-49401870D01*
X86782511Y-49347542D01*
X87743616Y-49132861D01*
X88387820Y-49006966D01*
X88778517Y-48969319D01*
X88979099Y-49019382D01*
G37*
G36*
X88997507Y-80283285D02*
G01*
X89063492Y-80643677D01*
X89063308Y-80673272D01*
X89029733Y-80899225D01*
X88888204Y-81068671D01*
X88566932Y-81215805D01*
X87994132Y-81374821D01*
X87098016Y-81579915D01*
X86566741Y-81698298D01*
X85751613Y-81882947D01*
X85121079Y-82029554D01*
X84779762Y-82114016D01*
X84727429Y-82126964D01*
X84491503Y-82067675D01*
X84426985Y-81695331D01*
X84453209Y-81351137D01*
X84529912Y-81177778D01*
X84561770Y-81174398D01*
X84893541Y-81111705D01*
X85485497Y-80987444D01*
X86233713Y-80824679D01*
X87034267Y-80646476D01*
X87783234Y-80475899D01*
X88376692Y-80336013D01*
X88710715Y-80249884D01*
X88755748Y-80237407D01*
X88997507Y-80283285D01*
G37*
G36*
X85211198Y-77980235D02*
G01*
X85393796Y-78166200D01*
X85434921Y-78632080D01*
X85434921Y-79311779D01*
X86997223Y-78941346D01*
X87452770Y-78833973D01*
X88217835Y-78665235D01*
X88691988Y-78596415D01*
X88944681Y-78629948D01*
X89045365Y-78768270D01*
X89063492Y-79013818D01*
X89063358Y-79032563D01*
X89023904Y-79239599D01*
X88866351Y-79401568D01*
X88521263Y-79548858D01*
X87919199Y-79711859D01*
X86990722Y-79920961D01*
X86344609Y-80058808D01*
X85551184Y-80220249D01*
X84962314Y-80330574D01*
X84672468Y-80371429D01*
X84579565Y-80319312D01*
X84464761Y-79933253D01*
X84426985Y-79161905D01*
X84426996Y-79119510D01*
X84439115Y-78466885D01*
X84500850Y-78117935D01*
X84651647Y-77977991D01*
X84930953Y-77952381D01*
X85211198Y-77980235D01*
G37*
G36*
X88177707Y-69557369D02*
G01*
X88660318Y-69888889D01*
X88882803Y-70168906D01*
X89088323Y-70827645D01*
X88971672Y-71524351D01*
X88569222Y-72186097D01*
X87917342Y-72739956D01*
X87052403Y-73112998D01*
X86193218Y-73253125D01*
X85447494Y-73120074D01*
X84835739Y-72670659D01*
X84742705Y-72558517D01*
X84467753Y-71892131D01*
X84488503Y-71143021D01*
X84807054Y-70472125D01*
X84980555Y-70273468D01*
X85237031Y-70127996D01*
X85505144Y-70266692D01*
X85643361Y-70395048D01*
X85713623Y-70627042D01*
X85523676Y-70987702D01*
X85315969Y-71482677D01*
X85401877Y-71907469D01*
X85773779Y-72159991D01*
X86377463Y-72206272D01*
X87158715Y-72012336D01*
X87520150Y-71850455D01*
X88044764Y-71443995D01*
X88201535Y-70987663D01*
X87972932Y-70513728D01*
X87751449Y-70210163D01*
X87645528Y-69788676D01*
X87813529Y-69547522D01*
X88177707Y-69557369D01*
G37*
G36*
X88681794Y-62833503D02*
G01*
X88886643Y-62879971D01*
X89001717Y-63068793D01*
X89052255Y-63486828D01*
X89063492Y-64220933D01*
X89051875Y-64923338D01*
X88997685Y-65377871D01*
X88875594Y-65610204D01*
X88660318Y-65713966D01*
X88586057Y-65731274D01*
X88324319Y-65684996D01*
X88257143Y-65334302D01*
X88221204Y-65021914D01*
X88105953Y-64852186D01*
X87996904Y-64866148D01*
X87653810Y-64933369D01*
X87049102Y-65064846D01*
X86139207Y-65270124D01*
X84880556Y-65558747D01*
X84761374Y-65582355D01*
X84492026Y-65528148D01*
X84426985Y-65175664D01*
X84431561Y-65059722D01*
X84507058Y-64842849D01*
X84738316Y-64680762D01*
X85205627Y-64531104D01*
X85989286Y-64351518D01*
X86889063Y-64155894D01*
X87560360Y-63995508D01*
X87965771Y-63862483D01*
X88172342Y-63726433D01*
X88247117Y-63556973D01*
X88257143Y-63323717D01*
X88341103Y-62955070D01*
X88660318Y-62833334D01*
X88681794Y-62833503D01*
G37*
G36*
X88316173Y-50713591D02*
G01*
X88671827Y-51068861D01*
X88950695Y-51552037D01*
X89063492Y-52056367D01*
X88976711Y-52592144D01*
X88583949Y-53284535D01*
X87956741Y-53838422D01*
X87186004Y-54213951D01*
X86362655Y-54371269D01*
X85577611Y-54270524D01*
X84921790Y-53871862D01*
X84610545Y-53457451D01*
X84439995Y-52715769D01*
X84655877Y-51867401D01*
X84682679Y-51810552D01*
X85008914Y-51363515D01*
X85346782Y-51271361D01*
X85640526Y-51551952D01*
X85738755Y-51804630D01*
X85657185Y-51947619D01*
X85531309Y-51992369D01*
X85355976Y-52287699D01*
X85314926Y-52706125D01*
X85442950Y-53066023D01*
X85645709Y-53223120D01*
X86209202Y-53345577D01*
X86905258Y-53254921D01*
X87601985Y-52957765D01*
X87913324Y-52718678D01*
X88211530Y-52286619D01*
X88234211Y-51885813D01*
X87954762Y-51617344D01*
X87707680Y-51348534D01*
X87671149Y-50944389D01*
X87868892Y-50628079D01*
X87973018Y-50592978D01*
X88316173Y-50713591D01*
G37*
G36*
X87827580Y-73573854D02*
G01*
X88505195Y-73917865D01*
X88921668Y-74561925D01*
X89063492Y-75490849D01*
X89063492Y-76474626D01*
X87098016Y-76912265D01*
X86563078Y-77028503D01*
X85749542Y-77193696D01*
X85692080Y-77204043D01*
X85120375Y-77306988D01*
X84779762Y-77348762D01*
X84593034Y-77301650D01*
X84462112Y-77048459D01*
X84427298Y-76490873D01*
X84461091Y-75987477D01*
X84463787Y-75978814D01*
X85414701Y-75978814D01*
X85466104Y-76250510D01*
X85692080Y-76284137D01*
X85903901Y-76221342D01*
X86431371Y-76092758D01*
X87103191Y-75945896D01*
X87125260Y-75941303D01*
X87812785Y-75770765D01*
X88158030Y-75584130D01*
X88217691Y-75319586D01*
X88048463Y-74915319D01*
X87757380Y-74646395D01*
X87209352Y-74527892D01*
X86568068Y-74627419D01*
X85966075Y-74943203D01*
X85743020Y-75174396D01*
X85514723Y-75582345D01*
X85414701Y-75978814D01*
X84463787Y-75978814D01*
X84775832Y-74976023D01*
X85384945Y-74196727D01*
X86244050Y-73695380D01*
X87308767Y-73517774D01*
X87827580Y-73573854D01*
G37*
G36*
X85160849Y-90552695D02*
G01*
X85120372Y-90931474D01*
X85093330Y-91480128D01*
X85213580Y-92093477D01*
X85273412Y-92279764D01*
X85323910Y-92765050D01*
X85129409Y-93205293D01*
X85074355Y-93291500D01*
X84938033Y-93606825D01*
X84982735Y-93940599D01*
X85220409Y-94457205D01*
X85325432Y-94650196D01*
X85636889Y-95110082D01*
X85891488Y-95343599D01*
X85991719Y-95428636D01*
X86054596Y-95659330D01*
X86061882Y-96094404D01*
X86014105Y-96798911D01*
X85911796Y-97837906D01*
X85818988Y-98738689D01*
X85728522Y-99660478D01*
X85661384Y-100393825D01*
X85627650Y-100832540D01*
X85595349Y-101437302D01*
X85419728Y-100832540D01*
X85336988Y-100518081D01*
X85178069Y-99826769D01*
X85022841Y-99068651D01*
X84891151Y-98443563D01*
X84752108Y-98083710D01*
X84547544Y-97937279D01*
X84211105Y-97909524D01*
X83798956Y-97842015D01*
X83625883Y-97657540D01*
X83637139Y-97463254D01*
X83710028Y-96839297D01*
X83837197Y-95998332D01*
X84003852Y-95017242D01*
X84195199Y-93972910D01*
X84396442Y-92942216D01*
X84592787Y-92002044D01*
X84769439Y-91229276D01*
X84911604Y-90700793D01*
X85004486Y-90493479D01*
X85160849Y-90552695D01*
G37*
G36*
X88289404Y-41119946D02*
G01*
X88661839Y-41462386D01*
X88948676Y-41996784D01*
X89063492Y-42589317D01*
X88972455Y-43131161D01*
X88569636Y-43810694D01*
X87928743Y-44344157D01*
X87141805Y-44694794D01*
X86300854Y-44825848D01*
X85497919Y-44700560D01*
X84825032Y-44282174D01*
X84708939Y-44143246D01*
X84464653Y-43512329D01*
X84471050Y-42781164D01*
X84735309Y-42122530D01*
X84909213Y-41944078D01*
X85459227Y-41615787D01*
X86149286Y-41365537D01*
X86807226Y-41264617D01*
X86852400Y-41271147D01*
X87009100Y-41491254D01*
X87044595Y-41920014D01*
X86975904Y-42415647D01*
X86820049Y-42836377D01*
X86594048Y-43040423D01*
X86349860Y-43010733D01*
X86241270Y-42689385D01*
X86180137Y-42375250D01*
X85943895Y-42302797D01*
X85550114Y-42588209D01*
X85265241Y-42989270D01*
X85244828Y-43392327D01*
X85507789Y-43685254D01*
X85990684Y-43833954D01*
X86630075Y-43804333D01*
X87362521Y-43562294D01*
X87527033Y-43477163D01*
X88037909Y-43048154D01*
X88192100Y-42566431D01*
X87968072Y-42084548D01*
X87892298Y-41983933D01*
X87766344Y-41582366D01*
X87833853Y-41219688D01*
X88077124Y-41061905D01*
X88289404Y-41119946D01*
G37*
G36*
X86245783Y-54817263D02*
G01*
X87400397Y-54901722D01*
X88202360Y-54968546D01*
X88700119Y-55039006D01*
X88955777Y-55145742D01*
X89050009Y-55322840D01*
X89063492Y-55604385D01*
X89056879Y-55749017D01*
X88986360Y-55980914D01*
X88789817Y-56205544D01*
X88407784Y-56468122D01*
X87780797Y-56813868D01*
X86849390Y-57287999D01*
X86799248Y-57313133D01*
X86217650Y-57601779D01*
X85948186Y-57735514D01*
X85237832Y-58080489D01*
X84741158Y-58313107D01*
X84531136Y-58398413D01*
X84413426Y-58294849D01*
X84432964Y-57983758D01*
X84586507Y-57615096D01*
X84830159Y-57343694D01*
X85102756Y-57052350D01*
X85233334Y-56415970D01*
X85230650Y-56283055D01*
X85207056Y-56180953D01*
X86039683Y-56180953D01*
X86054151Y-56343714D01*
X86217650Y-56544255D01*
X86600481Y-56490001D01*
X87249207Y-56180953D01*
X87954762Y-55794677D01*
X86997223Y-55786228D01*
X86836885Y-55785671D01*
X86326622Y-55817098D01*
X86094575Y-55934972D01*
X86039683Y-56180953D01*
X85207056Y-56180953D01*
X85126512Y-55832405D01*
X84830159Y-55634600D01*
X84597248Y-55504230D01*
X84426985Y-55149505D01*
X84460186Y-54966882D01*
X84599664Y-54846525D01*
X84904420Y-54784747D01*
X85433459Y-54776632D01*
X86245783Y-54817263D01*
G37*
G36*
X102722088Y-51751982D02*
G01*
X102747126Y-51996825D01*
X102764760Y-52528905D01*
X102771429Y-53249401D01*
X102771429Y-54752769D01*
X101410715Y-55151680D01*
X101254187Y-55197441D01*
X100468549Y-55425264D01*
X99441845Y-55721055D01*
X98289511Y-56051613D01*
X97126985Y-56383737D01*
X96235704Y-56646281D01*
X95017683Y-57047940D01*
X94186589Y-57390312D01*
X93735340Y-57676096D01*
X93536352Y-57910947D01*
X93209720Y-58678884D01*
X93177246Y-59564742D01*
X93451983Y-60441173D01*
X93834153Y-61173615D01*
X93140447Y-61727137D01*
X93092042Y-61765538D01*
X92488287Y-62176244D01*
X92063752Y-62265150D01*
X91741484Y-62018422D01*
X91444528Y-61422222D01*
X91436942Y-61403025D01*
X91204959Y-60482739D01*
X91109846Y-59364745D01*
X91147159Y-58194766D01*
X91312454Y-57118526D01*
X91601287Y-56281746D01*
X91851281Y-55856196D01*
X92196679Y-55428542D01*
X92647457Y-55048634D01*
X93251387Y-54692820D01*
X94056245Y-54337446D01*
X95109804Y-53958859D01*
X96459837Y-53533408D01*
X98154119Y-53037438D01*
X98931812Y-52814933D01*
X100136103Y-52471363D01*
X101171432Y-52177225D01*
X101983160Y-51947982D01*
X102516651Y-51799097D01*
X102717266Y-51746032D01*
X102722088Y-51751982D01*
G37*
G36*
X88573037Y-58305229D02*
G01*
X88931872Y-58906876D01*
X89063492Y-59792976D01*
X89063492Y-60784364D01*
X87387007Y-61153936D01*
X87098016Y-61217643D01*
X86553267Y-61338572D01*
X85770241Y-61515643D01*
X85186859Y-61651673D01*
X84900264Y-61724270D01*
X84824217Y-61740804D01*
X84547487Y-61677116D01*
X84485927Y-61563679D01*
X84426985Y-61189420D01*
X84446315Y-61061216D01*
X84677820Y-60836731D01*
X85233334Y-60693285D01*
X85750347Y-60547983D01*
X86017355Y-60320555D01*
X85935419Y-60083431D01*
X85485318Y-59897321D01*
X85030677Y-59791592D01*
X84938884Y-59759529D01*
X87074854Y-59759529D01*
X87124693Y-60114750D01*
X87387007Y-60209612D01*
X87731861Y-60163633D01*
X88135025Y-59907168D01*
X88223821Y-59482987D01*
X88092926Y-59238816D01*
X87649621Y-59103969D01*
X87540533Y-59107506D01*
X87213307Y-59242806D01*
X87084626Y-59658334D01*
X87074854Y-59759529D01*
X84938884Y-59759529D01*
X84629903Y-59651603D01*
X84461367Y-59471274D01*
X84426985Y-59184546D01*
X84428380Y-59105870D01*
X84494593Y-58878910D01*
X84739369Y-58811384D01*
X85271365Y-58861757D01*
X85724950Y-58899533D01*
X86220436Y-58806682D01*
X86697943Y-58485125D01*
X87389888Y-58074803D01*
X88041029Y-58017912D01*
X88573037Y-58305229D01*
G37*
G36*
X88934218Y-44959004D02*
G01*
X89034305Y-45097165D01*
X89027116Y-45332606D01*
X88986576Y-45485551D01*
X88795855Y-45703822D01*
X88380191Y-45883703D01*
X87652381Y-46072100D01*
X86342064Y-46371052D01*
X87702778Y-46769265D01*
X88344649Y-46969679D01*
X88798533Y-47164979D01*
X89010885Y-47367491D01*
X89063492Y-47628885D01*
X88996452Y-47927682D01*
X88710715Y-48197503D01*
X88655825Y-48213175D01*
X88239758Y-48316993D01*
X87591691Y-48468033D01*
X86815755Y-48643262D01*
X86016078Y-48819646D01*
X85296789Y-48974152D01*
X84762017Y-49083747D01*
X84515892Y-49125397D01*
X84456807Y-49024016D01*
X84463361Y-48671826D01*
X84507401Y-48503601D01*
X84698213Y-48283554D01*
X85111460Y-48100971D01*
X85835209Y-47906737D01*
X85898632Y-47891585D01*
X86555100Y-47720230D01*
X86860669Y-47581052D01*
X86805471Y-47440800D01*
X86379642Y-47266222D01*
X85573316Y-47024067D01*
X85132585Y-46890850D01*
X84676169Y-46704987D01*
X84481071Y-46509929D01*
X84464586Y-46247769D01*
X84496367Y-46120144D01*
X84643698Y-45928630D01*
X84968721Y-45759429D01*
X85544190Y-45579779D01*
X86442858Y-45356918D01*
X87410916Y-45133647D01*
X88180464Y-44976700D01*
X88668918Y-44918667D01*
X88934218Y-44959004D01*
G37*
G36*
X85135424Y-66409427D02*
G01*
X85669204Y-66449912D01*
X86433573Y-66506843D01*
X87299604Y-66570595D01*
X87419016Y-66579343D01*
X88220048Y-66643900D01*
X88706629Y-66713367D01*
X88957141Y-66818185D01*
X89049968Y-66988796D01*
X89063492Y-67255641D01*
X89058922Y-67367825D01*
X88991982Y-67603038D01*
X88798568Y-67833429D01*
X88419778Y-68104534D01*
X87796709Y-68461891D01*
X86870457Y-68951036D01*
X86827726Y-68973226D01*
X86136397Y-69327950D01*
X85980566Y-69407908D01*
X85269993Y-69763062D01*
X84769405Y-70002610D01*
X84552203Y-70090476D01*
X84471030Y-69972733D01*
X84426985Y-69600093D01*
X84491358Y-69277770D01*
X84830159Y-68981746D01*
X84992261Y-68906984D01*
X85181584Y-68622535D01*
X85228212Y-68116595D01*
X86048804Y-68116595D01*
X86136397Y-68276191D01*
X86204801Y-68260266D01*
X86561353Y-68136114D01*
X87093937Y-67929144D01*
X87954762Y-67582097D01*
X87148413Y-67446888D01*
X86977479Y-67420771D01*
X86469448Y-67375794D01*
X86190873Y-67402658D01*
X86132308Y-67473395D01*
X86051832Y-67778601D01*
X86048804Y-68116595D01*
X85228212Y-68116595D01*
X85233334Y-68061019D01*
X85209902Y-67597556D01*
X85089936Y-67332597D01*
X84816139Y-67268254D01*
X84811374Y-67268246D01*
X84501551Y-67169786D01*
X84463361Y-66814683D01*
X84466637Y-66792794D01*
X84627561Y-66462747D01*
X85031746Y-66401308D01*
X85135424Y-66409427D01*
G37*
G36*
X87198810Y-89949915D02*
G01*
X86914501Y-90053490D01*
X86424517Y-90314020D01*
X86241270Y-90557688D01*
X86215096Y-90691798D01*
X86001154Y-90853969D01*
X85942226Y-90931868D01*
X86152344Y-91149938D01*
X86361924Y-91354598D01*
X86342064Y-91472413D01*
X86343377Y-91531229D01*
X86644445Y-91643978D01*
X86965748Y-91809508D01*
X87120415Y-92127852D01*
X87121787Y-92288278D01*
X87262605Y-92457704D01*
X87565144Y-92271682D01*
X87810341Y-92151939D01*
X88193559Y-92183167D01*
X88501331Y-92367474D01*
X88570431Y-92644350D01*
X88552395Y-92699065D01*
X88555033Y-92811912D01*
X88750932Y-92592573D01*
X88993661Y-92375440D01*
X89305791Y-92305908D01*
X89470446Y-92325175D01*
X89815688Y-92137189D01*
X90048807Y-91735247D01*
X90074823Y-91249790D01*
X89772032Y-90769223D01*
X89067216Y-90299603D01*
X88742504Y-90125030D01*
X88439532Y-89924233D01*
X88429269Y-89846032D01*
X88786792Y-89922136D01*
X89426435Y-90261468D01*
X90121826Y-90815521D01*
X90312380Y-91020797D01*
X90630177Y-91682313D01*
X90613910Y-92366577D01*
X90298122Y-92990828D01*
X89717354Y-93472303D01*
X88906149Y-93728239D01*
X88439489Y-93745220D01*
X87486842Y-93583941D01*
X86591739Y-93217231D01*
X85921889Y-92702723D01*
X85791998Y-92542033D01*
X85448976Y-91804421D01*
X85460071Y-91079820D01*
X85791456Y-90442393D01*
X86409305Y-89966301D01*
X87279789Y-89725703D01*
X88156350Y-89638423D01*
X87198810Y-89949915D01*
G37*
G36*
X92137699Y-41724998D02*
G01*
X92368575Y-41752480D01*
X93024605Y-41822610D01*
X93971990Y-41918768D01*
X95142797Y-42034202D01*
X96469090Y-42162163D01*
X97882937Y-42295900D01*
X102771429Y-42753669D01*
X102771429Y-44596658D01*
X102771429Y-46439647D01*
X97127572Y-50201569D01*
X96137952Y-50860159D01*
X95470647Y-51302539D01*
X94870454Y-51700428D01*
X93740147Y-52446029D01*
X92786607Y-53071050D01*
X92049408Y-53549576D01*
X91568126Y-53855694D01*
X91382334Y-53963492D01*
X91369950Y-53951747D01*
X91324666Y-53682672D01*
X91292921Y-53130688D01*
X91280953Y-52392457D01*
X91280953Y-50821422D01*
X92284889Y-50225394D01*
X93288825Y-49629365D01*
X93292825Y-47282282D01*
X93293183Y-47042780D01*
X93289745Y-46622355D01*
X95312699Y-46622355D01*
X95315800Y-46962035D01*
X95345477Y-47660629D01*
X95399859Y-48130895D01*
X95470647Y-48285450D01*
X95515155Y-48262161D01*
X95844750Y-48069617D01*
X96427162Y-47719594D01*
X97196442Y-47251901D01*
X98086638Y-46706349D01*
X100544681Y-45194445D01*
X99188611Y-45068293D01*
X98542833Y-45015906D01*
X97498057Y-44952185D01*
X96572619Y-44917103D01*
X95312699Y-44892064D01*
X95312699Y-46622355D01*
X93289745Y-46622355D01*
X93285093Y-46053534D01*
X93236205Y-45389721D01*
X93113386Y-44986426D01*
X92883504Y-44778732D01*
X92513426Y-44701721D01*
X91970021Y-44690476D01*
X91280953Y-44690476D01*
X91280953Y-43151171D01*
X91280953Y-41611866D01*
X92137699Y-41724998D01*
G37*
G36*
X89042168Y-81720178D02*
G01*
X89026486Y-82109092D01*
X88953121Y-82378288D01*
X88734643Y-82630931D01*
X88294444Y-82887172D01*
X87551588Y-83207274D01*
X86140477Y-83777317D01*
X87601985Y-83787865D01*
X87648932Y-83788225D01*
X88392653Y-83806873D01*
X88820831Y-83862175D01*
X89016699Y-83975882D01*
X89063492Y-84169740D01*
X89059779Y-84216159D01*
X88893670Y-84471985D01*
X88442287Y-84753196D01*
X87652381Y-85094697D01*
X87523769Y-85145585D01*
X86872853Y-85417867D01*
X86414562Y-85634265D01*
X86241270Y-85751766D01*
X86242690Y-85756275D01*
X86455301Y-85784870D01*
X86958857Y-85769697D01*
X87652381Y-85713492D01*
X89063492Y-85571780D01*
X89063492Y-86096208D01*
X89063492Y-86620635D01*
X86745239Y-86620635D01*
X85878805Y-86619057D01*
X85173112Y-86605041D01*
X84743723Y-86564364D01*
X84521998Y-86482797D01*
X84439298Y-86346112D01*
X84426985Y-86140080D01*
X84437370Y-86001700D01*
X84571402Y-85733347D01*
X84926559Y-85489090D01*
X85586112Y-85201505D01*
X85604815Y-85194110D01*
X86391814Y-84866922D01*
X86800992Y-84647649D01*
X86837645Y-84519261D01*
X86507071Y-84464729D01*
X85814566Y-84467022D01*
X85667016Y-84471116D01*
X85031137Y-84475236D01*
X84690399Y-84423655D01*
X84553160Y-84285141D01*
X84527778Y-84028461D01*
X84527841Y-84018361D01*
X84577756Y-83793548D01*
X84761362Y-83576032D01*
X85138507Y-83325781D01*
X85769041Y-83002765D01*
X86712812Y-82566953D01*
X87563046Y-82186661D01*
X88281267Y-81871881D01*
X88783403Y-81659116D01*
X88994059Y-81580953D01*
X89042168Y-81720178D01*
G37*
G36*
X91807331Y-63248890D02*
G01*
X92351802Y-63295126D01*
X93195216Y-63372811D01*
X94278201Y-63476332D01*
X95541386Y-63600077D01*
X96925397Y-63738434D01*
X97918127Y-63837790D01*
X99234669Y-63966832D01*
X100393834Y-64077317D01*
X101334700Y-64163571D01*
X101996348Y-64219918D01*
X102317858Y-64240686D01*
X102344232Y-64241002D01*
X102546865Y-64268899D01*
X102672585Y-64395274D01*
X102739709Y-64696297D01*
X102766552Y-65248137D01*
X102771429Y-66126966D01*
X102771429Y-68009488D01*
X97127572Y-71771411D01*
X96137952Y-72430000D01*
X95463889Y-72876860D01*
X94870454Y-73270269D01*
X93740147Y-74015871D01*
X92786607Y-74640891D01*
X92049408Y-75119417D01*
X91568126Y-75425536D01*
X91382334Y-75533334D01*
X91369403Y-75520428D01*
X91324377Y-75247308D01*
X91292837Y-74691985D01*
X91280953Y-73950768D01*
X91280953Y-72368202D01*
X92288889Y-71741634D01*
X93296826Y-71115066D01*
X93296826Y-68687692D01*
X93296826Y-68187294D01*
X95312699Y-68187294D01*
X95315663Y-68525349D01*
X95344066Y-69218211D01*
X95396123Y-69680127D01*
X95463889Y-69825021D01*
X95501305Y-69802679D01*
X95818473Y-69609582D01*
X96390638Y-69259438D01*
X97151341Y-68792951D01*
X98034127Y-68250822D01*
X100453175Y-66764286D01*
X99445239Y-66630756D01*
X98726985Y-66561341D01*
X97802044Y-66506848D01*
X96875000Y-66479565D01*
X95312699Y-66461905D01*
X95312699Y-68187294D01*
X93296826Y-68187294D01*
X93296826Y-66260318D01*
X92288889Y-66260318D01*
X91280953Y-66260318D01*
X91280953Y-64748413D01*
X91280974Y-64701330D01*
X91294253Y-63939244D01*
X91344893Y-63495210D01*
X91451763Y-63288460D01*
X91633731Y-63238224D01*
X91807331Y-63248890D01*
G37*
G36*
X101321642Y-74530315D02*
G01*
X101637405Y-74745113D01*
X102043464Y-75141721D01*
X102342306Y-75654483D01*
X102549007Y-76340551D01*
X102678640Y-77257078D01*
X102746280Y-78461215D01*
X102767002Y-80010115D01*
X102771429Y-83378166D01*
X101410715Y-83777840D01*
X101159088Y-83851599D01*
X100133695Y-84149934D01*
X98960572Y-84488500D01*
X98272887Y-84685814D01*
X97699177Y-84850425D01*
X96408972Y-85218836D01*
X95149418Y-85576860D01*
X93979974Y-85907625D01*
X93448016Y-86057131D01*
X92960103Y-86194258D01*
X92149263Y-86419886D01*
X91606917Y-86567636D01*
X91392525Y-86620635D01*
X91349702Y-86504734D01*
X91308946Y-86051690D01*
X91283463Y-85322769D01*
X91272261Y-84389419D01*
X91274348Y-83323089D01*
X91288732Y-82195228D01*
X91300606Y-81678509D01*
X93290426Y-81678509D01*
X93296776Y-82337045D01*
X93347889Y-82809592D01*
X93448016Y-82989325D01*
X93656256Y-82946763D01*
X94152784Y-82814920D01*
X94808731Y-82625327D01*
X96018254Y-82264067D01*
X96079145Y-80981659D01*
X96078916Y-80929041D01*
X98130304Y-80929041D01*
X98175898Y-81399663D01*
X98272887Y-81580953D01*
X98458322Y-81546191D01*
X98938669Y-81426890D01*
X99583204Y-81252007D01*
X100755556Y-80923062D01*
X100755556Y-79583370D01*
X100740177Y-79073266D01*
X100582679Y-78139639D01*
X100251491Y-77565190D01*
X99742376Y-77344673D01*
X99051095Y-77472842D01*
X98737144Y-77725295D01*
X98429846Y-78168386D01*
X98360798Y-78350676D01*
X98251351Y-78879906D01*
X98173084Y-79559291D01*
X98131050Y-80278960D01*
X98130304Y-80929041D01*
X96078916Y-80929041D01*
X96074869Y-80000787D01*
X95920862Y-79186666D01*
X95599387Y-78711500D01*
X95103142Y-78557143D01*
X94493858Y-78609202D01*
X93971012Y-78858435D01*
X93591751Y-79377910D01*
X93497431Y-79655226D01*
X93395005Y-80230774D01*
X93324586Y-80940810D01*
X93290426Y-81678509D01*
X91300606Y-81678509D01*
X91314421Y-81077285D01*
X91350422Y-80040707D01*
X91395744Y-79156943D01*
X91449394Y-78497442D01*
X91510380Y-78133653D01*
X92000244Y-77122533D01*
X92702591Y-76297877D01*
X93541254Y-75723298D01*
X94445083Y-75447347D01*
X95342924Y-75518573D01*
X95348971Y-75520397D01*
X96026197Y-75857365D01*
X96560356Y-76348148D01*
X97001799Y-76945231D01*
X97276833Y-76291119D01*
X97295754Y-76246778D01*
X97880771Y-75277932D01*
X98639038Y-74594364D01*
X99507384Y-74223573D01*
X100422642Y-74193057D01*
X101321642Y-74530315D01*
G37*
G36*
X99093067Y-90643285D02*
G01*
X99588395Y-90907332D01*
X99709693Y-91303578D01*
X99669480Y-91460196D01*
X99498122Y-91685794D01*
X99150799Y-91854176D01*
X99147918Y-91854804D01*
X98570713Y-91980571D01*
X97701066Y-92080213D01*
X96485059Y-92168333D01*
X96104519Y-92194771D01*
X95093479Y-92299030D01*
X94359343Y-92430722D01*
X93965218Y-92579546D01*
X93955124Y-92587384D01*
X93894110Y-92675202D01*
X93987577Y-92742287D01*
X94276971Y-92791402D01*
X94803737Y-92825310D01*
X95609321Y-92846775D01*
X96735168Y-92858561D01*
X98222722Y-92863430D01*
X99694647Y-92866912D01*
X100831782Y-92875914D01*
X101672663Y-92895106D01*
X102270990Y-92929182D01*
X102680465Y-92982833D01*
X102954791Y-93060751D01*
X103147669Y-93167628D01*
X103312802Y-93308156D01*
X103637300Y-93744296D01*
X103779365Y-94210122D01*
X103758036Y-94431673D01*
X103632750Y-94694454D01*
X103357878Y-94900903D01*
X103328672Y-94910872D01*
X102891155Y-95060206D01*
X102190317Y-95181551D01*
X101213100Y-95274122D01*
X100150794Y-95333953D01*
X99917238Y-95347107D01*
X98260469Y-95409691D01*
X97244250Y-95445007D01*
X96824604Y-95463455D01*
X95949834Y-95501911D01*
X95008242Y-95566172D01*
X94388657Y-95644587D01*
X94060262Y-95743948D01*
X93992241Y-95871049D01*
X94153778Y-96032686D01*
X94514054Y-96235651D01*
X94789683Y-96321788D01*
X95402701Y-96387656D01*
X96334031Y-96399175D01*
X97624475Y-96357952D01*
X97748663Y-96352395D01*
X98821950Y-96312568D01*
X99567167Y-96307524D01*
X100051753Y-96341630D01*
X100343146Y-96419255D01*
X100508787Y-96544766D01*
X100652796Y-96843590D01*
X100572437Y-97288562D01*
X100217991Y-97580123D01*
X100185604Y-97606764D01*
X100104030Y-97627335D01*
X99651680Y-97684829D01*
X98910223Y-97745863D01*
X97961086Y-97804332D01*
X96885698Y-97854132D01*
X95920757Y-97886249D01*
X94836201Y-97890954D01*
X94050580Y-97830059D01*
X93503308Y-97684839D01*
X93133796Y-97436565D01*
X92881456Y-97066511D01*
X92707885Y-96613808D01*
X99672627Y-96613808D01*
X99958375Y-96860530D01*
X100217991Y-96981997D01*
X100352381Y-96896969D01*
X100313805Y-96781369D01*
X100041306Y-96567976D01*
X99725160Y-96499138D01*
X99672627Y-96613808D01*
X92707885Y-96613808D01*
X92685702Y-96555950D01*
X92638598Y-96413200D01*
X92451047Y-95918751D01*
X92308054Y-95644866D01*
X92222022Y-95611633D01*
X91793320Y-95536340D01*
X91074591Y-95448703D01*
X90138224Y-95357075D01*
X89056612Y-95269804D01*
X89033503Y-95268120D01*
X87838136Y-95176078D01*
X86978731Y-95093664D01*
X86389780Y-95008437D01*
X86005779Y-94907954D01*
X85761219Y-94779771D01*
X85590594Y-94611446D01*
X85377882Y-94306599D01*
X85255738Y-93805249D01*
X85461457Y-93223433D01*
X85554207Y-93060410D01*
X85723392Y-92921510D01*
X85920172Y-93112535D01*
X86069234Y-93254215D01*
X86591677Y-93543433D01*
X87303443Y-93809268D01*
X88065092Y-94003865D01*
X88737185Y-94079365D01*
X89189877Y-94033409D01*
X89436240Y-93959252D01*
X99740820Y-93959252D01*
X99784043Y-94011579D01*
X100150794Y-94032597D01*
X100287568Y-94030647D01*
X100566311Y-93998836D01*
X100503572Y-93940406D01*
X100309288Y-93909055D01*
X99798016Y-93940406D01*
X99740820Y-93959252D01*
X89436240Y-93959252D01*
X89871616Y-93828201D01*
X89990554Y-93763239D01*
X95179459Y-93763239D01*
X95416752Y-93782361D01*
X95976339Y-93795011D01*
X96824604Y-93799453D01*
X97215842Y-93798492D01*
X97929561Y-93790060D01*
X98331062Y-93774365D01*
X98390027Y-93753135D01*
X98076141Y-93728100D01*
X97415081Y-93705637D01*
X96373020Y-93701210D01*
X95455506Y-93728741D01*
X95298072Y-93739381D01*
X95179459Y-93763239D01*
X89990554Y-93763239D01*
X90440186Y-93517658D01*
X90750991Y-93167269D01*
X90760823Y-93157555D01*
X97828191Y-93157555D01*
X98063595Y-93192125D01*
X98604638Y-93221193D01*
X99401316Y-93240755D01*
X99860427Y-93251395D01*
X101157932Y-93342120D01*
X102111806Y-93525531D01*
X102761856Y-93811941D01*
X103147886Y-94211668D01*
X103183188Y-94271328D01*
X103328672Y-94446399D01*
X103370061Y-94269085D01*
X103315416Y-93999489D01*
X103090387Y-93563530D01*
X102981475Y-93440818D01*
X102737054Y-93298275D01*
X102333098Y-93205287D01*
X101688396Y-93146138D01*
X100721736Y-93105109D01*
X100149801Y-93090484D01*
X99218567Y-93082040D01*
X98437672Y-93093234D01*
X97933334Y-93123245D01*
X97828191Y-93157555D01*
X90760823Y-93157555D01*
X90945247Y-92975336D01*
X91372714Y-92869842D01*
X91551504Y-92855231D01*
X91896153Y-92658666D01*
X92178135Y-92157031D01*
X92186052Y-92138316D01*
X92496610Y-91641203D01*
X92983768Y-91260504D01*
X93703967Y-90973482D01*
X93707859Y-90972649D01*
X95211905Y-90972649D01*
X96824604Y-91016855D01*
X96967999Y-91021162D01*
X97796400Y-91059812D01*
X98500657Y-91113845D01*
X98941270Y-91172972D01*
X99147918Y-91215612D01*
X99292186Y-91209866D01*
X99096237Y-91061522D01*
X99080618Y-91052287D01*
X98663392Y-90948384D01*
X97935182Y-90897369D01*
X96979571Y-90905405D01*
X95211905Y-90972649D01*
X93707859Y-90972649D01*
X94713651Y-90757398D01*
X96069263Y-90589517D01*
X97009725Y-90517558D01*
X98231060Y-90512880D01*
X99093067Y-90643285D01*
G37*
%TD*%
M02*
