%TF.GenerationSoftware,KiCad,Pcbnew,8.0.6*%
%TF.CreationDate,2025-02-23T20:14:06-07:00*%
%TF.ProjectId,Dash Indicators (Right),44617368-2049-46e6-9469-6361746f7273,rev?*%
%TF.SameCoordinates,Original*%
%TF.FileFunction,Soldermask,Top*%
%TF.FilePolarity,Negative*%
%FSLAX46Y46*%
G04 Gerber Fmt 4.6, Leading zero omitted, Abs format (unit mm)*
G04 Created by KiCad (PCBNEW 8.0.6) date 2025-02-23 20:14:06*
%MOMM*%
%LPD*%
G01*
G04 APERTURE LIST*
%ADD10R,1.800000X1.800000*%
%ADD11C,1.800000*%
%ADD12C,3.200000*%
%ADD13R,1.700000X1.700000*%
%ADD14O,1.700000X1.700000*%
G04 APERTURE END LIST*
D10*
%TO.C,D13*%
X85725000Y-64850000D03*
D11*
X88265000Y-64850000D03*
%TD*%
D10*
%TO.C,D8*%
X97525000Y-79850000D03*
D11*
X100065000Y-79850000D03*
%TD*%
D12*
%TO.C,REF\u002A\u002A*%
X69900000Y-30100000D03*
%TD*%
D10*
%TO.C,D3*%
X85725000Y-72350000D03*
D11*
X88265000Y-72350000D03*
%TD*%
D10*
%TO.C,D14*%
X97525000Y-64850000D03*
D11*
X100065000Y-64850000D03*
%TD*%
D12*
%TO.C,REF\u002A\u002A*%
X115900000Y-30100000D03*
%TD*%
D10*
%TO.C,D16*%
X97525000Y-94850000D03*
D11*
X100065000Y-94850000D03*
%TD*%
D10*
%TO.C,D4*%
X97525000Y-72350000D03*
D11*
X100065000Y-72350000D03*
%TD*%
D10*
%TO.C,D10*%
X97525000Y-57350000D03*
D11*
X100065000Y-57350000D03*
%TD*%
D10*
%TO.C,D9*%
X85725000Y-57350000D03*
D11*
X88265000Y-57350000D03*
%TD*%
D10*
%TO.C,D11*%
X85725000Y-87350000D03*
D11*
X88265000Y-87350000D03*
%TD*%
D10*
%TO.C,D2*%
X97525000Y-42350000D03*
D11*
X100065000Y-42350000D03*
%TD*%
D12*
%TO.C,REF\u002A\u002A*%
X69900000Y-107100000D03*
%TD*%
D10*
%TO.C,D12*%
X97525000Y-87350000D03*
D11*
X100065000Y-87350000D03*
%TD*%
D10*
%TO.C,D15*%
X85725000Y-94850000D03*
D11*
X88265000Y-94850000D03*
%TD*%
D10*
%TO.C,D1*%
X85725000Y-42350000D03*
D11*
X88265000Y-42350000D03*
%TD*%
D10*
%TO.C,D7*%
X85725000Y-79850000D03*
D11*
X88265000Y-79850000D03*
%TD*%
D12*
%TO.C,REF\u002A\u002A*%
X115900000Y-107100000D03*
%TD*%
D10*
%TO.C,D5*%
X85725000Y-49850000D03*
D11*
X88265000Y-49850000D03*
%TD*%
D10*
%TO.C,D6*%
X97525000Y-49850000D03*
D11*
X100065000Y-49850000D03*
%TD*%
D13*
%TO.C,J1-A1*%
X98040000Y-105380000D03*
D14*
X95500000Y-105380000D03*
X92960000Y-105380000D03*
X90420000Y-105380000D03*
X87880000Y-105380000D03*
%TD*%
D13*
%TO.C,J1-B1*%
X98040000Y-102800000D03*
D14*
X95500000Y-102800000D03*
X92960000Y-102800000D03*
X90420000Y-102800000D03*
X87880000Y-102800000D03*
%TD*%
M02*
