%TF.GenerationSoftware,KiCad,Pcbnew,9.0.1*%
%TF.CreationDate,2025-08-30T11:13:21-07:00*%
%TF.ProjectId,CAN Integration,43414e20-496e-4746-9567-726174696f6e,rev?*%
%TF.SameCoordinates,Original*%
%TF.FileFunction,Legend,Top*%
%TF.FilePolarity,Positive*%
%FSLAX46Y46*%
G04 Gerber Fmt 4.6, Leading zero omitted, Abs format (unit mm)*
G04 Created by KiCad (PCBNEW 9.0.1) date 2025-08-30 11:13:21*
%MOMM*%
%LPD*%
G01*
G04 APERTURE LIST*
%ADD10C,0.127000*%
%ADD11C,0.254000*%
%ADD12C,0.200000*%
%ADD13C,0.152400*%
%ADD14C,0.300000*%
%ADD15C,0.152000*%
%ADD16C,0.101600*%
G04 APERTURE END LIST*
D10*
X140283490Y-92488640D02*
X140283490Y-92172580D01*
X138022890Y-92488640D02*
X138022890Y-92290880D01*
X138022890Y-92172580D02*
X140283490Y-92172580D01*
X138022890Y-92290880D02*
X140277680Y-92290880D01*
X140277680Y-92405400D02*
X140277680Y-92290880D01*
X138049280Y-92367680D02*
X140255430Y-92367680D01*
X138022890Y-92488640D02*
X138022890Y-92172580D01*
D11*
X141295365Y-88390670D02*
X140095365Y-88790670D01*
X140095365Y-88790670D02*
X141295365Y-89190670D01*
X140209650Y-90276384D02*
X140152508Y-90219241D01*
X140152508Y-90219241D02*
X140095365Y-90047813D01*
X140095365Y-90047813D02*
X140095365Y-89933527D01*
X140095365Y-89933527D02*
X140152508Y-89762098D01*
X140152508Y-89762098D02*
X140266793Y-89647813D01*
X140266793Y-89647813D02*
X140381079Y-89590670D01*
X140381079Y-89590670D02*
X140609650Y-89533527D01*
X140609650Y-89533527D02*
X140781079Y-89533527D01*
X140781079Y-89533527D02*
X141009650Y-89590670D01*
X141009650Y-89590670D02*
X141123936Y-89647813D01*
X141123936Y-89647813D02*
X141238222Y-89762098D01*
X141238222Y-89762098D02*
X141295365Y-89933527D01*
X141295365Y-89933527D02*
X141295365Y-90047813D01*
X141295365Y-90047813D02*
X141238222Y-90219241D01*
X141238222Y-90219241D02*
X141181079Y-90276384D01*
X140209650Y-91476384D02*
X140152508Y-91419241D01*
X140152508Y-91419241D02*
X140095365Y-91247813D01*
X140095365Y-91247813D02*
X140095365Y-91133527D01*
X140095365Y-91133527D02*
X140152508Y-90962098D01*
X140152508Y-90962098D02*
X140266793Y-90847813D01*
X140266793Y-90847813D02*
X140381079Y-90790670D01*
X140381079Y-90790670D02*
X140609650Y-90733527D01*
X140609650Y-90733527D02*
X140781079Y-90733527D01*
X140781079Y-90733527D02*
X141009650Y-90790670D01*
X141009650Y-90790670D02*
X141123936Y-90847813D01*
X141123936Y-90847813D02*
X141238222Y-90962098D01*
X141238222Y-90962098D02*
X141295365Y-91133527D01*
X141295365Y-91133527D02*
X141295365Y-91247813D01*
X141295365Y-91247813D02*
X141238222Y-91419241D01*
X141238222Y-91419241D02*
X141181079Y-91476384D01*
X143845432Y-89190670D02*
X143902575Y-89076385D01*
X143902575Y-89076385D02*
X143902575Y-88904956D01*
X143902575Y-88904956D02*
X143845432Y-88733527D01*
X143845432Y-88733527D02*
X143731146Y-88619242D01*
X143731146Y-88619242D02*
X143616860Y-88562099D01*
X143616860Y-88562099D02*
X143388289Y-88504956D01*
X143388289Y-88504956D02*
X143216860Y-88504956D01*
X143216860Y-88504956D02*
X142988289Y-88562099D01*
X142988289Y-88562099D02*
X142874003Y-88619242D01*
X142874003Y-88619242D02*
X142759718Y-88733527D01*
X142759718Y-88733527D02*
X142702575Y-88904956D01*
X142702575Y-88904956D02*
X142702575Y-89019242D01*
X142702575Y-89019242D02*
X142759718Y-89190670D01*
X142759718Y-89190670D02*
X142816860Y-89247813D01*
X142816860Y-89247813D02*
X143216860Y-89247813D01*
X143216860Y-89247813D02*
X143216860Y-89019242D01*
X142702575Y-89762099D02*
X143902575Y-89762099D01*
X143902575Y-89762099D02*
X142702575Y-90447813D01*
X142702575Y-90447813D02*
X143902575Y-90447813D01*
X142702575Y-91019242D02*
X143902575Y-91019242D01*
X143902575Y-91019242D02*
X143902575Y-91304956D01*
X143902575Y-91304956D02*
X143845432Y-91476385D01*
X143845432Y-91476385D02*
X143731146Y-91590670D01*
X143731146Y-91590670D02*
X143616860Y-91647813D01*
X143616860Y-91647813D02*
X143388289Y-91704956D01*
X143388289Y-91704956D02*
X143216860Y-91704956D01*
X143216860Y-91704956D02*
X142988289Y-91647813D01*
X142988289Y-91647813D02*
X142874003Y-91590670D01*
X142874003Y-91590670D02*
X142759718Y-91476385D01*
X142759718Y-91476385D02*
X142702575Y-91304956D01*
X142702575Y-91304956D02*
X142702575Y-91019242D01*
X152657402Y-116772433D02*
X152657402Y-115248433D01*
X152657402Y-115974147D02*
X153528259Y-115974147D01*
X153528259Y-116772433D02*
X153528259Y-115248433D01*
X145545796Y-116772433D02*
X144820082Y-116772433D01*
X144820082Y-116772433D02*
X144820082Y-115248433D01*
X145424070Y-89247813D02*
X145366928Y-89190670D01*
X145366928Y-89190670D02*
X145309785Y-89019242D01*
X145309785Y-89019242D02*
X145309785Y-88904956D01*
X145309785Y-88904956D02*
X145366928Y-88733527D01*
X145366928Y-88733527D02*
X145481213Y-88619242D01*
X145481213Y-88619242D02*
X145595499Y-88562099D01*
X145595499Y-88562099D02*
X145824070Y-88504956D01*
X145824070Y-88504956D02*
X145995499Y-88504956D01*
X145995499Y-88504956D02*
X146224070Y-88562099D01*
X146224070Y-88562099D02*
X146338356Y-88619242D01*
X146338356Y-88619242D02*
X146452642Y-88733527D01*
X146452642Y-88733527D02*
X146509785Y-88904956D01*
X146509785Y-88904956D02*
X146509785Y-89019242D01*
X146509785Y-89019242D02*
X146452642Y-89190670D01*
X146452642Y-89190670D02*
X146395499Y-89247813D01*
X145366928Y-89704956D02*
X145309785Y-89876385D01*
X145309785Y-89876385D02*
X145309785Y-90162099D01*
X145309785Y-90162099D02*
X145366928Y-90276385D01*
X145366928Y-90276385D02*
X145424070Y-90333527D01*
X145424070Y-90333527D02*
X145538356Y-90390670D01*
X145538356Y-90390670D02*
X145652642Y-90390670D01*
X145652642Y-90390670D02*
X145766928Y-90333527D01*
X145766928Y-90333527D02*
X145824070Y-90276385D01*
X145824070Y-90276385D02*
X145881213Y-90162099D01*
X145881213Y-90162099D02*
X145938356Y-89933527D01*
X145938356Y-89933527D02*
X145995499Y-89819242D01*
X145995499Y-89819242D02*
X146052642Y-89762099D01*
X146052642Y-89762099D02*
X146166928Y-89704956D01*
X146166928Y-89704956D02*
X146281213Y-89704956D01*
X146281213Y-89704956D02*
X146395499Y-89762099D01*
X146395499Y-89762099D02*
X146452642Y-89819242D01*
X146452642Y-89819242D02*
X146509785Y-89933527D01*
X146509785Y-89933527D02*
X146509785Y-90219242D01*
X146509785Y-90219242D02*
X146452642Y-90390670D01*
X147974128Y-88504956D02*
X147916985Y-88676385D01*
X147916985Y-88676385D02*
X147916985Y-88962099D01*
X147916985Y-88962099D02*
X147974128Y-89076385D01*
X147974128Y-89076385D02*
X148031270Y-89133527D01*
X148031270Y-89133527D02*
X148145556Y-89190670D01*
X148145556Y-89190670D02*
X148259842Y-89190670D01*
X148259842Y-89190670D02*
X148374128Y-89133527D01*
X148374128Y-89133527D02*
X148431270Y-89076385D01*
X148431270Y-89076385D02*
X148488413Y-88962099D01*
X148488413Y-88962099D02*
X148545556Y-88733527D01*
X148545556Y-88733527D02*
X148602699Y-88619242D01*
X148602699Y-88619242D02*
X148659842Y-88562099D01*
X148659842Y-88562099D02*
X148774128Y-88504956D01*
X148774128Y-88504956D02*
X148888413Y-88504956D01*
X148888413Y-88504956D02*
X149002699Y-88562099D01*
X149002699Y-88562099D02*
X149059842Y-88619242D01*
X149059842Y-88619242D02*
X149116985Y-88733527D01*
X149116985Y-88733527D02*
X149116985Y-89019242D01*
X149116985Y-89019242D02*
X149059842Y-89190670D01*
X149116985Y-89933527D02*
X149116985Y-90162099D01*
X149116985Y-90162099D02*
X149059842Y-90276384D01*
X149059842Y-90276384D02*
X148945556Y-90390670D01*
X148945556Y-90390670D02*
X148716985Y-90447813D01*
X148716985Y-90447813D02*
X148316985Y-90447813D01*
X148316985Y-90447813D02*
X148088413Y-90390670D01*
X148088413Y-90390670D02*
X147974128Y-90276384D01*
X147974128Y-90276384D02*
X147916985Y-90162099D01*
X147916985Y-90162099D02*
X147916985Y-89933527D01*
X147916985Y-89933527D02*
X147974128Y-89819242D01*
X147974128Y-89819242D02*
X148088413Y-89704956D01*
X148088413Y-89704956D02*
X148316985Y-89647813D01*
X148316985Y-89647813D02*
X148716985Y-89647813D01*
X148716985Y-89647813D02*
X148945556Y-89704956D01*
X148945556Y-89704956D02*
X149059842Y-89819242D01*
X149059842Y-89819242D02*
X149116985Y-89933527D01*
X155738615Y-88562099D02*
X156938615Y-88562099D01*
X155738615Y-89133528D02*
X156938615Y-89133528D01*
X156938615Y-89133528D02*
X155738615Y-89819242D01*
X155738615Y-89819242D02*
X156938615Y-89819242D01*
X156938615Y-90219242D02*
X156938615Y-90904957D01*
X155738615Y-90562099D02*
X156938615Y-90562099D01*
X150581338Y-88504956D02*
X150524195Y-88676385D01*
X150524195Y-88676385D02*
X150524195Y-88962099D01*
X150524195Y-88962099D02*
X150581338Y-89076385D01*
X150581338Y-89076385D02*
X150638480Y-89133527D01*
X150638480Y-89133527D02*
X150752766Y-89190670D01*
X150752766Y-89190670D02*
X150867052Y-89190670D01*
X150867052Y-89190670D02*
X150981338Y-89133527D01*
X150981338Y-89133527D02*
X151038480Y-89076385D01*
X151038480Y-89076385D02*
X151095623Y-88962099D01*
X151095623Y-88962099D02*
X151152766Y-88733527D01*
X151152766Y-88733527D02*
X151209909Y-88619242D01*
X151209909Y-88619242D02*
X151267052Y-88562099D01*
X151267052Y-88562099D02*
X151381338Y-88504956D01*
X151381338Y-88504956D02*
X151495623Y-88504956D01*
X151495623Y-88504956D02*
X151609909Y-88562099D01*
X151609909Y-88562099D02*
X151667052Y-88619242D01*
X151667052Y-88619242D02*
X151724195Y-88733527D01*
X151724195Y-88733527D02*
X151724195Y-89019242D01*
X151724195Y-89019242D02*
X151667052Y-89190670D01*
X150524195Y-89704956D02*
X151724195Y-89704956D01*
X153188548Y-88504956D02*
X153131405Y-88676385D01*
X153131405Y-88676385D02*
X153131405Y-88962099D01*
X153131405Y-88962099D02*
X153188548Y-89076385D01*
X153188548Y-89076385D02*
X153245690Y-89133527D01*
X153245690Y-89133527D02*
X153359976Y-89190670D01*
X153359976Y-89190670D02*
X153474262Y-89190670D01*
X153474262Y-89190670D02*
X153588548Y-89133527D01*
X153588548Y-89133527D02*
X153645690Y-89076385D01*
X153645690Y-89076385D02*
X153702833Y-88962099D01*
X153702833Y-88962099D02*
X153759976Y-88733527D01*
X153759976Y-88733527D02*
X153817119Y-88619242D01*
X153817119Y-88619242D02*
X153874262Y-88562099D01*
X153874262Y-88562099D02*
X153988548Y-88504956D01*
X153988548Y-88504956D02*
X154102833Y-88504956D01*
X154102833Y-88504956D02*
X154217119Y-88562099D01*
X154217119Y-88562099D02*
X154274262Y-88619242D01*
X154274262Y-88619242D02*
X154331405Y-88733527D01*
X154331405Y-88733527D02*
X154331405Y-89019242D01*
X154331405Y-89019242D02*
X154274262Y-89190670D01*
X153245690Y-90390670D02*
X153188548Y-90333527D01*
X153188548Y-90333527D02*
X153131405Y-90162099D01*
X153131405Y-90162099D02*
X153131405Y-90047813D01*
X153131405Y-90047813D02*
X153188548Y-89876384D01*
X153188548Y-89876384D02*
X153302833Y-89762099D01*
X153302833Y-89762099D02*
X153417119Y-89704956D01*
X153417119Y-89704956D02*
X153645690Y-89647813D01*
X153645690Y-89647813D02*
X153817119Y-89647813D01*
X153817119Y-89647813D02*
X154045690Y-89704956D01*
X154045690Y-89704956D02*
X154159976Y-89762099D01*
X154159976Y-89762099D02*
X154274262Y-89876384D01*
X154274262Y-89876384D02*
X154331405Y-90047813D01*
X154331405Y-90047813D02*
X154331405Y-90162099D01*
X154331405Y-90162099D02*
X154274262Y-90333527D01*
X154274262Y-90333527D02*
X154217119Y-90390670D01*
X153131405Y-90904956D02*
X154331405Y-90904956D01*
X153131405Y-91590670D02*
X153817119Y-91076384D01*
X154331405Y-91590670D02*
X153645690Y-90904956D01*
X138780750Y-98314000D02*
X138723608Y-98256857D01*
X138723608Y-98256857D02*
X138666465Y-98085429D01*
X138666465Y-98085429D02*
X138666465Y-97971143D01*
X138666465Y-97971143D02*
X138723608Y-97799714D01*
X138723608Y-97799714D02*
X138837893Y-97685429D01*
X138837893Y-97685429D02*
X138952179Y-97628286D01*
X138952179Y-97628286D02*
X139180750Y-97571143D01*
X139180750Y-97571143D02*
X139352179Y-97571143D01*
X139352179Y-97571143D02*
X139580750Y-97628286D01*
X139580750Y-97628286D02*
X139695036Y-97685429D01*
X139695036Y-97685429D02*
X139809322Y-97799714D01*
X139809322Y-97799714D02*
X139866465Y-97971143D01*
X139866465Y-97971143D02*
X139866465Y-98085429D01*
X139866465Y-98085429D02*
X139809322Y-98256857D01*
X139809322Y-98256857D02*
X139752179Y-98314000D01*
X138666465Y-99456857D02*
X138666465Y-98771143D01*
X138666465Y-99114000D02*
X139866465Y-99114000D01*
X139866465Y-99114000D02*
X139695036Y-98999714D01*
X139695036Y-98999714D02*
X139580750Y-98885429D01*
X139580750Y-98885429D02*
X139523608Y-98771143D01*
X147072595Y-108369224D02*
X146101166Y-108369224D01*
X146101166Y-108369224D02*
X145986880Y-108426367D01*
X145986880Y-108426367D02*
X145929738Y-108483510D01*
X145929738Y-108483510D02*
X145872595Y-108597795D01*
X145872595Y-108597795D02*
X145872595Y-108826367D01*
X145872595Y-108826367D02*
X145929738Y-108940652D01*
X145929738Y-108940652D02*
X145986880Y-108997795D01*
X145986880Y-108997795D02*
X146101166Y-109054938D01*
X146101166Y-109054938D02*
X147072595Y-109054938D01*
X145872595Y-110254938D02*
X145872595Y-109569224D01*
X145872595Y-109912081D02*
X147072595Y-109912081D01*
X147072595Y-109912081D02*
X146901166Y-109797795D01*
X146901166Y-109797795D02*
X146786880Y-109683510D01*
X146786880Y-109683510D02*
X146729738Y-109569224D01*
X158461825Y-97134879D02*
X157490396Y-97134879D01*
X157490396Y-97134879D02*
X157376110Y-97192022D01*
X157376110Y-97192022D02*
X157318968Y-97249165D01*
X157318968Y-97249165D02*
X157261825Y-97363450D01*
X157261825Y-97363450D02*
X157261825Y-97592022D01*
X157261825Y-97592022D02*
X157318968Y-97706307D01*
X157318968Y-97706307D02*
X157376110Y-97763450D01*
X157376110Y-97763450D02*
X157490396Y-97820593D01*
X157490396Y-97820593D02*
X158461825Y-97820593D01*
X158347539Y-98334879D02*
X158404682Y-98392022D01*
X158404682Y-98392022D02*
X158461825Y-98506308D01*
X158461825Y-98506308D02*
X158461825Y-98792022D01*
X158461825Y-98792022D02*
X158404682Y-98906308D01*
X158404682Y-98906308D02*
X158347539Y-98963450D01*
X158347539Y-98963450D02*
X158233253Y-99020593D01*
X158233253Y-99020593D02*
X158118968Y-99020593D01*
X158118968Y-99020593D02*
X157947539Y-98963450D01*
X157947539Y-98963450D02*
X157261825Y-98277736D01*
X157261825Y-98277736D02*
X157261825Y-99020593D01*
X142706475Y-96894025D02*
X143277903Y-96494025D01*
X142706475Y-96208311D02*
X143906475Y-96208311D01*
X143906475Y-96208311D02*
X143906475Y-96665454D01*
X143906475Y-96665454D02*
X143849332Y-96779739D01*
X143849332Y-96779739D02*
X143792189Y-96836882D01*
X143792189Y-96836882D02*
X143677903Y-96894025D01*
X143677903Y-96894025D02*
X143506475Y-96894025D01*
X143506475Y-96894025D02*
X143392189Y-96836882D01*
X143392189Y-96836882D02*
X143335046Y-96779739D01*
X143335046Y-96779739D02*
X143277903Y-96665454D01*
X143277903Y-96665454D02*
X143277903Y-96208311D01*
X143906475Y-97294025D02*
X143906475Y-98036882D01*
X143906475Y-98036882D02*
X143449332Y-97636882D01*
X143449332Y-97636882D02*
X143449332Y-97808311D01*
X143449332Y-97808311D02*
X143392189Y-97922597D01*
X143392189Y-97922597D02*
X143335046Y-97979739D01*
X143335046Y-97979739D02*
X143220760Y-98036882D01*
X143220760Y-98036882D02*
X142935046Y-98036882D01*
X142935046Y-98036882D02*
X142820760Y-97979739D01*
X142820760Y-97979739D02*
X142763618Y-97922597D01*
X142763618Y-97922597D02*
X142706475Y-97808311D01*
X142706475Y-97808311D02*
X142706475Y-97465454D01*
X142706475Y-97465454D02*
X142763618Y-97351168D01*
X142763618Y-97351168D02*
X142820760Y-97294025D01*
X136427255Y-106888725D02*
X136998683Y-106488725D01*
X136427255Y-106203011D02*
X137627255Y-106203011D01*
X137627255Y-106203011D02*
X137627255Y-106660154D01*
X137627255Y-106660154D02*
X137570112Y-106774439D01*
X137570112Y-106774439D02*
X137512969Y-106831582D01*
X137512969Y-106831582D02*
X137398683Y-106888725D01*
X137398683Y-106888725D02*
X137227255Y-106888725D01*
X137227255Y-106888725D02*
X137112969Y-106831582D01*
X137112969Y-106831582D02*
X137055826Y-106774439D01*
X137055826Y-106774439D02*
X136998683Y-106660154D01*
X136998683Y-106660154D02*
X136998683Y-106203011D01*
X137512969Y-107345868D02*
X137570112Y-107403011D01*
X137570112Y-107403011D02*
X137627255Y-107517297D01*
X137627255Y-107517297D02*
X137627255Y-107803011D01*
X137627255Y-107803011D02*
X137570112Y-107917297D01*
X137570112Y-107917297D02*
X137512969Y-107974439D01*
X137512969Y-107974439D02*
X137398683Y-108031582D01*
X137398683Y-108031582D02*
X137284398Y-108031582D01*
X137284398Y-108031582D02*
X137112969Y-107974439D01*
X137112969Y-107974439D02*
X136427255Y-107288725D01*
X136427255Y-107288725D02*
X136427255Y-108031582D01*
X140788760Y-96894025D02*
X140731618Y-96836882D01*
X140731618Y-96836882D02*
X140674475Y-96665454D01*
X140674475Y-96665454D02*
X140674475Y-96551168D01*
X140674475Y-96551168D02*
X140731618Y-96379739D01*
X140731618Y-96379739D02*
X140845903Y-96265454D01*
X140845903Y-96265454D02*
X140960189Y-96208311D01*
X140960189Y-96208311D02*
X141188760Y-96151168D01*
X141188760Y-96151168D02*
X141360189Y-96151168D01*
X141360189Y-96151168D02*
X141588760Y-96208311D01*
X141588760Y-96208311D02*
X141703046Y-96265454D01*
X141703046Y-96265454D02*
X141817332Y-96379739D01*
X141817332Y-96379739D02*
X141874475Y-96551168D01*
X141874475Y-96551168D02*
X141874475Y-96665454D01*
X141874475Y-96665454D02*
X141817332Y-96836882D01*
X141817332Y-96836882D02*
X141760189Y-96894025D01*
X141760189Y-97351168D02*
X141817332Y-97408311D01*
X141817332Y-97408311D02*
X141874475Y-97522597D01*
X141874475Y-97522597D02*
X141874475Y-97808311D01*
X141874475Y-97808311D02*
X141817332Y-97922597D01*
X141817332Y-97922597D02*
X141760189Y-97979739D01*
X141760189Y-97979739D02*
X141645903Y-98036882D01*
X141645903Y-98036882D02*
X141531618Y-98036882D01*
X141531618Y-98036882D02*
X141360189Y-97979739D01*
X141360189Y-97979739D02*
X140674475Y-97294025D01*
X140674475Y-97294025D02*
X140674475Y-98036882D01*
X136391315Y-91020770D02*
X136962743Y-90620770D01*
X136391315Y-90335056D02*
X137591315Y-90335056D01*
X137591315Y-90335056D02*
X137591315Y-90792199D01*
X137591315Y-90792199D02*
X137534172Y-90906484D01*
X137534172Y-90906484D02*
X137477029Y-90963627D01*
X137477029Y-90963627D02*
X137362743Y-91020770D01*
X137362743Y-91020770D02*
X137191315Y-91020770D01*
X137191315Y-91020770D02*
X137077029Y-90963627D01*
X137077029Y-90963627D02*
X137019886Y-90906484D01*
X137019886Y-90906484D02*
X136962743Y-90792199D01*
X136962743Y-90792199D02*
X136962743Y-90335056D01*
X136391315Y-92163627D02*
X136391315Y-91477913D01*
X136391315Y-91820770D02*
X137591315Y-91820770D01*
X137591315Y-91820770D02*
X137419886Y-91706484D01*
X137419886Y-91706484D02*
X137305600Y-91592199D01*
X137305600Y-91592199D02*
X137248458Y-91477913D01*
X156661771Y-103504644D02*
X157461771Y-104704644D01*
X157461771Y-103504644D02*
X156661771Y-104704644D01*
X158547485Y-104704644D02*
X157861771Y-104704644D01*
X158204628Y-104704644D02*
X158204628Y-103504644D01*
X158204628Y-103504644D02*
X158090342Y-103676073D01*
X158090342Y-103676073D02*
X157976057Y-103790359D01*
X157976057Y-103790359D02*
X157861771Y-103847502D01*
X136373345Y-101344903D02*
X137573345Y-101344903D01*
X137573345Y-101344903D02*
X137573345Y-101802046D01*
X137573345Y-101802046D02*
X137516202Y-101916331D01*
X137516202Y-101916331D02*
X137459059Y-101973474D01*
X137459059Y-101973474D02*
X137344773Y-102030617D01*
X137344773Y-102030617D02*
X137173345Y-102030617D01*
X137173345Y-102030617D02*
X137059059Y-101973474D01*
X137059059Y-101973474D02*
X137001916Y-101916331D01*
X137001916Y-101916331D02*
X136944773Y-101802046D01*
X136944773Y-101802046D02*
X136944773Y-101344903D01*
X137573345Y-102773474D02*
X137573345Y-103002046D01*
X137573345Y-103002046D02*
X137516202Y-103116331D01*
X137516202Y-103116331D02*
X137401916Y-103230617D01*
X137401916Y-103230617D02*
X137173345Y-103287760D01*
X137173345Y-103287760D02*
X136773345Y-103287760D01*
X136773345Y-103287760D02*
X136544773Y-103230617D01*
X136544773Y-103230617D02*
X136430488Y-103116331D01*
X136430488Y-103116331D02*
X136373345Y-103002046D01*
X136373345Y-103002046D02*
X136373345Y-102773474D01*
X136373345Y-102773474D02*
X136430488Y-102659189D01*
X136430488Y-102659189D02*
X136544773Y-102544903D01*
X136544773Y-102544903D02*
X136773345Y-102487760D01*
X136773345Y-102487760D02*
X137173345Y-102487760D01*
X137173345Y-102487760D02*
X137401916Y-102544903D01*
X137401916Y-102544903D02*
X137516202Y-102659189D01*
X137516202Y-102659189D02*
X137573345Y-102773474D01*
X137573345Y-103687760D02*
X136373345Y-103973474D01*
X136373345Y-103973474D02*
X137230488Y-104202046D01*
X137230488Y-104202046D02*
X136373345Y-104430617D01*
X136373345Y-104430617D02*
X137573345Y-104716332D01*
X140063760Y-103815765D02*
X140006618Y-103758622D01*
X140006618Y-103758622D02*
X139949475Y-103587194D01*
X139949475Y-103587194D02*
X139949475Y-103472908D01*
X139949475Y-103472908D02*
X140006618Y-103301479D01*
X140006618Y-103301479D02*
X140120903Y-103187194D01*
X140120903Y-103187194D02*
X140235189Y-103130051D01*
X140235189Y-103130051D02*
X140463760Y-103072908D01*
X140463760Y-103072908D02*
X140635189Y-103072908D01*
X140635189Y-103072908D02*
X140863760Y-103130051D01*
X140863760Y-103130051D02*
X140978046Y-103187194D01*
X140978046Y-103187194D02*
X141092332Y-103301479D01*
X141092332Y-103301479D02*
X141149475Y-103472908D01*
X141149475Y-103472908D02*
X141149475Y-103587194D01*
X141149475Y-103587194D02*
X141092332Y-103758622D01*
X141092332Y-103758622D02*
X141035189Y-103815765D01*
X141149475Y-104901479D02*
X141149475Y-104330051D01*
X141149475Y-104330051D02*
X140578046Y-104272908D01*
X140578046Y-104272908D02*
X140635189Y-104330051D01*
X140635189Y-104330051D02*
X140692332Y-104444337D01*
X140692332Y-104444337D02*
X140692332Y-104730051D01*
X140692332Y-104730051D02*
X140635189Y-104844337D01*
X140635189Y-104844337D02*
X140578046Y-104901479D01*
X140578046Y-104901479D02*
X140463760Y-104958622D01*
X140463760Y-104958622D02*
X140178046Y-104958622D01*
X140178046Y-104958622D02*
X140063760Y-104901479D01*
X140063760Y-104901479D02*
X140006618Y-104844337D01*
X140006618Y-104844337D02*
X139949475Y-104730051D01*
X139949475Y-104730051D02*
X139949475Y-104444337D01*
X139949475Y-104444337D02*
X140006618Y-104330051D01*
X140006618Y-104330051D02*
X140063760Y-104272908D01*
X149158890Y-112104545D02*
X149101748Y-112047402D01*
X149101748Y-112047402D02*
X149044605Y-111875974D01*
X149044605Y-111875974D02*
X149044605Y-111761688D01*
X149044605Y-111761688D02*
X149101748Y-111590259D01*
X149101748Y-111590259D02*
X149216033Y-111475974D01*
X149216033Y-111475974D02*
X149330319Y-111418831D01*
X149330319Y-111418831D02*
X149558890Y-111361688D01*
X149558890Y-111361688D02*
X149730319Y-111361688D01*
X149730319Y-111361688D02*
X149958890Y-111418831D01*
X149958890Y-111418831D02*
X150073176Y-111475974D01*
X150073176Y-111475974D02*
X150187462Y-111590259D01*
X150187462Y-111590259D02*
X150244605Y-111761688D01*
X150244605Y-111761688D02*
X150244605Y-111875974D01*
X150244605Y-111875974D02*
X150187462Y-112047402D01*
X150187462Y-112047402D02*
X150130319Y-112104545D01*
X150244605Y-112504545D02*
X150244605Y-113247402D01*
X150244605Y-113247402D02*
X149787462Y-112847402D01*
X149787462Y-112847402D02*
X149787462Y-113018831D01*
X149787462Y-113018831D02*
X149730319Y-113133117D01*
X149730319Y-113133117D02*
X149673176Y-113190259D01*
X149673176Y-113190259D02*
X149558890Y-113247402D01*
X149558890Y-113247402D02*
X149273176Y-113247402D01*
X149273176Y-113247402D02*
X149158890Y-113190259D01*
X149158890Y-113190259D02*
X149101748Y-113133117D01*
X149101748Y-113133117D02*
X149044605Y-113018831D01*
X149044605Y-113018831D02*
X149044605Y-112675974D01*
X149044605Y-112675974D02*
X149101748Y-112561688D01*
X149101748Y-112561688D02*
X149158890Y-112504545D01*
X158044360Y-112096895D02*
X157987218Y-112039752D01*
X157987218Y-112039752D02*
X157930075Y-111868324D01*
X157930075Y-111868324D02*
X157930075Y-111754038D01*
X157930075Y-111754038D02*
X157987218Y-111582609D01*
X157987218Y-111582609D02*
X158101503Y-111468324D01*
X158101503Y-111468324D02*
X158215789Y-111411181D01*
X158215789Y-111411181D02*
X158444360Y-111354038D01*
X158444360Y-111354038D02*
X158615789Y-111354038D01*
X158615789Y-111354038D02*
X158844360Y-111411181D01*
X158844360Y-111411181D02*
X158958646Y-111468324D01*
X158958646Y-111468324D02*
X159072932Y-111582609D01*
X159072932Y-111582609D02*
X159130075Y-111754038D01*
X159130075Y-111754038D02*
X159130075Y-111868324D01*
X159130075Y-111868324D02*
X159072932Y-112039752D01*
X159072932Y-112039752D02*
X159015789Y-112096895D01*
X158730075Y-113125467D02*
X157930075Y-113125467D01*
X159187218Y-112839752D02*
X158330075Y-112554038D01*
X158330075Y-112554038D02*
X158330075Y-113296895D01*
D12*
%TO.C,P3*%
X135889400Y-112792200D02*
X138429400Y-112792200D01*
X135889400Y-117872200D02*
X135889400Y-112792200D01*
X135889400Y-117872200D02*
X138429400Y-117872200D01*
X138429400Y-117872200D02*
X138429400Y-112792200D01*
D10*
%TO.C,C1*%
X138022890Y-95296980D02*
X138022890Y-92488640D01*
X138022890Y-97087680D02*
X138022890Y-95296980D01*
X138022890Y-97100380D02*
X140283490Y-97100380D01*
X138363110Y-92172580D02*
X139980510Y-92172580D01*
X140283490Y-95309680D02*
X140283490Y-92488640D01*
X140283490Y-97100380D02*
X140283490Y-95309680D01*
G36*
X138303720Y-94087110D02*
G01*
X140017320Y-94087110D01*
X140017320Y-94338570D01*
X138303720Y-94338570D01*
X138303720Y-94087110D01*
G37*
D12*
%TO.C,P1*%
X139619600Y-85314500D02*
X157399600Y-85314500D01*
X139619600Y-87854500D02*
X139619600Y-85314500D01*
X139619600Y-87854500D02*
X157399600Y-87854500D01*
X157399600Y-87854500D02*
X157399600Y-85314500D01*
D13*
%TO.C,U1*%
X140370990Y-107609690D02*
X145423410Y-107609690D01*
X140370990Y-110652510D02*
X140370990Y-107609690D01*
X140370990Y-110652510D02*
X145423410Y-110652510D01*
X145423410Y-110652510D02*
X145423410Y-107609690D01*
D14*
X144952310Y-108361990D02*
G75*
G02*
X144652090Y-108361990I-150110J0D01*
G01*
X144652090Y-108361990D02*
G75*
G02*
X144952310Y-108361990I150110J0D01*
G01*
X145698820Y-106358690D02*
G75*
G02*
X145398600Y-106358690I-150110J0D01*
G01*
X145398600Y-106358690D02*
G75*
G02*
X145698820Y-106358690I150110J0D01*
G01*
D11*
%TO.C,U2*%
X145089580Y-94673170D02*
X156773580Y-94673170D01*
X145089580Y-101531170D02*
X145089580Y-94673170D01*
X145089580Y-101531170D02*
X156773580Y-101531170D01*
X156773580Y-101531170D02*
X156773580Y-94673170D01*
D14*
X145269410Y-102902260D02*
G75*
G02*
X144969190Y-102902260I-150110J0D01*
G01*
X144969190Y-102902260D02*
G75*
G02*
X145269410Y-102902260I150110J0D01*
G01*
X146001690Y-100621090D02*
G75*
G02*
X145701470Y-100621090I-150110J0D01*
G01*
X145701470Y-100621090D02*
G75*
G02*
X146001690Y-100621090I150110J0D01*
G01*
D15*
%TO.C,R3*%
X142491390Y-92185090D02*
X144028090Y-92185090D01*
X142491390Y-93340790D02*
X142491390Y-92185090D01*
X142491390Y-95436290D02*
X142491390Y-94280590D01*
X142491390Y-95436290D02*
X144028090Y-95436290D01*
D13*
X142745390Y-93747190D02*
X142859690Y-93747190D01*
X142859690Y-93747190D02*
X143050190Y-93861490D01*
X143050190Y-93861490D02*
X143240690Y-93747190D01*
X143240690Y-93747190D02*
X143431190Y-93861490D01*
X143431190Y-93861490D02*
X143621690Y-93747190D01*
X143621690Y-93747190D02*
X143812190Y-93861490D01*
X143812190Y-93861490D02*
X143926490Y-93861490D01*
D15*
X144028090Y-93340790D02*
X144028090Y-92185090D01*
X144028090Y-95436290D02*
X144028090Y-94280590D01*
%TO.C,R2*%
X136228900Y-108290840D02*
X137765600Y-108290840D01*
X136228900Y-109446540D02*
X136228900Y-108290840D01*
X136228900Y-111542040D02*
X136228900Y-110386340D01*
X136228900Y-111542040D02*
X137765600Y-111542040D01*
D13*
X136330500Y-109865640D02*
X136444800Y-109865640D01*
X136444800Y-109865640D02*
X136635300Y-109979940D01*
X136635300Y-109979940D02*
X136825800Y-109865640D01*
X136825800Y-109865640D02*
X137016300Y-109979940D01*
X137016300Y-109979940D02*
X137206800Y-109865640D01*
X137206800Y-109865640D02*
X137397300Y-109979940D01*
X137397300Y-109979940D02*
X137511600Y-109979940D01*
D15*
X137765600Y-109446540D02*
X137765600Y-108290840D01*
X137765600Y-111542040D02*
X137765600Y-110386340D01*
%TO.C,C2*%
X140572430Y-92185090D02*
X142109130Y-92185090D01*
X140572430Y-93340790D02*
X140572430Y-92185090D01*
X140572430Y-95436290D02*
X140572430Y-94280590D01*
X140572430Y-95436290D02*
X142109130Y-95436290D01*
D13*
X140953430Y-93859900D02*
X141207430Y-93859900D01*
X141207430Y-93986900D02*
X141207430Y-93720200D01*
X141499530Y-93859900D02*
X141753530Y-93859900D01*
X141499530Y-93986900D02*
X141499530Y-93720200D01*
D15*
X142109130Y-93340790D02*
X142109130Y-92185090D01*
X142109130Y-95436290D02*
X142109130Y-94280590D01*
D12*
%TO.C,P2*%
X146019000Y-113735000D02*
X151099000Y-113735000D01*
X146019000Y-116275000D02*
X146019000Y-113735000D01*
X146019000Y-116275000D02*
X151099000Y-116275000D01*
X151099000Y-116275000D02*
X151099000Y-113735000D01*
D15*
%TO.C,R1*%
X136228900Y-92185080D02*
X137765600Y-92185080D01*
X136228900Y-93340780D02*
X136228900Y-92185080D01*
X136228900Y-95436280D02*
X136228900Y-94280580D01*
X136228900Y-95436280D02*
X137765600Y-95436280D01*
D13*
X136330500Y-93759880D02*
X136444800Y-93759880D01*
X136444800Y-93759880D02*
X136635300Y-93874180D01*
X136635300Y-93874180D02*
X136825800Y-93759880D01*
X136825800Y-93759880D02*
X137016300Y-93874180D01*
X137016300Y-93874180D02*
X137206800Y-93759880D01*
X137206800Y-93759880D02*
X137397300Y-93874180D01*
X137397300Y-93874180D02*
X137511600Y-93874180D01*
D15*
X137765600Y-93340780D02*
X137765600Y-92185080D01*
X137765600Y-95436280D02*
X137765600Y-94280580D01*
D12*
%TO.C,X1*%
X150665890Y-106039210D02*
X157281310Y-106039210D01*
X150665890Y-110039210D02*
X157281310Y-110039210D01*
X150747260Y-105612790D02*
X157147260Y-105612790D01*
X150747260Y-110512790D02*
X157147260Y-110512790D01*
X152931260Y-107999290D02*
X153312260Y-107999290D01*
X153312260Y-108697790D02*
X153312260Y-107300790D01*
X153566260Y-107300790D02*
X154328260Y-107300790D01*
X153566260Y-108697790D02*
X153566260Y-107300790D01*
X153566260Y-108697790D02*
X154328260Y-108697790D01*
X154328260Y-108697790D02*
X154328260Y-107300790D01*
X154582260Y-107999290D02*
X154963260Y-107999290D01*
X154582260Y-108697790D02*
X154582260Y-107300790D01*
X150665899Y-110039130D02*
G75*
G02*
X150665899Y-106039130I-89J2000000D01*
G01*
X150674369Y-110512790D02*
G75*
G02*
X150674369Y-105612790I-109J2450000D01*
G01*
X157220151Y-105612790D02*
G75*
G02*
X157220151Y-110512790I109J-2450000D01*
G01*
X157281311Y-106039210D02*
G75*
G02*
X157281311Y-110039210I89J-2000000D01*
G01*
D15*
%TO.C,POW*%
X136228900Y-97560380D02*
X137765600Y-97560380D01*
X136228900Y-98716080D02*
X136228900Y-97560380D01*
X136228900Y-100811580D02*
X136228900Y-99655880D01*
X136228900Y-100811580D02*
X137765600Y-100811580D01*
D13*
X136698800Y-99084380D02*
X136990900Y-99312980D01*
X136698800Y-99084380D02*
X137283000Y-99084380D01*
X136990900Y-99312980D02*
X137283000Y-99084380D01*
D15*
X137765600Y-98716080D02*
X137765600Y-97560380D01*
X137765600Y-100811580D02*
X137765600Y-99655880D01*
%TO.C,C5*%
X141564900Y-103013890D02*
X142720600Y-103013890D01*
X141564900Y-104550590D02*
X141564900Y-103013890D01*
X141564900Y-104550590D02*
X142720600Y-104550590D01*
D13*
X143100020Y-103623490D02*
X143366720Y-103623490D01*
X143100020Y-103915590D02*
X143366720Y-103915590D01*
X143239720Y-103623490D02*
X143239720Y-103369490D01*
X143239720Y-104169590D02*
X143239720Y-103915590D01*
D15*
X143660400Y-103013890D02*
X144816100Y-103013890D01*
X143660400Y-104550590D02*
X144816100Y-104550590D01*
X144816100Y-104550590D02*
X144816100Y-103013890D01*
D16*
%TO.C,P4*%
X144822880Y-118265440D02*
X152322990Y-118265440D01*
X144822880Y-119753160D02*
X144822880Y-118265440D01*
X144822880Y-119753160D02*
X152322990Y-119753160D01*
X144822880Y-120228900D02*
X144822880Y-119753160D01*
X144822880Y-123281720D02*
X144822880Y-120228900D01*
X144822880Y-123764830D02*
X144822880Y-123281720D01*
X144822880Y-123764830D02*
X152322990Y-123764830D01*
X144822880Y-124576620D02*
X144822880Y-123764830D01*
X144822880Y-125015530D02*
X144822880Y-124576620D01*
X144822880Y-125015530D02*
X152322990Y-125015530D01*
X145601130Y-122452920D02*
X145948730Y-122105320D01*
X146058330Y-122960920D02*
X146405930Y-122613320D01*
X147188630Y-120916220D02*
X147536230Y-120568620D01*
X147691930Y-121403520D02*
X148039530Y-121055920D01*
X149101250Y-122452920D02*
X149448850Y-122105320D01*
X149558450Y-122960920D02*
X149906050Y-122613320D01*
X150688750Y-120916220D02*
X151036350Y-120568620D01*
X151192050Y-121403520D02*
X151539650Y-121055920D01*
X152322990Y-119753160D02*
X152322990Y-118265440D01*
X152322990Y-120228900D02*
X152322990Y-119753160D01*
X152322990Y-123281720D02*
X152322990Y-120228900D01*
X152322990Y-123764830D02*
X152322990Y-123281720D01*
X152322990Y-124576620D02*
X152322990Y-123764830D01*
X152322990Y-125015530D02*
X152322990Y-124576620D01*
X148272960Y-121765600D02*
G75*
G02*
X145372780Y-121765600I-1450090J0D01*
G01*
X145372780Y-121765600D02*
G75*
G02*
X148272960Y-121765600I1450090J0D01*
G01*
X151773080Y-121765600D02*
G75*
G02*
X148872900Y-121765600I-1450090J0D01*
G01*
X148872900Y-121765600D02*
G75*
G02*
X151773080Y-121765600I1450090J0D01*
G01*
D15*
%TO.C,C3*%
X150650630Y-111188410D02*
X151806330Y-111188410D01*
X150650630Y-112725110D02*
X150650630Y-111188410D01*
X150650630Y-112725110D02*
X151806330Y-112725110D01*
D13*
X152100010Y-111823410D02*
X152366710Y-111823410D01*
X152100010Y-112115510D02*
X152366710Y-112115510D01*
X152227010Y-111823410D02*
X152227010Y-111569410D01*
X152227010Y-112369510D02*
X152227010Y-112115510D01*
D15*
X152746130Y-111188410D02*
X153901830Y-111188410D01*
X152746130Y-112725110D02*
X153901830Y-112725110D01*
X153901830Y-112725110D02*
X153901830Y-111188410D01*
%TO.C,C4*%
X154208150Y-111188410D02*
X155363850Y-111188410D01*
X154208150Y-112725110D02*
X154208150Y-111188410D01*
X154208150Y-112725110D02*
X155363850Y-112725110D01*
D13*
X155743260Y-111798010D02*
X156009960Y-111798010D01*
X155743260Y-112090110D02*
X156009960Y-112090110D01*
X155882960Y-111798010D02*
X155882960Y-111544010D01*
X155882960Y-112344110D02*
X155882960Y-112090110D01*
D15*
X156303650Y-111188410D02*
X157459350Y-111188410D01*
X156303650Y-112725110D02*
X157459350Y-112725110D01*
X157459350Y-112725110D02*
X157459350Y-111188410D01*
%TD*%
M02*
