%TF.GenerationSoftware,KiCad,Pcbnew,9.0.1*%
%TF.CreationDate,2025-08-30T11:13:21-07:00*%
%TF.ProjectId,CAN Integration,43414e20-496e-4746-9567-726174696f6e,rev?*%
%TF.SameCoordinates,Original*%
%TF.FileFunction,Soldermask,Top*%
%TF.FilePolarity,Negative*%
%FSLAX46Y46*%
G04 Gerber Fmt 4.6, Leading zero omitted, Abs format (unit mm)*
G04 Created by KiCad (PCBNEW 9.0.1) date 2025-08-30 11:13:21*
%MOMM*%
%LPD*%
G01*
G04 APERTURE LIST*
G04 Aperture macros list*
%AMRoundRect*
0 Rectangle with rounded corners*
0 $1 Rounding radius*
0 $2 $3 $4 $5 $6 $7 $8 $9 X,Y pos of 4 corners*
0 Add a 4 corners polygon primitive as box body*
4,1,4,$2,$3,$4,$5,$6,$7,$8,$9,$2,$3,0*
0 Add four circle primitives for the rounded corners*
1,1,$1+$1,$2,$3*
1,1,$1+$1,$4,$5*
1,1,$1+$1,$6,$7*
1,1,$1+$1,$8,$9*
0 Add four rect primitives between the rounded corners*
20,1,$1+$1,$2,$3,$4,$5,0*
20,1,$1+$1,$4,$5,$6,$7,0*
20,1,$1+$1,$6,$7,$8,$9,0*
20,1,$1+$1,$8,$9,$2,$3,0*%
G04 Aperture macros list end*
%ADD10C,1.703200*%
%ADD11C,3.403200*%
%ADD12RoundRect,0.101600X0.700000X-0.750000X0.700000X0.750000X-0.700000X0.750000X-0.700000X-0.750000X0*%
%ADD13RoundRect,0.101600X0.750000X0.750000X-0.750000X0.750000X-0.750000X-0.750000X0.750000X-0.750000X0*%
%ADD14RoundRect,0.050800X0.294005X1.022505X-0.294005X1.022505X-0.294005X-1.022505X0.294005X-1.022505X0*%
%ADD15RoundRect,0.050800X-0.279995X-1.050000X0.279995X-1.050000X0.279995X1.050000X-0.279995X1.050000X0*%
%ADD16RoundRect,0.101600X-0.500000X-0.444500X0.500000X-0.444500X0.500000X0.444500X-0.500000X0.444500X0*%
%ADD17RoundRect,0.101600X0.500000X0.444500X-0.500000X0.444500X-0.500000X-0.444500X0.500000X-0.444500X0*%
%ADD18C,1.603200*%
%ADD19RoundRect,0.101600X-0.444500X-0.444500X0.444500X-0.444500X0.444500X0.444500X-0.444500X0.444500X0*%
%ADD20RoundRect,0.101600X0.444500X-0.500000X0.444500X0.500000X-0.444500X0.500000X-0.444500X-0.500000X0*%
%ADD21C,2.387200*%
%ADD22RoundRect,0.101600X-0.444500X0.500000X-0.444500X-0.500000X0.444500X-0.500000X0.444500X0.500000X0*%
G04 APERTURE END LIST*
D10*
%TO.C,P3*%
X137159400Y-116602200D03*
X137159400Y-114062200D03*
%TD*%
D11*
%TO.C,*%
X136845420Y-122840780D03*
%TD*%
D12*
%TO.C,C1*%
X139153190Y-93236580D03*
X139153190Y-96036580D03*
%TD*%
D10*
%TO.C,P1*%
X156129600Y-86584500D03*
X153589600Y-86584500D03*
X151049600Y-86584500D03*
X148509600Y-86584500D03*
X145969600Y-86584500D03*
D13*
X143429600Y-86584500D03*
D10*
X140889600Y-86584500D03*
%TD*%
D14*
%TO.C,U1*%
X144802200Y-106358590D03*
X143532200Y-106358590D03*
X142262200Y-106358590D03*
X140992200Y-106358590D03*
X140992200Y-111903610D03*
X142262200Y-111903610D03*
X143532200Y-111903610D03*
X144802200Y-111903610D03*
%TD*%
D15*
%TO.C,U2*%
X145851580Y-102902260D03*
X147121580Y-102902260D03*
X148391580Y-102902260D03*
X149661580Y-102902260D03*
X150931580Y-102902260D03*
X152201580Y-102902260D03*
X153471580Y-102902260D03*
X154741580Y-102902260D03*
X156011580Y-102902260D03*
X156011580Y-93302080D03*
X154741580Y-93302080D03*
X153471580Y-93302080D03*
X152201580Y-93302080D03*
X150931580Y-93302080D03*
X149661580Y-93302080D03*
X148391580Y-93302080D03*
X147121580Y-93302080D03*
X145851580Y-93302080D03*
%TD*%
D16*
%TO.C,R3*%
X143266090Y-94648000D03*
X143266090Y-92947990D03*
%TD*%
D17*
%TO.C,R2*%
X136990900Y-109079130D03*
X136990900Y-110779130D03*
%TD*%
D16*
%TO.C,C2*%
X141359830Y-94697200D03*
X141359830Y-92997200D03*
%TD*%
D10*
%TO.C,P2*%
X149829000Y-115005000D03*
X147289000Y-115005000D03*
%TD*%
D17*
%TO.C,R1*%
X136990900Y-92973370D03*
X136990900Y-94673370D03*
%TD*%
D11*
%TO.C,*%
X160166140Y-122840780D03*
%TD*%
%TO.C,*%
X136845420Y-87082620D03*
%TD*%
%TO.C,*%
X160166140Y-87082620D03*
%TD*%
D18*
%TO.C,X1*%
X156385260Y-108062790D03*
X151509260Y-108062790D03*
%TD*%
D19*
%TO.C,POW*%
X137003600Y-98360480D03*
X137003600Y-100011480D03*
%TD*%
D20*
%TO.C,C5*%
X144077020Y-103763190D03*
X142377020Y-103763190D03*
%TD*%
D21*
%TO.C,P4*%
X146822870Y-121765600D03*
X150322990Y-121765600D03*
%TD*%
D22*
%TO.C,C3*%
X151389710Y-111975810D03*
X153089720Y-111975810D03*
%TD*%
D20*
%TO.C,C4*%
X156720260Y-111937710D03*
X155020260Y-111937710D03*
%TD*%
M02*
