M48
; DRILL file {KiCad 9.0.1} date 2025-08-30T11:13:15-0700
; FORMAT={-:-/ absolute / metric / decimal}
; #@! TF.CreationDate,2025-08-30T11:13:15-07:00
; #@! TF.GenerationSoftware,Kicad,Pcbnew,9.0.1
; #@! TF.FileFunction,Plated,1,2,PTH
FMAT,2
METRIC
; #@! TA.AperFunction,Plated,PTH,ViaDrill
T1C0.381
; #@! TA.AperFunction,Plated,PTH,ComponentDrill
T2C0.900
; #@! TA.AperFunction,Plated,PTH,ComponentDrill
T3C1.000
; #@! TA.AperFunction,Plated,PTH,ComponentDrill
T4C3.400
%
G90
G05
T1
X139.214Y-100.082
X139.279Y-101.735
X139.478Y-112.717
X142.08Y-90.381
X142.391Y-102.221
X144.886Y-93.158
T2
X137.159Y-114.062
X137.159Y-116.602
X140.89Y-86.584
X143.43Y-86.584
X145.97Y-86.584
X147.289Y-115.005
X148.51Y-86.584
X149.829Y-115.005
X151.05Y-86.584
X151.509Y-108.063
X153.59Y-86.584
X156.13Y-86.584
X156.385Y-108.063
T3
X146.823Y-121.766
X150.323Y-121.766
T4
X136.845Y-87.083
X136.845Y-122.841
X160.166Y-87.083
X160.166Y-122.841
M30
