%TF.GenerationSoftware,KiCad,Pcbnew,8.0.8-8.0.8-0~ubuntu24.04.1*%
%TF.CreationDate,2025-02-15T13:26:57-07:00*%
%TF.ProjectId,Main Computer,4d61696e-2043-46f6-9d70-757465722e6b,rev?*%
%TF.SameCoordinates,Original*%
%TF.FileFunction,Copper,L2,Bot*%
%TF.FilePolarity,Positive*%
%FSLAX46Y46*%
G04 Gerber Fmt 4.6, Leading zero omitted, Abs format (unit mm)*
G04 Created by KiCad (PCBNEW 8.0.8-8.0.8-0~ubuntu24.04.1) date 2025-02-15 13:26:57*
%MOMM*%
%LPD*%
G01*
G04 APERTURE LIST*
G04 Aperture macros list*
%AMRoundRect*
0 Rectangle with rounded corners*
0 $1 Rounding radius*
0 $2 $3 $4 $5 $6 $7 $8 $9 X,Y pos of 4 corners*
0 Add a 4 corners polygon primitive as box body*
4,1,4,$2,$3,$4,$5,$6,$7,$8,$9,$2,$3,0*
0 Add four circle primitives for the rounded corners*
1,1,$1+$1,$2,$3*
1,1,$1+$1,$4,$5*
1,1,$1+$1,$6,$7*
1,1,$1+$1,$8,$9*
0 Add four rect primitives between the rounded corners*
20,1,$1+$1,$2,$3,$4,$5,0*
20,1,$1+$1,$4,$5,$6,$7,0*
20,1,$1+$1,$6,$7,$8,$9,0*
20,1,$1+$1,$8,$9,$2,$3,0*%
G04 Aperture macros list end*
%TA.AperFunction,ComponentPad*%
%ADD10RoundRect,0.250000X-0.550000X0.550000X-0.550000X-0.550000X0.550000X-0.550000X0.550000X0.550000X0*%
%TD*%
%TA.AperFunction,ComponentPad*%
%ADD11C,1.600000*%
%TD*%
%TA.AperFunction,ComponentPad*%
%ADD12C,1.800000*%
%TD*%
%TA.AperFunction,ComponentPad*%
%ADD13C,2.200000*%
%TD*%
%TA.AperFunction,ComponentPad*%
%ADD14RoundRect,0.249999X-1.025001X1.025001X-1.025001X-1.025001X1.025001X-1.025001X1.025001X1.025001X0*%
%TD*%
%TA.AperFunction,ComponentPad*%
%ADD15C,2.550000*%
%TD*%
%TA.AperFunction,ComponentPad*%
%ADD16R,1.700000X1.700000*%
%TD*%
%TA.AperFunction,ComponentPad*%
%ADD17O,1.700000X1.700000*%
%TD*%
%TA.AperFunction,ViaPad*%
%ADD18C,0.600000*%
%TD*%
%TA.AperFunction,Conductor*%
%ADD19C,0.200000*%
%TD*%
G04 APERTURE END LIST*
D10*
%TO.P,J4,1,Pin_1*%
%TO.N,Low*%
X100300000Y-107700000D03*
D11*
%TO.P,J4,2,Pin_2*%
%TO.N,High*%
X100300000Y-111300000D03*
%TO.P,J4,3,Pin_3*%
%TO.N,Low*%
X100300000Y-114900000D03*
%TO.P,J4,4,Pin_4*%
%TO.N,High*%
X100300000Y-118500000D03*
%TD*%
D12*
%TO.P,UNIT_1,1,INT*%
%TO.N,INT*%
X139500000Y-110620000D03*
%TO.P,UNIT_1,2,SCK*%
%TO.N,SCK*%
X139500000Y-108080000D03*
%TO.P,UNIT_1,3,SI*%
%TO.N,SI*%
X139500000Y-105540000D03*
%TO.P,UNIT_1,4,SO*%
%TO.N,SO*%
X139500000Y-103000000D03*
%TO.P,UNIT_1,5,CS*%
%TO.N,CS*%
X139500000Y-100460000D03*
%TO.P,UNIT_1,6,GND*%
%TO.N,GND*%
X139500000Y-97920000D03*
%TO.P,UNIT_1,7,VCC*%
%TO.N,+5v*%
X139500000Y-95380000D03*
D13*
%TO.P,UNIT_1,8,High_CAN*%
%TO.N,High*%
X106560000Y-105250000D03*
%TO.P,UNIT_1,9,Low_CAN*%
%TO.N,Low*%
X106560000Y-100750000D03*
%TD*%
D12*
%TO.P,U2,1,GND*%
%TO.N,GND*%
X127380000Y-121315000D03*
%TO.P,U2,2,VCC*%
%TO.N,3V3*%
X127380000Y-123855000D03*
%TO.P,U2,3,CE*%
%TO.N,CE*%
X124840000Y-121315000D03*
%TO.P,U2,4,CSN*%
%TO.N,CSN*%
X124840000Y-123855000D03*
%TO.P,U2,5,SCK*%
%TO.N,SCK*%
X122300000Y-121315000D03*
%TO.P,U2,6,MOSI*%
%TO.N,SI*%
X122300000Y-123855000D03*
%TO.P,U2,7,MISO*%
%TO.N,SO*%
X119760000Y-121315000D03*
%TO.P,U2,8,IRQ*%
%TO.N,unconnected-(U2-IRQ-Pad8)*%
X119760000Y-123855000D03*
%TO.P,U2,9*%
%TO.N,N/C*%
X116330000Y-150705000D03*
X128320000Y-150645000D03*
%TO.P,U2,10*%
X118870000Y-150765000D03*
X130860000Y-150705000D03*
%TD*%
D14*
%TO.P,J3,1,Pin_1*%
%TO.N,+5v*%
X100300000Y-123500000D03*
D15*
%TO.P,J3,2,Pin_2*%
%TO.N,GND*%
X100300000Y-128300000D03*
%TD*%
D16*
%TO.P,J1,1,3V3*%
%TO.N,3V3*%
X149300000Y-96700000D03*
D17*
%TO.P,J1,2,5V*%
%TO.N,+5v*%
X146760000Y-96700000D03*
%TO.P,J1,3,GPIO_2*%
%TO.N,unconnected-(J1-GPIO_2-Pad3)*%
X149300000Y-99240000D03*
%TO.P,J1,4,5V*%
%TO.N,+5v*%
X146760000Y-99240000D03*
%TO.P,J1,5,GPIO_3*%
%TO.N,unconnected-(J1-GPIO_3-Pad5)*%
X149300000Y-101780000D03*
%TO.P,J1,6,GND*%
%TO.N,GND*%
X146760000Y-101780000D03*
%TO.P,J1,7,GPIO_4*%
%TO.N,unconnected-(J1-GPIO_4-Pad7)*%
X149300000Y-104320000D03*
%TO.P,J1,8,GPIO_14*%
%TO.N,unconnected-(J1-GPIO_14-Pad8)*%
X146760000Y-104320000D03*
%TO.P,J1,9,GND*%
%TO.N,GND*%
X149300000Y-106860000D03*
%TO.P,J1,10,GPIO_15*%
%TO.N,unconnected-(J1-GPIO_15-Pad10)*%
X146760000Y-106860000D03*
%TO.P,J1,11,GPIO_17*%
%TO.N,unconnected-(J1-GPIO_17-Pad11)*%
X149300000Y-109400000D03*
%TO.P,J1,12,GPIO_18*%
%TO.N,unconnected-(J1-GPIO_18-Pad12)*%
X146760000Y-109400000D03*
%TO.P,J1,13,GPIO_27*%
%TO.N,unconnected-(J1-GPIO_27-Pad13)*%
X149300000Y-111940000D03*
%TO.P,J1,14,GND*%
%TO.N,GND*%
X146760000Y-111940000D03*
%TO.P,J1,15,GPIO_22*%
%TO.N,CE*%
X149300000Y-114480000D03*
%TO.P,J1,16,GPIO_23*%
%TO.N,unconnected-(J1-GPIO_23-Pad16)*%
X146760000Y-114480000D03*
%TO.P,J1,17,3V3*%
%TO.N,unconnected-(J1-3V3-Pad17)*%
X149300000Y-117020000D03*
%TO.P,J1,18,GPIO_24*%
%TO.N,unconnected-(J1-GPIO_24-Pad18)*%
X146760000Y-117020000D03*
%TO.P,J1,19,GPIO_10*%
%TO.N,SI*%
X149300000Y-119560000D03*
%TO.P,J1,20,GND*%
%TO.N,GND*%
X146760000Y-119560000D03*
%TO.P,J1,21,GPIO_9*%
%TO.N,SO*%
X149300000Y-122100000D03*
%TO.P,J1,22,GPIO_25*%
%TO.N,INT*%
X146760000Y-122100000D03*
%TO.P,J1,23,GPIO_11*%
%TO.N,SCK*%
X149300000Y-124640000D03*
%TO.P,J1,24,GPIO_8*%
%TO.N,CS*%
X146760000Y-124640000D03*
%TO.P,J1,25,GND*%
%TO.N,GND*%
X149300000Y-127180000D03*
%TO.P,J1,26,GPIO_7*%
%TO.N,CSN*%
X146760000Y-127180000D03*
%TO.P,J1,27,GPIO_0*%
%TO.N,unconnected-(J1-GPIO_0-Pad27)*%
X149300000Y-129720000D03*
%TO.P,J1,28,GPIO_1*%
%TO.N,unconnected-(J1-GPIO_1-Pad28)*%
X146760000Y-129720000D03*
%TO.P,J1,29,GPIO_5*%
%TO.N,unconnected-(J1-GPIO_5-Pad29)*%
X149300000Y-132260000D03*
%TO.P,J1,30,GND*%
%TO.N,GND*%
X146760000Y-132260000D03*
%TO.P,J1,31,GPIO_6*%
%TO.N,unconnected-(J1-GPIO_6-Pad31)*%
X149300000Y-134800000D03*
%TO.P,J1,32,GPIO_12*%
%TO.N,unconnected-(J1-GPIO_12-Pad32)*%
X146760000Y-134800000D03*
%TO.P,J1,33,GPIO_13*%
%TO.N,unconnected-(J1-GPIO_13-Pad33)*%
X149300000Y-137340000D03*
%TO.P,J1,34,GND*%
%TO.N,GND*%
X146760000Y-137340000D03*
%TO.P,J1,35,GPIO_19*%
%TO.N,unconnected-(J1-GPIO_19-Pad35)*%
X149300000Y-139880000D03*
%TO.P,J1,36,GPIO_16*%
%TO.N,unconnected-(J1-GPIO_16-Pad36)*%
X146760000Y-139880000D03*
%TO.P,J1,37,GPIO_26*%
%TO.N,unconnected-(J1-GPIO_26-Pad37)*%
X149300000Y-142420000D03*
%TO.P,J1,38,GPIO_20*%
%TO.N,unconnected-(J1-GPIO_20-Pad38)*%
X146760000Y-142420000D03*
%TO.P,J1,39,GND*%
%TO.N,GND*%
X149300000Y-144960000D03*
%TO.P,J1,40,GPIO_21*%
%TO.N,unconnected-(J1-GPIO_21-Pad40)*%
X146760000Y-144960000D03*
%TD*%
D18*
%TO.N,CE*%
X143200000Y-118800000D03*
X141300000Y-118800000D03*
%TO.N,SO*%
X144000000Y-113100000D03*
X144000000Y-105600000D03*
%TO.N,SI*%
X139500000Y-114100000D03*
%TO.N,CS*%
X140500000Y-117800000D03*
%TD*%
D19*
%TO.N,INT*%
X138300000Y-116400000D02*
X138300000Y-111820000D01*
X139100000Y-117200000D02*
X138300000Y-116400000D01*
X144000000Y-119340000D02*
X144000000Y-118500000D01*
X142700000Y-117200000D02*
X139100000Y-117200000D01*
X138300000Y-111820000D02*
X139500000Y-110620000D01*
X144000000Y-118500000D02*
X142700000Y-117200000D01*
X146760000Y-122100000D02*
X144000000Y-119340000D01*
%TO.N,CE*%
X143200000Y-118800000D02*
X141300000Y-118800000D01*
%TO.N,CSN*%
X145480000Y-125900000D02*
X146760000Y-127180000D01*
X124840000Y-125140000D02*
X125600000Y-125900000D01*
X124840000Y-123855000D02*
X124840000Y-125140000D01*
X125600000Y-125900000D02*
X145480000Y-125900000D01*
%TO.N,SO*%
X146453654Y-115800000D02*
X149706346Y-115800000D01*
X149706346Y-115800000D02*
X150500000Y-116593654D01*
X139500000Y-103000000D02*
X141400000Y-103000000D01*
X150500000Y-116593654D02*
X150500000Y-120900000D01*
X144000000Y-113100000D02*
X144000000Y-113346346D01*
X150500000Y-120900000D02*
X149300000Y-122100000D01*
X141400000Y-103000000D02*
X144000000Y-105600000D01*
X144000000Y-113346346D02*
X146453654Y-115800000D01*
%TO.N,SCK*%
X125000000Y-117300000D02*
X125000000Y-117200000D01*
X151001428Y-108501428D02*
X151001428Y-122938572D01*
X129100000Y-118500000D02*
X139500000Y-108100000D01*
X122300000Y-121315000D02*
X122300000Y-120000000D01*
X151001428Y-122938572D02*
X149300000Y-124640000D01*
X125700000Y-117200000D02*
X127000000Y-118500000D01*
X150580000Y-108080000D02*
X151001428Y-108501428D01*
X122300000Y-120000000D02*
X125000000Y-117300000D01*
X127000000Y-118500000D02*
X129100000Y-118500000D01*
X125000000Y-117200000D02*
X125700000Y-117200000D01*
X139500000Y-108080000D02*
X150580000Y-108080000D01*
X139500000Y-108100000D02*
X139500000Y-108080000D01*
%TO.N,SI*%
X149300000Y-119560000D02*
X148040000Y-118300000D01*
X148040000Y-118300000D02*
X145100000Y-118300000D01*
X140900000Y-114100000D02*
X139500000Y-114100000D01*
X145100000Y-118300000D02*
X140900000Y-114100000D01*
%TO.N,CS*%
X141840000Y-124640000D02*
X140500000Y-123300000D01*
X146760000Y-124640000D02*
X141840000Y-124640000D01*
X140500000Y-123300000D02*
X140500000Y-117800000D01*
%TD*%
M02*
