%TF.GenerationSoftware,KiCad,Pcbnew,8.0.8-8.0.8-0~ubuntu24.04.1*%
%TF.CreationDate,2025-02-15T13:21:10-07:00*%
%TF.ProjectId,ESP32 IMU,45535033-3220-4494-9d55-2e6b69636164,rev?*%
%TF.SameCoordinates,Original*%
%TF.FileFunction,Legend,Top*%
%TF.FilePolarity,Positive*%
%FSLAX46Y46*%
G04 Gerber Fmt 4.6, Leading zero omitted, Abs format (unit mm)*
G04 Created by KiCad (PCBNEW 8.0.8-8.0.8-0~ubuntu24.04.1) date 2025-02-15 13:21:10*
%MOMM*%
%LPD*%
G01*
G04 APERTURE LIST*
%ADD10C,0.100000*%
%ADD11C,0.300000*%
%ADD12C,0.000000*%
G04 APERTURE END LIST*
D10*
X126794900Y-126750000D02*
X132205100Y-126750000D01*
X132205100Y-129975800D01*
X126794900Y-129975800D01*
X126794900Y-126750000D01*
X115794900Y-64524200D02*
X121205100Y-64524200D01*
X121205100Y-67750000D01*
X115794900Y-67750000D01*
X115794900Y-64524200D01*
X126215979Y-79636533D02*
X127739789Y-79636533D01*
X127780074Y-60622419D02*
X127303884Y-60622419D01*
X127303884Y-60622419D02*
X127303884Y-59622419D01*
X131041979Y-79738133D02*
X132565789Y-79738133D01*
X131803884Y-80500038D02*
X131803884Y-78976228D01*
X123553884Y-60622419D02*
X123553884Y-59622419D01*
X123553884Y-60098609D02*
X124125312Y-60098609D01*
X124125312Y-60622419D02*
X124125312Y-59622419D01*
X135030074Y-60622419D02*
X134553884Y-60622419D01*
X134553884Y-60622419D02*
X134553884Y-59622419D01*
X121851390Y-80203884D02*
X121851390Y-80537217D01*
X121327580Y-80680074D02*
X121327580Y-80203884D01*
X121327580Y-80203884D02*
X122327580Y-80203884D01*
X122327580Y-80203884D02*
X122327580Y-80680074D01*
X121375200Y-81061027D02*
X121327580Y-81203884D01*
X121327580Y-81203884D02*
X121327580Y-81441979D01*
X121327580Y-81441979D02*
X121375200Y-81537217D01*
X121375200Y-81537217D02*
X121422819Y-81584836D01*
X121422819Y-81584836D02*
X121518057Y-81632455D01*
X121518057Y-81632455D02*
X121613295Y-81632455D01*
X121613295Y-81632455D02*
X121708533Y-81584836D01*
X121708533Y-81584836D02*
X121756152Y-81537217D01*
X121756152Y-81537217D02*
X121803771Y-81441979D01*
X121803771Y-81441979D02*
X121851390Y-81251503D01*
X121851390Y-81251503D02*
X121899009Y-81156265D01*
X121899009Y-81156265D02*
X121946628Y-81108646D01*
X121946628Y-81108646D02*
X122041866Y-81061027D01*
X122041866Y-81061027D02*
X122137104Y-81061027D01*
X122137104Y-81061027D02*
X122232342Y-81108646D01*
X122232342Y-81108646D02*
X122279961Y-81156265D01*
X122279961Y-81156265D02*
X122327580Y-81251503D01*
X122327580Y-81251503D02*
X122327580Y-81489598D01*
X122327580Y-81489598D02*
X122279961Y-81632455D01*
X121327580Y-82061027D02*
X122327580Y-82061027D01*
X122327580Y-82061027D02*
X122327580Y-82441979D01*
X122327580Y-82441979D02*
X122279961Y-82537217D01*
X122279961Y-82537217D02*
X122232342Y-82584836D01*
X122232342Y-82584836D02*
X122137104Y-82632455D01*
X122137104Y-82632455D02*
X121994247Y-82632455D01*
X121994247Y-82632455D02*
X121899009Y-82584836D01*
X121899009Y-82584836D02*
X121851390Y-82537217D01*
X121851390Y-82537217D02*
X121803771Y-82441979D01*
X121803771Y-82441979D02*
X121803771Y-82061027D01*
X121708533Y-83061027D02*
X121708533Y-83822932D01*
X122327580Y-84203884D02*
X122327580Y-84822931D01*
X122327580Y-84822931D02*
X121946628Y-84489598D01*
X121946628Y-84489598D02*
X121946628Y-84632455D01*
X121946628Y-84632455D02*
X121899009Y-84727693D01*
X121899009Y-84727693D02*
X121851390Y-84775312D01*
X121851390Y-84775312D02*
X121756152Y-84822931D01*
X121756152Y-84822931D02*
X121518057Y-84822931D01*
X121518057Y-84822931D02*
X121422819Y-84775312D01*
X121422819Y-84775312D02*
X121375200Y-84727693D01*
X121375200Y-84727693D02*
X121327580Y-84632455D01*
X121327580Y-84632455D02*
X121327580Y-84346741D01*
X121327580Y-84346741D02*
X121375200Y-84251503D01*
X121375200Y-84251503D02*
X121422819Y-84203884D01*
X122232342Y-85203884D02*
X122279961Y-85251503D01*
X122279961Y-85251503D02*
X122327580Y-85346741D01*
X122327580Y-85346741D02*
X122327580Y-85584836D01*
X122327580Y-85584836D02*
X122279961Y-85680074D01*
X122279961Y-85680074D02*
X122232342Y-85727693D01*
X122232342Y-85727693D02*
X122137104Y-85775312D01*
X122137104Y-85775312D02*
X122041866Y-85775312D01*
X122041866Y-85775312D02*
X121899009Y-85727693D01*
X121899009Y-85727693D02*
X121327580Y-85156265D01*
X121327580Y-85156265D02*
X121327580Y-85775312D01*
X121327580Y-87108646D02*
X121375200Y-87013408D01*
X121375200Y-87013408D02*
X121422819Y-86965789D01*
X121422819Y-86965789D02*
X121518057Y-86918170D01*
X121518057Y-86918170D02*
X121803771Y-86918170D01*
X121803771Y-86918170D02*
X121899009Y-86965789D01*
X121899009Y-86965789D02*
X121946628Y-87013408D01*
X121946628Y-87013408D02*
X121994247Y-87108646D01*
X121994247Y-87108646D02*
X121994247Y-87251503D01*
X121994247Y-87251503D02*
X121946628Y-87346741D01*
X121946628Y-87346741D02*
X121899009Y-87394360D01*
X121899009Y-87394360D02*
X121803771Y-87441979D01*
X121803771Y-87441979D02*
X121518057Y-87441979D01*
X121518057Y-87441979D02*
X121422819Y-87394360D01*
X121422819Y-87394360D02*
X121375200Y-87346741D01*
X121375200Y-87346741D02*
X121327580Y-87251503D01*
X121327580Y-87251503D02*
X121327580Y-87108646D01*
X121994247Y-87870551D02*
X121327580Y-87870551D01*
X121899009Y-87870551D02*
X121946628Y-87918170D01*
X121946628Y-87918170D02*
X121994247Y-88013408D01*
X121994247Y-88013408D02*
X121994247Y-88156265D01*
X121994247Y-88156265D02*
X121946628Y-88251503D01*
X121946628Y-88251503D02*
X121851390Y-88299122D01*
X121851390Y-88299122D02*
X121327580Y-88299122D01*
X121994247Y-89394361D02*
X121994247Y-89775313D01*
X122327580Y-89537218D02*
X121470438Y-89537218D01*
X121470438Y-89537218D02*
X121375200Y-89584837D01*
X121375200Y-89584837D02*
X121327580Y-89680075D01*
X121327580Y-89680075D02*
X121327580Y-89775313D01*
X121327580Y-90108647D02*
X122327580Y-90108647D01*
X121327580Y-90537218D02*
X121851390Y-90537218D01*
X121851390Y-90537218D02*
X121946628Y-90489599D01*
X121946628Y-90489599D02*
X121994247Y-90394361D01*
X121994247Y-90394361D02*
X121994247Y-90251504D01*
X121994247Y-90251504D02*
X121946628Y-90156266D01*
X121946628Y-90156266D02*
X121899009Y-90108647D01*
X121327580Y-91013409D02*
X121994247Y-91013409D01*
X122327580Y-91013409D02*
X122279961Y-90965790D01*
X122279961Y-90965790D02*
X122232342Y-91013409D01*
X122232342Y-91013409D02*
X122279961Y-91061028D01*
X122279961Y-91061028D02*
X122327580Y-91013409D01*
X122327580Y-91013409D02*
X122232342Y-91013409D01*
X121375200Y-91441980D02*
X121327580Y-91537218D01*
X121327580Y-91537218D02*
X121327580Y-91727694D01*
X121327580Y-91727694D02*
X121375200Y-91822932D01*
X121375200Y-91822932D02*
X121470438Y-91870551D01*
X121470438Y-91870551D02*
X121518057Y-91870551D01*
X121518057Y-91870551D02*
X121613295Y-91822932D01*
X121613295Y-91822932D02*
X121660914Y-91727694D01*
X121660914Y-91727694D02*
X121660914Y-91584837D01*
X121660914Y-91584837D02*
X121708533Y-91489599D01*
X121708533Y-91489599D02*
X121803771Y-91441980D01*
X121803771Y-91441980D02*
X121851390Y-91441980D01*
X121851390Y-91441980D02*
X121946628Y-91489599D01*
X121946628Y-91489599D02*
X121994247Y-91584837D01*
X121994247Y-91584837D02*
X121994247Y-91727694D01*
X121994247Y-91727694D02*
X121946628Y-91822932D01*
X121375200Y-93013409D02*
X121327580Y-93108647D01*
X121327580Y-93108647D02*
X121327580Y-93299123D01*
X121327580Y-93299123D02*
X121375200Y-93394361D01*
X121375200Y-93394361D02*
X121470438Y-93441980D01*
X121470438Y-93441980D02*
X121518057Y-93441980D01*
X121518057Y-93441980D02*
X121613295Y-93394361D01*
X121613295Y-93394361D02*
X121660914Y-93299123D01*
X121660914Y-93299123D02*
X121660914Y-93156266D01*
X121660914Y-93156266D02*
X121708533Y-93061028D01*
X121708533Y-93061028D02*
X121803771Y-93013409D01*
X121803771Y-93013409D02*
X121851390Y-93013409D01*
X121851390Y-93013409D02*
X121946628Y-93061028D01*
X121946628Y-93061028D02*
X121994247Y-93156266D01*
X121994247Y-93156266D02*
X121994247Y-93299123D01*
X121994247Y-93299123D02*
X121946628Y-93394361D01*
X121327580Y-93870552D02*
X121994247Y-93870552D01*
X122327580Y-93870552D02*
X122279961Y-93822933D01*
X122279961Y-93822933D02*
X122232342Y-93870552D01*
X122232342Y-93870552D02*
X122279961Y-93918171D01*
X122279961Y-93918171D02*
X122327580Y-93870552D01*
X122327580Y-93870552D02*
X122232342Y-93870552D01*
X121327580Y-94775313D02*
X122327580Y-94775313D01*
X121375200Y-94775313D02*
X121327580Y-94680075D01*
X121327580Y-94680075D02*
X121327580Y-94489599D01*
X121327580Y-94489599D02*
X121375200Y-94394361D01*
X121375200Y-94394361D02*
X121422819Y-94346742D01*
X121422819Y-94346742D02*
X121518057Y-94299123D01*
X121518057Y-94299123D02*
X121803771Y-94299123D01*
X121803771Y-94299123D02*
X121899009Y-94346742D01*
X121899009Y-94346742D02*
X121946628Y-94394361D01*
X121946628Y-94394361D02*
X121994247Y-94489599D01*
X121994247Y-94489599D02*
X121994247Y-94680075D01*
X121994247Y-94680075D02*
X121946628Y-94775313D01*
X121375200Y-95632456D02*
X121327580Y-95537218D01*
X121327580Y-95537218D02*
X121327580Y-95346742D01*
X121327580Y-95346742D02*
X121375200Y-95251504D01*
X121375200Y-95251504D02*
X121470438Y-95203885D01*
X121470438Y-95203885D02*
X121851390Y-95203885D01*
X121851390Y-95203885D02*
X121946628Y-95251504D01*
X121946628Y-95251504D02*
X121994247Y-95346742D01*
X121994247Y-95346742D02*
X121994247Y-95537218D01*
X121994247Y-95537218D02*
X121946628Y-95632456D01*
X121946628Y-95632456D02*
X121851390Y-95680075D01*
X121851390Y-95680075D02*
X121756152Y-95680075D01*
X121756152Y-95680075D02*
X121660914Y-95203885D01*
D11*
X116468458Y-67013838D02*
X116468458Y-65013838D01*
X117420839Y-67013838D02*
X117420839Y-65013838D01*
X117420839Y-65013838D02*
X118087506Y-66442409D01*
X118087506Y-66442409D02*
X118754172Y-65013838D01*
X118754172Y-65013838D02*
X118754172Y-67013838D01*
X119706553Y-65013838D02*
X119706553Y-66632885D01*
X119706553Y-66632885D02*
X119801791Y-66823361D01*
X119801791Y-66823361D02*
X119897029Y-66918600D01*
X119897029Y-66918600D02*
X120087505Y-67013838D01*
X120087505Y-67013838D02*
X120468458Y-67013838D01*
X120468458Y-67013838D02*
X120658934Y-66918600D01*
X120658934Y-66918600D02*
X120754172Y-66823361D01*
X120754172Y-66823361D02*
X120849410Y-66632885D01*
X120849410Y-66632885D02*
X120849410Y-65013838D01*
D10*
X130803884Y-60622419D02*
X130803884Y-59622419D01*
X130803884Y-60098609D02*
X131375312Y-60098609D01*
X131375312Y-60622419D02*
X131375312Y-59622419D01*
D11*
X127379558Y-129410638D02*
X127379558Y-127410638D01*
X128331939Y-129410638D02*
X128331939Y-127410638D01*
X128331939Y-127410638D02*
X128998606Y-128839209D01*
X128998606Y-128839209D02*
X129665272Y-127410638D01*
X129665272Y-127410638D02*
X129665272Y-129410638D01*
X130617653Y-127410638D02*
X130617653Y-129029685D01*
X130617653Y-129029685D02*
X130712891Y-129220161D01*
X130712891Y-129220161D02*
X130808129Y-129315400D01*
X130808129Y-129315400D02*
X130998605Y-129410638D01*
X130998605Y-129410638D02*
X131379558Y-129410638D01*
X131379558Y-129410638D02*
X131570034Y-129315400D01*
X131570034Y-129315400D02*
X131665272Y-129220161D01*
X131665272Y-129220161D02*
X131760510Y-129029685D01*
X131760510Y-129029685D02*
X131760510Y-127410638D01*
D12*
%TO.C,G\u002A\u002A\u002A*%
G36*
X122849652Y-115386464D02*
G01*
X122952118Y-115527298D01*
X123018304Y-115710629D01*
X123027709Y-115894405D01*
X123021552Y-115925236D01*
X122947244Y-116061477D01*
X122836831Y-116089719D01*
X122715052Y-116013076D01*
X122624596Y-115875262D01*
X122560159Y-115666250D01*
X122565658Y-115485397D01*
X122634994Y-115363829D01*
X122731409Y-115330174D01*
X122849652Y-115386464D01*
G37*
G36*
X135957772Y-115460167D02*
G01*
X136000893Y-115483375D01*
X136016623Y-115546401D01*
X136004794Y-115669164D01*
X135965236Y-115871582D01*
X135897780Y-116173575D01*
X135880710Y-116248628D01*
X135811382Y-116539312D01*
X135755864Y-116727888D01*
X135704498Y-116836742D01*
X135647628Y-116888258D01*
X135598720Y-116902286D01*
X135487800Y-116887686D01*
X135460848Y-116840987D01*
X135473704Y-116747978D01*
X135508416Y-116561267D01*
X135559204Y-116310781D01*
X135602392Y-116108152D01*
X135668095Y-115816411D01*
X135719312Y-115627234D01*
X135765593Y-115518802D01*
X135816485Y-115469297D01*
X135881539Y-115456900D01*
X135887429Y-115456858D01*
X135957772Y-115460167D01*
G37*
G36*
X126177322Y-115477591D02*
G01*
X126191738Y-115553555D01*
X126187817Y-115567706D01*
X126160754Y-115672660D01*
X126116800Y-115859133D01*
X126063203Y-116094470D01*
X126007209Y-116346015D01*
X125956066Y-116581116D01*
X125917021Y-116767117D01*
X125897322Y-116871364D01*
X125896260Y-116881374D01*
X125841788Y-116905475D01*
X125733637Y-116913716D01*
X125616641Y-116893443D01*
X125598012Y-116819312D01*
X125602080Y-116802868D01*
X125628619Y-116695621D01*
X125674686Y-116497498D01*
X125732705Y-116241373D01*
X125769902Y-116074439D01*
X125834346Y-115792866D01*
X125884311Y-115612884D01*
X125930543Y-115511936D01*
X125983785Y-115467465D01*
X126054783Y-115456916D01*
X126064082Y-115456858D01*
X126177322Y-115477591D01*
G37*
G36*
X126653362Y-115462554D02*
G01*
X126696825Y-115494190D01*
X126707361Y-115573590D01*
X126685737Y-115722575D01*
X126632717Y-115962970D01*
X126598979Y-116106110D01*
X126482584Y-116597007D01*
X126696155Y-116597007D01*
X126842541Y-116609929D01*
X126900974Y-116667304D01*
X126909726Y-116755361D01*
X126901679Y-116843123D01*
X126857707Y-116890506D01*
X126748062Y-116909904D01*
X126542997Y-116913712D01*
X126529676Y-116913716D01*
X126287307Y-116901845D01*
X126166002Y-116865773D01*
X126149626Y-116836581D01*
X126162463Y-116745507D01*
X126197129Y-116560476D01*
X126247856Y-116311170D01*
X126291170Y-116108152D01*
X126356873Y-115816411D01*
X126408090Y-115627234D01*
X126454371Y-115518802D01*
X126505263Y-115469297D01*
X126570317Y-115456900D01*
X126576207Y-115456858D01*
X126653362Y-115462554D01*
G37*
G36*
X129355407Y-115513633D02*
G01*
X129443392Y-115583541D01*
X129547560Y-115735184D01*
X129550654Y-115849614D01*
X129474880Y-115902403D01*
X129342443Y-115869121D01*
X129247058Y-115799528D01*
X129098141Y-115727697D01*
X128954755Y-115776957D01*
X128827040Y-115941798D01*
X128776174Y-116055366D01*
X128715237Y-116300847D01*
X128729779Y-116490533D01*
X128809125Y-116607390D01*
X128942601Y-116634384D01*
X129098129Y-116569119D01*
X129211454Y-116509435D01*
X129284349Y-116531512D01*
X129324681Y-116574942D01*
X129368261Y-116659187D01*
X129322552Y-116739776D01*
X129260131Y-116794292D01*
X129049326Y-116894385D01*
X128813944Y-116900905D01*
X128604556Y-116814512D01*
X128569319Y-116785279D01*
X128428107Y-116593057D01*
X128386300Y-116358739D01*
X128430330Y-116088771D01*
X128547546Y-115816995D01*
X128721576Y-115612165D01*
X128929506Y-115485709D01*
X129148421Y-115449056D01*
X129355407Y-115513633D01*
G37*
G36*
X131455012Y-115460389D02*
G01*
X131586365Y-115476268D01*
X131645695Y-115512426D01*
X131660296Y-115576793D01*
X131660350Y-115583541D01*
X131622098Y-115683843D01*
X131506264Y-115710224D01*
X131432972Y-115713375D01*
X131379725Y-115736870D01*
X131336976Y-115801777D01*
X131295178Y-115929164D01*
X131244782Y-116140095D01*
X131183314Y-116422818D01*
X131126885Y-116669055D01*
X131079861Y-116815891D01*
X131028931Y-116888555D01*
X130960786Y-116912278D01*
X130924355Y-116913716D01*
X130813600Y-116893279D01*
X130796567Y-116808646D01*
X130803985Y-116771197D01*
X130894675Y-116375710D01*
X130959176Y-116089808D01*
X131000488Y-115899800D01*
X131021610Y-115791995D01*
X131025997Y-115757730D01*
X130972666Y-115721517D01*
X130874509Y-115710224D01*
X130764316Y-115689117D01*
X130749775Y-115606875D01*
X130755213Y-115583541D01*
X130787817Y-115515898D01*
X130860819Y-115477535D01*
X131003640Y-115460508D01*
X131224346Y-115456858D01*
X131455012Y-115460389D01*
G37*
G36*
X135205096Y-115492300D02*
G01*
X135356917Y-115579925D01*
X135468548Y-115691676D01*
X135506446Y-115799500D01*
X135495417Y-115832218D01*
X135396028Y-115894352D01*
X135269040Y-115882874D01*
X135184576Y-115805237D01*
X135100219Y-115717430D01*
X134974280Y-115724556D01*
X134838520Y-115818257D01*
X134763396Y-115916085D01*
X134670025Y-116135006D01*
X134641540Y-116353717D01*
X134680018Y-116530775D01*
X134729380Y-116594485D01*
X134842465Y-116634712D01*
X134973941Y-116621813D01*
X135066737Y-116566721D01*
X135080798Y-116527169D01*
X135125728Y-116501538D01*
X135205123Y-116532403D01*
X135293289Y-116624702D01*
X135264332Y-116730865D01*
X135123867Y-116833372D01*
X135106004Y-116841794D01*
X134839435Y-116909628D01*
X134606387Y-116856038D01*
X134476174Y-116758241D01*
X134350908Y-116552172D01*
X134319253Y-116305500D01*
X134368684Y-116046792D01*
X134486681Y-115804615D01*
X134660720Y-115607537D01*
X134878280Y-115484126D01*
X135046628Y-115456858D01*
X135205096Y-115492300D01*
G37*
G36*
X127975056Y-115501421D02*
G01*
X128177429Y-115632283D01*
X128285523Y-115845199D01*
X128303144Y-116008218D01*
X128247337Y-116342767D01*
X128089807Y-116612710D01*
X127844941Y-116804103D01*
X127527127Y-116902999D01*
X127368953Y-116913617D01*
X127193751Y-116902678D01*
X127114195Y-116861540D01*
X127099392Y-116802868D01*
X127112518Y-116695842D01*
X127144865Y-116516204D01*
X127433913Y-116516204D01*
X127444479Y-116587209D01*
X127529849Y-116603361D01*
X127654426Y-116571932D01*
X127782609Y-116500198D01*
X127855253Y-116430111D01*
X127954477Y-116240956D01*
X127985750Y-116039455D01*
X127948515Y-115867257D01*
X127864015Y-115775794D01*
X127736988Y-115722621D01*
X127653865Y-115741367D01*
X127595221Y-115849848D01*
X127541636Y-116065878D01*
X127540193Y-116072813D01*
X127494047Y-116283908D01*
X127453644Y-116449647D01*
X127433913Y-116516204D01*
X127144865Y-116516204D01*
X127148116Y-116498149D01*
X127200022Y-116242524D01*
X127236546Y-116074439D01*
X127374058Y-115456858D01*
X127683175Y-115456858D01*
X127975056Y-115501421D01*
G37*
G36*
X121345947Y-116402296D02*
G01*
X121418434Y-116422053D01*
X121445154Y-116453547D01*
X121518528Y-116533546D01*
X121663031Y-116631410D01*
X121723672Y-116664410D01*
X121885997Y-116739091D01*
X121990873Y-116753137D01*
X122089953Y-116710302D01*
X122117041Y-116693004D01*
X122255371Y-116631889D01*
X122407855Y-116647756D01*
X122466389Y-116666556D01*
X122659112Y-116704340D01*
X122831507Y-116695843D01*
X122950525Y-116683125D01*
X122969132Y-116732256D01*
X122903991Y-116761441D01*
X122737934Y-116806111D01*
X122495119Y-116861618D01*
X122199703Y-116923312D01*
X121875844Y-116986546D01*
X121547700Y-117046670D01*
X121239427Y-117099035D01*
X120975184Y-117138994D01*
X120779128Y-117161897D01*
X120718080Y-117165433D01*
X120660116Y-117111051D01*
X120638903Y-116981548D01*
X120630182Y-116875834D01*
X120584171Y-116811557D01*
X120471100Y-116767868D01*
X120274689Y-116726489D01*
X120036477Y-116677714D01*
X119819257Y-116627779D01*
X119720449Y-116601781D01*
X119530424Y-116546598D01*
X119720449Y-116536449D01*
X119858300Y-116525849D01*
X120088728Y-116504754D01*
X120378367Y-116476328D01*
X120661407Y-116447166D01*
X120987874Y-116415019D01*
X121209240Y-116400007D01*
X121345947Y-116402296D01*
G37*
G36*
X138207495Y-115492935D02*
G01*
X138375410Y-115583063D01*
X138483010Y-115700087D01*
X138501247Y-115766789D01*
X138451670Y-115843228D01*
X138337711Y-115864441D01*
X138211533Y-115824864D01*
X138179918Y-115801055D01*
X138028503Y-115730662D01*
X137877139Y-115779111D01*
X137742338Y-115939636D01*
X137715589Y-115991327D01*
X137639537Y-116221473D01*
X137630229Y-116422378D01*
X137676953Y-116574111D01*
X137768995Y-116656737D01*
X137895641Y-116650323D01*
X138021661Y-116560812D01*
X138111341Y-116437080D01*
X138088575Y-116362850D01*
X137989870Y-116343641D01*
X137888897Y-116309520D01*
X137879568Y-116232793D01*
X137943683Y-116161780D01*
X138075882Y-116112808D01*
X138231617Y-116091225D01*
X138366340Y-116102378D01*
X138435500Y-116151615D01*
X138437552Y-116165809D01*
X138405842Y-116372543D01*
X138327210Y-116589370D01*
X138224056Y-116762192D01*
X138167983Y-116816836D01*
X137961031Y-116899870D01*
X137731289Y-116901880D01*
X137533045Y-116825121D01*
X137489392Y-116788643D01*
X137357929Y-116577212D01*
X137318562Y-116324919D01*
X137359741Y-116060680D01*
X137469916Y-115813412D01*
X137637538Y-115612034D01*
X137851057Y-115485463D01*
X138021312Y-115456858D01*
X138207495Y-115492935D01*
G37*
G36*
X134020255Y-115461094D02*
G01*
X134075902Y-115490704D01*
X134109440Y-115571035D01*
X134131580Y-115727438D01*
X134152577Y-115979426D01*
X134179115Y-116342223D01*
X134191882Y-116597467D01*
X134189332Y-116763698D01*
X134169920Y-116859457D01*
X134132102Y-116903283D01*
X134074720Y-116913716D01*
X133963260Y-116860216D01*
X133922296Y-116787032D01*
X133860142Y-116693914D01*
X133718542Y-116661192D01*
X133676778Y-116660349D01*
X133476818Y-116701378D01*
X133385274Y-116787032D01*
X133299995Y-116863591D01*
X133184156Y-116911837D01*
X133086407Y-116917976D01*
X133053866Y-116880990D01*
X133080670Y-116814998D01*
X133153762Y-116658936D01*
X133262158Y-116435732D01*
X133304179Y-116351063D01*
X133636469Y-116351063D01*
X133699482Y-116402436D01*
X133750624Y-116406982D01*
X133827915Y-116389735D01*
X133864952Y-116316822D01*
X133874827Y-116156490D01*
X133874652Y-116106110D01*
X133871997Y-115805237D01*
X133750624Y-116026932D01*
X133653516Y-116230771D01*
X133636469Y-116351063D01*
X133304179Y-116351063D01*
X133394876Y-116168316D01*
X133402774Y-116152561D01*
X133551753Y-115859899D01*
X133660391Y-115662891D01*
X133742897Y-115542850D01*
X133813479Y-115481094D01*
X133886344Y-115458936D01*
X133931790Y-115456858D01*
X134020255Y-115461094D01*
G37*
G36*
X134898150Y-111151721D02*
G01*
X135065337Y-111157262D01*
X135142270Y-111165129D01*
X135144140Y-111166644D01*
X135127466Y-111229681D01*
X135080685Y-111397311D01*
X135008653Y-111652368D01*
X134916231Y-111977683D01*
X134808276Y-112356089D01*
X134738362Y-112600451D01*
X134582521Y-113132819D01*
X134448838Y-113557019D01*
X134329880Y-113888063D01*
X134218217Y-114140961D01*
X134106415Y-114330724D01*
X133987042Y-114472365D01*
X133852667Y-114580894D01*
X133718953Y-114659446D01*
X133456025Y-114750201D01*
X133117854Y-114802140D01*
X132750230Y-114813864D01*
X132398940Y-114783978D01*
X132109773Y-114711085D01*
X132103741Y-114708702D01*
X131916407Y-114615394D01*
X131838881Y-114514133D01*
X131866817Y-114380738D01*
X131995866Y-114191029D01*
X132007933Y-114175820D01*
X132181857Y-113957847D01*
X132412001Y-114077931D01*
X132687388Y-114164257D01*
X132965738Y-114154053D01*
X133207034Y-114051420D01*
X133280828Y-113988895D01*
X133370625Y-113847107D01*
X133478204Y-113585965D01*
X133604411Y-113203245D01*
X133686906Y-112923192D01*
X133791264Y-112557909D01*
X133895130Y-112195829D01*
X133988072Y-111873224D01*
X134059658Y-111626365D01*
X134074036Y-111577182D01*
X134199380Y-111149626D01*
X134671760Y-111149626D01*
X134898150Y-111151721D01*
G37*
G36*
X132894099Y-115498215D02*
G01*
X133083145Y-115610966D01*
X133173425Y-115778130D01*
X133155549Y-115982728D01*
X133026619Y-116200148D01*
X132925582Y-116350187D01*
X132896407Y-116505876D01*
X132908276Y-116648399D01*
X132924104Y-116815560D01*
X132902887Y-116892472D01*
X132831572Y-116913277D01*
X132806851Y-116913716D01*
X132716757Y-116902912D01*
X132660095Y-116849956D01*
X132616109Y-116724027D01*
X132582887Y-116581172D01*
X132524409Y-116439744D01*
X132449901Y-116413998D01*
X132378440Y-116497896D01*
X132332784Y-116660349D01*
X132287711Y-116834899D01*
X132217174Y-116907642D01*
X132176891Y-116913716D01*
X132059293Y-116895195D01*
X132023650Y-116875852D01*
X132003638Y-116788899D01*
X132008833Y-116765004D01*
X132031644Y-116674952D01*
X132074387Y-116491645D01*
X132130025Y-116245607D01*
X132168023Y-116074439D01*
X132188040Y-115983634D01*
X132484761Y-115983634D01*
X132514568Y-116066056D01*
X132626184Y-116081717D01*
X132657980Y-116078646D01*
X132788545Y-116038213D01*
X132831059Y-115935394D01*
X132832170Y-115901117D01*
X132789799Y-115761824D01*
X132713077Y-115720695D01*
X132579793Y-115748595D01*
X132499208Y-115875276D01*
X132484761Y-115983634D01*
X132188040Y-115983634D01*
X132304165Y-115456858D01*
X132615674Y-115456858D01*
X132894099Y-115498215D01*
G37*
G36*
X136519941Y-115473388D02*
G01*
X136583573Y-115540112D01*
X136644939Y-115682729D01*
X136707912Y-115884414D01*
X136833036Y-116311970D01*
X136926971Y-115900249D01*
X136986169Y-115671561D01*
X137042690Y-115540953D01*
X137111274Y-115481026D01*
X137159331Y-115468288D01*
X137233310Y-115466029D01*
X137276722Y-115497477D01*
X137289397Y-115580839D01*
X137271162Y-115734318D01*
X137221847Y-115976121D01*
X137151692Y-116280299D01*
X137081666Y-116562673D01*
X137025217Y-116743494D01*
X136972052Y-116845621D01*
X136911875Y-116891914D01*
X136871774Y-116901901D01*
X136789399Y-116896721D01*
X136728109Y-116835418D01*
X136669708Y-116692006D01*
X136627850Y-116553521D01*
X136551761Y-116300162D01*
X136496906Y-116166361D01*
X136452837Y-116149017D01*
X136409105Y-116245031D01*
X136355263Y-116451303D01*
X136350502Y-116471231D01*
X136289471Y-116698643D01*
X136232101Y-116828492D01*
X136162959Y-116888447D01*
X136110100Y-116902286D01*
X135999437Y-116904345D01*
X135967581Y-116885780D01*
X135980669Y-116808443D01*
X136015105Y-116640410D01*
X136063653Y-116414399D01*
X136119075Y-116163129D01*
X136174135Y-115919319D01*
X136221594Y-115715687D01*
X136254215Y-115584953D01*
X136259139Y-115567706D01*
X136343921Y-115477923D01*
X136437807Y-115456858D01*
X136519941Y-115473388D01*
G37*
G36*
X130354643Y-115461107D02*
G01*
X130408252Y-115490275D01*
X130441187Y-115568989D01*
X130463014Y-115721880D01*
X130483299Y-115973576D01*
X130486048Y-116011097D01*
X130506080Y-116283217D01*
X130523968Y-116523392D01*
X130536689Y-116691114D01*
X130539240Y-116723691D01*
X130519935Y-116850691D01*
X130416230Y-116901256D01*
X130409352Y-116902286D01*
X130297774Y-116890286D01*
X130266836Y-116792935D01*
X130266833Y-116791438D01*
X130246616Y-116705406D01*
X130163362Y-116667712D01*
X130017735Y-116660349D01*
X129841299Y-116676609D01*
X129751921Y-116736097D01*
X129728429Y-116787032D01*
X129635414Y-116893488D01*
X129534136Y-116913716D01*
X129417047Y-116899876D01*
X129380050Y-116874370D01*
X129407659Y-116806122D01*
X129482929Y-116648830D01*
X129594523Y-116425558D01*
X129619647Y-116376593D01*
X129950125Y-116376593D01*
X130000272Y-116404116D01*
X130106475Y-116403165D01*
X130202375Y-116377878D01*
X130224602Y-116359476D01*
X130233043Y-116271944D01*
X130218910Y-116112313D01*
X130210704Y-116058603D01*
X130168219Y-115805237D01*
X130059172Y-116075721D01*
X129994139Y-116243066D01*
X129955129Y-116355100D01*
X129950125Y-116376593D01*
X129619647Y-116376593D01*
X129731106Y-116159368D01*
X129738079Y-116145941D01*
X129891775Y-115854899D01*
X130004062Y-115659122D01*
X130089247Y-115540101D01*
X130161639Y-115479327D01*
X130235547Y-115458294D01*
X130270797Y-115456858D01*
X130354643Y-115461107D01*
G37*
G36*
X122803441Y-115064439D02*
G01*
X122867941Y-115124314D01*
X123042033Y-115342816D01*
X123148656Y-115543801D01*
X123172569Y-115656140D01*
X123147997Y-115652915D01*
X123084904Y-115557717D01*
X123030050Y-115455688D01*
X122882489Y-115234224D01*
X122731488Y-115139083D01*
X122578950Y-115147257D01*
X122452654Y-115220507D01*
X122393586Y-115328987D01*
X122399640Y-115380724D01*
X122377792Y-115478800D01*
X122309566Y-115555069D01*
X122240647Y-115616623D01*
X122276105Y-115617452D01*
X122293297Y-115611785D01*
X122380295Y-115633497D01*
X122438207Y-115730203D01*
X122448020Y-115850616D01*
X122410395Y-115927660D01*
X122351944Y-116022723D01*
X122405180Y-116066970D01*
X122455588Y-116067401D01*
X122555616Y-116115999D01*
X122607628Y-116216957D01*
X122643056Y-116311557D01*
X122661536Y-116311970D01*
X122698556Y-116305729D01*
X122762863Y-116371583D01*
X122831384Y-116437605D01*
X122855861Y-116419089D01*
X122906817Y-116351865D01*
X122948956Y-116343641D01*
X123025520Y-116286062D01*
X123107383Y-116132102D01*
X123139927Y-116042768D01*
X123237803Y-115741895D01*
X123210378Y-116017323D01*
X123134779Y-116290842D01*
X122985184Y-116484979D01*
X122784895Y-116589105D01*
X122557215Y-116592591D01*
X122325446Y-116484809D01*
X122274955Y-116443995D01*
X122113289Y-116233518D01*
X121998064Y-115952264D01*
X121947388Y-115652928D01*
X121952723Y-115506297D01*
X122033142Y-115251405D01*
X122184428Y-115068919D01*
X122380577Y-114969694D01*
X122595583Y-114964583D01*
X122803441Y-115064439D01*
G37*
G36*
X138113508Y-112685661D02*
G01*
X138155530Y-113129912D01*
X138195737Y-113546652D01*
X138232009Y-113914537D01*
X138262223Y-114212219D01*
X138284259Y-114418353D01*
X138292894Y-114490898D01*
X138328442Y-114760100D01*
X137844770Y-114760100D01*
X137361098Y-114760100D01*
X137361098Y-114543584D01*
X137357564Y-114372839D01*
X137333367Y-114256555D01*
X137268106Y-114184323D01*
X137141385Y-114145731D01*
X136932805Y-114130370D01*
X136621970Y-114127828D01*
X136546715Y-114127940D01*
X135809227Y-114129197D01*
X135621947Y-114444648D01*
X135434666Y-114760100D01*
X134941024Y-114760100D01*
X134709061Y-114756339D01*
X134535620Y-114746364D01*
X134451072Y-114732135D01*
X134447382Y-114728244D01*
X134481254Y-114669866D01*
X134577441Y-114518640D01*
X134727800Y-114287001D01*
X134924191Y-113987385D01*
X135158469Y-113632226D01*
X135283491Y-113443637D01*
X136231505Y-113443637D01*
X136280068Y-113465880D01*
X136427833Y-113482967D01*
X136647341Y-113492292D01*
X136754074Y-113493267D01*
X137297756Y-113493267D01*
X137289888Y-113097381D01*
X137278865Y-112806595D01*
X137258843Y-112478312D01*
X137242382Y-112275399D01*
X137202744Y-111849302D01*
X136727681Y-112621655D01*
X136556261Y-112901367D01*
X136409305Y-113143086D01*
X136299323Y-113326089D01*
X136238823Y-113429652D01*
X136231505Y-113443637D01*
X135283491Y-113443637D01*
X135422494Y-113233960D01*
X135629432Y-112923007D01*
X136811483Y-111149626D01*
X137390577Y-111149626D01*
X137969670Y-111149626D01*
X138113508Y-112685661D01*
G37*
G36*
X124471073Y-115900249D02*
G01*
X124453413Y-116118165D01*
X124448645Y-116276389D01*
X124457630Y-116343195D01*
X124459047Y-116343641D01*
X124495967Y-116289190D01*
X124563962Y-116145188D01*
X124649517Y-115940661D01*
X124665507Y-115900249D01*
X124772812Y-115652049D01*
X124861172Y-115510218D01*
X124941557Y-115458024D01*
X124956142Y-115456858D01*
X125017055Y-115471561D01*
X125052783Y-115533105D01*
X125070160Y-115667645D01*
X125076019Y-115901333D01*
X125076133Y-115916085D01*
X125079447Y-116375312D01*
X125258563Y-115931920D01*
X125359143Y-115698504D01*
X125439658Y-115560187D01*
X125519042Y-115491538D01*
X125603627Y-115468486D01*
X125725830Y-115463558D01*
X125769576Y-115478675D01*
X125745016Y-115544866D01*
X125678162Y-115702644D01*
X125579254Y-115928320D01*
X125459761Y-116195476D01*
X125322822Y-116492022D01*
X125221326Y-116690145D01*
X125142694Y-116808649D01*
X125074347Y-116866341D01*
X125003708Y-116882025D01*
X125000534Y-116882045D01*
X124919881Y-116874069D01*
X124876358Y-116830947D01*
X124860151Y-116723882D01*
X124861445Y-116524080D01*
X124862732Y-116477717D01*
X124863452Y-116260122D01*
X124846317Y-116156251D01*
X124805976Y-116167768D01*
X124737077Y-116296338D01*
X124634270Y-116543624D01*
X124631947Y-116549501D01*
X124541583Y-116756742D01*
X124464834Y-116868338D01*
X124380514Y-116910452D01*
X124337033Y-116913716D01*
X124272295Y-116909846D01*
X124229346Y-116883861D01*
X124203717Y-116814192D01*
X124190935Y-116679271D01*
X124186531Y-116457532D01*
X124186035Y-116185287D01*
X124186035Y-115456858D01*
X124350818Y-115456858D01*
X124515601Y-115456858D01*
X124471073Y-115900249D01*
G37*
G36*
X130901583Y-111151158D02*
G01*
X131074980Y-111159593D01*
X131169565Y-111180684D01*
X131209274Y-111220187D01*
X131218040Y-111283857D01*
X131218139Y-111292144D01*
X131224665Y-111393167D01*
X131242370Y-111601067D01*
X131269472Y-111896701D01*
X131304188Y-112260927D01*
X131344735Y-112674603D01*
X131375954Y-112986533D01*
X131419428Y-113421410D01*
X131458310Y-113818321D01*
X131490838Y-114158610D01*
X131515248Y-114423623D01*
X131529776Y-114594704D01*
X131533127Y-114649252D01*
X131517342Y-114706428D01*
X131452378Y-114740009D01*
X131312856Y-114755921D01*
X131073398Y-114760093D01*
X131058604Y-114760100D01*
X130583542Y-114760100D01*
X130583542Y-114443391D01*
X130583542Y-114126683D01*
X129820825Y-114126683D01*
X129058109Y-114126683D01*
X128861233Y-114443391D01*
X128664356Y-114760100D01*
X128167091Y-114760100D01*
X127934190Y-114756365D01*
X127759699Y-114746455D01*
X127673881Y-114732307D01*
X127669826Y-114728244D01*
X127703698Y-114669866D01*
X127799884Y-114518640D01*
X127950244Y-114287001D01*
X128146635Y-113987385D01*
X128380913Y-113632226D01*
X128504528Y-113445760D01*
X129463460Y-113445760D01*
X129508988Y-113467053D01*
X129654129Y-113483411D01*
X129871836Y-113492335D01*
X129978058Y-113493267D01*
X130520200Y-113493267D01*
X130514651Y-113002369D01*
X130506078Y-112711078D01*
X130488956Y-112420448D01*
X130467145Y-112194763D01*
X130425187Y-111878055D01*
X129958096Y-112638154D01*
X129787752Y-112915539D01*
X129641174Y-113154563D01*
X129531154Y-113334345D01*
X129470480Y-113434004D01*
X129463460Y-113445760D01*
X128504528Y-113445760D01*
X128644938Y-113233960D01*
X128851876Y-112923007D01*
X130033927Y-111149626D01*
X130625442Y-111149626D01*
X130901583Y-111151158D01*
G37*
G36*
X126263156Y-111151017D02*
G01*
X126749843Y-111157528D01*
X127128201Y-111178782D01*
X127416186Y-111219514D01*
X127631759Y-111284462D01*
X127792876Y-111378363D01*
X127917496Y-111505953D01*
X127984989Y-111605170D01*
X128090960Y-111887649D01*
X128081372Y-112175236D01*
X127964864Y-112448083D01*
X127750077Y-112686341D01*
X127445651Y-112870162D01*
X127431719Y-112876107D01*
X127226187Y-112962527D01*
X127413799Y-113101235D01*
X127568011Y-113269075D01*
X127673891Y-113481869D01*
X127674464Y-113483769D01*
X127696844Y-113765884D01*
X127610136Y-114049880D01*
X127429595Y-114313400D01*
X127170476Y-114534088D01*
X126852768Y-114688010D01*
X126738460Y-114707173D01*
X126531235Y-114724030D01*
X126253544Y-114738271D01*
X125927836Y-114749583D01*
X125576562Y-114757655D01*
X125222172Y-114762175D01*
X124887116Y-114762831D01*
X124593844Y-114759311D01*
X124364806Y-114751304D01*
X124222453Y-114738497D01*
X124186035Y-114725042D01*
X124202689Y-114657677D01*
X124249114Y-114487264D01*
X124320009Y-114232486D01*
X124363096Y-114079177D01*
X125327045Y-114079177D01*
X125383520Y-114110638D01*
X125532001Y-114126699D01*
X125738923Y-114128694D01*
X125970719Y-114117961D01*
X126193822Y-114095834D01*
X126374667Y-114063650D01*
X126461804Y-114034013D01*
X126625031Y-113914844D01*
X126703343Y-113750558D01*
X126719701Y-113559112D01*
X126671200Y-113403185D01*
X126521896Y-113302173D01*
X126266087Y-113253782D01*
X125957883Y-113252438D01*
X125554932Y-113271571D01*
X125441419Y-113651621D01*
X125381846Y-113857729D01*
X125340419Y-114013745D01*
X125327045Y-114079177D01*
X124363096Y-114079177D01*
X124410073Y-113912028D01*
X124514004Y-113544572D01*
X124626501Y-113148802D01*
X124742261Y-112743401D01*
X124793984Y-112563133D01*
X125769576Y-112563133D01*
X125826540Y-112593608D01*
X125974416Y-112607934D01*
X126178681Y-112607700D01*
X126404812Y-112594492D01*
X126618285Y-112569900D01*
X126784576Y-112535510D01*
X126841854Y-112513814D01*
X126981080Y-112417257D01*
X127060404Y-112318608D01*
X127100677Y-112101398D01*
X127031387Y-111941427D01*
X126850887Y-111837363D01*
X126557528Y-111787874D01*
X126397246Y-111783042D01*
X125976295Y-111783042D01*
X125872936Y-112151412D01*
X125817985Y-112353934D01*
X125780499Y-112504866D01*
X125769576Y-112563133D01*
X124793984Y-112563133D01*
X124855983Y-112347052D01*
X124962365Y-111978440D01*
X125056106Y-111656247D01*
X125079283Y-111577182D01*
X125204866Y-111149626D01*
X126263156Y-111151017D01*
G37*
G36*
X121947678Y-110877557D02*
G01*
X122084720Y-110979519D01*
X122128876Y-111031406D01*
X122162458Y-111092011D01*
X122186941Y-111178208D01*
X122203799Y-111306871D01*
X122214506Y-111494874D01*
X122220536Y-111759091D01*
X122223365Y-112116395D01*
X122224459Y-112578895D01*
X122225989Y-113046306D01*
X122229692Y-113400064D01*
X122236437Y-113653190D01*
X122247091Y-113818707D01*
X122262524Y-113909639D01*
X122283603Y-113939008D01*
X122311197Y-113919836D01*
X122313659Y-113916665D01*
X122360422Y-113792825D01*
X122401801Y-113562149D01*
X122434561Y-113244465D01*
X122442868Y-113124894D01*
X122470557Y-112742807D01*
X122501866Y-112469552D01*
X122541384Y-112288185D01*
X122742227Y-112288185D01*
X122755625Y-112353117D01*
X122774204Y-112491564D01*
X122791182Y-112712852D01*
X122803326Y-112973147D01*
X122804679Y-113018204D01*
X122818570Y-113524937D01*
X122839699Y-112969511D01*
X122842224Y-112669245D01*
X122826194Y-112440430D01*
X122793546Y-112309332D01*
X122790644Y-112304424D01*
X122744033Y-112242854D01*
X122742227Y-112288185D01*
X122541384Y-112288185D01*
X122541581Y-112287280D01*
X122594489Y-112178146D01*
X122665375Y-112124303D01*
X122714587Y-112111667D01*
X122839093Y-112149781D01*
X122922061Y-112305420D01*
X122963036Y-112576275D01*
X122961566Y-112960037D01*
X122938955Y-113255543D01*
X122886204Y-113681496D01*
X122818308Y-113998753D01*
X122728121Y-114225051D01*
X122608500Y-114378122D01*
X122452300Y-114475704D01*
X122446420Y-114478192D01*
X122288799Y-114566795D01*
X122227035Y-114675089D01*
X122222444Y-114731267D01*
X122189296Y-114865583D01*
X122128988Y-114926621D01*
X122018891Y-115024281D01*
X121921314Y-115202933D01*
X121856835Y-115417146D01*
X121842394Y-115559388D01*
X121866118Y-115770569D01*
X121927263Y-116009891D01*
X122010792Y-116233538D01*
X122101668Y-116397697D01*
X122146187Y-116444534D01*
X122206209Y-116506366D01*
X122162565Y-116559526D01*
X122111341Y-116588669D01*
X121928526Y-116653309D01*
X121770994Y-116614930D01*
X121675207Y-116548093D01*
X121622317Y-116494480D01*
X121582040Y-116417636D01*
X121550467Y-116296977D01*
X121523687Y-116111920D01*
X121497792Y-115841882D01*
X121468871Y-115466281D01*
X121468341Y-115459020D01*
X121440920Y-115119161D01*
X121412129Y-114824942D01*
X121384592Y-114599106D01*
X121360934Y-114464402D01*
X121350491Y-114437370D01*
X121264433Y-114392439D01*
X121109070Y-114333508D01*
X121064216Y-114318707D01*
X120903790Y-114257198D01*
X120787514Y-114177910D01*
X120709503Y-114061804D01*
X120663872Y-113889843D01*
X120644738Y-113642989D01*
X120646216Y-113302206D01*
X120656308Y-112999007D01*
X120671956Y-112661105D01*
X120690328Y-112362873D01*
X120709506Y-112129896D01*
X120727571Y-111987761D01*
X120734035Y-111962129D01*
X120742406Y-111951953D01*
X120930345Y-111951953D01*
X120968512Y-112033528D01*
X121046036Y-112123314D01*
X121082067Y-112106807D01*
X121060437Y-112007470D01*
X120993386Y-111921847D01*
X120957063Y-111909725D01*
X120930345Y-111951953D01*
X120742406Y-111951953D01*
X120834019Y-111840581D01*
X120973835Y-111815331D01*
X121067730Y-111860581D01*
X121107167Y-111912627D01*
X121131558Y-112004187D01*
X121142275Y-112156451D01*
X121140690Y-112390609D01*
X121128176Y-112727851D01*
X121126430Y-112766873D01*
X121113477Y-113172349D01*
X121117096Y-113464987D01*
X121137793Y-113657606D01*
X121164858Y-113744213D01*
X121228633Y-113857416D01*
X121279421Y-113908173D01*
X121319359Y-113886800D01*
X121350579Y-113783614D01*
X121375218Y-113588932D01*
X121395410Y-113293070D01*
X121407493Y-113018204D01*
X121930347Y-113018204D01*
X121931743Y-113284741D01*
X121935718Y-113460572D01*
X121941726Y-113535133D01*
X121949222Y-113497863D01*
X121952566Y-113448395D01*
X121961216Y-113160098D01*
X121959825Y-112832668D01*
X121952767Y-112624953D01*
X121944901Y-112526326D01*
X121938230Y-112544853D01*
X121933298Y-112671011D01*
X121930649Y-112895272D01*
X121930347Y-113018204D01*
X121407493Y-113018204D01*
X121413290Y-112886345D01*
X121424387Y-112567035D01*
X121444052Y-112046454D01*
X121448185Y-111973067D01*
X121857090Y-111973067D01*
X121863694Y-112088306D01*
X121880136Y-112101887D01*
X121886057Y-112083915D01*
X121895908Y-111923266D01*
X121886057Y-111862219D01*
X121867698Y-111842506D01*
X121857702Y-111930091D01*
X121857090Y-111973067D01*
X121448185Y-111973067D01*
X121466985Y-111639275D01*
X121496072Y-111332219D01*
X121534200Y-111112006D01*
X121581123Y-110974532D01*
X121727067Y-110974532D01*
X121782077Y-111020245D01*
X121800823Y-111031337D01*
X121926423Y-111152634D01*
X122016417Y-111356889D01*
X122074047Y-111656610D01*
X122102555Y-112064305D01*
X122105898Y-112208564D01*
X122112045Y-112458892D01*
X122121178Y-112628895D01*
X122132041Y-112702863D01*
X122142821Y-112669825D01*
X122152251Y-112511355D01*
X122155768Y-112265986D01*
X122153115Y-111973379D01*
X122148520Y-111793669D01*
X122135628Y-111489930D01*
X122117042Y-111287356D01*
X122087824Y-111160427D01*
X122043035Y-111083626D01*
X122004477Y-111049404D01*
X121867493Y-110978697D01*
X121782782Y-110961527D01*
X121727067Y-110974532D01*
X121581123Y-110974532D01*
X121584255Y-110965355D01*
X121649125Y-110878986D01*
X121731694Y-110839619D01*
X121801309Y-110832918D01*
X121947678Y-110877557D01*
G37*
%TO.C,UNIT_1*%
D10*
X143491400Y-119926000D02*
X115508600Y-119926000D01*
X115508600Y-68986000D01*
X143491400Y-68986000D01*
X143491400Y-119926000D01*
%TD*%
M02*
