M48
; DRILL file {KiCad 8.0.8-8.0.8-0~ubuntu24.04.1} date 2025-02-15T13:21:13-0700
; FORMAT={-:-/ absolute / inch / decimal}
; #@! TF.CreationDate,2025-02-15T13:21:13-07:00
; #@! TF.GenerationSoftware,Kicad,Pcbnew,8.0.8-8.0.8-0~ubuntu24.04.1
; #@! TF.FileFunction,Plated,1,2,PTH
FMAT,2
INCH
; #@! TA.AperFunction,Plated,PTH,ViaDrill
T1C0.0118
; #@! TA.AperFunction,Plated,PTH,ComponentDrill
T2C0.0236
; #@! TA.AperFunction,Plated,PTH,ComponentDrill
T3C0.0354
; #@! TA.AperFunction,Plated,PTH,ComponentDrill
T4C0.0394
; #@! TA.AperFunction,Plated,PTH,ComponentDrill
T5C0.0409
; #@! TA.AperFunction,Plated,PTH,ComponentDrill
T6C0.0591
; #@! TA.AperFunction,Plated,PTH,ComponentDrill
T7C0.0610
%
G90
G05
T1
X4.8228Y-3.8504
X4.878Y-3.7953
X4.9528Y-4.1102
X5.0709Y-3.752
X5.0748Y-3.8622
T2
X4.8839Y-2.4606
X5.0256Y-2.4606
X5.1673Y-2.4606
X5.3091Y-2.4606
T3
X4.7984Y-3.9445
X4.8984Y-3.9445
X4.9984Y-3.9445
X5.0984Y-3.9445
X5.1984Y-3.9445
X5.2984Y-3.9445
X5.3984Y-3.9445
T4
X4.8484Y-4.1886
X4.9484Y-4.1886
X4.9484Y-4.8886
X5.0484Y-4.1886
X5.0484Y-4.8886
X5.1484Y-4.1886
X5.1484Y-4.8886
X5.2484Y-4.1886
X5.2484Y-4.8886
X5.3484Y-4.1886
T5
X4.6434Y-2.8266
X4.6434Y-2.9266
X4.6434Y-3.0266
X4.6434Y-3.1266
X4.6434Y-3.2266
X4.6434Y-3.3266
X4.6434Y-3.4266
X4.6434Y-3.5266
X4.6434Y-3.6266
X4.6434Y-3.7266
X4.6434Y-3.8266
X4.6434Y-3.9266
X4.6434Y-4.0266
X4.6434Y-4.1266
X4.6434Y-4.2266
X4.6434Y-4.3266
X4.6434Y-4.4266
X4.6434Y-4.5266
X4.6434Y-4.6266
X5.5504Y-2.8274
X5.5504Y-2.9274
X5.5504Y-3.0274
X5.5504Y-3.1274
X5.5504Y-3.2274
X5.5504Y-3.3274
X5.5504Y-3.4274
X5.5504Y-3.5274
X5.5504Y-3.6274
X5.5504Y-3.7274
X5.5504Y-3.8274
X5.5504Y-3.9274
X5.5504Y-4.0274
X5.5504Y-4.1274
X5.5504Y-4.2274
X5.5504Y-4.3274
X5.5504Y-4.4274
X5.5504Y-4.5274
X5.5504Y-4.6274
T6
X5.0098Y-2.6476
X5.187Y-2.6476
T7
X4.998Y-3.0118
X5.187Y-3.0118
M30
