%TF.GenerationSoftware,KiCad,Pcbnew,8.0.8-8.0.8-0~ubuntu24.04.1*%
%TF.CreationDate,2025-02-02T21:15:27-07:00*%
%TF.ProjectId,Speedometer,53706565-646f-46d6-9574-65722e6b6963,v1*%
%TF.SameCoordinates,Original*%
%TF.FileFunction,Soldermask,Top*%
%TF.FilePolarity,Negative*%
%FSLAX46Y46*%
G04 Gerber Fmt 4.6, Leading zero omitted, Abs format (unit mm)*
G04 Created by KiCad (PCBNEW 8.0.8-8.0.8-0~ubuntu24.04.1) date 2025-02-02 21:15:27*
%MOMM*%
%LPD*%
G01*
G04 APERTURE LIST*
G04 Aperture macros list*
%AMRoundRect*
0 Rectangle with rounded corners*
0 $1 Rounding radius*
0 $2 $3 $4 $5 $6 $7 $8 $9 X,Y pos of 4 corners*
0 Add a 4 corners polygon primitive as box body*
4,1,4,$2,$3,$4,$5,$6,$7,$8,$9,$2,$3,0*
0 Add four circle primitives for the rounded corners*
1,1,$1+$1,$2,$3*
1,1,$1+$1,$4,$5*
1,1,$1+$1,$6,$7*
1,1,$1+$1,$8,$9*
0 Add four rect primitives between the rounded corners*
20,1,$1+$1,$2,$3,$4,$5,0*
20,1,$1+$1,$4,$5,$6,$7,0*
20,1,$1+$1,$6,$7,$8,$9,0*
20,1,$1+$1,$8,$9,$2,$3,0*%
G04 Aperture macros list end*
%ADD10R,1.800000X1.800000*%
%ADD11C,1.800000*%
%ADD12C,1.600000*%
%ADD13O,1.600000X1.600000*%
%ADD14R,1.600000X1.600000*%
%ADD15R,1.200000X1.200000*%
%ADD16C,1.200000*%
%ADD17C,2.400000*%
%ADD18O,2.400000X2.400000*%
%ADD19C,3.200000*%
%ADD20RoundRect,0.249999X-1.025001X-1.025001X1.025001X-1.025001X1.025001X1.025001X-1.025001X1.025001X0*%
%ADD21C,2.550000*%
%ADD22R,2.200000X2.200000*%
%ADD23O,2.200000X2.200000*%
%ADD24RoundRect,0.102000X-0.900000X-0.900000X0.900000X-0.900000X0.900000X0.900000X-0.900000X0.900000X0*%
%ADD25C,2.004000*%
%ADD26O,2.404000X1.304000*%
G04 APERTURE END LIST*
D10*
%TO.C,D1*%
X126040000Y-54500000D03*
D11*
X123500000Y-54500000D03*
%TD*%
D12*
%TO.C,C2*%
X118000000Y-62500000D03*
X120500000Y-62500000D03*
%TD*%
%TO.C,R1*%
X129000000Y-49340000D03*
D13*
X129000000Y-59500000D03*
%TD*%
D12*
%TO.C,R3*%
X135500000Y-49340000D03*
D13*
X135500000Y-59500000D03*
%TD*%
D14*
%TO.C,UNIT_2*%
X119340000Y-92240000D03*
D13*
X121880000Y-92240000D03*
X124420000Y-92240000D03*
X126960000Y-92240000D03*
X129500000Y-92240000D03*
X132040000Y-92240000D03*
X134580000Y-92240000D03*
X137120000Y-92240000D03*
X139660000Y-92240000D03*
X142200000Y-92240000D03*
X144740000Y-92240000D03*
X147280000Y-92240000D03*
X149820000Y-92240000D03*
X152360000Y-92240000D03*
X154900000Y-92240000D03*
X154900000Y-77000000D03*
X152360000Y-77000000D03*
X149820000Y-77000000D03*
X147280000Y-77000000D03*
X144740000Y-77000000D03*
X142200000Y-77000000D03*
X139660000Y-77000000D03*
X137120000Y-77000000D03*
X134580000Y-77000000D03*
X132040000Y-77000000D03*
X129500000Y-77000000D03*
X126960000Y-77000000D03*
X124420000Y-77000000D03*
X121880000Y-77000000D03*
X119340000Y-77000000D03*
%TD*%
D15*
%TO.C,C1*%
X118500000Y-58000000D03*
D16*
X120500000Y-58000000D03*
%TD*%
D17*
%TO.C,R7*%
X133880000Y-68000000D03*
D18*
X149120000Y-68000000D03*
%TD*%
D12*
%TO.C,C3*%
X132000000Y-62000000D03*
X132000000Y-64500000D03*
%TD*%
D19*
%TO.C,H1*%
X68570000Y-51750000D03*
%TD*%
D12*
%TO.C,R2*%
X132000000Y-49340000D03*
D13*
X132000000Y-59500000D03*
%TD*%
D19*
%TO.C,H3*%
X165390000Y-89960000D03*
%TD*%
%TO.C,H4*%
X68980000Y-89960000D03*
%TD*%
D12*
%TO.C,R5*%
X158500000Y-59500000D03*
D13*
X158500000Y-49340000D03*
%TD*%
D15*
%TO.C,C6*%
X152500000Y-70500000D03*
D16*
X154500000Y-70500000D03*
%TD*%
D12*
%TO.C,R6*%
X155000000Y-49340000D03*
D13*
X155000000Y-59500000D03*
%TD*%
D20*
%TO.C,J4*%
X119250000Y-68500000D03*
D21*
X124050000Y-68500000D03*
%TD*%
D12*
%TO.C,C4*%
X147020000Y-63500000D03*
X149520000Y-63500000D03*
%TD*%
D14*
%TO.C,U2*%
X144200000Y-50700000D03*
D13*
X144200000Y-53240000D03*
X144200000Y-55780000D03*
X144200000Y-58320000D03*
X151820000Y-58320000D03*
X151820000Y-55780000D03*
X151820000Y-53240000D03*
X151820000Y-50700000D03*
%TD*%
D14*
%TO.C,C5*%
X156000000Y-63817621D03*
D12*
X156000000Y-66317621D03*
%TD*%
D22*
%TO.C,D2*%
X135190000Y-63500000D03*
D23*
X142810000Y-63500000D03*
%TD*%
D24*
%TO.C,UNIT_1*%
X112500000Y-71760000D03*
D25*
X112500000Y-74300000D03*
X112500000Y-76840000D03*
X112500000Y-79380000D03*
X112500000Y-81920000D03*
X112500000Y-84460000D03*
X112500000Y-87000000D03*
%TD*%
D17*
%TO.C,R8*%
X149120000Y-72500000D03*
D18*
X133880000Y-72500000D03*
%TD*%
D19*
%TO.C,H2*%
X165520000Y-51750000D03*
%TD*%
D26*
%TO.C,U1*%
X123500000Y-58960000D03*
X123500000Y-60230000D03*
X123500000Y-61500000D03*
%TD*%
D12*
%TO.C,R4*%
X139000000Y-49340000D03*
D13*
X139000000Y-59500000D03*
%TD*%
D15*
%TO.C,C7*%
X131000000Y-70500000D03*
D16*
X129000000Y-70500000D03*
%TD*%
M02*
