%TF.GenerationSoftware,KiCad,Pcbnew,8.0.6*%
%TF.CreationDate,2025-02-01T10:41:25-07:00*%
%TF.ProjectId,Tachometerkicad,54616368-6f6d-4657-9465-726b69636164,rev?*%
%TF.SameCoordinates,Original*%
%TF.FileFunction,Copper,L1,Top*%
%TF.FilePolarity,Positive*%
%FSLAX46Y46*%
G04 Gerber Fmt 4.6, Leading zero omitted, Abs format (unit mm)*
G04 Created by KiCad (PCBNEW 8.0.6) date 2025-02-01 10:41:25*
%MOMM*%
%LPD*%
G01*
G04 APERTURE LIST*
G04 Aperture macros list*
%AMRoundRect*
0 Rectangle with rounded corners*
0 $1 Rounding radius*
0 $2 $3 $4 $5 $6 $7 $8 $9 X,Y pos of 4 corners*
0 Add a 4 corners polygon primitive as box body*
4,1,4,$2,$3,$4,$5,$6,$7,$8,$9,$2,$3,0*
0 Add four circle primitives for the rounded corners*
1,1,$1+$1,$2,$3*
1,1,$1+$1,$4,$5*
1,1,$1+$1,$6,$7*
1,1,$1+$1,$8,$9*
0 Add four rect primitives between the rounded corners*
20,1,$1+$1,$2,$3,$4,$5,0*
20,1,$1+$1,$4,$5,$6,$7,0*
20,1,$1+$1,$6,$7,$8,$9,0*
20,1,$1+$1,$8,$9,$2,$3,0*%
G04 Aperture macros list end*
%TA.AperFunction,ComponentPad*%
%ADD10R,1.600000X1.600000*%
%TD*%
%TA.AperFunction,ComponentPad*%
%ADD11C,1.600000*%
%TD*%
%TA.AperFunction,ComponentPad*%
%ADD12R,1.800000X1.800000*%
%TD*%
%TA.AperFunction,ComponentPad*%
%ADD13C,1.800000*%
%TD*%
%TA.AperFunction,ComponentPad*%
%ADD14C,2.400000*%
%TD*%
%TA.AperFunction,ComponentPad*%
%ADD15O,2.400000X2.400000*%
%TD*%
%TA.AperFunction,ComponentPad*%
%ADD16R,1.500000X1.050000*%
%TD*%
%TA.AperFunction,ComponentPad*%
%ADD17O,1.500000X1.050000*%
%TD*%
%TA.AperFunction,ComponentPad*%
%ADD18RoundRect,0.250000X0.550000X0.550000X-0.550000X0.550000X-0.550000X-0.550000X0.550000X-0.550000X0*%
%TD*%
%TA.AperFunction,ComponentPad*%
%ADD19R,1.222000X1.222000*%
%TD*%
%TA.AperFunction,ComponentPad*%
%ADD20C,1.222000*%
%TD*%
%TA.AperFunction,ComponentPad*%
%ADD21O,1.800000X1.800000*%
%TD*%
%TA.AperFunction,ComponentPad*%
%ADD22O,1.600000X1.600000*%
%TD*%
%TA.AperFunction,ComponentPad*%
%ADD23RoundRect,0.249999X1.025001X1.025001X-1.025001X1.025001X-1.025001X-1.025001X1.025001X-1.025001X0*%
%TD*%
%TA.AperFunction,ComponentPad*%
%ADD24C,2.550000*%
%TD*%
%TA.AperFunction,ComponentPad*%
%ADD25RoundRect,0.249999X-1.025001X-1.025001X1.025001X-1.025001X1.025001X1.025001X-1.025001X1.025001X0*%
%TD*%
%TA.AperFunction,ComponentPad*%
%ADD26C,2.200000*%
%TD*%
%TA.AperFunction,Conductor*%
%ADD27C,0.200000*%
%TD*%
G04 APERTURE END LIST*
D10*
%TO.P,C1,1*%
%TO.N,Net-(C1-Pad1)*%
X87500000Y-113500000D03*
D11*
%TO.P,C1,2*%
%TO.N,GND*%
X90000000Y-113500000D03*
%TD*%
D12*
%TO.P,UNIT_1,1,D1/TX*%
%TO.N,unconnected-(UNIT_1-D1{slash}TX-Pad1)*%
X83300000Y-80100000D03*
D13*
%TO.P,UNIT_1,2,D0/RX*%
%TO.N,N/C*%
X80760000Y-80100000D03*
%TO.P,UNIT_1,3,RESET*%
%TO.N,unconnected-(UNIT_1-RESET-Pad3)*%
X78220000Y-80100000D03*
%TO.P,UNIT_1,4,COM/GND*%
%TO.N,GND*%
X75680000Y-80100000D03*
%TO.P,UNIT_1,5,D2*%
%TO.N,unconnected-(UNIT_1-D2-Pad5)*%
X73140000Y-80100000D03*
%TO.P,UNIT_1,6,D3*%
%TO.N,unconnected-(UNIT_1-D3-Pad6)*%
X70600000Y-80100000D03*
%TO.P,UNIT_1,7,D4*%
%TO.N,unconnected-(UNIT_1-D4-Pad7)*%
X68060000Y-80100000D03*
%TO.P,UNIT_1,8,D5*%
%TO.N,unconnected-(UNIT_1-D5-Pad8)*%
X65520000Y-80100000D03*
%TO.P,UNIT_1,9,D6*%
%TO.N,unconnected-(UNIT_1-D6-Pad9)*%
X62980000Y-80100000D03*
%TO.P,UNIT_1,10,D7*%
%TO.N,unconnected-(UNIT_1-D7-Pad10)*%
X60440000Y-80100000D03*
%TO.P,UNIT_1,11,D8*%
%TO.N,unconnected-(UNIT_1-D8-Pad11)*%
X57900000Y-80100000D03*
%TO.P,UNIT_1,12,D9*%
%TO.N,unconnected-(UNIT_1-D9-Pad12)*%
X55360000Y-80100000D03*
%TO.P,UNIT_1,13,D10*%
%TO.N,unconnected-(UNIT_1-D10-Pad13)*%
X52820000Y-80100000D03*
%TO.P,UNIT_1,14,D11/MOSI*%
%TO.N,SI*%
X50280000Y-80100000D03*
%TO.P,UNIT_1,15,D12/MISO*%
%TO.N,SO*%
X47740000Y-80100000D03*
%TO.P,UNIT_1,16,D13/SCK*%
%TO.N,SCK*%
X47740000Y-95340000D03*
%TO.P,UNIT_1,17,3V3*%
%TO.N,+3V*%
X50280000Y-95340000D03*
%TO.P,UNIT_1,18,AREF*%
%TO.N,unconnected-(UNIT_1-AREF-Pad18)*%
X52820000Y-95340000D03*
%TO.P,UNIT_1,19,A0*%
%TO.N,arduino input*%
X55360000Y-95340000D03*
%TO.P,UNIT_1,20,A1*%
%TO.N,unconnected-(UNIT_1-A1-Pad20)*%
X57900000Y-95340000D03*
%TO.P,UNIT_1,21,A2*%
%TO.N,unconnected-(UNIT_1-A2-Pad21)*%
X60440000Y-95340000D03*
%TO.P,UNIT_1,22,A3*%
%TO.N,unconnected-(UNIT_1-A3-Pad22)*%
X62980000Y-95340000D03*
%TO.P,UNIT_1,23,A4*%
%TO.N,SDA*%
X65520000Y-95340000D03*
%TO.P,UNIT_1,24,A5*%
%TO.N,SCL*%
X68060000Y-95340000D03*
%TO.P,UNIT_1,25,A6*%
%TO.N,unconnected-(UNIT_1-A6-Pad25)*%
X70600000Y-95340000D03*
%TO.P,UNIT_1,26,A7*%
%TO.N,unconnected-(UNIT_1-A7-Pad26)*%
X73140000Y-95340000D03*
%TO.P,UNIT_1,27,+5V*%
%TO.N,+5V*%
X75680000Y-95340000D03*
%TO.P,UNIT_1,28,RESET*%
%TO.N,unconnected-(UNIT_1-RESET-Pad28)*%
X78220000Y-95340000D03*
%TO.P,UNIT_1,29,COM/GND*%
%TO.N,GND*%
X80760000Y-95340000D03*
%TO.P,UNIT_1,30,VIN*%
%TO.N,unconnected-(UNIT_1-VIN-Pad30)*%
X83300000Y-95340000D03*
%TD*%
D14*
%TO.P,R6,1*%
%TO.N,Net-(R4-Pad2)*%
X112620000Y-112300000D03*
D15*
%TO.P,R6,2*%
%TO.N,+5v*%
X97380000Y-112300000D03*
%TD*%
D16*
%TO.P,Q1,1,C*%
%TO.N,Comparator input*%
X103250000Y-64700000D03*
D17*
%TO.P,Q1,2,B*%
%TO.N,Net-(Q1-B)*%
X103250000Y-63430000D03*
%TO.P,Q1,3,E*%
%TO.N,GND*%
X103250000Y-62160000D03*
%TD*%
D10*
%TO.P,C3,1*%
%TO.N,GND*%
X108614888Y-95280000D03*
D11*
%TO.P,C3,2*%
%TO.N,Net-(U1-DIS)*%
X111114888Y-95280000D03*
%TD*%
D14*
%TO.P,R10,1*%
%TO.N,555 input*%
X90300000Y-66520000D03*
D15*
%TO.P,R10,2*%
%TO.N,GND*%
X90300000Y-51280000D03*
%TD*%
D14*
%TO.P,R11,1*%
%TO.N,Net-(C1-Pad1)*%
X97400000Y-82080000D03*
D15*
%TO.P,R11,2*%
%TO.N,arduino input*%
X97400000Y-97320000D03*
%TD*%
D18*
%TO.P,J4,1,Pin_1*%
%TO.N,Low*%
X84000000Y-100800000D03*
D11*
%TO.P,J4,2,Pin_2*%
%TO.N,High*%
X80400000Y-100800000D03*
%TO.P,J4,3,Pin_3*%
%TO.N,Low*%
X76800000Y-100800000D03*
%TO.P,J4,4,Pin_4*%
%TO.N,High*%
X73200000Y-100800000D03*
%TD*%
D14*
%TO.P,R1,1*%
%TO.N,Possitive*%
X95800000Y-66420000D03*
D15*
%TO.P,R1,2*%
%TO.N,Net-(D1-K)*%
X95800000Y-51180000D03*
%TD*%
D19*
%TO.P,VR1,1*%
%TO.N,+5v*%
X96600000Y-76240000D03*
D20*
%TO.P,VR1,2*%
%TO.N,GND*%
X94060000Y-73700000D03*
%TO.P,VR1,3*%
%TO.N,Net-(U2--)*%
X96600000Y-71160000D03*
%TD*%
D14*
%TO.P,R7,1*%
%TO.N,Net-(U1-DIS)*%
X112620000Y-102800000D03*
D15*
%TO.P,R7,2*%
%TO.N,Net-(R4-Pad1)*%
X97380000Y-102800000D03*
%TD*%
D12*
%TO.P,D2,1,K*%
%TO.N,Net-(D1-K)*%
X101000000Y-50795000D03*
D21*
%TO.P,D2,2,A*%
%TO.N,GND*%
X101000000Y-58415000D03*
%TD*%
D14*
%TO.P,R2,1*%
%TO.N,Net-(D1-K)*%
X109600000Y-51080000D03*
D15*
%TO.P,R2,2*%
%TO.N,Net-(Q1-B)*%
X109600000Y-66320000D03*
%TD*%
D14*
%TO.P,R3,1*%
%TO.N,+5v*%
X90300000Y-85120000D03*
D15*
%TO.P,R3,2*%
%TO.N,Comparator input*%
X90300000Y-69880000D03*
%TD*%
D10*
%TO.P,U1,1,GND*%
%TO.N,GND*%
X110300000Y-81000000D03*
D22*
%TO.P,U1,2,TR*%
%TO.N,555 input*%
X107760000Y-81000000D03*
%TO.P,U1,3,Q*%
%TO.N,555 output*%
X105220000Y-81000000D03*
%TO.P,U1,4,R*%
%TO.N,+5v*%
X102680000Y-81000000D03*
%TO.P,U1,5,CV*%
%TO.N,Net-(U1-CV)*%
X102680000Y-88620000D03*
%TO.P,U1,6,THR*%
%TO.N,Net-(U1-DIS)*%
X105220000Y-88620000D03*
%TO.P,U1,7,DIS*%
X107760000Y-88620000D03*
%TO.P,U1,8,VCC*%
%TO.N,+5v*%
X110300000Y-88620000D03*
%TD*%
D23*
%TO.P,J3,1,Pin_1*%
%TO.N,+5v*%
X81500000Y-107500000D03*
D24*
%TO.P,J3,2,Pin_2*%
%TO.N,GND*%
X76700000Y-107500000D03*
%TD*%
D25*
%TO.P,J1,1,Pin_1*%
%TO.N,GND*%
X90200000Y-46100000D03*
D24*
%TO.P,J1,2,Pin_2*%
%TO.N,Possitive*%
X95000000Y-46100000D03*
%TD*%
D14*
%TO.P,R4,1*%
%TO.N,Net-(R4-Pad1)*%
X97380000Y-107800000D03*
D15*
%TO.P,R4,2*%
%TO.N,Net-(R4-Pad2)*%
X112620000Y-107800000D03*
%TD*%
D11*
%TO.P,C4,1*%
%TO.N,Net-(U1-CV)*%
X103820000Y-97600000D03*
%TO.P,C4,2*%
%TO.N,GND*%
X103820000Y-92600000D03*
%TD*%
D10*
%TO.P,U2,1,GND*%
%TO.N,GND*%
X110200000Y-70000000D03*
D22*
%TO.P,U2,2,+*%
%TO.N,Comparator input*%
X107660000Y-70000000D03*
%TO.P,U2,3,-*%
%TO.N,Net-(U2--)*%
X105120000Y-70000000D03*
%TO.P,U2,4,V-*%
%TO.N,GND*%
X102580000Y-70000000D03*
%TO.P,U2,5,BAL*%
%TO.N,unconnected-(U2-BAL-Pad5)*%
X102580000Y-77620000D03*
%TO.P,U2,6,STRB*%
%TO.N,unconnected-(U2-STRB-Pad6)*%
X105120000Y-77620000D03*
%TO.P,U2,7*%
%TO.N,555 input*%
X107660000Y-77620000D03*
%TO.P,U2,8,V+*%
%TO.N,+5v*%
X110200000Y-77620000D03*
%TD*%
D10*
%TO.P,C2,1*%
%TO.N,arduino input*%
X91500000Y-109000000D03*
D11*
%TO.P,C2,2*%
%TO.N,GND*%
X94000000Y-109000000D03*
%TD*%
D13*
%TO.P,UNIT_2,1,INT*%
%TO.N,unconnected-(UNIT_2-INT-Pad1)*%
X83500000Y-55980000D03*
%TO.P,UNIT_2,2,SCK*%
%TO.N,SCK*%
X83500000Y-58520000D03*
%TO.P,UNIT_2,3,SI*%
%TO.N,SI*%
X83500000Y-61060000D03*
%TO.P,UNIT_2,4,SO*%
%TO.N,SO*%
X83500000Y-63600000D03*
%TO.P,UNIT_2,5,CS*%
%TO.N,CS*%
X83500000Y-66140000D03*
%TO.P,UNIT_2,6,GND*%
%TO.N,GND*%
X83500000Y-68680000D03*
%TO.P,UNIT_2,7,VCC*%
%TO.N,+5V*%
X83500000Y-71220000D03*
D26*
%TO.P,UNIT_2,8,High_CAN*%
%TO.N,High*%
X50560000Y-65850000D03*
%TO.P,UNIT_2,9,Low_CAN*%
%TO.N,Low*%
X50560000Y-61350000D03*
%TD*%
D14*
%TO.P,R5,1*%
%TO.N,555 output*%
X90400000Y-88780000D03*
D15*
%TO.P,R5,2*%
%TO.N,Net-(C1-Pad1)*%
X90400000Y-104020000D03*
%TD*%
D12*
%TO.P,D1,1,K*%
%TO.N,Net-(D1-K)*%
X105000000Y-50790000D03*
D21*
%TO.P,D1,2,A*%
%TO.N,GND*%
X105000000Y-58410000D03*
%TD*%
D27*
%TO.N,SO*%
X64240000Y-63600000D02*
X47740000Y-80100000D01*
X83500000Y-63600000D02*
X64240000Y-63600000D01*
%TO.N,High*%
X50000000Y-100000000D02*
X72400000Y-100000000D01*
X46500000Y-96500000D02*
X50000000Y-100000000D01*
X46500000Y-77000000D02*
X46500000Y-96500000D01*
X72400000Y-100000000D02*
X73200000Y-100800000D01*
X50560000Y-72940000D02*
X46500000Y-77000000D01*
X50560000Y-65850000D02*
X50560000Y-72940000D01*
%TO.N,Low*%
X47150000Y-61350000D02*
X50560000Y-61350000D01*
X45500000Y-99500000D02*
X45500000Y-63000000D01*
X48000000Y-102000000D02*
X45500000Y-99500000D01*
X75600000Y-102000000D02*
X48000000Y-102000000D01*
X45500000Y-63000000D02*
X47150000Y-61350000D01*
X76800000Y-100800000D02*
X75600000Y-102000000D01*
%TO.N,GND*%
X75680000Y-90260000D02*
X80760000Y-95340000D01*
X75680000Y-80100000D02*
X75680000Y-90260000D01*
X75500000Y-79920000D02*
X75680000Y-80100000D01*
X82820000Y-68680000D02*
X75500000Y-76000000D01*
X75500000Y-76000000D02*
X75500000Y-79920000D01*
X83500000Y-68680000D02*
X82820000Y-68680000D01*
%TO.N,+5V*%
X77840000Y-97500000D02*
X75680000Y-95340000D01*
X91000000Y-78000000D02*
X84500000Y-84500000D01*
X84220000Y-71220000D02*
X91000000Y-78000000D01*
X84500000Y-97500000D02*
X77840000Y-97500000D01*
X84500000Y-84500000D02*
X84500000Y-97500000D01*
X83500000Y-71220000D02*
X84220000Y-71220000D01*
%TO.N,GND*%
X89700000Y-73700000D02*
X94060000Y-73700000D01*
X84680000Y-68680000D02*
X89700000Y-73700000D01*
X83500000Y-68680000D02*
X84680000Y-68680000D01*
%TO.N,High*%
X78600000Y-99000000D02*
X80400000Y-100800000D01*
X76500000Y-99000000D02*
X78600000Y-99000000D01*
X74700000Y-100800000D02*
X76500000Y-99000000D01*
X73200000Y-100800000D02*
X74700000Y-100800000D01*
%TO.N,Low*%
X79500000Y-103500000D02*
X76800000Y-100800000D01*
X80500000Y-103500000D02*
X79500000Y-103500000D01*
X83200000Y-100800000D02*
X80500000Y-103500000D01*
X84000000Y-100800000D02*
X83200000Y-100800000D01*
%TO.N,arduino input*%
X96680000Y-97320000D02*
X97400000Y-97320000D01*
X94000000Y-100000000D02*
X96680000Y-97320000D01*
X94000000Y-106500000D02*
X94000000Y-100000000D01*
X91500000Y-109000000D02*
X94000000Y-106500000D01*
%TO.N,Net-(C1-Pad1)*%
X90400000Y-104100000D02*
X87500000Y-107000000D01*
X90400000Y-104020000D02*
X90400000Y-104100000D01*
X87500000Y-107000000D02*
X87500000Y-113500000D01*
%TO.N,Net-(U1-CV)*%
X103820000Y-97600000D02*
X102680000Y-96460000D01*
X102680000Y-96460000D02*
X102680000Y-88620000D01*
%TO.N,+5v*%
X90300000Y-82540000D02*
X96600000Y-76240000D01*
X90300000Y-85120000D02*
X90300000Y-82540000D01*
X81500000Y-110000000D02*
X81500000Y-107500000D01*
X85500000Y-118000000D02*
X85500000Y-114000000D01*
X90500000Y-123000000D02*
X85500000Y-118000000D01*
X93000000Y-123000000D02*
X90500000Y-123000000D01*
X97380000Y-118620000D02*
X93000000Y-123000000D01*
X85500000Y-114000000D02*
X81500000Y-110000000D01*
X97380000Y-112300000D02*
X97380000Y-118620000D01*
X87000000Y-102000000D02*
X81500000Y-107500000D01*
X87000000Y-100500000D02*
X87000000Y-102000000D01*
X85500000Y-99000000D02*
X87000000Y-100500000D01*
X85500000Y-88500000D02*
X85500000Y-99000000D01*
X88880000Y-85120000D02*
X85500000Y-88500000D01*
X90300000Y-85120000D02*
X88880000Y-85120000D01*
%TO.N,Net-(C1-Pad1)*%
X93500000Y-87000000D02*
X97400000Y-83100000D01*
X87000000Y-89500000D02*
X89500000Y-87000000D01*
X87000000Y-94000000D02*
X87000000Y-89500000D01*
X90400000Y-97400000D02*
X87000000Y-94000000D01*
X90400000Y-104020000D02*
X90400000Y-97400000D01*
X89500000Y-87000000D02*
X93500000Y-87000000D01*
X97400000Y-83100000D02*
X97400000Y-82080000D01*
%TO.N,Net-(R4-Pad2)*%
X112620000Y-107800000D02*
X112620000Y-112300000D01*
%TO.N,Net-(R4-Pad1)*%
X97380000Y-102800000D02*
X97380000Y-107800000D01*
%TO.N,Net-(U1-DIS)*%
X107760000Y-88620000D02*
X105220000Y-88620000D01*
X112620000Y-96785112D02*
X112620000Y-102800000D01*
X111114888Y-95280000D02*
X112620000Y-96785112D01*
X107760000Y-91925112D02*
X111114888Y-95280000D01*
X107760000Y-88620000D02*
X107760000Y-91925112D01*
%TO.N,555 input*%
X107660000Y-80900000D02*
X107760000Y-81000000D01*
X107660000Y-77620000D02*
X107660000Y-80900000D01*
%TO.N,+5v*%
X102680000Y-81000000D02*
X110300000Y-88620000D01*
X101000000Y-76240000D02*
X101000000Y-79320000D01*
X101000000Y-79320000D02*
X102680000Y-81000000D01*
X101000000Y-76240000D02*
X96600000Y-76240000D01*
X108820000Y-76240000D02*
X101000000Y-76240000D01*
X110200000Y-77620000D02*
X108820000Y-76240000D01*
%TO.N,Net-(U2--)*%
X103960000Y-71160000D02*
X96600000Y-71160000D01*
X105120000Y-70000000D02*
X103960000Y-71160000D01*
%TO.N,Comparator input*%
X93120000Y-69880000D02*
X90300000Y-69880000D01*
X94500000Y-68500000D02*
X93120000Y-69880000D01*
X99450000Y-68500000D02*
X94500000Y-68500000D01*
X103250000Y-64700000D02*
X99450000Y-68500000D01*
X107660000Y-69110000D02*
X107660000Y-70000000D01*
X103250000Y-64700000D02*
X107660000Y-69110000D01*
%TO.N,Net-(Q1-B)*%
X106710000Y-63430000D02*
X103250000Y-63430000D01*
X109600000Y-66320000D02*
X106710000Y-63430000D01*
%TO.N,GND*%
X90200000Y-51180000D02*
X90300000Y-51280000D01*
X90200000Y-46100000D02*
X90200000Y-51180000D01*
%TO.N,Net-(D1-K)*%
X105290000Y-51080000D02*
X109600000Y-51080000D01*
X105000000Y-50790000D02*
X105290000Y-51080000D01*
X101005000Y-50790000D02*
X105000000Y-50790000D01*
X101000000Y-50795000D02*
X101005000Y-50790000D01*
X100615000Y-51180000D02*
X101000000Y-50795000D01*
X95800000Y-51180000D02*
X100615000Y-51180000D01*
%TO.N,Possitive*%
X93500000Y-64120000D02*
X95800000Y-66420000D01*
X93500000Y-49500000D02*
X93500000Y-64120000D01*
X95000000Y-48000000D02*
X93500000Y-49500000D01*
X95000000Y-46100000D02*
X95000000Y-48000000D01*
%TD*%
M02*
