%TF.GenerationSoftware,KiCad,Pcbnew,8.0.6*%
%TF.CreationDate,2025-01-26T20:50:08-07:00*%
%TF.ProjectId,ESP32 IMU,45535033-3220-4494-9d55-2e6b69636164,rev?*%
%TF.SameCoordinates,Original*%
%TF.FileFunction,Copper,L1,Top*%
%TF.FilePolarity,Positive*%
%FSLAX46Y46*%
G04 Gerber Fmt 4.6, Leading zero omitted, Abs format (unit mm)*
G04 Created by KiCad (PCBNEW 8.0.6) date 2025-01-26 20:50:08*
%MOMM*%
%LPD*%
G01*
G04 APERTURE LIST*
G04 Aperture macros list*
%AMRoundRect*
0 Rectangle with rounded corners*
0 $1 Rounding radius*
0 $2 $3 $4 $5 $6 $7 $8 $9 X,Y pos of 4 corners*
0 Add a 4 corners polygon primitive as box body*
4,1,4,$2,$3,$4,$5,$6,$7,$8,$9,$2,$3,0*
0 Add four circle primitives for the rounded corners*
1,1,$1+$1,$2,$3*
1,1,$1+$1,$4,$5*
1,1,$1+$1,$6,$7*
1,1,$1+$1,$8,$9*
0 Add four rect primitives between the rounded corners*
20,1,$1+$1,$2,$3,$4,$5,0*
20,1,$1+$1,$4,$5,$6,$7,0*
20,1,$1+$1,$6,$7,$8,$9,0*
20,1,$1+$1,$8,$9,$2,$3,0*%
G04 Aperture macros list end*
%TA.AperFunction,ComponentPad*%
%ADD10C,1.800000*%
%TD*%
%TA.AperFunction,ComponentPad*%
%ADD11C,2.200000*%
%TD*%
%TA.AperFunction,ComponentPad*%
%ADD12RoundRect,0.249999X1.025001X1.025001X-1.025001X1.025001X-1.025001X-1.025001X1.025001X-1.025001X0*%
%TD*%
%TA.AperFunction,ComponentPad*%
%ADD13C,2.550000*%
%TD*%
%TA.AperFunction,ComponentPad*%
%ADD14RoundRect,0.250000X0.550000X0.550000X-0.550000X0.550000X-0.550000X-0.550000X0.550000X-0.550000X0*%
%TD*%
%TA.AperFunction,ComponentPad*%
%ADD15C,1.600000*%
%TD*%
%TA.AperFunction,ComponentPad*%
%ADD16C,2.000000*%
%TD*%
%TA.AperFunction,ComponentPad*%
%ADD17C,1.930400*%
%TD*%
%TA.AperFunction,ViaPad*%
%ADD18C,0.600000*%
%TD*%
%TA.AperFunction,Conductor*%
%ADD19C,0.200000*%
%TD*%
G04 APERTURE END LIST*
D10*
%TO.P,CAN Bus (Facing UP),1,INT*%
%TO.N,unconnected-(UNIT_2-INT-Pad1)*%
X137120000Y-100190000D03*
%TO.P,CAN Bus (Facing UP),2,SCK*%
%TO.N,SCK*%
X134580000Y-100190000D03*
%TO.P,CAN Bus (Facing UP),3,SI*%
%TO.N,SI*%
X132040000Y-100190000D03*
%TO.P,CAN Bus (Facing UP),4,SO*%
%TO.N,SO*%
X129500000Y-100190000D03*
%TO.P,CAN Bus (Facing UP),5,CS*%
%TO.N,CS*%
X126960000Y-100190000D03*
%TO.P,CAN Bus (Facing UP),6,GND*%
%TO.N,GND*%
X124420000Y-100190000D03*
%TO.P,CAN Bus (Facing UP),7,VCC*%
%TO.N,+5v*%
X121880000Y-100190000D03*
D11*
%TO.P,CAN Bus (Facing UP),8,VCC*%
%TO.N,High*%
X131750000Y-67250000D03*
%TO.P,CAN Bus (Facing UP),9,GND*%
%TO.N,Low*%
X127250000Y-67250000D03*
%TD*%
D12*
%TO.P,J1,1,Pin_1*%
%TO.N,+5v*%
X131750000Y-76500000D03*
D13*
%TO.P,J1,2,Pin_2*%
%TO.N,GND*%
X126950000Y-76500000D03*
%TD*%
D14*
%TO.P,J2,1,Pin_1*%
%TO.N,Low*%
X134850000Y-62500000D03*
D15*
%TO.P,J2,2,Pin_2*%
%TO.N,High*%
X131250000Y-62500000D03*
%TO.P,J2,3,Pin_3*%
%TO.N,Low*%
X127650000Y-62500000D03*
%TO.P,J2,4,Pin_4*%
%TO.N,High*%
X124050000Y-62500000D03*
%TD*%
D16*
%TO.P,UNIT_1,J2-1,3V3*%
%TO.N,unconnected-(UNIT_1-3V3-PadJ2-1)*%
X140981400Y-117536000D03*
%TO.P,UNIT_1,J2-2,EN*%
%TO.N,unconnected-(UNIT_1-EN-PadJ2-2)*%
X140981400Y-114996000D03*
%TO.P,UNIT_1,J2-3,SENSOR_VP*%
%TO.N,unconnected-(UNIT_1-SENSOR_VP-PadJ2-3)*%
X140981400Y-112456000D03*
%TO.P,UNIT_1,J2-4,SENSOR_VN*%
%TO.N,unconnected-(UNIT_1-SENSOR_VN-PadJ2-4)*%
X140981400Y-109916000D03*
%TO.P,UNIT_1,J2-5,IO34*%
%TO.N,unconnected-(UNIT_1-IO34-PadJ2-5)*%
X140981400Y-107376000D03*
%TO.P,UNIT_1,J2-6,IO35*%
%TO.N,unconnected-(UNIT_1-IO35-PadJ2-6)*%
X140981400Y-104836000D03*
%TO.P,UNIT_1,J2-7,IO32*%
%TO.N,unconnected-(UNIT_1-IO32-PadJ2-7)*%
X140981400Y-102296000D03*
%TO.P,UNIT_1,J2-8,IO33*%
%TO.N,unconnected-(UNIT_1-IO33-PadJ2-8)*%
X140981400Y-99756000D03*
%TO.P,UNIT_1,J2-9,IO25*%
%TO.N,unconnected-(UNIT_1-IO25-PadJ2-9)*%
X140981400Y-97216000D03*
%TO.P,UNIT_1,J2-10,IO26*%
%TO.N,unconnected-(UNIT_1-IO26-PadJ2-10)*%
X140981400Y-94676000D03*
%TO.P,UNIT_1,J2-11,IO27*%
%TO.N,unconnected-(UNIT_1-IO27-PadJ2-11)*%
X140981400Y-92136000D03*
%TO.P,UNIT_1,J2-12,IO14*%
%TO.N,unconnected-(UNIT_1-IO14-PadJ2-12)*%
X140981400Y-89596000D03*
%TO.P,UNIT_1,J2-13,IO12*%
%TO.N,unconnected-(UNIT_1-IO12-PadJ2-13)*%
X140981400Y-87056000D03*
%TO.P,UNIT_1,J2-14,GND1*%
%TO.N,GND*%
X140981400Y-84516000D03*
%TO.P,UNIT_1,J2-15,IO13*%
%TO.N,unconnected-(UNIT_1-IO13-PadJ2-15)*%
X140981400Y-81976000D03*
%TO.P,UNIT_1,J2-16,SD2*%
%TO.N,unconnected-(UNIT_1-SD2-PadJ2-16)*%
X140981400Y-79436000D03*
%TO.P,UNIT_1,J2-17,SD3*%
%TO.N,unconnected-(UNIT_1-SD3-PadJ2-17)*%
X140981400Y-76896000D03*
%TO.P,UNIT_1,J2-18,CMD*%
%TO.N,unconnected-(UNIT_1-CMD-PadJ2-18)*%
X140981400Y-74356000D03*
%TO.P,UNIT_1,J2-19,EXT_5V*%
%TO.N,+5v*%
X140981400Y-71816000D03*
%TO.P,UNIT_1,J3-1,GND3*%
%TO.N,GND*%
X117941400Y-117516000D03*
%TO.P,UNIT_1,J3-2,IO23*%
%TO.N,SI*%
X117941400Y-114976000D03*
%TO.P,UNIT_1,J3-3,IO22*%
%TO.N,SCL*%
X117941400Y-112436000D03*
%TO.P,UNIT_1,J3-4,TXD0*%
%TO.N,unconnected-(UNIT_1-TXD0-PadJ3-4)*%
X117941400Y-109896000D03*
%TO.P,UNIT_1,J3-5,RXD0*%
%TO.N,unconnected-(UNIT_1-RXD0-PadJ3-5)*%
X117941400Y-107356000D03*
%TO.P,UNIT_1,J3-6,IO21*%
%TO.N,SDA*%
X117941400Y-104816000D03*
%TO.P,UNIT_1,J3-7,GND2*%
%TO.N,GND*%
X117941400Y-102276000D03*
%TO.P,UNIT_1,J3-8,IO19*%
%TO.N,SO*%
X117941400Y-99736000D03*
%TO.P,UNIT_1,J3-9,IO18*%
%TO.N,SCK*%
X117941400Y-97196000D03*
%TO.P,UNIT_1,J3-10,IO5*%
%TO.N,CS*%
X117941400Y-94656000D03*
%TO.P,UNIT_1,J3-11,IO17*%
%TO.N,unconnected-(UNIT_1-IO17-PadJ3-11)*%
X117941400Y-92116000D03*
%TO.P,UNIT_1,J3-12,IO16*%
%TO.N,unconnected-(UNIT_1-IO16-PadJ3-12)*%
X117941400Y-89576000D03*
%TO.P,UNIT_1,J3-13,IO4*%
%TO.N,unconnected-(UNIT_1-IO4-PadJ3-13)*%
X117941400Y-87036000D03*
%TO.P,UNIT_1,J3-14,IO0*%
%TO.N,unconnected-(UNIT_1-IO0-PadJ3-14)*%
X117941400Y-84496000D03*
%TO.P,UNIT_1,J3-15,IO2*%
%TO.N,unconnected-(UNIT_1-IO2-PadJ3-15)*%
X117941400Y-81956000D03*
%TO.P,UNIT_1,J3-16,IO15*%
%TO.N,unconnected-(UNIT_1-IO15-PadJ3-16)*%
X117941400Y-79416000D03*
%TO.P,UNIT_1,J3-17,SD1*%
%TO.N,unconnected-(UNIT_1-SD1-PadJ3-17)*%
X117941400Y-76876000D03*
%TO.P,UNIT_1,J3-18,SD0*%
%TO.N,unconnected-(UNIT_1-SD0-PadJ3-18)*%
X117941400Y-74336000D03*
%TO.P,UNIT_1,J3-19,CLK*%
%TO.N,unconnected-(UNIT_1-CLK-PadJ3-19)*%
X117941400Y-71796000D03*
%TD*%
D17*
%TO.P,UNIT_3,1,VIN*%
%TO.N,+5v*%
X123150000Y-106390000D03*
%TO.P,UNIT_3,2,3VO*%
%TO.N,unconnected-(UNIT_3-3VO-Pad2)*%
X125690000Y-106390000D03*
%TO.P,UNIT_3,3,GND*%
%TO.N,GND*%
X128230000Y-106390000D03*
%TO.P,UNIT_3,4,SDA*%
%TO.N,SDA*%
X130770000Y-106390000D03*
%TO.P,UNIT_3,5,SCL*%
%TO.N,SCL*%
X133310000Y-106390000D03*
%TO.P,UNIT_3,6,RST*%
%TO.N,unconnected-(UNIT_3-RST-Pad6)*%
X135850000Y-106390000D03*
%TO.P,UNIT_3,7,ADR*%
%TO.N,unconnected-(UNIT_3-ADR-Pad7)*%
X133310000Y-124170000D03*
%TO.P,UNIT_3,8,INT*%
%TO.N,unconnected-(UNIT_3-INT-Pad8)*%
X130770000Y-124170000D03*
%TO.P,UNIT_3,9,PS1*%
%TO.N,unconnected-(UNIT_3-PS1-Pad9)*%
X128230000Y-124170000D03*
%TO.P,UNIT_3,10,PS0*%
%TO.N,unconnected-(UNIT_3-PS0-Pad10)*%
X125690000Y-124170000D03*
%TD*%
D18*
%TO.N,+5v*%
X122500000Y-97800000D03*
X123900000Y-96400000D03*
%TO.N,CS*%
X128800000Y-95300000D03*
X128900000Y-98100000D03*
%TO.N,SI*%
X125800000Y-104400000D03*
%TD*%
D19*
%TO.N,+5v*%
X121880000Y-98420000D02*
X122500000Y-97800000D01*
X121880000Y-100190000D02*
X121880000Y-98420000D01*
X130170000Y-96400000D02*
X123900000Y-96400000D01*
X131750000Y-94820000D02*
X130170000Y-96400000D01*
%TO.N,CS*%
X126960000Y-100190000D02*
X128900000Y-98250000D01*
X128900000Y-98250000D02*
X128900000Y-98100000D01*
X128800000Y-95300000D02*
X128156000Y-94656000D01*
X128156000Y-94656000D02*
X117941400Y-94656000D01*
%TO.N,SCK*%
X134580000Y-100190000D02*
X131586000Y-97196000D01*
X131586000Y-97196000D02*
X117941400Y-97196000D01*
%TO.N,SI*%
X125800000Y-104400000D02*
X127830000Y-104400000D01*
X127830000Y-104400000D02*
X132040000Y-100190000D01*
%TO.N,+5v*%
X121880000Y-100190000D02*
X121880000Y-105120000D01*
X121880000Y-105120000D02*
X123150000Y-106390000D01*
X131750000Y-76500000D02*
X131750000Y-94820000D01*
X133250000Y-76500000D02*
X137934000Y-71816000D01*
X131750000Y-76500000D02*
X133250000Y-76500000D01*
X137934000Y-71816000D02*
X140981400Y-71816000D01*
%TO.N,SDA*%
X122375400Y-109250000D02*
X117941400Y-104816000D01*
X130770000Y-106390000D02*
X127910000Y-109250000D01*
X127910000Y-109250000D02*
X122375400Y-109250000D01*
%TO.N,SCL*%
X133310000Y-108690000D02*
X129564000Y-112436000D01*
X129564000Y-112436000D02*
X117941400Y-112436000D01*
X133310000Y-106390000D02*
X133310000Y-108690000D01*
%TO.N,Low*%
X127650000Y-62500000D02*
X127650000Y-66850000D01*
X127650000Y-66850000D02*
X127250000Y-67250000D01*
%TO.N,High*%
X129000000Y-60250000D02*
X131250000Y-62500000D01*
X124050000Y-62500000D02*
X124050000Y-62200000D01*
X131250000Y-62500000D02*
X131250000Y-62750000D01*
X131750000Y-63250000D02*
X131750000Y-67250000D01*
X124050000Y-62200000D02*
X126000000Y-60250000D01*
X126000000Y-60250000D02*
X129000000Y-60250000D01*
X131250000Y-62750000D02*
X131750000Y-63250000D01*
%TD*%
M02*
