%TF.GenerationSoftware,KiCad,Pcbnew,8.0.6*%
%TF.CreationDate,2025-01-26T20:50:08-07:00*%
%TF.ProjectId,ESP32 IMU,45535033-3220-4494-9d55-2e6b69636164,rev?*%
%TF.SameCoordinates,Original*%
%TF.FileFunction,Soldermask,Bot*%
%TF.FilePolarity,Negative*%
%FSLAX46Y46*%
G04 Gerber Fmt 4.6, Leading zero omitted, Abs format (unit mm)*
G04 Created by KiCad (PCBNEW 8.0.6) date 2025-01-26 20:50:08*
%MOMM*%
%LPD*%
G01*
G04 APERTURE LIST*
G04 Aperture macros list*
%AMRoundRect*
0 Rectangle with rounded corners*
0 $1 Rounding radius*
0 $2 $3 $4 $5 $6 $7 $8 $9 X,Y pos of 4 corners*
0 Add a 4 corners polygon primitive as box body*
4,1,4,$2,$3,$4,$5,$6,$7,$8,$9,$2,$3,0*
0 Add four circle primitives for the rounded corners*
1,1,$1+$1,$2,$3*
1,1,$1+$1,$4,$5*
1,1,$1+$1,$6,$7*
1,1,$1+$1,$8,$9*
0 Add four rect primitives between the rounded corners*
20,1,$1+$1,$2,$3,$4,$5,0*
20,1,$1+$1,$4,$5,$6,$7,0*
20,1,$1+$1,$6,$7,$8,$9,0*
20,1,$1+$1,$8,$9,$2,$3,0*%
G04 Aperture macros list end*
%ADD10C,2.004000*%
%ADD11C,2.404000*%
%ADD12RoundRect,0.249999X1.025001X1.025001X-1.025001X1.025001X-1.025001X-1.025001X1.025001X-1.025001X0*%
%ADD13C,2.550000*%
%ADD14RoundRect,0.250000X0.550000X0.550000X-0.550000X0.550000X-0.550000X-0.550000X0.550000X-0.550000X0*%
%ADD15C,1.600000*%
%ADD16C,2.204000*%
%ADD17C,2.134400*%
G04 APERTURE END LIST*
D10*
%TO.C,CAN Bus (Facing UP)*%
X137120000Y-100190000D03*
X134580000Y-100190000D03*
X132040000Y-100190000D03*
X129500000Y-100190000D03*
X126960000Y-100190000D03*
X124420000Y-100190000D03*
X121880000Y-100190000D03*
D11*
X131750000Y-67250000D03*
X127250000Y-67250000D03*
%TD*%
D12*
%TO.C,J1*%
X131750000Y-76500000D03*
D13*
X126950000Y-76500000D03*
%TD*%
D14*
%TO.C,J2*%
X134850000Y-62500000D03*
D15*
X131250000Y-62500000D03*
X127650000Y-62500000D03*
X124050000Y-62500000D03*
%TD*%
D16*
%TO.C,UNIT_1*%
X140981400Y-117536000D03*
X140981400Y-114996000D03*
X140981400Y-112456000D03*
X140981400Y-109916000D03*
X140981400Y-107376000D03*
X140981400Y-104836000D03*
X140981400Y-102296000D03*
X140981400Y-99756000D03*
X140981400Y-97216000D03*
X140981400Y-94676000D03*
X140981400Y-92136000D03*
X140981400Y-89596000D03*
X140981400Y-87056000D03*
X140981400Y-84516000D03*
X140981400Y-81976000D03*
X140981400Y-79436000D03*
X140981400Y-76896000D03*
X140981400Y-74356000D03*
X140981400Y-71816000D03*
X117941400Y-117516000D03*
X117941400Y-114976000D03*
X117941400Y-112436000D03*
X117941400Y-109896000D03*
X117941400Y-107356000D03*
X117941400Y-104816000D03*
X117941400Y-102276000D03*
X117941400Y-99736000D03*
X117941400Y-97196000D03*
X117941400Y-94656000D03*
X117941400Y-92116000D03*
X117941400Y-89576000D03*
X117941400Y-87036000D03*
X117941400Y-84496000D03*
X117941400Y-81956000D03*
X117941400Y-79416000D03*
X117941400Y-76876000D03*
X117941400Y-74336000D03*
X117941400Y-71796000D03*
%TD*%
D17*
%TO.C,UNIT_3*%
X123150000Y-106390000D03*
X125690000Y-106390000D03*
X128230000Y-106390000D03*
X130770000Y-106390000D03*
X133310000Y-106390000D03*
X135850000Y-106390000D03*
X133310000Y-124170000D03*
X130770000Y-124170000D03*
X128230000Y-124170000D03*
X125690000Y-124170000D03*
%TD*%
M02*
