%TF.GenerationSoftware,KiCad,Pcbnew,8.0.6*%
%TF.CreationDate,2025-03-25T20:17:01-07:00*%
%TF.ProjectId,Dash Main,44617368-204d-4616-996e-2e6b69636164,rev?*%
%TF.SameCoordinates,Original*%
%TF.FileFunction,Legend,Bot*%
%TF.FilePolarity,Positive*%
%FSLAX46Y46*%
G04 Gerber Fmt 4.6, Leading zero omitted, Abs format (unit mm)*
G04 Created by KiCad (PCBNEW 8.0.6) date 2025-03-25 20:17:01*
%MOMM*%
%LPD*%
G01*
G04 APERTURE LIST*
%ADD10C,0.300000*%
%ADD11C,0.000000*%
G04 APERTURE END LIST*
D10*
X136691427Y-47699757D02*
X136834285Y-47628328D01*
X136834285Y-47628328D02*
X137048570Y-47628328D01*
X137048570Y-47628328D02*
X137262856Y-47699757D01*
X137262856Y-47699757D02*
X137405713Y-47842614D01*
X137405713Y-47842614D02*
X137477142Y-47985471D01*
X137477142Y-47985471D02*
X137548570Y-48271185D01*
X137548570Y-48271185D02*
X137548570Y-48485471D01*
X137548570Y-48485471D02*
X137477142Y-48771185D01*
X137477142Y-48771185D02*
X137405713Y-48914042D01*
X137405713Y-48914042D02*
X137262856Y-49056900D01*
X137262856Y-49056900D02*
X137048570Y-49128328D01*
X137048570Y-49128328D02*
X136905713Y-49128328D01*
X136905713Y-49128328D02*
X136691427Y-49056900D01*
X136691427Y-49056900D02*
X136619999Y-48985471D01*
X136619999Y-48985471D02*
X136619999Y-48485471D01*
X136619999Y-48485471D02*
X136905713Y-48485471D01*
X135762856Y-47628328D02*
X135762856Y-47985471D01*
X136119999Y-47842614D02*
X135762856Y-47985471D01*
X135762856Y-47985471D02*
X135405713Y-47842614D01*
X135977142Y-48271185D02*
X135762856Y-47985471D01*
X135762856Y-47985471D02*
X135548570Y-48271185D01*
X134619999Y-47628328D02*
X134619999Y-47985471D01*
X134977142Y-47842614D02*
X134619999Y-47985471D01*
X134619999Y-47985471D02*
X134262856Y-47842614D01*
X134834285Y-48271185D02*
X134619999Y-47985471D01*
X134619999Y-47985471D02*
X134405713Y-48271185D01*
X133477142Y-47628328D02*
X133477142Y-47985471D01*
X133834285Y-47842614D02*
X133477142Y-47985471D01*
X133477142Y-47985471D02*
X133119999Y-47842614D01*
X133691428Y-48271185D02*
X133477142Y-47985471D01*
X133477142Y-47985471D02*
X133262856Y-48271185D01*
D11*
%TO.C,G\u002A\u002A\u002A*%
G36*
X155626885Y-52790442D02*
G01*
X155847550Y-53177335D01*
X155865051Y-53752906D01*
X155659978Y-54418097D01*
X155372099Y-54856695D01*
X154984533Y-55100613D01*
X154633136Y-55010733D01*
X154396648Y-54577140D01*
X154377056Y-54479020D01*
X154406986Y-53894144D01*
X154617627Y-53310688D01*
X154943729Y-52862476D01*
X155320041Y-52683333D01*
X155626885Y-52790442D01*
G37*
G36*
X113469229Y-53086642D02*
G01*
X113676266Y-53126096D01*
X113838235Y-53283649D01*
X113985525Y-53628737D01*
X114148526Y-54230801D01*
X114357628Y-55159278D01*
X114495075Y-55804154D01*
X114656711Y-56601334D01*
X114767183Y-57195550D01*
X114808095Y-57491553D01*
X114722320Y-57640177D01*
X114369313Y-57686639D01*
X114213661Y-57641994D01*
X114032671Y-57478044D01*
X113869198Y-57131612D01*
X113692508Y-56531460D01*
X113471870Y-55606349D01*
X113417542Y-55367489D01*
X113202861Y-54406384D01*
X113076966Y-53762180D01*
X113039319Y-53371483D01*
X113089382Y-53170901D01*
X113226616Y-53097040D01*
X113450485Y-53086508D01*
X113469229Y-53086642D01*
G37*
G36*
X144743272Y-53086692D02*
G01*
X144969225Y-53120267D01*
X145138671Y-53261796D01*
X145285805Y-53583068D01*
X145444821Y-54155868D01*
X145649915Y-55051984D01*
X145768298Y-55583259D01*
X145952947Y-56398387D01*
X146099554Y-57028921D01*
X146184016Y-57370238D01*
X146196964Y-57422571D01*
X146137675Y-57658497D01*
X145765331Y-57723015D01*
X145421137Y-57696791D01*
X145247778Y-57620088D01*
X145244398Y-57588230D01*
X145181705Y-57256459D01*
X145057444Y-56664503D01*
X144894679Y-55916287D01*
X144716476Y-55115733D01*
X144545899Y-54366766D01*
X144406013Y-53773308D01*
X144319884Y-53439285D01*
X144307407Y-53394252D01*
X144353285Y-53152493D01*
X144713677Y-53086508D01*
X144743272Y-53086692D01*
G37*
G36*
X143102563Y-53086642D02*
G01*
X143309599Y-53126096D01*
X143471568Y-53283649D01*
X143618858Y-53628737D01*
X143781859Y-54230801D01*
X143990961Y-55159278D01*
X144128808Y-55805391D01*
X144290249Y-56598816D01*
X144400574Y-57187686D01*
X144441429Y-57477532D01*
X144389312Y-57570435D01*
X144003253Y-57685239D01*
X143231905Y-57723015D01*
X143189510Y-57723004D01*
X142536885Y-57710885D01*
X142187935Y-57649150D01*
X142047991Y-57498353D01*
X142022381Y-57219047D01*
X142050235Y-56938802D01*
X142236200Y-56756204D01*
X142702080Y-56715079D01*
X143381779Y-56715079D01*
X143011346Y-55152777D01*
X142903973Y-54697230D01*
X142735235Y-53932165D01*
X142666415Y-53458012D01*
X142699948Y-53205319D01*
X142838270Y-53104635D01*
X143083818Y-53086508D01*
X143102563Y-53086642D01*
G37*
G36*
X135594351Y-53178328D02*
G01*
X136256097Y-53580778D01*
X136809956Y-54232658D01*
X137182998Y-55097597D01*
X137323125Y-55956782D01*
X137190074Y-56702506D01*
X136740659Y-57314261D01*
X136628517Y-57407295D01*
X135962131Y-57682247D01*
X135213021Y-57661497D01*
X134542125Y-57342946D01*
X134343468Y-57169445D01*
X134197996Y-56912969D01*
X134336692Y-56644856D01*
X134465048Y-56506639D01*
X134697042Y-56436377D01*
X135057702Y-56626324D01*
X135552677Y-56834031D01*
X135977469Y-56748123D01*
X136229991Y-56376221D01*
X136276272Y-55772537D01*
X136082336Y-54991285D01*
X135920455Y-54629850D01*
X135513995Y-54105236D01*
X135057663Y-53948465D01*
X134583728Y-54177068D01*
X134280163Y-54398551D01*
X133858676Y-54504472D01*
X133617522Y-54336471D01*
X133627369Y-53972293D01*
X133958889Y-53489682D01*
X134238906Y-53267197D01*
X134897645Y-53061677D01*
X135594351Y-53178328D01*
G37*
G36*
X128993338Y-53098125D02*
G01*
X129447871Y-53152315D01*
X129680204Y-53274406D01*
X129783966Y-53489682D01*
X129801274Y-53563943D01*
X129754996Y-53825681D01*
X129404302Y-53892857D01*
X129091914Y-53928796D01*
X128922186Y-54044047D01*
X128936148Y-54153096D01*
X129003369Y-54496190D01*
X129134846Y-55100898D01*
X129340124Y-56010793D01*
X129628747Y-57269444D01*
X129652355Y-57388626D01*
X129598148Y-57657974D01*
X129245664Y-57723015D01*
X129129722Y-57718439D01*
X128912849Y-57642942D01*
X128750762Y-57411684D01*
X128601104Y-56944373D01*
X128421518Y-56160714D01*
X128225894Y-55260937D01*
X128065508Y-54589640D01*
X127932483Y-54184229D01*
X127796433Y-53977658D01*
X127626973Y-53902883D01*
X127393717Y-53892857D01*
X127025070Y-53808897D01*
X126903334Y-53489682D01*
X126903503Y-53468206D01*
X126949971Y-53263357D01*
X127138793Y-53148283D01*
X127556828Y-53097745D01*
X128290933Y-53086508D01*
X128993338Y-53098125D01*
G37*
G36*
X116662144Y-53173289D02*
G01*
X117354535Y-53566051D01*
X117908422Y-54193259D01*
X118283951Y-54963996D01*
X118441269Y-55787345D01*
X118340524Y-56572389D01*
X117941862Y-57228210D01*
X117527451Y-57539455D01*
X116785769Y-57710005D01*
X115937401Y-57494123D01*
X115880552Y-57467321D01*
X115433515Y-57141086D01*
X115341361Y-56803218D01*
X115621952Y-56509474D01*
X115874630Y-56411245D01*
X116017619Y-56492815D01*
X116062369Y-56618691D01*
X116357699Y-56794024D01*
X116776125Y-56835074D01*
X117136023Y-56707050D01*
X117293120Y-56504291D01*
X117415577Y-55940798D01*
X117324921Y-55244742D01*
X117027765Y-54548015D01*
X116788678Y-54236676D01*
X116356619Y-53938470D01*
X115955813Y-53915789D01*
X115687344Y-54195238D01*
X115418534Y-54442320D01*
X115014389Y-54478851D01*
X114698079Y-54281108D01*
X114662978Y-54176982D01*
X114783591Y-53833827D01*
X115138861Y-53478173D01*
X115622037Y-53199305D01*
X116126367Y-53086508D01*
X116662144Y-53173289D01*
G37*
G36*
X141376988Y-57029625D02*
G01*
X141418762Y-57370238D01*
X141371650Y-57556966D01*
X141118459Y-57687888D01*
X140560873Y-57722702D01*
X140057477Y-57688909D01*
X139046023Y-57374168D01*
X138266727Y-56765055D01*
X137765380Y-55905950D01*
X137604357Y-54940648D01*
X138597892Y-54940648D01*
X138697419Y-55581932D01*
X139013203Y-56183925D01*
X139244396Y-56406980D01*
X139652345Y-56635277D01*
X140048814Y-56735299D01*
X140320510Y-56683896D01*
X140354137Y-56457920D01*
X140291342Y-56246099D01*
X140162758Y-55718629D01*
X140015896Y-55046809D01*
X140011303Y-55024740D01*
X139840765Y-54337215D01*
X139654130Y-53991970D01*
X139389586Y-53932309D01*
X138985319Y-54101537D01*
X138716395Y-54392620D01*
X138597892Y-54940648D01*
X137604357Y-54940648D01*
X137587774Y-54841233D01*
X137643854Y-54322420D01*
X137987865Y-53644805D01*
X138631925Y-53228332D01*
X139560849Y-53086508D01*
X140544626Y-53086508D01*
X140982265Y-55051984D01*
X141098503Y-55586922D01*
X141263696Y-56400458D01*
X141274043Y-56457920D01*
X141376988Y-57029625D01*
G37*
G36*
X107201161Y-53177545D02*
G01*
X107880694Y-53580364D01*
X108414157Y-54221257D01*
X108764794Y-55008195D01*
X108895848Y-55849146D01*
X108770560Y-56652081D01*
X108352174Y-57324968D01*
X108213246Y-57441061D01*
X107582329Y-57685347D01*
X106851164Y-57678950D01*
X106192530Y-57414691D01*
X106014078Y-57240787D01*
X105685787Y-56690773D01*
X105435537Y-56000714D01*
X105334617Y-55342774D01*
X105341147Y-55297600D01*
X105561254Y-55140900D01*
X105990014Y-55105405D01*
X106485647Y-55174096D01*
X106906377Y-55329951D01*
X107110423Y-55555952D01*
X107080733Y-55800140D01*
X106759385Y-55908730D01*
X106445250Y-55969863D01*
X106372797Y-56206105D01*
X106658209Y-56599886D01*
X107059270Y-56884759D01*
X107462327Y-56905172D01*
X107755254Y-56642211D01*
X107903954Y-56159316D01*
X107874333Y-55519925D01*
X107632294Y-54787479D01*
X107547163Y-54622967D01*
X107118154Y-54112091D01*
X106636431Y-53957900D01*
X106154548Y-54181928D01*
X106053933Y-54257702D01*
X105652366Y-54383656D01*
X105289688Y-54316147D01*
X105131905Y-54072876D01*
X105189946Y-53860596D01*
X105532386Y-53488161D01*
X106066784Y-53201324D01*
X106659317Y-53086508D01*
X107201161Y-53177545D01*
G37*
G36*
X160868911Y-56135895D02*
G01*
X161907906Y-56238204D01*
X162808689Y-56331012D01*
X163730478Y-56421478D01*
X164463825Y-56488616D01*
X164902540Y-56522350D01*
X165507302Y-56554651D01*
X164902540Y-56730272D01*
X164588081Y-56813012D01*
X163896769Y-56971931D01*
X163138651Y-57127159D01*
X162513563Y-57258849D01*
X162153710Y-57397892D01*
X162007279Y-57602456D01*
X161979524Y-57938895D01*
X161912015Y-58351044D01*
X161727540Y-58524117D01*
X161533254Y-58512861D01*
X160909297Y-58439972D01*
X160068332Y-58312803D01*
X159087242Y-58146148D01*
X158042910Y-57954801D01*
X157012216Y-57753558D01*
X156072044Y-57557213D01*
X155299276Y-57380561D01*
X154770793Y-57238396D01*
X154563479Y-57145514D01*
X154622695Y-56989151D01*
X155001474Y-57029628D01*
X155550128Y-57056670D01*
X156163477Y-56936420D01*
X156349764Y-56876588D01*
X156835050Y-56826090D01*
X157275293Y-57020591D01*
X157361500Y-57075645D01*
X157676825Y-57211967D01*
X158010599Y-57167265D01*
X158527205Y-56929591D01*
X158720196Y-56824568D01*
X159180082Y-56513111D01*
X159413599Y-56258512D01*
X159498636Y-56158281D01*
X159729330Y-56095404D01*
X160164404Y-56088118D01*
X160868911Y-56135895D01*
G37*
G36*
X119221680Y-40739285D02*
G01*
X119267441Y-40895813D01*
X119495264Y-41681451D01*
X119791055Y-42708155D01*
X120121613Y-43860489D01*
X120453737Y-45023015D01*
X120716281Y-45914296D01*
X121117940Y-47132317D01*
X121460312Y-47963411D01*
X121746096Y-48414660D01*
X121980947Y-48613648D01*
X122748884Y-48940280D01*
X123634742Y-48972754D01*
X124511173Y-48698017D01*
X125243615Y-48315847D01*
X125797137Y-49009553D01*
X125835538Y-49057958D01*
X126246244Y-49661713D01*
X126335150Y-50086248D01*
X126088422Y-50408516D01*
X125492222Y-50705472D01*
X125473025Y-50713058D01*
X124552739Y-50945041D01*
X123434745Y-51040154D01*
X122264766Y-51002841D01*
X121188526Y-50837546D01*
X120351746Y-50548713D01*
X119926196Y-50298719D01*
X119498542Y-49953321D01*
X119118634Y-49502543D01*
X118762820Y-48898613D01*
X118407446Y-48093755D01*
X118028859Y-47040196D01*
X117603408Y-45690163D01*
X117107438Y-43995881D01*
X116884933Y-43218188D01*
X116541363Y-42013897D01*
X116247225Y-40978568D01*
X116017982Y-40166840D01*
X115869097Y-39633349D01*
X115816032Y-39432734D01*
X115821982Y-39427912D01*
X116066825Y-39402874D01*
X116598905Y-39385240D01*
X117319401Y-39378571D01*
X118822769Y-39378571D01*
X119221680Y-40739285D01*
G37*
G36*
X121805514Y-56201814D02*
G01*
X122150489Y-56912168D01*
X122383107Y-57408842D01*
X122468413Y-57618864D01*
X122364849Y-57736574D01*
X122053758Y-57717036D01*
X121685096Y-57563493D01*
X121413694Y-57319841D01*
X121122350Y-57047244D01*
X120485970Y-56916666D01*
X120353055Y-56919350D01*
X119902405Y-57023488D01*
X119704600Y-57319841D01*
X119574230Y-57552752D01*
X119219505Y-57723015D01*
X119036882Y-57689814D01*
X118916525Y-57550336D01*
X118854747Y-57245580D01*
X118846632Y-56716541D01*
X118887263Y-55904217D01*
X118930502Y-55313115D01*
X119855671Y-55313115D01*
X119887098Y-55823378D01*
X120004972Y-56055425D01*
X120250953Y-56110317D01*
X120413714Y-56095849D01*
X120614255Y-55932350D01*
X120560001Y-55549519D01*
X120250953Y-54900793D01*
X119864677Y-54195238D01*
X119856228Y-55152777D01*
X119855671Y-55313115D01*
X118930502Y-55313115D01*
X118971722Y-54749603D01*
X119038546Y-53947640D01*
X119109006Y-53449881D01*
X119215742Y-53194223D01*
X119392840Y-53099991D01*
X119674385Y-53086508D01*
X119819017Y-53093121D01*
X120050914Y-53163640D01*
X120275544Y-53360183D01*
X120538122Y-53742216D01*
X120883868Y-54369203D01*
X121357999Y-55300610D01*
X121383133Y-55350752D01*
X121671779Y-55932350D01*
X121805514Y-56201814D01*
G37*
G36*
X111997682Y-53153548D02*
G01*
X112267503Y-53439285D01*
X112283175Y-53494175D01*
X112386993Y-53910242D01*
X112538033Y-54558309D01*
X112713262Y-55334245D01*
X112889646Y-56133922D01*
X113044152Y-56853211D01*
X113153747Y-57387983D01*
X113195397Y-57634108D01*
X113094016Y-57693193D01*
X112741826Y-57686639D01*
X112573601Y-57642599D01*
X112353554Y-57451787D01*
X112170971Y-57038540D01*
X111976737Y-56314791D01*
X111961585Y-56251368D01*
X111790230Y-55594900D01*
X111651052Y-55289331D01*
X111510800Y-55344529D01*
X111336222Y-55770358D01*
X111094067Y-56576684D01*
X110960850Y-57017415D01*
X110774987Y-57473831D01*
X110579929Y-57668929D01*
X110317769Y-57685414D01*
X110190144Y-57653633D01*
X109998630Y-57506302D01*
X109829429Y-57181279D01*
X109649779Y-56605810D01*
X109426918Y-55707142D01*
X109203647Y-54739084D01*
X109046700Y-53969536D01*
X108988667Y-53481082D01*
X109029004Y-53215782D01*
X109167165Y-53115695D01*
X109402606Y-53122884D01*
X109555551Y-53163424D01*
X109773822Y-53354145D01*
X109953703Y-53769809D01*
X110142100Y-54497619D01*
X110441052Y-55807936D01*
X110839265Y-54447222D01*
X111039679Y-53805351D01*
X111234979Y-53351467D01*
X111437491Y-53139115D01*
X111698885Y-53086508D01*
X111997682Y-53153548D01*
G37*
G36*
X125287643Y-55051984D02*
G01*
X125408572Y-55596733D01*
X125585643Y-56379759D01*
X125721673Y-56963141D01*
X125794270Y-57249736D01*
X125810804Y-57325783D01*
X125747116Y-57602513D01*
X125633679Y-57664073D01*
X125259420Y-57723015D01*
X125131216Y-57703685D01*
X124906731Y-57472180D01*
X124763285Y-56916666D01*
X124617983Y-56399653D01*
X124390555Y-56132645D01*
X124153431Y-56214581D01*
X123967321Y-56664682D01*
X123861592Y-57119323D01*
X123721603Y-57520097D01*
X123541274Y-57688633D01*
X123254546Y-57723015D01*
X123175870Y-57721620D01*
X122948910Y-57655407D01*
X122881384Y-57410631D01*
X122931757Y-56878635D01*
X122969533Y-56425050D01*
X122876682Y-55929564D01*
X122555125Y-55452057D01*
X122144803Y-54760112D01*
X122122110Y-54500379D01*
X123173969Y-54500379D01*
X123177506Y-54609467D01*
X123312806Y-54936693D01*
X123728334Y-55065374D01*
X123829529Y-55075146D01*
X124184750Y-55025307D01*
X124279612Y-54762993D01*
X124233633Y-54418139D01*
X123977168Y-54014975D01*
X123552987Y-53926179D01*
X123308816Y-54057074D01*
X123173969Y-54500379D01*
X122122110Y-54500379D01*
X122087912Y-54108971D01*
X122375229Y-53576963D01*
X122976876Y-53218128D01*
X123862976Y-53086508D01*
X124854364Y-53086508D01*
X125223936Y-54762993D01*
X125287643Y-55051984D01*
G37*
G36*
X133477908Y-56169434D02*
G01*
X133833062Y-56880007D01*
X134072610Y-57380595D01*
X134160476Y-57597797D01*
X134042733Y-57678970D01*
X133670093Y-57723015D01*
X133347770Y-57658642D01*
X133051746Y-57319841D01*
X132976984Y-57157739D01*
X132692535Y-56968416D01*
X132131019Y-56916666D01*
X131667556Y-56940098D01*
X131402597Y-57060064D01*
X131338254Y-57333861D01*
X131338246Y-57338626D01*
X131239786Y-57648449D01*
X130884683Y-57686639D01*
X130862794Y-57683363D01*
X130532747Y-57522439D01*
X130471308Y-57118254D01*
X130479427Y-57014576D01*
X130519912Y-56480796D01*
X130576843Y-55716427D01*
X130579484Y-55680552D01*
X131445794Y-55680552D01*
X131472658Y-55959127D01*
X131543395Y-56017692D01*
X131848601Y-56098168D01*
X132186595Y-56101196D01*
X132346191Y-56013603D01*
X132330266Y-55945199D01*
X132206114Y-55588647D01*
X131999144Y-55056063D01*
X131652097Y-54195238D01*
X131516888Y-55001587D01*
X131490771Y-55172521D01*
X131445794Y-55680552D01*
X130579484Y-55680552D01*
X130640595Y-54850396D01*
X130649343Y-54730984D01*
X130713900Y-53929952D01*
X130783367Y-53443371D01*
X130888185Y-53192859D01*
X131058796Y-53100032D01*
X131325641Y-53086508D01*
X131437825Y-53091078D01*
X131673038Y-53158018D01*
X131903429Y-53351432D01*
X132174534Y-53730222D01*
X132531891Y-54353291D01*
X133021036Y-55279543D01*
X133043226Y-55322274D01*
X133397950Y-56013603D01*
X133477908Y-56169434D01*
G37*
G36*
X115770428Y-47279546D02*
G01*
X116516029Y-48409853D01*
X117141050Y-49363393D01*
X117619576Y-50100592D01*
X117925694Y-50581874D01*
X118033492Y-50767666D01*
X118021747Y-50780050D01*
X117752672Y-50825334D01*
X117200688Y-50857079D01*
X116462457Y-50869047D01*
X114891422Y-50869047D01*
X114295394Y-49865111D01*
X113699365Y-48861175D01*
X111352282Y-48857175D01*
X111112780Y-48856817D01*
X110123534Y-48864907D01*
X109459721Y-48913795D01*
X109056426Y-49036614D01*
X108848732Y-49266496D01*
X108771721Y-49636574D01*
X108760476Y-50179979D01*
X108760476Y-50869047D01*
X107221171Y-50869047D01*
X105681866Y-50869047D01*
X105794998Y-50012301D01*
X105822480Y-49781425D01*
X105892610Y-49125395D01*
X105988768Y-48178010D01*
X106104202Y-47007203D01*
X106120594Y-46837301D01*
X108962064Y-46837301D01*
X110692355Y-46837301D01*
X111032035Y-46834200D01*
X111730629Y-46804523D01*
X112200895Y-46750141D01*
X112355450Y-46679353D01*
X112332161Y-46634845D01*
X112139617Y-46305250D01*
X111789594Y-45722838D01*
X111321901Y-44953558D01*
X110776349Y-44063362D01*
X109264445Y-41605319D01*
X109138293Y-42961389D01*
X109085906Y-43607167D01*
X109022185Y-44651943D01*
X108987103Y-45577381D01*
X108962064Y-46837301D01*
X106120594Y-46837301D01*
X106232163Y-45680910D01*
X106365900Y-44267063D01*
X106823669Y-39378571D01*
X108666658Y-39378571D01*
X110509647Y-39378571D01*
X114271569Y-45022428D01*
X114930159Y-46012048D01*
X115372539Y-46679353D01*
X115770428Y-47279546D01*
G37*
G36*
X156436577Y-51536090D02*
G01*
X157060828Y-51851878D01*
X157542303Y-52432646D01*
X157798239Y-53243851D01*
X157815220Y-53710511D01*
X157653941Y-54663158D01*
X157287231Y-55558261D01*
X156772723Y-56228111D01*
X156612033Y-56358002D01*
X155874421Y-56701024D01*
X155149820Y-56689929D01*
X154512393Y-56358544D01*
X154036301Y-55740695D01*
X153795703Y-54870211D01*
X153708423Y-53993650D01*
X154019915Y-54951190D01*
X154123490Y-55235499D01*
X154384020Y-55725483D01*
X154627688Y-55908730D01*
X154761798Y-55934904D01*
X154923969Y-56148846D01*
X155001868Y-56207774D01*
X155219938Y-55997656D01*
X155424598Y-55788076D01*
X155542413Y-55807936D01*
X155601229Y-55806623D01*
X155713978Y-55505555D01*
X155879508Y-55184252D01*
X156197852Y-55029585D01*
X156358278Y-55028213D01*
X156527704Y-54887395D01*
X156341682Y-54584856D01*
X156221939Y-54339659D01*
X156253167Y-53956441D01*
X156437474Y-53648669D01*
X156714350Y-53579569D01*
X156769065Y-53597605D01*
X156881912Y-53594967D01*
X156662573Y-53399068D01*
X156445440Y-53156339D01*
X156375908Y-52844209D01*
X156395175Y-52679554D01*
X156207189Y-52334312D01*
X155805247Y-52101193D01*
X155319790Y-52075177D01*
X154839223Y-52377968D01*
X154369603Y-53082784D01*
X154195030Y-53407496D01*
X153994233Y-53710468D01*
X153916032Y-53720731D01*
X153992136Y-53363208D01*
X154331468Y-52723565D01*
X154885521Y-52028174D01*
X155090797Y-51837620D01*
X155752313Y-51519823D01*
X156436577Y-51536090D01*
G37*
G36*
X150690635Y-55404761D02*
G01*
X150689057Y-56271195D01*
X150675041Y-56976888D01*
X150634364Y-57406277D01*
X150552797Y-57628002D01*
X150416112Y-57710702D01*
X150210080Y-57723015D01*
X150071700Y-57712630D01*
X149803347Y-57578598D01*
X149559090Y-57223441D01*
X149271505Y-56563888D01*
X149264110Y-56545185D01*
X148936922Y-55758186D01*
X148717649Y-55349008D01*
X148589261Y-55312355D01*
X148534729Y-55642929D01*
X148537022Y-56335434D01*
X148541116Y-56482984D01*
X148545236Y-57118863D01*
X148493655Y-57459601D01*
X148355141Y-57596840D01*
X148098461Y-57622222D01*
X148088361Y-57622159D01*
X147863548Y-57572244D01*
X147646032Y-57388638D01*
X147395781Y-57011493D01*
X147072765Y-56380959D01*
X146636953Y-55437188D01*
X146256661Y-54586954D01*
X145941881Y-53868733D01*
X145729116Y-53366597D01*
X145650953Y-53155941D01*
X145790178Y-53107832D01*
X146179092Y-53123514D01*
X146448288Y-53196879D01*
X146700931Y-53415357D01*
X146957172Y-53855556D01*
X147277274Y-54598412D01*
X147847317Y-56009523D01*
X147857865Y-54548015D01*
X147858225Y-54501068D01*
X147876873Y-53757347D01*
X147932175Y-53329169D01*
X148045882Y-53133301D01*
X148239740Y-53086508D01*
X148286159Y-53090221D01*
X148541985Y-53256330D01*
X148823196Y-53707713D01*
X149164697Y-54497619D01*
X149215585Y-54626231D01*
X149487867Y-55277147D01*
X149704265Y-55735438D01*
X149821766Y-55908730D01*
X149826275Y-55907310D01*
X149854870Y-55694699D01*
X149839697Y-55191143D01*
X149783492Y-54497619D01*
X149641780Y-53086508D01*
X150166208Y-53086508D01*
X150690635Y-53086508D01*
X150690635Y-55404761D01*
G37*
G36*
X137340269Y-47279546D02*
G01*
X138085871Y-48409853D01*
X138710891Y-49363393D01*
X139189417Y-50100592D01*
X139495536Y-50581874D01*
X139603334Y-50767666D01*
X139590428Y-50780597D01*
X139317308Y-50825623D01*
X138761985Y-50857163D01*
X138020768Y-50869047D01*
X136438202Y-50869047D01*
X135811634Y-49861111D01*
X135185066Y-48853174D01*
X132757692Y-48853174D01*
X130330318Y-48853174D01*
X130330318Y-49861111D01*
X130330318Y-50869047D01*
X128818413Y-50869047D01*
X128771330Y-50869026D01*
X128009244Y-50855747D01*
X127565210Y-50805107D01*
X127358460Y-50698237D01*
X127308224Y-50516269D01*
X127318890Y-50342669D01*
X127365126Y-49798198D01*
X127442811Y-48954784D01*
X127546332Y-47871799D01*
X127647674Y-46837301D01*
X130531905Y-46837301D01*
X132257294Y-46837301D01*
X132595349Y-46834337D01*
X133288211Y-46805934D01*
X133750127Y-46753877D01*
X133895021Y-46686111D01*
X133872679Y-46648695D01*
X133679582Y-46331527D01*
X133329438Y-45759362D01*
X132862951Y-44998659D01*
X132320822Y-44115873D01*
X130834286Y-41696825D01*
X130700756Y-42704761D01*
X130631341Y-43423015D01*
X130576848Y-44347956D01*
X130549565Y-45275000D01*
X130531905Y-46837301D01*
X127647674Y-46837301D01*
X127670077Y-46608614D01*
X127808434Y-45224603D01*
X127907790Y-44231873D01*
X128036832Y-42915331D01*
X128147317Y-41756166D01*
X128233571Y-40815300D01*
X128289918Y-40153652D01*
X128310686Y-39832142D01*
X128311002Y-39805768D01*
X128338899Y-39603135D01*
X128465274Y-39477415D01*
X128766297Y-39410291D01*
X129318137Y-39383448D01*
X130196966Y-39378571D01*
X132079488Y-39378571D01*
X135841411Y-45022428D01*
X136500000Y-46012048D01*
X136946860Y-46686111D01*
X137340269Y-47279546D01*
G37*
G36*
X148920425Y-44450823D02*
G01*
X149288836Y-45741028D01*
X149646860Y-47000582D01*
X149977625Y-48170026D01*
X150127131Y-48701984D01*
X150264258Y-49189897D01*
X150489886Y-50000737D01*
X150637636Y-50543083D01*
X150690635Y-50757475D01*
X150574734Y-50800298D01*
X150121690Y-50841054D01*
X149392769Y-50866537D01*
X148459419Y-50877739D01*
X147393089Y-50875652D01*
X146265228Y-50861268D01*
X145147285Y-50835579D01*
X144110707Y-50799578D01*
X143226943Y-50754256D01*
X142567442Y-50700606D01*
X142203653Y-50639620D01*
X141192533Y-50149756D01*
X140367877Y-49447409D01*
X139793298Y-48608746D01*
X139517347Y-47704917D01*
X139569551Y-47046858D01*
X142627143Y-47046858D01*
X142679202Y-47656142D01*
X142928435Y-48178988D01*
X143447910Y-48558249D01*
X143725226Y-48652569D01*
X144300774Y-48754995D01*
X145010810Y-48825414D01*
X145748509Y-48859574D01*
X146407045Y-48853224D01*
X146879592Y-48802111D01*
X147059325Y-48701984D01*
X147016763Y-48493744D01*
X146884920Y-47997216D01*
X146695327Y-47341269D01*
X146334067Y-46131746D01*
X145051659Y-46070855D01*
X144070787Y-46075131D01*
X143256666Y-46229138D01*
X142781500Y-46550613D01*
X142627143Y-47046858D01*
X139569551Y-47046858D01*
X139588573Y-46807076D01*
X139590397Y-46801029D01*
X139927365Y-46123803D01*
X140418148Y-45589644D01*
X141015231Y-45148201D01*
X140361119Y-44873167D01*
X140316778Y-44854246D01*
X139347932Y-44269229D01*
X138664364Y-43510962D01*
X138293573Y-42642616D01*
X138285738Y-42407624D01*
X141414673Y-42407624D01*
X141542842Y-43098905D01*
X141795295Y-43412856D01*
X142238386Y-43720154D01*
X142420676Y-43789202D01*
X142949906Y-43898649D01*
X143629291Y-43976916D01*
X144348960Y-44018950D01*
X144999041Y-44019696D01*
X145469663Y-43974102D01*
X145650953Y-43877113D01*
X145616191Y-43691678D01*
X145496890Y-43211331D01*
X145322007Y-42566796D01*
X144993062Y-41394444D01*
X143653370Y-41394444D01*
X143143266Y-41409823D01*
X142209639Y-41567321D01*
X141635190Y-41898509D01*
X141414673Y-42407624D01*
X138285738Y-42407624D01*
X138263057Y-41727358D01*
X138600315Y-40828358D01*
X138815113Y-40512595D01*
X139211721Y-40106536D01*
X139724483Y-39807694D01*
X140410551Y-39600993D01*
X141327078Y-39471360D01*
X142531215Y-39403720D01*
X144080115Y-39382998D01*
X147448166Y-39378571D01*
X147847840Y-40739285D01*
X147921599Y-40990912D01*
X148219934Y-42016305D01*
X148558500Y-43189428D01*
X148755814Y-43877113D01*
X148920425Y-44450823D01*
G37*
G36*
X159130206Y-39258845D02*
G01*
X159251551Y-39959683D01*
X159344122Y-40936900D01*
X159403953Y-41999206D01*
X159417107Y-42232762D01*
X159479691Y-43889531D01*
X159515007Y-44905750D01*
X159533455Y-45325396D01*
X159571911Y-46200166D01*
X159636172Y-47141758D01*
X159714587Y-47761343D01*
X159813948Y-48089738D01*
X159941049Y-48157759D01*
X160102686Y-47996222D01*
X160305651Y-47635946D01*
X160391788Y-47360317D01*
X160457656Y-46747299D01*
X160469175Y-45815969D01*
X160427952Y-44525525D01*
X160422395Y-44401337D01*
X160382568Y-43328050D01*
X160377524Y-42582833D01*
X160388644Y-42424840D01*
X160569138Y-42424840D01*
X160683808Y-42477373D01*
X160930530Y-42191625D01*
X161051997Y-41932009D01*
X160966969Y-41797619D01*
X160851369Y-41836195D01*
X160637976Y-42108694D01*
X160569138Y-42424840D01*
X160388644Y-42424840D01*
X160411630Y-42098247D01*
X160489255Y-41806854D01*
X160614766Y-41641213D01*
X160913590Y-41497204D01*
X161358562Y-41577563D01*
X161650123Y-41932009D01*
X161676764Y-41964396D01*
X161697335Y-42045970D01*
X161754829Y-42498320D01*
X161815863Y-43239777D01*
X161874332Y-44188914D01*
X161924132Y-45264302D01*
X161956249Y-46229243D01*
X161960954Y-47313799D01*
X161900059Y-48099420D01*
X161754839Y-48646692D01*
X161506565Y-49016204D01*
X161136511Y-49268544D01*
X160625950Y-49464298D01*
X160483200Y-49511402D01*
X159988751Y-49698953D01*
X159714866Y-49841946D01*
X159681633Y-49927978D01*
X159606340Y-50356680D01*
X159518703Y-51075409D01*
X159427075Y-52011776D01*
X159339804Y-53093388D01*
X159338120Y-53116497D01*
X159246078Y-54311864D01*
X159163664Y-55171269D01*
X159078437Y-55760220D01*
X158977954Y-56144221D01*
X158849771Y-56388781D01*
X158681446Y-56559406D01*
X158376599Y-56772118D01*
X157875249Y-56894262D01*
X157293433Y-56688543D01*
X157130410Y-56595793D01*
X156991510Y-56426608D01*
X157182535Y-56229828D01*
X157324215Y-56080766D01*
X157613433Y-55558323D01*
X157879268Y-54846557D01*
X158073865Y-54084908D01*
X158149365Y-53412815D01*
X158103409Y-52960123D01*
X157898201Y-52278384D01*
X157587658Y-51709814D01*
X157237269Y-51399009D01*
X157045336Y-51204753D01*
X156939842Y-50777286D01*
X156925231Y-50598496D01*
X156728666Y-50253847D01*
X156227031Y-49971865D01*
X156208316Y-49963948D01*
X155711203Y-49653390D01*
X155330504Y-49166232D01*
X155043482Y-48446033D01*
X154827398Y-47436349D01*
X154659517Y-46080737D01*
X154587558Y-45140275D01*
X154584013Y-44214818D01*
X154967369Y-44214818D01*
X154975405Y-45170429D01*
X155042649Y-46938095D01*
X155086855Y-45325396D01*
X155091162Y-45182001D01*
X155129812Y-44353600D01*
X155183845Y-43649343D01*
X155242972Y-43208730D01*
X155285612Y-43002082D01*
X155279866Y-42857814D01*
X155131522Y-43053763D01*
X155122287Y-43069382D01*
X155018384Y-43486608D01*
X154967369Y-44214818D01*
X154584013Y-44214818D01*
X154582880Y-43918940D01*
X154713285Y-43056933D01*
X154977332Y-42561605D01*
X155373578Y-42440307D01*
X155530196Y-42480520D01*
X155755794Y-42651878D01*
X155924176Y-42999201D01*
X155924804Y-43002082D01*
X156050571Y-43579287D01*
X156150213Y-44448934D01*
X156238333Y-45664941D01*
X156264771Y-46045481D01*
X156369030Y-47056521D01*
X156500722Y-47790657D01*
X156649546Y-48184782D01*
X156657384Y-48194876D01*
X156745202Y-48255890D01*
X156812287Y-48162423D01*
X156861402Y-47873029D01*
X156895310Y-47346263D01*
X156916775Y-46540679D01*
X156924770Y-45776980D01*
X157771210Y-45776980D01*
X157798741Y-46694494D01*
X157809381Y-46851928D01*
X157833239Y-46970541D01*
X157852361Y-46733248D01*
X157865011Y-46173661D01*
X157869453Y-45325396D01*
X157868492Y-44934158D01*
X157860060Y-44220439D01*
X157844365Y-43818938D01*
X157823135Y-43759973D01*
X157798100Y-44073859D01*
X157775637Y-44734919D01*
X157771210Y-45776980D01*
X156924770Y-45776980D01*
X156928561Y-45414832D01*
X156933430Y-43927278D01*
X156935786Y-42931433D01*
X157152040Y-42931433D01*
X157163234Y-43712328D01*
X157193245Y-44216666D01*
X157227555Y-44321809D01*
X157262125Y-44086405D01*
X157291193Y-43545362D01*
X157310755Y-42748684D01*
X157321395Y-42289573D01*
X157352781Y-41840712D01*
X157979055Y-41840712D01*
X158010406Y-42351984D01*
X158029252Y-42409180D01*
X158081579Y-42365957D01*
X158102597Y-41999206D01*
X158100647Y-41862432D01*
X158068836Y-41583689D01*
X158010406Y-41646428D01*
X157979055Y-41840712D01*
X157352781Y-41840712D01*
X157412120Y-40992068D01*
X157595531Y-40038194D01*
X157881941Y-39388144D01*
X158281668Y-39002114D01*
X158341328Y-38966812D01*
X158516399Y-38821328D01*
X158339085Y-38779939D01*
X158069489Y-38834584D01*
X157633530Y-39059613D01*
X157510818Y-39168525D01*
X157368275Y-39412946D01*
X157275287Y-39816902D01*
X157216138Y-40461604D01*
X157175109Y-41428264D01*
X157160484Y-42000199D01*
X157152040Y-42931433D01*
X156935786Y-42931433D01*
X156936912Y-42455353D01*
X156945914Y-41318218D01*
X156965106Y-40477337D01*
X156999182Y-39879010D01*
X157052833Y-39469535D01*
X157130751Y-39195209D01*
X157237628Y-39002331D01*
X157378156Y-38837198D01*
X157814296Y-38512700D01*
X158280122Y-38370635D01*
X158501673Y-38391964D01*
X158764454Y-38517250D01*
X158970903Y-38792122D01*
X158980872Y-38821328D01*
X159130206Y-39258845D01*
G37*
%TD*%
M02*
