%TF.GenerationSoftware,KiCad,Pcbnew,8.0.6*%
%TF.CreationDate,2025-03-25T20:17:01-07:00*%
%TF.ProjectId,Dash Main,44617368-204d-4616-996e-2e6b69636164,rev?*%
%TF.SameCoordinates,Original*%
%TF.FileFunction,Legend,Top*%
%TF.FilePolarity,Positive*%
%FSLAX46Y46*%
G04 Gerber Fmt 4.6, Leading zero omitted, Abs format (unit mm)*
G04 Created by KiCad (PCBNEW 8.0.6) date 2025-03-25 20:17:01*
%MOMM*%
%LPD*%
G01*
G04 APERTURE LIST*
%ADD10C,0.100000*%
%ADD11C,0.300000*%
%ADD12C,0.125000*%
%ADD13C,0.101600*%
%ADD14C,0.081280*%
%ADD15C,0.150000*%
%ADD16C,0.120000*%
G04 APERTURE END LIST*
D10*
X85703884Y-38891466D02*
X86465789Y-38891466D01*
X86084836Y-39272419D02*
X86084836Y-38510514D01*
X87418169Y-38272419D02*
X86941979Y-38272419D01*
X86941979Y-38272419D02*
X86894360Y-38748609D01*
X86894360Y-38748609D02*
X86941979Y-38700990D01*
X86941979Y-38700990D02*
X87037217Y-38653371D01*
X87037217Y-38653371D02*
X87275312Y-38653371D01*
X87275312Y-38653371D02*
X87370550Y-38700990D01*
X87370550Y-38700990D02*
X87418169Y-38748609D01*
X87418169Y-38748609D02*
X87465788Y-38843847D01*
X87465788Y-38843847D02*
X87465788Y-39081942D01*
X87465788Y-39081942D02*
X87418169Y-39177180D01*
X87418169Y-39177180D02*
X87370550Y-39224800D01*
X87370550Y-39224800D02*
X87275312Y-39272419D01*
X87275312Y-39272419D02*
X87037217Y-39272419D01*
X87037217Y-39272419D02*
X86941979Y-39224800D01*
X86941979Y-39224800D02*
X86894360Y-39177180D01*
X87751503Y-38272419D02*
X88084836Y-39272419D01*
X88084836Y-39272419D02*
X88418169Y-38272419D01*
X91103884Y-97391466D02*
X91865789Y-97391466D01*
X91484836Y-97772419D02*
X91484836Y-97010514D01*
X92818169Y-96772419D02*
X92341979Y-96772419D01*
X92341979Y-96772419D02*
X92294360Y-97248609D01*
X92294360Y-97248609D02*
X92341979Y-97200990D01*
X92341979Y-97200990D02*
X92437217Y-97153371D01*
X92437217Y-97153371D02*
X92675312Y-97153371D01*
X92675312Y-97153371D02*
X92770550Y-97200990D01*
X92770550Y-97200990D02*
X92818169Y-97248609D01*
X92818169Y-97248609D02*
X92865788Y-97343847D01*
X92865788Y-97343847D02*
X92865788Y-97581942D01*
X92865788Y-97581942D02*
X92818169Y-97677180D01*
X92818169Y-97677180D02*
X92770550Y-97724800D01*
X92770550Y-97724800D02*
X92675312Y-97772419D01*
X92675312Y-97772419D02*
X92437217Y-97772419D01*
X92437217Y-97772419D02*
X92341979Y-97724800D01*
X92341979Y-97724800D02*
X92294360Y-97677180D01*
X93151503Y-96772419D02*
X93484836Y-97772419D01*
X93484836Y-97772419D02*
X93818169Y-96772419D01*
X188337217Y-44748609D02*
X188480074Y-44796228D01*
X188480074Y-44796228D02*
X188527693Y-44843847D01*
X188527693Y-44843847D02*
X188575312Y-44939085D01*
X188575312Y-44939085D02*
X188575312Y-45081942D01*
X188575312Y-45081942D02*
X188527693Y-45177180D01*
X188527693Y-45177180D02*
X188480074Y-45224800D01*
X188480074Y-45224800D02*
X188384836Y-45272419D01*
X188384836Y-45272419D02*
X188003884Y-45272419D01*
X188003884Y-45272419D02*
X188003884Y-44272419D01*
X188003884Y-44272419D02*
X188337217Y-44272419D01*
X188337217Y-44272419D02*
X188432455Y-44320038D01*
X188432455Y-44320038D02*
X188480074Y-44367657D01*
X188480074Y-44367657D02*
X188527693Y-44462895D01*
X188527693Y-44462895D02*
X188527693Y-44558133D01*
X188527693Y-44558133D02*
X188480074Y-44653371D01*
X188480074Y-44653371D02*
X188432455Y-44700990D01*
X188432455Y-44700990D02*
X188337217Y-44748609D01*
X188337217Y-44748609D02*
X188003884Y-44748609D01*
X189432455Y-44605752D02*
X189432455Y-45272419D01*
X189003884Y-44605752D02*
X189003884Y-45129561D01*
X189003884Y-45129561D02*
X189051503Y-45224800D01*
X189051503Y-45224800D02*
X189146741Y-45272419D01*
X189146741Y-45272419D02*
X189289598Y-45272419D01*
X189289598Y-45272419D02*
X189384836Y-45224800D01*
X189384836Y-45224800D02*
X189432455Y-45177180D01*
X189765789Y-44605752D02*
X190146741Y-44605752D01*
X189908646Y-44272419D02*
X189908646Y-45129561D01*
X189908646Y-45129561D02*
X189956265Y-45224800D01*
X189956265Y-45224800D02*
X190051503Y-45272419D01*
X190051503Y-45272419D02*
X190146741Y-45272419D01*
X190337218Y-44605752D02*
X190718170Y-44605752D01*
X190480075Y-44272419D02*
X190480075Y-45129561D01*
X190480075Y-45129561D02*
X190527694Y-45224800D01*
X190527694Y-45224800D02*
X190622932Y-45272419D01*
X190622932Y-45272419D02*
X190718170Y-45272419D01*
X191194361Y-45272419D02*
X191099123Y-45224800D01*
X191099123Y-45224800D02*
X191051504Y-45177180D01*
X191051504Y-45177180D02*
X191003885Y-45081942D01*
X191003885Y-45081942D02*
X191003885Y-44796228D01*
X191003885Y-44796228D02*
X191051504Y-44700990D01*
X191051504Y-44700990D02*
X191099123Y-44653371D01*
X191099123Y-44653371D02*
X191194361Y-44605752D01*
X191194361Y-44605752D02*
X191337218Y-44605752D01*
X191337218Y-44605752D02*
X191432456Y-44653371D01*
X191432456Y-44653371D02*
X191480075Y-44700990D01*
X191480075Y-44700990D02*
X191527694Y-44796228D01*
X191527694Y-44796228D02*
X191527694Y-45081942D01*
X191527694Y-45081942D02*
X191480075Y-45177180D01*
X191480075Y-45177180D02*
X191432456Y-45224800D01*
X191432456Y-45224800D02*
X191337218Y-45272419D01*
X191337218Y-45272419D02*
X191194361Y-45272419D01*
X191956266Y-44605752D02*
X191956266Y-45272419D01*
X191956266Y-44700990D02*
X192003885Y-44653371D01*
X192003885Y-44653371D02*
X192099123Y-44605752D01*
X192099123Y-44605752D02*
X192241980Y-44605752D01*
X192241980Y-44605752D02*
X192337218Y-44653371D01*
X192337218Y-44653371D02*
X192384837Y-44748609D01*
X192384837Y-44748609D02*
X192384837Y-45272419D01*
X193575314Y-44367657D02*
X193622933Y-44320038D01*
X193622933Y-44320038D02*
X193718171Y-44272419D01*
X193718171Y-44272419D02*
X193956266Y-44272419D01*
X193956266Y-44272419D02*
X194051504Y-44320038D01*
X194051504Y-44320038D02*
X194099123Y-44367657D01*
X194099123Y-44367657D02*
X194146742Y-44462895D01*
X194146742Y-44462895D02*
X194146742Y-44558133D01*
X194146742Y-44558133D02*
X194099123Y-44700990D01*
X194099123Y-44700990D02*
X193527695Y-45272419D01*
X193527695Y-45272419D02*
X194146742Y-45272419D01*
X99456265Y-99624800D02*
X99599122Y-99672419D01*
X99599122Y-99672419D02*
X99837217Y-99672419D01*
X99837217Y-99672419D02*
X99932455Y-99624800D01*
X99932455Y-99624800D02*
X99980074Y-99577180D01*
X99980074Y-99577180D02*
X100027693Y-99481942D01*
X100027693Y-99481942D02*
X100027693Y-99386704D01*
X100027693Y-99386704D02*
X99980074Y-99291466D01*
X99980074Y-99291466D02*
X99932455Y-99243847D01*
X99932455Y-99243847D02*
X99837217Y-99196228D01*
X99837217Y-99196228D02*
X99646741Y-99148609D01*
X99646741Y-99148609D02*
X99551503Y-99100990D01*
X99551503Y-99100990D02*
X99503884Y-99053371D01*
X99503884Y-99053371D02*
X99456265Y-98958133D01*
X99456265Y-98958133D02*
X99456265Y-98862895D01*
X99456265Y-98862895D02*
X99503884Y-98767657D01*
X99503884Y-98767657D02*
X99551503Y-98720038D01*
X99551503Y-98720038D02*
X99646741Y-98672419D01*
X99646741Y-98672419D02*
X99884836Y-98672419D01*
X99884836Y-98672419D02*
X100027693Y-98720038D01*
X100599122Y-99672419D02*
X100503884Y-99624800D01*
X100503884Y-99624800D02*
X100456265Y-99577180D01*
X100456265Y-99577180D02*
X100408646Y-99481942D01*
X100408646Y-99481942D02*
X100408646Y-99196228D01*
X100408646Y-99196228D02*
X100456265Y-99100990D01*
X100456265Y-99100990D02*
X100503884Y-99053371D01*
X100503884Y-99053371D02*
X100599122Y-99005752D01*
X100599122Y-99005752D02*
X100741979Y-99005752D01*
X100741979Y-99005752D02*
X100837217Y-99053371D01*
X100837217Y-99053371D02*
X100884836Y-99100990D01*
X100884836Y-99100990D02*
X100932455Y-99196228D01*
X100932455Y-99196228D02*
X100932455Y-99481942D01*
X100932455Y-99481942D02*
X100884836Y-99577180D01*
X100884836Y-99577180D02*
X100837217Y-99624800D01*
X100837217Y-99624800D02*
X100741979Y-99672419D01*
X100741979Y-99672419D02*
X100599122Y-99672419D01*
X101503884Y-99672419D02*
X101408646Y-99624800D01*
X101408646Y-99624800D02*
X101361027Y-99529561D01*
X101361027Y-99529561D02*
X101361027Y-98672419D01*
X102313408Y-99672419D02*
X102313408Y-98672419D01*
X102313408Y-99624800D02*
X102218170Y-99672419D01*
X102218170Y-99672419D02*
X102027694Y-99672419D01*
X102027694Y-99672419D02*
X101932456Y-99624800D01*
X101932456Y-99624800D02*
X101884837Y-99577180D01*
X101884837Y-99577180D02*
X101837218Y-99481942D01*
X101837218Y-99481942D02*
X101837218Y-99196228D01*
X101837218Y-99196228D02*
X101884837Y-99100990D01*
X101884837Y-99100990D02*
X101932456Y-99053371D01*
X101932456Y-99053371D02*
X102027694Y-99005752D01*
X102027694Y-99005752D02*
X102218170Y-99005752D01*
X102218170Y-99005752D02*
X102313408Y-99053371D01*
X103170551Y-99624800D02*
X103075313Y-99672419D01*
X103075313Y-99672419D02*
X102884837Y-99672419D01*
X102884837Y-99672419D02*
X102789599Y-99624800D01*
X102789599Y-99624800D02*
X102741980Y-99529561D01*
X102741980Y-99529561D02*
X102741980Y-99148609D01*
X102741980Y-99148609D02*
X102789599Y-99053371D01*
X102789599Y-99053371D02*
X102884837Y-99005752D01*
X102884837Y-99005752D02*
X103075313Y-99005752D01*
X103075313Y-99005752D02*
X103170551Y-99053371D01*
X103170551Y-99053371D02*
X103218170Y-99148609D01*
X103218170Y-99148609D02*
X103218170Y-99243847D01*
X103218170Y-99243847D02*
X102741980Y-99339085D01*
X103646742Y-99672419D02*
X103646742Y-99005752D01*
X103646742Y-99196228D02*
X103694361Y-99100990D01*
X103694361Y-99100990D02*
X103741980Y-99053371D01*
X103741980Y-99053371D02*
X103837218Y-99005752D01*
X103837218Y-99005752D02*
X103932456Y-99005752D01*
X105027695Y-99672419D02*
X105027695Y-98672419D01*
X105027695Y-99148609D02*
X105599123Y-99148609D01*
X105599123Y-99672419D02*
X105599123Y-98672419D01*
X106456266Y-99624800D02*
X106361028Y-99672419D01*
X106361028Y-99672419D02*
X106170552Y-99672419D01*
X106170552Y-99672419D02*
X106075314Y-99624800D01*
X106075314Y-99624800D02*
X106027695Y-99529561D01*
X106027695Y-99529561D02*
X106027695Y-99148609D01*
X106027695Y-99148609D02*
X106075314Y-99053371D01*
X106075314Y-99053371D02*
X106170552Y-99005752D01*
X106170552Y-99005752D02*
X106361028Y-99005752D01*
X106361028Y-99005752D02*
X106456266Y-99053371D01*
X106456266Y-99053371D02*
X106503885Y-99148609D01*
X106503885Y-99148609D02*
X106503885Y-99243847D01*
X106503885Y-99243847D02*
X106027695Y-99339085D01*
X106932457Y-99672419D02*
X106932457Y-99005752D01*
X106932457Y-99196228D02*
X106980076Y-99100990D01*
X106980076Y-99100990D02*
X107027695Y-99053371D01*
X107027695Y-99053371D02*
X107122933Y-99005752D01*
X107122933Y-99005752D02*
X107218171Y-99005752D01*
X107932457Y-99624800D02*
X107837219Y-99672419D01*
X107837219Y-99672419D02*
X107646743Y-99672419D01*
X107646743Y-99672419D02*
X107551505Y-99624800D01*
X107551505Y-99624800D02*
X107503886Y-99529561D01*
X107503886Y-99529561D02*
X107503886Y-99148609D01*
X107503886Y-99148609D02*
X107551505Y-99053371D01*
X107551505Y-99053371D02*
X107646743Y-99005752D01*
X107646743Y-99005752D02*
X107837219Y-99005752D01*
X107837219Y-99005752D02*
X107932457Y-99053371D01*
X107932457Y-99053371D02*
X107980076Y-99148609D01*
X107980076Y-99148609D02*
X107980076Y-99243847D01*
X107980076Y-99243847D02*
X107503886Y-99339085D01*
X108408648Y-99577180D02*
X108456267Y-99624800D01*
X108456267Y-99624800D02*
X108408648Y-99672419D01*
X108408648Y-99672419D02*
X108361029Y-99624800D01*
X108361029Y-99624800D02*
X108408648Y-99577180D01*
X108408648Y-99577180D02*
X108408648Y-99672419D01*
X108408648Y-99291466D02*
X108361029Y-98720038D01*
X108361029Y-98720038D02*
X108408648Y-98672419D01*
X108408648Y-98672419D02*
X108456267Y-98720038D01*
X108456267Y-98720038D02*
X108408648Y-99291466D01*
X108408648Y-99291466D02*
X108408648Y-98672419D01*
X72037217Y-76727657D02*
X72037217Y-78870514D01*
X72037217Y-78870514D02*
X71894360Y-79299085D01*
X71894360Y-79299085D02*
X71608646Y-79584800D01*
X71608646Y-79584800D02*
X71180074Y-79727657D01*
X71180074Y-79727657D02*
X70894360Y-79727657D01*
X75037217Y-79727657D02*
X73322931Y-79727657D01*
X74180074Y-79727657D02*
X74180074Y-76727657D01*
X74180074Y-76727657D02*
X73894360Y-77156228D01*
X73894360Y-77156228D02*
X73608645Y-77441942D01*
X73608645Y-77441942D02*
X73322931Y-77584800D01*
X189175312Y-96272419D02*
X188841979Y-95796228D01*
X188603884Y-96272419D02*
X188603884Y-95272419D01*
X188603884Y-95272419D02*
X188984836Y-95272419D01*
X188984836Y-95272419D02*
X189080074Y-95320038D01*
X189080074Y-95320038D02*
X189127693Y-95367657D01*
X189127693Y-95367657D02*
X189175312Y-95462895D01*
X189175312Y-95462895D02*
X189175312Y-95605752D01*
X189175312Y-95605752D02*
X189127693Y-95700990D01*
X189127693Y-95700990D02*
X189080074Y-95748609D01*
X189080074Y-95748609D02*
X188984836Y-95796228D01*
X188984836Y-95796228D02*
X188603884Y-95796228D01*
X189603884Y-96272419D02*
X189603884Y-95605752D01*
X189603884Y-95272419D02*
X189556265Y-95320038D01*
X189556265Y-95320038D02*
X189603884Y-95367657D01*
X189603884Y-95367657D02*
X189651503Y-95320038D01*
X189651503Y-95320038D02*
X189603884Y-95272419D01*
X189603884Y-95272419D02*
X189603884Y-95367657D01*
X190508645Y-95605752D02*
X190508645Y-96415276D01*
X190508645Y-96415276D02*
X190461026Y-96510514D01*
X190461026Y-96510514D02*
X190413407Y-96558133D01*
X190413407Y-96558133D02*
X190318169Y-96605752D01*
X190318169Y-96605752D02*
X190175312Y-96605752D01*
X190175312Y-96605752D02*
X190080074Y-96558133D01*
X190508645Y-96224800D02*
X190413407Y-96272419D01*
X190413407Y-96272419D02*
X190222931Y-96272419D01*
X190222931Y-96272419D02*
X190127693Y-96224800D01*
X190127693Y-96224800D02*
X190080074Y-96177180D01*
X190080074Y-96177180D02*
X190032455Y-96081942D01*
X190032455Y-96081942D02*
X190032455Y-95796228D01*
X190032455Y-95796228D02*
X190080074Y-95700990D01*
X190080074Y-95700990D02*
X190127693Y-95653371D01*
X190127693Y-95653371D02*
X190222931Y-95605752D01*
X190222931Y-95605752D02*
X190413407Y-95605752D01*
X190413407Y-95605752D02*
X190508645Y-95653371D01*
X190984836Y-96272419D02*
X190984836Y-95272419D01*
X191413407Y-96272419D02*
X191413407Y-95748609D01*
X191413407Y-95748609D02*
X191365788Y-95653371D01*
X191365788Y-95653371D02*
X191270550Y-95605752D01*
X191270550Y-95605752D02*
X191127693Y-95605752D01*
X191127693Y-95605752D02*
X191032455Y-95653371D01*
X191032455Y-95653371D02*
X190984836Y-95700990D01*
X191746741Y-95605752D02*
X192127693Y-95605752D01*
X191889598Y-95272419D02*
X191889598Y-96129561D01*
X191889598Y-96129561D02*
X191937217Y-96224800D01*
X191937217Y-96224800D02*
X192032455Y-96272419D01*
X192032455Y-96272419D02*
X192127693Y-96272419D01*
X193699122Y-96272419D02*
X193222932Y-96272419D01*
X193222932Y-96272419D02*
X193222932Y-95272419D01*
X194032456Y-95748609D02*
X194365789Y-95748609D01*
X194508646Y-96272419D02*
X194032456Y-96272419D01*
X194032456Y-96272419D02*
X194032456Y-95272419D01*
X194032456Y-95272419D02*
X194508646Y-95272419D01*
X194937218Y-96272419D02*
X194937218Y-95272419D01*
X194937218Y-95272419D02*
X195175313Y-95272419D01*
X195175313Y-95272419D02*
X195318170Y-95320038D01*
X195318170Y-95320038D02*
X195413408Y-95415276D01*
X195413408Y-95415276D02*
X195461027Y-95510514D01*
X195461027Y-95510514D02*
X195508646Y-95700990D01*
X195508646Y-95700990D02*
X195508646Y-95843847D01*
X195508646Y-95843847D02*
X195461027Y-96034323D01*
X195461027Y-96034323D02*
X195413408Y-96129561D01*
X195413408Y-96129561D02*
X195318170Y-96224800D01*
X195318170Y-96224800D02*
X195175313Y-96272419D01*
X195175313Y-96272419D02*
X194937218Y-96272419D01*
X69656265Y-67524800D02*
X69799122Y-67572419D01*
X69799122Y-67572419D02*
X70037217Y-67572419D01*
X70037217Y-67572419D02*
X70132455Y-67524800D01*
X70132455Y-67524800D02*
X70180074Y-67477180D01*
X70180074Y-67477180D02*
X70227693Y-67381942D01*
X70227693Y-67381942D02*
X70227693Y-67286704D01*
X70227693Y-67286704D02*
X70180074Y-67191466D01*
X70180074Y-67191466D02*
X70132455Y-67143847D01*
X70132455Y-67143847D02*
X70037217Y-67096228D01*
X70037217Y-67096228D02*
X69846741Y-67048609D01*
X69846741Y-67048609D02*
X69751503Y-67000990D01*
X69751503Y-67000990D02*
X69703884Y-66953371D01*
X69703884Y-66953371D02*
X69656265Y-66858133D01*
X69656265Y-66858133D02*
X69656265Y-66762895D01*
X69656265Y-66762895D02*
X69703884Y-66667657D01*
X69703884Y-66667657D02*
X69751503Y-66620038D01*
X69751503Y-66620038D02*
X69846741Y-66572419D01*
X69846741Y-66572419D02*
X70084836Y-66572419D01*
X70084836Y-66572419D02*
X70227693Y-66620038D01*
X70656265Y-66905752D02*
X70656265Y-67905752D01*
X70656265Y-66953371D02*
X70751503Y-66905752D01*
X70751503Y-66905752D02*
X70941979Y-66905752D01*
X70941979Y-66905752D02*
X71037217Y-66953371D01*
X71037217Y-66953371D02*
X71084836Y-67000990D01*
X71084836Y-67000990D02*
X71132455Y-67096228D01*
X71132455Y-67096228D02*
X71132455Y-67381942D01*
X71132455Y-67381942D02*
X71084836Y-67477180D01*
X71084836Y-67477180D02*
X71037217Y-67524800D01*
X71037217Y-67524800D02*
X70941979Y-67572419D01*
X70941979Y-67572419D02*
X70751503Y-67572419D01*
X70751503Y-67572419D02*
X70656265Y-67524800D01*
X71941979Y-67524800D02*
X71846741Y-67572419D01*
X71846741Y-67572419D02*
X71656265Y-67572419D01*
X71656265Y-67572419D02*
X71561027Y-67524800D01*
X71561027Y-67524800D02*
X71513408Y-67429561D01*
X71513408Y-67429561D02*
X71513408Y-67048609D01*
X71513408Y-67048609D02*
X71561027Y-66953371D01*
X71561027Y-66953371D02*
X71656265Y-66905752D01*
X71656265Y-66905752D02*
X71846741Y-66905752D01*
X71846741Y-66905752D02*
X71941979Y-66953371D01*
X71941979Y-66953371D02*
X71989598Y-67048609D01*
X71989598Y-67048609D02*
X71989598Y-67143847D01*
X71989598Y-67143847D02*
X71513408Y-67239085D01*
X72799122Y-67524800D02*
X72703884Y-67572419D01*
X72703884Y-67572419D02*
X72513408Y-67572419D01*
X72513408Y-67572419D02*
X72418170Y-67524800D01*
X72418170Y-67524800D02*
X72370551Y-67429561D01*
X72370551Y-67429561D02*
X72370551Y-67048609D01*
X72370551Y-67048609D02*
X72418170Y-66953371D01*
X72418170Y-66953371D02*
X72513408Y-66905752D01*
X72513408Y-66905752D02*
X72703884Y-66905752D01*
X72703884Y-66905752D02*
X72799122Y-66953371D01*
X72799122Y-66953371D02*
X72846741Y-67048609D01*
X72846741Y-67048609D02*
X72846741Y-67143847D01*
X72846741Y-67143847D02*
X72370551Y-67239085D01*
X73703884Y-67572419D02*
X73703884Y-66572419D01*
X73703884Y-67524800D02*
X73608646Y-67572419D01*
X73608646Y-67572419D02*
X73418170Y-67572419D01*
X73418170Y-67572419D02*
X73322932Y-67524800D01*
X73322932Y-67524800D02*
X73275313Y-67477180D01*
X73275313Y-67477180D02*
X73227694Y-67381942D01*
X73227694Y-67381942D02*
X73227694Y-67096228D01*
X73227694Y-67096228D02*
X73275313Y-67000990D01*
X73275313Y-67000990D02*
X73322932Y-66953371D01*
X73322932Y-66953371D02*
X73418170Y-66905752D01*
X73418170Y-66905752D02*
X73608646Y-66905752D01*
X73608646Y-66905752D02*
X73703884Y-66953371D01*
X74894361Y-67524800D02*
X75037218Y-67572419D01*
X75037218Y-67572419D02*
X75275313Y-67572419D01*
X75275313Y-67572419D02*
X75370551Y-67524800D01*
X75370551Y-67524800D02*
X75418170Y-67477180D01*
X75418170Y-67477180D02*
X75465789Y-67381942D01*
X75465789Y-67381942D02*
X75465789Y-67286704D01*
X75465789Y-67286704D02*
X75418170Y-67191466D01*
X75418170Y-67191466D02*
X75370551Y-67143847D01*
X75370551Y-67143847D02*
X75275313Y-67096228D01*
X75275313Y-67096228D02*
X75084837Y-67048609D01*
X75084837Y-67048609D02*
X74989599Y-67000990D01*
X74989599Y-67000990D02*
X74941980Y-66953371D01*
X74941980Y-66953371D02*
X74894361Y-66858133D01*
X74894361Y-66858133D02*
X74894361Y-66762895D01*
X74894361Y-66762895D02*
X74941980Y-66667657D01*
X74941980Y-66667657D02*
X74989599Y-66620038D01*
X74989599Y-66620038D02*
X75084837Y-66572419D01*
X75084837Y-66572419D02*
X75322932Y-66572419D01*
X75322932Y-66572419D02*
X75465789Y-66620038D01*
X76275313Y-67524800D02*
X76180075Y-67572419D01*
X76180075Y-67572419D02*
X75989599Y-67572419D01*
X75989599Y-67572419D02*
X75894361Y-67524800D01*
X75894361Y-67524800D02*
X75846742Y-67429561D01*
X75846742Y-67429561D02*
X75846742Y-67048609D01*
X75846742Y-67048609D02*
X75894361Y-66953371D01*
X75894361Y-66953371D02*
X75989599Y-66905752D01*
X75989599Y-66905752D02*
X76180075Y-66905752D01*
X76180075Y-66905752D02*
X76275313Y-66953371D01*
X76275313Y-66953371D02*
X76322932Y-67048609D01*
X76322932Y-67048609D02*
X76322932Y-67143847D01*
X76322932Y-67143847D02*
X75846742Y-67239085D01*
X76751504Y-67572419D02*
X76751504Y-66905752D01*
X76751504Y-67096228D02*
X76799123Y-67000990D01*
X76799123Y-67000990D02*
X76846742Y-66953371D01*
X76846742Y-66953371D02*
X76941980Y-66905752D01*
X76941980Y-66905752D02*
X77037218Y-66905752D01*
X77275314Y-66905752D02*
X77513409Y-67572419D01*
X77513409Y-67572419D02*
X77751504Y-66905752D01*
X78275314Y-67572419D02*
X78180076Y-67524800D01*
X78180076Y-67524800D02*
X78132457Y-67477180D01*
X78132457Y-67477180D02*
X78084838Y-67381942D01*
X78084838Y-67381942D02*
X78084838Y-67096228D01*
X78084838Y-67096228D02*
X78132457Y-67000990D01*
X78132457Y-67000990D02*
X78180076Y-66953371D01*
X78180076Y-66953371D02*
X78275314Y-66905752D01*
X78275314Y-66905752D02*
X78418171Y-66905752D01*
X78418171Y-66905752D02*
X78513409Y-66953371D01*
X78513409Y-66953371D02*
X78561028Y-67000990D01*
X78561028Y-67000990D02*
X78608647Y-67096228D01*
X78608647Y-67096228D02*
X78608647Y-67381942D01*
X78608647Y-67381942D02*
X78561028Y-67477180D01*
X78561028Y-67477180D02*
X78513409Y-67524800D01*
X78513409Y-67524800D02*
X78418171Y-67572419D01*
X78418171Y-67572419D02*
X78275314Y-67572419D01*
X193603884Y-59191466D02*
X194365789Y-59191466D01*
X87753884Y-48158609D02*
X88087217Y-48158609D01*
X88230074Y-48682419D02*
X87753884Y-48682419D01*
X87753884Y-48682419D02*
X87753884Y-47682419D01*
X87753884Y-47682419D02*
X88230074Y-47682419D01*
X88611027Y-48634800D02*
X88753884Y-48682419D01*
X88753884Y-48682419D02*
X88991979Y-48682419D01*
X88991979Y-48682419D02*
X89087217Y-48634800D01*
X89087217Y-48634800D02*
X89134836Y-48587180D01*
X89134836Y-48587180D02*
X89182455Y-48491942D01*
X89182455Y-48491942D02*
X89182455Y-48396704D01*
X89182455Y-48396704D02*
X89134836Y-48301466D01*
X89134836Y-48301466D02*
X89087217Y-48253847D01*
X89087217Y-48253847D02*
X88991979Y-48206228D01*
X88991979Y-48206228D02*
X88801503Y-48158609D01*
X88801503Y-48158609D02*
X88706265Y-48110990D01*
X88706265Y-48110990D02*
X88658646Y-48063371D01*
X88658646Y-48063371D02*
X88611027Y-47968133D01*
X88611027Y-47968133D02*
X88611027Y-47872895D01*
X88611027Y-47872895D02*
X88658646Y-47777657D01*
X88658646Y-47777657D02*
X88706265Y-47730038D01*
X88706265Y-47730038D02*
X88801503Y-47682419D01*
X88801503Y-47682419D02*
X89039598Y-47682419D01*
X89039598Y-47682419D02*
X89182455Y-47730038D01*
X89611027Y-48682419D02*
X89611027Y-47682419D01*
X89611027Y-47682419D02*
X89991979Y-47682419D01*
X89991979Y-47682419D02*
X90087217Y-47730038D01*
X90087217Y-47730038D02*
X90134836Y-47777657D01*
X90134836Y-47777657D02*
X90182455Y-47872895D01*
X90182455Y-47872895D02*
X90182455Y-48015752D01*
X90182455Y-48015752D02*
X90134836Y-48110990D01*
X90134836Y-48110990D02*
X90087217Y-48158609D01*
X90087217Y-48158609D02*
X89991979Y-48206228D01*
X89991979Y-48206228D02*
X89611027Y-48206228D01*
X91277694Y-47682419D02*
X91896741Y-47682419D01*
X91896741Y-47682419D02*
X91563408Y-48063371D01*
X91563408Y-48063371D02*
X91706265Y-48063371D01*
X91706265Y-48063371D02*
X91801503Y-48110990D01*
X91801503Y-48110990D02*
X91849122Y-48158609D01*
X91849122Y-48158609D02*
X91896741Y-48253847D01*
X91896741Y-48253847D02*
X91896741Y-48491942D01*
X91896741Y-48491942D02*
X91849122Y-48587180D01*
X91849122Y-48587180D02*
X91801503Y-48634800D01*
X91801503Y-48634800D02*
X91706265Y-48682419D01*
X91706265Y-48682419D02*
X91420551Y-48682419D01*
X91420551Y-48682419D02*
X91325313Y-48634800D01*
X91325313Y-48634800D02*
X91277694Y-48587180D01*
X92277694Y-47777657D02*
X92325313Y-47730038D01*
X92325313Y-47730038D02*
X92420551Y-47682419D01*
X92420551Y-47682419D02*
X92658646Y-47682419D01*
X92658646Y-47682419D02*
X92753884Y-47730038D01*
X92753884Y-47730038D02*
X92801503Y-47777657D01*
X92801503Y-47777657D02*
X92849122Y-47872895D01*
X92849122Y-47872895D02*
X92849122Y-47968133D01*
X92849122Y-47968133D02*
X92801503Y-48110990D01*
X92801503Y-48110990D02*
X92230075Y-48682419D01*
X92230075Y-48682419D02*
X92849122Y-48682419D01*
X121480074Y-97672419D02*
X121003884Y-97672419D01*
X121003884Y-97672419D02*
X121003884Y-96672419D01*
X142013408Y-31150038D02*
X142013408Y-32578609D01*
X142013408Y-32578609D02*
X141918169Y-32864323D01*
X141918169Y-32864323D02*
X141727693Y-33054800D01*
X141727693Y-33054800D02*
X141441979Y-33150038D01*
X141441979Y-33150038D02*
X141251503Y-33150038D01*
X142775313Y-31150038D02*
X144108646Y-31150038D01*
X144108646Y-31150038D02*
X143251503Y-33150038D01*
X114280074Y-97572419D02*
X113803884Y-97572419D01*
X113803884Y-97572419D02*
X113803884Y-96572419D01*
X190013408Y-34650038D02*
X190013408Y-36078609D01*
X190013408Y-36078609D02*
X189918169Y-36364323D01*
X189918169Y-36364323D02*
X189727693Y-36554800D01*
X189727693Y-36554800D02*
X189441979Y-36650038D01*
X189441979Y-36650038D02*
X189251503Y-36650038D01*
X191061027Y-36650038D02*
X191441979Y-36650038D01*
X191441979Y-36650038D02*
X191632456Y-36554800D01*
X191632456Y-36554800D02*
X191727694Y-36459561D01*
X191727694Y-36459561D02*
X191918170Y-36173847D01*
X191918170Y-36173847D02*
X192013408Y-35792895D01*
X192013408Y-35792895D02*
X192013408Y-35030990D01*
X192013408Y-35030990D02*
X191918170Y-34840514D01*
X191918170Y-34840514D02*
X191822932Y-34745276D01*
X191822932Y-34745276D02*
X191632456Y-34650038D01*
X191632456Y-34650038D02*
X191251503Y-34650038D01*
X191251503Y-34650038D02*
X191061027Y-34745276D01*
X191061027Y-34745276D02*
X190965789Y-34840514D01*
X190965789Y-34840514D02*
X190870551Y-35030990D01*
X190870551Y-35030990D02*
X190870551Y-35507180D01*
X190870551Y-35507180D02*
X190965789Y-35697657D01*
X190965789Y-35697657D02*
X191061027Y-35792895D01*
X191061027Y-35792895D02*
X191251503Y-35888133D01*
X191251503Y-35888133D02*
X191632456Y-35888133D01*
X191632456Y-35888133D02*
X191822932Y-35792895D01*
X191822932Y-35792895D02*
X191918170Y-35697657D01*
X191918170Y-35697657D02*
X192013408Y-35507180D01*
X76656265Y-82786704D02*
X77132455Y-82786704D01*
X76561027Y-83072419D02*
X76894360Y-82072419D01*
X76894360Y-82072419D02*
X77227693Y-83072419D01*
X78084836Y-83072419D02*
X77513408Y-83072419D01*
X77799122Y-83072419D02*
X77799122Y-82072419D01*
X77799122Y-82072419D02*
X77703884Y-82215276D01*
X77703884Y-82215276D02*
X77608646Y-82310514D01*
X77608646Y-82310514D02*
X77513408Y-82358133D01*
X78418170Y-82072419D02*
X79037217Y-82072419D01*
X79037217Y-82072419D02*
X78703884Y-82453371D01*
X78703884Y-82453371D02*
X78846741Y-82453371D01*
X78846741Y-82453371D02*
X78941979Y-82500990D01*
X78941979Y-82500990D02*
X78989598Y-82548609D01*
X78989598Y-82548609D02*
X79037217Y-82643847D01*
X79037217Y-82643847D02*
X79037217Y-82881942D01*
X79037217Y-82881942D02*
X78989598Y-82977180D01*
X78989598Y-82977180D02*
X78941979Y-83024800D01*
X78941979Y-83024800D02*
X78846741Y-83072419D01*
X78846741Y-83072419D02*
X78561027Y-83072419D01*
X78561027Y-83072419D02*
X78465789Y-83024800D01*
X78465789Y-83024800D02*
X78418170Y-82977180D01*
D11*
X111518796Y-140680828D02*
X110804510Y-140680828D01*
X110804510Y-140680828D02*
X110804510Y-139180828D01*
D10*
X117403884Y-97672419D02*
X117403884Y-96672419D01*
X117403884Y-97148609D02*
X117975312Y-97148609D01*
X117975312Y-97672419D02*
X117975312Y-96672419D01*
D12*
X72213664Y-49347337D02*
X72332712Y-49847337D01*
X72332712Y-49847337D02*
X72427950Y-49490194D01*
X72427950Y-49490194D02*
X72523188Y-49847337D01*
X72523188Y-49847337D02*
X72642236Y-49347337D01*
X72832712Y-49847337D02*
X72832712Y-49347337D01*
X73046998Y-49847337D02*
X73046998Y-49585432D01*
X73046998Y-49585432D02*
X73023188Y-49537813D01*
X73023188Y-49537813D02*
X72975569Y-49514004D01*
X72975569Y-49514004D02*
X72904141Y-49514004D01*
X72904141Y-49514004D02*
X72856522Y-49537813D01*
X72856522Y-49537813D02*
X72832712Y-49561623D01*
X73475569Y-49823528D02*
X73427950Y-49847337D01*
X73427950Y-49847337D02*
X73332712Y-49847337D01*
X73332712Y-49847337D02*
X73285093Y-49823528D01*
X73285093Y-49823528D02*
X73261284Y-49775908D01*
X73261284Y-49775908D02*
X73261284Y-49585432D01*
X73261284Y-49585432D02*
X73285093Y-49537813D01*
X73285093Y-49537813D02*
X73332712Y-49514004D01*
X73332712Y-49514004D02*
X73427950Y-49514004D01*
X73427950Y-49514004D02*
X73475569Y-49537813D01*
X73475569Y-49537813D02*
X73499379Y-49585432D01*
X73499379Y-49585432D02*
X73499379Y-49633051D01*
X73499379Y-49633051D02*
X73261284Y-49680670D01*
X73713664Y-49847337D02*
X73713664Y-49514004D01*
X73713664Y-49609242D02*
X73737474Y-49561623D01*
X73737474Y-49561623D02*
X73761283Y-49537813D01*
X73761283Y-49537813D02*
X73808902Y-49514004D01*
X73808902Y-49514004D02*
X73856521Y-49514004D01*
X74213664Y-49823528D02*
X74166045Y-49847337D01*
X74166045Y-49847337D02*
X74070807Y-49847337D01*
X74070807Y-49847337D02*
X74023188Y-49823528D01*
X74023188Y-49823528D02*
X73999379Y-49775908D01*
X73999379Y-49775908D02*
X73999379Y-49585432D01*
X73999379Y-49585432D02*
X74023188Y-49537813D01*
X74023188Y-49537813D02*
X74070807Y-49514004D01*
X74070807Y-49514004D02*
X74166045Y-49514004D01*
X74166045Y-49514004D02*
X74213664Y-49537813D01*
X74213664Y-49537813D02*
X74237474Y-49585432D01*
X74237474Y-49585432D02*
X74237474Y-49633051D01*
X74237474Y-49633051D02*
X73999379Y-49680670D01*
X74832711Y-49847337D02*
X74832711Y-49514004D01*
X74832711Y-49347337D02*
X74808902Y-49371147D01*
X74808902Y-49371147D02*
X74832711Y-49394956D01*
X74832711Y-49394956D02*
X74856521Y-49371147D01*
X74856521Y-49371147D02*
X74832711Y-49347337D01*
X74832711Y-49347337D02*
X74832711Y-49394956D01*
X75046997Y-49823528D02*
X75094616Y-49847337D01*
X75094616Y-49847337D02*
X75189854Y-49847337D01*
X75189854Y-49847337D02*
X75237473Y-49823528D01*
X75237473Y-49823528D02*
X75261282Y-49775908D01*
X75261282Y-49775908D02*
X75261282Y-49752099D01*
X75261282Y-49752099D02*
X75237473Y-49704480D01*
X75237473Y-49704480D02*
X75189854Y-49680670D01*
X75189854Y-49680670D02*
X75118425Y-49680670D01*
X75118425Y-49680670D02*
X75070806Y-49656861D01*
X75070806Y-49656861D02*
X75046997Y-49609242D01*
X75046997Y-49609242D02*
X75046997Y-49585432D01*
X75046997Y-49585432D02*
X75070806Y-49537813D01*
X75070806Y-49537813D02*
X75118425Y-49514004D01*
X75118425Y-49514004D02*
X75189854Y-49514004D01*
X75189854Y-49514004D02*
X75237473Y-49537813D01*
X75999377Y-49347337D02*
X75999377Y-49704480D01*
X75999377Y-49704480D02*
X75975568Y-49775908D01*
X75975568Y-49775908D02*
X75927949Y-49823528D01*
X75927949Y-49823528D02*
X75856520Y-49847337D01*
X75856520Y-49847337D02*
X75808901Y-49847337D01*
X76189853Y-49347337D02*
X76499377Y-49347337D01*
X76499377Y-49347337D02*
X76332710Y-49537813D01*
X76332710Y-49537813D02*
X76404139Y-49537813D01*
X76404139Y-49537813D02*
X76451758Y-49561623D01*
X76451758Y-49561623D02*
X76475567Y-49585432D01*
X76475567Y-49585432D02*
X76499377Y-49633051D01*
X76499377Y-49633051D02*
X76499377Y-49752099D01*
X76499377Y-49752099D02*
X76475567Y-49799718D01*
X76475567Y-49799718D02*
X76451758Y-49823528D01*
X76451758Y-49823528D02*
X76404139Y-49847337D01*
X76404139Y-49847337D02*
X76261282Y-49847337D01*
X76261282Y-49847337D02*
X76213663Y-49823528D01*
X76213663Y-49823528D02*
X76189853Y-49799718D01*
X76785091Y-49799718D02*
X76808900Y-49823528D01*
X76808900Y-49823528D02*
X76785091Y-49847337D01*
X76785091Y-49847337D02*
X76761281Y-49823528D01*
X76761281Y-49823528D02*
X76785091Y-49799718D01*
X76785091Y-49799718D02*
X76785091Y-49847337D01*
X76689853Y-49371147D02*
X76737472Y-49347337D01*
X76737472Y-49347337D02*
X76856519Y-49347337D01*
X76856519Y-49347337D02*
X76904138Y-49371147D01*
X76904138Y-49371147D02*
X76927948Y-49418766D01*
X76927948Y-49418766D02*
X76927948Y-49466385D01*
X76927948Y-49466385D02*
X76904138Y-49514004D01*
X76904138Y-49514004D02*
X76880329Y-49537813D01*
X76880329Y-49537813D02*
X76832710Y-49561623D01*
X76832710Y-49561623D02*
X76808900Y-49585432D01*
X76808900Y-49585432D02*
X76785091Y-49633051D01*
X76785091Y-49633051D02*
X76785091Y-49656861D01*
X72475569Y-50652309D02*
X72475569Y-50152309D01*
X72475569Y-50628500D02*
X72427950Y-50652309D01*
X72427950Y-50652309D02*
X72332712Y-50652309D01*
X72332712Y-50652309D02*
X72285093Y-50628500D01*
X72285093Y-50628500D02*
X72261283Y-50604690D01*
X72261283Y-50604690D02*
X72237474Y-50557071D01*
X72237474Y-50557071D02*
X72237474Y-50414214D01*
X72237474Y-50414214D02*
X72261283Y-50366595D01*
X72261283Y-50366595D02*
X72285093Y-50342785D01*
X72285093Y-50342785D02*
X72332712Y-50318976D01*
X72332712Y-50318976D02*
X72427950Y-50318976D01*
X72427950Y-50318976D02*
X72475569Y-50342785D01*
X72666045Y-50318976D02*
X72761283Y-50652309D01*
X72761283Y-50652309D02*
X72856521Y-50414214D01*
X72856521Y-50414214D02*
X72951759Y-50652309D01*
X72951759Y-50652309D02*
X73046997Y-50318976D01*
X73832712Y-50652309D02*
X73832712Y-50390404D01*
X73832712Y-50390404D02*
X73808902Y-50342785D01*
X73808902Y-50342785D02*
X73761283Y-50318976D01*
X73761283Y-50318976D02*
X73666045Y-50318976D01*
X73666045Y-50318976D02*
X73618426Y-50342785D01*
X73832712Y-50628500D02*
X73785093Y-50652309D01*
X73785093Y-50652309D02*
X73666045Y-50652309D01*
X73666045Y-50652309D02*
X73618426Y-50628500D01*
X73618426Y-50628500D02*
X73594617Y-50580880D01*
X73594617Y-50580880D02*
X73594617Y-50533261D01*
X73594617Y-50533261D02*
X73618426Y-50485642D01*
X73618426Y-50485642D02*
X73666045Y-50461833D01*
X73666045Y-50461833D02*
X73785093Y-50461833D01*
X73785093Y-50461833D02*
X73832712Y-50438023D01*
X74070807Y-50652309D02*
X74070807Y-50152309D01*
X74070807Y-50342785D02*
X74118426Y-50318976D01*
X74118426Y-50318976D02*
X74213664Y-50318976D01*
X74213664Y-50318976D02*
X74261283Y-50342785D01*
X74261283Y-50342785D02*
X74285093Y-50366595D01*
X74285093Y-50366595D02*
X74308902Y-50414214D01*
X74308902Y-50414214D02*
X74308902Y-50557071D01*
X74308902Y-50557071D02*
X74285093Y-50604690D01*
X74285093Y-50604690D02*
X74261283Y-50628500D01*
X74261283Y-50628500D02*
X74213664Y-50652309D01*
X74213664Y-50652309D02*
X74118426Y-50652309D01*
X74118426Y-50652309D02*
X74070807Y-50628500D01*
X74594617Y-50652309D02*
X74546998Y-50628500D01*
X74546998Y-50628500D02*
X74523188Y-50604690D01*
X74523188Y-50604690D02*
X74499379Y-50557071D01*
X74499379Y-50557071D02*
X74499379Y-50414214D01*
X74499379Y-50414214D02*
X74523188Y-50366595D01*
X74523188Y-50366595D02*
X74546998Y-50342785D01*
X74546998Y-50342785D02*
X74594617Y-50318976D01*
X74594617Y-50318976D02*
X74666045Y-50318976D01*
X74666045Y-50318976D02*
X74713664Y-50342785D01*
X74713664Y-50342785D02*
X74737474Y-50366595D01*
X74737474Y-50366595D02*
X74761283Y-50414214D01*
X74761283Y-50414214D02*
X74761283Y-50557071D01*
X74761283Y-50557071D02*
X74737474Y-50604690D01*
X74737474Y-50604690D02*
X74713664Y-50628500D01*
X74713664Y-50628500D02*
X74666045Y-50652309D01*
X74666045Y-50652309D02*
X74594617Y-50652309D01*
X75189855Y-50318976D02*
X75189855Y-50652309D01*
X74975569Y-50318976D02*
X74975569Y-50580880D01*
X74975569Y-50580880D02*
X74999379Y-50628500D01*
X74999379Y-50628500D02*
X75046998Y-50652309D01*
X75046998Y-50652309D02*
X75118426Y-50652309D01*
X75118426Y-50652309D02*
X75166045Y-50628500D01*
X75166045Y-50628500D02*
X75189855Y-50604690D01*
X75356522Y-50318976D02*
X75546998Y-50318976D01*
X75427950Y-50152309D02*
X75427950Y-50580880D01*
X75427950Y-50580880D02*
X75451760Y-50628500D01*
X75451760Y-50628500D02*
X75499379Y-50652309D01*
X75499379Y-50652309D02*
X75546998Y-50652309D01*
X76094616Y-50652309D02*
X76094616Y-50318976D01*
X76094616Y-50152309D02*
X76070807Y-50176119D01*
X76070807Y-50176119D02*
X76094616Y-50199928D01*
X76094616Y-50199928D02*
X76118426Y-50176119D01*
X76118426Y-50176119D02*
X76094616Y-50152309D01*
X76094616Y-50152309D02*
X76094616Y-50199928D01*
X76261283Y-50318976D02*
X76451759Y-50318976D01*
X76332711Y-50152309D02*
X76332711Y-50580880D01*
X76332711Y-50580880D02*
X76356521Y-50628500D01*
X76356521Y-50628500D02*
X76404140Y-50652309D01*
X76404140Y-50652309D02*
X76451759Y-50652309D01*
D10*
X77575312Y-93277180D02*
X77527693Y-93324800D01*
X77527693Y-93324800D02*
X77384836Y-93372419D01*
X77384836Y-93372419D02*
X77289598Y-93372419D01*
X77289598Y-93372419D02*
X77146741Y-93324800D01*
X77146741Y-93324800D02*
X77051503Y-93229561D01*
X77051503Y-93229561D02*
X77003884Y-93134323D01*
X77003884Y-93134323D02*
X76956265Y-92943847D01*
X76956265Y-92943847D02*
X76956265Y-92800990D01*
X76956265Y-92800990D02*
X77003884Y-92610514D01*
X77003884Y-92610514D02*
X77051503Y-92515276D01*
X77051503Y-92515276D02*
X77146741Y-92420038D01*
X77146741Y-92420038D02*
X77289598Y-92372419D01*
X77289598Y-92372419D02*
X77384836Y-92372419D01*
X77384836Y-92372419D02*
X77527693Y-92420038D01*
X77527693Y-92420038D02*
X77575312Y-92467657D01*
X78527693Y-93372419D02*
X77956265Y-93372419D01*
X78241979Y-93372419D02*
X78241979Y-92372419D01*
X78241979Y-92372419D02*
X78146741Y-92515276D01*
X78146741Y-92515276D02*
X78051503Y-92610514D01*
X78051503Y-92610514D02*
X77956265Y-92658133D01*
X73513408Y-34550038D02*
X73513408Y-35978609D01*
X73513408Y-35978609D02*
X73418169Y-36264323D01*
X73418169Y-36264323D02*
X73227693Y-36454800D01*
X73227693Y-36454800D02*
X72941979Y-36550038D01*
X72941979Y-36550038D02*
X72751503Y-36550038D01*
X75322932Y-35216704D02*
X75322932Y-36550038D01*
X74846741Y-34454800D02*
X74370551Y-35883371D01*
X74370551Y-35883371D02*
X75608646Y-35883371D01*
X186856265Y-82786704D02*
X187332455Y-82786704D01*
X186761027Y-83072419D02*
X187094360Y-82072419D01*
X187094360Y-82072419D02*
X187427693Y-83072419D01*
X187951503Y-82072419D02*
X188046741Y-82072419D01*
X188046741Y-82072419D02*
X188141979Y-82120038D01*
X188141979Y-82120038D02*
X188189598Y-82167657D01*
X188189598Y-82167657D02*
X188237217Y-82262895D01*
X188237217Y-82262895D02*
X188284836Y-82453371D01*
X188284836Y-82453371D02*
X188284836Y-82691466D01*
X188284836Y-82691466D02*
X188237217Y-82881942D01*
X188237217Y-82881942D02*
X188189598Y-82977180D01*
X188189598Y-82977180D02*
X188141979Y-83024800D01*
X188141979Y-83024800D02*
X188046741Y-83072419D01*
X188046741Y-83072419D02*
X187951503Y-83072419D01*
X187951503Y-83072419D02*
X187856265Y-83024800D01*
X187856265Y-83024800D02*
X187808646Y-82977180D01*
X187808646Y-82977180D02*
X187761027Y-82881942D01*
X187761027Y-82881942D02*
X187713408Y-82691466D01*
X187713408Y-82691466D02*
X187713408Y-82453371D01*
X187713408Y-82453371D02*
X187761027Y-82262895D01*
X187761027Y-82262895D02*
X187808646Y-82167657D01*
X187808646Y-82167657D02*
X187856265Y-82120038D01*
X187856265Y-82120038D02*
X187951503Y-82072419D01*
X95053884Y-28411466D02*
X95815789Y-28411466D01*
X132327693Y-57220038D02*
X132232455Y-57172419D01*
X132232455Y-57172419D02*
X132089598Y-57172419D01*
X132089598Y-57172419D02*
X131946741Y-57220038D01*
X131946741Y-57220038D02*
X131851503Y-57315276D01*
X131851503Y-57315276D02*
X131803884Y-57410514D01*
X131803884Y-57410514D02*
X131756265Y-57600990D01*
X131756265Y-57600990D02*
X131756265Y-57743847D01*
X131756265Y-57743847D02*
X131803884Y-57934323D01*
X131803884Y-57934323D02*
X131851503Y-58029561D01*
X131851503Y-58029561D02*
X131946741Y-58124800D01*
X131946741Y-58124800D02*
X132089598Y-58172419D01*
X132089598Y-58172419D02*
X132184836Y-58172419D01*
X132184836Y-58172419D02*
X132327693Y-58124800D01*
X132327693Y-58124800D02*
X132375312Y-58077180D01*
X132375312Y-58077180D02*
X132375312Y-57743847D01*
X132375312Y-57743847D02*
X132184836Y-57743847D01*
X132803884Y-58172419D02*
X132803884Y-57172419D01*
X132803884Y-57172419D02*
X133375312Y-58172419D01*
X133375312Y-58172419D02*
X133375312Y-57172419D01*
X133851503Y-58172419D02*
X133851503Y-57172419D01*
X133851503Y-57172419D02*
X134089598Y-57172419D01*
X134089598Y-57172419D02*
X134232455Y-57220038D01*
X134232455Y-57220038D02*
X134327693Y-57315276D01*
X134327693Y-57315276D02*
X134375312Y-57410514D01*
X134375312Y-57410514D02*
X134422931Y-57600990D01*
X134422931Y-57600990D02*
X134422931Y-57743847D01*
X134422931Y-57743847D02*
X134375312Y-57934323D01*
X134375312Y-57934323D02*
X134327693Y-58029561D01*
X134327693Y-58029561D02*
X134232455Y-58124800D01*
X134232455Y-58124800D02*
X134089598Y-58172419D01*
X134089598Y-58172419D02*
X133851503Y-58172419D01*
X73513408Y-54550038D02*
X73513408Y-55978609D01*
X73513408Y-55978609D02*
X73418169Y-56264323D01*
X73418169Y-56264323D02*
X73227693Y-56454800D01*
X73227693Y-56454800D02*
X72941979Y-56550038D01*
X72941979Y-56550038D02*
X72751503Y-56550038D01*
X74370551Y-54740514D02*
X74465789Y-54645276D01*
X74465789Y-54645276D02*
X74656265Y-54550038D01*
X74656265Y-54550038D02*
X75132456Y-54550038D01*
X75132456Y-54550038D02*
X75322932Y-54645276D01*
X75322932Y-54645276D02*
X75418170Y-54740514D01*
X75418170Y-54740514D02*
X75513408Y-54930990D01*
X75513408Y-54930990D02*
X75513408Y-55121466D01*
X75513408Y-55121466D02*
X75418170Y-55407180D01*
X75418170Y-55407180D02*
X74275313Y-56550038D01*
X74275313Y-56550038D02*
X75513408Y-56550038D01*
X193503884Y-41891466D02*
X194265789Y-41891466D01*
X71937217Y-44748609D02*
X72080074Y-44796228D01*
X72080074Y-44796228D02*
X72127693Y-44843847D01*
X72127693Y-44843847D02*
X72175312Y-44939085D01*
X72175312Y-44939085D02*
X72175312Y-45081942D01*
X72175312Y-45081942D02*
X72127693Y-45177180D01*
X72127693Y-45177180D02*
X72080074Y-45224800D01*
X72080074Y-45224800D02*
X71984836Y-45272419D01*
X71984836Y-45272419D02*
X71603884Y-45272419D01*
X71603884Y-45272419D02*
X71603884Y-44272419D01*
X71603884Y-44272419D02*
X71937217Y-44272419D01*
X71937217Y-44272419D02*
X72032455Y-44320038D01*
X72032455Y-44320038D02*
X72080074Y-44367657D01*
X72080074Y-44367657D02*
X72127693Y-44462895D01*
X72127693Y-44462895D02*
X72127693Y-44558133D01*
X72127693Y-44558133D02*
X72080074Y-44653371D01*
X72080074Y-44653371D02*
X72032455Y-44700990D01*
X72032455Y-44700990D02*
X71937217Y-44748609D01*
X71937217Y-44748609D02*
X71603884Y-44748609D01*
X73032455Y-44605752D02*
X73032455Y-45272419D01*
X72603884Y-44605752D02*
X72603884Y-45129561D01*
X72603884Y-45129561D02*
X72651503Y-45224800D01*
X72651503Y-45224800D02*
X72746741Y-45272419D01*
X72746741Y-45272419D02*
X72889598Y-45272419D01*
X72889598Y-45272419D02*
X72984836Y-45224800D01*
X72984836Y-45224800D02*
X73032455Y-45177180D01*
X73365789Y-44605752D02*
X73746741Y-44605752D01*
X73508646Y-44272419D02*
X73508646Y-45129561D01*
X73508646Y-45129561D02*
X73556265Y-45224800D01*
X73556265Y-45224800D02*
X73651503Y-45272419D01*
X73651503Y-45272419D02*
X73746741Y-45272419D01*
X73937218Y-44605752D02*
X74318170Y-44605752D01*
X74080075Y-44272419D02*
X74080075Y-45129561D01*
X74080075Y-45129561D02*
X74127694Y-45224800D01*
X74127694Y-45224800D02*
X74222932Y-45272419D01*
X74222932Y-45272419D02*
X74318170Y-45272419D01*
X74794361Y-45272419D02*
X74699123Y-45224800D01*
X74699123Y-45224800D02*
X74651504Y-45177180D01*
X74651504Y-45177180D02*
X74603885Y-45081942D01*
X74603885Y-45081942D02*
X74603885Y-44796228D01*
X74603885Y-44796228D02*
X74651504Y-44700990D01*
X74651504Y-44700990D02*
X74699123Y-44653371D01*
X74699123Y-44653371D02*
X74794361Y-44605752D01*
X74794361Y-44605752D02*
X74937218Y-44605752D01*
X74937218Y-44605752D02*
X75032456Y-44653371D01*
X75032456Y-44653371D02*
X75080075Y-44700990D01*
X75080075Y-44700990D02*
X75127694Y-44796228D01*
X75127694Y-44796228D02*
X75127694Y-45081942D01*
X75127694Y-45081942D02*
X75080075Y-45177180D01*
X75080075Y-45177180D02*
X75032456Y-45224800D01*
X75032456Y-45224800D02*
X74937218Y-45272419D01*
X74937218Y-45272419D02*
X74794361Y-45272419D01*
X75556266Y-44605752D02*
X75556266Y-45272419D01*
X75556266Y-44700990D02*
X75603885Y-44653371D01*
X75603885Y-44653371D02*
X75699123Y-44605752D01*
X75699123Y-44605752D02*
X75841980Y-44605752D01*
X75841980Y-44605752D02*
X75937218Y-44653371D01*
X75937218Y-44653371D02*
X75984837Y-44748609D01*
X75984837Y-44748609D02*
X75984837Y-45272419D01*
X77746742Y-45272419D02*
X77175314Y-45272419D01*
X77461028Y-45272419D02*
X77461028Y-44272419D01*
X77461028Y-44272419D02*
X77365790Y-44415276D01*
X77365790Y-44415276D02*
X77270552Y-44510514D01*
X77270552Y-44510514D02*
X77175314Y-44558133D01*
X100613408Y-31150038D02*
X100613408Y-32578609D01*
X100613408Y-32578609D02*
X100518169Y-32864323D01*
X100518169Y-32864323D02*
X100327693Y-33054800D01*
X100327693Y-33054800D02*
X100041979Y-33150038D01*
X100041979Y-33150038D02*
X99851503Y-33150038D01*
X102518170Y-31150038D02*
X101565789Y-31150038D01*
X101565789Y-31150038D02*
X101470551Y-32102419D01*
X101470551Y-32102419D02*
X101565789Y-32007180D01*
X101565789Y-32007180D02*
X101756265Y-31911942D01*
X101756265Y-31911942D02*
X102232456Y-31911942D01*
X102232456Y-31911942D02*
X102422932Y-32007180D01*
X102422932Y-32007180D02*
X102518170Y-32102419D01*
X102518170Y-32102419D02*
X102613408Y-32292895D01*
X102613408Y-32292895D02*
X102613408Y-32769085D01*
X102613408Y-32769085D02*
X102518170Y-32959561D01*
X102518170Y-32959561D02*
X102422932Y-33054800D01*
X102422932Y-33054800D02*
X102232456Y-33150038D01*
X102232456Y-33150038D02*
X101756265Y-33150038D01*
X101756265Y-33150038D02*
X101565789Y-33054800D01*
X101565789Y-33054800D02*
X101470551Y-32959561D01*
X96637218Y-26372419D02*
X96637218Y-25372419D01*
X96637218Y-25372419D02*
X96875313Y-25372419D01*
X96875313Y-25372419D02*
X97018170Y-25420038D01*
X97018170Y-25420038D02*
X97113408Y-25515276D01*
X97113408Y-25515276D02*
X97161027Y-25610514D01*
X97161027Y-25610514D02*
X97208646Y-25800990D01*
X97208646Y-25800990D02*
X97208646Y-25943847D01*
X97208646Y-25943847D02*
X97161027Y-26134323D01*
X97161027Y-26134323D02*
X97113408Y-26229561D01*
X97113408Y-26229561D02*
X97018170Y-26324800D01*
X97018170Y-26324800D02*
X96875313Y-26372419D01*
X96875313Y-26372419D02*
X96637218Y-26372419D01*
X97637218Y-26372419D02*
X97637218Y-25705752D01*
X97637218Y-25372419D02*
X97589599Y-25420038D01*
X97589599Y-25420038D02*
X97637218Y-25467657D01*
X97637218Y-25467657D02*
X97684837Y-25420038D01*
X97684837Y-25420038D02*
X97637218Y-25372419D01*
X97637218Y-25372419D02*
X97637218Y-25467657D01*
X98065789Y-26324800D02*
X98161027Y-26372419D01*
X98161027Y-26372419D02*
X98351503Y-26372419D01*
X98351503Y-26372419D02*
X98446741Y-26324800D01*
X98446741Y-26324800D02*
X98494360Y-26229561D01*
X98494360Y-26229561D02*
X98494360Y-26181942D01*
X98494360Y-26181942D02*
X98446741Y-26086704D01*
X98446741Y-26086704D02*
X98351503Y-26039085D01*
X98351503Y-26039085D02*
X98208646Y-26039085D01*
X98208646Y-26039085D02*
X98113408Y-25991466D01*
X98113408Y-25991466D02*
X98065789Y-25896228D01*
X98065789Y-25896228D02*
X98065789Y-25848609D01*
X98065789Y-25848609D02*
X98113408Y-25753371D01*
X98113408Y-25753371D02*
X98208646Y-25705752D01*
X98208646Y-25705752D02*
X98351503Y-25705752D01*
X98351503Y-25705752D02*
X98446741Y-25753371D01*
X98922932Y-25705752D02*
X98922932Y-26705752D01*
X98922932Y-25753371D02*
X99018170Y-25705752D01*
X99018170Y-25705752D02*
X99208646Y-25705752D01*
X99208646Y-25705752D02*
X99303884Y-25753371D01*
X99303884Y-25753371D02*
X99351503Y-25800990D01*
X99351503Y-25800990D02*
X99399122Y-25896228D01*
X99399122Y-25896228D02*
X99399122Y-26181942D01*
X99399122Y-26181942D02*
X99351503Y-26277180D01*
X99351503Y-26277180D02*
X99303884Y-26324800D01*
X99303884Y-26324800D02*
X99208646Y-26372419D01*
X99208646Y-26372419D02*
X99018170Y-26372419D01*
X99018170Y-26372419D02*
X98922932Y-26324800D01*
X99970551Y-26372419D02*
X99875313Y-26324800D01*
X99875313Y-26324800D02*
X99827694Y-26229561D01*
X99827694Y-26229561D02*
X99827694Y-25372419D01*
X100780075Y-26372419D02*
X100780075Y-25848609D01*
X100780075Y-25848609D02*
X100732456Y-25753371D01*
X100732456Y-25753371D02*
X100637218Y-25705752D01*
X100637218Y-25705752D02*
X100446742Y-25705752D01*
X100446742Y-25705752D02*
X100351504Y-25753371D01*
X100780075Y-26324800D02*
X100684837Y-26372419D01*
X100684837Y-26372419D02*
X100446742Y-26372419D01*
X100446742Y-26372419D02*
X100351504Y-26324800D01*
X100351504Y-26324800D02*
X100303885Y-26229561D01*
X100303885Y-26229561D02*
X100303885Y-26134323D01*
X100303885Y-26134323D02*
X100351504Y-26039085D01*
X100351504Y-26039085D02*
X100446742Y-25991466D01*
X100446742Y-25991466D02*
X100684837Y-25991466D01*
X100684837Y-25991466D02*
X100780075Y-25943847D01*
X101161028Y-25705752D02*
X101399123Y-26372419D01*
X101637218Y-25705752D02*
X101399123Y-26372419D01*
X101399123Y-26372419D02*
X101303885Y-26610514D01*
X101303885Y-26610514D02*
X101256266Y-26658133D01*
X101256266Y-26658133D02*
X101161028Y-26705752D01*
X103303885Y-26372419D02*
X102732457Y-26372419D01*
X103018171Y-26372419D02*
X103018171Y-25372419D01*
X103018171Y-25372419D02*
X102922933Y-25515276D01*
X102922933Y-25515276D02*
X102827695Y-25610514D01*
X102827695Y-25610514D02*
X102732457Y-25658133D01*
X159287218Y-26172419D02*
X159287218Y-25172419D01*
X159287218Y-25172419D02*
X159525313Y-25172419D01*
X159525313Y-25172419D02*
X159668170Y-25220038D01*
X159668170Y-25220038D02*
X159763408Y-25315276D01*
X159763408Y-25315276D02*
X159811027Y-25410514D01*
X159811027Y-25410514D02*
X159858646Y-25600990D01*
X159858646Y-25600990D02*
X159858646Y-25743847D01*
X159858646Y-25743847D02*
X159811027Y-25934323D01*
X159811027Y-25934323D02*
X159763408Y-26029561D01*
X159763408Y-26029561D02*
X159668170Y-26124800D01*
X159668170Y-26124800D02*
X159525313Y-26172419D01*
X159525313Y-26172419D02*
X159287218Y-26172419D01*
X160287218Y-26172419D02*
X160287218Y-25505752D01*
X160287218Y-25172419D02*
X160239599Y-25220038D01*
X160239599Y-25220038D02*
X160287218Y-25267657D01*
X160287218Y-25267657D02*
X160334837Y-25220038D01*
X160334837Y-25220038D02*
X160287218Y-25172419D01*
X160287218Y-25172419D02*
X160287218Y-25267657D01*
X160715789Y-26124800D02*
X160811027Y-26172419D01*
X160811027Y-26172419D02*
X161001503Y-26172419D01*
X161001503Y-26172419D02*
X161096741Y-26124800D01*
X161096741Y-26124800D02*
X161144360Y-26029561D01*
X161144360Y-26029561D02*
X161144360Y-25981942D01*
X161144360Y-25981942D02*
X161096741Y-25886704D01*
X161096741Y-25886704D02*
X161001503Y-25839085D01*
X161001503Y-25839085D02*
X160858646Y-25839085D01*
X160858646Y-25839085D02*
X160763408Y-25791466D01*
X160763408Y-25791466D02*
X160715789Y-25696228D01*
X160715789Y-25696228D02*
X160715789Y-25648609D01*
X160715789Y-25648609D02*
X160763408Y-25553371D01*
X160763408Y-25553371D02*
X160858646Y-25505752D01*
X160858646Y-25505752D02*
X161001503Y-25505752D01*
X161001503Y-25505752D02*
X161096741Y-25553371D01*
X161572932Y-25505752D02*
X161572932Y-26505752D01*
X161572932Y-25553371D02*
X161668170Y-25505752D01*
X161668170Y-25505752D02*
X161858646Y-25505752D01*
X161858646Y-25505752D02*
X161953884Y-25553371D01*
X161953884Y-25553371D02*
X162001503Y-25600990D01*
X162001503Y-25600990D02*
X162049122Y-25696228D01*
X162049122Y-25696228D02*
X162049122Y-25981942D01*
X162049122Y-25981942D02*
X162001503Y-26077180D01*
X162001503Y-26077180D02*
X161953884Y-26124800D01*
X161953884Y-26124800D02*
X161858646Y-26172419D01*
X161858646Y-26172419D02*
X161668170Y-26172419D01*
X161668170Y-26172419D02*
X161572932Y-26124800D01*
X162620551Y-26172419D02*
X162525313Y-26124800D01*
X162525313Y-26124800D02*
X162477694Y-26029561D01*
X162477694Y-26029561D02*
X162477694Y-25172419D01*
X163430075Y-26172419D02*
X163430075Y-25648609D01*
X163430075Y-25648609D02*
X163382456Y-25553371D01*
X163382456Y-25553371D02*
X163287218Y-25505752D01*
X163287218Y-25505752D02*
X163096742Y-25505752D01*
X163096742Y-25505752D02*
X163001504Y-25553371D01*
X163430075Y-26124800D02*
X163334837Y-26172419D01*
X163334837Y-26172419D02*
X163096742Y-26172419D01*
X163096742Y-26172419D02*
X163001504Y-26124800D01*
X163001504Y-26124800D02*
X162953885Y-26029561D01*
X162953885Y-26029561D02*
X162953885Y-25934323D01*
X162953885Y-25934323D02*
X163001504Y-25839085D01*
X163001504Y-25839085D02*
X163096742Y-25791466D01*
X163096742Y-25791466D02*
X163334837Y-25791466D01*
X163334837Y-25791466D02*
X163430075Y-25743847D01*
X163811028Y-25505752D02*
X164049123Y-26172419D01*
X164287218Y-25505752D02*
X164049123Y-26172419D01*
X164049123Y-26172419D02*
X163953885Y-26410514D01*
X163953885Y-26410514D02*
X163906266Y-26458133D01*
X163906266Y-26458133D02*
X163811028Y-26505752D01*
X165858647Y-25505752D02*
X165858647Y-26172419D01*
X165620552Y-25124800D02*
X165382457Y-25839085D01*
X165382457Y-25839085D02*
X166001504Y-25839085D01*
X189113408Y-54650038D02*
X189113408Y-56078609D01*
X189113408Y-56078609D02*
X189018169Y-56364323D01*
X189018169Y-56364323D02*
X188827693Y-56554800D01*
X188827693Y-56554800D02*
X188541979Y-56650038D01*
X188541979Y-56650038D02*
X188351503Y-56650038D01*
X191113408Y-56650038D02*
X189970551Y-56650038D01*
X190541979Y-56650038D02*
X190541979Y-54650038D01*
X190541979Y-54650038D02*
X190351503Y-54935752D01*
X190351503Y-54935752D02*
X190161027Y-55126228D01*
X190161027Y-55126228D02*
X189970551Y-55221466D01*
X192351503Y-54650038D02*
X192541980Y-54650038D01*
X192541980Y-54650038D02*
X192732456Y-54745276D01*
X192732456Y-54745276D02*
X192827694Y-54840514D01*
X192827694Y-54840514D02*
X192922932Y-55030990D01*
X192922932Y-55030990D02*
X193018170Y-55411942D01*
X193018170Y-55411942D02*
X193018170Y-55888133D01*
X193018170Y-55888133D02*
X192922932Y-56269085D01*
X192922932Y-56269085D02*
X192827694Y-56459561D01*
X192827694Y-56459561D02*
X192732456Y-56554800D01*
X192732456Y-56554800D02*
X192541980Y-56650038D01*
X192541980Y-56650038D02*
X192351503Y-56650038D01*
X192351503Y-56650038D02*
X192161027Y-56554800D01*
X192161027Y-56554800D02*
X192065789Y-56459561D01*
X192065789Y-56459561D02*
X191970551Y-56269085D01*
X191970551Y-56269085D02*
X191875313Y-55888133D01*
X191875313Y-55888133D02*
X191875313Y-55411942D01*
X191875313Y-55411942D02*
X191970551Y-55030990D01*
X191970551Y-55030990D02*
X192065789Y-54840514D01*
X192065789Y-54840514D02*
X192161027Y-54745276D01*
X192161027Y-54745276D02*
X192351503Y-54650038D01*
X189537217Y-76727657D02*
X189537217Y-78870514D01*
X189537217Y-78870514D02*
X189394360Y-79299085D01*
X189394360Y-79299085D02*
X189108646Y-79584800D01*
X189108646Y-79584800D02*
X188680074Y-79727657D01*
X188680074Y-79727657D02*
X188394360Y-79727657D01*
X192537217Y-79727657D02*
X190822931Y-79727657D01*
X191680074Y-79727657D02*
X191680074Y-76727657D01*
X191680074Y-76727657D02*
X191394360Y-77156228D01*
X191394360Y-77156228D02*
X191108645Y-77441942D01*
X191108645Y-77441942D02*
X190822931Y-77584800D01*
X195394360Y-79727657D02*
X193680074Y-79727657D01*
X194537217Y-79727657D02*
X194537217Y-76727657D01*
X194537217Y-76727657D02*
X194251503Y-77156228D01*
X194251503Y-77156228D02*
X193965788Y-77441942D01*
X193965788Y-77441942D02*
X193680074Y-77584800D01*
X82053884Y-148471466D02*
X82815789Y-148471466D01*
X82434836Y-148852419D02*
X82434836Y-148090514D01*
X83768169Y-147852419D02*
X83291979Y-147852419D01*
X83291979Y-147852419D02*
X83244360Y-148328609D01*
X83244360Y-148328609D02*
X83291979Y-148280990D01*
X83291979Y-148280990D02*
X83387217Y-148233371D01*
X83387217Y-148233371D02*
X83625312Y-148233371D01*
X83625312Y-148233371D02*
X83720550Y-148280990D01*
X83720550Y-148280990D02*
X83768169Y-148328609D01*
X83768169Y-148328609D02*
X83815788Y-148423847D01*
X83815788Y-148423847D02*
X83815788Y-148661942D01*
X83815788Y-148661942D02*
X83768169Y-148757180D01*
X83768169Y-148757180D02*
X83720550Y-148804800D01*
X83720550Y-148804800D02*
X83625312Y-148852419D01*
X83625312Y-148852419D02*
X83387217Y-148852419D01*
X83387217Y-148852419D02*
X83291979Y-148804800D01*
X83291979Y-148804800D02*
X83244360Y-148757180D01*
X84101503Y-147852419D02*
X84434836Y-148852419D01*
X84434836Y-148852419D02*
X84768169Y-147852419D01*
X70580074Y-96272419D02*
X70103884Y-96272419D01*
X70103884Y-96272419D02*
X70103884Y-95272419D01*
X71294360Y-96224800D02*
X71199122Y-96272419D01*
X71199122Y-96272419D02*
X71008646Y-96272419D01*
X71008646Y-96272419D02*
X70913408Y-96224800D01*
X70913408Y-96224800D02*
X70865789Y-96129561D01*
X70865789Y-96129561D02*
X70865789Y-95748609D01*
X70865789Y-95748609D02*
X70913408Y-95653371D01*
X70913408Y-95653371D02*
X71008646Y-95605752D01*
X71008646Y-95605752D02*
X71199122Y-95605752D01*
X71199122Y-95605752D02*
X71294360Y-95653371D01*
X71294360Y-95653371D02*
X71341979Y-95748609D01*
X71341979Y-95748609D02*
X71341979Y-95843847D01*
X71341979Y-95843847D02*
X70865789Y-95939085D01*
X71627694Y-95605752D02*
X72008646Y-95605752D01*
X71770551Y-96272419D02*
X71770551Y-95415276D01*
X71770551Y-95415276D02*
X71818170Y-95320038D01*
X71818170Y-95320038D02*
X71913408Y-95272419D01*
X71913408Y-95272419D02*
X72008646Y-95272419D01*
X72199123Y-95605752D02*
X72580075Y-95605752D01*
X72341980Y-95272419D02*
X72341980Y-96129561D01*
X72341980Y-96129561D02*
X72389599Y-96224800D01*
X72389599Y-96224800D02*
X72484837Y-96272419D01*
X72484837Y-96272419D02*
X72580075Y-96272419D01*
X74151504Y-96272419D02*
X73675314Y-96272419D01*
X73675314Y-96272419D02*
X73675314Y-95272419D01*
X74484838Y-95748609D02*
X74818171Y-95748609D01*
X74961028Y-96272419D02*
X74484838Y-96272419D01*
X74484838Y-96272419D02*
X74484838Y-95272419D01*
X74484838Y-95272419D02*
X74961028Y-95272419D01*
X75389600Y-96272419D02*
X75389600Y-95272419D01*
X75389600Y-95272419D02*
X75627695Y-95272419D01*
X75627695Y-95272419D02*
X75770552Y-95320038D01*
X75770552Y-95320038D02*
X75865790Y-95415276D01*
X75865790Y-95415276D02*
X75913409Y-95510514D01*
X75913409Y-95510514D02*
X75961028Y-95700990D01*
X75961028Y-95700990D02*
X75961028Y-95843847D01*
X75961028Y-95843847D02*
X75913409Y-96034323D01*
X75913409Y-96034323D02*
X75865790Y-96129561D01*
X75865790Y-96129561D02*
X75770552Y-96224800D01*
X75770552Y-96224800D02*
X75627695Y-96272419D01*
X75627695Y-96272419D02*
X75389600Y-96272419D01*
X96927693Y-96920038D02*
X96832455Y-96872419D01*
X96832455Y-96872419D02*
X96689598Y-96872419D01*
X96689598Y-96872419D02*
X96546741Y-96920038D01*
X96546741Y-96920038D02*
X96451503Y-97015276D01*
X96451503Y-97015276D02*
X96403884Y-97110514D01*
X96403884Y-97110514D02*
X96356265Y-97300990D01*
X96356265Y-97300990D02*
X96356265Y-97443847D01*
X96356265Y-97443847D02*
X96403884Y-97634323D01*
X96403884Y-97634323D02*
X96451503Y-97729561D01*
X96451503Y-97729561D02*
X96546741Y-97824800D01*
X96546741Y-97824800D02*
X96689598Y-97872419D01*
X96689598Y-97872419D02*
X96784836Y-97872419D01*
X96784836Y-97872419D02*
X96927693Y-97824800D01*
X96927693Y-97824800D02*
X96975312Y-97777180D01*
X96975312Y-97777180D02*
X96975312Y-97443847D01*
X96975312Y-97443847D02*
X96784836Y-97443847D01*
X97403884Y-97872419D02*
X97403884Y-96872419D01*
X97403884Y-96872419D02*
X97975312Y-97872419D01*
X97975312Y-97872419D02*
X97975312Y-96872419D01*
X98451503Y-97872419D02*
X98451503Y-96872419D01*
X98451503Y-96872419D02*
X98689598Y-96872419D01*
X98689598Y-96872419D02*
X98832455Y-96920038D01*
X98832455Y-96920038D02*
X98927693Y-97015276D01*
X98927693Y-97015276D02*
X98975312Y-97110514D01*
X98975312Y-97110514D02*
X99022931Y-97300990D01*
X99022931Y-97300990D02*
X99022931Y-97443847D01*
X99022931Y-97443847D02*
X98975312Y-97634323D01*
X98975312Y-97634323D02*
X98927693Y-97729561D01*
X98927693Y-97729561D02*
X98832455Y-97824800D01*
X98832455Y-97824800D02*
X98689598Y-97872419D01*
X98689598Y-97872419D02*
X98451503Y-97872419D01*
X117503884Y-26372419D02*
X117503884Y-25372419D01*
X117503884Y-25372419D02*
X117741979Y-25372419D01*
X117741979Y-25372419D02*
X117884836Y-25420038D01*
X117884836Y-25420038D02*
X117980074Y-25515276D01*
X117980074Y-25515276D02*
X118027693Y-25610514D01*
X118027693Y-25610514D02*
X118075312Y-25800990D01*
X118075312Y-25800990D02*
X118075312Y-25943847D01*
X118075312Y-25943847D02*
X118027693Y-26134323D01*
X118027693Y-26134323D02*
X117980074Y-26229561D01*
X117980074Y-26229561D02*
X117884836Y-26324800D01*
X117884836Y-26324800D02*
X117741979Y-26372419D01*
X117741979Y-26372419D02*
X117503884Y-26372419D01*
X118503884Y-26372419D02*
X118503884Y-25705752D01*
X118503884Y-25372419D02*
X118456265Y-25420038D01*
X118456265Y-25420038D02*
X118503884Y-25467657D01*
X118503884Y-25467657D02*
X118551503Y-25420038D01*
X118551503Y-25420038D02*
X118503884Y-25372419D01*
X118503884Y-25372419D02*
X118503884Y-25467657D01*
X118932455Y-26324800D02*
X119027693Y-26372419D01*
X119027693Y-26372419D02*
X119218169Y-26372419D01*
X119218169Y-26372419D02*
X119313407Y-26324800D01*
X119313407Y-26324800D02*
X119361026Y-26229561D01*
X119361026Y-26229561D02*
X119361026Y-26181942D01*
X119361026Y-26181942D02*
X119313407Y-26086704D01*
X119313407Y-26086704D02*
X119218169Y-26039085D01*
X119218169Y-26039085D02*
X119075312Y-26039085D01*
X119075312Y-26039085D02*
X118980074Y-25991466D01*
X118980074Y-25991466D02*
X118932455Y-25896228D01*
X118932455Y-25896228D02*
X118932455Y-25848609D01*
X118932455Y-25848609D02*
X118980074Y-25753371D01*
X118980074Y-25753371D02*
X119075312Y-25705752D01*
X119075312Y-25705752D02*
X119218169Y-25705752D01*
X119218169Y-25705752D02*
X119313407Y-25753371D01*
X119789598Y-25705752D02*
X119789598Y-26705752D01*
X119789598Y-25753371D02*
X119884836Y-25705752D01*
X119884836Y-25705752D02*
X120075312Y-25705752D01*
X120075312Y-25705752D02*
X120170550Y-25753371D01*
X120170550Y-25753371D02*
X120218169Y-25800990D01*
X120218169Y-25800990D02*
X120265788Y-25896228D01*
X120265788Y-25896228D02*
X120265788Y-26181942D01*
X120265788Y-26181942D02*
X120218169Y-26277180D01*
X120218169Y-26277180D02*
X120170550Y-26324800D01*
X120170550Y-26324800D02*
X120075312Y-26372419D01*
X120075312Y-26372419D02*
X119884836Y-26372419D01*
X119884836Y-26372419D02*
X119789598Y-26324800D01*
X120837217Y-26372419D02*
X120741979Y-26324800D01*
X120741979Y-26324800D02*
X120694360Y-26229561D01*
X120694360Y-26229561D02*
X120694360Y-25372419D01*
X121646741Y-26372419D02*
X121646741Y-25848609D01*
X121646741Y-25848609D02*
X121599122Y-25753371D01*
X121599122Y-25753371D02*
X121503884Y-25705752D01*
X121503884Y-25705752D02*
X121313408Y-25705752D01*
X121313408Y-25705752D02*
X121218170Y-25753371D01*
X121646741Y-26324800D02*
X121551503Y-26372419D01*
X121551503Y-26372419D02*
X121313408Y-26372419D01*
X121313408Y-26372419D02*
X121218170Y-26324800D01*
X121218170Y-26324800D02*
X121170551Y-26229561D01*
X121170551Y-26229561D02*
X121170551Y-26134323D01*
X121170551Y-26134323D02*
X121218170Y-26039085D01*
X121218170Y-26039085D02*
X121313408Y-25991466D01*
X121313408Y-25991466D02*
X121551503Y-25991466D01*
X121551503Y-25991466D02*
X121646741Y-25943847D01*
X122027694Y-25705752D02*
X122265789Y-26372419D01*
X122503884Y-25705752D02*
X122265789Y-26372419D01*
X122265789Y-26372419D02*
X122170551Y-26610514D01*
X122170551Y-26610514D02*
X122122932Y-26658133D01*
X122122932Y-26658133D02*
X122027694Y-26705752D01*
X123599123Y-25467657D02*
X123646742Y-25420038D01*
X123646742Y-25420038D02*
X123741980Y-25372419D01*
X123741980Y-25372419D02*
X123980075Y-25372419D01*
X123980075Y-25372419D02*
X124075313Y-25420038D01*
X124075313Y-25420038D02*
X124122932Y-25467657D01*
X124122932Y-25467657D02*
X124170551Y-25562895D01*
X124170551Y-25562895D02*
X124170551Y-25658133D01*
X124170551Y-25658133D02*
X124122932Y-25800990D01*
X124122932Y-25800990D02*
X123551504Y-26372419D01*
X123551504Y-26372419D02*
X124170551Y-26372419D01*
X162513408Y-31150038D02*
X162513408Y-32578609D01*
X162513408Y-32578609D02*
X162418169Y-32864323D01*
X162418169Y-32864323D02*
X162227693Y-33054800D01*
X162227693Y-33054800D02*
X161941979Y-33150038D01*
X161941979Y-33150038D02*
X161751503Y-33150038D01*
X163751503Y-32007180D02*
X163561027Y-31911942D01*
X163561027Y-31911942D02*
X163465789Y-31816704D01*
X163465789Y-31816704D02*
X163370551Y-31626228D01*
X163370551Y-31626228D02*
X163370551Y-31530990D01*
X163370551Y-31530990D02*
X163465789Y-31340514D01*
X163465789Y-31340514D02*
X163561027Y-31245276D01*
X163561027Y-31245276D02*
X163751503Y-31150038D01*
X163751503Y-31150038D02*
X164132456Y-31150038D01*
X164132456Y-31150038D02*
X164322932Y-31245276D01*
X164322932Y-31245276D02*
X164418170Y-31340514D01*
X164418170Y-31340514D02*
X164513408Y-31530990D01*
X164513408Y-31530990D02*
X164513408Y-31626228D01*
X164513408Y-31626228D02*
X164418170Y-31816704D01*
X164418170Y-31816704D02*
X164322932Y-31911942D01*
X164322932Y-31911942D02*
X164132456Y-32007180D01*
X164132456Y-32007180D02*
X163751503Y-32007180D01*
X163751503Y-32007180D02*
X163561027Y-32102419D01*
X163561027Y-32102419D02*
X163465789Y-32197657D01*
X163465789Y-32197657D02*
X163370551Y-32388133D01*
X163370551Y-32388133D02*
X163370551Y-32769085D01*
X163370551Y-32769085D02*
X163465789Y-32959561D01*
X163465789Y-32959561D02*
X163561027Y-33054800D01*
X163561027Y-33054800D02*
X163751503Y-33150038D01*
X163751503Y-33150038D02*
X164132456Y-33150038D01*
X164132456Y-33150038D02*
X164322932Y-33054800D01*
X164322932Y-33054800D02*
X164418170Y-32959561D01*
X164418170Y-32959561D02*
X164513408Y-32769085D01*
X164513408Y-32769085D02*
X164513408Y-32388133D01*
X164513408Y-32388133D02*
X164418170Y-32197657D01*
X164418170Y-32197657D02*
X164322932Y-32102419D01*
X164322932Y-32102419D02*
X164132456Y-32007180D01*
X70603884Y-41991466D02*
X71365789Y-41991466D01*
X144870074Y-82512419D02*
X144393884Y-82512419D01*
X144393884Y-82512419D02*
X144393884Y-81512419D01*
X145203408Y-81988609D02*
X145536741Y-81988609D01*
X145679598Y-82512419D02*
X145203408Y-82512419D01*
X145203408Y-82512419D02*
X145203408Y-81512419D01*
X145203408Y-81512419D02*
X145679598Y-81512419D01*
X146108170Y-82512419D02*
X146108170Y-81512419D01*
X146108170Y-81512419D02*
X146346265Y-81512419D01*
X146346265Y-81512419D02*
X146489122Y-81560038D01*
X146489122Y-81560038D02*
X146584360Y-81655276D01*
X146584360Y-81655276D02*
X146631979Y-81750514D01*
X146631979Y-81750514D02*
X146679598Y-81940990D01*
X146679598Y-81940990D02*
X146679598Y-82083847D01*
X146679598Y-82083847D02*
X146631979Y-82274323D01*
X146631979Y-82274323D02*
X146584360Y-82369561D01*
X146584360Y-82369561D02*
X146489122Y-82464800D01*
X146489122Y-82464800D02*
X146346265Y-82512419D01*
X146346265Y-82512419D02*
X146108170Y-82512419D01*
X148203408Y-81988609D02*
X148346265Y-82036228D01*
X148346265Y-82036228D02*
X148393884Y-82083847D01*
X148393884Y-82083847D02*
X148441503Y-82179085D01*
X148441503Y-82179085D02*
X148441503Y-82321942D01*
X148441503Y-82321942D02*
X148393884Y-82417180D01*
X148393884Y-82417180D02*
X148346265Y-82464800D01*
X148346265Y-82464800D02*
X148251027Y-82512419D01*
X148251027Y-82512419D02*
X147870075Y-82512419D01*
X147870075Y-82512419D02*
X147870075Y-81512419D01*
X147870075Y-81512419D02*
X148203408Y-81512419D01*
X148203408Y-81512419D02*
X148298646Y-81560038D01*
X148298646Y-81560038D02*
X148346265Y-81607657D01*
X148346265Y-81607657D02*
X148393884Y-81702895D01*
X148393884Y-81702895D02*
X148393884Y-81798133D01*
X148393884Y-81798133D02*
X148346265Y-81893371D01*
X148346265Y-81893371D02*
X148298646Y-81940990D01*
X148298646Y-81940990D02*
X148203408Y-81988609D01*
X148203408Y-81988609D02*
X147870075Y-81988609D01*
X148870075Y-82512419D02*
X148870075Y-81845752D01*
X148870075Y-82036228D02*
X148917694Y-81940990D01*
X148917694Y-81940990D02*
X148965313Y-81893371D01*
X148965313Y-81893371D02*
X149060551Y-81845752D01*
X149060551Y-81845752D02*
X149155789Y-81845752D01*
X149870075Y-82464800D02*
X149774837Y-82512419D01*
X149774837Y-82512419D02*
X149584361Y-82512419D01*
X149584361Y-82512419D02*
X149489123Y-82464800D01*
X149489123Y-82464800D02*
X149441504Y-82369561D01*
X149441504Y-82369561D02*
X149441504Y-81988609D01*
X149441504Y-81988609D02*
X149489123Y-81893371D01*
X149489123Y-81893371D02*
X149584361Y-81845752D01*
X149584361Y-81845752D02*
X149774837Y-81845752D01*
X149774837Y-81845752D02*
X149870075Y-81893371D01*
X149870075Y-81893371D02*
X149917694Y-81988609D01*
X149917694Y-81988609D02*
X149917694Y-82083847D01*
X149917694Y-82083847D02*
X149441504Y-82179085D01*
X150774837Y-82512419D02*
X150774837Y-81988609D01*
X150774837Y-81988609D02*
X150727218Y-81893371D01*
X150727218Y-81893371D02*
X150631980Y-81845752D01*
X150631980Y-81845752D02*
X150441504Y-81845752D01*
X150441504Y-81845752D02*
X150346266Y-81893371D01*
X150774837Y-82464800D02*
X150679599Y-82512419D01*
X150679599Y-82512419D02*
X150441504Y-82512419D01*
X150441504Y-82512419D02*
X150346266Y-82464800D01*
X150346266Y-82464800D02*
X150298647Y-82369561D01*
X150298647Y-82369561D02*
X150298647Y-82274323D01*
X150298647Y-82274323D02*
X150346266Y-82179085D01*
X150346266Y-82179085D02*
X150441504Y-82131466D01*
X150441504Y-82131466D02*
X150679599Y-82131466D01*
X150679599Y-82131466D02*
X150774837Y-82083847D01*
X151251028Y-82512419D02*
X151251028Y-81512419D01*
X151346266Y-82131466D02*
X151631980Y-82512419D01*
X151631980Y-81845752D02*
X151251028Y-82226704D01*
X152203409Y-82512419D02*
X152108171Y-82464800D01*
X152108171Y-82464800D02*
X152060552Y-82417180D01*
X152060552Y-82417180D02*
X152012933Y-82321942D01*
X152012933Y-82321942D02*
X152012933Y-82036228D01*
X152012933Y-82036228D02*
X152060552Y-81940990D01*
X152060552Y-81940990D02*
X152108171Y-81893371D01*
X152108171Y-81893371D02*
X152203409Y-81845752D01*
X152203409Y-81845752D02*
X152346266Y-81845752D01*
X152346266Y-81845752D02*
X152441504Y-81893371D01*
X152441504Y-81893371D02*
X152489123Y-81940990D01*
X152489123Y-81940990D02*
X152536742Y-82036228D01*
X152536742Y-82036228D02*
X152536742Y-82321942D01*
X152536742Y-82321942D02*
X152489123Y-82417180D01*
X152489123Y-82417180D02*
X152441504Y-82464800D01*
X152441504Y-82464800D02*
X152346266Y-82512419D01*
X152346266Y-82512419D02*
X152203409Y-82512419D01*
X153393885Y-81845752D02*
X153393885Y-82512419D01*
X152965314Y-81845752D02*
X152965314Y-82369561D01*
X152965314Y-82369561D02*
X153012933Y-82464800D01*
X153012933Y-82464800D02*
X153108171Y-82512419D01*
X153108171Y-82512419D02*
X153251028Y-82512419D01*
X153251028Y-82512419D02*
X153346266Y-82464800D01*
X153346266Y-82464800D02*
X153393885Y-82417180D01*
X153727219Y-81845752D02*
X154108171Y-81845752D01*
X153870076Y-81512419D02*
X153870076Y-82369561D01*
X153870076Y-82369561D02*
X153917695Y-82464800D01*
X153917695Y-82464800D02*
X154012933Y-82512419D01*
X154012933Y-82512419D02*
X154108171Y-82512419D01*
X186856265Y-92986704D02*
X187332455Y-92986704D01*
X186761027Y-93272419D02*
X187094360Y-92272419D01*
X187094360Y-92272419D02*
X187427693Y-93272419D01*
X188189598Y-92605752D02*
X188189598Y-93272419D01*
X187951503Y-92224800D02*
X187713408Y-92939085D01*
X187713408Y-92939085D02*
X188332455Y-92939085D01*
X116028884Y-28336466D02*
X116790789Y-28336466D01*
X161925312Y-47537180D02*
X161877693Y-47584800D01*
X161877693Y-47584800D02*
X161734836Y-47632419D01*
X161734836Y-47632419D02*
X161639598Y-47632419D01*
X161639598Y-47632419D02*
X161496741Y-47584800D01*
X161496741Y-47584800D02*
X161401503Y-47489561D01*
X161401503Y-47489561D02*
X161353884Y-47394323D01*
X161353884Y-47394323D02*
X161306265Y-47203847D01*
X161306265Y-47203847D02*
X161306265Y-47060990D01*
X161306265Y-47060990D02*
X161353884Y-46870514D01*
X161353884Y-46870514D02*
X161401503Y-46775276D01*
X161401503Y-46775276D02*
X161496741Y-46680038D01*
X161496741Y-46680038D02*
X161639598Y-46632419D01*
X161639598Y-46632419D02*
X161734836Y-46632419D01*
X161734836Y-46632419D02*
X161877693Y-46680038D01*
X161877693Y-46680038D02*
X161925312Y-46727657D01*
X162306265Y-47346704D02*
X162782455Y-47346704D01*
X162211027Y-47632419D02*
X162544360Y-46632419D01*
X162544360Y-46632419D02*
X162877693Y-47632419D01*
X163211027Y-47632419D02*
X163211027Y-46632419D01*
X163211027Y-46632419D02*
X163782455Y-47632419D01*
X163782455Y-47632419D02*
X163782455Y-46632419D01*
X136903884Y-28336466D02*
X137665789Y-28336466D01*
X138403884Y-26172419D02*
X138403884Y-25172419D01*
X138403884Y-25172419D02*
X138641979Y-25172419D01*
X138641979Y-25172419D02*
X138784836Y-25220038D01*
X138784836Y-25220038D02*
X138880074Y-25315276D01*
X138880074Y-25315276D02*
X138927693Y-25410514D01*
X138927693Y-25410514D02*
X138975312Y-25600990D01*
X138975312Y-25600990D02*
X138975312Y-25743847D01*
X138975312Y-25743847D02*
X138927693Y-25934323D01*
X138927693Y-25934323D02*
X138880074Y-26029561D01*
X138880074Y-26029561D02*
X138784836Y-26124800D01*
X138784836Y-26124800D02*
X138641979Y-26172419D01*
X138641979Y-26172419D02*
X138403884Y-26172419D01*
X139403884Y-26172419D02*
X139403884Y-25505752D01*
X139403884Y-25172419D02*
X139356265Y-25220038D01*
X139356265Y-25220038D02*
X139403884Y-25267657D01*
X139403884Y-25267657D02*
X139451503Y-25220038D01*
X139451503Y-25220038D02*
X139403884Y-25172419D01*
X139403884Y-25172419D02*
X139403884Y-25267657D01*
X139832455Y-26124800D02*
X139927693Y-26172419D01*
X139927693Y-26172419D02*
X140118169Y-26172419D01*
X140118169Y-26172419D02*
X140213407Y-26124800D01*
X140213407Y-26124800D02*
X140261026Y-26029561D01*
X140261026Y-26029561D02*
X140261026Y-25981942D01*
X140261026Y-25981942D02*
X140213407Y-25886704D01*
X140213407Y-25886704D02*
X140118169Y-25839085D01*
X140118169Y-25839085D02*
X139975312Y-25839085D01*
X139975312Y-25839085D02*
X139880074Y-25791466D01*
X139880074Y-25791466D02*
X139832455Y-25696228D01*
X139832455Y-25696228D02*
X139832455Y-25648609D01*
X139832455Y-25648609D02*
X139880074Y-25553371D01*
X139880074Y-25553371D02*
X139975312Y-25505752D01*
X139975312Y-25505752D02*
X140118169Y-25505752D01*
X140118169Y-25505752D02*
X140213407Y-25553371D01*
X140689598Y-25505752D02*
X140689598Y-26505752D01*
X140689598Y-25553371D02*
X140784836Y-25505752D01*
X140784836Y-25505752D02*
X140975312Y-25505752D01*
X140975312Y-25505752D02*
X141070550Y-25553371D01*
X141070550Y-25553371D02*
X141118169Y-25600990D01*
X141118169Y-25600990D02*
X141165788Y-25696228D01*
X141165788Y-25696228D02*
X141165788Y-25981942D01*
X141165788Y-25981942D02*
X141118169Y-26077180D01*
X141118169Y-26077180D02*
X141070550Y-26124800D01*
X141070550Y-26124800D02*
X140975312Y-26172419D01*
X140975312Y-26172419D02*
X140784836Y-26172419D01*
X140784836Y-26172419D02*
X140689598Y-26124800D01*
X141737217Y-26172419D02*
X141641979Y-26124800D01*
X141641979Y-26124800D02*
X141594360Y-26029561D01*
X141594360Y-26029561D02*
X141594360Y-25172419D01*
X142546741Y-26172419D02*
X142546741Y-25648609D01*
X142546741Y-25648609D02*
X142499122Y-25553371D01*
X142499122Y-25553371D02*
X142403884Y-25505752D01*
X142403884Y-25505752D02*
X142213408Y-25505752D01*
X142213408Y-25505752D02*
X142118170Y-25553371D01*
X142546741Y-26124800D02*
X142451503Y-26172419D01*
X142451503Y-26172419D02*
X142213408Y-26172419D01*
X142213408Y-26172419D02*
X142118170Y-26124800D01*
X142118170Y-26124800D02*
X142070551Y-26029561D01*
X142070551Y-26029561D02*
X142070551Y-25934323D01*
X142070551Y-25934323D02*
X142118170Y-25839085D01*
X142118170Y-25839085D02*
X142213408Y-25791466D01*
X142213408Y-25791466D02*
X142451503Y-25791466D01*
X142451503Y-25791466D02*
X142546741Y-25743847D01*
X142927694Y-25505752D02*
X143165789Y-26172419D01*
X143403884Y-25505752D02*
X143165789Y-26172419D01*
X143165789Y-26172419D02*
X143070551Y-26410514D01*
X143070551Y-26410514D02*
X143022932Y-26458133D01*
X143022932Y-26458133D02*
X142927694Y-26505752D01*
X144451504Y-25172419D02*
X145070551Y-25172419D01*
X145070551Y-25172419D02*
X144737218Y-25553371D01*
X144737218Y-25553371D02*
X144880075Y-25553371D01*
X144880075Y-25553371D02*
X144975313Y-25600990D01*
X144975313Y-25600990D02*
X145022932Y-25648609D01*
X145022932Y-25648609D02*
X145070551Y-25743847D01*
X145070551Y-25743847D02*
X145070551Y-25981942D01*
X145070551Y-25981942D02*
X145022932Y-26077180D01*
X145022932Y-26077180D02*
X144975313Y-26124800D01*
X144975313Y-26124800D02*
X144880075Y-26172419D01*
X144880075Y-26172419D02*
X144594361Y-26172419D01*
X144594361Y-26172419D02*
X144499123Y-26124800D01*
X144499123Y-26124800D02*
X144451504Y-26077180D01*
X121613408Y-31150038D02*
X121613408Y-32578609D01*
X121613408Y-32578609D02*
X121518169Y-32864323D01*
X121518169Y-32864323D02*
X121327693Y-33054800D01*
X121327693Y-33054800D02*
X121041979Y-33150038D01*
X121041979Y-33150038D02*
X120851503Y-33150038D01*
X123422932Y-31150038D02*
X123041979Y-31150038D01*
X123041979Y-31150038D02*
X122851503Y-31245276D01*
X122851503Y-31245276D02*
X122756265Y-31340514D01*
X122756265Y-31340514D02*
X122565789Y-31626228D01*
X122565789Y-31626228D02*
X122470551Y-32007180D01*
X122470551Y-32007180D02*
X122470551Y-32769085D01*
X122470551Y-32769085D02*
X122565789Y-32959561D01*
X122565789Y-32959561D02*
X122661027Y-33054800D01*
X122661027Y-33054800D02*
X122851503Y-33150038D01*
X122851503Y-33150038D02*
X123232456Y-33150038D01*
X123232456Y-33150038D02*
X123422932Y-33054800D01*
X123422932Y-33054800D02*
X123518170Y-32959561D01*
X123518170Y-32959561D02*
X123613408Y-32769085D01*
X123613408Y-32769085D02*
X123613408Y-32292895D01*
X123613408Y-32292895D02*
X123518170Y-32102419D01*
X123518170Y-32102419D02*
X123422932Y-32007180D01*
X123422932Y-32007180D02*
X123232456Y-31911942D01*
X123232456Y-31911942D02*
X122851503Y-31911942D01*
X122851503Y-31911942D02*
X122661027Y-32007180D01*
X122661027Y-32007180D02*
X122565789Y-32102419D01*
X122565789Y-32102419D02*
X122470551Y-32292895D01*
X121781027Y-78852419D02*
X122352455Y-78852419D01*
X122066741Y-79852419D02*
X122066741Y-78852419D01*
X122685789Y-79852419D02*
X122685789Y-78852419D01*
X123114360Y-79852419D02*
X123114360Y-79328609D01*
X123114360Y-79328609D02*
X123066741Y-79233371D01*
X123066741Y-79233371D02*
X122971503Y-79185752D01*
X122971503Y-79185752D02*
X122828646Y-79185752D01*
X122828646Y-79185752D02*
X122733408Y-79233371D01*
X122733408Y-79233371D02*
X122685789Y-79280990D01*
X123590551Y-79852419D02*
X123590551Y-79185752D01*
X123590551Y-78852419D02*
X123542932Y-78900038D01*
X123542932Y-78900038D02*
X123590551Y-78947657D01*
X123590551Y-78947657D02*
X123638170Y-78900038D01*
X123638170Y-78900038D02*
X123590551Y-78852419D01*
X123590551Y-78852419D02*
X123590551Y-78947657D01*
X124019122Y-79804800D02*
X124114360Y-79852419D01*
X124114360Y-79852419D02*
X124304836Y-79852419D01*
X124304836Y-79852419D02*
X124400074Y-79804800D01*
X124400074Y-79804800D02*
X124447693Y-79709561D01*
X124447693Y-79709561D02*
X124447693Y-79661942D01*
X124447693Y-79661942D02*
X124400074Y-79566704D01*
X124400074Y-79566704D02*
X124304836Y-79519085D01*
X124304836Y-79519085D02*
X124161979Y-79519085D01*
X124161979Y-79519085D02*
X124066741Y-79471466D01*
X124066741Y-79471466D02*
X124019122Y-79376228D01*
X124019122Y-79376228D02*
X124019122Y-79328609D01*
X124019122Y-79328609D02*
X124066741Y-79233371D01*
X124066741Y-79233371D02*
X124161979Y-79185752D01*
X124161979Y-79185752D02*
X124304836Y-79185752D01*
X124304836Y-79185752D02*
X124400074Y-79233371D01*
X125590551Y-79804800D02*
X125685789Y-79852419D01*
X125685789Y-79852419D02*
X125876265Y-79852419D01*
X125876265Y-79852419D02*
X125971503Y-79804800D01*
X125971503Y-79804800D02*
X126019122Y-79709561D01*
X126019122Y-79709561D02*
X126019122Y-79661942D01*
X126019122Y-79661942D02*
X125971503Y-79566704D01*
X125971503Y-79566704D02*
X125876265Y-79519085D01*
X125876265Y-79519085D02*
X125733408Y-79519085D01*
X125733408Y-79519085D02*
X125638170Y-79471466D01*
X125638170Y-79471466D02*
X125590551Y-79376228D01*
X125590551Y-79376228D02*
X125590551Y-79328609D01*
X125590551Y-79328609D02*
X125638170Y-79233371D01*
X125638170Y-79233371D02*
X125733408Y-79185752D01*
X125733408Y-79185752D02*
X125876265Y-79185752D01*
X125876265Y-79185752D02*
X125971503Y-79233371D01*
X126447694Y-79852419D02*
X126447694Y-79185752D01*
X126447694Y-78852419D02*
X126400075Y-78900038D01*
X126400075Y-78900038D02*
X126447694Y-78947657D01*
X126447694Y-78947657D02*
X126495313Y-78900038D01*
X126495313Y-78900038D02*
X126447694Y-78852419D01*
X126447694Y-78852419D02*
X126447694Y-78947657D01*
X127352455Y-79852419D02*
X127352455Y-78852419D01*
X127352455Y-79804800D02*
X127257217Y-79852419D01*
X127257217Y-79852419D02*
X127066741Y-79852419D01*
X127066741Y-79852419D02*
X126971503Y-79804800D01*
X126971503Y-79804800D02*
X126923884Y-79757180D01*
X126923884Y-79757180D02*
X126876265Y-79661942D01*
X126876265Y-79661942D02*
X126876265Y-79376228D01*
X126876265Y-79376228D02*
X126923884Y-79280990D01*
X126923884Y-79280990D02*
X126971503Y-79233371D01*
X126971503Y-79233371D02*
X127066741Y-79185752D01*
X127066741Y-79185752D02*
X127257217Y-79185752D01*
X127257217Y-79185752D02*
X127352455Y-79233371D01*
X128209598Y-79804800D02*
X128114360Y-79852419D01*
X128114360Y-79852419D02*
X127923884Y-79852419D01*
X127923884Y-79852419D02*
X127828646Y-79804800D01*
X127828646Y-79804800D02*
X127781027Y-79709561D01*
X127781027Y-79709561D02*
X127781027Y-79328609D01*
X127781027Y-79328609D02*
X127828646Y-79233371D01*
X127828646Y-79233371D02*
X127923884Y-79185752D01*
X127923884Y-79185752D02*
X128114360Y-79185752D01*
X128114360Y-79185752D02*
X128209598Y-79233371D01*
X128209598Y-79233371D02*
X128257217Y-79328609D01*
X128257217Y-79328609D02*
X128257217Y-79423847D01*
X128257217Y-79423847D02*
X127781027Y-79519085D01*
X129876265Y-79185752D02*
X129876265Y-79852419D01*
X129447694Y-79185752D02*
X129447694Y-79709561D01*
X129447694Y-79709561D02*
X129495313Y-79804800D01*
X129495313Y-79804800D02*
X129590551Y-79852419D01*
X129590551Y-79852419D02*
X129733408Y-79852419D01*
X129733408Y-79852419D02*
X129828646Y-79804800D01*
X129828646Y-79804800D02*
X129876265Y-79757180D01*
X130352456Y-79185752D02*
X130352456Y-80185752D01*
X130352456Y-79233371D02*
X130447694Y-79185752D01*
X130447694Y-79185752D02*
X130638170Y-79185752D01*
X130638170Y-79185752D02*
X130733408Y-79233371D01*
X130733408Y-79233371D02*
X130781027Y-79280990D01*
X130781027Y-79280990D02*
X130828646Y-79376228D01*
X130828646Y-79376228D02*
X130828646Y-79661942D01*
X130828646Y-79661942D02*
X130781027Y-79757180D01*
X130781027Y-79757180D02*
X130733408Y-79804800D01*
X130733408Y-79804800D02*
X130638170Y-79852419D01*
X130638170Y-79852419D02*
X130447694Y-79852419D01*
X130447694Y-79852419D02*
X130352456Y-79804800D01*
X132019123Y-79852419D02*
X132019123Y-78852419D01*
X132019123Y-78852419D02*
X132352456Y-79566704D01*
X132352456Y-79566704D02*
X132685789Y-78852419D01*
X132685789Y-78852419D02*
X132685789Y-79852419D01*
X133590551Y-79852419D02*
X133590551Y-79328609D01*
X133590551Y-79328609D02*
X133542932Y-79233371D01*
X133542932Y-79233371D02*
X133447694Y-79185752D01*
X133447694Y-79185752D02*
X133257218Y-79185752D01*
X133257218Y-79185752D02*
X133161980Y-79233371D01*
X133590551Y-79804800D02*
X133495313Y-79852419D01*
X133495313Y-79852419D02*
X133257218Y-79852419D01*
X133257218Y-79852419D02*
X133161980Y-79804800D01*
X133161980Y-79804800D02*
X133114361Y-79709561D01*
X133114361Y-79709561D02*
X133114361Y-79614323D01*
X133114361Y-79614323D02*
X133161980Y-79519085D01*
X133161980Y-79519085D02*
X133257218Y-79471466D01*
X133257218Y-79471466D02*
X133495313Y-79471466D01*
X133495313Y-79471466D02*
X133590551Y-79423847D01*
X133923885Y-79185752D02*
X134304837Y-79185752D01*
X134066742Y-78852419D02*
X134066742Y-79709561D01*
X134066742Y-79709561D02*
X134114361Y-79804800D01*
X134114361Y-79804800D02*
X134209599Y-79852419D01*
X134209599Y-79852419D02*
X134304837Y-79852419D01*
X134495314Y-79185752D02*
X134876266Y-79185752D01*
X134638171Y-78852419D02*
X134638171Y-79709561D01*
X134638171Y-79709561D02*
X134685790Y-79804800D01*
X134685790Y-79804800D02*
X134781028Y-79852419D01*
X134781028Y-79852419D02*
X134876266Y-79852419D01*
X135209600Y-79852419D02*
X135209600Y-78852419D01*
X135638171Y-79852419D02*
X135638171Y-79328609D01*
X135638171Y-79328609D02*
X135590552Y-79233371D01*
X135590552Y-79233371D02*
X135495314Y-79185752D01*
X135495314Y-79185752D02*
X135352457Y-79185752D01*
X135352457Y-79185752D02*
X135257219Y-79233371D01*
X135257219Y-79233371D02*
X135209600Y-79280990D01*
X136495314Y-79804800D02*
X136400076Y-79852419D01*
X136400076Y-79852419D02*
X136209600Y-79852419D01*
X136209600Y-79852419D02*
X136114362Y-79804800D01*
X136114362Y-79804800D02*
X136066743Y-79709561D01*
X136066743Y-79709561D02*
X136066743Y-79328609D01*
X136066743Y-79328609D02*
X136114362Y-79233371D01*
X136114362Y-79233371D02*
X136209600Y-79185752D01*
X136209600Y-79185752D02*
X136400076Y-79185752D01*
X136400076Y-79185752D02*
X136495314Y-79233371D01*
X136495314Y-79233371D02*
X136542933Y-79328609D01*
X136542933Y-79328609D02*
X136542933Y-79423847D01*
X136542933Y-79423847D02*
X136066743Y-79519085D01*
X136876267Y-79185752D02*
X137066743Y-79852419D01*
X137066743Y-79852419D02*
X137257219Y-79376228D01*
X137257219Y-79376228D02*
X137447695Y-79852419D01*
X137447695Y-79852419D02*
X137638171Y-79185752D01*
X102058646Y-76972419D02*
X102677693Y-76972419D01*
X102677693Y-76972419D02*
X102344360Y-77353371D01*
X102344360Y-77353371D02*
X102487217Y-77353371D01*
X102487217Y-77353371D02*
X102582455Y-77400990D01*
X102582455Y-77400990D02*
X102630074Y-77448609D01*
X102630074Y-77448609D02*
X102677693Y-77543847D01*
X102677693Y-77543847D02*
X102677693Y-77781942D01*
X102677693Y-77781942D02*
X102630074Y-77877180D01*
X102630074Y-77877180D02*
X102582455Y-77924800D01*
X102582455Y-77924800D02*
X102487217Y-77972419D01*
X102487217Y-77972419D02*
X102201503Y-77972419D01*
X102201503Y-77972419D02*
X102106265Y-77924800D01*
X102106265Y-77924800D02*
X102058646Y-77877180D01*
X102963408Y-76972419D02*
X103296741Y-77972419D01*
X103296741Y-77972419D02*
X103630074Y-76972419D01*
X103868170Y-76972419D02*
X104487217Y-76972419D01*
X104487217Y-76972419D02*
X104153884Y-77353371D01*
X104153884Y-77353371D02*
X104296741Y-77353371D01*
X104296741Y-77353371D02*
X104391979Y-77400990D01*
X104391979Y-77400990D02*
X104439598Y-77448609D01*
X104439598Y-77448609D02*
X104487217Y-77543847D01*
X104487217Y-77543847D02*
X104487217Y-77781942D01*
X104487217Y-77781942D02*
X104439598Y-77877180D01*
X104439598Y-77877180D02*
X104391979Y-77924800D01*
X104391979Y-77924800D02*
X104296741Y-77972419D01*
X104296741Y-77972419D02*
X104011027Y-77972419D01*
X104011027Y-77972419D02*
X103915789Y-77924800D01*
X103915789Y-77924800D02*
X103868170Y-77877180D01*
X106249122Y-77877180D02*
X106201503Y-77924800D01*
X106201503Y-77924800D02*
X106058646Y-77972419D01*
X106058646Y-77972419D02*
X105963408Y-77972419D01*
X105963408Y-77972419D02*
X105820551Y-77924800D01*
X105820551Y-77924800D02*
X105725313Y-77829561D01*
X105725313Y-77829561D02*
X105677694Y-77734323D01*
X105677694Y-77734323D02*
X105630075Y-77543847D01*
X105630075Y-77543847D02*
X105630075Y-77400990D01*
X105630075Y-77400990D02*
X105677694Y-77210514D01*
X105677694Y-77210514D02*
X105725313Y-77115276D01*
X105725313Y-77115276D02*
X105820551Y-77020038D01*
X105820551Y-77020038D02*
X105963408Y-76972419D01*
X105963408Y-76972419D02*
X106058646Y-76972419D01*
X106058646Y-76972419D02*
X106201503Y-77020038D01*
X106201503Y-77020038D02*
X106249122Y-77067657D01*
X106820551Y-77972419D02*
X106725313Y-77924800D01*
X106725313Y-77924800D02*
X106677694Y-77877180D01*
X106677694Y-77877180D02*
X106630075Y-77781942D01*
X106630075Y-77781942D02*
X106630075Y-77496228D01*
X106630075Y-77496228D02*
X106677694Y-77400990D01*
X106677694Y-77400990D02*
X106725313Y-77353371D01*
X106725313Y-77353371D02*
X106820551Y-77305752D01*
X106820551Y-77305752D02*
X106963408Y-77305752D01*
X106963408Y-77305752D02*
X107058646Y-77353371D01*
X107058646Y-77353371D02*
X107106265Y-77400990D01*
X107106265Y-77400990D02*
X107153884Y-77496228D01*
X107153884Y-77496228D02*
X107153884Y-77781942D01*
X107153884Y-77781942D02*
X107106265Y-77877180D01*
X107106265Y-77877180D02*
X107058646Y-77924800D01*
X107058646Y-77924800D02*
X106963408Y-77972419D01*
X106963408Y-77972419D02*
X106820551Y-77972419D01*
X107582456Y-77305752D02*
X107582456Y-77972419D01*
X107582456Y-77400990D02*
X107630075Y-77353371D01*
X107630075Y-77353371D02*
X107725313Y-77305752D01*
X107725313Y-77305752D02*
X107868170Y-77305752D01*
X107868170Y-77305752D02*
X107963408Y-77353371D01*
X107963408Y-77353371D02*
X108011027Y-77448609D01*
X108011027Y-77448609D02*
X108011027Y-77972419D01*
X108391980Y-77305752D02*
X108630075Y-77972419D01*
X108630075Y-77972419D02*
X108868170Y-77305752D01*
X109630075Y-77924800D02*
X109534837Y-77972419D01*
X109534837Y-77972419D02*
X109344361Y-77972419D01*
X109344361Y-77972419D02*
X109249123Y-77924800D01*
X109249123Y-77924800D02*
X109201504Y-77829561D01*
X109201504Y-77829561D02*
X109201504Y-77448609D01*
X109201504Y-77448609D02*
X109249123Y-77353371D01*
X109249123Y-77353371D02*
X109344361Y-77305752D01*
X109344361Y-77305752D02*
X109534837Y-77305752D01*
X109534837Y-77305752D02*
X109630075Y-77353371D01*
X109630075Y-77353371D02*
X109677694Y-77448609D01*
X109677694Y-77448609D02*
X109677694Y-77543847D01*
X109677694Y-77543847D02*
X109201504Y-77639085D01*
X110106266Y-77972419D02*
X110106266Y-77305752D01*
X110106266Y-77496228D02*
X110153885Y-77400990D01*
X110153885Y-77400990D02*
X110201504Y-77353371D01*
X110201504Y-77353371D02*
X110296742Y-77305752D01*
X110296742Y-77305752D02*
X110391980Y-77305752D01*
X110582457Y-77305752D02*
X110963409Y-77305752D01*
X110725314Y-76972419D02*
X110725314Y-77829561D01*
X110725314Y-77829561D02*
X110772933Y-77924800D01*
X110772933Y-77924800D02*
X110868171Y-77972419D01*
X110868171Y-77972419D02*
X110963409Y-77972419D01*
X111677695Y-77924800D02*
X111582457Y-77972419D01*
X111582457Y-77972419D02*
X111391981Y-77972419D01*
X111391981Y-77972419D02*
X111296743Y-77924800D01*
X111296743Y-77924800D02*
X111249124Y-77829561D01*
X111249124Y-77829561D02*
X111249124Y-77448609D01*
X111249124Y-77448609D02*
X111296743Y-77353371D01*
X111296743Y-77353371D02*
X111391981Y-77305752D01*
X111391981Y-77305752D02*
X111582457Y-77305752D01*
X111582457Y-77305752D02*
X111677695Y-77353371D01*
X111677695Y-77353371D02*
X111725314Y-77448609D01*
X111725314Y-77448609D02*
X111725314Y-77543847D01*
X111725314Y-77543847D02*
X111249124Y-77639085D01*
X112153886Y-77972419D02*
X112153886Y-77305752D01*
X112153886Y-77496228D02*
X112201505Y-77400990D01*
X112201505Y-77400990D02*
X112249124Y-77353371D01*
X112249124Y-77353371D02*
X112344362Y-77305752D01*
X112344362Y-77305752D02*
X112439600Y-77305752D01*
D11*
X110604510Y-135980828D02*
X110604510Y-134480828D01*
X110604510Y-135195114D02*
X111461653Y-135195114D01*
X111461653Y-135980828D02*
X111461653Y-134480828D01*
D10*
X188575312Y-67872419D02*
X188241979Y-67396228D01*
X188003884Y-67872419D02*
X188003884Y-66872419D01*
X188003884Y-66872419D02*
X188384836Y-66872419D01*
X188384836Y-66872419D02*
X188480074Y-66920038D01*
X188480074Y-66920038D02*
X188527693Y-66967657D01*
X188527693Y-66967657D02*
X188575312Y-67062895D01*
X188575312Y-67062895D02*
X188575312Y-67205752D01*
X188575312Y-67205752D02*
X188527693Y-67300990D01*
X188527693Y-67300990D02*
X188480074Y-67348609D01*
X188480074Y-67348609D02*
X188384836Y-67396228D01*
X188384836Y-67396228D02*
X188003884Y-67396228D01*
X189003884Y-67872419D02*
X189003884Y-66872419D01*
X189003884Y-66872419D02*
X189384836Y-66872419D01*
X189384836Y-66872419D02*
X189480074Y-66920038D01*
X189480074Y-66920038D02*
X189527693Y-66967657D01*
X189527693Y-66967657D02*
X189575312Y-67062895D01*
X189575312Y-67062895D02*
X189575312Y-67205752D01*
X189575312Y-67205752D02*
X189527693Y-67300990D01*
X189527693Y-67300990D02*
X189480074Y-67348609D01*
X189480074Y-67348609D02*
X189384836Y-67396228D01*
X189384836Y-67396228D02*
X189003884Y-67396228D01*
X190003884Y-67872419D02*
X190003884Y-66872419D01*
X190003884Y-66872419D02*
X190337217Y-67586704D01*
X190337217Y-67586704D02*
X190670550Y-66872419D01*
X190670550Y-66872419D02*
X190670550Y-67872419D01*
X191861027Y-67824800D02*
X192003884Y-67872419D01*
X192003884Y-67872419D02*
X192241979Y-67872419D01*
X192241979Y-67872419D02*
X192337217Y-67824800D01*
X192337217Y-67824800D02*
X192384836Y-67777180D01*
X192384836Y-67777180D02*
X192432455Y-67681942D01*
X192432455Y-67681942D02*
X192432455Y-67586704D01*
X192432455Y-67586704D02*
X192384836Y-67491466D01*
X192384836Y-67491466D02*
X192337217Y-67443847D01*
X192337217Y-67443847D02*
X192241979Y-67396228D01*
X192241979Y-67396228D02*
X192051503Y-67348609D01*
X192051503Y-67348609D02*
X191956265Y-67300990D01*
X191956265Y-67300990D02*
X191908646Y-67253371D01*
X191908646Y-67253371D02*
X191861027Y-67158133D01*
X191861027Y-67158133D02*
X191861027Y-67062895D01*
X191861027Y-67062895D02*
X191908646Y-66967657D01*
X191908646Y-66967657D02*
X191956265Y-66920038D01*
X191956265Y-66920038D02*
X192051503Y-66872419D01*
X192051503Y-66872419D02*
X192289598Y-66872419D01*
X192289598Y-66872419D02*
X192432455Y-66920038D01*
X193241979Y-67824800D02*
X193146741Y-67872419D01*
X193146741Y-67872419D02*
X192956265Y-67872419D01*
X192956265Y-67872419D02*
X192861027Y-67824800D01*
X192861027Y-67824800D02*
X192813408Y-67729561D01*
X192813408Y-67729561D02*
X192813408Y-67348609D01*
X192813408Y-67348609D02*
X192861027Y-67253371D01*
X192861027Y-67253371D02*
X192956265Y-67205752D01*
X192956265Y-67205752D02*
X193146741Y-67205752D01*
X193146741Y-67205752D02*
X193241979Y-67253371D01*
X193241979Y-67253371D02*
X193289598Y-67348609D01*
X193289598Y-67348609D02*
X193289598Y-67443847D01*
X193289598Y-67443847D02*
X192813408Y-67539085D01*
X193718170Y-67872419D02*
X193718170Y-67205752D01*
X193718170Y-67396228D02*
X193765789Y-67300990D01*
X193765789Y-67300990D02*
X193813408Y-67253371D01*
X193813408Y-67253371D02*
X193908646Y-67205752D01*
X193908646Y-67205752D02*
X194003884Y-67205752D01*
X194241980Y-67205752D02*
X194480075Y-67872419D01*
X194480075Y-67872419D02*
X194718170Y-67205752D01*
X195241980Y-67872419D02*
X195146742Y-67824800D01*
X195146742Y-67824800D02*
X195099123Y-67777180D01*
X195099123Y-67777180D02*
X195051504Y-67681942D01*
X195051504Y-67681942D02*
X195051504Y-67396228D01*
X195051504Y-67396228D02*
X195099123Y-67300990D01*
X195099123Y-67300990D02*
X195146742Y-67253371D01*
X195146742Y-67253371D02*
X195241980Y-67205752D01*
X195241980Y-67205752D02*
X195384837Y-67205752D01*
X195384837Y-67205752D02*
X195480075Y-67253371D01*
X195480075Y-67253371D02*
X195527694Y-67300990D01*
X195527694Y-67300990D02*
X195575313Y-67396228D01*
X195575313Y-67396228D02*
X195575313Y-67681942D01*
X195575313Y-67681942D02*
X195527694Y-67777180D01*
X195527694Y-67777180D02*
X195480075Y-67824800D01*
X195480075Y-67824800D02*
X195384837Y-67872419D01*
X195384837Y-67872419D02*
X195241980Y-67872419D01*
X157603884Y-28336466D02*
X158365789Y-28336466D01*
X66242475Y-86786115D02*
X65242475Y-86786115D01*
X65242475Y-86786115D02*
X65242475Y-86548020D01*
X65242475Y-86548020D02*
X65290094Y-86405163D01*
X65290094Y-86405163D02*
X65385332Y-86309925D01*
X65385332Y-86309925D02*
X65480570Y-86262306D01*
X65480570Y-86262306D02*
X65671046Y-86214687D01*
X65671046Y-86214687D02*
X65813903Y-86214687D01*
X65813903Y-86214687D02*
X66004379Y-86262306D01*
X66004379Y-86262306D02*
X66099617Y-86309925D01*
X66099617Y-86309925D02*
X66194856Y-86405163D01*
X66194856Y-86405163D02*
X66242475Y-86548020D01*
X66242475Y-86548020D02*
X66242475Y-86786115D01*
X66194856Y-85405163D02*
X66242475Y-85500401D01*
X66242475Y-85500401D02*
X66242475Y-85690877D01*
X66242475Y-85690877D02*
X66194856Y-85786115D01*
X66194856Y-85786115D02*
X66099617Y-85833734D01*
X66099617Y-85833734D02*
X65718665Y-85833734D01*
X65718665Y-85833734D02*
X65623427Y-85786115D01*
X65623427Y-85786115D02*
X65575808Y-85690877D01*
X65575808Y-85690877D02*
X65575808Y-85500401D01*
X65575808Y-85500401D02*
X65623427Y-85405163D01*
X65623427Y-85405163D02*
X65718665Y-85357544D01*
X65718665Y-85357544D02*
X65813903Y-85357544D01*
X65813903Y-85357544D02*
X65909141Y-85833734D01*
X66194856Y-84976591D02*
X66242475Y-84881353D01*
X66242475Y-84881353D02*
X66242475Y-84690877D01*
X66242475Y-84690877D02*
X66194856Y-84595639D01*
X66194856Y-84595639D02*
X66099617Y-84548020D01*
X66099617Y-84548020D02*
X66051998Y-84548020D01*
X66051998Y-84548020D02*
X65956760Y-84595639D01*
X65956760Y-84595639D02*
X65909141Y-84690877D01*
X65909141Y-84690877D02*
X65909141Y-84833734D01*
X65909141Y-84833734D02*
X65861522Y-84928972D01*
X65861522Y-84928972D02*
X65766284Y-84976591D01*
X65766284Y-84976591D02*
X65718665Y-84976591D01*
X65718665Y-84976591D02*
X65623427Y-84928972D01*
X65623427Y-84928972D02*
X65575808Y-84833734D01*
X65575808Y-84833734D02*
X65575808Y-84690877D01*
X65575808Y-84690877D02*
X65623427Y-84595639D01*
X66242475Y-84119448D02*
X65575808Y-84119448D01*
X65242475Y-84119448D02*
X65290094Y-84167067D01*
X65290094Y-84167067D02*
X65337713Y-84119448D01*
X65337713Y-84119448D02*
X65290094Y-84071829D01*
X65290094Y-84071829D02*
X65242475Y-84119448D01*
X65242475Y-84119448D02*
X65337713Y-84119448D01*
X65575808Y-83214687D02*
X66385332Y-83214687D01*
X66385332Y-83214687D02*
X66480570Y-83262306D01*
X66480570Y-83262306D02*
X66528189Y-83309925D01*
X66528189Y-83309925D02*
X66575808Y-83405163D01*
X66575808Y-83405163D02*
X66575808Y-83548020D01*
X66575808Y-83548020D02*
X66528189Y-83643258D01*
X66194856Y-83214687D02*
X66242475Y-83309925D01*
X66242475Y-83309925D02*
X66242475Y-83500401D01*
X66242475Y-83500401D02*
X66194856Y-83595639D01*
X66194856Y-83595639D02*
X66147236Y-83643258D01*
X66147236Y-83643258D02*
X66051998Y-83690877D01*
X66051998Y-83690877D02*
X65766284Y-83690877D01*
X65766284Y-83690877D02*
X65671046Y-83643258D01*
X65671046Y-83643258D02*
X65623427Y-83595639D01*
X65623427Y-83595639D02*
X65575808Y-83500401D01*
X65575808Y-83500401D02*
X65575808Y-83309925D01*
X65575808Y-83309925D02*
X65623427Y-83214687D01*
X65575808Y-82738496D02*
X66242475Y-82738496D01*
X65671046Y-82738496D02*
X65623427Y-82690877D01*
X65623427Y-82690877D02*
X65575808Y-82595639D01*
X65575808Y-82595639D02*
X65575808Y-82452782D01*
X65575808Y-82452782D02*
X65623427Y-82357544D01*
X65623427Y-82357544D02*
X65718665Y-82309925D01*
X65718665Y-82309925D02*
X66242475Y-82309925D01*
X66194856Y-81452782D02*
X66242475Y-81548020D01*
X66242475Y-81548020D02*
X66242475Y-81738496D01*
X66242475Y-81738496D02*
X66194856Y-81833734D01*
X66194856Y-81833734D02*
X66099617Y-81881353D01*
X66099617Y-81881353D02*
X65718665Y-81881353D01*
X65718665Y-81881353D02*
X65623427Y-81833734D01*
X65623427Y-81833734D02*
X65575808Y-81738496D01*
X65575808Y-81738496D02*
X65575808Y-81548020D01*
X65575808Y-81548020D02*
X65623427Y-81452782D01*
X65623427Y-81452782D02*
X65718665Y-81405163D01*
X65718665Y-81405163D02*
X65813903Y-81405163D01*
X65813903Y-81405163D02*
X65909141Y-81881353D01*
X66242475Y-80548020D02*
X65242475Y-80548020D01*
X66194856Y-80548020D02*
X66242475Y-80643258D01*
X66242475Y-80643258D02*
X66242475Y-80833734D01*
X66242475Y-80833734D02*
X66194856Y-80928972D01*
X66194856Y-80928972D02*
X66147236Y-80976591D01*
X66147236Y-80976591D02*
X66051998Y-81024210D01*
X66051998Y-81024210D02*
X65766284Y-81024210D01*
X65766284Y-81024210D02*
X65671046Y-80976591D01*
X65671046Y-80976591D02*
X65623427Y-80928972D01*
X65623427Y-80928972D02*
X65575808Y-80833734D01*
X65575808Y-80833734D02*
X65575808Y-80643258D01*
X65575808Y-80643258D02*
X65623427Y-80548020D01*
X66242475Y-79309924D02*
X65242475Y-79309924D01*
X65623427Y-79309924D02*
X65575808Y-79214686D01*
X65575808Y-79214686D02*
X65575808Y-79024210D01*
X65575808Y-79024210D02*
X65623427Y-78928972D01*
X65623427Y-78928972D02*
X65671046Y-78881353D01*
X65671046Y-78881353D02*
X65766284Y-78833734D01*
X65766284Y-78833734D02*
X66051998Y-78833734D01*
X66051998Y-78833734D02*
X66147236Y-78881353D01*
X66147236Y-78881353D02*
X66194856Y-78928972D01*
X66194856Y-78928972D02*
X66242475Y-79024210D01*
X66242475Y-79024210D02*
X66242475Y-79214686D01*
X66242475Y-79214686D02*
X66194856Y-79309924D01*
X65575808Y-78500400D02*
X66242475Y-78262305D01*
X65575808Y-78024210D02*
X66242475Y-78262305D01*
X66242475Y-78262305D02*
X66480570Y-78357543D01*
X66480570Y-78357543D02*
X66528189Y-78405162D01*
X66528189Y-78405162D02*
X66575808Y-78500400D01*
X66147236Y-76309924D02*
X66194856Y-76357543D01*
X66194856Y-76357543D02*
X66242475Y-76500400D01*
X66242475Y-76500400D02*
X66242475Y-76595638D01*
X66242475Y-76595638D02*
X66194856Y-76738495D01*
X66194856Y-76738495D02*
X66099617Y-76833733D01*
X66099617Y-76833733D02*
X66004379Y-76881352D01*
X66004379Y-76881352D02*
X65813903Y-76928971D01*
X65813903Y-76928971D02*
X65671046Y-76928971D01*
X65671046Y-76928971D02*
X65480570Y-76881352D01*
X65480570Y-76881352D02*
X65385332Y-76833733D01*
X65385332Y-76833733D02*
X65290094Y-76738495D01*
X65290094Y-76738495D02*
X65242475Y-76595638D01*
X65242475Y-76595638D02*
X65242475Y-76500400D01*
X65242475Y-76500400D02*
X65290094Y-76357543D01*
X65290094Y-76357543D02*
X65337713Y-76309924D01*
X66242475Y-75738495D02*
X66194856Y-75833733D01*
X66194856Y-75833733D02*
X66147236Y-75881352D01*
X66147236Y-75881352D02*
X66051998Y-75928971D01*
X66051998Y-75928971D02*
X65766284Y-75928971D01*
X65766284Y-75928971D02*
X65671046Y-75881352D01*
X65671046Y-75881352D02*
X65623427Y-75833733D01*
X65623427Y-75833733D02*
X65575808Y-75738495D01*
X65575808Y-75738495D02*
X65575808Y-75595638D01*
X65575808Y-75595638D02*
X65623427Y-75500400D01*
X65623427Y-75500400D02*
X65671046Y-75452781D01*
X65671046Y-75452781D02*
X65766284Y-75405162D01*
X65766284Y-75405162D02*
X66051998Y-75405162D01*
X66051998Y-75405162D02*
X66147236Y-75452781D01*
X66147236Y-75452781D02*
X66194856Y-75500400D01*
X66194856Y-75500400D02*
X66242475Y-75595638D01*
X66242475Y-75595638D02*
X66242475Y-75738495D01*
X65575808Y-74976590D02*
X66242475Y-74976590D01*
X65671046Y-74976590D02*
X65623427Y-74928971D01*
X65623427Y-74928971D02*
X65575808Y-74833733D01*
X65575808Y-74833733D02*
X65575808Y-74690876D01*
X65575808Y-74690876D02*
X65623427Y-74595638D01*
X65623427Y-74595638D02*
X65718665Y-74548019D01*
X65718665Y-74548019D02*
X66242475Y-74548019D01*
X65575808Y-74071828D02*
X66242475Y-74071828D01*
X65671046Y-74071828D02*
X65623427Y-74024209D01*
X65623427Y-74024209D02*
X65575808Y-73928971D01*
X65575808Y-73928971D02*
X65575808Y-73786114D01*
X65575808Y-73786114D02*
X65623427Y-73690876D01*
X65623427Y-73690876D02*
X65718665Y-73643257D01*
X65718665Y-73643257D02*
X66242475Y-73643257D01*
X66242475Y-73024209D02*
X66194856Y-73119447D01*
X66194856Y-73119447D02*
X66147236Y-73167066D01*
X66147236Y-73167066D02*
X66051998Y-73214685D01*
X66051998Y-73214685D02*
X65766284Y-73214685D01*
X65766284Y-73214685D02*
X65671046Y-73167066D01*
X65671046Y-73167066D02*
X65623427Y-73119447D01*
X65623427Y-73119447D02*
X65575808Y-73024209D01*
X65575808Y-73024209D02*
X65575808Y-72881352D01*
X65575808Y-72881352D02*
X65623427Y-72786114D01*
X65623427Y-72786114D02*
X65671046Y-72738495D01*
X65671046Y-72738495D02*
X65766284Y-72690876D01*
X65766284Y-72690876D02*
X66051998Y-72690876D01*
X66051998Y-72690876D02*
X66147236Y-72738495D01*
X66147236Y-72738495D02*
X66194856Y-72786114D01*
X66194856Y-72786114D02*
X66242475Y-72881352D01*
X66242475Y-72881352D02*
X66242475Y-73024209D01*
X66242475Y-72262304D02*
X65575808Y-72262304D01*
X65766284Y-72262304D02*
X65671046Y-72214685D01*
X65671046Y-72214685D02*
X65623427Y-72167066D01*
X65623427Y-72167066D02*
X65575808Y-72071828D01*
X65575808Y-72071828D02*
X65575808Y-71976590D01*
X66242475Y-70405161D02*
X66242475Y-70881351D01*
X66242475Y-70881351D02*
X65242475Y-70881351D01*
X66242475Y-69643256D02*
X65718665Y-69643256D01*
X65718665Y-69643256D02*
X65623427Y-69690875D01*
X65623427Y-69690875D02*
X65575808Y-69786113D01*
X65575808Y-69786113D02*
X65575808Y-69976589D01*
X65575808Y-69976589D02*
X65623427Y-70071827D01*
X66194856Y-69643256D02*
X66242475Y-69738494D01*
X66242475Y-69738494D02*
X66242475Y-69976589D01*
X66242475Y-69976589D02*
X66194856Y-70071827D01*
X66194856Y-70071827D02*
X66099617Y-70119446D01*
X66099617Y-70119446D02*
X66004379Y-70119446D01*
X66004379Y-70119446D02*
X65909141Y-70071827D01*
X65909141Y-70071827D02*
X65861522Y-69976589D01*
X65861522Y-69976589D02*
X65861522Y-69738494D01*
X65861522Y-69738494D02*
X65813903Y-69643256D01*
X66242475Y-69167065D02*
X65575808Y-69167065D01*
X65766284Y-69167065D02*
X65671046Y-69119446D01*
X65671046Y-69119446D02*
X65623427Y-69071827D01*
X65623427Y-69071827D02*
X65575808Y-68976589D01*
X65575808Y-68976589D02*
X65575808Y-68881351D01*
X66194856Y-68595636D02*
X66242475Y-68500398D01*
X66242475Y-68500398D02*
X66242475Y-68309922D01*
X66242475Y-68309922D02*
X66194856Y-68214684D01*
X66194856Y-68214684D02*
X66099617Y-68167065D01*
X66099617Y-68167065D02*
X66051998Y-68167065D01*
X66051998Y-68167065D02*
X65956760Y-68214684D01*
X65956760Y-68214684D02*
X65909141Y-68309922D01*
X65909141Y-68309922D02*
X65909141Y-68452779D01*
X65909141Y-68452779D02*
X65861522Y-68548017D01*
X65861522Y-68548017D02*
X65766284Y-68595636D01*
X65766284Y-68595636D02*
X65718665Y-68595636D01*
X65718665Y-68595636D02*
X65623427Y-68548017D01*
X65623427Y-68548017D02*
X65575808Y-68452779D01*
X65575808Y-68452779D02*
X65575808Y-68309922D01*
X65575808Y-68309922D02*
X65623427Y-68214684D01*
X66242475Y-67595636D02*
X66194856Y-67690874D01*
X66194856Y-67690874D02*
X66147236Y-67738493D01*
X66147236Y-67738493D02*
X66051998Y-67786112D01*
X66051998Y-67786112D02*
X65766284Y-67786112D01*
X65766284Y-67786112D02*
X65671046Y-67738493D01*
X65671046Y-67738493D02*
X65623427Y-67690874D01*
X65623427Y-67690874D02*
X65575808Y-67595636D01*
X65575808Y-67595636D02*
X65575808Y-67452779D01*
X65575808Y-67452779D02*
X65623427Y-67357541D01*
X65623427Y-67357541D02*
X65671046Y-67309922D01*
X65671046Y-67309922D02*
X65766284Y-67262303D01*
X65766284Y-67262303D02*
X66051998Y-67262303D01*
X66051998Y-67262303D02*
X66147236Y-67309922D01*
X66147236Y-67309922D02*
X66194856Y-67357541D01*
X66194856Y-67357541D02*
X66242475Y-67452779D01*
X66242475Y-67452779D02*
X66242475Y-67595636D01*
X65575808Y-66833731D02*
X66242475Y-66833731D01*
X65671046Y-66833731D02*
X65623427Y-66786112D01*
X65623427Y-66786112D02*
X65575808Y-66690874D01*
X65575808Y-66690874D02*
X65575808Y-66548017D01*
X65575808Y-66548017D02*
X65623427Y-66452779D01*
X65623427Y-66452779D02*
X65718665Y-66405160D01*
X65718665Y-66405160D02*
X66242475Y-66405160D01*
X66194856Y-65881350D02*
X66242475Y-65881350D01*
X66242475Y-65881350D02*
X66337713Y-65928969D01*
X66337713Y-65928969D02*
X66385332Y-65976588D01*
X66242475Y-64690874D02*
X65242475Y-64690874D01*
X66242475Y-64119446D02*
X65671046Y-64548017D01*
X65242475Y-64119446D02*
X65813903Y-64690874D01*
X66242475Y-63262303D02*
X65718665Y-63262303D01*
X65718665Y-63262303D02*
X65623427Y-63309922D01*
X65623427Y-63309922D02*
X65575808Y-63405160D01*
X65575808Y-63405160D02*
X65575808Y-63595636D01*
X65575808Y-63595636D02*
X65623427Y-63690874D01*
X66194856Y-63262303D02*
X66242475Y-63357541D01*
X66242475Y-63357541D02*
X66242475Y-63595636D01*
X66242475Y-63595636D02*
X66194856Y-63690874D01*
X66194856Y-63690874D02*
X66099617Y-63738493D01*
X66099617Y-63738493D02*
X66004379Y-63738493D01*
X66004379Y-63738493D02*
X65909141Y-63690874D01*
X65909141Y-63690874D02*
X65861522Y-63595636D01*
X65861522Y-63595636D02*
X65861522Y-63357541D01*
X65861522Y-63357541D02*
X65813903Y-63262303D01*
X66242475Y-62786112D02*
X65575808Y-62786112D01*
X65766284Y-62786112D02*
X65671046Y-62738493D01*
X65671046Y-62738493D02*
X65623427Y-62690874D01*
X65623427Y-62690874D02*
X65575808Y-62595636D01*
X65575808Y-62595636D02*
X65575808Y-62500398D01*
X66194856Y-62214683D02*
X66242475Y-62119445D01*
X66242475Y-62119445D02*
X66242475Y-61928969D01*
X66242475Y-61928969D02*
X66194856Y-61833731D01*
X66194856Y-61833731D02*
X66099617Y-61786112D01*
X66099617Y-61786112D02*
X66051998Y-61786112D01*
X66051998Y-61786112D02*
X65956760Y-61833731D01*
X65956760Y-61833731D02*
X65909141Y-61928969D01*
X65909141Y-61928969D02*
X65909141Y-62071826D01*
X65909141Y-62071826D02*
X65861522Y-62167064D01*
X65861522Y-62167064D02*
X65766284Y-62214683D01*
X65766284Y-62214683D02*
X65718665Y-62214683D01*
X65718665Y-62214683D02*
X65623427Y-62167064D01*
X65623427Y-62167064D02*
X65575808Y-62071826D01*
X65575808Y-62071826D02*
X65575808Y-61928969D01*
X65575808Y-61928969D02*
X65623427Y-61833731D01*
X65575808Y-61500397D02*
X65575808Y-61119445D01*
X65242475Y-61357540D02*
X66099617Y-61357540D01*
X66099617Y-61357540D02*
X66194856Y-61309921D01*
X66194856Y-61309921D02*
X66242475Y-61214683D01*
X66242475Y-61214683D02*
X66242475Y-61119445D01*
X66194856Y-60405159D02*
X66242475Y-60500397D01*
X66242475Y-60500397D02*
X66242475Y-60690873D01*
X66242475Y-60690873D02*
X66194856Y-60786111D01*
X66194856Y-60786111D02*
X66099617Y-60833730D01*
X66099617Y-60833730D02*
X65718665Y-60833730D01*
X65718665Y-60833730D02*
X65623427Y-60786111D01*
X65623427Y-60786111D02*
X65575808Y-60690873D01*
X65575808Y-60690873D02*
X65575808Y-60500397D01*
X65575808Y-60500397D02*
X65623427Y-60405159D01*
X65623427Y-60405159D02*
X65718665Y-60357540D01*
X65718665Y-60357540D02*
X65813903Y-60357540D01*
X65813903Y-60357540D02*
X65909141Y-60833730D01*
X65575808Y-59928968D02*
X66242475Y-59928968D01*
X65671046Y-59928968D02*
X65623427Y-59881349D01*
X65623427Y-59881349D02*
X65575808Y-59786111D01*
X65575808Y-59786111D02*
X65575808Y-59643254D01*
X65575808Y-59643254D02*
X65623427Y-59548016D01*
X65623427Y-59548016D02*
X65718665Y-59500397D01*
X65718665Y-59500397D02*
X66242475Y-59500397D01*
X65766284Y-58071825D02*
X66242475Y-58071825D01*
X65242475Y-58405158D02*
X65766284Y-58071825D01*
X65766284Y-58071825D02*
X65242475Y-57738492D01*
X66242475Y-57405158D02*
X65575808Y-57405158D01*
X65242475Y-57405158D02*
X65290094Y-57452777D01*
X65290094Y-57452777D02*
X65337713Y-57405158D01*
X65337713Y-57405158D02*
X65290094Y-57357539D01*
X65290094Y-57357539D02*
X65242475Y-57405158D01*
X65242475Y-57405158D02*
X65337713Y-57405158D01*
X66242475Y-56500397D02*
X65718665Y-56500397D01*
X65718665Y-56500397D02*
X65623427Y-56548016D01*
X65623427Y-56548016D02*
X65575808Y-56643254D01*
X65575808Y-56643254D02*
X65575808Y-56833730D01*
X65575808Y-56833730D02*
X65623427Y-56928968D01*
X66194856Y-56500397D02*
X66242475Y-56595635D01*
X66242475Y-56595635D02*
X66242475Y-56833730D01*
X66242475Y-56833730D02*
X66194856Y-56928968D01*
X66194856Y-56928968D02*
X66099617Y-56976587D01*
X66099617Y-56976587D02*
X66004379Y-56976587D01*
X66004379Y-56976587D02*
X65909141Y-56928968D01*
X65909141Y-56928968D02*
X65861522Y-56833730D01*
X65861522Y-56833730D02*
X65861522Y-56595635D01*
X65861522Y-56595635D02*
X65813903Y-56500397D01*
X65575808Y-56024206D02*
X66242475Y-56024206D01*
X65671046Y-56024206D02*
X65623427Y-55976587D01*
X65623427Y-55976587D02*
X65575808Y-55881349D01*
X65575808Y-55881349D02*
X65575808Y-55738492D01*
X65575808Y-55738492D02*
X65623427Y-55643254D01*
X65623427Y-55643254D02*
X65718665Y-55595635D01*
X65718665Y-55595635D02*
X66242475Y-55595635D01*
X66242475Y-53928968D02*
X65718665Y-53928968D01*
X65718665Y-53928968D02*
X65623427Y-53976587D01*
X65623427Y-53976587D02*
X65575808Y-54071825D01*
X65575808Y-54071825D02*
X65575808Y-54262301D01*
X65575808Y-54262301D02*
X65623427Y-54357539D01*
X66194856Y-53928968D02*
X66242475Y-54024206D01*
X66242475Y-54024206D02*
X66242475Y-54262301D01*
X66242475Y-54262301D02*
X66194856Y-54357539D01*
X66194856Y-54357539D02*
X66099617Y-54405158D01*
X66099617Y-54405158D02*
X66004379Y-54405158D01*
X66004379Y-54405158D02*
X65909141Y-54357539D01*
X65909141Y-54357539D02*
X65861522Y-54262301D01*
X65861522Y-54262301D02*
X65861522Y-54024206D01*
X65861522Y-54024206D02*
X65813903Y-53928968D01*
X65575808Y-53452777D02*
X66242475Y-53452777D01*
X65671046Y-53452777D02*
X65623427Y-53405158D01*
X65623427Y-53405158D02*
X65575808Y-53309920D01*
X65575808Y-53309920D02*
X65575808Y-53167063D01*
X65575808Y-53167063D02*
X65623427Y-53071825D01*
X65623427Y-53071825D02*
X65718665Y-53024206D01*
X65718665Y-53024206D02*
X66242475Y-53024206D01*
X66242475Y-52119444D02*
X65242475Y-52119444D01*
X66194856Y-52119444D02*
X66242475Y-52214682D01*
X66242475Y-52214682D02*
X66242475Y-52405158D01*
X66242475Y-52405158D02*
X66194856Y-52500396D01*
X66194856Y-52500396D02*
X66147236Y-52548015D01*
X66147236Y-52548015D02*
X66051998Y-52595634D01*
X66051998Y-52595634D02*
X65766284Y-52595634D01*
X65766284Y-52595634D02*
X65671046Y-52548015D01*
X65671046Y-52548015D02*
X65623427Y-52500396D01*
X65623427Y-52500396D02*
X65575808Y-52405158D01*
X65575808Y-52405158D02*
X65575808Y-52214682D01*
X65575808Y-52214682D02*
X65623427Y-52119444D01*
X65242475Y-50595634D02*
X65956760Y-50595634D01*
X65956760Y-50595634D02*
X66099617Y-50643253D01*
X66099617Y-50643253D02*
X66194856Y-50738491D01*
X66194856Y-50738491D02*
X66242475Y-50881348D01*
X66242475Y-50881348D02*
X66242475Y-50976586D01*
X65575808Y-49690872D02*
X66242475Y-49690872D01*
X65575808Y-50119443D02*
X66099617Y-50119443D01*
X66099617Y-50119443D02*
X66194856Y-50071824D01*
X66194856Y-50071824D02*
X66242475Y-49976586D01*
X66242475Y-49976586D02*
X66242475Y-49833729D01*
X66242475Y-49833729D02*
X66194856Y-49738491D01*
X66194856Y-49738491D02*
X66147236Y-49690872D01*
X66242475Y-49071824D02*
X66194856Y-49167062D01*
X66194856Y-49167062D02*
X66099617Y-49214681D01*
X66099617Y-49214681D02*
X65242475Y-49214681D01*
X66242475Y-48690871D02*
X65575808Y-48690871D01*
X65242475Y-48690871D02*
X65290094Y-48738490D01*
X65290094Y-48738490D02*
X65337713Y-48690871D01*
X65337713Y-48690871D02*
X65290094Y-48643252D01*
X65290094Y-48643252D02*
X65242475Y-48690871D01*
X65242475Y-48690871D02*
X65337713Y-48690871D01*
X66242475Y-47786110D02*
X65718665Y-47786110D01*
X65718665Y-47786110D02*
X65623427Y-47833729D01*
X65623427Y-47833729D02*
X65575808Y-47928967D01*
X65575808Y-47928967D02*
X65575808Y-48119443D01*
X65575808Y-48119443D02*
X65623427Y-48214681D01*
X66194856Y-47786110D02*
X66242475Y-47881348D01*
X66242475Y-47881348D02*
X66242475Y-48119443D01*
X66242475Y-48119443D02*
X66194856Y-48214681D01*
X66194856Y-48214681D02*
X66099617Y-48262300D01*
X66099617Y-48262300D02*
X66004379Y-48262300D01*
X66004379Y-48262300D02*
X65909141Y-48214681D01*
X65909141Y-48214681D02*
X65861522Y-48119443D01*
X65861522Y-48119443D02*
X65861522Y-47881348D01*
X65861522Y-47881348D02*
X65813903Y-47786110D01*
X65575808Y-47309919D02*
X66242475Y-47309919D01*
X65671046Y-47309919D02*
X65623427Y-47262300D01*
X65623427Y-47262300D02*
X65575808Y-47167062D01*
X65575808Y-47167062D02*
X65575808Y-47024205D01*
X65575808Y-47024205D02*
X65623427Y-46928967D01*
X65623427Y-46928967D02*
X65718665Y-46881348D01*
X65718665Y-46881348D02*
X66242475Y-46881348D01*
X66242475Y-45643252D02*
X65575808Y-45643252D01*
X65671046Y-45643252D02*
X65623427Y-45595633D01*
X65623427Y-45595633D02*
X65575808Y-45500395D01*
X65575808Y-45500395D02*
X65575808Y-45357538D01*
X65575808Y-45357538D02*
X65623427Y-45262300D01*
X65623427Y-45262300D02*
X65718665Y-45214681D01*
X65718665Y-45214681D02*
X66242475Y-45214681D01*
X65718665Y-45214681D02*
X65623427Y-45167062D01*
X65623427Y-45167062D02*
X65575808Y-45071824D01*
X65575808Y-45071824D02*
X65575808Y-44928967D01*
X65575808Y-44928967D02*
X65623427Y-44833728D01*
X65623427Y-44833728D02*
X65718665Y-44786109D01*
X65718665Y-44786109D02*
X66242475Y-44786109D01*
X65242475Y-43833729D02*
X65242475Y-44309919D01*
X65242475Y-44309919D02*
X65718665Y-44357538D01*
X65718665Y-44357538D02*
X65671046Y-44309919D01*
X65671046Y-44309919D02*
X65623427Y-44214681D01*
X65623427Y-44214681D02*
X65623427Y-43976586D01*
X65623427Y-43976586D02*
X65671046Y-43881348D01*
X65671046Y-43881348D02*
X65718665Y-43833729D01*
X65718665Y-43833729D02*
X65813903Y-43786110D01*
X65813903Y-43786110D02*
X66051998Y-43786110D01*
X66051998Y-43786110D02*
X66147236Y-43833729D01*
X66147236Y-43833729D02*
X66194856Y-43881348D01*
X66194856Y-43881348D02*
X66242475Y-43976586D01*
X66242475Y-43976586D02*
X66242475Y-44214681D01*
X66242475Y-44214681D02*
X66194856Y-44309919D01*
X66194856Y-44309919D02*
X66147236Y-44357538D01*
X65242475Y-42928967D02*
X65242475Y-43119443D01*
X65242475Y-43119443D02*
X65290094Y-43214681D01*
X65290094Y-43214681D02*
X65337713Y-43262300D01*
X65337713Y-43262300D02*
X65480570Y-43357538D01*
X65480570Y-43357538D02*
X65671046Y-43405157D01*
X65671046Y-43405157D02*
X66051998Y-43405157D01*
X66051998Y-43405157D02*
X66147236Y-43357538D01*
X66147236Y-43357538D02*
X66194856Y-43309919D01*
X66194856Y-43309919D02*
X66242475Y-43214681D01*
X66242475Y-43214681D02*
X66242475Y-43024205D01*
X66242475Y-43024205D02*
X66194856Y-42928967D01*
X66194856Y-42928967D02*
X66147236Y-42881348D01*
X66147236Y-42881348D02*
X66051998Y-42833729D01*
X66051998Y-42833729D02*
X65813903Y-42833729D01*
X65813903Y-42833729D02*
X65718665Y-42881348D01*
X65718665Y-42881348D02*
X65671046Y-42928967D01*
X65671046Y-42928967D02*
X65623427Y-43024205D01*
X65623427Y-43024205D02*
X65623427Y-43214681D01*
X65623427Y-43214681D02*
X65671046Y-43309919D01*
X65671046Y-43309919D02*
X65718665Y-43357538D01*
X65718665Y-43357538D02*
X65813903Y-43405157D01*
X67852419Y-86786115D02*
X66852419Y-86786115D01*
X67185752Y-86309925D02*
X67852419Y-86309925D01*
X67280990Y-86309925D02*
X67233371Y-86262306D01*
X67233371Y-86262306D02*
X67185752Y-86167068D01*
X67185752Y-86167068D02*
X67185752Y-86024211D01*
X67185752Y-86024211D02*
X67233371Y-85928973D01*
X67233371Y-85928973D02*
X67328609Y-85881354D01*
X67328609Y-85881354D02*
X67852419Y-85881354D01*
X66852419Y-84786115D02*
X66852419Y-84214687D01*
X67852419Y-84500401D02*
X66852419Y-84500401D01*
X67185752Y-83452782D02*
X67852419Y-83452782D01*
X67185752Y-83881353D02*
X67709561Y-83881353D01*
X67709561Y-83881353D02*
X67804800Y-83833734D01*
X67804800Y-83833734D02*
X67852419Y-83738496D01*
X67852419Y-83738496D02*
X67852419Y-83595639D01*
X67852419Y-83595639D02*
X67804800Y-83500401D01*
X67804800Y-83500401D02*
X67757180Y-83452782D01*
X67804800Y-82548020D02*
X67852419Y-82643258D01*
X67852419Y-82643258D02*
X67852419Y-82833734D01*
X67852419Y-82833734D02*
X67804800Y-82928972D01*
X67804800Y-82928972D02*
X67757180Y-82976591D01*
X67757180Y-82976591D02*
X67661942Y-83024210D01*
X67661942Y-83024210D02*
X67376228Y-83024210D01*
X67376228Y-83024210D02*
X67280990Y-82976591D01*
X67280990Y-82976591D02*
X67233371Y-82928972D01*
X67233371Y-82928972D02*
X67185752Y-82833734D01*
X67185752Y-82833734D02*
X67185752Y-82643258D01*
X67185752Y-82643258D02*
X67233371Y-82548020D01*
X67804800Y-82167067D02*
X67852419Y-82071829D01*
X67852419Y-82071829D02*
X67852419Y-81881353D01*
X67852419Y-81881353D02*
X67804800Y-81786115D01*
X67804800Y-81786115D02*
X67709561Y-81738496D01*
X67709561Y-81738496D02*
X67661942Y-81738496D01*
X67661942Y-81738496D02*
X67566704Y-81786115D01*
X67566704Y-81786115D02*
X67519085Y-81881353D01*
X67519085Y-81881353D02*
X67519085Y-82024210D01*
X67519085Y-82024210D02*
X67471466Y-82119448D01*
X67471466Y-82119448D02*
X67376228Y-82167067D01*
X67376228Y-82167067D02*
X67328609Y-82167067D01*
X67328609Y-82167067D02*
X67233371Y-82119448D01*
X67233371Y-82119448D02*
X67185752Y-82024210D01*
X67185752Y-82024210D02*
X67185752Y-81881353D01*
X67185752Y-81881353D02*
X67233371Y-81786115D01*
X67852419Y-81167067D02*
X67804800Y-81262305D01*
X67804800Y-81262305D02*
X67757180Y-81309924D01*
X67757180Y-81309924D02*
X67661942Y-81357543D01*
X67661942Y-81357543D02*
X67376228Y-81357543D01*
X67376228Y-81357543D02*
X67280990Y-81309924D01*
X67280990Y-81309924D02*
X67233371Y-81262305D01*
X67233371Y-81262305D02*
X67185752Y-81167067D01*
X67185752Y-81167067D02*
X67185752Y-81024210D01*
X67185752Y-81024210D02*
X67233371Y-80928972D01*
X67233371Y-80928972D02*
X67280990Y-80881353D01*
X67280990Y-80881353D02*
X67376228Y-80833734D01*
X67376228Y-80833734D02*
X67661942Y-80833734D01*
X67661942Y-80833734D02*
X67757180Y-80881353D01*
X67757180Y-80881353D02*
X67804800Y-80928972D01*
X67804800Y-80928972D02*
X67852419Y-81024210D01*
X67852419Y-81024210D02*
X67852419Y-81167067D01*
X67185752Y-80405162D02*
X67852419Y-80405162D01*
X67280990Y-80405162D02*
X67233371Y-80357543D01*
X67233371Y-80357543D02*
X67185752Y-80262305D01*
X67185752Y-80262305D02*
X67185752Y-80119448D01*
X67185752Y-80119448D02*
X67233371Y-80024210D01*
X67233371Y-80024210D02*
X67328609Y-79976591D01*
X67328609Y-79976591D02*
X67852419Y-79976591D01*
X67804800Y-79452781D02*
X67852419Y-79452781D01*
X67852419Y-79452781D02*
X67947657Y-79500400D01*
X67947657Y-79500400D02*
X67995276Y-79548019D01*
X67566704Y-78309924D02*
X67566704Y-77833734D01*
X67852419Y-78405162D02*
X66852419Y-78071829D01*
X66852419Y-78071829D02*
X67852419Y-77738496D01*
X67852419Y-77405162D02*
X67185752Y-77405162D01*
X67376228Y-77405162D02*
X67280990Y-77357543D01*
X67280990Y-77357543D02*
X67233371Y-77309924D01*
X67233371Y-77309924D02*
X67185752Y-77214686D01*
X67185752Y-77214686D02*
X67185752Y-77119448D01*
X67852419Y-76786114D02*
X67185752Y-76786114D01*
X66852419Y-76786114D02*
X66900038Y-76833733D01*
X66900038Y-76833733D02*
X66947657Y-76786114D01*
X66947657Y-76786114D02*
X66900038Y-76738495D01*
X66900038Y-76738495D02*
X66852419Y-76786114D01*
X66852419Y-76786114D02*
X66947657Y-76786114D01*
X67185752Y-76405162D02*
X67185752Y-75881353D01*
X67185752Y-75881353D02*
X67852419Y-76405162D01*
X67852419Y-76405162D02*
X67852419Y-75881353D01*
X67852419Y-75357543D02*
X67804800Y-75452781D01*
X67804800Y-75452781D02*
X67757180Y-75500400D01*
X67757180Y-75500400D02*
X67661942Y-75548019D01*
X67661942Y-75548019D02*
X67376228Y-75548019D01*
X67376228Y-75548019D02*
X67280990Y-75500400D01*
X67280990Y-75500400D02*
X67233371Y-75452781D01*
X67233371Y-75452781D02*
X67185752Y-75357543D01*
X67185752Y-75357543D02*
X67185752Y-75214686D01*
X67185752Y-75214686D02*
X67233371Y-75119448D01*
X67233371Y-75119448D02*
X67280990Y-75071829D01*
X67280990Y-75071829D02*
X67376228Y-75024210D01*
X67376228Y-75024210D02*
X67661942Y-75024210D01*
X67661942Y-75024210D02*
X67757180Y-75071829D01*
X67757180Y-75071829D02*
X67804800Y-75119448D01*
X67804800Y-75119448D02*
X67852419Y-75214686D01*
X67852419Y-75214686D02*
X67852419Y-75357543D01*
X67185752Y-74595638D02*
X67852419Y-74595638D01*
X67280990Y-74595638D02*
X67233371Y-74548019D01*
X67233371Y-74548019D02*
X67185752Y-74452781D01*
X67185752Y-74452781D02*
X67185752Y-74309924D01*
X67185752Y-74309924D02*
X67233371Y-74214686D01*
X67233371Y-74214686D02*
X67328609Y-74167067D01*
X67328609Y-74167067D02*
X67852419Y-74167067D01*
X67852419Y-73262305D02*
X67328609Y-73262305D01*
X67328609Y-73262305D02*
X67233371Y-73309924D01*
X67233371Y-73309924D02*
X67185752Y-73405162D01*
X67185752Y-73405162D02*
X67185752Y-73595638D01*
X67185752Y-73595638D02*
X67233371Y-73690876D01*
X67804800Y-73262305D02*
X67852419Y-73357543D01*
X67852419Y-73357543D02*
X67852419Y-73595638D01*
X67852419Y-73595638D02*
X67804800Y-73690876D01*
X67804800Y-73690876D02*
X67709561Y-73738495D01*
X67709561Y-73738495D02*
X67614323Y-73738495D01*
X67614323Y-73738495D02*
X67519085Y-73690876D01*
X67519085Y-73690876D02*
X67471466Y-73595638D01*
X67471466Y-73595638D02*
X67471466Y-73357543D01*
X67471466Y-73357543D02*
X67423847Y-73262305D01*
X67804800Y-72738495D02*
X67852419Y-72738495D01*
X67852419Y-72738495D02*
X67947657Y-72786114D01*
X67947657Y-72786114D02*
X67995276Y-72833733D01*
X67852419Y-71405162D02*
X67804800Y-71500400D01*
X67804800Y-71500400D02*
X67757180Y-71548019D01*
X67757180Y-71548019D02*
X67661942Y-71595638D01*
X67661942Y-71595638D02*
X67376228Y-71595638D01*
X67376228Y-71595638D02*
X67280990Y-71548019D01*
X67280990Y-71548019D02*
X67233371Y-71500400D01*
X67233371Y-71500400D02*
X67185752Y-71405162D01*
X67185752Y-71405162D02*
X67185752Y-71262305D01*
X67185752Y-71262305D02*
X67233371Y-71167067D01*
X67233371Y-71167067D02*
X67280990Y-71119448D01*
X67280990Y-71119448D02*
X67376228Y-71071829D01*
X67376228Y-71071829D02*
X67661942Y-71071829D01*
X67661942Y-71071829D02*
X67757180Y-71119448D01*
X67757180Y-71119448D02*
X67804800Y-71167067D01*
X67804800Y-71167067D02*
X67852419Y-71262305D01*
X67852419Y-71262305D02*
X67852419Y-71405162D01*
X67185752Y-70643257D02*
X67852419Y-70643257D01*
X67280990Y-70643257D02*
X67233371Y-70595638D01*
X67233371Y-70595638D02*
X67185752Y-70500400D01*
X67185752Y-70500400D02*
X67185752Y-70357543D01*
X67185752Y-70357543D02*
X67233371Y-70262305D01*
X67233371Y-70262305D02*
X67328609Y-70214686D01*
X67328609Y-70214686D02*
X67852419Y-70214686D01*
X67328609Y-68643257D02*
X67328609Y-68976590D01*
X67852419Y-68976590D02*
X66852419Y-68976590D01*
X66852419Y-68976590D02*
X66852419Y-68500400D01*
X67804800Y-67738495D02*
X67852419Y-67833733D01*
X67852419Y-67833733D02*
X67852419Y-68024209D01*
X67852419Y-68024209D02*
X67804800Y-68119447D01*
X67804800Y-68119447D02*
X67709561Y-68167066D01*
X67709561Y-68167066D02*
X67328609Y-68167066D01*
X67328609Y-68167066D02*
X67233371Y-68119447D01*
X67233371Y-68119447D02*
X67185752Y-68024209D01*
X67185752Y-68024209D02*
X67185752Y-67833733D01*
X67185752Y-67833733D02*
X67233371Y-67738495D01*
X67233371Y-67738495D02*
X67328609Y-67690876D01*
X67328609Y-67690876D02*
X67423847Y-67690876D01*
X67423847Y-67690876D02*
X67519085Y-68167066D01*
X67852419Y-67262304D02*
X66852419Y-67262304D01*
X67233371Y-67262304D02*
X67185752Y-67167066D01*
X67185752Y-67167066D02*
X67185752Y-66976590D01*
X67185752Y-66976590D02*
X67233371Y-66881352D01*
X67233371Y-66881352D02*
X67280990Y-66833733D01*
X67280990Y-66833733D02*
X67376228Y-66786114D01*
X67376228Y-66786114D02*
X67661942Y-66786114D01*
X67661942Y-66786114D02*
X67757180Y-66833733D01*
X67757180Y-66833733D02*
X67804800Y-66881352D01*
X67804800Y-66881352D02*
X67852419Y-66976590D01*
X67852419Y-66976590D02*
X67852419Y-67167066D01*
X67852419Y-67167066D02*
X67804800Y-67262304D01*
X67185752Y-65928971D02*
X67852419Y-65928971D01*
X67185752Y-66357542D02*
X67709561Y-66357542D01*
X67709561Y-66357542D02*
X67804800Y-66309923D01*
X67804800Y-66309923D02*
X67852419Y-66214685D01*
X67852419Y-66214685D02*
X67852419Y-66071828D01*
X67852419Y-66071828D02*
X67804800Y-65976590D01*
X67804800Y-65976590D02*
X67757180Y-65928971D01*
X67852419Y-65024209D02*
X67328609Y-65024209D01*
X67328609Y-65024209D02*
X67233371Y-65071828D01*
X67233371Y-65071828D02*
X67185752Y-65167066D01*
X67185752Y-65167066D02*
X67185752Y-65357542D01*
X67185752Y-65357542D02*
X67233371Y-65452780D01*
X67804800Y-65024209D02*
X67852419Y-65119447D01*
X67852419Y-65119447D02*
X67852419Y-65357542D01*
X67852419Y-65357542D02*
X67804800Y-65452780D01*
X67804800Y-65452780D02*
X67709561Y-65500399D01*
X67709561Y-65500399D02*
X67614323Y-65500399D01*
X67614323Y-65500399D02*
X67519085Y-65452780D01*
X67519085Y-65452780D02*
X67471466Y-65357542D01*
X67471466Y-65357542D02*
X67471466Y-65119447D01*
X67471466Y-65119447D02*
X67423847Y-65024209D01*
X67852419Y-64548018D02*
X67185752Y-64548018D01*
X67376228Y-64548018D02*
X67280990Y-64500399D01*
X67280990Y-64500399D02*
X67233371Y-64452780D01*
X67233371Y-64452780D02*
X67185752Y-64357542D01*
X67185752Y-64357542D02*
X67185752Y-64262304D01*
X67185752Y-64024208D02*
X67852419Y-63786113D01*
X67185752Y-63548018D02*
X67852419Y-63786113D01*
X67852419Y-63786113D02*
X68090514Y-63881351D01*
X68090514Y-63881351D02*
X68138133Y-63928970D01*
X68138133Y-63928970D02*
X68185752Y-64024208D01*
X66947657Y-62452779D02*
X66900038Y-62405160D01*
X66900038Y-62405160D02*
X66852419Y-62309922D01*
X66852419Y-62309922D02*
X66852419Y-62071827D01*
X66852419Y-62071827D02*
X66900038Y-61976589D01*
X66900038Y-61976589D02*
X66947657Y-61928970D01*
X66947657Y-61928970D02*
X67042895Y-61881351D01*
X67042895Y-61881351D02*
X67138133Y-61881351D01*
X67138133Y-61881351D02*
X67280990Y-61928970D01*
X67280990Y-61928970D02*
X67852419Y-62500398D01*
X67852419Y-62500398D02*
X67852419Y-61881351D01*
X66852419Y-61548017D02*
X66852419Y-60928970D01*
X66852419Y-60928970D02*
X67233371Y-61262303D01*
X67233371Y-61262303D02*
X67233371Y-61119446D01*
X67233371Y-61119446D02*
X67280990Y-61024208D01*
X67280990Y-61024208D02*
X67328609Y-60976589D01*
X67328609Y-60976589D02*
X67423847Y-60928970D01*
X67423847Y-60928970D02*
X67661942Y-60928970D01*
X67661942Y-60928970D02*
X67757180Y-60976589D01*
X67757180Y-60976589D02*
X67804800Y-61024208D01*
X67804800Y-61024208D02*
X67852419Y-61119446D01*
X67852419Y-61119446D02*
X67852419Y-61405160D01*
X67852419Y-61405160D02*
X67804800Y-61500398D01*
X67804800Y-61500398D02*
X67757180Y-61548017D01*
X67852419Y-60500398D02*
X67185752Y-60500398D01*
X67376228Y-60500398D02*
X67280990Y-60452779D01*
X67280990Y-60452779D02*
X67233371Y-60405160D01*
X67233371Y-60405160D02*
X67185752Y-60309922D01*
X67185752Y-60309922D02*
X67185752Y-60214684D01*
X67852419Y-59452779D02*
X66852419Y-59452779D01*
X67804800Y-59452779D02*
X67852419Y-59548017D01*
X67852419Y-59548017D02*
X67852419Y-59738493D01*
X67852419Y-59738493D02*
X67804800Y-59833731D01*
X67804800Y-59833731D02*
X67757180Y-59881350D01*
X67757180Y-59881350D02*
X67661942Y-59928969D01*
X67661942Y-59928969D02*
X67376228Y-59928969D01*
X67376228Y-59928969D02*
X67280990Y-59881350D01*
X67280990Y-59881350D02*
X67233371Y-59833731D01*
X67233371Y-59833731D02*
X67185752Y-59738493D01*
X67185752Y-59738493D02*
X67185752Y-59548017D01*
X67185752Y-59548017D02*
X67233371Y-59452779D01*
X67804800Y-58928969D02*
X67852419Y-58928969D01*
X67852419Y-58928969D02*
X67947657Y-58976588D01*
X67947657Y-58976588D02*
X67995276Y-59024207D01*
X66947657Y-57786112D02*
X66900038Y-57738493D01*
X66900038Y-57738493D02*
X66852419Y-57643255D01*
X66852419Y-57643255D02*
X66852419Y-57405160D01*
X66852419Y-57405160D02*
X66900038Y-57309922D01*
X66900038Y-57309922D02*
X66947657Y-57262303D01*
X66947657Y-57262303D02*
X67042895Y-57214684D01*
X67042895Y-57214684D02*
X67138133Y-57214684D01*
X67138133Y-57214684D02*
X67280990Y-57262303D01*
X67280990Y-57262303D02*
X67852419Y-57833731D01*
X67852419Y-57833731D02*
X67852419Y-57214684D01*
X66852419Y-56595636D02*
X66852419Y-56500398D01*
X66852419Y-56500398D02*
X66900038Y-56405160D01*
X66900038Y-56405160D02*
X66947657Y-56357541D01*
X66947657Y-56357541D02*
X67042895Y-56309922D01*
X67042895Y-56309922D02*
X67233371Y-56262303D01*
X67233371Y-56262303D02*
X67471466Y-56262303D01*
X67471466Y-56262303D02*
X67661942Y-56309922D01*
X67661942Y-56309922D02*
X67757180Y-56357541D01*
X67757180Y-56357541D02*
X67804800Y-56405160D01*
X67804800Y-56405160D02*
X67852419Y-56500398D01*
X67852419Y-56500398D02*
X67852419Y-56595636D01*
X67852419Y-56595636D02*
X67804800Y-56690874D01*
X67804800Y-56690874D02*
X67757180Y-56738493D01*
X67757180Y-56738493D02*
X67661942Y-56786112D01*
X67661942Y-56786112D02*
X67471466Y-56833731D01*
X67471466Y-56833731D02*
X67233371Y-56833731D01*
X67233371Y-56833731D02*
X67042895Y-56786112D01*
X67042895Y-56786112D02*
X66947657Y-56738493D01*
X66947657Y-56738493D02*
X66900038Y-56690874D01*
X66900038Y-56690874D02*
X66852419Y-56595636D01*
X66947657Y-55881350D02*
X66900038Y-55833731D01*
X66900038Y-55833731D02*
X66852419Y-55738493D01*
X66852419Y-55738493D02*
X66852419Y-55500398D01*
X66852419Y-55500398D02*
X66900038Y-55405160D01*
X66900038Y-55405160D02*
X66947657Y-55357541D01*
X66947657Y-55357541D02*
X67042895Y-55309922D01*
X67042895Y-55309922D02*
X67138133Y-55309922D01*
X67138133Y-55309922D02*
X67280990Y-55357541D01*
X67280990Y-55357541D02*
X67852419Y-55928969D01*
X67852419Y-55928969D02*
X67852419Y-55309922D01*
X66852419Y-54405160D02*
X66852419Y-54881350D01*
X66852419Y-54881350D02*
X67328609Y-54928969D01*
X67328609Y-54928969D02*
X67280990Y-54881350D01*
X67280990Y-54881350D02*
X67233371Y-54786112D01*
X67233371Y-54786112D02*
X67233371Y-54548017D01*
X67233371Y-54548017D02*
X67280990Y-54452779D01*
X67280990Y-54452779D02*
X67328609Y-54405160D01*
X67328609Y-54405160D02*
X67423847Y-54357541D01*
X67423847Y-54357541D02*
X67661942Y-54357541D01*
X67661942Y-54357541D02*
X67757180Y-54405160D01*
X67757180Y-54405160D02*
X67804800Y-54452779D01*
X67804800Y-54452779D02*
X67852419Y-54548017D01*
X67852419Y-54548017D02*
X67852419Y-54786112D01*
X67852419Y-54786112D02*
X67804800Y-54881350D01*
X67804800Y-54881350D02*
X67757180Y-54928969D01*
X67757180Y-53928969D02*
X67804800Y-53881350D01*
X67804800Y-53881350D02*
X67852419Y-53928969D01*
X67852419Y-53928969D02*
X67804800Y-53976588D01*
X67804800Y-53976588D02*
X67757180Y-53928969D01*
X67757180Y-53928969D02*
X67852419Y-53928969D01*
X66142419Y-39804687D02*
X65666228Y-40138020D01*
X66142419Y-40376115D02*
X65142419Y-40376115D01*
X65142419Y-40376115D02*
X65142419Y-39995163D01*
X65142419Y-39995163D02*
X65190038Y-39899925D01*
X65190038Y-39899925D02*
X65237657Y-39852306D01*
X65237657Y-39852306D02*
X65332895Y-39804687D01*
X65332895Y-39804687D02*
X65475752Y-39804687D01*
X65475752Y-39804687D02*
X65570990Y-39852306D01*
X65570990Y-39852306D02*
X65618609Y-39899925D01*
X65618609Y-39899925D02*
X65666228Y-39995163D01*
X65666228Y-39995163D02*
X65666228Y-40376115D01*
X65618609Y-39376115D02*
X65618609Y-39042782D01*
X66142419Y-38899925D02*
X66142419Y-39376115D01*
X66142419Y-39376115D02*
X65142419Y-39376115D01*
X65142419Y-39376115D02*
X65142419Y-38899925D01*
X65142419Y-38614210D02*
X66142419Y-38280877D01*
X66142419Y-38280877D02*
X65142419Y-37947544D01*
X66047180Y-37614210D02*
X66094800Y-37566591D01*
X66094800Y-37566591D02*
X66142419Y-37614210D01*
X66142419Y-37614210D02*
X66094800Y-37661829D01*
X66094800Y-37661829D02*
X66047180Y-37614210D01*
X66047180Y-37614210D02*
X66142419Y-37614210D01*
X65237657Y-36423734D02*
X65190038Y-36376115D01*
X65190038Y-36376115D02*
X65142419Y-36280877D01*
X65142419Y-36280877D02*
X65142419Y-36042782D01*
X65142419Y-36042782D02*
X65190038Y-35947544D01*
X65190038Y-35947544D02*
X65237657Y-35899925D01*
X65237657Y-35899925D02*
X65332895Y-35852306D01*
X65332895Y-35852306D02*
X65428133Y-35852306D01*
X65428133Y-35852306D02*
X65570990Y-35899925D01*
X65570990Y-35899925D02*
X66142419Y-36471353D01*
X66142419Y-36471353D02*
X66142419Y-35852306D01*
X70703884Y-59391466D02*
X71465789Y-59391466D01*
X110003884Y-97472419D02*
X110003884Y-96472419D01*
X110003884Y-96948609D02*
X110575312Y-96948609D01*
X110575312Y-97472419D02*
X110575312Y-96472419D01*
D13*
X141847725Y-82622929D02*
X141891268Y-82666472D01*
X141891268Y-82666472D02*
X141934810Y-82797100D01*
X141934810Y-82797100D02*
X141934810Y-82884186D01*
X141934810Y-82884186D02*
X141891268Y-83014815D01*
X141891268Y-83014815D02*
X141804182Y-83101900D01*
X141804182Y-83101900D02*
X141717096Y-83145443D01*
X141717096Y-83145443D02*
X141542925Y-83188986D01*
X141542925Y-83188986D02*
X141412296Y-83188986D01*
X141412296Y-83188986D02*
X141238125Y-83145443D01*
X141238125Y-83145443D02*
X141151039Y-83101900D01*
X141151039Y-83101900D02*
X141063953Y-83014815D01*
X141063953Y-83014815D02*
X141020410Y-82884186D01*
X141020410Y-82884186D02*
X141020410Y-82797100D01*
X141020410Y-82797100D02*
X141063953Y-82666472D01*
X141063953Y-82666472D02*
X141107496Y-82622929D01*
X141020410Y-81839158D02*
X141020410Y-82013329D01*
X141020410Y-82013329D02*
X141063953Y-82100415D01*
X141063953Y-82100415D02*
X141107496Y-82143958D01*
X141107496Y-82143958D02*
X141238125Y-82231043D01*
X141238125Y-82231043D02*
X141412296Y-82274586D01*
X141412296Y-82274586D02*
X141760639Y-82274586D01*
X141760639Y-82274586D02*
X141847725Y-82231043D01*
X141847725Y-82231043D02*
X141891268Y-82187500D01*
X141891268Y-82187500D02*
X141934810Y-82100415D01*
X141934810Y-82100415D02*
X141934810Y-81926243D01*
X141934810Y-81926243D02*
X141891268Y-81839158D01*
X141891268Y-81839158D02*
X141847725Y-81795615D01*
X141847725Y-81795615D02*
X141760639Y-81752072D01*
X141760639Y-81752072D02*
X141542925Y-81752072D01*
X141542925Y-81752072D02*
X141455839Y-81795615D01*
X141455839Y-81795615D02*
X141412296Y-81839158D01*
X141412296Y-81839158D02*
X141368753Y-81926243D01*
X141368753Y-81926243D02*
X141368753Y-82100415D01*
X141368753Y-82100415D02*
X141412296Y-82187500D01*
X141412296Y-82187500D02*
X141455839Y-82231043D01*
X141455839Y-82231043D02*
X141542925Y-82274586D01*
X155248465Y-93241017D02*
X155683894Y-93241017D01*
X155161379Y-93502274D02*
X155466179Y-92587874D01*
X155466179Y-92587874D02*
X155770979Y-93502274D01*
X156206407Y-92979760D02*
X156119322Y-92936217D01*
X156119322Y-92936217D02*
X156075779Y-92892674D01*
X156075779Y-92892674D02*
X156032236Y-92805589D01*
X156032236Y-92805589D02*
X156032236Y-92762046D01*
X156032236Y-92762046D02*
X156075779Y-92674960D01*
X156075779Y-92674960D02*
X156119322Y-92631417D01*
X156119322Y-92631417D02*
X156206407Y-92587874D01*
X156206407Y-92587874D02*
X156380579Y-92587874D01*
X156380579Y-92587874D02*
X156467665Y-92631417D01*
X156467665Y-92631417D02*
X156511207Y-92674960D01*
X156511207Y-92674960D02*
X156554750Y-92762046D01*
X156554750Y-92762046D02*
X156554750Y-92805589D01*
X156554750Y-92805589D02*
X156511207Y-92892674D01*
X156511207Y-92892674D02*
X156467665Y-92936217D01*
X156467665Y-92936217D02*
X156380579Y-92979760D01*
X156380579Y-92979760D02*
X156206407Y-92979760D01*
X156206407Y-92979760D02*
X156119322Y-93023303D01*
X156119322Y-93023303D02*
X156075779Y-93066846D01*
X156075779Y-93066846D02*
X156032236Y-93153932D01*
X156032236Y-93153932D02*
X156032236Y-93328103D01*
X156032236Y-93328103D02*
X156075779Y-93415189D01*
X156075779Y-93415189D02*
X156119322Y-93458732D01*
X156119322Y-93458732D02*
X156206407Y-93502274D01*
X156206407Y-93502274D02*
X156380579Y-93502274D01*
X156380579Y-93502274D02*
X156467665Y-93458732D01*
X156467665Y-93458732D02*
X156511207Y-93415189D01*
X156511207Y-93415189D02*
X156554750Y-93328103D01*
X156554750Y-93328103D02*
X156554750Y-93153932D01*
X156554750Y-93153932D02*
X156511207Y-93066846D01*
X156511207Y-93066846D02*
X156467665Y-93023303D01*
X156467665Y-93023303D02*
X156380579Y-92979760D01*
X156151553Y-80648986D02*
X156151553Y-80213558D01*
X156412810Y-80736072D02*
X155498410Y-80431272D01*
X155498410Y-80431272D02*
X156412810Y-80126472D01*
X155498410Y-79908758D02*
X155498410Y-79342701D01*
X155498410Y-79342701D02*
X155846753Y-79647501D01*
X155846753Y-79647501D02*
X155846753Y-79516872D01*
X155846753Y-79516872D02*
X155890296Y-79429787D01*
X155890296Y-79429787D02*
X155933839Y-79386244D01*
X155933839Y-79386244D02*
X156020925Y-79342701D01*
X156020925Y-79342701D02*
X156238639Y-79342701D01*
X156238639Y-79342701D02*
X156325725Y-79386244D01*
X156325725Y-79386244D02*
X156369268Y-79429787D01*
X156369268Y-79429787D02*
X156412810Y-79516872D01*
X156412810Y-79516872D02*
X156412810Y-79778129D01*
X156412810Y-79778129D02*
X156369268Y-79865215D01*
X156369268Y-79865215D02*
X156325725Y-79908758D01*
X155248465Y-88161017D02*
X155683894Y-88161017D01*
X155161379Y-88422274D02*
X155466179Y-87507874D01*
X155466179Y-87507874D02*
X155770979Y-88422274D01*
X156467665Y-87507874D02*
X156293493Y-87507874D01*
X156293493Y-87507874D02*
X156206407Y-87551417D01*
X156206407Y-87551417D02*
X156162865Y-87594960D01*
X156162865Y-87594960D02*
X156075779Y-87725589D01*
X156075779Y-87725589D02*
X156032236Y-87899760D01*
X156032236Y-87899760D02*
X156032236Y-88248103D01*
X156032236Y-88248103D02*
X156075779Y-88335189D01*
X156075779Y-88335189D02*
X156119322Y-88378732D01*
X156119322Y-88378732D02*
X156206407Y-88422274D01*
X156206407Y-88422274D02*
X156380579Y-88422274D01*
X156380579Y-88422274D02*
X156467665Y-88378732D01*
X156467665Y-88378732D02*
X156511207Y-88335189D01*
X156511207Y-88335189D02*
X156554750Y-88248103D01*
X156554750Y-88248103D02*
X156554750Y-88030389D01*
X156554750Y-88030389D02*
X156511207Y-87943303D01*
X156511207Y-87943303D02*
X156467665Y-87899760D01*
X156467665Y-87899760D02*
X156380579Y-87856217D01*
X156380579Y-87856217D02*
X156206407Y-87856217D01*
X156206407Y-87856217D02*
X156119322Y-87899760D01*
X156119322Y-87899760D02*
X156075779Y-87943303D01*
X156075779Y-87943303D02*
X156032236Y-88030389D01*
X141277013Y-87750553D02*
X141712442Y-87750553D01*
X141189927Y-88011810D02*
X141494727Y-87097410D01*
X141494727Y-87097410D02*
X141799527Y-88011810D01*
X142583298Y-88011810D02*
X142060784Y-88011810D01*
X142322041Y-88011810D02*
X142322041Y-87097410D01*
X142322041Y-87097410D02*
X142234955Y-87228039D01*
X142234955Y-87228039D02*
X142147870Y-87315125D01*
X142147870Y-87315125D02*
X142060784Y-87358668D01*
X143410612Y-87097410D02*
X142975184Y-87097410D01*
X142975184Y-87097410D02*
X142931641Y-87532839D01*
X142931641Y-87532839D02*
X142975184Y-87489296D01*
X142975184Y-87489296D02*
X143062270Y-87445753D01*
X143062270Y-87445753D02*
X143279984Y-87445753D01*
X143279984Y-87445753D02*
X143367070Y-87489296D01*
X143367070Y-87489296D02*
X143410612Y-87532839D01*
X143410612Y-87532839D02*
X143454155Y-87619925D01*
X143454155Y-87619925D02*
X143454155Y-87837639D01*
X143454155Y-87837639D02*
X143410612Y-87924725D01*
X143410612Y-87924725D02*
X143367070Y-87968268D01*
X143367070Y-87968268D02*
X143279984Y-88011810D01*
X143279984Y-88011810D02*
X143062270Y-88011810D01*
X143062270Y-88011810D02*
X142975184Y-87968268D01*
X142975184Y-87968268D02*
X142931641Y-87924725D01*
X141277013Y-90290553D02*
X141712442Y-90290553D01*
X141189927Y-90551810D02*
X141494727Y-89637410D01*
X141494727Y-89637410D02*
X141799527Y-90551810D01*
X142583298Y-90551810D02*
X142060784Y-90551810D01*
X142322041Y-90551810D02*
X142322041Y-89637410D01*
X142322041Y-89637410D02*
X142234955Y-89768039D01*
X142234955Y-89768039D02*
X142147870Y-89855125D01*
X142147870Y-89855125D02*
X142060784Y-89898668D01*
X143367070Y-89942210D02*
X143367070Y-90551810D01*
X143149355Y-89593868D02*
X142931641Y-90247010D01*
X142931641Y-90247010D02*
X143497698Y-90247010D01*
X141847725Y-72462929D02*
X141891268Y-72506472D01*
X141891268Y-72506472D02*
X141934810Y-72637100D01*
X141934810Y-72637100D02*
X141934810Y-72724186D01*
X141934810Y-72724186D02*
X141891268Y-72854815D01*
X141891268Y-72854815D02*
X141804182Y-72941900D01*
X141804182Y-72941900D02*
X141717096Y-72985443D01*
X141717096Y-72985443D02*
X141542925Y-73028986D01*
X141542925Y-73028986D02*
X141412296Y-73028986D01*
X141412296Y-73028986D02*
X141238125Y-72985443D01*
X141238125Y-72985443D02*
X141151039Y-72941900D01*
X141151039Y-72941900D02*
X141063953Y-72854815D01*
X141063953Y-72854815D02*
X141020410Y-72724186D01*
X141020410Y-72724186D02*
X141020410Y-72637100D01*
X141020410Y-72637100D02*
X141063953Y-72506472D01*
X141063953Y-72506472D02*
X141107496Y-72462929D01*
X141107496Y-72114586D02*
X141063953Y-72071043D01*
X141063953Y-72071043D02*
X141020410Y-71983958D01*
X141020410Y-71983958D02*
X141020410Y-71766243D01*
X141020410Y-71766243D02*
X141063953Y-71679158D01*
X141063953Y-71679158D02*
X141107496Y-71635615D01*
X141107496Y-71635615D02*
X141194582Y-71592072D01*
X141194582Y-71592072D02*
X141281668Y-71592072D01*
X141281668Y-71592072D02*
X141412296Y-71635615D01*
X141412296Y-71635615D02*
X141934810Y-72158129D01*
X141934810Y-72158129D02*
X141934810Y-71592072D01*
X141799527Y-64026953D02*
X141712442Y-63983410D01*
X141712442Y-63983410D02*
X141581813Y-63983410D01*
X141581813Y-63983410D02*
X141451184Y-64026953D01*
X141451184Y-64026953D02*
X141364099Y-64114039D01*
X141364099Y-64114039D02*
X141320556Y-64201125D01*
X141320556Y-64201125D02*
X141277013Y-64375296D01*
X141277013Y-64375296D02*
X141277013Y-64505925D01*
X141277013Y-64505925D02*
X141320556Y-64680096D01*
X141320556Y-64680096D02*
X141364099Y-64767182D01*
X141364099Y-64767182D02*
X141451184Y-64854268D01*
X141451184Y-64854268D02*
X141581813Y-64897810D01*
X141581813Y-64897810D02*
X141668899Y-64897810D01*
X141668899Y-64897810D02*
X141799527Y-64854268D01*
X141799527Y-64854268D02*
X141843070Y-64810725D01*
X141843070Y-64810725D02*
X141843070Y-64505925D01*
X141843070Y-64505925D02*
X141668899Y-64505925D01*
X142234956Y-64897810D02*
X142234956Y-63983410D01*
X142234956Y-63983410D02*
X142757470Y-64897810D01*
X142757470Y-64897810D02*
X142757470Y-63983410D01*
X143192899Y-64897810D02*
X143192899Y-63983410D01*
X143192899Y-63983410D02*
X143410613Y-63983410D01*
X143410613Y-63983410D02*
X143541242Y-64026953D01*
X143541242Y-64026953D02*
X143628327Y-64114039D01*
X143628327Y-64114039D02*
X143671870Y-64201125D01*
X143671870Y-64201125D02*
X143715413Y-64375296D01*
X143715413Y-64375296D02*
X143715413Y-64505925D01*
X143715413Y-64505925D02*
X143671870Y-64680096D01*
X143671870Y-64680096D02*
X143628327Y-64767182D01*
X143628327Y-64767182D02*
X143541242Y-64854268D01*
X143541242Y-64854268D02*
X143410613Y-64897810D01*
X143410613Y-64897810D02*
X143192899Y-64897810D01*
X156369268Y-70742986D02*
X156412810Y-70612358D01*
X156412810Y-70612358D02*
X156412810Y-70394643D01*
X156412810Y-70394643D02*
X156369268Y-70307558D01*
X156369268Y-70307558D02*
X156325725Y-70264015D01*
X156325725Y-70264015D02*
X156238639Y-70220472D01*
X156238639Y-70220472D02*
X156151553Y-70220472D01*
X156151553Y-70220472D02*
X156064468Y-70264015D01*
X156064468Y-70264015D02*
X156020925Y-70307558D01*
X156020925Y-70307558D02*
X155977382Y-70394643D01*
X155977382Y-70394643D02*
X155933839Y-70568815D01*
X155933839Y-70568815D02*
X155890296Y-70655900D01*
X155890296Y-70655900D02*
X155846753Y-70699443D01*
X155846753Y-70699443D02*
X155759668Y-70742986D01*
X155759668Y-70742986D02*
X155672582Y-70742986D01*
X155672582Y-70742986D02*
X155585496Y-70699443D01*
X155585496Y-70699443D02*
X155541953Y-70655900D01*
X155541953Y-70655900D02*
X155498410Y-70568815D01*
X155498410Y-70568815D02*
X155498410Y-70351100D01*
X155498410Y-70351100D02*
X155541953Y-70220472D01*
X156325725Y-69306072D02*
X156369268Y-69349615D01*
X156369268Y-69349615D02*
X156412810Y-69480243D01*
X156412810Y-69480243D02*
X156412810Y-69567329D01*
X156412810Y-69567329D02*
X156369268Y-69697958D01*
X156369268Y-69697958D02*
X156282182Y-69785043D01*
X156282182Y-69785043D02*
X156195096Y-69828586D01*
X156195096Y-69828586D02*
X156020925Y-69872129D01*
X156020925Y-69872129D02*
X155890296Y-69872129D01*
X155890296Y-69872129D02*
X155716125Y-69828586D01*
X155716125Y-69828586D02*
X155629039Y-69785043D01*
X155629039Y-69785043D02*
X155541953Y-69697958D01*
X155541953Y-69697958D02*
X155498410Y-69567329D01*
X155498410Y-69567329D02*
X155498410Y-69480243D01*
X155498410Y-69480243D02*
X155541953Y-69349615D01*
X155541953Y-69349615D02*
X155585496Y-69306072D01*
X156412810Y-68478758D02*
X156412810Y-68914186D01*
X156412810Y-68914186D02*
X155498410Y-68914186D01*
X141847725Y-69922929D02*
X141891268Y-69966472D01*
X141891268Y-69966472D02*
X141934810Y-70097100D01*
X141934810Y-70097100D02*
X141934810Y-70184186D01*
X141934810Y-70184186D02*
X141891268Y-70314815D01*
X141891268Y-70314815D02*
X141804182Y-70401900D01*
X141804182Y-70401900D02*
X141717096Y-70445443D01*
X141717096Y-70445443D02*
X141542925Y-70488986D01*
X141542925Y-70488986D02*
X141412296Y-70488986D01*
X141412296Y-70488986D02*
X141238125Y-70445443D01*
X141238125Y-70445443D02*
X141151039Y-70401900D01*
X141151039Y-70401900D02*
X141063953Y-70314815D01*
X141063953Y-70314815D02*
X141020410Y-70184186D01*
X141020410Y-70184186D02*
X141020410Y-70097100D01*
X141020410Y-70097100D02*
X141063953Y-69966472D01*
X141063953Y-69966472D02*
X141107496Y-69922929D01*
X141934810Y-69052072D02*
X141934810Y-69574586D01*
X141934810Y-69313329D02*
X141020410Y-69313329D01*
X141020410Y-69313329D02*
X141151039Y-69400415D01*
X141151039Y-69400415D02*
X141238125Y-69487500D01*
X141238125Y-69487500D02*
X141281668Y-69574586D01*
X141847725Y-85162929D02*
X141891268Y-85206472D01*
X141891268Y-85206472D02*
X141934810Y-85337100D01*
X141934810Y-85337100D02*
X141934810Y-85424186D01*
X141934810Y-85424186D02*
X141891268Y-85554815D01*
X141891268Y-85554815D02*
X141804182Y-85641900D01*
X141804182Y-85641900D02*
X141717096Y-85685443D01*
X141717096Y-85685443D02*
X141542925Y-85728986D01*
X141542925Y-85728986D02*
X141412296Y-85728986D01*
X141412296Y-85728986D02*
X141238125Y-85685443D01*
X141238125Y-85685443D02*
X141151039Y-85641900D01*
X141151039Y-85641900D02*
X141063953Y-85554815D01*
X141063953Y-85554815D02*
X141020410Y-85424186D01*
X141020410Y-85424186D02*
X141020410Y-85337100D01*
X141020410Y-85337100D02*
X141063953Y-85206472D01*
X141063953Y-85206472D02*
X141107496Y-85162929D01*
X141020410Y-84858129D02*
X141020410Y-84248529D01*
X141020410Y-84248529D02*
X141934810Y-84640415D01*
X156151553Y-85728986D02*
X156151553Y-85293558D01*
X156412810Y-85816072D02*
X155498410Y-85511272D01*
X155498410Y-85511272D02*
X156412810Y-85206472D01*
X155498410Y-84466244D02*
X155498410Y-84901672D01*
X155498410Y-84901672D02*
X155933839Y-84945215D01*
X155933839Y-84945215D02*
X155890296Y-84901672D01*
X155890296Y-84901672D02*
X155846753Y-84814587D01*
X155846753Y-84814587D02*
X155846753Y-84596872D01*
X155846753Y-84596872D02*
X155890296Y-84509787D01*
X155890296Y-84509787D02*
X155933839Y-84466244D01*
X155933839Y-84466244D02*
X156020925Y-84422701D01*
X156020925Y-84422701D02*
X156238639Y-84422701D01*
X156238639Y-84422701D02*
X156325725Y-84466244D01*
X156325725Y-84466244D02*
X156369268Y-84509787D01*
X156369268Y-84509787D02*
X156412810Y-84596872D01*
X156412810Y-84596872D02*
X156412810Y-84814587D01*
X156412810Y-84814587D02*
X156369268Y-84901672D01*
X156369268Y-84901672D02*
X156325725Y-84945215D01*
X155248465Y-95781017D02*
X155683894Y-95781017D01*
X155161379Y-96042274D02*
X155466179Y-95127874D01*
X155466179Y-95127874D02*
X155770979Y-96042274D01*
X156119322Y-96042274D02*
X156293493Y-96042274D01*
X156293493Y-96042274D02*
X156380579Y-95998732D01*
X156380579Y-95998732D02*
X156424122Y-95955189D01*
X156424122Y-95955189D02*
X156511207Y-95824560D01*
X156511207Y-95824560D02*
X156554750Y-95650389D01*
X156554750Y-95650389D02*
X156554750Y-95302046D01*
X156554750Y-95302046D02*
X156511207Y-95214960D01*
X156511207Y-95214960D02*
X156467665Y-95171417D01*
X156467665Y-95171417D02*
X156380579Y-95127874D01*
X156380579Y-95127874D02*
X156206407Y-95127874D01*
X156206407Y-95127874D02*
X156119322Y-95171417D01*
X156119322Y-95171417D02*
X156075779Y-95214960D01*
X156075779Y-95214960D02*
X156032236Y-95302046D01*
X156032236Y-95302046D02*
X156032236Y-95519760D01*
X156032236Y-95519760D02*
X156075779Y-95606846D01*
X156075779Y-95606846D02*
X156119322Y-95650389D01*
X156119322Y-95650389D02*
X156206407Y-95693932D01*
X156206407Y-95693932D02*
X156380579Y-95693932D01*
X156380579Y-95693932D02*
X156467665Y-95650389D01*
X156467665Y-95650389D02*
X156511207Y-95606846D01*
X156511207Y-95606846D02*
X156554750Y-95519760D01*
X141847725Y-67382929D02*
X141891268Y-67426472D01*
X141891268Y-67426472D02*
X141934810Y-67557100D01*
X141934810Y-67557100D02*
X141934810Y-67644186D01*
X141934810Y-67644186D02*
X141891268Y-67774815D01*
X141891268Y-67774815D02*
X141804182Y-67861900D01*
X141804182Y-67861900D02*
X141717096Y-67905443D01*
X141717096Y-67905443D02*
X141542925Y-67948986D01*
X141542925Y-67948986D02*
X141412296Y-67948986D01*
X141412296Y-67948986D02*
X141238125Y-67905443D01*
X141238125Y-67905443D02*
X141151039Y-67861900D01*
X141151039Y-67861900D02*
X141063953Y-67774815D01*
X141063953Y-67774815D02*
X141020410Y-67644186D01*
X141020410Y-67644186D02*
X141020410Y-67557100D01*
X141020410Y-67557100D02*
X141063953Y-67426472D01*
X141063953Y-67426472D02*
X141107496Y-67382929D01*
X141020410Y-66816872D02*
X141020410Y-66729786D01*
X141020410Y-66729786D02*
X141063953Y-66642700D01*
X141063953Y-66642700D02*
X141107496Y-66599158D01*
X141107496Y-66599158D02*
X141194582Y-66555615D01*
X141194582Y-66555615D02*
X141368753Y-66512072D01*
X141368753Y-66512072D02*
X141586468Y-66512072D01*
X141586468Y-66512072D02*
X141760639Y-66555615D01*
X141760639Y-66555615D02*
X141847725Y-66599158D01*
X141847725Y-66599158D02*
X141891268Y-66642700D01*
X141891268Y-66642700D02*
X141934810Y-66729786D01*
X141934810Y-66729786D02*
X141934810Y-66816872D01*
X141934810Y-66816872D02*
X141891268Y-66903958D01*
X141891268Y-66903958D02*
X141847725Y-66947500D01*
X141847725Y-66947500D02*
X141760639Y-66991043D01*
X141760639Y-66991043D02*
X141586468Y-67034586D01*
X141586468Y-67034586D02*
X141368753Y-67034586D01*
X141368753Y-67034586D02*
X141194582Y-66991043D01*
X141194582Y-66991043D02*
X141107496Y-66947500D01*
X141107496Y-66947500D02*
X141063953Y-66903958D01*
X141063953Y-66903958D02*
X141020410Y-66816872D01*
X154203436Y-64647874D02*
X154508236Y-65562274D01*
X154508236Y-65562274D02*
X154813036Y-64647874D01*
X155117836Y-65562274D02*
X155117836Y-64647874D01*
X155117836Y-64647874D02*
X155335550Y-64647874D01*
X155335550Y-64647874D02*
X155466179Y-64691417D01*
X155466179Y-64691417D02*
X155553264Y-64778503D01*
X155553264Y-64778503D02*
X155596807Y-64865589D01*
X155596807Y-64865589D02*
X155640350Y-65039760D01*
X155640350Y-65039760D02*
X155640350Y-65170389D01*
X155640350Y-65170389D02*
X155596807Y-65344560D01*
X155596807Y-65344560D02*
X155553264Y-65431646D01*
X155553264Y-65431646D02*
X155466179Y-65518732D01*
X155466179Y-65518732D02*
X155335550Y-65562274D01*
X155335550Y-65562274D02*
X155117836Y-65562274D01*
X156032236Y-65562274D02*
X156032236Y-64647874D01*
X156032236Y-64647874D02*
X156249950Y-64647874D01*
X156249950Y-64647874D02*
X156380579Y-64691417D01*
X156380579Y-64691417D02*
X156467664Y-64778503D01*
X156467664Y-64778503D02*
X156511207Y-64865589D01*
X156511207Y-64865589D02*
X156554750Y-65039760D01*
X156554750Y-65039760D02*
X156554750Y-65170389D01*
X156554750Y-65170389D02*
X156511207Y-65344560D01*
X156511207Y-65344560D02*
X156467664Y-65431646D01*
X156467664Y-65431646D02*
X156380579Y-65518732D01*
X156380579Y-65518732D02*
X156249950Y-65562274D01*
X156249950Y-65562274D02*
X156032236Y-65562274D01*
D14*
X153046940Y-89558657D02*
X153046940Y-89113552D01*
X153314003Y-89647678D02*
X152379283Y-89336104D01*
X152379283Y-89336104D02*
X153314003Y-89024531D01*
X152468304Y-88757468D02*
X152423793Y-88712957D01*
X152423793Y-88712957D02*
X152379283Y-88623936D01*
X152379283Y-88623936D02*
X152379283Y-88401384D01*
X152379283Y-88401384D02*
X152423793Y-88312363D01*
X152423793Y-88312363D02*
X152468304Y-88267852D01*
X152468304Y-88267852D02*
X152557325Y-88223342D01*
X152557325Y-88223342D02*
X152646346Y-88223342D01*
X152646346Y-88223342D02*
X152779877Y-88267852D01*
X152779877Y-88267852D02*
X153314003Y-88801978D01*
X153314003Y-88801978D02*
X153314003Y-88223342D01*
D13*
X141847725Y-80082929D02*
X141891268Y-80126472D01*
X141891268Y-80126472D02*
X141934810Y-80257100D01*
X141934810Y-80257100D02*
X141934810Y-80344186D01*
X141934810Y-80344186D02*
X141891268Y-80474815D01*
X141891268Y-80474815D02*
X141804182Y-80561900D01*
X141804182Y-80561900D02*
X141717096Y-80605443D01*
X141717096Y-80605443D02*
X141542925Y-80648986D01*
X141542925Y-80648986D02*
X141412296Y-80648986D01*
X141412296Y-80648986D02*
X141238125Y-80605443D01*
X141238125Y-80605443D02*
X141151039Y-80561900D01*
X141151039Y-80561900D02*
X141063953Y-80474815D01*
X141063953Y-80474815D02*
X141020410Y-80344186D01*
X141020410Y-80344186D02*
X141020410Y-80257100D01*
X141020410Y-80257100D02*
X141063953Y-80126472D01*
X141063953Y-80126472D02*
X141107496Y-80082929D01*
X141020410Y-79255615D02*
X141020410Y-79691043D01*
X141020410Y-79691043D02*
X141455839Y-79734586D01*
X141455839Y-79734586D02*
X141412296Y-79691043D01*
X141412296Y-79691043D02*
X141368753Y-79603958D01*
X141368753Y-79603958D02*
X141368753Y-79386243D01*
X141368753Y-79386243D02*
X141412296Y-79299158D01*
X141412296Y-79299158D02*
X141455839Y-79255615D01*
X141455839Y-79255615D02*
X141542925Y-79212072D01*
X141542925Y-79212072D02*
X141760639Y-79212072D01*
X141760639Y-79212072D02*
X141847725Y-79255615D01*
X141847725Y-79255615D02*
X141891268Y-79299158D01*
X141891268Y-79299158D02*
X141934810Y-79386243D01*
X141934810Y-79386243D02*
X141934810Y-79603958D01*
X141934810Y-79603958D02*
X141891268Y-79691043D01*
X141891268Y-79691043D02*
X141847725Y-79734586D01*
X154334065Y-67423732D02*
X154464694Y-67467274D01*
X154464694Y-67467274D02*
X154682408Y-67467274D01*
X154682408Y-67467274D02*
X154769494Y-67423732D01*
X154769494Y-67423732D02*
X154813036Y-67380189D01*
X154813036Y-67380189D02*
X154856579Y-67293103D01*
X154856579Y-67293103D02*
X154856579Y-67206017D01*
X154856579Y-67206017D02*
X154813036Y-67118932D01*
X154813036Y-67118932D02*
X154769494Y-67075389D01*
X154769494Y-67075389D02*
X154682408Y-67031846D01*
X154682408Y-67031846D02*
X154508236Y-66988303D01*
X154508236Y-66988303D02*
X154421151Y-66944760D01*
X154421151Y-66944760D02*
X154377608Y-66901217D01*
X154377608Y-66901217D02*
X154334065Y-66814132D01*
X154334065Y-66814132D02*
X154334065Y-66727046D01*
X154334065Y-66727046D02*
X154377608Y-66639960D01*
X154377608Y-66639960D02*
X154421151Y-66596417D01*
X154421151Y-66596417D02*
X154508236Y-66552874D01*
X154508236Y-66552874D02*
X154725951Y-66552874D01*
X154725951Y-66552874D02*
X154856579Y-66596417D01*
X155248465Y-67467274D02*
X155248465Y-66552874D01*
X155248465Y-66552874D02*
X155466179Y-66552874D01*
X155466179Y-66552874D02*
X155596808Y-66596417D01*
X155596808Y-66596417D02*
X155683893Y-66683503D01*
X155683893Y-66683503D02*
X155727436Y-66770589D01*
X155727436Y-66770589D02*
X155770979Y-66944760D01*
X155770979Y-66944760D02*
X155770979Y-67075389D01*
X155770979Y-67075389D02*
X155727436Y-67249560D01*
X155727436Y-67249560D02*
X155683893Y-67336646D01*
X155683893Y-67336646D02*
X155596808Y-67423732D01*
X155596808Y-67423732D02*
X155466179Y-67467274D01*
X155466179Y-67467274D02*
X155248465Y-67467274D01*
X156119322Y-67206017D02*
X156554751Y-67206017D01*
X156032236Y-67467274D02*
X156337036Y-66552874D01*
X156337036Y-66552874D02*
X156641836Y-67467274D01*
X156151553Y-83188986D02*
X156151553Y-82753558D01*
X156412810Y-83276072D02*
X155498410Y-82971272D01*
X155498410Y-82971272D02*
X156412810Y-82666472D01*
X155803210Y-81969787D02*
X156412810Y-81969787D01*
X155454868Y-82187501D02*
X156108010Y-82405215D01*
X156108010Y-82405215D02*
X156108010Y-81839158D01*
X156151553Y-75568986D02*
X156151553Y-75133558D01*
X156412810Y-75656072D02*
X155498410Y-75351272D01*
X155498410Y-75351272D02*
X156412810Y-75046472D01*
X156412810Y-74262701D02*
X156412810Y-74785215D01*
X156412810Y-74523958D02*
X155498410Y-74523958D01*
X155498410Y-74523958D02*
X155629039Y-74611044D01*
X155629039Y-74611044D02*
X155716125Y-74698129D01*
X155716125Y-74698129D02*
X155759668Y-74785215D01*
D14*
X153332233Y-93876657D02*
X153332233Y-93431552D01*
X153599296Y-93965678D02*
X152664576Y-93654104D01*
X152664576Y-93654104D02*
X153599296Y-93342531D01*
X152664576Y-92852915D02*
X152664576Y-92763894D01*
X152664576Y-92763894D02*
X152709086Y-92674873D01*
X152709086Y-92674873D02*
X152753597Y-92630363D01*
X152753597Y-92630363D02*
X152842618Y-92585852D01*
X152842618Y-92585852D02*
X153020660Y-92541342D01*
X153020660Y-92541342D02*
X153243212Y-92541342D01*
X153243212Y-92541342D02*
X153421254Y-92585852D01*
X153421254Y-92585852D02*
X153510275Y-92630363D01*
X153510275Y-92630363D02*
X153554786Y-92674873D01*
X153554786Y-92674873D02*
X153599296Y-92763894D01*
X153599296Y-92763894D02*
X153599296Y-92852915D01*
X153599296Y-92852915D02*
X153554786Y-92941936D01*
X153554786Y-92941936D02*
X153510275Y-92986447D01*
X153510275Y-92986447D02*
X153421254Y-93030957D01*
X153421254Y-93030957D02*
X153243212Y-93075468D01*
X153243212Y-93075468D02*
X153020660Y-93075468D01*
X153020660Y-93075468D02*
X152842618Y-93030957D01*
X152842618Y-93030957D02*
X152753597Y-92986447D01*
X152753597Y-92986447D02*
X152709086Y-92941936D01*
X152709086Y-92941936D02*
X152664576Y-92852915D01*
D13*
X141847725Y-77542929D02*
X141891268Y-77586472D01*
X141891268Y-77586472D02*
X141934810Y-77717100D01*
X141934810Y-77717100D02*
X141934810Y-77804186D01*
X141934810Y-77804186D02*
X141891268Y-77934815D01*
X141891268Y-77934815D02*
X141804182Y-78021900D01*
X141804182Y-78021900D02*
X141717096Y-78065443D01*
X141717096Y-78065443D02*
X141542925Y-78108986D01*
X141542925Y-78108986D02*
X141412296Y-78108986D01*
X141412296Y-78108986D02*
X141238125Y-78065443D01*
X141238125Y-78065443D02*
X141151039Y-78021900D01*
X141151039Y-78021900D02*
X141063953Y-77934815D01*
X141063953Y-77934815D02*
X141020410Y-77804186D01*
X141020410Y-77804186D02*
X141020410Y-77717100D01*
X141020410Y-77717100D02*
X141063953Y-77586472D01*
X141063953Y-77586472D02*
X141107496Y-77542929D01*
X141325210Y-76759158D02*
X141934810Y-76759158D01*
X140976868Y-76976872D02*
X141630010Y-77194586D01*
X141630010Y-77194586D02*
X141630010Y-76628529D01*
X141277013Y-95370553D02*
X141712442Y-95370553D01*
X141189927Y-95631810D02*
X141494727Y-94717410D01*
X141494727Y-94717410D02*
X141799527Y-95631810D01*
X142583298Y-95631810D02*
X142060784Y-95631810D01*
X142322041Y-95631810D02*
X142322041Y-94717410D01*
X142322041Y-94717410D02*
X142234955Y-94848039D01*
X142234955Y-94848039D02*
X142147870Y-94935125D01*
X142147870Y-94935125D02*
X142060784Y-94978668D01*
X142931641Y-94804496D02*
X142975184Y-94760953D01*
X142975184Y-94760953D02*
X143062270Y-94717410D01*
X143062270Y-94717410D02*
X143279984Y-94717410D01*
X143279984Y-94717410D02*
X143367070Y-94760953D01*
X143367070Y-94760953D02*
X143410612Y-94804496D01*
X143410612Y-94804496D02*
X143454155Y-94891582D01*
X143454155Y-94891582D02*
X143454155Y-94978668D01*
X143454155Y-94978668D02*
X143410612Y-95109296D01*
X143410612Y-95109296D02*
X142888098Y-95631810D01*
X142888098Y-95631810D02*
X143454155Y-95631810D01*
X154377608Y-98321017D02*
X154813037Y-98321017D01*
X154290522Y-98582274D02*
X154595322Y-97667874D01*
X154595322Y-97667874D02*
X154900122Y-98582274D01*
X155683893Y-98582274D02*
X155161379Y-98582274D01*
X155422636Y-98582274D02*
X155422636Y-97667874D01*
X155422636Y-97667874D02*
X155335550Y-97798503D01*
X155335550Y-97798503D02*
X155248465Y-97885589D01*
X155248465Y-97885589D02*
X155161379Y-97929132D01*
X156249950Y-97667874D02*
X156337036Y-97667874D01*
X156337036Y-97667874D02*
X156424122Y-97711417D01*
X156424122Y-97711417D02*
X156467665Y-97754960D01*
X156467665Y-97754960D02*
X156511207Y-97842046D01*
X156511207Y-97842046D02*
X156554750Y-98016217D01*
X156554750Y-98016217D02*
X156554750Y-98233932D01*
X156554750Y-98233932D02*
X156511207Y-98408103D01*
X156511207Y-98408103D02*
X156467665Y-98495189D01*
X156467665Y-98495189D02*
X156424122Y-98538732D01*
X156424122Y-98538732D02*
X156337036Y-98582274D01*
X156337036Y-98582274D02*
X156249950Y-98582274D01*
X156249950Y-98582274D02*
X156162865Y-98538732D01*
X156162865Y-98538732D02*
X156119322Y-98495189D01*
X156119322Y-98495189D02*
X156075779Y-98408103D01*
X156075779Y-98408103D02*
X156032236Y-98233932D01*
X156032236Y-98233932D02*
X156032236Y-98016217D01*
X156032236Y-98016217D02*
X156075779Y-97842046D01*
X156075779Y-97842046D02*
X156119322Y-97754960D01*
X156119322Y-97754960D02*
X156162865Y-97711417D01*
X156162865Y-97711417D02*
X156249950Y-97667874D01*
X141277013Y-92830553D02*
X141712442Y-92830553D01*
X141189927Y-93091810D02*
X141494727Y-92177410D01*
X141494727Y-92177410D02*
X141799527Y-93091810D01*
X142583298Y-93091810D02*
X142060784Y-93091810D01*
X142322041Y-93091810D02*
X142322041Y-92177410D01*
X142322041Y-92177410D02*
X142234955Y-92308039D01*
X142234955Y-92308039D02*
X142147870Y-92395125D01*
X142147870Y-92395125D02*
X142060784Y-92438668D01*
X142888098Y-92177410D02*
X143454155Y-92177410D01*
X143454155Y-92177410D02*
X143149355Y-92525753D01*
X143149355Y-92525753D02*
X143279984Y-92525753D01*
X143279984Y-92525753D02*
X143367070Y-92569296D01*
X143367070Y-92569296D02*
X143410612Y-92612839D01*
X143410612Y-92612839D02*
X143454155Y-92699925D01*
X143454155Y-92699925D02*
X143454155Y-92917639D01*
X143454155Y-92917639D02*
X143410612Y-93004725D01*
X143410612Y-93004725D02*
X143367070Y-93048268D01*
X143367070Y-93048268D02*
X143279984Y-93091810D01*
X143279984Y-93091810D02*
X143018727Y-93091810D01*
X143018727Y-93091810D02*
X142931641Y-93048268D01*
X142931641Y-93048268D02*
X142888098Y-93004725D01*
X155248465Y-90701017D02*
X155683894Y-90701017D01*
X155161379Y-90962274D02*
X155466179Y-90047874D01*
X155466179Y-90047874D02*
X155770979Y-90962274D01*
X155988693Y-90047874D02*
X156598293Y-90047874D01*
X156598293Y-90047874D02*
X156206407Y-90962274D01*
X141847725Y-75002929D02*
X141891268Y-75046472D01*
X141891268Y-75046472D02*
X141934810Y-75177100D01*
X141934810Y-75177100D02*
X141934810Y-75264186D01*
X141934810Y-75264186D02*
X141891268Y-75394815D01*
X141891268Y-75394815D02*
X141804182Y-75481900D01*
X141804182Y-75481900D02*
X141717096Y-75525443D01*
X141717096Y-75525443D02*
X141542925Y-75568986D01*
X141542925Y-75568986D02*
X141412296Y-75568986D01*
X141412296Y-75568986D02*
X141238125Y-75525443D01*
X141238125Y-75525443D02*
X141151039Y-75481900D01*
X141151039Y-75481900D02*
X141063953Y-75394815D01*
X141063953Y-75394815D02*
X141020410Y-75264186D01*
X141020410Y-75264186D02*
X141020410Y-75177100D01*
X141020410Y-75177100D02*
X141063953Y-75046472D01*
X141063953Y-75046472D02*
X141107496Y-75002929D01*
X141020410Y-74698129D02*
X141020410Y-74132072D01*
X141020410Y-74132072D02*
X141368753Y-74436872D01*
X141368753Y-74436872D02*
X141368753Y-74306243D01*
X141368753Y-74306243D02*
X141412296Y-74219158D01*
X141412296Y-74219158D02*
X141455839Y-74175615D01*
X141455839Y-74175615D02*
X141542925Y-74132072D01*
X141542925Y-74132072D02*
X141760639Y-74132072D01*
X141760639Y-74132072D02*
X141847725Y-74175615D01*
X141847725Y-74175615D02*
X141891268Y-74219158D01*
X141891268Y-74219158D02*
X141934810Y-74306243D01*
X141934810Y-74306243D02*
X141934810Y-74567500D01*
X141934810Y-74567500D02*
X141891268Y-74654586D01*
X141891268Y-74654586D02*
X141847725Y-74698129D01*
X156151553Y-73028986D02*
X156151553Y-72593558D01*
X156412810Y-73116072D02*
X155498410Y-72811272D01*
X155498410Y-72811272D02*
X156412810Y-72506472D01*
X155498410Y-72027501D02*
X155498410Y-71940415D01*
X155498410Y-71940415D02*
X155541953Y-71853329D01*
X155541953Y-71853329D02*
X155585496Y-71809787D01*
X155585496Y-71809787D02*
X155672582Y-71766244D01*
X155672582Y-71766244D02*
X155846753Y-71722701D01*
X155846753Y-71722701D02*
X156064468Y-71722701D01*
X156064468Y-71722701D02*
X156238639Y-71766244D01*
X156238639Y-71766244D02*
X156325725Y-71809787D01*
X156325725Y-71809787D02*
X156369268Y-71853329D01*
X156369268Y-71853329D02*
X156412810Y-71940415D01*
X156412810Y-71940415D02*
X156412810Y-72027501D01*
X156412810Y-72027501D02*
X156369268Y-72114587D01*
X156369268Y-72114587D02*
X156325725Y-72158129D01*
X156325725Y-72158129D02*
X156238639Y-72201672D01*
X156238639Y-72201672D02*
X156064468Y-72245215D01*
X156064468Y-72245215D02*
X155846753Y-72245215D01*
X155846753Y-72245215D02*
X155672582Y-72201672D01*
X155672582Y-72201672D02*
X155585496Y-72158129D01*
X155585496Y-72158129D02*
X155541953Y-72114587D01*
X155541953Y-72114587D02*
X155498410Y-72027501D01*
X141277013Y-97910553D02*
X141712442Y-97910553D01*
X141189927Y-98171810D02*
X141494727Y-97257410D01*
X141494727Y-97257410D02*
X141799527Y-98171810D01*
X142583298Y-98171810D02*
X142060784Y-98171810D01*
X142322041Y-98171810D02*
X142322041Y-97257410D01*
X142322041Y-97257410D02*
X142234955Y-97388039D01*
X142234955Y-97388039D02*
X142147870Y-97475125D01*
X142147870Y-97475125D02*
X142060784Y-97518668D01*
X143454155Y-98171810D02*
X142931641Y-98171810D01*
X143192898Y-98171810D02*
X143192898Y-97257410D01*
X143192898Y-97257410D02*
X143105812Y-97388039D01*
X143105812Y-97388039D02*
X143018727Y-97475125D01*
X143018727Y-97475125D02*
X142931641Y-97518668D01*
X156151553Y-78108986D02*
X156151553Y-77673558D01*
X156412810Y-78196072D02*
X155498410Y-77891272D01*
X155498410Y-77891272D02*
X156412810Y-77586472D01*
X155585496Y-77325215D02*
X155541953Y-77281672D01*
X155541953Y-77281672D02*
X155498410Y-77194587D01*
X155498410Y-77194587D02*
X155498410Y-76976872D01*
X155498410Y-76976872D02*
X155541953Y-76889787D01*
X155541953Y-76889787D02*
X155585496Y-76846244D01*
X155585496Y-76846244D02*
X155672582Y-76802701D01*
X155672582Y-76802701D02*
X155759668Y-76802701D01*
X155759668Y-76802701D02*
X155890296Y-76846244D01*
X155890296Y-76846244D02*
X156412810Y-77368758D01*
X156412810Y-77368758D02*
X156412810Y-76802701D01*
D14*
X153046940Y-91717657D02*
X153046940Y-91272552D01*
X153314003Y-91806678D02*
X152379283Y-91495104D01*
X152379283Y-91495104D02*
X153314003Y-91183531D01*
X153314003Y-90382342D02*
X153314003Y-90916468D01*
X153314003Y-90649405D02*
X152379283Y-90649405D01*
X152379283Y-90649405D02*
X152512814Y-90738426D01*
X152512814Y-90738426D02*
X152601835Y-90827447D01*
X152601835Y-90827447D02*
X152646346Y-90916468D01*
D15*
X94550476Y-91284819D02*
X94550476Y-91999104D01*
X94550476Y-91999104D02*
X94502857Y-92141961D01*
X94502857Y-92141961D02*
X94407619Y-92237200D01*
X94407619Y-92237200D02*
X94264762Y-92284819D01*
X94264762Y-92284819D02*
X94169524Y-92284819D01*
X95550476Y-92284819D02*
X94979048Y-92284819D01*
X95264762Y-92284819D02*
X95264762Y-91284819D01*
X95264762Y-91284819D02*
X95169524Y-91427676D01*
X95169524Y-91427676D02*
X95074286Y-91522914D01*
X95074286Y-91522914D02*
X94979048Y-91570533D01*
X95931429Y-91380057D02*
X95979048Y-91332438D01*
X95979048Y-91332438D02*
X96074286Y-91284819D01*
X96074286Y-91284819D02*
X96312381Y-91284819D01*
X96312381Y-91284819D02*
X96407619Y-91332438D01*
X96407619Y-91332438D02*
X96455238Y-91380057D01*
X96455238Y-91380057D02*
X96502857Y-91475295D01*
X96502857Y-91475295D02*
X96502857Y-91570533D01*
X96502857Y-91570533D02*
X96455238Y-91713390D01*
X96455238Y-91713390D02*
X95883810Y-92284819D01*
X95883810Y-92284819D02*
X96502857Y-92284819D01*
X115366666Y-91724819D02*
X115366666Y-92439104D01*
X115366666Y-92439104D02*
X115319047Y-92581961D01*
X115319047Y-92581961D02*
X115223809Y-92677200D01*
X115223809Y-92677200D02*
X115080952Y-92724819D01*
X115080952Y-92724819D02*
X114985714Y-92724819D01*
X116366666Y-92724819D02*
X115795238Y-92724819D01*
X116080952Y-92724819D02*
X116080952Y-91724819D01*
X116080952Y-91724819D02*
X115985714Y-91867676D01*
X115985714Y-91867676D02*
X115890476Y-91962914D01*
X115890476Y-91962914D02*
X115795238Y-92010533D01*
D16*
%TO.C,J11-1*%
X189285000Y-81237500D02*
X190615000Y-81237500D01*
X189285000Y-82567500D02*
X189285000Y-81237500D01*
X189285000Y-83837500D02*
X189285000Y-94057500D01*
X189285000Y-83837500D02*
X191945000Y-83837500D01*
X189285000Y-94057500D02*
X191945000Y-94057500D01*
X191945000Y-83837500D02*
X191945000Y-94057500D01*
%TO.C,J6*%
X117216667Y-26990000D02*
X117216667Y-29650000D01*
X124896667Y-26990000D02*
X117216667Y-26990000D01*
X124896667Y-26990000D02*
X124896667Y-29650000D01*
X124896667Y-29650000D02*
X117216667Y-29650000D01*
X126166667Y-26990000D02*
X127496667Y-26990000D01*
X127496667Y-26990000D02*
X127496667Y-28320000D01*
%TO.C,UNIT_2*%
D10*
X135370000Y-34230000D02*
X84430000Y-34230000D01*
X84430000Y-62670000D01*
X135370000Y-62670000D01*
X135370000Y-34230000D01*
D16*
%TO.C,J1-2*%
X72970000Y-81245000D02*
X74300000Y-81245000D01*
X72970000Y-82575000D02*
X72970000Y-81245000D01*
X72970000Y-83845000D02*
X72970000Y-94065000D01*
X72970000Y-83845000D02*
X75630000Y-83845000D01*
X72970000Y-94065000D02*
X75630000Y-94065000D01*
X75630000Y-83845000D02*
X75630000Y-94065000D01*
%TO.C,J8*%
X158983334Y-26990000D02*
X158983334Y-29650000D01*
X166663334Y-26990000D02*
X158983334Y-26990000D01*
X166663334Y-26990000D02*
X166663334Y-29650000D01*
X166663334Y-29650000D02*
X158983334Y-29650000D01*
X167933334Y-26990000D02*
X169263334Y-26990000D01*
X169263334Y-26990000D02*
X169263334Y-28320000D01*
%TO.C,J4*%
X72970000Y-37815000D02*
X74300000Y-37815000D01*
X72970000Y-39145000D02*
X72970000Y-37815000D01*
X72970000Y-40415000D02*
X72970000Y-43015000D01*
X72970000Y-40415000D02*
X75630000Y-40415000D01*
X72970000Y-43015000D02*
X75630000Y-43015000D01*
X75630000Y-40415000D02*
X75630000Y-43015000D01*
%TO.C,J5*%
X96333334Y-26990000D02*
X96333334Y-29650000D01*
X104013334Y-26990000D02*
X96333334Y-26990000D01*
X104013334Y-26990000D02*
X104013334Y-29650000D01*
X104013334Y-29650000D02*
X96333334Y-29650000D01*
X105283334Y-26990000D02*
X106613334Y-26990000D01*
X106613334Y-26990000D02*
X106613334Y-28320000D01*
%TO.C,J10*%
X189310000Y-57842500D02*
X190640000Y-57842500D01*
X189310000Y-59172500D02*
X189310000Y-57842500D01*
X189310000Y-60442500D02*
X189310000Y-65582500D01*
X189310000Y-60442500D02*
X191970000Y-60442500D01*
X189310000Y-65582500D02*
X191970000Y-65582500D01*
X191970000Y-60442500D02*
X191970000Y-65582500D01*
%TO.C,J2*%
X72970000Y-57835000D02*
X74300000Y-57835000D01*
X72970000Y-59165000D02*
X72970000Y-57835000D01*
X72970000Y-60435000D02*
X72970000Y-65575000D01*
X72970000Y-60435000D02*
X75630000Y-60435000D01*
X72970000Y-65575000D02*
X75630000Y-65575000D01*
X75630000Y-60435000D02*
X75630000Y-65575000D01*
%TO.C,J11-2*%
X191825000Y-81237500D02*
X193155000Y-81237500D01*
X191825000Y-82567500D02*
X191825000Y-81237500D01*
X191825000Y-83837500D02*
X191825000Y-94057500D01*
X191825000Y-83837500D02*
X194485000Y-83837500D01*
X191825000Y-94057500D02*
X194485000Y-94057500D01*
X194485000Y-83837500D02*
X194485000Y-94057500D01*
%TO.C,J9*%
X189310000Y-37822500D02*
X190640000Y-37822500D01*
X189310000Y-39152500D02*
X189310000Y-37822500D01*
X189310000Y-40422500D02*
X189310000Y-43022500D01*
X189310000Y-40422500D02*
X191970000Y-40422500D01*
X189310000Y-43022500D02*
X191970000Y-43022500D01*
X191970000Y-40422500D02*
X191970000Y-43022500D01*
%TO.C,J7*%
X138100000Y-26990000D02*
X138100000Y-29650000D01*
X145780000Y-26990000D02*
X138100000Y-26990000D01*
X145780000Y-26990000D02*
X145780000Y-29650000D01*
X145780000Y-29650000D02*
X138100000Y-29650000D01*
X147050000Y-26990000D02*
X148380000Y-26990000D01*
X148380000Y-26990000D02*
X148380000Y-28320000D01*
%TO.C,J1-1*%
X70430000Y-81245000D02*
X71760000Y-81245000D01*
X70430000Y-82575000D02*
X70430000Y-81245000D01*
X70430000Y-83845000D02*
X70430000Y-94065000D01*
X70430000Y-83845000D02*
X73090000Y-83845000D01*
X70430000Y-94065000D02*
X73090000Y-94065000D01*
X73090000Y-83845000D02*
X73090000Y-94065000D01*
%TO.C,UNIT_1*%
D10*
X180970000Y-62260000D02*
X140970000Y-62260000D01*
X140970000Y-34260000D01*
X180970000Y-34260000D01*
X180970000Y-62260000D01*
%TO.C,U2*%
X119300000Y-64720000D02*
X93900000Y-64720000D01*
X93900000Y-90120000D01*
X119300000Y-90120000D01*
X119300000Y-64720000D01*
%TD*%
M02*
