%TF.GenerationSoftware,KiCad,Pcbnew,8.0.6*%
%TF.CreationDate,2025-03-25T20:17:01-07:00*%
%TF.ProjectId,Dash Main,44617368-204d-4616-996e-2e6b69636164,rev?*%
%TF.SameCoordinates,Original*%
%TF.FileFunction,Copper,L2,Bot*%
%TF.FilePolarity,Positive*%
%FSLAX46Y46*%
G04 Gerber Fmt 4.6, Leading zero omitted, Abs format (unit mm)*
G04 Created by KiCad (PCBNEW 8.0.6) date 2025-03-25 20:17:01*
%MOMM*%
%LPD*%
G01*
G04 APERTURE LIST*
G04 Aperture macros list*
%AMRoundRect*
0 Rectangle with rounded corners*
0 $1 Rounding radius*
0 $2 $3 $4 $5 $6 $7 $8 $9 X,Y pos of 4 corners*
0 Add a 4 corners polygon primitive as box body*
4,1,4,$2,$3,$4,$5,$6,$7,$8,$9,$2,$3,0*
0 Add four circle primitives for the rounded corners*
1,1,$1+$1,$2,$3*
1,1,$1+$1,$4,$5*
1,1,$1+$1,$6,$7*
1,1,$1+$1,$8,$9*
0 Add four rect primitives between the rounded corners*
20,1,$1+$1,$2,$3,$4,$5,0*
20,1,$1+$1,$4,$5,$6,$7,0*
20,1,$1+$1,$6,$7,$8,$9,0*
20,1,$1+$1,$8,$9,$2,$3,0*%
G04 Aperture macros list end*
%TA.AperFunction,ComponentPad*%
%ADD10R,1.700000X1.700000*%
%TD*%
%TA.AperFunction,ComponentPad*%
%ADD11O,1.700000X1.700000*%
%TD*%
%TA.AperFunction,ComponentPad*%
%ADD12R,1.560000X1.560000*%
%TD*%
%TA.AperFunction,ComponentPad*%
%ADD13C,1.560000*%
%TD*%
%TA.AperFunction,ComponentPad*%
%ADD14C,1.778000*%
%TD*%
%TA.AperFunction,ComponentPad*%
%ADD15C,3.200000*%
%TD*%
%TA.AperFunction,ComponentPad*%
%ADD16C,1.800000*%
%TD*%
%TA.AperFunction,ComponentPad*%
%ADD17C,2.200000*%
%TD*%
%TA.AperFunction,ComponentPad*%
%ADD18RoundRect,0.249999X-1.025001X-1.025001X1.025001X-1.025001X1.025001X1.025001X-1.025001X1.025001X0*%
%TD*%
%TA.AperFunction,ComponentPad*%
%ADD19C,2.550000*%
%TD*%
%TA.AperFunction,ComponentPad*%
%ADD20RoundRect,0.250000X-0.550000X-0.550000X0.550000X-0.550000X0.550000X0.550000X-0.550000X0.550000X0*%
%TD*%
%TA.AperFunction,ComponentPad*%
%ADD21C,1.600000*%
%TD*%
%TA.AperFunction,ComponentPad*%
%ADD22RoundRect,0.249999X1.025001X1.025001X-1.025001X1.025001X-1.025001X-1.025001X1.025001X-1.025001X0*%
%TD*%
%TA.AperFunction,ViaPad*%
%ADD23C,0.600000*%
%TD*%
%TA.AperFunction,Conductor*%
%ADD24C,1.000000*%
%TD*%
%TA.AperFunction,Conductor*%
%ADD25C,0.200000*%
%TD*%
G04 APERTURE END LIST*
D10*
%TO.P,J11-1,1,Pin_1*%
%TO.N,A0*%
X190615000Y-82567500D03*
D11*
%TO.P,J11-1,2,Pin_2*%
%TO.N,A1*%
X190615000Y-85107500D03*
%TO.P,J11-1,3,Pin_3*%
%TO.N,A2*%
X190615000Y-87647500D03*
%TO.P,J11-1,4,Pin_4*%
%TO.N,A3*%
X190615000Y-90187500D03*
%TO.P,J11-1,5,Pin_5*%
%TO.N,A4*%
X190615000Y-92727500D03*
%TD*%
D10*
%TO.P,J6,1,Pin_1*%
%TO.N,SCL*%
X126166667Y-28320000D03*
D11*
%TO.P,J6,2,Pin_2*%
%TO.N,SDA*%
X123626667Y-28320000D03*
%TO.P,J6,3,Pin_3*%
%TO.N,Regulated 3v3*%
X121086667Y-28320000D03*
%TO.P,J6,4,Pin_4*%
%TO.N,3v3 ground*%
X118546667Y-28320000D03*
%TD*%
D12*
%TO.P,UNIT_2,J2-1,3V3*%
%TO.N,unconnected-(UNIT_2-3V3-PadJ2-1)*%
X132980000Y-36740000D03*
D13*
%TO.P,UNIT_2,J2-2,EN*%
%TO.N,unconnected-(UNIT_2-EN-PadJ2-2)*%
X130440000Y-36740000D03*
%TO.P,UNIT_2,J2-3,SENSOR_VP*%
%TO.N,unconnected-(UNIT_2-SENSOR_VP-PadJ2-3)*%
X127900000Y-36740000D03*
%TO.P,UNIT_2,J2-4,SENSOR_VN*%
%TO.N,unconnected-(UNIT_2-SENSOR_VN-PadJ2-4)*%
X125360000Y-36740000D03*
%TO.P,UNIT_2,J2-5,IO34*%
%TO.N,unconnected-(UNIT_2-IO34-PadJ2-5)*%
X122820000Y-36740000D03*
%TO.P,UNIT_2,J2-6,IO35*%
%TO.N,unconnected-(UNIT_2-IO35-PadJ2-6)*%
X120280000Y-36740000D03*
%TO.P,UNIT_2,J2-7,IO32*%
%TO.N,IO32 Speed*%
X117740000Y-36740000D03*
%TO.P,UNIT_2,J2-8,IO33*%
%TO.N,IO33 RPM*%
X115200000Y-36740000D03*
%TO.P,UNIT_2,J2-9,IO25*%
%TO.N,unconnected-(UNIT_2-IO25-PadJ2-9)*%
X112660000Y-36740000D03*
%TO.P,UNIT_2,J2-10,IO26*%
%TO.N,unconnected-(UNIT_2-IO26-PadJ2-10)*%
X110120000Y-36740000D03*
%TO.P,UNIT_2,J2-11,IO27*%
%TO.N,unconnected-(UNIT_2-IO27-PadJ2-11)*%
X107580000Y-36740000D03*
%TO.P,UNIT_2,J2-12,IO14*%
%TO.N,IO14 Button 2*%
X105040000Y-36740000D03*
%TO.P,UNIT_2,J2-13,IO12*%
%TO.N,IO12 Button 1*%
X102500000Y-36740000D03*
%TO.P,UNIT_2,J2-14,GND1*%
%TO.N,GND*%
X99960000Y-36740000D03*
%TO.P,UNIT_2,J2-15,IO13*%
%TO.N,unconnected-(UNIT_2-IO13-PadJ2-15)*%
X97420000Y-36740000D03*
%TO.P,UNIT_2,J2-16,SD2*%
%TO.N,unconnected-(UNIT_2-SD2-PadJ2-16)*%
X94880000Y-36740000D03*
%TO.P,UNIT_2,J2-17,SD3*%
%TO.N,unconnected-(UNIT_2-SD3-PadJ2-17)*%
X92340000Y-36740000D03*
%TO.P,UNIT_2,J2-18,CMD*%
%TO.N,unconnected-(UNIT_2-CMD-PadJ2-18)*%
X89800000Y-36740000D03*
%TO.P,UNIT_2,J2-19,EXT_5V*%
%TO.N,+5v*%
X87260000Y-36740000D03*
%TO.P,UNIT_2,J3-1,GND3*%
%TO.N,GND*%
X132960000Y-59780000D03*
%TO.P,UNIT_2,J3-2,IO23*%
%TO.N,SI*%
X130420000Y-59780000D03*
%TO.P,UNIT_2,J3-3,IO22*%
%TO.N,SCL*%
X127880000Y-59780000D03*
%TO.P,UNIT_2,J3-4,TXD0*%
%TO.N,unconnected-(UNIT_2-TXD0-PadJ3-4)*%
X125340000Y-59780000D03*
%TO.P,UNIT_2,J3-5,RXD0*%
%TO.N,unconnected-(UNIT_2-RXD0-PadJ3-5)*%
X122800000Y-59780000D03*
%TO.P,UNIT_2,J3-6,IO21*%
%TO.N,SDA*%
X120260000Y-59780000D03*
%TO.P,UNIT_2,J3-7,GND2*%
%TO.N,GND*%
X117720000Y-59780000D03*
%TO.P,UNIT_2,J3-8,IO19*%
%TO.N,SO*%
X115180000Y-59780000D03*
%TO.P,UNIT_2,J3-9,IO18*%
%TO.N,SCK*%
X112640000Y-59780000D03*
%TO.P,UNIT_2,J3-10,IO5*%
%TO.N,CS*%
X110100000Y-59780000D03*
%TO.P,UNIT_2,J3-11,IO17*%
%TO.N,unconnected-(UNIT_2-IO17-PadJ3-11)*%
X107560000Y-59780000D03*
%TO.P,UNIT_2,J3-12,IO16*%
%TO.N,unconnected-(UNIT_2-IO16-PadJ3-12)*%
X105020000Y-59780000D03*
%TO.P,UNIT_2,J3-13,IO4*%
%TO.N,unconnected-(UNIT_2-IO4-PadJ3-13)*%
X102480000Y-59780000D03*
%TO.P,UNIT_2,J3-14,IO0*%
%TO.N,unconnected-(UNIT_2-IO0-PadJ3-14)*%
X99940000Y-59780000D03*
%TO.P,UNIT_2,J3-15,IO2*%
%TO.N,unconnected-(UNIT_2-IO2-PadJ3-15)*%
X97400000Y-59780000D03*
%TO.P,UNIT_2,J3-16,IO15*%
%TO.N,unconnected-(UNIT_2-IO15-PadJ3-16)*%
X94860000Y-59780000D03*
%TO.P,UNIT_2,J3-17,SD1*%
%TO.N,unconnected-(UNIT_2-SD1-PadJ3-17)*%
X92320000Y-59780000D03*
%TO.P,UNIT_2,J3-18,SD0*%
%TO.N,unconnected-(UNIT_2-SD0-PadJ3-18)*%
X89780000Y-59780000D03*
%TO.P,UNIT_2,J3-19,CLK*%
%TO.N,unconnected-(UNIT_2-CLK-PadJ3-19)*%
X87240000Y-59780000D03*
%TD*%
D10*
%TO.P,J1-2,1,Pin_1*%
%TO.N,A13*%
X74300000Y-82575000D03*
D11*
%TO.P,J1-2,2,Pin_2*%
%TO.N,A14*%
X74300000Y-85115000D03*
%TO.P,J1-2,3,Pin_3*%
%TO.N,A15*%
X74300000Y-87655000D03*
%TO.P,J1-2,4,Pin_4*%
%TO.N,C0*%
X74300000Y-90195000D03*
%TO.P,J1-2,5,Pin_5*%
%TO.N,C1*%
X74300000Y-92735000D03*
%TD*%
D10*
%TO.P,J8,1,Pin_1*%
%TO.N,SCL*%
X167933334Y-28320000D03*
D11*
%TO.P,J8,2,Pin_2*%
%TO.N,SDA*%
X165393334Y-28320000D03*
%TO.P,J8,3,Pin_3*%
%TO.N,Regulated 3v3*%
X162853334Y-28320000D03*
%TO.P,J8,4,Pin_4*%
%TO.N,3v3 ground*%
X160313334Y-28320000D03*
%TD*%
D10*
%TO.P,J4,1,Pin_1*%
%TO.N,IO12 Button 1*%
X74300000Y-39145000D03*
D11*
%TO.P,J4,2,Pin_2*%
%TO.N,GND*%
X74300000Y-41685000D03*
%TD*%
D10*
%TO.P,J5,1,Pin_1*%
%TO.N,SCL*%
X105283334Y-28320000D03*
D11*
%TO.P,J5,2,Pin_2*%
%TO.N,SDA*%
X102743334Y-28320000D03*
%TO.P,J5,3,Pin_3*%
%TO.N,Regulated 3v3*%
X100203334Y-28320000D03*
%TO.P,J5,4,Pin_4*%
%TO.N,3v3 ground*%
X97663334Y-28320000D03*
%TD*%
D10*
%TO.P,J10,1,Pin_1*%
%TO.N,GND*%
X190640000Y-59172500D03*
D11*
%TO.P,J10,2,Pin_2*%
%TO.N,+5v*%
X190640000Y-61712500D03*
%TO.P,J10,3,Pin_3*%
%TO.N,IO33 RPM*%
X190640000Y-64252500D03*
%TD*%
D10*
%TO.P,J2,1,Pin_1*%
%TO.N,GND*%
X74300000Y-59165000D03*
D11*
%TO.P,J2,2,Pin_2*%
%TO.N,+5v*%
X74300000Y-61705000D03*
%TO.P,J2,3,Pin_3*%
%TO.N,IO32 Speed*%
X74300000Y-64245000D03*
%TD*%
D14*
%TO.P,U1,1,GND*%
%TO.N,3v3 ground*%
X139970000Y-64520000D03*
%TO.P,U1,2,C0*%
%TO.N,C0*%
X139970000Y-67060000D03*
%TO.P,U1,3,C1*%
%TO.N,C1*%
X139970000Y-69600000D03*
%TO.P,U1,4,C2*%
%TO.N,C2*%
X139970000Y-72140000D03*
%TO.P,U1,5,C3*%
%TO.N,C3*%
X139970000Y-74680000D03*
%TO.P,U1,6,C4*%
%TO.N,C4*%
X139970000Y-77220000D03*
%TO.P,U1,7,C5*%
%TO.N,C5*%
X139970000Y-79760000D03*
%TO.P,U1,8,C6*%
%TO.N,C6*%
X139970000Y-82300000D03*
%TO.P,U1,9,C7*%
%TO.N,C7*%
X139970000Y-84840000D03*
%TO.P,U1,10,A15*%
%TO.N,A15*%
X139970000Y-87380000D03*
%TO.P,U1,11,A14*%
%TO.N,A14*%
X139970000Y-89920000D03*
%TO.P,U1,12,A13*%
%TO.N,A13*%
X139970000Y-92460000D03*
%TO.P,U1,13,A12*%
%TO.N,A12*%
X139970000Y-95000000D03*
%TO.P,U1,14,A11*%
%TO.N,A11*%
X139970000Y-97540000D03*
%TO.P,U1,15,A10*%
%TO.N,A10*%
X157750000Y-97540000D03*
%TO.P,U1,16,A9*%
%TO.N,A9*%
X157750000Y-95000000D03*
%TO.P,U1,17,A8*%
%TO.N,A8*%
X157750000Y-92460000D03*
%TO.P,U1,18,A7*%
%TO.N,A7*%
X157750000Y-89920000D03*
%TO.P,U1,19,A6*%
%TO.N,A6*%
X157750000Y-87380000D03*
%TO.P,U1,20,A5*%
%TO.N,A5*%
X157750000Y-84840000D03*
%TO.P,U1,21,A4*%
%TO.N,A4*%
X157750000Y-82300000D03*
%TO.P,U1,22,A3*%
%TO.N,A3*%
X157750000Y-79760000D03*
%TO.P,U1,23,A2*%
%TO.N,A2*%
X157750000Y-77220000D03*
%TO.P,U1,24,A1*%
%TO.N,A1*%
X157750000Y-74680000D03*
%TO.P,U1,25,A0*%
%TO.N,A0*%
X157750000Y-72140000D03*
%TO.P,U1,26,SCL*%
%TO.N,SCL*%
X157750000Y-69600000D03*
%TO.P,U1,27,SDA*%
%TO.N,SDA*%
X157750000Y-67060000D03*
%TO.P,U1,28,VDD*%
%TO.N,Regulated 3v3*%
X157750000Y-64520000D03*
D15*
%TO.P,U1,P$1*%
%TO.N,N/C*%
X148860000Y-65790000D03*
X148860000Y-96270000D03*
%TD*%
D10*
%TO.P,J11-2,1,Pin_1*%
%TO.N,A5*%
X193155000Y-82567500D03*
D11*
%TO.P,J11-2,2,Pin_2*%
%TO.N,A6*%
X193155000Y-85107500D03*
%TO.P,J11-2,3,Pin_3*%
%TO.N,A7*%
X193155000Y-87647500D03*
%TO.P,J11-2,4,Pin_4*%
%TO.N,C0*%
X193155000Y-90187500D03*
%TO.P,J11-2,5,Pin_5*%
%TO.N,C1*%
X193155000Y-92727500D03*
%TD*%
D10*
%TO.P,J9,1,Pin_1*%
%TO.N,IO14 Button 2*%
X190640000Y-39152500D03*
D11*
%TO.P,J9,2,Pin_2*%
%TO.N,GND*%
X190640000Y-41692500D03*
%TD*%
D10*
%TO.P,J7,1,Pin_1*%
%TO.N,SCL*%
X147050000Y-28320000D03*
D11*
%TO.P,J7,2,Pin_2*%
%TO.N,SDA*%
X144510000Y-28320000D03*
%TO.P,J7,3,Pin_3*%
%TO.N,Regulated 3v3*%
X141970000Y-28320000D03*
%TO.P,J7,4,Pin_4*%
%TO.N,3v3 ground*%
X139430000Y-28320000D03*
%TD*%
D10*
%TO.P,J1-1,1,Pin_1*%
%TO.N,A8*%
X71760000Y-82575000D03*
D11*
%TO.P,J1-1,2,Pin_2*%
%TO.N,A9*%
X71760000Y-85115000D03*
%TO.P,J1-1,3,Pin_3*%
%TO.N,A10*%
X71760000Y-87655000D03*
%TO.P,J1-1,4,Pin_4*%
%TO.N,A11*%
X71760000Y-90195000D03*
%TO.P,J1-1,5,Pin_5*%
%TO.N,A12*%
X71760000Y-92735000D03*
%TD*%
D16*
%TO.P,UNIT_1,1,INT*%
%TO.N,unconnected-(UNIT_1-INT-Pad1)*%
X142980000Y-40640000D03*
%TO.P,UNIT_1,2,SCK*%
%TO.N,SCK*%
X142980000Y-43180000D03*
%TO.P,UNIT_1,3,SI*%
%TO.N,SI*%
X142980000Y-45720000D03*
%TO.P,UNIT_1,4,SO*%
%TO.N,SO*%
X142980000Y-48260000D03*
%TO.P,UNIT_1,5,CS*%
%TO.N,CS*%
X142980000Y-50800000D03*
%TO.P,UNIT_1,6,GND*%
%TO.N,GND*%
X142980000Y-53340000D03*
%TO.P,UNIT_1,7,VCC*%
%TO.N,+5v*%
X142980000Y-55880000D03*
D17*
%TO.P,UNIT_1,8,High_CAN*%
%TO.N,High*%
X177960000Y-46020000D03*
%TO.P,UNIT_1,9,Low_CAN*%
%TO.N,Low*%
X177960000Y-50520000D03*
%TD*%
D18*
%TO.P,J12,1,Pin_1*%
%TO.N,+5v*%
X92960000Y-94300000D03*
D19*
%TO.P,J12,2,Pin_2*%
%TO.N,GND*%
X97760000Y-94300000D03*
%TD*%
D20*
%TO.P,J1,1,Pin_1*%
%TO.N,High*%
X110300000Y-94500000D03*
D21*
%TO.P,J1,2,Pin_2*%
%TO.N,Low*%
X113900000Y-94500000D03*
%TO.P,J1,3,Pin_3*%
%TO.N,High*%
X117500000Y-94500000D03*
%TO.P,J1,4,Pin_4*%
%TO.N,Low*%
X121100000Y-94500000D03*
%TD*%
D22*
%TO.P,U2,1,Vin*%
%TO.N,+5v*%
X104070000Y-67360000D03*
D19*
%TO.P,U2,2,GND*%
%TO.N,GND*%
X109160000Y-67360000D03*
%TO.P,U2,3,Vout*%
%TO.N,Regulated 3v3*%
X96460000Y-87670000D03*
%TO.P,U2,4,Trim*%
%TO.N,unconnected-(U2-Trim-Pad4)*%
X106620000Y-87670000D03*
%TO.P,U2,5,-Vout*%
%TO.N,3v3 ground*%
X116780000Y-87670000D03*
%TO.P,U2,6,R.C*%
%TO.N,unconnected-(U2-R.C-Pad6)*%
X116780000Y-67360000D03*
%TD*%
D23*
%TO.N,+5v*%
X152000000Y-61640000D03*
X169730000Y-57360000D03*
%TO.N,IO33 RPM*%
X152100000Y-48390000D03*
X115250000Y-42180000D03*
X165500000Y-58960000D03*
%TO.N,GND*%
X158750000Y-53350000D03*
%TO.N,IO14 Button 2*%
X152220000Y-38520000D03*
%TO.N,C0*%
X136380000Y-92910000D03*
%TO.N,SI*%
X140510000Y-46290000D03*
%TO.N,SCK*%
X137640000Y-51680000D03*
%TO.N,SO*%
X118640000Y-64330000D03*
X126110000Y-48630000D03*
%TD*%
D24*
%TO.N,+5v*%
X123200000Y-66780000D02*
X125910000Y-64070000D01*
X146640000Y-61680000D02*
X151960000Y-61680000D01*
X121143037Y-73690000D02*
X123200000Y-71633037D01*
X104070000Y-68430000D02*
X109330000Y-73690000D01*
X125910000Y-64070000D02*
X134790000Y-64070000D01*
X104070000Y-67360000D02*
X104070000Y-68430000D01*
X146640000Y-57530000D02*
X146640000Y-61680000D01*
X144990000Y-55880000D02*
X146640000Y-57530000D01*
X134790000Y-64070000D02*
X142980000Y-55880000D01*
X169730000Y-57360000D02*
X174082500Y-61712500D01*
X123200000Y-71633037D02*
X123200000Y-66780000D01*
X142980000Y-55880000D02*
X144990000Y-55880000D01*
X174082500Y-61712500D02*
X190640000Y-61712500D01*
X109330000Y-73690000D02*
X121143037Y-73690000D01*
X151960000Y-61680000D02*
X152000000Y-61640000D01*
D25*
%TO.N,IO33 RPM*%
X145030000Y-49570000D02*
X122640000Y-49570000D01*
X122640000Y-49570000D02*
X115250000Y-42180000D01*
X152100000Y-48390000D02*
X146210000Y-48390000D01*
X172872500Y-64252500D02*
X167640000Y-59020000D01*
X146210000Y-48390000D02*
X145030000Y-49570000D01*
X165560000Y-59020000D02*
X165500000Y-58960000D01*
X167640000Y-59020000D02*
X165560000Y-59020000D01*
X190640000Y-64252500D02*
X172872500Y-64252500D01*
D24*
%TO.N,GND*%
X135220000Y-53340000D02*
X132960000Y-55600000D01*
X132960000Y-55600000D02*
X132960000Y-59780000D01*
X117720000Y-59780000D02*
X119560000Y-57940000D01*
X119560000Y-54530000D02*
X120750000Y-53340000D01*
X142980000Y-53340000D02*
X158740000Y-53340000D01*
X120750000Y-53340000D02*
X142980000Y-53340000D01*
X158740000Y-53340000D02*
X158750000Y-53350000D01*
X142980000Y-53340000D02*
X135220000Y-53340000D01*
X119560000Y-57940000D02*
X119560000Y-54530000D01*
%TO.N,Regulated 3v3*%
X140180000Y-32640000D02*
X141970000Y-30850000D01*
X121086667Y-30583333D02*
X121086667Y-28320000D01*
X137300000Y-32640000D02*
X140180000Y-32640000D01*
X88686666Y-30803334D02*
X83190000Y-36300000D01*
X161860000Y-32640000D02*
X162900000Y-31600000D01*
X100203334Y-28320000D02*
X100203334Y-30803334D01*
X83190000Y-60820000D02*
X96460000Y-74090000D01*
X119030000Y-32640000D02*
X121086667Y-30583333D01*
X96460000Y-74090000D02*
X96460000Y-87670000D01*
X161860000Y-32640000D02*
X161860000Y-62019186D01*
X83190000Y-36300000D02*
X83190000Y-60820000D01*
X137300000Y-32640000D02*
X161860000Y-32640000D01*
X117970000Y-32640000D02*
X119030000Y-32640000D01*
X162900000Y-31600000D02*
X162900000Y-28366666D01*
X161860000Y-62019186D02*
X159359186Y-64520000D01*
X100203334Y-30803334D02*
X102040000Y-32640000D01*
X100203334Y-30803334D02*
X88686666Y-30803334D01*
X117970000Y-32640000D02*
X137300000Y-32640000D01*
X141970000Y-30850000D02*
X141970000Y-28320000D01*
X159359186Y-64520000D02*
X157750000Y-64520000D01*
X162900000Y-28366666D02*
X162853334Y-28320000D01*
X102040000Y-32640000D02*
X117970000Y-32640000D01*
D25*
%TO.N,SDA*%
X162220000Y-26880000D02*
X163953334Y-26880000D01*
X144510000Y-28320000D02*
X144510000Y-30070000D01*
X161550000Y-27550000D02*
X162220000Y-26880000D01*
X163470000Y-34010000D02*
X165393334Y-32086666D01*
X161550000Y-30220000D02*
X161550000Y-27550000D01*
X165393334Y-32086666D02*
X165393334Y-28320000D01*
X163953334Y-26880000D02*
X165393334Y-28320000D01*
X159007235Y-67060000D02*
X163470000Y-62597235D01*
X161350000Y-30420000D02*
X161550000Y-30220000D01*
X144510000Y-30070000D02*
X144860000Y-30420000D01*
X144860000Y-30420000D02*
X161350000Y-30420000D01*
X163470000Y-62597235D02*
X163470000Y-34010000D01*
X157750000Y-67060000D02*
X159007235Y-67060000D01*
%TO.N,SCL*%
X153730000Y-58850000D02*
X149480000Y-54600000D01*
X153730000Y-68460000D02*
X153730000Y-58850000D01*
X154870000Y-69600000D02*
X153730000Y-68460000D01*
X136830000Y-55960000D02*
X136830000Y-59170000D01*
X138190000Y-54600000D02*
X136830000Y-55960000D01*
X157750000Y-69600000D02*
X154870000Y-69600000D01*
X130580000Y-62480000D02*
X127880000Y-59780000D01*
X133520000Y-62480000D02*
X130580000Y-62480000D01*
X136830000Y-59170000D02*
X133520000Y-62480000D01*
X149480000Y-54600000D02*
X138190000Y-54600000D01*
%TO.N,IO14 Button 2*%
X147580000Y-38870000D02*
X107170000Y-38870000D01*
X150780000Y-37080000D02*
X149370000Y-37080000D01*
X149370000Y-37080000D02*
X147580000Y-38870000D01*
X152220000Y-38520000D02*
X150780000Y-37080000D01*
X107170000Y-38870000D02*
X105040000Y-36740000D01*
%TO.N,C0*%
X142800000Y-69890000D02*
X139970000Y-67060000D01*
X187620000Y-91460000D02*
X186970000Y-92110000D01*
X193155000Y-90187500D02*
X191882500Y-91460000D01*
X191882500Y-91460000D02*
X187620000Y-91460000D01*
X157130000Y-99860000D02*
X142800000Y-85530000D01*
X186970000Y-92110000D02*
X186970000Y-98346814D01*
X142800000Y-85530000D02*
X142800000Y-69890000D01*
X74300000Y-90195000D02*
X81895000Y-97790000D01*
X185456814Y-99860000D02*
X157130000Y-99860000D01*
X81895000Y-97790000D02*
X84590000Y-97790000D01*
X84590000Y-97790000D02*
X131500000Y-97790000D01*
X131500000Y-97790000D02*
X136380000Y-92910000D01*
X186970000Y-98346814D02*
X185456814Y-99860000D01*
%TO.N,A7*%
X193155000Y-87647500D02*
X191765000Y-89037500D01*
X161502500Y-89037500D02*
X160620000Y-89920000D01*
X191765000Y-89037500D02*
X161502500Y-89037500D01*
X160620000Y-89920000D02*
X157750000Y-89920000D01*
%TO.N,A6*%
X160982500Y-86497500D02*
X160100000Y-87380000D01*
X193155000Y-85107500D02*
X191765000Y-86497500D01*
X191765000Y-86497500D02*
X160982500Y-86497500D01*
X160100000Y-87380000D02*
X157750000Y-87380000D01*
%TO.N,A12*%
X136380000Y-98590000D02*
X73230000Y-98590000D01*
X73230000Y-98590000D02*
X71760000Y-97120000D01*
X139970000Y-95000000D02*
X136380000Y-98590000D01*
X71760000Y-97120000D02*
X71760000Y-92735000D01*
%TO.N,A11*%
X139970000Y-97540000D02*
X138200000Y-99310000D01*
X68730000Y-96350000D02*
X68730000Y-93225000D01*
X68730000Y-93225000D02*
X71760000Y-90195000D01*
X71690000Y-99310000D02*
X68730000Y-96350000D01*
X138200000Y-99310000D02*
X71690000Y-99310000D01*
%TO.N,A5*%
X178770000Y-84840000D02*
X157750000Y-84840000D01*
X184340000Y-79270000D02*
X178770000Y-84840000D01*
X193155000Y-82567500D02*
X193155000Y-79345000D01*
X193155000Y-79345000D02*
X193230000Y-79270000D01*
X193230000Y-79270000D02*
X184340000Y-79270000D01*
D24*
%TO.N,3v3 ground*%
X116660000Y-25817693D02*
X138210000Y-25817693D01*
X138210000Y-25817693D02*
X138407693Y-25817693D01*
X138407693Y-25817693D02*
X139430000Y-26840000D01*
X97663334Y-28320000D02*
X97663334Y-26426666D01*
X138210000Y-25817693D02*
X159327693Y-25817693D01*
X98272307Y-25817693D02*
X116660000Y-25817693D01*
X118560000Y-26870000D02*
X118546667Y-26883333D01*
X160313334Y-26803334D02*
X160313334Y-28320000D01*
X116660000Y-25817693D02*
X117507693Y-25817693D01*
X118546667Y-26883333D02*
X118546667Y-28320000D01*
X139430000Y-26840000D02*
X139430000Y-28320000D01*
X159327693Y-25817693D02*
X160313334Y-26803334D01*
X117507693Y-25817693D02*
X118560000Y-26870000D01*
X97663334Y-26426666D02*
X98272307Y-25817693D01*
D25*
%TO.N,A13*%
X89400000Y-95700000D02*
X90750000Y-97050000D01*
X79885000Y-82575000D02*
X89400000Y-92090000D01*
X120910000Y-89980000D02*
X124820000Y-86070000D01*
X74300000Y-82575000D02*
X79885000Y-82575000D01*
X90750000Y-97050000D02*
X101370000Y-97050000D01*
X133580000Y-86070000D02*
X133590000Y-86080000D01*
X108440000Y-89980000D02*
X120910000Y-89980000D01*
X101370000Y-97050000D02*
X108440000Y-89980000D01*
X133590000Y-86080000D02*
X139970000Y-92460000D01*
X89400000Y-92090000D02*
X89400000Y-95700000D01*
X124820000Y-86070000D02*
X133580000Y-86070000D01*
%TO.N,C1*%
X79755000Y-98190000D02*
X135880000Y-98190000D01*
X142090000Y-85400000D02*
X142090000Y-71720000D01*
X156950000Y-100260000D02*
X146600000Y-89910000D01*
X146600000Y-89910000D02*
X142090000Y-85400000D01*
X138450000Y-93700000D02*
X142810000Y-93700000D01*
X135880000Y-98190000D02*
X138010000Y-96060000D01*
X193155000Y-92727500D02*
X185622500Y-100260000D01*
X146525000Y-89985000D02*
X146525000Y-89835000D01*
X185622500Y-100260000D02*
X156950000Y-100260000D01*
X142810000Y-93700000D02*
X146525000Y-89985000D01*
X142090000Y-71720000D02*
X139970000Y-69600000D01*
X138010000Y-96060000D02*
X138010000Y-94140000D01*
X74300000Y-92735000D02*
X79755000Y-98190000D01*
X138010000Y-94140000D02*
X138450000Y-93700000D01*
%TO.N,SI*%
X141080000Y-45720000D02*
X140510000Y-46290000D01*
X142980000Y-45720000D02*
X141080000Y-45720000D01*
%TO.N,SCK*%
X112640000Y-59780000D02*
X120420000Y-52000000D01*
X120420000Y-52000000D02*
X137300000Y-52000000D01*
X137300000Y-52000000D02*
X137620000Y-51680000D01*
X137620000Y-51680000D02*
X137640000Y-51680000D01*
%TO.N,CS*%
X110100000Y-56370000D02*
X115670000Y-50800000D01*
X115670000Y-50800000D02*
X142980000Y-50800000D01*
X110100000Y-59780000D02*
X110100000Y-56370000D01*
%TO.N,SO*%
X115180000Y-63670000D02*
X115180000Y-59780000D01*
X115840000Y-64330000D02*
X115180000Y-63670000D01*
X142980000Y-48260000D02*
X126480000Y-48260000D01*
X118640000Y-64330000D02*
X115840000Y-64330000D01*
X126480000Y-48260000D02*
X126110000Y-48630000D01*
%TD*%
M02*
