M48
; DRILL file {KiCad 8.0.6} date 2025-03-25T20:17:06-0700
; FORMAT={-:-/ absolute / inch / decimal}
; #@! TF.CreationDate,2025-03-25T20:17:06-07:00
; #@! TF.GenerationSoftware,Kicad,Pcbnew,8.0.6
; #@! TF.FileFunction,Plated,1,2,PTH
FMAT,2
INCH
; #@! TA.AperFunction,Plated,PTH,ViaDrill
T1C0.0118
; #@! TA.AperFunction,Plated,PTH,ComponentDrill
T2C0.0236
; #@! TA.AperFunction,Plated,PTH,ComponentDrill
T3C0.0354
; #@! TA.AperFunction,Plated,PTH,ComponentDrill
T4C0.0394
; #@! TA.AperFunction,Plated,PTH,ComponentDrill
T5C0.0400
; #@! TA.AperFunction,Plated,PTH,ComponentDrill
T6C0.0409
; #@! TA.AperFunction,Plated,PTH,ComponentDrill
T7C0.0591
; #@! TA.AperFunction,Plated,PTH,ComponentDrill
T8C0.0610
; #@! TA.AperFunction,Plated,PTH,ComponentDrill
T9C0.0984
%
G90
G05
T1
X4.5374Y-1.6606
X4.6709Y-2.5327
X4.965Y-1.9146
X5.3693Y-3.6579
X5.4189Y-2.0346
X5.5319Y-1.8224
X5.9843Y-2.4268
X5.9882Y-1.9051
X5.9929Y-1.5165
X6.25Y-2.1004
X6.5157Y-2.3213
X6.6823Y-2.2583
T2
X4.3425Y-3.7205
X4.4843Y-3.7205
X4.626Y-3.7205
X4.7677Y-3.7205
T3
X5.6291Y-1.6
X5.6291Y-1.7
X5.6291Y-1.8
X5.6291Y-1.9
X5.6291Y-2.0
X5.6291Y-2.1
X5.6291Y-2.2
T4
X2.8252Y-3.251
X2.8252Y-3.351
X2.8252Y-3.451
X2.8252Y-3.551
X2.8252Y-3.651
X2.9252Y-1.5411
X2.9252Y-1.6411
X2.9252Y-2.3293
X2.9252Y-2.4293
X2.9252Y-2.5293
X2.9252Y-3.251
X2.9252Y-3.351
X2.9252Y-3.451
X2.9252Y-3.551
X2.9252Y-3.651
X3.845Y-1.115
X3.945Y-1.115
X4.045Y-1.115
X4.145Y-1.115
X4.6672Y-1.115
X4.7672Y-1.115
X4.8672Y-1.115
X4.9672Y-1.115
X5.4894Y-1.115
X5.5894Y-1.115
X5.6894Y-1.115
X5.7894Y-1.115
X6.3115Y-1.115
X6.4115Y-1.115
X6.5115Y-1.115
X6.6115Y-1.115
X7.5045Y-3.2507
X7.5045Y-3.3507
X7.5045Y-3.4507
X7.5045Y-3.5507
X7.5045Y-3.6507
X7.5055Y-1.5414
X7.5055Y-1.6414
X7.5055Y-2.3296
X7.5055Y-2.4296
X7.5055Y-2.5296
X7.6045Y-3.2507
X7.6045Y-3.3507
X7.6045Y-3.4507
X7.6045Y-3.5507
X7.6045Y-3.6507
T5
X5.5106Y-2.5402
X5.5106Y-2.6402
X5.5106Y-2.7402
X5.5106Y-2.8402
X5.5106Y-2.9402
X5.5106Y-3.0402
X5.5106Y-3.1402
X5.5106Y-3.2402
X5.5106Y-3.3402
X5.5106Y-3.4402
X5.5106Y-3.5402
X5.5106Y-3.6402
X5.5106Y-3.7402
X5.5106Y-3.8402
X6.2106Y-2.5402
X6.2106Y-2.6402
X6.2106Y-2.7402
X6.2106Y-2.8402
X6.2106Y-2.9402
X6.2106Y-3.0402
X6.2106Y-3.1402
X6.2106Y-3.2402
X6.2106Y-3.3402
X6.2106Y-3.4402
X6.2106Y-3.5402
X6.2106Y-3.6402
X6.2106Y-3.7402
X6.2106Y-3.8402
T6
X3.4346Y-2.3535
X3.4354Y-1.4465
X3.5346Y-2.3535
X3.5354Y-1.4465
X3.6346Y-2.3535
X3.6354Y-1.4465
X3.7346Y-2.3535
X3.7354Y-1.4465
X3.8346Y-2.3535
X3.8354Y-1.4465
X3.9346Y-2.3535
X3.9354Y-1.4465
X4.0346Y-2.3535
X4.0354Y-1.4465
X4.1346Y-2.3535
X4.1354Y-1.4465
X4.2346Y-2.3535
X4.2354Y-1.4465
X4.3346Y-2.3535
X4.3354Y-1.4465
X4.4346Y-2.3535
X4.4354Y-1.4465
X4.5346Y-2.3535
X4.5354Y-1.4465
X4.6346Y-2.3535
X4.6354Y-1.4465
X4.7346Y-2.3535
X4.7354Y-1.4465
X4.8346Y-2.3535
X4.8354Y-1.4465
X4.9346Y-2.3535
X4.9354Y-1.4465
X5.0346Y-2.3535
X5.0354Y-1.4465
X5.1346Y-2.3535
X5.1354Y-1.4465
X5.2346Y-2.3535
X5.2354Y-1.4465
T7
X7.0063Y-1.8118
X7.0063Y-1.989
T8
X3.6598Y-3.7126
X3.7976Y-3.4516
X3.8488Y-3.7126
X4.0972Y-2.652
X4.1976Y-3.4516
X4.2976Y-2.652
X4.5976Y-2.652
X4.5976Y-3.4516
T9
X5.8606Y-2.5902
X5.8606Y-3.7902
M30
