M48
; DRILL file {KiCad 8.0.6} date 2025-02-23T20:12:18-0700
; FORMAT={-:-/ absolute / inch / decimal}
; #@! TF.CreationDate,2025-02-23T20:12:18-07:00
; #@! TF.GenerationSoftware,Kicad,Pcbnew,8.0.6
; #@! TF.FileFunction,Plated,1,2,PTH
FMAT,2
INCH
; #@! TA.AperFunction,Plated,PTH,ViaDrill
T1C0.0118
; #@! TA.AperFunction,Plated,PTH,ComponentDrill
T2C0.0236
; #@! TA.AperFunction,Plated,PTH,ComponentDrill
T3C0.0300
; #@! TA.AperFunction,Plated,PTH,ComponentDrill
T4C0.0354
; #@! TA.AperFunction,Plated,PTH,ComponentDrill
T5C0.0394
; #@! TA.AperFunction,Plated,PTH,ComponentDrill
T6C0.0400
; #@! TA.AperFunction,Plated,PTH,ComponentDrill
T7C0.0409
; #@! TA.AperFunction,Plated,PTH,ComponentDrill
T8C0.0591
; #@! TA.AperFunction,Plated,PTH,ComponentDrill
T9C0.0610
; #@! TA.AperFunction,Plated,PTH,ComponentDrill
T10C0.0984
%
G90
G05
T1
X3.9567Y-3.3504
X4.878Y-2.4094
X5.0827Y-1.6693
X5.1732Y-2.3937
X5.1732Y-2.4252
X5.1732Y-2.4567
X5.2874Y-1.8819
X5.3425Y-3.374
X5.5551Y-1.5079
X5.7283Y-3.4921
X5.9764Y-2.5472
X6.0787Y-2.5472
X6.1142Y-2.1378
X6.1772Y-2.5433
X6.6535Y-1.7992
X6.9213Y-1.7953
X7.3071Y-2.1339
T2
X4.3425Y-3.7205
X4.4843Y-3.7205
X4.626Y-3.7205
X4.7677Y-3.7205
T3
X3.8913Y-2.6744
X3.8913Y-3.474
X4.1913Y-2.6744
X4.2913Y-3.474
X4.3917Y-2.6744
X4.6913Y-3.474
T4
X5.5193Y-2.9323
X5.5193Y-3.0323
X5.5193Y-3.1323
X5.5193Y-3.2323
X5.5193Y-3.3323
X5.5193Y-3.4323
X5.5193Y-3.5323
T5
X2.8252Y-3.251
X2.8252Y-3.351
X2.8252Y-3.451
X2.8252Y-3.551
X2.8252Y-3.651
X2.9252Y-1.5411
X2.9252Y-1.6411
X2.9252Y-2.3293
X2.9252Y-2.4293
X2.9252Y-2.5293
X2.9252Y-3.251
X2.9252Y-3.351
X2.9252Y-3.451
X2.9252Y-3.551
X2.9252Y-3.651
X3.845Y-1.115
X3.945Y-1.115
X4.045Y-1.115
X4.145Y-1.115
X4.6672Y-1.115
X4.7672Y-1.115
X4.8672Y-1.115
X4.9672Y-1.115
X5.4894Y-1.115
X5.5894Y-1.115
X5.6894Y-1.115
X5.7894Y-1.115
X6.3115Y-1.115
X6.4115Y-1.115
X6.5115Y-1.115
X6.6115Y-1.115
X7.5045Y-3.2507
X7.5045Y-3.3507
X7.5045Y-3.4507
X7.5045Y-3.5507
X7.5045Y-3.6507
X7.5055Y-1.5414
X7.5055Y-1.6414
X7.5055Y-2.3296
X7.5055Y-2.4296
X7.5055Y-2.5296
X7.6045Y-3.2507
X7.6045Y-3.3507
X7.6045Y-3.4507
X7.6045Y-3.5507
X7.6045Y-3.6507
T6
X5.6777Y-1.598
X5.6777Y-2.298
X5.7777Y-1.598
X5.7777Y-2.298
X5.8777Y-1.598
X5.8777Y-2.298
X5.9777Y-1.598
X5.9777Y-2.298
X6.0777Y-1.598
X6.0777Y-2.298
X6.1777Y-1.598
X6.1777Y-2.298
X6.2777Y-1.598
X6.2777Y-2.298
X6.3777Y-1.598
X6.3777Y-2.298
X6.4777Y-1.598
X6.4777Y-2.298
X6.5777Y-1.598
X6.5777Y-2.298
X6.6777Y-1.598
X6.6777Y-2.298
X6.7777Y-1.598
X6.7777Y-2.298
X6.8777Y-1.598
X6.8777Y-2.298
X6.9777Y-1.598
X6.9777Y-2.298
T7
X3.4346Y-2.3535
X3.4354Y-1.4465
X3.5346Y-2.3535
X3.5354Y-1.4465
X3.6346Y-2.3535
X3.6354Y-1.4465
X3.7346Y-2.3535
X3.7354Y-1.4465
X3.8346Y-2.3535
X3.8354Y-1.4465
X3.9346Y-2.3535
X3.9354Y-1.4465
X4.0346Y-2.3535
X4.0354Y-1.4465
X4.1346Y-2.3535
X4.1354Y-1.4465
X4.2346Y-2.3535
X4.2354Y-1.4465
X4.3346Y-2.3535
X4.3354Y-1.4465
X4.4346Y-2.3535
X4.4354Y-1.4465
X4.5346Y-2.3535
X4.5354Y-1.4465
X4.6346Y-2.3535
X4.6354Y-1.4465
X4.7346Y-2.3535
X4.7354Y-1.4465
X4.8346Y-2.3535
X4.8354Y-1.4465
X4.9346Y-2.3535
X4.9354Y-1.4465
X5.0346Y-2.3535
X5.0354Y-1.4465
X5.1346Y-2.3535
X5.1354Y-1.4465
X5.2346Y-2.3535
X5.2354Y-1.4465
T8
X6.8965Y-3.1441
X6.8965Y-3.3213
T9
X3.6506Y-3.7205
X3.8396Y-3.7205
T10
X5.7277Y-1.948
X6.9277Y-1.948
M30
