%TF.GenerationSoftware,KiCad,Pcbnew,8.0.6*%
%TF.CreationDate,2025-02-23T20:12:14-07:00*%
%TF.ProjectId,Dash Main,44617368-204d-4616-996e-2e6b69636164,rev?*%
%TF.SameCoordinates,Original*%
%TF.FileFunction,Copper,L1,Top*%
%TF.FilePolarity,Positive*%
%FSLAX46Y46*%
G04 Gerber Fmt 4.6, Leading zero omitted, Abs format (unit mm)*
G04 Created by KiCad (PCBNEW 8.0.6) date 2025-02-23 20:12:14*
%MOMM*%
%LPD*%
G01*
G04 APERTURE LIST*
G04 Aperture macros list*
%AMRoundRect*
0 Rectangle with rounded corners*
0 $1 Rounding radius*
0 $2 $3 $4 $5 $6 $7 $8 $9 X,Y pos of 4 corners*
0 Add a 4 corners polygon primitive as box body*
4,1,4,$2,$3,$4,$5,$6,$7,$8,$9,$2,$3,0*
0 Add four circle primitives for the rounded corners*
1,1,$1+$1,$2,$3*
1,1,$1+$1,$4,$5*
1,1,$1+$1,$6,$7*
1,1,$1+$1,$8,$9*
0 Add four rect primitives between the rounded corners*
20,1,$1+$1,$2,$3,$4,$5,0*
20,1,$1+$1,$4,$5,$6,$7,0*
20,1,$1+$1,$6,$7,$8,$9,0*
20,1,$1+$1,$8,$9,$2,$3,0*%
G04 Aperture macros list end*
%TA.AperFunction,Conductor*%
%ADD10C,0.200000*%
%TD*%
%TA.AperFunction,ComponentPad*%
%ADD11R,1.700000X1.700000*%
%TD*%
%TA.AperFunction,ComponentPad*%
%ADD12O,1.700000X1.700000*%
%TD*%
%TA.AperFunction,ComponentPad*%
%ADD13R,1.560000X1.560000*%
%TD*%
%TA.AperFunction,ComponentPad*%
%ADD14C,1.560000*%
%TD*%
%TA.AperFunction,ComponentPad*%
%ADD15C,1.778000*%
%TD*%
%TA.AperFunction,ComponentPad*%
%ADD16C,3.200000*%
%TD*%
%TA.AperFunction,ComponentPad*%
%ADD17C,1.524000*%
%TD*%
%TA.AperFunction,ComponentPad*%
%ADD18C,1.800000*%
%TD*%
%TA.AperFunction,ComponentPad*%
%ADD19C,2.200000*%
%TD*%
%TA.AperFunction,ComponentPad*%
%ADD20RoundRect,0.249999X-1.025001X-1.025001X1.025001X-1.025001X1.025001X1.025001X-1.025001X1.025001X0*%
%TD*%
%TA.AperFunction,ComponentPad*%
%ADD21C,2.550000*%
%TD*%
%TA.AperFunction,ComponentPad*%
%ADD22RoundRect,0.250000X-0.550000X-0.550000X0.550000X-0.550000X0.550000X0.550000X-0.550000X0.550000X0*%
%TD*%
%TA.AperFunction,ComponentPad*%
%ADD23C,1.600000*%
%TD*%
%TA.AperFunction,ViaPad*%
%ADD24C,0.600000*%
%TD*%
%TA.AperFunction,Conductor*%
%ADD25C,0.600000*%
%TD*%
G04 APERTURE END LIST*
D10*
%TO.N,C0*%
X174700000Y-40600000D02*
X174700000Y-42800000D01*
X174700000Y-42800000D02*
X181200000Y-49300000D01*
%TD*%
D11*
%TO.P,J1-A1,1,Pin_1*%
%TO.N,A0*%
X190615000Y-82567500D03*
D12*
%TO.P,J1-A1,2,Pin_2*%
%TO.N,A1*%
X190615000Y-85107500D03*
%TO.P,J1-A1,3,Pin_3*%
%TO.N,A2*%
X190615000Y-87647500D03*
%TO.P,J1-A1,4,Pin_4*%
%TO.N,A3*%
X190615000Y-90187500D03*
%TO.P,J1-A1,5,Pin_5*%
%TO.N,A4*%
X190615000Y-92727500D03*
%TD*%
D11*
%TO.P,J11,1,Pin_1*%
%TO.N,SCL*%
X126166667Y-28320000D03*
D12*
%TO.P,J11,2,Pin_2*%
%TO.N,SDA*%
X123626667Y-28320000D03*
%TO.P,J11,3,Pin_3*%
%TO.N,Regulated 3v3*%
X121086667Y-28320000D03*
%TO.P,J11,4,Pin_4*%
%TO.N,GND*%
X118546667Y-28320000D03*
%TD*%
D13*
%TO.P,UNIT_2,J2-1,3V3*%
%TO.N,unconnected-(UNIT_2-3V3-PadJ2-1)*%
X132980000Y-36740000D03*
D14*
%TO.P,UNIT_2,J2-2,EN*%
%TO.N,unconnected-(UNIT_2-EN-PadJ2-2)*%
X130440000Y-36740000D03*
%TO.P,UNIT_2,J2-3,SENSOR_VP*%
%TO.N,unconnected-(UNIT_2-SENSOR_VP-PadJ2-3)*%
X127900000Y-36740000D03*
%TO.P,UNIT_2,J2-4,SENSOR_VN*%
%TO.N,unconnected-(UNIT_2-SENSOR_VN-PadJ2-4)*%
X125360000Y-36740000D03*
%TO.P,UNIT_2,J2-5,IO34*%
%TO.N,unconnected-(UNIT_2-IO34-PadJ2-5)*%
X122820000Y-36740000D03*
%TO.P,UNIT_2,J2-6,IO35*%
%TO.N,unconnected-(UNIT_2-IO35-PadJ2-6)*%
X120280000Y-36740000D03*
%TO.P,UNIT_2,J2-7,IO32*%
%TO.N,IO32 Speed*%
X117740000Y-36740000D03*
%TO.P,UNIT_2,J2-8,IO33*%
%TO.N,IO33 RPM*%
X115200000Y-36740000D03*
%TO.P,UNIT_2,J2-9,IO25*%
%TO.N,unconnected-(UNIT_2-IO25-PadJ2-9)*%
X112660000Y-36740000D03*
%TO.P,UNIT_2,J2-10,IO26*%
%TO.N,unconnected-(UNIT_2-IO26-PadJ2-10)*%
X110120000Y-36740000D03*
%TO.P,UNIT_2,J2-11,IO27*%
%TO.N,unconnected-(UNIT_2-IO27-PadJ2-11)*%
X107580000Y-36740000D03*
%TO.P,UNIT_2,J2-12,IO14*%
%TO.N,IO14 Button 2*%
X105040000Y-36740000D03*
%TO.P,UNIT_2,J2-13,IO12*%
%TO.N,IO12 Button 1*%
X102500000Y-36740000D03*
%TO.P,UNIT_2,J2-14,GND1*%
%TO.N,GND*%
X99960000Y-36740000D03*
%TO.P,UNIT_2,J2-15,IO13*%
%TO.N,unconnected-(UNIT_2-IO13-PadJ2-15)*%
X97420000Y-36740000D03*
%TO.P,UNIT_2,J2-16,SD2*%
%TO.N,unconnected-(UNIT_2-SD2-PadJ2-16)*%
X94880000Y-36740000D03*
%TO.P,UNIT_2,J2-17,SD3*%
%TO.N,unconnected-(UNIT_2-SD3-PadJ2-17)*%
X92340000Y-36740000D03*
%TO.P,UNIT_2,J2-18,CMD*%
%TO.N,unconnected-(UNIT_2-CMD-PadJ2-18)*%
X89800000Y-36740000D03*
%TO.P,UNIT_2,J2-19,EXT_5V*%
%TO.N,+5v*%
X87260000Y-36740000D03*
%TO.P,UNIT_2,J3-1,GND3*%
%TO.N,GND*%
X132960000Y-59780000D03*
%TO.P,UNIT_2,J3-2,IO23*%
%TO.N,SI*%
X130420000Y-59780000D03*
%TO.P,UNIT_2,J3-3,IO22*%
%TO.N,SCL*%
X127880000Y-59780000D03*
%TO.P,UNIT_2,J3-4,TXD0*%
%TO.N,unconnected-(UNIT_2-TXD0-PadJ3-4)*%
X125340000Y-59780000D03*
%TO.P,UNIT_2,J3-5,RXD0*%
%TO.N,unconnected-(UNIT_2-RXD0-PadJ3-5)*%
X122800000Y-59780000D03*
%TO.P,UNIT_2,J3-6,IO21*%
%TO.N,SDA*%
X120260000Y-59780000D03*
%TO.P,UNIT_2,J3-7,GND2*%
%TO.N,GND*%
X117720000Y-59780000D03*
%TO.P,UNIT_2,J3-8,IO19*%
%TO.N,SO*%
X115180000Y-59780000D03*
%TO.P,UNIT_2,J3-9,IO18*%
%TO.N,SCK*%
X112640000Y-59780000D03*
%TO.P,UNIT_2,J3-10,IO5*%
%TO.N,CS*%
X110100000Y-59780000D03*
%TO.P,UNIT_2,J3-11,IO17*%
%TO.N,unconnected-(UNIT_2-IO17-PadJ3-11)*%
X107560000Y-59780000D03*
%TO.P,UNIT_2,J3-12,IO16*%
%TO.N,unconnected-(UNIT_2-IO16-PadJ3-12)*%
X105020000Y-59780000D03*
%TO.P,UNIT_2,J3-13,IO4*%
%TO.N,unconnected-(UNIT_2-IO4-PadJ3-13)*%
X102480000Y-59780000D03*
%TO.P,UNIT_2,J3-14,IO0*%
%TO.N,unconnected-(UNIT_2-IO0-PadJ3-14)*%
X99940000Y-59780000D03*
%TO.P,UNIT_2,J3-15,IO2*%
%TO.N,unconnected-(UNIT_2-IO2-PadJ3-15)*%
X97400000Y-59780000D03*
%TO.P,UNIT_2,J3-16,IO15*%
%TO.N,unconnected-(UNIT_2-IO15-PadJ3-16)*%
X94860000Y-59780000D03*
%TO.P,UNIT_2,J3-17,SD1*%
%TO.N,unconnected-(UNIT_2-SD1-PadJ3-17)*%
X92320000Y-59780000D03*
%TO.P,UNIT_2,J3-18,SD0*%
%TO.N,unconnected-(UNIT_2-SD0-PadJ3-18)*%
X89780000Y-59780000D03*
%TO.P,UNIT_2,J3-19,CLK*%
%TO.N,unconnected-(UNIT_2-CLK-PadJ3-19)*%
X87240000Y-59780000D03*
%TD*%
D11*
%TO.P,J2-B1,1,Pin_1*%
%TO.N,A13*%
X74300000Y-82575000D03*
D12*
%TO.P,J2-B1,2,Pin_2*%
%TO.N,A14*%
X74300000Y-85115000D03*
%TO.P,J2-B1,3,Pin_3*%
%TO.N,A15*%
X74300000Y-87655000D03*
%TO.P,J2-B1,4,Pin_4*%
%TO.N,C0*%
X74300000Y-90195000D03*
%TO.P,J2-B1,5,Pin_5*%
%TO.N,C1*%
X74300000Y-92735000D03*
%TD*%
D11*
%TO.P,J9,1,Pin_1*%
%TO.N,SCL*%
X167933334Y-28320000D03*
D12*
%TO.P,J9,2,Pin_2*%
%TO.N,SDA*%
X165393334Y-28320000D03*
%TO.P,J9,3,Pin_3*%
%TO.N,Regulated 3v3*%
X162853334Y-28320000D03*
%TO.P,J9,4,Pin_4*%
%TO.N,GND*%
X160313334Y-28320000D03*
%TD*%
D11*
%TO.P,J3,1,Pin_1*%
%TO.N,IO12 Button 1*%
X74300000Y-39145000D03*
D12*
%TO.P,J3,2,Pin_2*%
%TO.N,GND*%
X74300000Y-41685000D03*
%TD*%
D11*
%TO.P,J4,1,Pin_1*%
%TO.N,SCL*%
X105283334Y-28320000D03*
D12*
%TO.P,J4,2,Pin_2*%
%TO.N,SDA*%
X102743334Y-28320000D03*
%TO.P,J4,3,Pin_3*%
%TO.N,Regulated 3v3*%
X100203334Y-28320000D03*
%TO.P,J4,4,Pin_4*%
%TO.N,GND*%
X97663334Y-28320000D03*
%TD*%
D11*
%TO.P,J2,1,Pin_1*%
%TO.N,GND*%
X190640000Y-59172500D03*
D12*
%TO.P,J2,2,Pin_2*%
%TO.N,+5v*%
X190640000Y-61712500D03*
%TO.P,J2,3,Pin_3*%
%TO.N,IO33 RPM*%
X190640000Y-64252500D03*
%TD*%
D11*
%TO.P,J8,1,Pin_1*%
%TO.N,GND*%
X74300000Y-59165000D03*
D12*
%TO.P,J8,2,Pin_2*%
%TO.N,+5v*%
X74300000Y-61705000D03*
%TO.P,J8,3,Pin_3*%
%TO.N,IO32 Speed*%
X74300000Y-64245000D03*
%TD*%
D15*
%TO.P,U1,1,GND*%
%TO.N,3v3 ground*%
X177232500Y-40590000D03*
%TO.P,U1,2,C0*%
%TO.N,C0*%
X174692500Y-40590000D03*
%TO.P,U1,3,C1*%
%TO.N,C1*%
X172152500Y-40590000D03*
%TO.P,U1,4,C2*%
%TO.N,C2*%
X169612500Y-40590000D03*
%TO.P,U1,5,C3*%
%TO.N,C3*%
X167072500Y-40590000D03*
%TO.P,U1,6,C4*%
%TO.N,C4*%
X164532500Y-40590000D03*
%TO.P,U1,7,C5*%
%TO.N,C5*%
X161992500Y-40590000D03*
%TO.P,U1,8,C6*%
%TO.N,C6*%
X159452500Y-40590000D03*
%TO.P,U1,9,C7*%
%TO.N,C7*%
X156912500Y-40590000D03*
%TO.P,U1,10,A15*%
%TO.N,A15*%
X154372500Y-40590000D03*
%TO.P,U1,11,A14*%
%TO.N,A14*%
X151832500Y-40590000D03*
%TO.P,U1,12,A13*%
%TO.N,A13*%
X149292500Y-40590000D03*
%TO.P,U1,13,A12*%
%TO.N,A12*%
X146752500Y-40590000D03*
%TO.P,U1,14,A11*%
%TO.N,A11*%
X144212500Y-40590000D03*
%TO.P,U1,15,A10*%
%TO.N,A10*%
X144212500Y-58370000D03*
%TO.P,U1,16,A9*%
%TO.N,A9*%
X146752500Y-58370000D03*
%TO.P,U1,17,A8*%
%TO.N,A8*%
X149292500Y-58370000D03*
%TO.P,U1,18,A7*%
%TO.N,A7*%
X151832500Y-58370000D03*
%TO.P,U1,19,A6*%
%TO.N,A6*%
X154372500Y-58370000D03*
%TO.P,U1,20,A5*%
%TO.N,A5*%
X156912500Y-58370000D03*
%TO.P,U1,21,A4*%
%TO.N,A4*%
X159452500Y-58370000D03*
%TO.P,U1,22,A3*%
%TO.N,A3*%
X161992500Y-58370000D03*
%TO.P,U1,23,A2*%
%TO.N,A2*%
X164532500Y-58370000D03*
%TO.P,U1,24,A1*%
%TO.N,A1*%
X167072500Y-58370000D03*
%TO.P,U1,25,A0*%
%TO.N,A0*%
X169612500Y-58370000D03*
%TO.P,U1,26,SCL*%
%TO.N,unconnected-(U1-SCL-Pad26)*%
X172152500Y-58370000D03*
%TO.P,U1,27,SDA*%
%TO.N,unconnected-(U1-SDA-Pad27)*%
X174692500Y-58370000D03*
%TO.P,U1,28,VDD*%
%TO.N,Regulated 3v3*%
X177232500Y-58370000D03*
D16*
%TO.P,U1,P$1*%
%TO.N,N/C*%
X175962500Y-49480000D03*
X145482500Y-49480000D03*
%TD*%
D11*
%TO.P,J1-B1,1,Pin_1*%
%TO.N,A5*%
X193155000Y-82567500D03*
D12*
%TO.P,J1-B1,2,Pin_2*%
%TO.N,A6*%
X193155000Y-85107500D03*
%TO.P,J1-B1,3,Pin_3*%
%TO.N,A7*%
X193155000Y-87647500D03*
%TO.P,J1-B1,4,Pin_4*%
%TO.N,C0*%
X193155000Y-90187500D03*
%TO.P,J1-B1,5,Pin_5*%
%TO.N,C1*%
X193155000Y-92727500D03*
%TD*%
D11*
%TO.P,J10,1,Pin_1*%
%TO.N,IO14 Button 2*%
X190640000Y-39152500D03*
D12*
%TO.P,J10,2,Pin_2*%
%TO.N,GND*%
X190640000Y-41692500D03*
%TD*%
D11*
%TO.P,J5,1,Pin_1*%
%TO.N,SCL*%
X147050000Y-28320000D03*
D12*
%TO.P,J5,2,Pin_2*%
%TO.N,SDA*%
X144510000Y-28320000D03*
%TO.P,J5,3,Pin_3*%
%TO.N,Regulated 3v3*%
X141970000Y-28320000D03*
%TO.P,J5,4,Pin_4*%
%TO.N,GND*%
X139430000Y-28320000D03*
%TD*%
D11*
%TO.P,J2-A1,1,Pin_1*%
%TO.N,A8*%
X71760000Y-82575000D03*
D12*
%TO.P,J2-A1,2,Pin_2*%
%TO.N,A9*%
X71760000Y-85115000D03*
%TO.P,J2-A1,3,Pin_3*%
%TO.N,A10*%
X71760000Y-87655000D03*
%TO.P,J2-A1,4,Pin_4*%
%TO.N,A11*%
X71760000Y-90195000D03*
%TO.P,J2-A1,5,Pin_5*%
%TO.N,A12*%
X71760000Y-92735000D03*
%TD*%
D17*
%TO.P,U2,1,Vin*%
%TO.N,+5v*%
X111550000Y-67930000D03*
%TO.P,U2,2,GND*%
%TO.N,GND*%
X106460000Y-67930000D03*
%TO.P,U2,3,Vout*%
%TO.N,Regulated 3v3*%
X119160000Y-88240000D03*
%TO.P,U2,4,Trim*%
%TO.N,unconnected-(U2-Trim-Pad4)*%
X109000000Y-88240000D03*
%TO.P,U2,5,-Vout*%
%TO.N,3v3 ground*%
X98840000Y-88240000D03*
%TO.P,U2,6,R.C*%
%TO.N,unconnected-(U2-R.C-Pad6)*%
X98840000Y-67930000D03*
%TD*%
D18*
%TO.P,UNIT_1,1,INT*%
%TO.N,unconnected-(UNIT_1-INT-Pad1)*%
X140190000Y-74480000D03*
%TO.P,UNIT_1,2,SCK*%
%TO.N,SCK*%
X140190000Y-77020000D03*
%TO.P,UNIT_1,3,SI*%
%TO.N,SI*%
X140190000Y-79560000D03*
%TO.P,UNIT_1,4,SO*%
%TO.N,SO*%
X140190000Y-82100000D03*
%TO.P,UNIT_1,5,CS*%
%TO.N,CS*%
X140190000Y-84640000D03*
%TO.P,UNIT_1,6,GND*%
%TO.N,GND*%
X140190000Y-87180000D03*
%TO.P,UNIT_1,7,VCC*%
%TO.N,+5v*%
X140190000Y-89720000D03*
D19*
%TO.P,UNIT_1,8,High_CAN*%
%TO.N,High*%
X175170000Y-79860000D03*
%TO.P,UNIT_1,9,Low_CAN*%
%TO.N,Low*%
X175170000Y-84360000D03*
%TD*%
D20*
%TO.P,J7,1,Pin_1*%
%TO.N,+5v*%
X92725000Y-94500000D03*
D21*
%TO.P,J7,2,Pin_2*%
%TO.N,GND*%
X97525000Y-94500000D03*
%TD*%
D22*
%TO.P,J1,1,Pin_1*%
%TO.N,High*%
X110300000Y-94500000D03*
D23*
%TO.P,J1,2,Pin_2*%
%TO.N,Low*%
X113900000Y-94500000D03*
%TO.P,J1,3,Pin_3*%
%TO.N,High*%
X117500000Y-94500000D03*
%TO.P,J1,4,Pin_4*%
%TO.N,Low*%
X121100000Y-94500000D03*
%TD*%
D24*
%TO.N,+5v*%
X145500000Y-88700000D03*
X100500000Y-85100000D03*
%TO.N,IO33 RPM*%
X134300000Y-47800000D03*
%TO.N,Regulated 3v3*%
X185600000Y-54200000D03*
%TO.N,IO14 Button 2*%
X141100000Y-38300000D03*
%TO.N,A7*%
X151800000Y-64700000D03*
%TO.N,A9*%
X131400000Y-61599997D03*
%TO.N,A8*%
X131400000Y-62400000D03*
%TO.N,A6*%
X154400000Y-64700000D03*
%TO.N,A11*%
X123900000Y-61200000D03*
X129100000Y-42400000D03*
%TO.N,A5*%
X156900000Y-64600000D03*
%TO.N,3v3 ground*%
X175800000Y-45600000D03*
X155300000Y-54300000D03*
%TO.N,A10*%
X131400000Y-60799994D03*
%TO.N,C1*%
X169000000Y-45700000D03*
%TO.N,SCK*%
X135700000Y-85700000D03*
%TD*%
D10*
%TO.N,Low*%
X119300000Y-92700000D02*
X121100000Y-94500000D01*
X121100000Y-94500000D02*
X124700000Y-98100000D01*
X113900000Y-94500000D02*
X115700000Y-92700000D01*
X115700000Y-92700000D02*
X119300000Y-92700000D01*
X152200000Y-98100000D02*
X165940000Y-84360000D01*
X165940000Y-84360000D02*
X175170000Y-84360000D01*
X124700000Y-98100000D02*
X152200000Y-98100000D01*
%TO.N,High*%
X110300000Y-94500000D02*
X110300000Y-95200000D01*
X111200000Y-96100000D02*
X115900000Y-96100000D01*
X115900000Y-96100000D02*
X117500000Y-94500000D01*
X110300000Y-95200000D02*
X111200000Y-96100000D01*
D25*
%TO.N,+5v*%
X142080000Y-89720000D02*
X140190000Y-89720000D01*
X100195262Y-85100000D02*
X98995262Y-86300000D01*
X98995262Y-86300000D02*
X93700000Y-86300000D01*
X87260000Y-48745000D02*
X87260000Y-36740000D01*
X100500000Y-85100000D02*
X100195262Y-85100000D01*
X92725000Y-87275000D02*
X92725000Y-94500000D01*
X93700000Y-86300000D02*
X92725000Y-87275000D01*
X145500000Y-88700000D02*
X143100000Y-88700000D01*
X143100000Y-88700000D02*
X142080000Y-89720000D01*
X74300000Y-61705000D02*
X87260000Y-48745000D01*
D10*
%TO.N,IO33 RPM*%
X129900000Y-44700000D02*
X119000000Y-44700000D01*
X115200000Y-38000000D02*
X115200000Y-36740000D01*
X134300000Y-47800000D02*
X133000000Y-47800000D01*
X118000000Y-43700000D02*
X118000000Y-40800000D01*
X118000000Y-40800000D02*
X115200000Y-38000000D01*
X119000000Y-44700000D02*
X118000000Y-43700000D01*
X133000000Y-47800000D02*
X129900000Y-44700000D01*
D25*
%TO.N,GND*%
X132300000Y-57300000D02*
X132960000Y-57960000D01*
X112200000Y-52200000D02*
X99960000Y-39960000D01*
X132960000Y-57960000D02*
X132960000Y-59780000D01*
X129750194Y-57300000D02*
X132300000Y-57300000D01*
X110540000Y-33660000D02*
X128840000Y-33660000D01*
X124650194Y-52200000D02*
X129750194Y-57300000D01*
X148000000Y-33700000D02*
X153380000Y-28320000D01*
X97525000Y-94500000D02*
X101400000Y-94500000D01*
X148000000Y-33700000D02*
X175400000Y-33700000D01*
X147200000Y-77000000D02*
X147200000Y-80170000D01*
X112200000Y-52200000D02*
X124650194Y-52200000D01*
X183400000Y-41700000D02*
X183400000Y-55500000D01*
X106460000Y-85040000D02*
X113600000Y-77900000D01*
X134820000Y-28320000D02*
X139430000Y-28320000D01*
X187127500Y-59172500D02*
X190640000Y-59172500D01*
X183407500Y-41692500D02*
X190640000Y-41692500D01*
X128840000Y-33660000D02*
X128880000Y-33700000D01*
X183400000Y-41700000D02*
X183407500Y-41692500D01*
X183400000Y-55500000D02*
X187100000Y-59200000D01*
X134800000Y-28300000D02*
X134820000Y-28320000D01*
X113600000Y-77900000D02*
X134100000Y-77900000D01*
X106460000Y-89440000D02*
X106460000Y-86300000D01*
X187100000Y-59200000D02*
X187127500Y-59172500D01*
X77385000Y-41685000D02*
X74300000Y-41685000D01*
X147200000Y-80170000D02*
X140190000Y-87180000D01*
X117720000Y-59780000D02*
X117720000Y-57720000D01*
X99960000Y-39960000D02*
X99960000Y-36740000D01*
X106460000Y-86300000D02*
X106460000Y-67930000D01*
X139500000Y-72500000D02*
X142700000Y-72500000D01*
X99960000Y-36740000D02*
X99960000Y-33660000D01*
X134200000Y-28300000D02*
X134800000Y-28300000D01*
X128880000Y-33700000D02*
X148000000Y-33700000D01*
X142700000Y-72500000D02*
X147200000Y-77000000D01*
X106460000Y-86300000D02*
X106460000Y-85040000D01*
X101400000Y-94500000D02*
X106460000Y-89440000D01*
X77400000Y-41700000D02*
X77385000Y-41685000D01*
X134100000Y-77900000D02*
X139500000Y-72500000D01*
X97663334Y-31363334D02*
X88236666Y-31363334D01*
X153380000Y-28320000D02*
X160313334Y-28320000D01*
X128840000Y-33660000D02*
X134200000Y-28300000D01*
X175400000Y-33700000D02*
X183400000Y-41700000D01*
X97663334Y-31363334D02*
X97663334Y-28320000D01*
X110540000Y-33660000D02*
X115900000Y-28300000D01*
X115920000Y-28320000D02*
X118546667Y-28320000D01*
X77900000Y-41700000D02*
X77400000Y-41700000D01*
X115900000Y-28300000D02*
X115920000Y-28320000D01*
X88236666Y-31363334D02*
X77900000Y-41700000D01*
X99960000Y-33660000D02*
X97663334Y-31363334D01*
X117720000Y-57720000D02*
X112200000Y-52200000D01*
X99960000Y-33660000D02*
X110540000Y-33660000D01*
%TO.N,Regulated 3v3*%
X65800000Y-95700000D02*
X65800000Y-37100000D01*
D10*
X177500000Y-31600000D02*
X166133334Y-31600000D01*
D25*
X101300000Y-98800000D02*
X68900000Y-98800000D01*
D10*
X185600000Y-54200000D02*
X185600000Y-51700000D01*
X181700000Y-35800000D02*
X177500000Y-31600000D01*
D25*
X68900000Y-98800000D02*
X65800000Y-95700000D01*
D10*
X185600000Y-51700000D02*
X193400000Y-43900000D01*
D25*
X97983334Y-26100000D02*
X100203334Y-28320000D01*
X76800000Y-26100000D02*
X97983334Y-26100000D01*
X114392412Y-88240000D02*
X111832412Y-90800000D01*
D10*
X192000000Y-35800000D02*
X181700000Y-35800000D01*
D25*
X111832412Y-90800000D02*
X109300000Y-90800000D01*
D10*
X166133334Y-31600000D02*
X162853334Y-28320000D01*
D25*
X65800000Y-37100000D02*
X76800000Y-26100000D01*
X119160000Y-88240000D02*
X114392412Y-88240000D01*
X109300000Y-90800000D02*
X101300000Y-98800000D01*
D10*
X193400000Y-37200000D02*
X192000000Y-35800000D01*
X193400000Y-43900000D02*
X193400000Y-37200000D01*
%TO.N,SCL*%
X126166667Y-26566667D02*
X126166667Y-28320000D01*
X146400000Y-26200000D02*
X147050000Y-26850000D01*
X108780000Y-28320000D02*
X110900000Y-26200000D01*
X125800000Y-26200000D02*
X146400000Y-26200000D01*
X105283334Y-28320000D02*
X108780000Y-28320000D01*
X146400000Y-26200000D02*
X167200000Y-26200000D01*
X167200000Y-26200000D02*
X167933334Y-26933334D01*
X110900000Y-26200000D02*
X125800000Y-26200000D01*
X147050000Y-26850000D02*
X147050000Y-28320000D01*
X167933334Y-26933334D02*
X167933334Y-28320000D01*
X125800000Y-26200000D02*
X126166667Y-26566667D01*
%TO.N,IO14 Button 2*%
X105500000Y-34800000D02*
X105040000Y-35260000D01*
X105040000Y-35260000D02*
X105040000Y-36740000D01*
X141100000Y-38300000D02*
X137600000Y-34800000D01*
X137600000Y-34800000D02*
X105500000Y-34800000D01*
%TO.N,A1*%
X167100000Y-61400000D02*
X167072500Y-61372500D01*
X167100000Y-61592500D02*
X167100000Y-61400000D01*
X190615000Y-85107500D02*
X167100000Y-61592500D01*
X167072500Y-61372500D02*
X167072500Y-58370000D01*
%TO.N,C0*%
X103400000Y-65400000D02*
X104501471Y-65400000D01*
X147800000Y-46500000D02*
X149200000Y-45100000D01*
X104501471Y-65400000D02*
X132232842Y-65400000D01*
X185900000Y-66400000D02*
X185900000Y-61000000D01*
X74300000Y-90195000D02*
X78605000Y-90195000D01*
X181200000Y-56300000D02*
X181200000Y-49300000D01*
X149200000Y-45100000D02*
X172400000Y-45100000D01*
X193155000Y-90187500D02*
X196800000Y-86542500D01*
X185900000Y-61000000D02*
X181200000Y-56300000D01*
X196800000Y-77300000D02*
X185900000Y-66400000D01*
X132232842Y-65400000D02*
X142600000Y-55032842D01*
X172400000Y-45100000D02*
X174700000Y-42800000D01*
X142600000Y-47300000D02*
X143400000Y-46500000D01*
X196800000Y-86542500D02*
X196800000Y-77300000D01*
X142600000Y-55032842D02*
X142600000Y-47300000D01*
X143400000Y-46500000D02*
X147800000Y-46500000D01*
X78605000Y-90195000D02*
X103400000Y-65400000D01*
%TO.N,A2*%
X164532500Y-61565000D02*
X164532500Y-58370000D01*
X190615000Y-87647500D02*
X164532500Y-61565000D01*
%TO.N,A0*%
X180400000Y-72500000D02*
X182800000Y-72500000D01*
X182800000Y-72500000D02*
X190615000Y-80315000D01*
X169612500Y-58370000D02*
X169612500Y-61712500D01*
X190615000Y-80315000D02*
X190615000Y-82567500D01*
X169612500Y-61712500D02*
X180400000Y-72500000D01*
%TO.N,A7*%
X151800000Y-64700000D02*
X151832500Y-64667500D01*
X151832500Y-64667500D02*
X151832500Y-58370000D01*
%TO.N,A9*%
X70610000Y-80724314D02*
X70610000Y-80690000D01*
X69100000Y-82200000D02*
X69100000Y-84200000D01*
X98465686Y-62200000D02*
X86865686Y-73800000D01*
X70015000Y-85115000D02*
X71760000Y-85115000D01*
X77534314Y-73800000D02*
X70610000Y-80724314D01*
X130965689Y-61599997D02*
X130365686Y-62200000D01*
X69100000Y-84200000D02*
X70015000Y-85115000D01*
X131400000Y-61599997D02*
X130965689Y-61599997D01*
X130365686Y-62200000D02*
X98465686Y-62200000D01*
X70610000Y-80690000D02*
X69100000Y-82200000D01*
X86865686Y-73800000D02*
X77534314Y-73800000D01*
%TO.N,A8*%
X98631372Y-62600000D02*
X131200000Y-62600000D01*
X131200000Y-62600000D02*
X131400000Y-62400000D01*
X87031372Y-74200000D02*
X98631372Y-62600000D01*
X71760000Y-80140000D02*
X77700000Y-74200000D01*
X77700000Y-74200000D02*
X87031372Y-74200000D01*
X71760000Y-82575000D02*
X71760000Y-80140000D01*
%TO.N,A6*%
X154400000Y-64700000D02*
X154372500Y-64672500D01*
X154372500Y-64672500D02*
X154372500Y-58370000D01*
%TO.N,A3*%
X190615000Y-90187500D02*
X161992500Y-61565000D01*
X161992500Y-61565000D02*
X161992500Y-58370000D01*
%TO.N,A12*%
X131500000Y-63800000D02*
X99034314Y-63800000D01*
X99034314Y-63800000D02*
X82034314Y-80800000D01*
X73000000Y-91495000D02*
X71760000Y-92735000D01*
X146752500Y-40590000D02*
X140900000Y-46442500D01*
X140900000Y-46442500D02*
X140900000Y-54400000D01*
X73775000Y-80800000D02*
X73000000Y-81575000D01*
X73000000Y-81575000D02*
X73000000Y-91495000D01*
X82034314Y-80800000D02*
X73775000Y-80800000D01*
X140900000Y-54400000D02*
X131500000Y-63800000D01*
%TO.N,A11*%
X77000000Y-73000000D02*
X86200000Y-73000000D01*
X129100000Y-42400000D02*
X139600000Y-42400000D01*
X86200000Y-73000000D02*
X86534314Y-73000000D01*
X139600000Y-42400000D02*
X141400000Y-40600000D01*
X98334314Y-61200000D02*
X123900000Y-61200000D01*
X141810000Y-40590000D02*
X144212500Y-40590000D01*
X68200000Y-86635000D02*
X68200000Y-81800000D01*
X141800000Y-40600000D02*
X141810000Y-40590000D01*
X86534314Y-73000000D02*
X86967157Y-72567157D01*
X71760000Y-90195000D02*
X68200000Y-86635000D01*
X141400000Y-40600000D02*
X141800000Y-40600000D01*
X86967157Y-72567157D02*
X98334314Y-61200000D01*
X68200000Y-81800000D02*
X77000000Y-73000000D01*
%TO.N,A5*%
X156912500Y-64587500D02*
X156912500Y-58370000D01*
X156900000Y-64600000D02*
X156912500Y-64587500D01*
%TO.N,3v3 ground*%
X155300000Y-54300000D02*
X155600000Y-54000000D01*
X173700000Y-46500000D02*
X174900000Y-46500000D01*
X155600000Y-54000000D02*
X155600000Y-52900000D01*
X174900000Y-46500000D02*
X175800000Y-45600000D01*
X162000000Y-46500000D02*
X173700000Y-46500000D01*
X155700000Y-52800000D02*
X162000000Y-46500000D01*
X155600000Y-52900000D02*
X155700000Y-52800000D01*
%TO.N,A10*%
X86700000Y-73400000D02*
X77334314Y-73400000D01*
X130800000Y-61200000D02*
X129834314Y-61200000D01*
X129234314Y-61800000D02*
X98300000Y-61800000D01*
X131200006Y-60799994D02*
X130800000Y-61200000D01*
X129834314Y-61200000D02*
X129234314Y-61800000D01*
X68700000Y-82034314D02*
X68700000Y-84595000D01*
X68700000Y-84595000D02*
X71760000Y-87655000D01*
X77334314Y-73400000D02*
X68700000Y-82034314D01*
X131400000Y-60799994D02*
X131200006Y-60799994D01*
X98300000Y-61800000D02*
X86700000Y-73400000D01*
%TO.N,A13*%
X141300000Y-46800000D02*
X141300000Y-54601471D01*
X141300000Y-54601471D02*
X131701471Y-64200000D01*
X99200000Y-64200000D02*
X80825000Y-82575000D01*
X149292500Y-40590000D02*
X149292500Y-42407500D01*
X149292500Y-42407500D02*
X146400000Y-45300000D01*
X146400000Y-45300000D02*
X142800000Y-45300000D01*
X142800000Y-45300000D02*
X141300000Y-46800000D01*
X131701471Y-64200000D02*
X99200000Y-64200000D01*
X80825000Y-82575000D02*
X74300000Y-82575000D01*
%TO.N,A14*%
X74300000Y-85115000D02*
X78885000Y-85115000D01*
X141700000Y-46965686D02*
X142965686Y-45700000D01*
X146722500Y-45700000D02*
X151832500Y-40590000D01*
X141700000Y-54801471D02*
X141700000Y-46965686D01*
X99400000Y-64600000D02*
X131901471Y-64600000D01*
X142965686Y-45700000D02*
X146722500Y-45700000D01*
X78885000Y-85115000D02*
X99400000Y-64600000D01*
X131901471Y-64600000D02*
X141700000Y-54801471D01*
%TO.N,A4*%
X159452500Y-61565000D02*
X159452500Y-58370000D01*
X190615000Y-92727500D02*
X159452500Y-61565000D01*
%TO.N,A15*%
X154372500Y-41827500D02*
X154372500Y-40590000D01*
X153827500Y-42372500D02*
X154372500Y-41827500D01*
X76945000Y-87655000D02*
X99600000Y-65000000D01*
X74300000Y-87655000D02*
X76945000Y-87655000D01*
X99600000Y-65000000D02*
X132067157Y-65000000D01*
X147300000Y-46100000D02*
X151027500Y-42372500D01*
X132067157Y-65000000D02*
X142200000Y-54867157D01*
X142200000Y-54867157D02*
X142200000Y-47100000D01*
X143200000Y-46100000D02*
X147300000Y-46100000D01*
X142200000Y-47100000D02*
X143200000Y-46100000D01*
X151027500Y-42372500D02*
X153827500Y-42372500D01*
%TO.N,C1*%
X193155000Y-92727500D02*
X197700000Y-88182500D01*
X172152500Y-39147500D02*
X172152500Y-40590000D01*
X76765000Y-92735000D02*
X103700000Y-65800000D01*
X74300000Y-92735000D02*
X76765000Y-92735000D01*
X187000000Y-61100000D02*
X182100000Y-56200000D01*
X152498528Y-45700000D02*
X169000000Y-45700000D01*
X178000000Y-38300000D02*
X173000000Y-38300000D01*
X197700000Y-88182500D02*
X197700000Y-77000000D01*
X132398528Y-65800000D02*
X152498528Y-45700000D01*
X103700000Y-65800000D02*
X104801471Y-65800000D01*
X182100000Y-42400000D02*
X178000000Y-38300000D01*
X173000000Y-38300000D02*
X172152500Y-39147500D01*
X104801471Y-65800000D02*
X132398528Y-65800000D01*
X182100000Y-56200000D02*
X182100000Y-42400000D01*
X197700000Y-77000000D02*
X187000000Y-66300000D01*
X187000000Y-66300000D02*
X187000000Y-61100000D01*
%TO.N,SCK*%
X137200000Y-77500000D02*
X137680000Y-77020000D01*
X135700000Y-85700000D02*
X137200000Y-84200000D01*
X137680000Y-77020000D02*
X140190000Y-77020000D01*
X137200000Y-84200000D02*
X137200000Y-77500000D01*
%TD*%
M02*
